<?xml version="1.0" encoding="UTF-8"?> <!-- Creator: CorelDRAW X7 --> <svg xmlns="http://www.w3.org/2000/svg" xmlns:xlink="http://www.w3.org/1999/xlink" xml:space="preserve" width="3.91574in" height="1.05778in" version="1.1" style="shape-rendering:geometricPrecision; text-rendering:geometricPrecision; image-rendering:optimizeQuality; fill-rule:evenodd; clip-rule:evenodd" viewBox="0 0 2412 652"> <defs> <style type="text/css"> <![CDATA[ .fil0 {fill:#E52D33} .fil1 {fill:#4D4D4D} ]]> </style> </defs> <g id="Layer_x0020_1"> <metadata id="CorelCorpID_0Corel-Layer"></metadata> <g id="_1502372433504"> <path class="fil0" d="M1429 28c0,0 -3,-7 -15,-4l-37 12c0,0 -9,6 -14,16l-5 15 -4 5 -7 6 -7 2 -11 2 0 2c0,0 4,1 6,2 1,1 4,2 5,3 1,1 13,11 13,11l11 4 11 1 5 1 8 -2 15 -10 11 -8 8 -5 6 -3 8 -1 3 1c0,0 34,104 33,105 -1,0 4,1 4,1l3 -1 6 20 0 -9 4 -5 0 -4 -2 -2 -5 -1 -3 -1 -2 -3 -33 -104 -15 -46z"></path> <path class="fil1" d="M1385 432l0 0zm-1385 220l7 0c230,-154 653,-421 868,-458 14,-3 33,-7 38,-8 5,-2 4,-1 8,1 6,4 14,3 23,3 -3,14 6,21 11,21l17 0c4,0 8,-4 12,-2 3,2 3,16 30,17 8,0 14,-3 17,-7 2,-3 3,-5 4,-9 1,-7 0,-2 7,-2 5,0 19,-6 22,-8 10,-7 8,-16 11,-18l38 -3c17,0 74,4 90,9 19,5 64,13 64,33 0,13 -14,21 -21,28 -2,2 -26,23 -21,25 1,1 9,-9 11,-12 16,-16 34,-24 34,-41 0,-19 -41,-32 -59,-35l-20 -3c-8,-2 -56,-7 -65,-7 -29,0 -27,0 -56,3 0,12 -4,17 -12,21 -12,6 -12,4 -26,3 -4,10 5,19 -21,19 -12,0 -23,-6 -24,-17 -11,2 -41,10 -41,-10 0,-3 1,-4 2,-8 -6,-1 -22,3 -26,-3l28 -4c2,5 11,8 17,6 6,-1 13,-7 14,-12l2 0c2,7 14,16 23,16 10,0 10,-6 15,-9 1,1 16,19 27,7 3,-3 2,-6 2,-11 4,2 14,-1 17,-4 20,-12 1,-41 -9,-41 -7,0 -9,5 -14,7 0,-8 -7,-20 -13,-22 -8,-2 -20,9 -21,13l-3 0c-1,-13 -31,-30 -43,-12 -3,5 -4,13 -9,13 -11,-1 -13,-1 -18,5 -3,4 -6,10 -6,17 0,9 3,9 5,13 -8,4 -20,1 -20,16l-33 7c-262,58 -617,280 -883,463zm2408 0l4 0c-469,-275 -861,-97 -903,-76 -52,12 -110,19 -159,-5 -30,-16 -47,-28 -57,-63 -2,-7 -10,-45 -12,-48 -3,-5 -98,-57 -109,-72 7,-3 43,-11 52,-12 8,-2 17,-4 25,-6l27 -6c24,-6 48,-11 72,-16 9,-2 7,-3 17,2 4,1 9,2 10,7l-19 -9c-3,13 -13,30 -18,44 -1,5 -5,11 -5,16 7,5 19,7 29,6 4,0 8,-2 10,-2 0,-8 -13,-11 -19,-11l0 -3c6,-1 21,-31 24,-38 9,3 12,5 25,5 -1,3 -2,6 -3,10l-3 24c0,6 -1,5 -5,8 -12,6 -24,12 -36,19 -8,4 -67,37 -70,37 0,13 7,26 11,36 2,6 4,11 7,17 2,4 4,14 10,14 0,-5 2,-7 2,-13l1 -32c0,-8 3,-5 6,-2l75 56c5,4 34,28 37,27 3,-1 20,-30 23,-35l143 -230c5,-8 15,-7 15,-14 -5,1 -2,2 -7,3 -12,1 -11,0 -25,4l-67 14c-5,1 -11,3 -17,4 -3,1 -3,1 -8,2 -6,1 -6,-1 -6,5l114 -25 -181 98c0,-4 3,-16 4,-19 1,-2 2,-8 3,-10 1,-9 -19,-1 -28,-1 -6,0 -15,-4 -20,-5 0,-5 0,-6 -4,-8 -3,-1 -5,-2 -9,-3l0 -2c17,0 7,-8 25,8 3,4 12,9 6,-1 -2,-3 -6,-8 -7,-12 11,0 10,9 21,7l2 -12c4,1 5,7 6,11 1,2 3,11 4,12 8,0 5,-14 5,-27 9,0 20,-4 29,-5 6,-1 25,-4 26,-9l-55 12c0,-12 2,-36 0,-47 -5,-32 3,-30 3,-46 7,1 11,10 33,-12 4,-4 9,-9 12,-13 7,-10 -7,-15 0,-17 1,-1 2,4 3,6 3,6 3,2 8,4l24 78c2,5 6,22 10,24 2,-8 -17,-55 -20,-66 -3,-11 -7,-23 -11,-33 -4,-13 0,-7 2,-16 2,-6 -3,-11 -10,-9 -1,-7 -27,-81 -32,-98 -4,-13 -7,-27 -12,-40 -2,-5 -6,-14 -7,-19l-3 0 17 52 -3 0c-1,-8 -10,-31 -13,-41 -5,-12 3,-19 -39,-5 -37,13 -23,35 -41,46 -15,9 -31,3 -34,9 5,3 12,0 19,2 6,2 9,6 13,9 9,6 20,11 33,12 12,0 31,-16 42,-24 6,-5 7,-5 18,-5l34 106c-1,3 -1,1 -2,3 -1,2 -1,2 -1,4 -3,7 -11,14 -17,18 -16,11 -21,1 -29,-8 -3,-5 -12,-8 -13,-10 -3,-9 10,1 12,-11 2,-17 6,-27 -8,-35 -14,-7 -25,2 -29,12 -2,4 -4,14 -5,18 -1,7 -6,11 -8,16 -1,4 -1,4 -3,8 -1,3 -2,4 -4,8 -6,17 -2,44 5,58l-8 9c7,4 12,-3 19,-5 -3,5 -6,5 -6,11l28 -6c-1,2 -18,15 -6,15 7,0 18,-6 25,-6l1 9c-6,0 2,1 -6,1 -3,1 -5,1 -8,1 -8,1 -22,1 -30,-2 -14,-4 -2,-6 -9,-9 -8,-5 -2,7 -2,8 0,2 -2,10 -3,13 -2,7 -7,21 -7,27 -20,5 -46,4 -66,1 -14,-3 -42,-12 -55,-17 -24,-12 -16,-23 -22,-27 0,11 0,12 5,19 3,3 10,8 14,10 11,4 24,9 37,12 22,5 14,5 39,8 7,1 28,0 35,0 5,-1 4,-2 11,-2l0 7c-6,3 -23,5 -31,7 -19,5 -40,8 -60,13 -9,2 -21,6 -31,7 -20,4 -41,10 -61,14 -17,4 26,27 33,32l69 43c6,4 4,5 6,13 1,4 3,10 4,15 4,22 9,39 20,55 7,10 30,26 43,31 17,8 37,15 59,16 11,0 24,2 36,0 34,-4 49,-4 83,-18 87,-38 451,-170 882,81zm-1461 -519c10,0 6,2 10,2 6,0 8,-22 21,-22 15,0 24,11 28,22l4 0c0,-2 10,-15 21,-15 3,6 11,10 11,24l1 1c12,-10 8,-8 19,-9 3,7 21,20 3,35 -6,5 -9,3 -16,3 -3,0 -1,2 -1,8 0,8 -25,11 -26,-12l-2 0c-1,14 -10,21 -23,14 -22,-11 -5,-24 -11,-27 -7,-3 -5,11 -7,15 -2,3 -10,12 -13,12 -8,0 -5,0 -13,-4 0,-3 5,-7 -1,-7 -5,0 -4,2 -5,5l-25 3c-7,0 0,-7 3,-9 3,-1 13,-3 15,-4 0,-7 -8,-5 -6,-20 1,-5 7,-15 13,-15zm1024 -45c0,-3 0,4 0,0zm-139 -83c-8,0 -15,5 -13,8 2,1 1,0 7,-3 5,-3 1,0 6,-5zm-23 19c3,-1 8,-6 6,-10l-4 4c-2,2 -2,3 -2,6zm-5 15c4,-3 4,-8 3,-12 -4,3 -3,5 -3,12zm30 -35c3,2 3,1 7,1 -3,-4 -7,-2 -7,-1zm-617 284l2 0c1,-5 2,-3 -1,-5 -1,2 -1,1 -1,5zm3 -7c2,-2 3,-2 3,-6 -3,1 -3,2 -3,6zm598 -267l1 0 -1 -1 0 1 -1 0 1 1 0 -1zm147 73c3,5 3,5 7,5 6,0 -3,-6 16,-6 7,0 15,0 22,0 -7,5 -18,6 -29,6 1,10 2,21 -10,28 -13,8 -34,10 -48,2 -7,-4 -7,-8 -11,-10 -2,5 0,11 -5,17 -8,10 -16,9 -27,9 -2,0 -13,-4 -15,-4 -5,-3 -9,-4 -12,-8 -8,-6 -11,-14 -11,-28 -4,0 -5,4 -9,7 -3,2 -6,3 -10,5 -8,2 -15,-7 -15,-15l0 -5 13 0 0 -3 -12 0c0,-13 16,-30 28,-30 13,0 22,2 35,9 14,7 14,13 18,16 3,-2 17,-33 28,-33 14,0 24,21 30,32 4,-3 7,-13 14,-13 6,-1 11,10 11,17l-8 2zm-85 -68c-8,-2 -13,-17 -33,-16l0 2c15,1 31,17 32,17 4,0 11,-19 19,-19l7 0c4,0 21,12 25,27 5,-1 7,-9 14,-9 13,0 24,11 28,21 1,4 2,13 2,14 10,-2 10,-3 20,-2 26,1 27,27 18,29l-36 1c-8,-37 -27,-10 -28,-9 -1,-7 -19,-28 -25,-28l-7 0c-6,0 -25,23 -25,29 -3,0 -8,-8 -18,-13 -2,-1 -20,-8 -23,-8 -15,0 -15,-2 -27,4 -8,5 -17,18 -18,28 -36,-1 -17,-33 -2,-33 8,0 5,3 9,2 -1,-7 -6,-6 -6,-17l-1 11c-7,3 -8,-1 -16,7 -5,6 -8,11 -8,19 0,7 5,8 8,11l-41 0 0 3 56 0c0,11 5,23 17,23 6,0 14,-6 19,-9 0,26 25,37 48,37 14,0 24,-9 25,-21l3 0c2,4 14,10 20,10 14,0 25,1 38,-8 11,-7 11,-17 11,-28 8,0 15,1 23,-3 10,-5 5,-6 17,-6 6,0 5,4 8,-1l-15 -2c7,-11 -4,-31 -21,-31 -11,0 -10,0 -21,1 0,-16 -14,-33 -30,-33 -9,0 -10,3 -15,6 0,-8 -16,-21 -23,-24 -9,-2 -13,0 -18,3 -3,3 -10,11 -10,15zm-492 411l-3 2 3 -2zm3 0l-3 0 3 0zm0 0c1,-3 6,-6 10,-6 7,0 8,-1 13,-3 24,-7 17,-3 26,-2 -3,5 -27,13 -34,16 -8,3 -5,-3 -7,-8l-8 3zm19 -18l0 1c0,0 0,0 0,-1zm-70 -11l16 3c3,1 12,4 11,5 -2,6 -27,-1 -30,-1 0,-4 0,-7 3,-7zm69 13l-11 6 1 -15c4,0 8,-5 9,-3 1,1 -1,3 -1,6 0,8 1,0 2,6zm1 -17l-11 4 5 -35 5 -1 7 1 -6 31zm8 -35l4 0 -2 8 0 0 -2 -8zm-78 32l18 -42 16 7c-1,6 -17,30 -21,36 -5,7 -6,0 -13,-1zm41 -54c5,0 7,5 8,8l-8 -5 0 -3zm-23 -1c0,-5 4,-4 9,-4 3,0 1,2 5,3l0 2c-6,0 -14,5 -14,-1zm39 -1c3,-1 3,-2 7,-2l3 0 0 7c-5,1 -6,-2 -10,-5zm23 -6l3 0 0 18c-3,-1 -3,-4 -4,-9 -1,-2 -4,-9 1,-9zm-37 -2l6 5c-6,0 -5,-1 -6,-5zm0 8c-9,0 -4,2 -11,-4 -5,-4 -5,-2 -11,-2l10 -37c9,1 21,5 31,3 0,6 3,27 5,34l-15 3c-1,-4 -9,-10 -14,-10 -1,6 2,8 5,13zm175 -17l-147 91c4,-9 1,-14 10,-19 7,-3 13,-6 20,-10 15,-8 114,-61 117,-62zm0 0l1 -2 1 1 -2 1zm-151 -7c3,4 2,5 3,10 2,5 4,5 0,7l-3 -17zm153 5c1,-1 4,1 1,0 0,0 -2,1 -1,0zm-126 243l-3 0c0,-2 -81,-62 -92,-71 -33,-24 -24,-22 -26,4 -1,7 1,27 -3,30 0,-4 -22,-48 -22,-58 0,-2 22,-13 26,-15 9,-6 78,-43 81,-44l0 14 -57 35c-3,3 -16,9 -17,13 7,0 67,-36 75,-40l3 8c8,1 28,-8 36,-12 5,-2 6,-2 8,-7 -10,-12 -31,2 -39,2l192 -119 -162 260zm-28 -264l17 -1c0,7 0,11 0,19 0,12 4,14 -8,14l-9 -32zm193 -4l0 0zm-231 -69c0,4 2,0 4,1 0,6 3,11 3,15 0,8 -3,12 -3,18l-3 0c0,-12 -7,-15 -3,-42 1,-6 3,-9 3,-12 3,2 3,6 3,10 0,3 -4,5 -4,10zm50 -5c0,10 8,6 8,16 0,4 -5,14 -4,27l1 18 -27 6c1,-6 12,-9 14,-15 -7,-4 -19,4 -29,4 7,-6 4,-14 -13,-3 2,-7 11,-7 10,-23 0,-5 -1,-8 -1,-15 1,-14 -1,-8 -3,-14 2,-3 0,-6 6,-8 4,-1 8,-1 14,-1 15,0 11,-15 16,-15 12,0 15,21 29,21 16,-1 26,-20 32,-20l3 8c-2,1 -20,20 -26,24 -7,5 -9,7 -17,2 -6,-5 -6,-12 -13,-12zm-43 -8c-2,-11 -3,-14 5,-19l0 15c4,0 14,-3 17,-5 4,-3 3,-3 3,-6 2,-5 4,-1 4,-7 2,1 2,0 2,4 0,5 -5,14 -9,15 -3,0 -9,0 -12,0 -6,0 -6,2 -10,3zm102 -22c3,2 6,7 3,10l-3 -10zm-100 0l0 0zm98 -4c4,-2 2,-2 4,1l-4 -1zm-66 -1l-2 5c-3,-2 -2,-4 2,-5zm72 -1c4,0 6,0 6,4 0,3 -1,3 -2,6l-4 -10zm-71 0l-1 1 1 -1zm6 1l3 -4 0 1 -3 3zm-6 -1c1,-4 7,-9 8,-17 6,5 -4,16 -8,17zm-33 6c1,-4 3,-5 5,-8 1,-3 2,-7 3,-10 2,-8 1,-14 6,-19 10,-11 30,-7 30,10 -7,0 -6,10 -12,16 -2,3 -11,10 -15,11l0 3 6 -1c-3,4 -2,1 -4,4 -3,4 1,1 -1,5l-12 3c0,-23 3,-17 -6,-14zm65 -111c3,2 34,97 34,103 -4,-1 -8,-19 -10,-24 -4,-15 -24,-71 -24,-79zm-108 5c9,-1 19,-7 23,-14 9,-14 3,-27 34,-37 6,-2 23,-8 30,-8l16 51c-4,0 -2,0 -6,0 -21,0 -36,43 -75,23 -4,-2 -20,-13 -22,-15z"></path> </g> </g> </svg> 