<?xml version="1.0" encoding="UTF-8"?> <!-- Creator: CorelDRAW X7 --> <svg xmlns="http://www.w3.org/2000/svg" xmlns:xlink="http://www.w3.org/1999/xlink" xml:space="preserve" width="6.4in" height="1.66667in" version="1.1" style="shape-rendering:geometricPrecision; text-rendering:geometricPrecision; image-rendering:optimizeQuality; fill-rule:evenodd; clip-rule:evenodd" viewBox="0 0 6400 1667"> <defs> <style type="text/css"> <![CDATA[ .fil2 {fill:none} .fil0 {fill:white} .fil1 {fill:#4D4D4D;fill-rule:nonzero} ]]> </style> <clipPath id="id0"> <path d="M6400 0l-6400 0 0 1667 6400 0 0 -1667z"></path> </clipPath> </defs> <g id="Layer_x0020_1"> <metadata id="CorelCorpID_0Corel-Layer"></metadata> <polygon class="fil0" points="6400,0 0,0 0,1667 6400,1667 "></polygon> <g style="clip-path:url(#id0)"> <g id="_1504543215248"> <g> <g> <path id="1" class="fil1" d="M3840 1174c-6,36 -213,68 -213,10 0,-19 21,-29 36,-35 27,-10 25,-3 53,4 20,5 118,17 124,21zm-1043 -89l-20 40 -5 -3 25 -37zm0 0l0 0zm1234 -71l100 -5c-11,9 -88,13 -100,5zm-1382 15c2,-24 31,-26 50,-21 -14,13 -30,21 -50,21zm292 -27c17,4 15,20 15,35l-3 1 -12 -36zm-184 -33c10,12 3,20 24,31 12,6 34,2 50,2l0 2c-55,5 -53,6 -107,-1l33 -34zm754 -3l0 6 0 -6zm0 0l11 -17 -11 17zm11 -17l0 0zm-226 -14l-7 -1 7 1zm-911 -38l0 0zm-31 27c1,-10 62,-30 75,-31 -4,9 -21,18 -31,23 -26,13 -31,2 -44,8zm31 -27c12,-11 33,-19 50,-15l-50 15zm883 19c8,-16 24,-32 35,-45 18,-23 31,-20 62,-20 -9,20 -21,45 -34,62 -24,32 -27,11 -63,3zm-62 -65c3,-4 -4,4 0,0zm2 -4c3,-4 -4,3 0,0zm4 -2c4,-4 -4,3 0,0zm-82 -30l55 53 -14 23c-16,-12 -26,-25 -44,-37 -11,-8 -22,-7 -18,-18 3,-6 16,-17 21,-21zm19 -19l43 62c-11,-1 -26,-21 -34,-29 -15,-14 -28,-16 -9,-33zm124 7l38 45c-9,10 -50,58 -53,66l-52 -49c27,-29 29,-15 60,-16 12,-1 3,-2 14,-8 5,-3 10,-1 9,-10 -1,-10 -15,-14 -16,-28zm354 -18l18 37 -4 2 -14 -39zm-471 4l25 -32c45,26 22,43 39,77l-1 -3 -23 15 0 2 -40 -59zm79 -30l44 73c-20,7 -61,4 -58,-27 11,8 8,17 24,17 0,-28 -33,-28 -10,-63zm745 107c-15,-9 -29,-28 -50,-28 -2,26 19,30 18,46 -18,17 -167,8 -211,-33 -9,-9 -32,-44 -33,-55 58,29 102,37 167,21 30,-7 139,-45 156,-46 0,27 -26,81 -47,95zm-328 -40l-16 -51 45 16 18 -32c0,21 6,27 -7,44 -7,8 -31,20 -40,23zm-433 -49c-11,-1 -12,-16 -11,-28l17 5 -6 23zm-83 -40l37 12 1 3 -21 29 -3 -1 -14 -43zm103 -8l2 25 -4 0 2 -25zm-528 -14l0 0zm534 -2c4,-4 -3,3 0,0zm-389 -4l6 7 -2 1 -4 -8zm-145 6l0 0zm616 -78c27,20 8,57 80,57 -39,58 -40,16 -63,48 -20,30 -21,54 -63,54 10,-18 49,-29 52,-69 6,-62 -36,-44 -6,-90zm-52 149l-23 -23c1,-35 -3,-40 16,-67 6,-9 32,-42 40,-46 -3,42 29,36 17,79 -8,24 -27,45 -50,57zm-452 -161c10,-12 87,-45 101,-16 11,23 0,31 -16,47 -5,6 -33,32 -39,33 -5,-7 -9,-26 -17,-38 -10,-15 -18,-17 -29,-26zm-148 -4l32 24 -2 3 -30 -27zm-416 15c11,-11 25,-21 25,-39l61 6 -86 33zm1338 -72l0 0zm-1214 -23l48 3 0 3 -48 -6zm1168 -33c6,8 11,28 19,41 10,14 26,24 30,32 -6,29 -152,103 -166,94 6,-24 73,-48 95,-60 59,-33 -17,-89 22,-107zm42 22c11,3 20,18 36,21 22,4 33,-13 44,7 -7,5 -45,16 -53,16 -14,1 -11,-5 -15,-19 -3,-9 -7,-17 -12,-25zm4 34c-13,-4 -30,-36 -33,-50 14,4 33,35 33,50zm314 -115l0 0zm-1315 -13c0,-7 0,7 0,0zm-4 -4c0,-7 0,7 0,0zm1319 17c35,-41 -33,-59 38,-103 46,-29 73,-16 106,22 47,52 99,140 117,208 22,83 22,216 14,303 -2,29 0,118 -36,124 -13,2 -143,-9 -138,13 4,11 52,11 67,11 26,0 52,-11 69,-11 -13,31 -14,46 -37,74 -17,22 -31,40 -55,57 -33,22 -159,22 -201,17l-12 -23 -5 22c-1,-1 -98,-13 -110,-15 -52,-9 -18,-11 -17,-19 2,-12 -21,-17 41,-16 44,0 191,-8 191,-65l-69 -25c-4,-7 3,-20 8,-26 8,-12 15,-3 23,-14 -1,-4 -22,-24 -28,-26 -13,-5 -120,-25 -141,-29 -131,-27 -40,-115 -35,-116 11,4 8,55 98,77 25,7 147,22 156,-3l-14 -37c35,18 38,45 66,-1 11,-19 37,-65 26,-83 -14,-5 -129,35 -153,42 -45,12 -133,15 -167,-17l31 -41c24,15 79,48 109,39 9,-2 31,-8 32,-18 -9,-7 -6,4 -22,0 -37,-8 -113,-56 -131,-100 -26,-64 36,-134 85,-167l34 38c-40,0 -63,3 -59,46 3,41 41,119 71,147 37,33 56,12 84,25 -9,13 -52,5 -40,27 11,5 24,-4 32,-10 15,-9 50,-4 80,-17 13,-5 21,-15 29,-18 21,11 29,14 49,-11 13,-16 21,-31 27,-52 22,-74 -33,-178 -86,-219 -44,-34 -79,-21 -127,-10zm-1047 -69l12 -5 -1 11 -11 -6zm199 -32l0 0zm650 192l-31 16c-33,-37 -23,-3 -55,-15 -18,-7 -31,-23 -47,-34 -19,-12 -45,-10 -46,15 -1,30 10,46 11,69 -16,24 -139,57 -117,92 20,9 81,-25 101,-37 15,-9 31,-17 45,-26 29,-18 20,-10 36,-37l61 -13c-4,29 -45,58 -65,149 -7,29 -4,34 16,51 -5,42 25,60 16,85 -10,25 -21,68 -22,94l-79 -14c-32,-32 -19,-20 -63,-32 -66,-20 -96,-61 -124,-64 -40,-5 -33,12 -61,-32 22,-13 20,3 42,-28 10,-13 18,-32 27,-41 8,-5 27,11 59,-48 -44,-22 -41,15 -78,-52 -12,-23 -4,-19 12,-37l99 -101c37,-33 38,-29 82,-49 56,-27 126,-60 185,-79 30,-9 73,-17 106,-26 31,-9 76,-24 107,-25 -4,25 -125,64 -192,147 -10,12 -16,19 -23,33 -13,24 -10,20 -2,39zm-1102 -89c0,-15 -12,-37 -27,-38 -7,29 17,35 21,46 -3,23 -79,64 -101,74 -31,12 -37,11 -69,3 -13,-3 -68,-10 -75,1 5,22 81,16 99,15 10,0 73,25 90,30 28,8 72,15 96,26 18,7 52,57 69,51 14,-35 -62,-55 -69,-65 10,-11 48,-31 62,-26 45,17 115,104 136,141 -9,15 -18,-4 -8,35 3,13 3,36 2,50 -17,13 -29,2 -50,2 -6,-14 16,-8 -22,-45 -20,-21 -62,-59 -85,-76 -9,-7 -40,-36 -48,-25l76 59c-2,2 -81,-44 -108,-45 6,11 73,36 90,47 19,12 63,44 73,65 -2,1 -102,24 -116,27 -15,3 -103,35 -107,33 -1,-2 23,-24 27,-29 41,-53 34,-80 -10,-128 -47,-51 -163,-77 -184,-62 -2,17 37,18 49,37 1,32 -51,64 -40,76 11,1 41,-58 60,-56 16,17 -9,75 -9,97 13,0 5,0 11,-16 6,-14 16,-67 8,-83 -6,-12 -14,-5 -19,-5 -7,-1 1,-8 -5,-20 -7,-13 -32,-15 -39,-25 14,-8 146,17 187,92 46,86 -107,151 -105,158 5,8 54,-20 69,-25 24,-9 52,-19 77,-26 27,-7 52,-16 80,-23 26,-6 63,-5 84,-20 -2,15 -84,105 -103,106 -12,-4 -37,-41 -51,-36 -18,22 60,65 -74,87 -23,4 -57,13 -79,9 -11,-2 -22,-9 -34,-12 -11,-4 -31,-3 -38,-8 24,-15 27,-12 39,-37 7,6 28,11 32,-3 -2,-11 -33,-20 -39,-30 -14,-19 -24,-18 -49,-20 7,-6 47,-27 42,-42 -9,-4 -10,12 -39,29 -19,11 -49,6 -51,15 2,3 61,7 73,10 13,3 14,12 23,20 7,6 20,10 27,17 -11,6 -31,-33 -93,15 -30,23 -74,13 -109,2 -40,-12 -55,-21 -74,-60 -12,-25 -31,-83 -10,-106l17 9c10,-21 -11,-19 -13,-26 -1,-75 195,-93 182,-118 -5,-10 -63,-6 -76,-11 -8,-4 -7,-11 -18,-11 -10,15 7,16 12,23 -10,18 -64,72 -84,50 -22,-24 -14,-90 10,-114 74,-72 280,-187 388,-205 45,-7 87,-12 133,-16 25,-2 116,-15 131,0 -14,19 -13,0 -13,35 1,59 7,48 -84,60 -100,14 -76,42 -148,41zm452 -103c-39,0 -55,-9 -99,2 -45,11 16,49 14,60 -16,6 -70,-32 -88,-42 4,-9 5,-21 8,-31 5,-21 -3,-22 -3,-27 20,-8 169,-15 198,28 -37,0 -56,-23 -74,-19l44 29zm233 587c15,4 19,18 46,-23 10,-15 20,-35 29,-53 7,2 56,33 73,41 19,7 71,19 80,33 -9,13 -34,39 -25,58 19,0 30,-39 38,-50 10,0 39,6 49,9 37,11 14,-5 38,22 5,-9 -5,-7 0,-15 3,-6 2,-6 2,-16 2,-22 21,-128 49,-115 4,13 -70,76 47,107 22,6 156,26 160,39 -7,20 -95,7 -117,7 -41,0 -79,-16 -113,-19 12,24 142,30 175,31 -7,7 -37,13 -50,17 -17,5 -33,-7 -60,-4 -21,3 -38,9 -63,6 -27,-4 -19,-22 -36,-34 0,14 3,9 6,15 5,12 -6,-2 2,12 16,29 82,9 105,9 36,0 31,10 75,-3 23,-7 42,-18 68,-18 -2,17 -25,34 3,45 14,6 47,8 56,15 10,30 -90,45 -109,47 -28,3 -43,6 -74,6 -29,0 -51,-7 -51,25 -30,3 -20,5 -52,-6 -33,-11 -67,-22 -100,-36 -9,-4 -40,-18 -48,-20 10,19 57,33 77,40 16,6 74,29 88,29 -2,16 -52,18 -47,51 9,53 121,37 157,29 41,-10 39,-14 72,-30 40,13 61,10 103,10l76 2 7 -12 -56 0c-51,1 -120,2 -127,-13 46,-1 164,6 201,-13 38,-20 88,-82 101,-122 5,-17 -1,-23 15,-35 13,-10 18,-19 20,-36 14,-86 14,-233 8,-317 -7,-95 -72,-235 -143,-299 -25,-22 -42,-37 -77,-26 -24,7 -51,25 -63,48 -24,49 48,50 -50,90 -10,4 -37,10 -38,19 28,32 149,-118 252,30 21,30 50,96 47,133 -4,53 -66,140 -66,76 -24,0 1,13 -39,30 -23,10 -37,7 -60,12 -12,-22 -9,-17 -39,-17 -47,1 -72,-43 -91,-81 -81,-165 38,-98 49,-118 0,-1 -26,-20 -33,-28 -6,-7 -23,-35 -28,-37 -13,6 6,7 -9,20 -19,15 -38,29 -53,48 -51,69 -48,123 16,179 22,18 81,44 86,49 -31,19 -93,-38 -117,-38l-30 38c0,-63 21,-63 21,-88 -15,1 -20,30 -26,42 -7,15 -17,31 -24,46 -22,-6 -64,-11 -67,-36 -2,-20 13,-66 21,-83 12,-25 28,-45 39,-67 8,-17 3,-25 20,-32 11,-4 26,-8 33,-18 -5,-24 -26,-13 20,-71 35,-43 83,-74 132,-100 16,-9 69,-32 60,-54 -18,-15 -185,38 -216,46 -52,13 -142,56 -192,80 -39,19 -53,18 -85,51 -23,23 -47,44 -68,68 -22,24 -44,48 -66,71 -11,12 -58,74 -60,75l-2 -31c-7,-3 -25,2 -32,3l0 6 24 1c8,24 -7,40 -14,57l-22 -5 -7 20 -12 -11c8,-17 18,-28 12,-44l-21 38c-14,-7 -24,-20 -42,-13 -13,21 7,41 11,59 -22,22 -22,10 -31,20 -8,9 -7,16 -21,30 -20,20 -29,33 -53,52 -19,16 -40,30 -60,45 -81,63 -2,48 -120,62 33,-15 9,-91 -7,-116 -15,-24 -66,-62 -75,-78 22,0 60,20 67,-12 5,-22 -13,-61 2,-75l21 18 2 -31c23,-25 87,-58 59,-102 -20,-32 -123,9 -123,32 40,0 65,61 45,70 -12,-4 -88,-134 -149,-145 -32,-6 -48,45 -106,27 -36,-11 -81,-18 -112,-35 0,0 64,-30 74,-37 56,-34 40,-34 57,-53 32,3 51,-11 78,-23 38,-18 47,-15 87,-21 33,-4 66,2 71,-36 4,-40 -19,-61 41,-61l-11 50 -20 5c-8,10 5,19 13,22l15 -20c21,12 75,54 97,39 10,-21 -30,-30 -29,-52 20,-17 78,-8 104,-6 15,1 25,8 21,-10 43,-5 4,-30 -15,-36 -23,-9 -47,-12 -72,-16 -22,-3 -94,4 -120,10 -23,5 -18,-3 -35,-6 -17,-4 -134,11 -161,13 -55,5 -96,9 -150,28 -90,32 -154,65 -234,118 -32,21 -73,48 -99,76 -18,19 -23,41 -23,66 0,48 15,43 23,66 -12,13 -22,13 -26,35 -2,12 3,17 0,25 -3,7 -8,5 -12,20 -10,44 19,139 83,159 14,4 35,9 49,11 8,1 55,4 55,4 -7,10 -31,0 -45,17 -4,25 55,141 71,166 14,21 35,52 60,60 43,13 55,-22 68,-46 29,29 42,39 80,55 58,24 61,9 82,10 14,0 17,8 23,-2 -7,-5 -45,-2 -59,-4 -37,-8 -70,-21 -101,-46 -28,-22 -17,-36 -26,-42 -14,10 -1,66 -51,69 -61,2 -140,-197 -138,-218 11,-7 82,-5 101,-4 40,1 52,24 97,17 32,-5 65,-10 96,-21 47,-19 43,-25 31,-72 29,8 25,59 75,16 23,-19 44,-46 61,-66 7,3 60,57 69,67 22,26 30,74 27,108 -15,6 -73,16 -86,6 -37,-31 13,-43 13,-68 -20,0 -27,20 -34,33 -3,4 -30,29 -35,34 -24,21 -23,4 -54,9 -20,3 -33,17 -28,37 24,6 43,-5 61,-19 15,-11 49,0 73,0 52,0 102,-19 153,-19 9,13 12,58 32,63 4,-9 3,-35 2,-46 -2,-17 -12,-18 -23,-25 6,-23 88,-79 110,-96 9,-8 21,-16 28,-25 10,-12 14,-15 29,-14 11,0 53,35 57,47 -3,12 -49,85 -58,99 -23,33 -44,58 -79,81 -37,24 -221,88 -248,56 3,-15 36,-35 25,-66 -27,0 -33,43 -39,62 -6,19 -52,28 -60,40 17,11 51,-21 66,-30 68,26 186,-13 249,-48 33,-19 62,-46 83,-76 20,-29 43,-76 62,-100 9,15 -56,103 -68,118 -33,39 -57,62 -103,84 -43,22 -91,35 -136,50 -18,6 -141,27 -140,39 29,13 268,-72 307,-96 57,-34 110,-103 140,-163 23,-46 -3,-64 31,-63 17,-29 -5,-12 63,33 24,17 50,37 75,53 56,34 95,72 157,98 4,-13 -31,-24 -44,-31 -21,-12 -149,-101 -151,-106z"></path> <path class="fil1" d="M2487 1215l70 0 0 2 -30 2 -2 0 -38 -2 0 -2zm-384 3c144,-1 278,-3 324,-3 32,0 26,3 52,8 19,4 98,12 103,-10 -18,-12 -121,-2 -126,-12 -5,-22 113,2 126,6 18,4 47,11 63,8 8,-2 52,5 62,-2 -2,-12 -46,-3 -57,-3 -8,0 -48,-8 -59,-10 -34,-6 -96,-21 -128,-15 -30,6 10,19 -51,20 -23,0 -47,2 -69,2 -48,0 -97,-1 -145,0 -31,0 -63,0 -95,1l0 10z"></path> <path class="fil1" d="M2575 662c-3,-16 -6,-8 -34,-20 -14,-6 -29,-8 -39,-18 6,-8 15,-15 22,-19 14,-9 19,-5 31,3 7,4 51,28 54,28 6,-12 -24,-21 -44,-33 -24,-14 -30,-18 -54,1 -25,20 -27,24 3,38 15,6 46,17 61,20z"></path> <path class="fil1" d="M2598 671c-5,-11 -9,-14 -21,-15 6,8 12,12 21,15z"></path> <path class="fil1" d="M3630 960c7,5 9,6 17,5 -4,-5 -12,-15 -17,-5z"></path> <path class="fil1" d="M2427 788c9,-2 10,-6 10,-14 -8,4 -11,1 -10,14z"></path> <path class="fil1" d="M2620 640c3,6 4,7 11,6 2,-8 -7,-10 -11,-6z"></path> <path class="fil1" d="M2691 1175l3 5 5 -6c-10,-1 -4,-1 -8,1z"></path> <path class="fil1" d="M2613 634c5,6 3,4 8,0 -3,-2 -5,-4 -8,0z"></path> <path class="fil1" d="M3208 702l6 -8c-6,1 -6,0 -6,8z"></path> <path class="fil1" d="M4060 1192c0,0 1,-1 1,0l0 0c0,0 -1,0 -1,0z"></path> </g> <path class="fil1" d="M2103 1208l0 10c-1572,2 -3309,4 -3332,2 20,-11 1775,-9 1990,-9 446,0 894,-2 1342,-3z"></path> <path class="fil1" d="M4001 1186l0 10c1527,2 3214,4 3237,3 -20,-12 -1725,-10 -1933,-10 -433,0 -869,-1 -1304,-3z"></path> </g> </g> </g> <polygon class="fil2" points="6400,0 0,0 0,1667 6400,1667 "></polygon> </g> </svg> 