<?xml version="1.0" encoding="UTF-8"?> <!-- Creator: CorelDRAW X7 --> <svg xmlns="http://www.w3.org/2000/svg" xmlns:xlink="http://www.w3.org/1999/xlink" xml:space="preserve" width="1.59439in" height="1.03754in" version="1.1" style="shape-rendering:geometricPrecision; text-rendering:geometricPrecision; image-rendering:optimizeQuality; fill-rule:evenodd; clip-rule:evenodd" viewBox="0 0 7981 5194"> <defs> <style type="text/css"> <![CDATA[ .fil1 {fill:#E52D33} .fil0 {fill:#4D4D4D;fill-rule:nonzero} .fil2 {fill:white;fill-rule:nonzero} ]]> </style> </defs> <g id="Layer_x0020_1"> <metadata id="CorelCorpID_0Corel-Layer"></metadata> <g id="_1504543176688"> <path class="fil0" d="M3758 2715l56 0 0 5 -56 0 0 -5zm-73 0l45 0 0 11c-30,0 -32,6 -45,-11zm-780 0l270 -1c33,1 46,7 84,6l376 -5c15,0 10,2 16,11l-184 -5c-188,16 -374,-1 -562,-1l0 -5zm343 -28l196 0 0 5c-40,0 -64,3 -96,6 -32,2 -61,-6 -100,-6l0 -5zm-45 0l1 1c0,0 -2,-1 -1,-1zm-169 0l96 0 0 5 -96 0 0 -5zm-235 -6l179 0 0 6 -179 0 0 -6zm-17 -28l-28 0c0,45 -9,74 29,94 50,28 190,21 248,14 22,-3 30,2 49,4l454 0c44,0 66,6 106,6 34,0 79,-3 112,0 42,4 61,10 107,0l0 -101c-23,-6 -7,-6 -38,-13 -39,-7 -60,-10 -86,7 -54,-36 -13,-6 -69,-10 -47,-3 -25,2 -54,10 -5,-22 -6,-21 -51,-11 -23,5 -25,0 -61,0 -37,0 15,23 -50,0 -39,-15 -49,4 -68,11 -33,-28 -46,-17 -73,6 -37,-25 -42,-34 -78,0 -61,-41 -33,-21 -90,-6 -18,-12 -55,-33 -67,0 -40,-10 -17,-41 -85,-5 -18,-13 -15,-23 -39,-23 -25,0 -3,17 -45,17 -15,0 -13,-9 -29,-16 -71,-33 -69,16 -94,16z"></path> <path class="fil0" d="M4380 4594l-656 5c-78,0 -135,6 -213,6l0 17 684 -6c80,0 140,6 219,6l0 -17c-30,0 -8,0 -17,-6l146 6 0 17 56 0c2,-5 -2,-16 38,-11 20,2 24,5 52,5l0 17 56 0 0 -17c35,3 9,10 40,16 14,3 45,0 61,1 68,2 135,17 224,17 89,0 245,17 333,31 63,11 62,-4 130,16l87 9c-3,-37 -59,-29 -124,-38l-385 -37c-22,-5 -1,-6 -30,-9 -13,-2 -31,0 -44,0 -22,-1 -56,-8 -75,-10 -24,-3 -57,-5 -77,-7 -61,-5 -73,1 -156,-12l-315 -22c-112,-3 -212,-3 -319,-11 -101,-8 -221,-6 -331,-6 -225,0 -449,0 -674,0 3,37 48,23 141,23l499 0c114,0 216,5 325,5 118,0 213,12 325,12z"></path> <path class="fil0" d="M7202 768l-157 0c33,-23 53,-21 84,-22 31,-1 62,-14 95,-17 -10,15 -14,23 -22,39zm207 -50c0,-14 9,-1 4,0 0,0 -4,16 -4,0zm34 -34c-23,-6 -17,-2 -17,-73 0,-39 7,-59 14,-93 6,-29 9,-65 9,-97 18,6 5,-18 5,56l1 180c-2,29 4,15 -12,27zm-23 -190c-13,-21 6,-75 6,-135 24,9 16,7 6,57 -5,26 -6,53 -12,78zm-162 274l-17 0c1,-46 55,-55 95,-56 40,0 51,-13 56,12 7,40 -11,39 40,39 2,-23 5,-31 5,-62l17 0c2,22 6,22 6,51l22 0c0,-26 -5,-23 -5,-51 0,-90 -4,-250 7,-335 1,-8 19,-86 -16,-73 -12,4 -10,5 -14,21 -1,-1 -2,-4 -2,-3 -2,4 4,-14 -37,-14 -7,79 -17,12 -17,185 0,65 7,147 -6,202 -66,0 -45,9 -78,12l26 -25c1,-1 4,-5 5,-6l20 -25c15,-25 27,-50 27,-79 -30,2 -20,17 -34,44 -6,11 -23,30 -34,44 -3,3 -5,6 -8,9 -9,11 0,2 -11,12l-47 31c-86,32 -262,2 -264,90 125,0 249,-7 372,10l228 1 0 -22c-116,0 -54,51 -56,-247 0,-58 6,-105 6,-168 0,-67 11,-109 11,-169l-22 0c0,26 -4,24 -6,45 -1,18 1,38 0,56 -3,31 -11,67 -11,101 -1,76 -1,246 -10,315 -8,57 11,86 -146,65 -32,-4 -61,-10 -102,-10z"></path> <path class="fil0" d="M7544 2642c-2,-11 7,-20 3,-4 0,1 1,23 -3,4zm5 -79l2 2c0,0 -2,-1 -2,-2zm0 -252c0,146 -34,351 -33,443 1,109 -50,156 11,157 0,-56 17,-133 17,-241l5 252c0,42 -9,53 29,56 0,-15 1,-47 -2,-60 -4,-22 -11,-7 -10,-57 0,-40 6,-58 6,-129l9 -194c10,-52 8,-39 8,-93 0,-14 -14,-21 -23,-33 8,-32 3,-54 7,-88 9,-64 14,-75 -29,-75 0,29 5,31 5,62z"></path> <path class="fil0" d="M5491 4902c76,0 90,23 174,23l0 5c-26,0 -113,6 -122,4 -68,-13 -12,-6 -47,-2 -12,1 -32,-7 -55,-7 -2,21 -14,28 2,36 12,6 20,-6 42,-8l320 0c2,17 0,10 6,22l35 4c40,13 205,24 245,24 -2,-24 -10,-26 -33,-28 -58,-4 -102,7 -180,-11l0 -11c51,0 80,5 129,5 -1,-33 -7,-28 -40,-32 -26,-3 -52,-1 -78,-1 -62,0 -98,1 -147,-11l-133 -23c-47,-1 -37,-23 -135,-23 2,26 5,16 17,34z"></path> <path class="fil0" d="M3248 4453c2,33 6,22 78,17 34,-3 64,-5 107,-5l325 0c43,0 62,-6 106,-6l208 0c72,0 287,7 342,-6l0 -16 -808 -1c-32,1 -39,6 -72,6 -49,0 -98,0 -146,0 -38,0 -110,4 -140,11z"></path> <path class="fil0" d="M7718 3562c0,53 11,7 10,44 -1,27 1,-5 -7,20 -4,15 -3,14 -3,31 61,5 99,11 170,1 41,-5 62,4 93,5l0 -28 -202 11c27,-23 114,-23 152,-23 -3,-39 -28,-28 -101,-28l79 -9c21,0 40,18 50,-19 -6,-9 -8,-17 -23,-17 -62,0 -184,-9 -218,12z"></path> <path class="fil0" d="M5485 4560l-134 0c8,-5 -6,0 11,-6 31,-11 55,6 123,6zm-465 -39c21,2 6,12 61,11 23,0 51,-2 73,0 44,4 85,11 135,11 0,2 -2,2 -2,4 -3,16 -15,-5 -7,22 8,25 140,13 194,13 33,1 43,6 79,6l0 -17 -23 -5c74,0 81,9 84,-28 -45,0 -113,4 -155,-2 -103,-13 -187,-21 -293,-21 -47,0 -40,-11 -146,-11l0 17z"></path> <path class="fil0" d="M1559 4431l0 17 34 0c-3,-31 -12,-20 11,-45l130 -145c0,-1 2,-2 2,-3 1,-1 2,-2 3,-3l139 -148c9,-10 15,-15 24,-26l13 -15c28,-33 26,-28 26,-64l-34 0c-3,11 -2,10 -3,18 -4,29 -38,61 -69,96l-129 133c-2,1 -5,5 -6,6 -1,1 -2,2 -3,3 -1,1 -2,2 -3,3l-23 27c-28,29 -112,114 -112,146z"></path> <path class="fil0" d="M1554 4235c32,-1 55,-28 94,-63 47,-43 -12,-2 53,-54 25,-19 45,-47 47,-48 5,-4 4,-3 9,-7l193 -183c20,-20 44,-32 47,-66 -34,1 -27,9 -64,43 -5,5 -6,6 -11,11l-158 151c0,1 -2,2 -2,3l-98 98c-25,25 -107,77 -110,115z"></path> <path class="fil0" d="M1408 4179c0,18 10,16 28,16 0,-40 -8,-11 20,-47 82,-104 139,-143 225,-229l133 -120c17,-16 14,-4 14,-35 -17,1 -68,46 -87,64l-31 30c-1,1 -2,2 -3,3l-196 180c-1,1 -4,4 -6,5 -6,7 -3,3 -8,9 -15,17 -89,103 -89,124z"></path> <path class="fil0" d="M2350 4706l0 28 95 0c44,0 136,-17 219,-17 79,0 157,0 236,0l0 -17c-27,-7 -5,-11 -39,-11l-147 11c-31,2 -73,0 -106,0 -43,0 -63,6 -101,6 -4,-11 -2,5 1,-7 0,0 1,-2 1,-3l4 -13c-34,0 -61,0 -86,4 -22,3 -21,2 -38,7 -15,6 -19,10 -39,12z"></path> <path class="fil0" d="M1593 4554c26,-2 26,-1 28,-22 33,-4 1,6 25,-14 60,-49 152,-145 214,-201l24 -21c1,-1 2,-2 3,-3l46 -44c20,-23 -16,17 5,-6 6,-7 6,-7 11,-12 13,-15 19,-26 20,-47 -36,1 -15,-2 -57,45l-19 19c-1,1 -3,2 -3,3l-33 29c-1,1 -2,2 -3,3l-80 77c-36,35 -100,88 -143,137 -4,4 -9,11 -10,12 -25,28 -27,9 -28,45z"></path> <path class="fil0" d="M5659 4773l115 20c92,13 238,7 320,17 23,3 33,-3 59,-3l0 -17c-32,0 -64,0 -95,0 -74,0 -204,-17 -281,-17l34 -5 0 -17c-44,-11 -54,-6 -102,-1 -56,5 -47,-3 -50,23z"></path> <path class="fil0" d="M6904 3046c24,-2 35,-16 50,-30 16,-16 27,-22 44,-39 8,-8 12,-13 20,-20l34 -27c36,-43 20,-17 83,-69l94 -74c57,-45 15,-65 -20,-20l-8 9c-27,25 -95,65 -143,115l-78 67c-35,29 -75,51 -76,88z"></path> <path class="fil0" d="M2804 3629c-3,30 3,4 -11,22l-31 31c-26,21 -69,79 -95,107l-15 18c-1,1 -2,2 -3,3l-21 24c-16,19 -20,33 -37,47 -20,16 -22,10 -22,45 27,-2 75,-65 91,-88 5,-6 4,-7 9,-14 7,-12 1,-3 9,-13l103 -110c0,-1 1,-3 2,-4l88 -91c11,-14 11,-9 12,-33 -16,1 -14,0 -25,8 -35,26 -20,44 -54,48z"></path> <path class="fil0" d="M7415 3051l17 0c0,30 -1,37 28,39 0,-32 4,-68 -3,-99 -4,-21 -3,-8 1,-30 4,-18 2,-38 2,-56 -1,-40 23,-179 20,-189 -6,-17 -19,-20 -28,-5 -8,13 -3,38 -4,54 -2,53 -17,118 -16,197 0,51 -14,52 -17,89z"></path> <path class="fil0" d="M6310 4902l0 -17 -180 -16c-22,-2 -50,-1 -73,0 -52,0 -74,-13 -128,-12 -86,1 -41,-14 -90,-17 -11,-1 -28,0 -39,0 2,33 8,18 40,27 31,9 29,6 66,7 39,1 27,10 62,12l207 5c24,0 33,-3 52,4l8 3c2,1 3,1 4,2 21,6 48,2 71,2z"></path> <path class="fil0" d="M4319 2137c32,-3 20,-15 61,-79 9,-14 16,-26 25,-42l37 -59c1,-1 1,-2 2,-3l70 -110c17,-28 21,-24 24,-49l-29 0c-9,20 2,13 -18,38l-121 187c-21,37 -51,73 -51,117z"></path> <path class="fil0" d="M2210 4633c20,-2 16,-2 47,-38 3,-4 4,-4 7,-9 7,-8 11,-14 18,-21l168 -192c15,-14 27,-19 29,-43 -32,1 -40,21 -80,60l-51 56c-29,32 -135,147 -138,187z"></path> <path class="fil0" d="M5816 1032l0 107 28 0c0,-68 -11,-112 -11,-180l6 -185c2,-32 -6,-57 -6,-95l-17 0c0,30 1,60 1,90 -1,32 -6,46 -6,83 0,62 5,113 5,180z"></path> <path class="fil0" d="M6854 679l17 0c0,-45 16,-135 17,-174 1,-91 10,-138 15,-223 2,-30 3,-33 -27,-35 0,155 -22,276 -22,432z"></path> <path class="fil0" d="M2619 3584c43,-3 38,-28 75,-65l38 -41c1,-1 2,-2 3,-3l140 -140c28,-30 24,-27 25,-48 -30,2 -66,50 -90,73l-51 61c-19,23 -37,26 -78,79 -30,40 -61,50 -62,84z"></path> <path class="fil0" d="M4285 1767c38,9 23,0 62,0 34,0 41,5 73,5l-55 81c-13,22 -44,62 -46,88 46,0 26,-6 45,-39 8,-15 24,-32 36,-49l18 -26c13,-18 44,-61 47,-83 -15,0 -28,3 -35,4l-145 -4 0 23z"></path> <path class="fil0" d="M2967 4313l165 16c1,0 2,1 4,2 4,1 1,3 11,3 11,0 15,-7 22,-10 10,20 8,23 70,14 57,-9 58,11 76,-14 -9,-31 -24,-11 -56,-13 -10,-1 -20,-7 -35,-8l-167 -7c-30,0 -60,0 -90,0l0 17z"></path> <path class="fil0" d="M6001 2574l0 23 28 0c0,-32 3,-28 33,-63l139 -136c1,0 2,-2 3,-2 4,-5 3,-3 8,-9 13,-14 18,-18 19,-37 -28,0 -25,-1 -41,15l-140 141c-10,11 -49,52 -49,68z"></path> <path class="fil0" d="M7936 3152c0,-35 -7,-33 -43,-74l-104 -143c-29,-31 -9,3 -24,-38 -7,-19 -11,-25 -36,-25 0,53 16,34 29,54 7,10 4,12 9,26 5,12 16,24 25,36 4,7 6,10 11,17l12 16c1,1 2,2 2,3l39 52c26,34 51,74 80,76z"></path> <path class="fil0" d="M1537 3421c32,-2 76,-59 104,-80l167 -142c12,-14 7,-3 9,-24l-22 5c-7,4 -2,8 -39,29l-38 29c-7,7 -10,10 -18,16l-51 44c-42,34 -20,26 -52,49 -23,15 -57,42 -60,74z"></path> <path class="fil0" d="M4515 4162c42,0 66,-6 101,-6l157 -5c27,-1 26,-5 51,-6 18,-1 39,1 56,1 28,-2 27,-2 28,-29l-79 0c-31,0 -34,11 -78,11l-197 10c-6,1 -4,1 -7,2 -1,0 -3,0 -4,0 -24,3 -26,-5 -28,22z"></path> <path class="fil0" d="M4369 2148c23,-2 28,-8 38,-24 7,-10 4,-7 10,-18l45 -79c31,-52 44,-91 90,-145l13 -21c1,-6 1,-9 1,-16 -17,0 -23,-3 -41,22 -59,82 -56,102 -100,174l-13 21c-14,23 -41,69 -43,86z"></path> <path class="fil0" d="M1711 3545c28,-3 51,-26 73,-45 1,0 2,-2 3,-2 18,-17 23,-19 25,-43 -27,2 -27,6 -37,14l-48 42c-17,13 -16,7 -16,34zm-185 168c38,0 25,-4 70,-42l57 -55c10,-8 12,-8 21,-18 11,-11 12,-7 14,-25 24,-2 22,-3 23,-28 -36,1 -14,-4 -30,15 -1,1 -2,2 -3,3l-122 108c-22,19 -28,17 -30,42z"></path> <path class="fil0" d="M4296 2053l17 0 25 -43c1,-1 2,-2 2,-3l41 -55c10,-13 13,-18 22,-33 8,-13 14,-21 23,-34 18,-24 60,-83 61,-113 -27,3 -23,5 -34,22l-131 194c-20,26 -26,36 -26,65z"></path> <path class="fil0" d="M7359 1256l22 0c11,27 28,0 27,33 -1,17 -16,31 -27,40 -53,-28 -26,-58 -22,-73zm-39 23c0,32 12,47 17,55 8,12 6,0 11,18 40,0 84,12 84,-73 0,-86 -112,-65 -112,0z"></path> <path class="fil0" d="M3399 4319c83,0 149,11 230,11 82,0 164,0 247,0l0 -17c-81,0 -161,0 -242,1 -64,0 0,-12 -112,-12 -41,0 -82,0 -123,0l0 17z"></path> <path class="fil0" d="M1778 3657c25,-2 42,-29 82,-64 28,-25 35,-29 36,-59 -21,1 -24,7 -36,19l-45 46c-12,11 -6,6 -18,15 -19,15 -19,12 -19,43zm-118 112c-24,2 -22,3 -22,28 20,-2 21,-2 22,-22 31,-3 71,-58 94,-80 15,-14 22,-15 24,-38 -32,1 -31,9 -61,40l-40 39c-22,21 -16,6 -17,33z"></path> <path class="fil0" d="M3954 4824l309 -1c28,1 28,6 56,6 47,2 77,-5 118,-5l0 -17 -483 0 0 17z"></path> <path class="fil0" d="M7594 1374c-63,0 -18,-66 -16,-73 63,2 49,73 16,73zm-61 -39c0,99 112,79 112,17 0,-54 -4,-79 -67,-79 -21,0 -45,39 -45,62z"></path> <path class="fil0" d="M6153 4375c-25,0 -26,-2 -28,22 35,3 48,22 90,23 -3,-30 -24,-32 -57,-39l8 -4c33,-5 33,15 82,4l0 -29c-21,-1 -27,-7 -50,-11l-169 -22c4,47 54,18 101,33 25,8 11,1 23,23z"></path> <path class="fil0" d="M6321 819l0 17c37,-1 23,-5 36,-38 9,-22 15,-33 15,-63l-2 123c43,-3 30,-47 30,-134 0,-21 -6,-26 -17,-34 -20,5 -15,3 -22,23 -2,8 -1,9 -4,18 -8,25 -1,5 -9,19 -1,1 -2,2 -3,3l-11 28c-7,16 -13,19 -13,38z"></path> <path class="fil0" d="M6938 2849c27,-2 90,-57 118,-78 1,-1 3,-2 3,-2 1,-1 3,-2 4,-3l67 -50c1,0 3,-1 4,-2 24,-17 37,-18 40,-44 -43,0 -85,43 -131,77 -21,15 -37,27 -57,43 -7,6 -7,6 -13,11 -22,18 -33,21 -35,48z"></path> <path class="fil0" d="M6972 2244c-4,-15 2,-7 -11,-12 8,-13 6,-6 11,-22 13,7 14,10 33,11 5,-48 34,21 -33,23zm67 -12l0 -28c0,-45 -102,-43 -105,18 -4,73 105,50 105,10z"></path> <path class="fil0" d="M5766 4369c42,0 62,12 106,12 41,0 83,0 124,0l0 -17c-22,-2 -14,-6 -28,-6l-62 0c-32,0 -38,-5 -67,-6 -48,-1 -98,0 -146,0 3,41 37,17 73,17z"></path> <path class="fil0" d="M4083 2591c28,-2 21,-14 53,-70 17,-30 80,-129 65,-144 -24,-25 -37,37 -37,37l-44 79c-7,13 -8,18 -15,30 -17,28 -22,24 -22,68z"></path> <path class="fil0" d="M5917 712l0 17c100,0 55,-11 146,-11 34,0 41,-5 73,-6 28,0 56,0 84,0 -2,-21 3,-25 -62,-22l-162 11c-36,1 -49,9 -79,11z"></path> <path class="fil0" d="M5659 4302c13,0 33,-1 45,0 26,2 12,5 35,10 17,4 70,5 89,7 79,9 34,9 123,11 26,0 24,4 45,6l0 -17c-72,-17 -236,-19 -268,-30 -23,-8 -40,-4 -69,-4l0 17z"></path> <path class="fil0" d="M5839 5121l280 0 0 -17c-102,0 -140,-10 -224,-11 -43,-1 -53,-10 -56,28z"></path> <path class="fil0" d="M7174 1335l16 0c7,28 17,38 -22,39 -9,-39 -3,-6 6,-39zm-40 22c0,17 8,32 18,39 15,10 32,6 55,6 11,-41 17,11 17,-67 0,-37 -90,-48 -90,22z"></path> <path class="fil0" d="M6658 2221c-58,-5 -2,-65 0,0zm-51 -50c-9,39 -14,78 51,78 41,0 28,-83 28,-90l-29 2c-15,1 -30,0 -50,10z"></path> <path class="fil0" d="M2647 3455c30,-3 6,1 20,-9 1,-1 5,-4 6,-5 20,-16 28,-21 30,-48 -34,1 -53,30 -56,62zm-44 -7c-13,-1 -29,80 16,80 15,0 16,-3 28,-6 2,-22 6,-13 6,-28 0,-20 -5,-13 -6,-39l-44 -7z"></path> <path class="fil0" d="M2804 3797c21,-2 21,-2 23,-22l-23 0 0 22zm-16 0l0 17 16 0 0 -17 -16 0zm-68 84c-35,3 -26,20 -40,39 -16,22 -30,9 -33,45 -22,3 -21,7 -22,34 37,-1 13,-3 43,-35l62 -78c17,-23 15,6 18,-27 27,-2 37,-18 40,-45 -42,1 -27,15 -55,46 -17,19 -9,-13 -13,21z"></path> <path class="fil0" d="M6989 1391c-8,-35 -3,-23 28,-22 -10,18 -2,20 -28,22zm-28 -50c0,57 -18,26 16,78l45 0c5,-17 0,-12 17,-17l0 -56c-58,-31 -55,-12 -78,-5z"></path> <path class="fil0" d="M2631 4807l0 17 22 0 0 16c114,14 63,0 123,0l0 -16 12 -23c-27,0 -53,0 -79,0 -35,0 -43,6 -78,6z"></path> <path class="fil0" d="M5878 2367c29,-2 30,-13 54,-36l17 -17c8,-10 1,-2 9,-13 14,-21 16,-22 34,-39 16,-16 24,-19 26,-47 -24,2 -28,15 -43,30 -15,14 -22,25 -35,38l-22 23c-18,18 -38,34 -40,61zm-17 0c-4,17 0,12 -17,17l0 17c32,-1 34,-1 34,-34l-17 0z"></path> <path class="fil0" d="M4134 2586l17 0 74 -134c14,-25 26,-45 26,-74l-29 26c-32,51 -57,96 -79,151l-5 12c-4,11 -4,2 -4,19z"></path> <path class="fil0" d="M6899 752c17,4 3,-3 16,6 9,7 7,4 12,16 -31,16 -54,16 -28,-22zm-39 16c0,59 95,55 95,-16 -36,-4 0,2 -36,-26 -13,-10 11,-8 -20,-8 -18,0 -39,35 -39,50z"></path> <path class="fil0" d="M6237 4818c24,0 55,-2 78,1 20,2 56,2 78,5 18,3 16,6 31,9 14,3 28,1 43,2 30,3 53,21 56,-17 -55,0 -82,-12 -140,-11 -49,0 -91,-6 -146,-6l0 17z"></path> <path class="fil0" d="M7931 2961c-1,-29 1,-15 -29,-55l-66 -80c-2,-5 -5,-10 -8,-14l-7 -10c0,-1 -1,-2 -2,-3 -1,-1 -2,-3 -2,-4 -13,-18 -13,-22 -32,-24 1,13 2,7 4,12l82 131c18,21 34,45 60,47z"></path> <path class="fil0" d="M1049 3304c-31,0 -22,3 -41,20 -30,26 -44,43 -69,60 -20,13 -22,13 -25,43 18,-1 20,-2 32,-13 13,-11 21,-27 39,-40 12,-7 5,0 17,-10 15,-13 6,-13 26,-25 24,-16 19,-3 21,-30l17 0 0 -22 -17 0 0 17zm-163 151c28,-3 8,4 20,-8 13,-12 5,8 8,-20 -27,3 -8,-4 -20,8 -12,12 -5,-8 -8,20z"></path> <path class="fil0" d="M6501 5121c-3,-32 -6,-28 -39,-28l-128 -8c-24,-4 -36,-9 -63,-9 2,31 5,29 38,29l130 5c36,2 23,11 62,11z"></path> <path class="fil0" d="M4201 2569l22 -17c18,-40 93,-158 96,-191 -22,2 -22,5 -43,36l-66 141c-6,16 -9,14 -9,31z"></path> <path class="fil0" d="M6321 4908l128 18c1,0 2,2 3,2 25,15 7,13 37,13 16,0 40,-27 -14,-35 -84,-13 -54,-15 -154,-15l0 17z"></path> <path class="fil0" d="M1957 3657c27,-1 32,-2 34,-28 -30,0 -34,-3 -34,28zm-117 107c25,-3 23,-6 37,-19l30 -27c11,-10 18,-15 30,-26 14,-13 19,-14 20,-35 -27,1 -34,8 -56,28l-6 5c-1,1 -2,2 -3,3 0,1 -2,2 -2,3 -22,19 -48,35 -50,68z"></path> <path class="fil0" d="M1088 3421c-21,2 -22,5 -34,16 -1,1 -2,3 -3,3l-99 99c-1,1 -2,2 -3,3 -11,16 -6,36 19,18 16,-12 9,-11 18,-22 5,-7 3,-5 8,-9l28 -28c25,-24 63,-43 66,-80z"></path> <path class="fil0" d="M3870 4487l0 17c88,0 155,-6 241,-6l0 -17 -185 0c-25,2 -26,6 -56,6z"></path> <path class="fil0" d="M5850 2328c26,-1 12,2 26,-8l77 -91c1,-1 2,-2 3,-3 16,-15 17,-11 21,-24 3,-9 2,-10 2,-20 -19,1 -31,13 -43,24l-15 19c-6,7 -9,12 -14,20 -5,10 -6,15 -11,22 -11,18 1,3 -17,16l-13 10c-14,14 -15,17 -16,35z"></path> <path class="fil0" d="M6102 1155c32,-2 27,-30 51,-89 7,-17 11,-14 11,-40 -20,-4 -20,-11 -33,6 -6,9 -10,24 -14,37 -13,39 -15,36 -15,86z"></path> <path class="fil0" d="M5985 2395c23,-3 35,-17 51,-33l28 -28c0,-1 2,-2 2,-3 1,-1 2,-2 3,-3l22 -23c7,-14 4,0 6,-22 -37,0 -43,-1 -56,28 -6,15 4,3 -10,19 -1,1 -46,29 -46,65z"></path> <path class="fil0" d="M4229 3635l17 0c0,-82 5,-149 5,-225l-16 0c0,35 -6,64 -6,107 0,39 0,78 0,118z"></path> <path class="fil0" d="M1066 3573c27,-1 24,-4 58,-37 13,-13 26,-36 43,-42l0 -17c-36,0 -36,15 -84,62 -12,12 -15,11 -17,34zm-34 39l17 0 0 -17 17 0 0 -22c-30,2 -32,10 -34,39z"></path> <path class="fil0" d="M3982 2569c29,-2 17,-3 48,-64 7,-14 4,-5 10,-19 12,-30 20,-40 21,-63l-17 0 -27 46c-17,30 -35,65 -35,100z"></path> <path class="fil0" d="M7662 2961c28,0 28,4 50,6 0,-95 -15,-48 -28,-95l-22 0 0 89z"></path> <path class="fil0" d="M5340 4885c74,0 91,21 117,6 -2,-29 4,-8 -7,-21 -10,-11 -73,-31 -100,-8 -16,14 -8,-3 -10,23z"></path> <path class="fil0" d="M1554 4240c-17,2 -26,5 -37,14l-12 11c-18,18 -65,65 -47,83 2,2 -5,9 14,3 26,-8 10,-7 14,-16 0,-1 2,-7 2,-8 6,-12 -1,-2 6,-12l26 -25c21,-21 33,-26 34,-50z"></path> <path class="fil0" d="M2025 4689c0,-22 3,-42 -5,-57 -7,-13 -18,-17 -23,-38l-17 0c0,27 -3,53 -4,76 -1,22 -11,14 49,19z"></path> <path class="fil0" d="M970 3270c26,-1 12,2 27,-7 0,0 19,-14 19,-15 7,-5 12,-9 18,-15 22,-21 11,6 15,-25 28,-2 37,-10 39,-39 -36,3 -31,9 -36,15 -19,21 2,9 -29,26 -14,8 -23,12 -33,23 -22,23 -19,23 -20,37z"></path> <path class="fil0" d="M6355 3242c37,-1 55,-29 80,-54 13,-14 13,-8 15,-30l-45 0c-7,31 0,26 -24,43 -18,14 -26,10 -26,41z"></path> <path class="fil0" d="M2614 4151l-17 0 0 28c23,-2 33,-21 55,-52l29 -38c1,-1 8,-9 8,-9 11,-13 6,9 9,-19 -27,2 -31,13 -59,42l-13 15c-9,12 -11,14 -12,33z"></path> <path class="fil0" d="M1408 3836c26,-2 43,-19 45,-44 31,-3 5,2 21,-7 0,0 18,-14 19,-15 14,-12 19,-17 21,-40 -37,1 -39,21 -60,46 -19,23 -45,17 -46,60z"></path> <path class="fil0" d="M2866 4195l0 17c20,0 24,2 41,-4 15,-5 -10,0 16,-6l117 -7 0 -16c-37,0 -62,1 -91,4 -65,7 -33,12 -83,12z"></path> <path class="fil0" d="M2922 4549l0 17c32,0 39,5 73,5 28,0 56,0 84,0l0 -17c-22,0 -51,2 -73,0 -32,-2 -49,-19 -84,-5z"></path> <path class="fil0" d="M5631 4706c15,0 79,22 129,22l0 -22c-33,0 -36,-5 -62,-11 -21,-5 -40,-6 -67,-6l0 17z"></path> <path class="fil0" d="M5446 4280c21,1 12,3 34,5 15,1 22,0 37,2 32,6 36,9 75,9l0 -16 -20 -3c-15,-4 -7,-9 -47,-9 -32,0 -47,-5 -79,-5l0 17z"></path> <path class="fil0" d="M6254 5003c28,0 38,6 73,6 28,0 56,0 84,0l0 -17 -157 -6 0 17z"></path> <path class="fil0" d="M4201 4397c35,0 30,-11 112,-11l0 -17c-10,0 -31,2 -40,1 -21,-3 -17,1 -22,-18l-33 0c-3,29 -1,7 -8,20 -11,21 -6,-5 -9,25z"></path> <path class="fil0" d="M1520 3298c-32,3 -55,31 -76,54 -10,11 -22,31 1,28 1,0 3,0 4,-1 1,0 70,-49 71,-81z"></path> <path class="fil0" d="M881 3354c17,-1 83,-46 84,-84 -34,3 -33,19 -71,53 -18,16 -13,-1 -13,31z"></path> <path class="fil0" d="M1307 3506c14,-1 15,1 29,-11 18,-15 21,-22 21,-46 -19,2 -4,-2 -18,5 -6,3 -32,16 -32,52zm-34 33c27,-2 32,-6 34,-33 -32,0 -34,1 -34,33z"></path> <path class="fil0" d="M4526 4397c23,2 31,6 62,6 24,0 49,0 73,0l0 -17c-53,0 -87,-5 -135,-5l0 16z"></path> <path class="fil0" d="M5951 679l0 17c20,0 41,1 60,-2 19,-3 31,-10 58,-10l0 -17c-111,0 -84,11 -118,12z"></path> <path class="fil0" d="M5766 2417c27,-2 30,-10 46,-26 8,-8 12,-12 19,-20 1,-1 2,-2 3,-3 10,-14 8,-1 10,-24 -35,1 -49,20 -68,50l-4 7c-3,5 -4,-2 -6,16z"></path> <path class="fil0" d="M1150 3674l17 0c10,-37 47,-37 50,-79 -34,0 -35,14 -46,27 -17,20 -21,15 -21,52z"></path> <path class="fil0" d="M5676 4639c18,23 59,16 95,16l0 -16c-24,-6 -71,-24 -95,0z"></path> <polygon class="fil0" points="3702,4824 3831,4824 3831,4807 3702,4807 "></polygon> <path class="fil0" d="M1318 3612l-17 0 0 23c24,-2 9,1 26,-14 1,-1 2,-2 3,-3 1,0 2,-1 3,-2 20,-17 38,-17 41,-54 -33,0 -54,26 -56,50z"></path> <path class="fil0" d="M1105 3410c27,-2 43,-12 45,-39 23,-2 32,-10 33,-34 -33,3 -26,12 -45,28 -21,16 -32,8 -33,45z"></path> <path class="fil0" d="M1526 3909c-24,2 -32,11 -34,34 4,0 13,0 16,0 12,-3 6,0 12,-5 11,-9 11,-22 11,-29l23 0c2,-27 -1,-7 6,-21 12,-23 7,12 10,-24 -25,1 -42,19 -44,45z"></path> <path class="fil0" d="M4751 4106c40,0 56,-6 95,-6l0 -17 -107 0c1,11 0,23 12,23z"></path> <polygon class="fil0" points="3545,4218 3668,4218 3668,4201 3545,4201 "></polygon> <path class="fil0" d="M2832 4807l0 17c10,0 25,-1 34,0 37,6 -11,11 51,11l0 -28c-34,0 -53,-12 -85,0z"></path> <path class="fil0" d="M2889 4280l0 16c68,0 80,10 84,-28 -71,0 -30,-1 -84,12z"></path> <path class="fil0" d="M1458 3489c30,-3 61,-30 62,-62 -25,1 -27,6 -42,20 -19,18 -20,17 -20,42z"></path> <path class="fil0" d="M7678 2827l0 11c0,26 8,33 34,34l0 -68c-17,2 -34,4 -34,23z"></path> <path class="fil0" d="M2760 4953l0 16 95 0 0 -16c-42,-10 -48,0 -95,0z"></path> <polygon class="fil0" points="4554,4229 4661,4229 4661,4212 4554,4212 "></polygon> <path class="fil0" d="M2030 4622l28 0 0 -96 -16 0c0,17 0,35 0,51 -1,51 -8,7 -12,45z"></path> <path class="fil0" d="M5777 2479c30,-1 33,-4 34,-34 -30,1 -33,5 -34,34zm-34 34c43,-5 -8,-7 34,-11l0 -23c-29,1 -31,7 -34,34z"></path> <path class="fil0" d="M6467 696c44,0 54,-2 56,-29 -33,0 -21,-8 -50,-11 -1,25 -4,18 -6,40z"></path> <polygon class="fil0" points="4375,4218 4470,4218 4470,4201 4375,4201 "></polygon> <path class="fil0" d="M5822 1183l6 45 16 0c8,-34 0,-32 0,-73l-16 0c-3,13 -6,13 -6,28z"></path> <path class="fil0" d="M5244 4263l79 6 0 -18c-26,0 -23,-5 -51,-5l-28 0 0 17z"></path> <path class="fil0" d="M2535 4190c21,-2 25,-3 23,-27 -2,-17 -6,-19 -6,-46l-17 0 0 73z"></path> <path class="fil0" d="M7779 2754c0,-29 -8,-53 -44,-56 1,17 1,12 14,36 10,17 8,18 30,20z"></path> <path class="fil0" d="M1924 3511c27,-2 47,-23 50,-50 -35,3 -49,19 -50,50z"></path> <path class="fil0" d="M1402 3539c24,-2 50,-17 51,-50 -31,2 -48,19 -51,50z"></path> <polygon class="fil0" points="4958,4246 5037,4246 5037,4229 4958,4229 "></polygon> <polygon class="fil0" points="3578,4824 3657,4824 3657,4807 3578,4807 "></polygon> <path class="fil0" d="M1374 3438c28,-2 43,-16 45,-45 -24,0 -44,4 -45,45z"></path> <path class="fil0" d="M2569 3640c28,-2 42,-16 45,-45 -25,0 -44,4 -45,45z"></path> <path class="fil0" d="M6058 4386c16,4 31,10 50,11 3,-12 4,-13 6,-28l-56 0 0 17z"></path> <path class="fil0" d="M4891 4330l0 17 62 0c-2,-16 0,-23 -17,-23l-6 0c-19,0 -22,4 -39,6z"></path> <path class="fil0" d="M5844 5087l51 0 0 -17c-31,-7 -51,-29 -51,17z"></path> <path class="fil0" d="M4521 4100l0 17 45 0c17,0 15,-7 16,-23 -31,0 -33,6 -61,6z"></path> <path class="fil0" d="M6523 3427l0 17 17 0c20,0 26,-20 28,-39 -45,3 -12,13 -45,22z"></path> <polygon class="fil0" points="5480,4364 5547,4364 5547,4347 5480,4347 "></polygon> <path class="fil0" d="M5833 1324c16,-2 23,0 23,-17 0,-19 -5,-22 -6,-39l-17 0 0 56z"></path> <path class="fil0" d="M6888 2889c29,-3 42,-12 44,-40 -19,1 -32,3 -40,21 -6,14 -3,0 -4,19z"></path> <path class="fil0" d="M6433 4599l0 -28 -45 0c3,29 16,28 45,28z"></path> <path class="fil0" d="M914 3741l23 0c4,-38 11,7 11,-45 -28,3 -33,16 -34,45z"></path> <path class="fil0" d="M1408 3707c34,-3 33,-20 33,-44l-16 0c-11,39 -17,-10 -17,44z"></path> <path class="fil0" d="M1369 3893l16 0c9,-32 16,-5 17,-45 -31,2 -33,11 -33,45z"></path> <path class="fil0" d="M7819 1823l17 0c0,-17 -1,-27 -7,-39l-27 -17c1,39 14,18 17,56z"></path> <path class="fil0" d="M970 3674c26,-2 33,-12 34,-39 -14,1 -16,0 -25,8 -14,11 -9,7 -9,31z"></path> <path class="fil0" d="M1593 3842c25,-2 33,-12 34,-39 -14,1 -17,0 -26,8 -13,12 -8,7 -8,31z"></path> <polygon class="fil0" points="4829,4235 4885,4235 4885,4218 4829,4218 "></polygon> <path class="fil0" d="M5732 2434l0 34c17,-1 28,-4 28,-23l0 -16c-10,1 -19,2 -28,5z"></path> <path class="fil0" d="M5979 2401c-38,3 -53,41 -24,38l13 -9c10,-10 10,-13 11,-29z"></path> <path class="fil0" d="M2579 4049c28,-2 34,-4 35,-33l-28 0 -7 33z"></path> <path class="fil0" d="M881 3657c0,0 28,5 28,-28 0,-12 -12,-10 -23,-11 -4,16 -5,17 -5,39z"></path> <polygon class="fil0" points="3276,4414 3326,4414 3326,4397 3276,4397 "></polygon> <path class="fil0" d="M853 3377l16 0 0 -17 -16 0 0 17zm-17 0c-3,12 -5,12 -6,28l23 0 0 -28 -17 0z"></path> <path class="fil0" d="M7404 3102l0 22 22 0 0 -39c-16,1 -22,0 -22,17z"></path> <path class="fil0" d="M7802 1049c0,19 10,16 28,17 -1,-27 -2,-32 -28,-34l0 17z"></path> <polygon class="fil0" points="5362,4280 5390,4280 5390,4251 5362,4251 "></polygon> <path class="fil0" d="M3175 4487c6,2 15,6 16,6 13,0 7,-2 23,-6l0 -17 -39 0 0 17z"></path> <path class="fil0" d="M6416 701c23,0 23,-2 40,-5l0 -17 -23 0c-16,0 -17,6 -17,22z"></path> <path class="fil0" d="M3057 4195l33 0c-1,-15 -2,-15 -5,-28 -24,2 -26,5 -28,28z"></path> <path class="fil0" d="M1823 3169c27,-1 31,-2 34,-28l-29 0c-3,13 -4,13 -5,28z"></path> <path class="fil0" d="M3382 4263c24,5 31,16 34,-17 -17,-4 -34,-17 -34,17z"></path> <path class="fil0" d="M2518 3270l17 0 0 -17 17 0 0 -17c-29,1 -33,5 -34,34z"></path> <path class="fil0" d="M2395 3859c25,-2 26,-9 28,-34 -28,1 -27,7 -28,34z"></path> <path class="fil0" d="M1251 3679c27,0 33,1 33,-28 -24,2 -31,3 -33,28z"></path> <path class="fil0" d="M2563 4218l23 0c4,-43 6,9 11,-34l-24 10c-14,14 -8,1 -10,24z"></path> <path class="fil0" d="M2771 4453l17 0c17,0 15,-6 16,-22l-16 0c-16,0 -17,6 -17,22z"></path> <polygon class="fil0" points="4453,4162 4493,4162 4493,4145 4453,4145 "></polygon> <polygon class="fil0" points="4717,4235 4756,4235 4756,4218 4717,4218 "></polygon> <polygon class="fil0" points="4442,4622 4481,4622 4481,4605 4442,4605 "></polygon> <path class="fil0" d="M909 3606c26,0 26,-3 28,-28 -27,1 -26,4 -28,28z"></path> <path class="fil0" d="M1453 3993c23,-1 26,-4 28,-28 -27,1 -26,4 -28,28z"></path> <path class="fil0" d="M7836 544l16 0 0 -28 -22 0c1,15 2,15 6,28z"></path> <path class="fil0" d="M2760 4493c16,0 15,-7 16,-23l-28 0c1,11 0,23 12,23z"></path> <path class="fil0" d="M7718 2692c11,-1 22,1 22,-11 0,-17 -6,-15 -22,-17l0 28z"></path> <polygon class="fil0" points="2535,4111 2552,4111 2552,4083 2535,4083 "></polygon> <polygon class="fil0" points="1408,4061 1436,4061 1436,4044 1408,4044 "></polygon> <polygon class="fil0" points="2900,4633 2928,4633 2928,4616 2900,4616 "></polygon> <polygon class="fil0" points="1436,4027 1453,4027 1453,3999 1436,3999 "></polygon> <polygon class="fil0" points="3348,4319 3377,4319 3377,4302 3348,4302 "></polygon> <polygon class="fil0" points="5025,4347 5054,4347 5054,4330 5025,4330 "></polygon> <polygon class="fil0" points="3057,4347 3085,4347 3085,4330 3057,4330 "></polygon> <polygon class="fil0" points="5076,4251 5104,4251 5104,4235 5076,4235 "></polygon> <polygon class="fil0" points="4840,4347 4868,4347 4868,4330 4840,4330 "></polygon> <polygon class="fil0" points="4151,4184 4179,4184 4179,4167 4151,4167 "></polygon> <path class="fil0" d="M1559 4594c21,-2 21,-2 23,-23l-23 0 0 23z"></path> <path class="fil0" d="M5642 4650l23 0c-2,-21 -2,-21 -23,-23l0 23z"></path> <polygon class="fil0" points="5155,4251 5177,4251 5177,4235 5155,4235 "></polygon> <polygon class="fil0" points="3438,4622 3461,4622 3461,4605 3438,4605 "></polygon> <polygon class="fil0" points="796,3449 813,3449 813,3427 796,3427 "></polygon> <polygon class="fil0" points="5828,4453 5850,4453 5850,4437 5828,4437 "></polygon> <polygon class="fil0" points="2148,4010 2165,4010 2165,3988 2148,3988 "></polygon> <polygon class="fil0" points="4330,4336 4347,4336 4347,4313 4330,4313 "></polygon> <polygon class="fil0" points="1234,3707 1251,3707 1251,3691 1234,3691 "></polygon> <polygon class="fil0" points="1251,3562 1268,3562 1268,3545 1251,3545 "></polygon> <polygon class="fil0" points="4078,3556 4094,3556 4094,3539 4078,3539 "></polygon> <polygon class="fil0" points="2771,4633 2788,4633 2788,4616 2771,4616 "></polygon> <polygon class="fil0" points="5900,2479 5917,2479 5917,2462 5900,2462 "></polygon> <polygon class="fil0" points="2417,3814 2434,3814 2434,3797 2417,3797 "></polygon> <polygon class="fil0" points="5816,2434 5833,2434 5833,2417 5816,2417 "></polygon> <polygon class="fil0" points="5727,3477 5743,3477 5743,3461 5727,3461 "></polygon> <polygon class="fil0" points="2872,4958 2889,4958 2889,4941 2872,4941 "></polygon> <polygon class="fil0" points="2552,4078 2569,4078 2569,4061 2552,4061 "></polygon> <polygon class="fil0" points="1385,3741 1402,3741 1402,3724 1385,3724 "></polygon> <polygon class="fil0" points="7796,1015 7813,1015 7813,998 7796,998 "></polygon> <path class="fil0" d="M2541 4201l1 -2c0,0 -2,1 -1,2z"></path> <path class="fil1" d="M1732 2475l-472 -8 -116 2 -21 -259 -3 -256 0 -334 14 -139 30 -25 57 -10 325 -23 345 -1 224 15 361 -1c0,0 95,-3 108,50l3 136 19 200 -6 327c0,0 8,215 8,221 0,7 -34,97 -34,97 0,0 -40,1 -132,5 -91,3 -151,3 -185,6 -34,2 -261,15 -261,15l-52 10 -2 186 100 28 141 27 58 26c0,0 46,9 -10,14 -56,5 -162,7 -162,7 0,0 -56,9 -97,12 -42,4 -238,4 -238,4 0,0 -100,-2 -115,-2 -14,0 -130,-7 -130,-7l-69 -12 -14 -42 94 -18 105 -11 60 -13 55 -1 31 -12 2 -102 -21 -112z"></path> <path class="fil0" d="M3062 4874l208 0c33,0 41,4 67,6 44,2 96,0 140,0 55,0 87,5 141,5 195,0 373,2 550,17 44,3 95,-3 139,0 91,8 178,2 267,15 45,6 96,2 143,2 191,0 363,17 555,17l0 5c-192,0 -367,14 -561,12l-134 -6c-48,0 -99,2 -146,0 -28,-1 -31,-5 -62,-6l-280 -6c-24,-2 -35,-5 -67,-5l-275 -11c-40,-2 -93,-11 -135,-11 -100,0 -168,-17 -269,-17 -33,0 -39,-5 -67,-6 -24,-1 -49,1 -74,1l-140 -12zm2210 -22l2 1c0,0 -2,-1 -2,-1zm-78 -12c6,-6 31,10 7,3 -1,0 -17,7 -7,-3zm-2681 -207c6,-6 21,9 6,3 0,0 -16,6 -6,-3zm336 -337c6,-6 22,9 7,3 -1,0 -16,7 -7,-3zm50 -178l14 -10c10,-8 5,-9 20,-14 0,-52 3,-86 6,-134 3,-39 15,-91 15,-129 0,-57 -13,-228 -4,-269 111,0 213,-12 326,-12 138,0 284,10 426,6 28,-1 28,-5 56,-6l180 -11c30,0 33,-5 61,-5l180 -6c21,0 13,10 11,33 -2,34 -10,72 -5,106 3,23 5,29 33,29 0,-28 -6,-25 -6,-50 0,-55 18,-273 6,-298l56 0c-11,49 -6,122 -6,180 1,59 -16,122 6,168 -27,13 -62,11 -89,0 -42,-17 -193,-2 -249,-9 -47,-7 -86,3 -122,4 0,62 -21,17 -21,77 0,14 12,9 -10,20 -47,24 -163,37 -198,77 -29,32 -36,74 -42,115 -8,53 -32,84 4,129 29,37 70,26 109,19 34,-7 29,-27 40,-50l79 5c-36,0 -53,0 -56,34 26,18 119,17 162,17l0 28c46,0 83,-6 135,-6 30,0 77,7 106,-1 16,-4 15,-2 17,-21 -14,-7 -124,-27 -147,-13 -11,7 -5,-1 -10,13l-78 0c-2,-20 -2,-18 -18,-22 -6,-2 -35,-1 -44,-1 -35,1 -51,1 -78,-5 32,-21 276,-26 325,-28 10,0 11,0 20,-2 23,-7 -8,0 19,-10l0 -16c-60,0 -120,0 -179,0 -64,0 -112,5 -180,5l317 -20c41,-8 56,-8 104,-8 -4,-42 -69,-25 -100,-29 -41,-4 -82,-5 -130,-5l0 17 -75 16c-64,8 -120,7 -183,7 5,-10 4,-7 5,-23l118 0c1,-35 34,-34 79,-33 19,0 40,-1 52,-4 21,-6 24,-13 43,-13l146 0 0 -28 -71 -7c-32,-9 -86,1 -125,1 -32,0 -34,-5 -62,-5l0 -6c25,0 46,-1 71,3l139 0c32,2 -1,-3 25,-3 23,0 18,4 34,4 15,0 12,-4 34,-4l0 -17 11 -5c18,36 3,62 8,98 4,26 1,37 -4,62 -7,38 -4,101 -4,148 -76,-18 -382,-6 -488,-6l0 17c106,0 231,-9 327,4 49,7 118,-16 155,3 6,3 17,22 71,7l75 -8 0 -17 -50 0 0 -45c38,19 73,-5 106,-5l0 -17c18,-1 73,-4 90,-11 9,-4 -8,1 11,-6l0 -17c-70,0 -145,23 -218,23l0 -40c39,-8 136,-5 201,-5 0,-2 -1,-14 -1,-15 0,-8 -2,-1 1,-8 48,0 86,-11 141,-11l207 0c18,0 109,51 137,-20 5,-11 1,-5 4,-14 0,-1 0,-3 0,-4 13,-48 28,-33 9,-123l-27 -63c-19,-34 -23,-16 -60,-29 -26,-9 -65,-10 -89,-19 -1,0 -2,-1 -4,-1l-29 -6c-29,-1 -57,-15 -87,-18 -56,-6 -95,-22 -95,-84 -51,-12 -116,-2 -163,0 -43,1 -56,16 -95,16 0,-32 3,-133 11,-151 19,-19 432,-3 511,-5 30,-1 42,-7 78,-6 31,0 58,-1 87,3 46,7 70,-3 110,1l7 2c1,0 6,2 7,2 13,3 29,-4 41,-2l466 16c7,30 6,48 6,84 9,5 13,4 21,8l10 5c39,22 152,6 201,13l620 30c22,0 45,-2 52,13l-1 1087c0,83 5,147 5,230 -53,-13 -78,-6 -140,-6l0 17 135 6 11 100c0,28 -21,13 -36,9 -48,-13 -126,-6 -173,-13 -28,-3 -59,4 -87,-2 -33,-7 8,-2 -25,-9 -21,-5 -96,-1 -122,-1l0 16 313 24c32,9 64,-2 89,12 60,32 129,32 204,32 75,0 44,-61 44,-124 1,-29 1,-60 1,-90 0,-35 -6,-46 -6,-83 0,-38 5,-54 6,-84l-7 -449c-4,-42 1,-116 1,-174 0,-80 7,-99 11,-168 6,-107 -19,-237 6,-343 92,0 72,25 221,3l520 -9c48,5 105,15 152,-4 1,0 2,-1 4,-1 38,-19 28,-58 28,-95 -1,-73 42,-49 96,-47l134 -4c19,0 22,5 39,6l0 -28 -112 0c0,-28 -14,-25 -54,-64l-77 -86c-21,-27 -15,-36 -15,-80 18,13 44,54 61,73 2,2 6,7 8,10l45 50c15,16 62,79 83,58 19,-18 -23,-37 -36,-49l-57 -66c-31,-33 -98,-99 -105,-142 -5,-32 -10,-81 -10,-119 22,16 35,45 50,67l60 81c0,1 2,2 2,3 20,24 66,82 96,84 0,-42 -30,-52 -59,-87l-92 -121c-15,-24 -27,-58 -57,-66l0 -73c-29,2 -18,10 -50,11 0,82 -10,149 -1,231 7,65 1,176 1,246 -1,201 38,164 -62,162 -20,0 -221,-7 -241,6 -10,-7 -3,-6 43,-47 26,-22 38,-10 74,-9 60,2 125,0 186,0l0 -17c-27,-7 -4,-9 -39,-11l-163 0c20,-31 69,-52 85,-83 18,-32 11,-106 17,-151 11,-82 23,-188 16,-277 -1,-15 0,-7 -4,-19 -4,-10 0,7 -8,-14l-17 0c0,95 6,200 -4,292 -4,37 -12,59 -12,95 -61,-2 -63,-26 -63,-25l1 -14c3,-17 3,-9 5,-29 4,-31 4,-27 11,-51 22,-66 19,-122 25,-160 9,-64 2,-56 5,-73 6,-34 10,-3 10,-86l-45 6 0 45 17 0 -6 22 -22 0c0,34 -6,60 -6,101l17 0c2,-19 1,-16 11,-28 0,50 5,35 -33,34 -2,-26 6,-10 -11,-23 -12,18 -17,32 -23,56 -26,-7 -5,-8 -34,-11 -63,95 -80,55 -84,90 -29,3 -18,13 -50,28 -19,9 -42,14 -45,39 -26,1 -33,14 -51,27 -1,1 -3,2 -4,3l-65 47c-28,14 -67,19 -104,19l0 22 44 0c-21,33 -64,55 -93,80l-28 29c-12,12 -58,28 -58,-2 0,-40 -11,-58 20,-82l59 -53c1,0 2,-2 3,-2 1,-1 2,-2 3,-3 0,-1 2,-2 2,-3l179 -152c12,-9 17,-12 29,-22l24 -20c25,-19 71,-40 74,-73 37,-3 53,-24 78,-45 22,-18 45,-31 66,-52l7 -38c-30,3 -45,34 -67,51l-60 47c-56,52 -19,15 -79,61l-103 82c-61,48 -124,97 -178,153l-20 19c-11,11 -22,21 -37,25l0 -157c24,-2 70,-56 113,-89l56 -45c39,-27 84,-72 146,-112l25 -20c1,-1 2,-2 3,-3 27,-25 60,-44 91,-65 6,-4 13,-7 18,-11 19,-16 18,-40 -12,-24 -34,17 -108,82 -121,88l-60 41c-11,9 -19,15 -31,24l-116 92c-8,4 -23,15 -29,22 -17,17 -3,10 -25,25l-58 49c0,-43 17,-73 17,-112 0,-24 -10,-17 1,-38l5 -7c9,-15 9,-3 11,-28l-17 0 0 -309 17 0 0 -16c22,-2 22,-9 40,-21 24,-17 48,-30 68,-51 19,-18 15,-15 9,-41 -44,0 -28,22 -67,51 -41,31 -43,48 -67,50 0,-19 -2,-50 -1,-67 5,-48 16,1 18,-50l-17 0c0,-40 0,-79 0,-118 0,-48 -6,-74 -6,-118 1,-77 -11,-156 -11,-236 0,-73 17,-48 84,-44 43,2 62,-6 101,-6 73,0 146,0 219,0 37,0 58,-6 101,-6l202 12c18,0 38,-1 56,-1 21,2 27,6 50,6l0 488c0,80 -5,139 -5,219 32,-1 21,-9 50,-11l0 -214c25,18 105,143 140,181l70 81c12,17 18,22 43,25 -1,-26 -2,-24 -18,-34 -6,-4 5,-3 -16,-6 -4,-34 5,0 -14,-25 -8,-12 -9,-16 -17,-28l-77 -97c-138,-183 -104,-105 -105,-231 0,-30 0,-60 0,-90 28,33 83,123 116,170 19,25 55,88 86,88 21,0 2,2 16,-5 -2,-26 -10,-13 -56,-73 -19,-26 -37,-50 -57,-77 -8,-11 -105,-153 -105,-165 0,-52 -6,-112 5,-162 22,16 40,60 56,84l52 83c10,15 14,17 23,33 16,26 27,51 60,52 0,-18 -3,-24 -14,-36l-120 -184c-61,-108 -62,-45 -62,-189 20,15 54,86 71,114l73 112c20,26 30,56 69,60 -1,-35 -23,-40 -40,-67l-145 -236c-6,-9 -13,-17 -17,-28 -12,-28 -20,-111 -6,-140l171 256c11,10 20,13 37,13l0 -28c-18,-2 -6,0 -13,-4l-10 -7c-20,-16 -33,-44 -48,-64l-25 -37c-4,-6 -4,-7 -8,-14l-73 -118c-1,-1 -2,-2 -2,-3 -50,-79 -29,-39 -29,-151l62 129 17 0c0,-17 1,-16 -4,-31l-70 -142c0,0 -7,-15 -7,-15 -4,-9 -7,-23 -9,-31 29,33 98,188 150,254 31,39 71,33 24,-18 -12,-13 -17,-26 -27,-41l-110 -193c-15,-27 -31,-33 -32,-69 0,-31 -4,-44 -5,-68 1,1 2,2 2,4l9 19c4,7 7,14 12,22 14,22 16,12 16,51 39,18 24,9 61,68 8,13 18,27 28,39 12,16 20,21 46,22 -2,-24 -16,-31 -28,-46l-135 -229c-16,-40 -11,-85 -11,-140 30,34 44,61 67,101 8,13 13,20 21,35l60 86c1,1 2,2 3,3 16,18 22,21 51,21 0,-72 -56,-157 -85,-224l-19 -42c-8,-20 -2,2 -8,-20l-17 0c0,32 8,37 17,62l71 159c0,1 1,2 2,4 -8,11 -11,-3 -36,-38l-54 -92c-4,-7 -6,-15 -10,-23 -6,-10 -8,-14 -14,-26 -64,-132 -49,-52 -49,-242 1,1 2,2 2,4l52 110c13,22 10,18 20,42l29 55c23,37 36,81 82,81 0,-30 -9,-48 -17,-79l-16 0c-3,29 5,10 -12,17 -6,-26 -8,-26 -20,-47l-48 -92c-3,-7 -8,-17 -11,-23l-9 -19c-8,-18 5,10 -3,-8 -1,-1 -1,-3 -2,-4l-29 -66c-7,-12 -9,-14 -14,-26 -15,-34 -9,-89 -9,-136 3,5 2,3 5,11 5,11 2,3 4,13 2,6 2,7 4,14 4,14 -1,-1 6,15 8,16 5,11 11,29l29 83c9,26 9,41 36,43 -1,-33 -11,-45 -19,-71l-24 -66c-1,0 -1,-2 -2,-3l44 74c37,76 78,84 71,42 -10,-61 -38,-124 -60,-182l-25 -49c-7,-12 -5,6 -8,-20l-16 0c5,69 71,148 73,213l-16 -29c-6,-11 -9,-18 -15,-30l-93 -193 6 -118c3,5 1,1 6,10 1,1 5,10 6,11l31 76c12,22 35,77 63,77 43,0 -24,-81 -28,-124 -22,1 -13,-1 -28,6 -5,-63 -45,-79 -45,-179 33,24 47,78 96,78 10,0 11,-13 11,-22l-41 -105c-16,-37 -23,-81 -32,-120l59 110c26,47 60,121 98,160 14,14 -4,8 22,11 -3,-44 -47,-94 -69,-132 -42,-71 -79,-146 -109,-223 -15,-40 -18,-82 -35,-94 -26,7 -17,9 -11,33 31,110 15,56 23,152 2,33 21,79 30,110 2,8 3,16 5,23 5,14 4,7 9,19 7,15 6,4 6,28l-47 -60c-11,-17 -17,-54 -31,-81 -12,-21 -11,-2 -12,-39l0 -168c-42,3 -4,3 -41,-9 -46,-14 -598,-4 -693,3 -118,10 -123,11 -247,11l-507 10c-57,8 -399,3 -444,10 -21,3 -28,9 -48,20 0,64 -5,195 -13,255 -13,86 7,183 -6,270 -7,50 3,362 2,468 0,9 0,24 1,32 5,27 11,12 11,35 0,74 -6,42 5,135l6 375c0,34 5,41 6,73 0,48 4,102 -3,149 -17,117 -1,250 -19,368 -12,82 -6,173 -6,257 -25,1 -26,-2 -28,23 -74,0 -324,7 -386,-2l-450 2 5 -231c0,-36 5,-48 6,-78l-26 -300c-24,-165 -31,-189 -124,-313 -23,-31 -44,-33 -82,-41 -27,-6 -41,-13 -71,-13 -168,0 -437,-17 -591,31l-110 53c0,78 -23,138 -28,218l-73 544c-6,40 -11,65 -11,113 -28,7 -41,20 -77,15 -81,-12 -560,-15 -669,-15 -69,0 -127,1 -189,-8 -41,-5 -128,2 -187,2 -71,0 -124,5 -191,6 -39,0 -56,-6 -89,-6 -73,-1 -204,-7 -272,3 -82,13 -82,13 -90,-46 -9,-61 24,-41 104,-41 163,0 318,-11 482,-11 4,0 94,25 88,-66 -10,-164 -13,-297 1,-462l-10 -263c0,-44 1,-50 -9,-87 -16,-59 8,-135 -45,-163 -1,-1 -2,-1 -3,-2 -53,-27 -77,-17 -140,-17 -118,0 -250,3 -365,-6 -161,-12 -338,-18 -499,-6l-201 12c-70,-1 -131,1 -200,13 -60,10 -51,48 -53,161 0,35 -6,58 -5,100 0,71 1,143 0,214 -1,35 -8,58 -6,101 3,90 17,213 17,302 -1,235 22,163 95,163 87,0 203,-3 285,7 201,21 237,-39 237,77 0,26 -40,17 -68,17l-168 6c-55,-1 -116,5 -170,-4 -108,-16 -182,24 -277,56l-543 169c-12,4 -20,8 -33,12 -43,15 -81,35 -132,36 -1,39 -17,26 -17,39 0,23 17,87 17,129 0,24 -3,49 3,70 14,53 49,42 92,42 80,0 83,-7 169,0l123 0c0,77 12,294 -17,354 -71,16 -280,5 -348,5 -64,0 -123,0 -180,-5 -47,-4 -60,8 -124,1 -16,-2 -33,-1 -49,-1 -22,0 -2,-2 -17,5 2,30 29,27 60,36 71,20 213,6 286,16 93,13 188,4 277,-1 34,-2 54,-6 95,-6l-11 1015c-1,63 11,98 11,163 0,39 0,201 13,228 13,31 21,25 21,69 30,7 64,8 98,14 108,18 200,9 317,9l639 0c29,-1 199,14 209,7 10,-6 8,-10 13,-21 0,-1 1,-4 1,-5 0,0 1,-2 1,-4 16,42 82,14 110,9l160 -20c34,0 58,-6 85,-10 42,-5 151,-1 180,-11l8 -3c44,-15 113,1 158,-10l0 -16c-37,0 -48,5 -83,5 -30,0 -66,-4 -93,3 -43,11 -45,5 -86,9 -42,5 -39,6 -84,-2 -49,-9 -285,16 -343,29 16,-22 33,-23 72,-22 103,1 180,-22 281,-22l101 0 0 -23c-73,-17 -148,11 -224,11 -49,0 -93,12 -136,17 -27,2 -28,-4 -50,-5 14,-21 42,-20 63,-27 48,-15 195,-37 240,-41l0 -17 73 0 0 17c52,0 98,17 135,17 26,1 53,-1 79,0 29,1 38,6 72,6l51 0 0 -17 106 6c-33,0 -48,5 -73,5l0 17c100,0 199,0 298,0 56,0 91,6 146,6 145,-1 295,0 438,16 50,5 92,2 142,9 47,7 99,0 149,3l135 10c92,10 359,6 448,6 196,0 385,23 583,23l0 -17 -61 -6c52,0 111,3 162,0 27,-1 39,-6 73,-5 35,0 51,1 79,-6l0 -33c-24,0 -49,-10 -56,16l-62 0c-3,-33 -23,-22 -62,-22 -95,1 -113,-11 -162,-11 -143,0 -287,-12 -427,-11 -35,0 -43,-6 -78,-6l-258 -6c-52,-2 -105,-11 -163,-11 -56,0 -118,5 -171,-3 -98,-15 -235,5 -337,-11 -78,-11 -571,-3 -692,-3 -123,0 -227,-5 -348,-5 12,-18 9,-4 11,-28l-22 0 0 -17 -51 0 0 17 23 0 0 22 -17 0 0 -17c-67,0 -125,11 -191,11 2,23 3,16 15,25l8 3c-137,0 -225,39 -258,40 13,-20 29,-30 48,-47 1,-2 4,-5 6,-6l182 -165c39,-36 42,-23 101,-23 57,-1 100,-17 179,-17 2,20 -7,15 17,21 5,2 34,3 41,4 84,12 694,9 839,8 36,0 51,5 79,6 27,1 57,-2 84,0l247 11c94,0 211,18 314,23 26,1 48,9 73,11l153 14c27,4 61,4 83,7 29,4 51,10 73,12 70,7 151,13 222,30 23,5 49,3 77,7 27,5 48,12 71,14 58,4 96,17 156,17l0 5c-118,0 -209,-16 -325,-16 -28,0 -56,0 -84,0l-158 -11c-15,-1 -28,0 -43,-1 -17,-2 -16,-5 -40,-5l0 28c151,0 281,16 432,16 68,1 138,18 207,18 19,0 38,-1 56,-1 39,0 118,35 124,-28 -65,0 -155,-29 -219,-33 -30,-2 -51,-5 -74,-10l-302 -41c-21,-2 -51,-7 -72,-11l-149 -20c-25,-4 -60,-5 -82,-8 -27,-3 -53,-7 -74,-10 -27,-3 -55,0 -83,-1 -49,-3 -104,-16 -157,-17 -60,-2 -104,-3 -163,-6 -100,-5 -215,-16 -319,-16 -99,0 -246,8 -338,-5 -53,-7 -119,4 -172,-2 -101,-11 -227,-5 -337,-5l0 -16 -51 0 0 -17c-33,0 -67,0 -101,0 -45,-1 -60,10 -95,11l24 -10c34,-9 60,-7 94,-7l0 -17c-85,0 -108,3 -183,19 -28,6 -36,4 -58,15l17 -28c1,-1 2,-2 3,-3 22,-22 78,-104 103,-104 31,0 47,7 75,3 27,-4 54,-3 82,-3 -3,-32 -14,-22 -50,-22 7,-5 -5,0 11,-6l50 -5 0 -17 -134 11c8,-13 24,-30 28,-45 19,2 27,8 39,9 10,1 25,-3 45,-3l0 -23c20,-4 32,-13 57,-16 36,-3 43,11 44,-29 -31,0 -47,12 -75,16 -32,4 -44,15 -77,18 41,-60 53,-52 99,-58l154 -9 0 -17 -34 -6 0 -16c-50,0 -78,10 -118,11 12,-16 25,-18 40,-40 51,12 113,-4 168,-5 83,-3 169,8 251,-2 42,-5 40,6 110,-7 62,-11 115,-8 177,-8 -2,-23 -2,-23 -27,-23 -23,0 -21,5 -46,6 -85,5 -165,-4 -251,7 -19,2 -27,10 -46,10 -17,0 -15,-11 -39,-11 -56,0 -223,-11 -269,11l22 -33c14,-18 42,-63 62,-68 0,22 -2,13 5,28 23,-2 19,-6 36,-9 11,-3 33,-5 39,-6 35,-5 49,-7 88,-7l0 -23c-26,1 -44,6 -78,6 -24,0 -63,-8 -85,6l-6 -5zm-364 425c0,31 61,23 101,23 24,0 17,-9 45,-12l0 -16 -62 -6c48,0 58,-11 96,-11l0 -17c-118,0 -63,2 -147,16 -20,3 -33,3 -33,23zm-325 314c104,0 73,2 90,-33l106 -12c22,-6 15,1 17,-22 -68,0 -113,5 -179,29 -22,7 -33,7 -34,38zm-157 -606l5 -140 17 0c-12,54 -8,66 -11,107 -2,31 -9,31 -11,33zm2193 -140c23,10 21,60 17,79 -23,-33 -2,-48 -17,-79zm-2160 118c1,-24 5,-20 6,-45 3,-60 -11,-81 23,-129 0,28 -7,129 -18,157 -4,10 -4,10 -11,17zm1470 -151l2 1c0,0 -3,-1 -2,-1zm34 -6c6,-18 -13,-8 16,-11 -1,1 -2,1 -2,2l-14 9zm-1532 17c0,-57 -10,-122 23,-146 0,53 8,123 -23,146zm2867 -73l-4 13c-12,5 -3,3 -19,4 1,-1 3,-3 4,-2l19 -15zm-1302 11l2 2c0,0 -2,-1 -2,-2zm-67 34c0,-37 -1,-35 22,-51l-22 51zm101 -79c-29,-2 -10,6 -17,-11 30,16 13,13 34,28l-5 7c-2,0 -4,-5 -4,-4 0,0 -7,-3 -8,-20zm1172 6l2 2c0,-1 -2,-2 -2,-2zm-1194 -56c12,-17 58,-32 80,-38l88 -30c7,21 8,1 11,29 15,1 15,2 28,5 -1,1 -3,0 -4,2 -4,12 -23,-10 -24,32 -42,0 -70,17 -112,17l0 28c29,0 8,0 17,5 -18,-1 -18,-1 -35,-15l-49 -35zm201 33l-22 0c10,-6 -13,-6 11,-4 12,1 5,0 11,4zm-145 -101c-19,25 -19,8 -54,25 -26,12 -36,26 -38,30l-26 46c1,-17 22,-64 32,-74 12,-15 63,-25 86,-27zm179 90l2 2c0,0 -2,-1 -2,-2zm23 -5l1 1c0,0 -2,-1 -1,-1zm336 -73l6 0c0,45 5,5 5,78l-5 0c0,-32 -6,-42 -6,-78zm-2120 162c-20,-14 -9,-2 -7,-28 5,-56 -5,-108 29,-117l-22 145zm1879 -157l28 0 0 6 -28 0 0 -6zm-1862 303c0,-74 16,-137 17,-179 0,-39 3,-56 5,-90 4,-48 15,-59 17,-84 15,-1 19,-3 29,-10l21 -24c0,131 -15,119 -17,157 -1,29 -4,141 -13,166 -6,18 -21,25 -34,38l-6 6c-1,1 -2,2 -3,3 -6,6 -11,11 -16,17zm2563 -275c-83,0 -159,-4 -241,0 -25,2 -21,5 -45,6 -44,2 -66,-13 -67,34 99,23 56,5 151,5 9,-19 -1,-15 15,-24 16,-9 276,-4 299,-4 -4,17 -9,22 -17,34l-168 0 0 17c37,0 75,0 112,0 73,-1 62,4 79,39 -49,0 -103,-4 -148,3 -52,8 -92,-9 -138,-9l0 23c-87,0 -141,11 -230,11 1,-15 2,-15 5,-28 19,19 44,11 96,11l0 -17 -51 0c15,-19 -4,-5 22,-11l231 -22 0 -17c-64,0 -127,1 -188,14 -16,4 -25,2 -42,3 -31,2 -48,4 -68,16l0 -84c24,-2 30,-6 62,-5 36,1 48,9 51,-23l78 0 0 17 73 0 0 -17 -67 -5c20,0 41,0 62,0 30,0 33,-5 61,-6 31,-1 36,-1 62,-6 52,-9 26,0 56,0 27,0 45,-11 71,-9 20,1 51,8 69,21l-37 13c-17,9 2,4 -20,9 -16,3 -49,-4 -80,3 -22,5 -22,8 -48,8zm-269 -50l33 0 0 5 -33 0 0 -5zm-219 5c-38,0 -98,4 -133,-1 -43,-6 -73,1 -125,1l0 -39 128 -23c19,-3 47,-6 64,-9 35,-6 35,-9 66,-1l0 72zm499 -33l2 1c0,0 -2,-1 -2,-1zm-95 -17c31,3 29,11 73,11 -24,21 -20,6 -73,6l0 -17zm-292 -11l0 -28c62,0 118,5 180,16 30,5 20,8 28,40 -26,0 -58,-4 -81,3 -20,6 2,2 -17,6 -28,7 -27,-5 -53,14 -19,13 -51,23 -61,18 -14,-7 4,-42 4,-69zm-90 -23l6 0 0 40 -6 0 0 -40zm320 23l29 8 -29 3 0 -11zm73 -28c31,0 40,7 65,13 12,3 21,3 33,6 85,19 19,-1 76,-2 6,13 -2,4 11,11 2,2 99,18 116,41 11,14 5,-9 8,20 -9,-4 -4,-2 -15,-8 -16,-9 -2,-2 -15,-7l-39 -11c-29,-10 -58,-5 -84,-11 -51,-13 -118,-30 -167,-30 8,-8 10,-5 11,-22zm-84 0c6,-6 21,9 6,3 0,0 -15,6 -6,-3zm-23 -6l2 2c0,0 -2,-1 -2,-2zm-16 -5c6,-6 21,8 6,2 0,0 -16,7 -6,-2zm73 -6l1 2c0,-1 -2,-2 -1,-2zm-202 -6l123 12c-49,0 -76,-6 -123,-6l0 -6zm-2300 169c22,-47 -7,-235 33,-197 12,11 4,1 1,45l-12 112c-4,25 0,34 -22,40zm1761 -191l2 2c0,-1 -2,-2 -2,-2zm539 0l-23 0c11,-7 -12,-6 11,-5 13,1 5,1 12,5zm-180 -6c7,-7 21,10 7,6 -8,-2 -13,1 -7,-6zm-1749 -16c6,-19 -5,-3 10,-17l7 4 -17 13zm-225 -17l17 0 0 56c-10,4 -15,3 -17,33 -42,1 -30,20 -57,44 -45,39 -7,19 -38,40 0,-61 -7,-46 9,-69 30,-43 2,0 2,-88 0,-14 15,-25 22,-33 0,44 -5,70 -5,118l16 0c1,-25 5,-31 14,-49 24,-51 -29,-77 35,-105l24 -15c0,58 -18,22 -22,68zm-17 0l0 16 17 0 0 -16 -17 0zm-50 -51l1 2c0,0 -2,-1 -1,-2zm5 -5l6 -45c0,56 6,16 -6,45zm101 84c0,-93 24,-41 28,-90 21,-1 24,0 38,-13l26 -30c1,0 2,-1 3,-2l40 -28c0,35 6,39 -15,58l-87 76c-17,17 -9,16 -33,29zm6 -90l0 -23c37,-3 7,-13 45,-16 -1,1 -3,0 -3,2l-42 37zm224 -51c0,-14 9,0 3,0 0,0 -3,16 -3,0zm-112 -140c-16,-4 -8,1 -17,-11 8,-34 11,-47 11,-90 11,-2 6,-1 12,-5l11 -12c0,67 5,44 -12,96l12 84c-24,16 -5,11 -43,30l-33 18c-8,4 -10,5 -18,10 -17,9 -18,8 -30,20 5,-17 66,-83 74,-88l14 -9c10,-11 17,-25 19,-43zm-213 135l1 1c0,0 -2,-1 -1,-1zm4633 62c0,-69 -10,-62 101,-62l0 33 16 0c1,-26 3,-31 28,-34 18,-1 49,1 68,1 49,0 77,-6 123,-6 -6,18 -11,6 -11,45l17 0c1,-16 4,-20 10,-29 24,-30 65,-16 91,-16 46,2 114,7 146,0l-42 37c-21,20 -27,20 -65,19 -61,0 -99,6 -157,6 -115,0 -211,6 -325,6zm-438 -12l23 0c7,-32 6,-22 35,-48l6 -6c1,0 2,-2 3,-2 29,-23 48,-6 84,-5 80,1 62,-9 57,50l-17 0 0 17c-31,0 -60,5 -81,2 -30,-3 -61,-2 -93,-2 -68,0 -115,-6 -174,-11 7,-28 2,-21 20,-37 56,-48 43,-19 132,-19 1,0 15,0 16,-1 2,0 3,0 5,0l12 -5c11,8 7,3 0,11 0,1 -2,2 -3,3l-12 16c-12,17 -12,10 -13,37zm-3864 -11c-12,21 -32,41 -47,60 -15,18 -37,31 -48,53 -15,30 -6,32 -30,59 -13,14 -21,10 -28,23 -7,12 -4,8 -4,24 34,-3 20,-14 72,-51 21,-16 53,-42 63,-67 7,-15 1,-21 0,-27 -2,-11 3,-10 5,-29 22,-2 22,-11 51,-44 12,-13 15,-14 16,-35 -17,2 -14,3 -22,12l0 -34 -17 -6c-1,0 -2,-1 -4,-2 -23,-12 -18,-5 -24,-20l-17 0 0 17c-29,3 -14,8 -36,25 -9,7 -2,5 -14,8l0 -50 112 -73c3,7 2,-1 1,8 0,1 -1,13 -1,14 15,-1 15,-2 28,-5l5 191c-21,7 -31,22 -33,44 15,-1 15,-2 28,-5 0,106 0,125 -76,182 -38,28 -62,54 -97,77l-62 56c-1,0 -2,1 -3,2 -23,21 -62,40 -65,75 37,0 57,-31 96,-66l54 -48c16,-17 33,-32 52,-37l-6 22c42,-3 42,-48 72,-85 13,-17 12,-17 29,-27 0,18 2,75 -1,89 -6,21 -30,28 -32,57 -22,2 -25,14 -39,29 -21,21 -54,33 -57,66 -21,1 -21,0 -34,11l-45 45c-12,12 -14,12 -16,34 30,-2 41,-19 58,-37l11 -11c7,-6 6,-5 12,-11 16,-15 17,-6 20,-31 27,-2 19,-9 39,-22l0 22 22 0c3,-28 15,-46 29,-66l33 -46 0 73c45,-4 28,-38 28,-129 0,-25 -1,-54 0,-79 1,-27 4,-17 19,-59 5,-13 -1,-1 6,-11 14,-20 32,-32 47,-54 19,-28 52,-56 75,-82 10,-12 4,-13 21,-18l0 -17 -28 0c-3,38 -9,7 -33,40 -1,0 -5,8 -7,10l-7 10c-1,1 -2,2 -3,3l-15 18c-21,32 -29,26 -58,65l-17 23 3 -289c11,-73 -2,-54 58,-93l96 -61c3,29 -5,10 11,16 -25,17 -28,-4 -28,40 40,0 29,-12 66,-53 9,-10 11,-7 13,-26 -19,2 -27,14 -39,28 2,-25 9,-30 26,-40l52 -22c34,-9 39,-52 79,-61 10,42 5,91 5,134 0,36 -8,50 -11,79 -29,1 -34,18 -53,37l-33 34c0,1 -1,3 -2,3l-50 51c-14,15 -23,20 -25,43 26,-2 32,-14 49,-30l28 -33c19,-20 71,-81 92,-88 2,27 9,57 0,84 -8,24 -9,7 -11,34l16 0c0,37 13,96 -16,124l-43 51c-15,15 -14,12 -14,38l17 0c3,-25 0,-8 8,-20 7,-10 8,-10 17,-17 14,-11 21,-18 31,-31 2,23 8,22 5,49 -2,17 -5,27 -5,52 -52,25 -12,16 -47,49 -1,0 -2,1 -3,2l-43 41c-18,20 -29,24 -30,54 -24,2 -43,21 -45,45 -20,2 -41,33 -17,37 20,4 0,7 14,-5l15 -20c16,-21 30,-20 33,-51 23,-3 31,-21 47,-37l76 -81 0 107c-25,6 -27,23 -43,40l-80 89c-13,13 -28,34 -45,39l0 17c43,0 56,-37 91,-72l67 -74c1,-1 10,-11 10,-11 0,73 -20,97 -64,143l-278 277c3,-28 -2,-7 12,-27l50 -74c0,-1 1,-2 2,-3l7 -10c13,-18 -9,11 5,-6l5 -7c1,-1 2,-2 2,-3l16 -23c4,-4 7,-6 12,-11l66 -76c7,-22 -15,-17 -26,-8 -13,12 -22,32 -35,44 -20,20 -31,12 -32,53 -27,2 -33,21 -48,42 -8,10 -11,17 -19,26l-7 9c-11,14 2,5 -15,18 0,-49 -6,-78 -6,-123l-17 0 0 219c-16,4 -23,16 -34,27l-302 298c-5,5 -2,2 -9,8l-96 89c-14,13 -19,15 -33,29 -9,8 -9,7 -17,16 -14,15 -8,1 -14,21l-11 0c-1,-70 -12,-45 -1,-147l7 -83c-16,1 -39,11 -51,16 0,77 -2,185 -12,257 -7,52 -49,35 -95,30 -58,-6 -140,1 -196,-5l-190 -1c-51,0 -79,-8 -129,-6l-129 6c-125,0 -259,1 -382,-6 -113,-6 -61,-33 -61,-78 0,-69 -16,-87 -17,-140 -1,-41 1,-83 0,-124 -1,-40 -11,-60 -11,-107 0,-49 -10,-112 -6,-167 8,-89 0,-76 0,-158 0,-82 6,-235 0,-309 -3,-41 -3,-92 3,-131 7,-42 0,-88 2,-132 3,-55 42,-49 45,-90 21,-2 22,-3 30,-26 5,-11 4,-3 4,-18l-17 0 0 16c-20,2 -20,2 -22,23 -26,2 -9,-3 -23,10l-16 18 22 -230 123 -124c1,-1 2,-2 3,-3 0,-1 1,-2 2,-3 24,-22 91,-77 117,-85 28,-9 70,-4 103,-4 -6,20 -1,15 -23,17l0 28 17 0 0 -17c33,-3 17,-13 43,-24 18,-8 47,-4 69,-4 -6,22 -20,27 -37,42 -1,0 -2,1 -3,2l-12 10c-1,2 -5,5 -6,6l-86 71c-16,16 -12,2 -13,32 33,0 64,-37 101,-68l33 -29c1,-1 5,-4 6,-5 1,0 2,-1 3,-2 18,-15 35,-29 48,-48l135 0c-15,22 -48,43 -70,60l-77 63c-9,11 -9,11 -10,29 32,0 35,-13 60,-35 19,-17 37,-29 56,-45 5,-3 10,-7 13,-10l12 -10c41,-36 60,-66 122,-52l-41 38c-17,15 -27,23 -44,39l-44 41c-1,0 -2,2 -3,2 -1,1 -2,2 -3,3l-156 153c-1,0 -2,2 -3,2 -1,2 -4,5 -6,6 -14,14 -23,19 -25,42 30,-1 36,-13 54,-31l263 -247c14,-12 37,-29 42,-48 30,0 47,-4 67,-5 21,-1 43,5 73,5 -6,6 -11,11 -17,17 -1,0 -2,2 -3,2 -1,2 -4,5 -6,6l-60 57c-24,22 -63,41 -65,75 33,0 55,-26 90,-61l77 -74c1,-1 2,-2 3,-3 1,0 2,-2 3,-2 1,-1 2,-2 3,-3l14 -14 264 0c-8,16 -21,20 -33,29l-233 216c-22,22 -41,37 -64,60 -11,11 -19,19 -30,31 -37,36 -152,123 -156,169 36,-1 51,-32 74,-55 42,-42 83,-91 130,-128l77 -69c4,-4 3,-3 8,-8 5,-5 3,-4 8,-9l39 -34c1,-1 2,-2 3,-3 1,-1 2,-2 3,-3l102 -93c22,-22 49,-42 68,-67 12,-17 -1,-5 17,-17 6,-5 15,-9 21,-13 0,33 15,84 -1,117 -16,30 -12,-8 -16,29 -19,1 -22,4 -35,16l-64 59c-21,18 -53,38 -71,59l-7 10c-8,25 19,17 30,7l24 -21c17,-14 33,-27 48,-42l66 -58c9,-9 13,-20 26,-25 2,33 23,107 -17,118l0 28c1,0 14,-2 14,-2 8,1 2,-1 8,2l-8 144c-9,28 -13,4 -14,41l17 0 -6 135c-3,37 -11,20 -11,39 0,18 11,15 11,34 0,32 -9,40 -11,67 -26,3 -9,2 -23,11l-23 21c-7,14 -4,6 -5,24 30,-2 34,-29 56,-45 0,109 -2,220 -19,323l-14 182 17 0c0,46 -6,69 -6,112 15,-1 15,-2 28,-5 -5,19 -3,17 -22,22 0,29 -4,18 8,36 10,15 10,19 31,20 0,-81 17,-155 17,-235 -1,-35 -4,-59 16,-73 0,51 -1,44 -9,85 -4,16 -1,33 -2,50 0,26 -4,23 -5,44 27,-2 24,-11 27,-40 3,-27 6,-39 6,-66 2,-153 17,-69 17,-129 13,6 8,9 23,1 24,-14 31,-49 61,-57 0,27 -2,39 -4,57 -8,66 31,37 -24,89 -15,14 -16,1 -17,33 21,-2 27,-8 40,-22 12,-11 20,-18 32,-30 20,-20 55,-41 57,-71 27,-3 39,-17 40,-45 -27,2 -37,13 -40,39 -35,3 -32,32 -61,39 -15,-30 -7,-108 20,-136 1,-1 2,-2 3,-3 14,-15 14,-3 16,-29l-28 0c0,-27 6,-59 9,-80 8,-43 -2,-87 33,-108 35,-20 41,-55 76,-64l0 -17c-20,0 -27,5 -40,16l-56 51c3,-35 4,-126 26,-148l33 -29c5,-5 6,-6 11,-11l54 -47c5,20 0,15 22,16l23 12c0,-41 -5,-71 19,-99 0,-1 2,-2 2,-3l24 -21c5,-4 1,-3 11,-6 -6,11 -7,23 -2,34 7,15 11,14 30,16zm-1296 -275c20,-2 11,-3 17,-6l7 -4c22,-13 25,-17 27,-40 -35,1 -51,18 -51,50zm1245 455c40,0 23,-6 48,-31 12,-13 29,-28 31,-54 -21,2 -25,5 -41,27 -29,38 -35,26 -38,58zm62 -315c-4,15 2,7 -11,12l0 17 28 0 0 -29 -17 0zm3657 141l-73 0c0,-32 0,-34 29,-55 32,-25 52,-8 94,-7 -14,27 -12,10 -26,30 -19,26 1,32 -24,32zm-90 0c-46,0 -71,-6 -112,-6 12,-17 28,-52 45,-62 1,-1 2,-1 3,-2 1,0 3,-1 4,-1l71 -2c-6,27 -10,18 -18,33 -11,22 -5,28 7,40zm-3881 -23c1,-12 13,-64 17,-73 16,7 11,-3 11,28l17 0c4,-20 6,-46 16,-67 5,-12 2,-5 6,-11 0,82 -5,50 -40,100 -10,15 -6,18 -27,23zm3528 -22l22 0c5,-45 69,-34 101,-34 -24,21 -22,20 -22,56l28 0c1,-48 18,-19 22,-56 33,3 60,6 101,6 -8,12 -10,11 -18,21 -16,21 -4,16 -15,30 -12,17 -53,11 -79,10 -27,0 -63,-2 -89,1 -63,5 -62,16 -62,-51 0,-17 6,-15 22,-17 -7,13 -10,15 -11,34zm-3517 -185c-11,-5 -19,15 -4,-49l14 -53c5,-23 4,-35 9,-58 5,-22 13,-30 15,-53 24,-2 10,0 28,-12 -1,26 -6,44 -6,79 -26,12 28,-12 -15,2l-14 8c-20,19 10,-18 -5,6 -7,12 -4,-2 -5,18 32,-3 4,1 17,-6 21,-11 -12,-1 17,-11 0,35 -5,39 -13,66 0,2 -4,91 -15,137 -8,38 -19,25 -45,38 -5,20 -6,18 -6,45l-6 0c0,-95 32,-137 34,-157zm0 0c39,-5 -5,-7 34,-17l0 -17c-29,1 -32,7 -34,34zm17 123l2 2c-1,0 -3,-1 -2,-2zm5502 -67c9,9 16,15 26,25 10,9 16,17 25,25l-51 0 0 -50zm-903 50c0,36 20,48 -11,56 -22,-15 -9,-23 -6,-50l6 -129c1,-24 7,-36 11,-56 17,26 11,118 11,151 0,20 -11,9 -11,28zm-662 34c127,-110 64,-62 174,-62 -15,21 3,1 -18,16l-49 35c-21,17 -69,11 -107,11zm-56 0c-40,0 -37,-5 -62,-6 9,-12 18,-16 30,-26 56,-46 13,-41 128,-41l-45 40c-22,15 -23,33 -51,33zm-3847 -101l1 2c0,0 -2,-1 -1,-2zm4330 -107c0,76 -6,137 -6,208 -35,8 -75,6 -118,6 19,-27 64,-43 67,-79 -29,1 -12,-2 -30,9l-49 46c-31,36 -89,24 -156,24 5,-14 1,-4 10,-13l9 -8c59,-51 53,-41 110,-41 -3,-25 -25,-27 17,-28 -2,-16 -18,-18 38,-52 51,-31 27,-23 48,-36l15 -7c15,-9 27,-19 45,-29zm370 225c3,-3 10,-10 14,-14l98 -81c13,-12 18,-22 35,-27l88 -1c36,0 86,-16 107,-6l-95 78c-9,7 -6,4 -15,14 -11,11 -7,8 -16,18 -23,28 -52,19 -99,19 -39,0 -78,0 -117,0zm774 -174c38,26 21,41 108,105l26 24c-36,0 -38,3 -64,-20l-29 -32c-36,-44 -15,-23 -35,-30 -12,-4 -10,17 -12,-13 -1,-19 4,-12 6,-34zm-241 34c37,0 35,8 56,22 -4,7 -6,11 -10,18l-34 34c-1,1 -2,2 -3,2 -51,44 -73,78 -181,61 -35,-5 -77,-3 -115,-3 11,-15 20,-23 34,-34 8,-6 10,-7 19,-15l59 -47c7,-5 12,-8 20,-14l26 -13c21,32 16,39 30,59 13,17 37,25 65,25l0 -23c-38,-8 -47,-24 -56,-61 17,0 21,2 35,4 38,7 48,23 94,24 -2,-22 -3,-21 -28,-34l-11 -5zm-337 -6l2 2c0,0 -3,-1 -2,-2zm303 -6l2 2c-1,0 -3,-1 -2,-2zm-56 -16l50 16c-6,0 -29,1 -33,0 -25,-6 -8,1 -17,-16zm-236 22l0 -6c21,0 28,-2 45,-5 26,-5 20,-8 45,-11 36,-5 65,-6 107,-6 -18,24 -49,23 -90,22 -45,0 -68,6 -107,6zm11 -22l-22 0c11,-7 -13,-7 11,-5 12,1 5,0 11,5zm281 -34l0 17 -28 0c11,-10 12,-13 28,-17zm-5379 11c-2,-11 7,-20 4,-3 0,0 0,23 -4,3zm533 -50l47 -55c14,-14 2,-11 26,-13 -1,22 -6,25 -6,68 0,22 -1,2 6,11l11 11c-40,9 7,-1 -34,-6l6 16c1,8 13,-1 -7,11 -12,8 -20,8 -33,17 -93,65 -75,48 -157,97 -16,10 -20,20 -22,-6 -32,3 -8,8 -33,17 0,-121 34,-59 39,-112 -39,1 -39,30 -39,-12 0,-35 11,-42 11,-78 22,-3 40,-28 56,-45 -19,81 -55,150 5,152 -1,-24 -8,-20 0,-40 12,-28 21,-28 28,-34 14,-13 11,1 12,-27 -40,0 -8,-3 -34,16 1,-23 11,-50 16,-73 10,-45 26,-27 29,-61 -15,-6 -10,11 -11,-23 33,3 11,12 33,12 29,0 -16,-12 68,-12 -29,43 -49,60 -51,84 2,0 14,-1 14,-1 9,0 2,-2 9,1 -1,21 -9,43 -15,65 -8,30 0,9 -13,26 -12,15 -10,8 -12,27 40,-4 0,-5 24,-8 20,-2 25,25 47,-5 1,-1 4,-6 4,-7 3,-6 2,2 4,-13 -15,-8 -26,0 -28,0zm-67 33l0 23 16 0 0 -23 -16 0zm-85 118l17 0c2,-9 -1,-1 4,-13 6,-17 7,-13 24,-27l27 -25c10,-14 15,-31 -11,-22 -10,4 -23,27 -39,42l-11 10c-15,16 -11,4 -11,35zm275 -168l2 1c0,0 -2,-1 -2,-1zm-342 -28c7,10 6,-13 5,11 -1,12 -1,5 -5,11l0 -22zm-235 95l16 0c0,-30 0,-8 6,-17 -1,35 -7,55 -17,79 -5,13 -2,53 -5,79 -4,30 -10,56 -12,84 0,15 2,28 -2,42 0,0 -6,15 -7,16 -11,12 7,6 -19,9 -3,34 -6,30 -28,45 0,-49 -1,-102 4,-142 4,-24 0,-46 3,-70 3,-22 4,-39 4,-69 13,9 12,-4 12,39 0,60 -19,-8 -5,107l16 0c0,-93 14,-47 20,-86 5,-28 -19,-22 1,-89 16,-55 -11,-31 7,-88l12 -23c23,-25 27,-2 27,-45 -19,2 -14,7 -33,17 0,-25 5,-40 5,-73 -34,3 -17,12 -39,28 0,-21 5,-31 31,-53 12,-9 -9,-8 25,-9 -1,1 -3,1 -3,3 -1,1 -3,2 -3,2 -13,15 -10,11 -11,29 34,-1 13,3 29,-11l12 -10c8,-6 4,-4 15,-7 -1,13 -2,17 -5,29 -6,28 3,3 -9,24 -38,61 30,2 -40,140l-7 20zm5160 0c-29,0 -41,-7 -100,7 -16,4 -13,8 -35,10 5,-20 1,-15 22,-17l0 -17c24,-2 27,-4 29,-28 39,-1 42,-12 59,-30 26,-26 43,-23 59,-36 19,-15 4,-21 39,-24 0,23 -5,29 -10,41 -4,11 -9,29 -11,40 -3,26 11,54 -52,54zm-5233 -50l22 0c0,-39 5,-68 28,-85 -3,15 -3,28 -7,44 -6,26 -13,12 -15,41 18,7 7,-11 11,16 2,12 -7,54 -17,68l0 -79 -22 0c0,30 0,9 -6,17 -4,-46 -21,-92 17,-112 -3,35 -12,13 -16,40 -1,9 5,29 5,50zm4717 -146c15,-1 15,-3 28,-6 0,28 0,56 0,84 0,30 0,48 -17,73 0,-56 -11,-95 -11,-151zm-2144 46l38 -31c9,-8 1,-5 14,-10 -26,38 -17,21 -45,45l-7 -4zm-448 -35c10,8 11,0 -15,24 -13,13 -5,10 -24,15 15,-13 26,-20 39,-39zm623 17c-6,5 -11,11 -17,17 5,-17 0,-13 17,-17zm-220 12c0,-2 4,-5 4,-4l61 -45c16,-10 8,-9 26,-14 -34,33 -25,17 -51,39l-9 8c-20,17 -11,2 -24,21l-7 -5zm-303 0c1,-1 20,-23 46,-29l-22 17c-1,0 -3,2 -3,2l-21 10zm-84 0c1,-1 15,-10 24,-12l-9 8c-8,8 -3,1 -8,9l-7 -5zm52 -7c0,-1 21,-9 6,0 0,0 -12,16 -6,0zm1974 236l-90 0c5,-10 5,-7 6,-22 20,-2 20,-4 38,-18l15 -13c17,-14 32,-25 48,-37l71 -57c13,-13 11,-16 24,-21l0 -17c-22,0 -21,1 -31,8l-159 127c-6,9 -3,-9 -6,16 -36,3 -42,34 -62,34l-50 0 0 28c3,0 9,0 11,0 9,3 6,2 11,6 -37,10 -41,36 -63,48 -7,4 -37,12 -43,12 -12,0 -28,-4 -51,-4 7,-31 4,-15 20,-26 16,-11 17,-8 19,-30 42,-4 93,-64 131,-89l35 -26c24,-15 17,-1 19,-26 16,-1 39,-20 52,-32 14,-12 7,12 10,-18 24,-1 13,1 31,-14l39 -28c1,-1 2,-2 3,-3l44 -34c77,-58 44,-38 147,-39 21,0 45,-2 64,3 28,8 17,14 54,14 0,162 12,96 -55,153 -1,1 -2,2 -3,3l-68 50c-18,12 -20,7 -40,26 -41,38 -48,26 -132,26 15,-27 14,-15 34,-28 1,-1 2,-2 3,-2l12 -11c8,-8 11,-9 19,-15 21,-16 192,-139 198,-155 4,-12 1,-12 -2,-25 -23,2 -74,53 -97,71l-152 118c-31,23 -48,26 -54,47zm-1537 -224c9,-33 12,-1 34,-34 14,10 1,9 0,22 -19,1 -25,3 -34,12zm-348 -17l2 2c0,-1 -2,-2 -2,-2zm-375 0l1 2c0,-1 -2,-2 -1,-2zm3505 -23l0 23c-7,-11 -6,12 -4,-11 0,-13 -1,-5 4,-12zm-106 185l28 -139c13,-32 19,-13 22,-40l17 0c-10,121 32,112 -27,153 -24,16 -13,20 -40,26zm-3635 -168l2 2c0,0 -2,-1 -2,-2zm1077 -5l2 1c0,0 -3,-1 -2,-1zm-538 0c0,-2 21,-10 6,-1 0,0 -12,16 -6,1zm218 -6l2 2c0,0 -2,-1 -2,-2zm-605 34c9,-15 19,-29 39,-34 -10,15 -20,28 -39,34zm-141 -34l2 2c0,0 -2,-1 -2,-2zm544 -6l2 2c0,0 -2,-1 -2,-2zm404 -5c1,-2 22,-9 7,-1 0,0 -13,17 -7,1zm-359 0c1,-2 22,-9 7,-1 0,0 -13,17 -7,1zm-95 17c5,-13 0,-5 9,-14 5,-5 9,-6 13,-9 -6,26 -2,11 -22,23zm-247 33c12,-11 22,-22 34,-33l18 -16c1,-1 2,-2 3,-3l18 -9c-13,19 -49,59 -73,61zm-1598 51c0,-33 -6,-39 -6,-68 17,-4 5,2 18,-10l16 -18c28,-28 27,-28 56,-28 0,27 0,22 -9,42 -9,19 -6,18 -19,32l-19 19c-17,17 -21,26 -37,31zm1985 -62c8,-12 17,-18 29,-27l33 -23c15,10 4,-2 -27,29 -14,15 -13,16 -35,21zm-308 11c25,-37 58,-47 73,-67l6 5c0,7 -60,57 -79,62zm-135 -56l2 2c0,0 -3,-1 -2,-2zm2120 191l0 17c-25,0 -26,-2 -28,22 -21,2 -31,5 -34,28 -24,1 -59,20 -61,51 -36,0 -14,2 -53,31 -35,25 -11,19 -87,19 44,-39 30,-9 33,-39 20,-2 26,-6 41,-21 4,-3 5,-5 8,-8 32,-38 19,-8 45,-35 15,-15 4,-18 35,-20l0 -17c23,-2 28,-7 41,-21l49 -41c1,0 2,-1 3,-2 1,-1 3,-2 4,-2l132 -98c30,-22 61,-37 68,-66 29,0 31,6 62,6 -9,12 -17,15 -31,24l-72 57c-1,2 -5,5 -6,6 -27,22 -18,7 -63,49l-63 49c-13,12 2,9 -23,11zm-1346 -196l2 1c0,0 -3,-1 -2,-1zm-224 0l1 1c0,0 -2,-1 -1,-1zm-264 0l2 1c0,0 -3,-1 -2,-1zm-1969 -6c26,-1 19,-6 40,-6 24,0 9,4 31,8 46,9 47,-38 47,48 -19,6 -39,27 -54,42 -6,6 -4,3 -11,11 -14,16 -28,29 -30,48 27,-2 26,-10 50,-34 6,-6 11,-9 17,-16 0,118 -11,66 -20,103 -1,7 11,85 -8,122 -10,21 -14,12 -25,13 -26,4 -3,-2 -25,14 1,-60 9,-65 31,-87 16,-16 0,-13 25,-19l0 -17c-41,1 -14,8 -45,17l0 -23 -17 0 -14 46c-3,-23 -1,-33 3,-51 5,-26 0,-34 22,-40l0 -28c-26,-10 -9,-12 -1,-63 2,-17 6,-64 7,-77l-23 -11zm685 -17l740 -5 12 77c10,50 100,56 125,60 54,10 107,20 166,20 41,-1 54,-4 79,15 40,31 65,57 134,57 -10,20 0,20 0,45 0,38 -6,49 -6,84 -60,0 -101,6 -157,6l-1093 45c-8,-87 0,-30 0,-95 0,-36 0,-71 0,-107 0,-55 7,-87 5,-152 0,-27 -5,-25 -5,-50zm-713 17l2 2c0,0 -2,-1 -2,-2zm3753 101c-25,2 -5,-4 -32,13 -26,17 -14,11 -23,22l-92 71c-3,1 -14,11 -16,12 -4,4 -3,2 -8,10 -17,24 -7,23 -1,26 15,7 5,1 10,0l96 -79c19,-16 4,-13 33,-29l26 -19c1,0 2,-2 3,-2 1,-2 5,-5 6,-6 10,-9 8,-7 19,-14l39 -29c28,-19 49,-34 74,-55 46,-36 20,-28 101,-28 -2,27 -22,34 -58,60 -8,6 -5,4 -13,10l-81 59c-13,8 -15,10 -16,28 -27,0 -25,1 -37,14 -27,27 -35,23 -79,61l-18 16c-38,28 -4,19 -53,42 -33,16 -12,15 -48,37l-47 36c-22,18 -4,13 -77,13 0,-160 10,-44 17,-106 11,-2 6,-1 13,-4l61 -51c84,-69 174,-130 263,-191 6,-4 4,-3 10,-8 23,-18 17,-16 51,-16 -5,4 -9,8 -15,13l-97 72c-15,15 -8,-6 -11,22zm-247 213c32,0 64,-28 67,-62l-26 8c-17,11 -39,34 -41,54zm33 -112c-7,0 -4,-1 -9,1 -17,5 -33,22 -46,33 0,1 -2,3 -2,3 -2,2 -5,5 -6,6 -8,7 4,2 -9,7l0 -56c19,-1 22,-7 36,-19 1,-1 5,-4 6,-6l168 -118c1,-1 2,-2 3,-2 1,-1 2,-2 3,-2l24 -16c5,-3 11,-8 16,-12 1,0 3,-1 4,-2l20 -8 0 -22 39 0c-7,26 -46,44 -78,67 -1,1 -2,2 -3,3l-93 69c-45,42 -70,40 -73,74zm-72 -34c0,-81 23,-29 28,-73 31,-2 31,-12 48,-30 6,-6 3,-3 9,-8 61,-48 88,-78 156,-63 -1,1 -3,1 -3,3l-80 55c-1,0 -3,1 -4,2l-54 41c-1,1 -2,2 -3,2l-13 10c-1,1 -5,4 -6,5l-46 33c-17,14 -17,19 -32,23zm-62 -5l0 16 25 0c1,0 2,0 3,0 -2,65 -33,25 -34,79 15,-1 15,-3 28,-6 0,33 -5,47 -5,84l-437 5c-18,4 -6,-6 -50,-4 -75,4 -249,-3 -338,-1 -53,2 -192,20 -237,13 -41,-6 -193,2 -222,-2 -19,-2 -16,-6 -34,-11l-6 -123 69 -21c17,-7 2,-1 14,-8 6,-3 8,-3 16,-7 10,-5 20,-10 28,-17 28,-26 12,-42 137,-42 27,0 24,4 45,5l147 -9c36,-6 50,-6 65,-36l7 -15c14,-30 10,-39 10,-74 59,-14 137,1 201,-7 91,-13 432,2 529,1 58,0 70,-6 69,24 -3,69 7,102 -16,131 -8,10 -14,12 -14,25zm-886 -107c12,-18 61,-57 78,-62l-62 56c-13,8 2,2 -16,6zm-236 0c6,-16 14,-20 38,-35 16,-10 34,-23 52,-27l-61 51c-12,8 -16,5 -29,11zm-56 -62c6,-6 21,9 6,3 0,0 -15,7 -6,-3zm-129 0l2 2c0,0 -3,-1 -2,-2zm-169 1l9 2c0,1 -2,2 -3,3l-6 -5zm-1760 22c1,-21 1,-21 22,-23 -10,19 0,17 -22,23zm-348 -23c24,1 17,4 39,6 -5,23 -17,45 -34,56 0,-26 4,-43 -5,-62zm3652 35c0,-26 3,-18 5,-40l33 0 -38 40zm-2985 -18l17 0c13,-36 72,-28 101,-28 -7,9 1,-1 -8,9 -44,47 -48,34 -48,70l17 0c3,-11 2,-6 5,-12l59 -59c9,-6 3,-4 14,-8 1,1 3,1 3,3 2,8 14,2 14,14 0,42 -51,69 -99,102 -30,21 -16,19 -41,21 3,-10 36,-83 17,-123l-23 0c-2,24 -2,5 -10,34 -10,35 -14,75 -51,101 3,-15 4,-11 7,-26 4,-17 2,-19 5,-35 3,-24 9,-21 13,-37 3,-10 3,-9 3,-20 -38,0 -17,-8 -59,43 0,0 -1,2 -2,3l-46 49c4,-41 20,-112 61,-124 17,-5 39,-5 62,-5l-8 19c-7,20 2,-18 -3,9zm-1839 -22l0 22 22 0c6,-17 12,-18 56,-28l-94 92c-10,13 -4,-9 -7,20 -37,3 -53,60 -90,73 1,-33 12,-24 12,-50l0 -124 50 0c-5,11 -4,7 -5,23 -27,2 -28,12 -29,39 14,-1 7,-1 14,-4 1,0 2,-1 3,-1 22,-12 17,-19 17,-34 25,-2 22,-5 38,-19l13 -9zm4818 101c0,-42 28,-45 51,-66 18,-16 32,-37 78,-41 -8,12 -18,18 -29,27l-10 8c0,1 -2,2 -3,3 0,0 -2,2 -2,2 -37,38 -22,16 -40,33 -44,43 -2,13 -45,34zm-1302 -112l2 1c0,0 -2,-1 -2,-1zm-684 0l2 1c0,0 -3,-1 -2,-1zm-3343 -214c57,0 154,6 205,-2 35,-5 68,0 103,-4l203 -10c53,0 80,11 134,11 208,-1 710,-11 883,14l144 8 11 -22c0,22 -2,13 5,28l51 0c0,-30 0,-9 6,-17 4,14 10,17 28,17l330 0c216,0 413,-11 629,-11 51,0 85,9 129,11l319 5c73,0 129,-5 197,-5 59,0 131,-12 190,-12 34,1 68,0 101,1 79,0 229,-17 297,-11 252,21 539,11 808,11l1408 11c41,0 56,6 95,6 48,0 53,-11 96,-1 0,38 -5,54 -6,84 -2,66 17,178 17,253 0,87 2,188 -10,271 -11,83 -18,988 -18,1025 0,127 -9,340 5,460 5,46 -5,81 -5,117 -42,0 -62,12 -101,12 -28,0 -10,-26 -11,-56 -1,-26 -6,-39 -6,-73l-5 -236c-7,-115 -1,-806 5,-881 6,-75 -1,-159 0,-235 0,-33 6,-43 6,-79l36 -26c43,-32 53,-22 54,-58 -20,0 -36,6 -54,20 -1,1 -5,4 -6,5l-30 20c0,-28 6,-35 6,-67 0,-26 -1,-53 -1,-79 0,-54 10,-85 2,-142 -10,-69 5,-151 -3,-222 -6,-56 9,-14 13,-57 -33,-21 -92,4 -166,-7 -31,-5 -60,-2 -90,-6 -60,-9 -130,-3 -193,-3 -36,0 -50,-6 -90,-6 -94,1 -183,-11 -280,-11l-527 0c-43,0 -66,5 -101,6 -109,1 -211,5 -315,-1 -34,-1 -70,3 -104,-2 -101,-15 -216,9 -319,-6 -34,-6 -69,0 -103,-4 -33,-3 -61,-4 -102,-4 -38,0 -62,-6 -106,-6 -79,0 -243,8 -317,-3 -45,-7 -66,2 -104,3 -177,6 -360,0 -538,0 -42,0 -68,5 -101,6 -35,1 -73,-2 -107,0 -211,11 -316,11 -533,11 -70,0 -150,-4 -219,0l-207 11 0 17c263,0 535,2 797,-6 28,0 34,-5 67,-6 101,0 184,-5 286,-5 190,0 397,10 578,-5 94,-8 197,5 286,5 78,0 219,-8 290,2 127,17 455,1 565,17 85,13 195,-2 283,-2 81,0 369,7 437,-1 40,-4 91,-8 138,-1 45,6 96,0 143,2l280 11c53,0 86,6 141,6 61,0 239,0 275,17l0 67c-26,6 -64,-2 -100,-7 -170,-24 -363,-21 -534,-21 -64,0 -111,11 -169,11 -114,0 -213,-11 -330,-11 -143,0 -291,-2 -432,5l-114 2c-209,-11 -431,5 -638,-12 -58,-5 -102,7 -147,1 -50,-7 -115,-2 -157,3 -73,8 -160,1 -234,1 -35,0 -46,4 -73,5 -49,3 -107,0 -157,0 -50,0 -95,10 -151,6 -89,-8 -149,5 -219,6l-230 5c-87,-7 -196,-8 -286,1l-343 5c-38,0 -75,-1 -111,-7 -28,-4 -15,-12 -42,-6 -26,6 5,4 -20,5l-57 -3c-23,0 -31,4 -45,4 -37,1 -16,-6 -101,1l-106 0c-23,0 -3,-13 -37,-9 -19,2 -25,8 -47,9 -44,3 -70,-5 -106,-6l-500 -5c-42,-2 -51,-17 -152,-17l-207 11c-52,5 -267,20 -321,16 -21,-2 -14,-9 -18,-35 -13,-90 14,-44 96,-56 72,-11 158,-3 232,-3 36,0 47,6 84,6 65,-1 112,-6 180,-6l387 0c48,0 80,6 123,6l455 0c34,0 42,7 44,-23 -164,0 -329,5 -494,0 -28,-1 -34,-6 -67,-6l-353 1c-33,0 -38,-5 -67,-6 -50,-2 -87,5 -141,5 -83,0 -151,-5 -230,-5 -79,0 -150,5 -235,5 -38,0 -22,-32 -34,-56zm1902 -134l1 1c0,0 -2,-1 -1,-1zm-62 0c-2,-11 7,-20 3,-4 0,1 1,23 -3,4zm-757 -17l0 -6c36,0 40,0 70,-7l216 -32c11,3 24,57 191,23 78,-16 9,-4 95,0 42,2 55,16 106,16l-370 0c-109,0 -199,6 -308,6zm1015 -67c37,-55 23,-30 56,-45 12,18 9,4 11,28 32,-3 23,-6 34,-28 17,8 30,0 50,39l-151 6zm196 45c3,-40 12,-76 -29,-94l-12 -5c-2,-1 -3,-1 -4,-2 -17,-7 -35,-10 -45,-23 55,0 106,1 153,-5 53,-6 91,11 145,11 60,0 124,6 184,-1 17,-2 21,-6 45,-5 25,1 21,4 46,6l157 0c37,0 58,6 101,5l201 6c73,4 134,-6 208,-6 82,0 146,12 230,12l681 -3c76,9 497,-3 615,-3 58,0 100,6 162,6 54,0 109,0 163,0 27,0 59,-2 84,-1l20 3c2,1 3,1 5,2 28,9 15,-4 37,-4l555 0c31,0 90,45 113,66l7 5c0,0 2,2 3,2l68 56c27,23 56,31 56,72 51,-1 6,-23 78,40l-488 0c-66,0 -122,-13 -185,-12 -53,1 -31,22 -78,23l0 -17c-155,0 -311,0 -466,0 -41,0 -62,-8 -106,-6 -36,3 -68,6 -113,6 -46,0 -70,-6 -112,-6 -107,1 -312,-8 -405,5l-610 -10c-23,0 -32,14 -62,17l0 -17c-66,0 -184,-7 -244,2 -72,11 -170,4 -240,13 -70,10 -400,2 -497,2l-870 5c-31,0 -30,2 -55,7 -24,6 -23,-1 -57,-1 0,30 0,8 -5,17 -7,-25 -23,-19 -57,-22 -80,-7 -162,-3 -238,-14 -43,-7 -113,-5 -154,-9l-241 5c-30,1 -43,6 -79,6 -62,0 -103,-6 -162,-5l-455 -6c-91,0 -161,6 -252,6 12,-11 30,-12 45,-17l285 -91c39,-12 87,-21 148,-42l193 -66c18,-6 84,-31 97,-31l500 0c24,0 16,33 16,50 0,31 -54,20 -86,26 -82,13 -171,21 -254,38 -42,8 -41,4 -41,43 0,49 47,39 95,39l129 6c82,2 192,-8 269,0 77,9 177,5 264,5 82,1 36,-10 110,2 70,11 158,-29 82,-59 -26,-11 -50,-11 -87,-25l-8 -4c-1,0 -2,-1 -3,-2 -1,0 -11,-5 -12,-5 -48,-19 -138,-28 -190,-34 -63,-7 -49,-1 -49,-63 0,-26 35,-17 62,-17 74,0 141,-20 221,-8 49,7 103,-4 153,4 9,1 19,5 35,4l22 -6c1,-1 2,-1 3,-1l45 -1c27,8 2,-1 14,8 -8,2 -11,2 -18,4 -18,6 -7,2 -19,9 -12,8 -20,11 -27,23 -17,26 -18,56 9,69 14,7 175,13 201,13zm1139 -152c0,-14 9,-1 3,0 0,0 -3,16 -3,0zm-28 -11l1 2c0,-1 -2,-2 -1,-2zm33 -6c0,-14 9,-1 4,0 0,0 -4,16 -4,0zm12 -22c0,-5 10,-26 7,-5 0,0 -1,2 -2,2 0,0 -7,21 -5,3zm-29 -10c-1,-3 3,-3 7,-6l14 -15c0,0 1,-2 2,-3 -4,16 -7,19 -17,28l-6 -4zm786 49l22 0 0 17c-35,8 -32,8 -67,0 0,-56 9,-29 38,-97 3,-9 3,-9 7,-15l11 -17c2,23 13,21 0,72 -5,21 -9,18 -11,40zm-741 11c7,-13 3,-8 5,-17 5,-16 52,-76 57,-101 -25,-33 -26,6 -18,-56 4,-28 0,-61 1,-89 3,-51 14,-105 23,-151 6,-27 3,-47 7,-78 6,-49 18,-145 35,-189 11,-31 14,-21 14,-53l-28 0c-2,21 -14,43 -20,70 -7,32 -13,35 -14,75l-19 166c-21,134 -25,104 -25,250 -1,16 -2,30 -5,40 -10,24 -11,7 -18,32 -9,-9 -8,-7 -11,-22l-23 0 -39 73c0,-25 8,-44 13,-71l93 -687c6,-24 14,-46 36,-60 63,-39 229,-23 297,-39 102,-24 259,-13 369,-13 78,0 131,70 160,132 24,53 25,104 36,160 13,60 6,128 14,188 19,132 -1,259 8,362 2,25 0,58 0,84 -50,12 -110,6 -162,6 -2,-76 -16,-43 26,-120 11,-21 19,-49 41,-54 0,29 -3,43 -7,72 -9,65 7,23 7,96l28 0c0,-32 -8,-50 3,-75l37 -76c8,-20 10,-15 10,-45l-16 0c-4,12 -12,26 -18,38l-15 30c-4,7 -3,6 -7,10 0,-63 -1,-111 -6,-168 -4,-56 -12,-191 -25,-244 -14,-56 -27,-119 -52,-172 -8,-16 -10,-10 -12,-33l-28 0c1,38 59,140 30,182 0,0 -15,18 -18,21l-18 21c0,-23 -4,-69 -11,-84 27,-7 33,-18 34,-50 -22,2 -25,8 -33,23l-26 35c-8,8 -7,6 -15,14l-9 13c-8,13 -16,29 -29,38 -6,-22 -2,-16 -28,-17 3,40 9,53 -15,87l-80 127c-36,67 7,36 -47,127 -30,51 -57,103 -76,160 -9,27 -8,10 -1,38l17 0c3,-40 26,-81 45,-117l58 -105c38,-73 -26,-1 55,-135l49 -75c0,94 5,95 -38,158l-6 11c-1,1 -2,2 -3,3 -5,8 -11,19 -14,25 -34,64 -107,163 -107,229l17 0c2,-21 10,-35 20,-52l29 -50c7,-14 12,-21 21,-36l36 -69c17,-30 6,-6 25,-26 10,-10 12,-24 20,-36 0,54 -23,82 -44,124 -10,20 -17,36 -27,57 -16,32 -19,23 -19,71l17 0c1,-22 5,-22 13,-38 15,-28 30,-78 55,-96l0 33 16 0c1,-26 10,-43 20,-64 1,-1 3,-6 4,-7l33 -46c0,15 -2,25 -5,34 -5,13 -3,7 -5,12l-43 80c-7,13 -4,7 -10,13 -17,18 -17,26 -27,51 -7,16 -10,12 -11,34 24,-2 24,-4 34,-22l38 -74c5,-10 3,-7 9,-19 11,-23 -8,-11 14,-20 6,-18 -1,-7 22,-5 0,-29 2,-41 15,-64 8,-12 2,-6 13,-15 2,57 18,47 -22,107 -1,1 -2,3 -2,3 -13,19 4,11 -26,8 -1,41 -19,83 -23,124 -36,0 -70,-9 -72,-9 -25,0 3,9 -23,9l-325 0c-31,0 -33,-6 -62,-6 8,-15 14,-30 22,-46 18,-36 65,-95 68,-134 -35,3 -49,46 -64,71 0,2 -1,3 -2,4 -15,27 -45,82 -52,111 -31,0 -39,-4 -62,-6 11,-46 41,-82 65,-121 2,-4 4,-7 6,-11l11 -22c8,-16 6,-5 8,-26l-28 0c-3,33 2,4 -7,21l-73 124c-6,14 -4,11 -4,29l-39 0c3,-16 9,-23 15,-34 18,-33 54,-68 58,-106 -38,0 -36,14 -51,39 -6,9 -8,10 -14,20l-30 65c-15,25 2,9 -18,16zm2508 -89c0,-2 21,-10 6,-1 0,0 -12,16 -6,1zm-4583 -57c0,-96 -1,-55 10,-141 6,-42 17,-62 30,-93 11,-26 1,-18 22,-68 9,-20 1,-17 22,-23 7,28 52,77 51,185 -1,74 17,157 17,269 0,41 -6,57 -6,96 -55,13 -59,17 -135,17 -6,-26 0,-168 0,-214 0,-19 -11,-8 -11,-28zm-95 17c11,-22 14,-18 37,-36 36,-28 36,-25 36,19 0,27 -45,17 -73,17zm4162 141c3,-47 66,-64 67,-113 -25,2 -31,13 -42,31 -18,28 -50,42 -53,82 -23,-2 -14,-6 -29,-6 -25,0 -41,23 -45,-17 -6,-57 16,-11 17,-62l-22 0c0,-32 -3,-67 2,-99l20 -366 718 39c47,0 66,-11 113,-11l179 0c23,0 22,22 22,39l34 -5 6 768c0,32 -6,50 -6,73 0,43 18,117 0,162 -8,20 -5,14 -22,23 0,-36 -7,-56 -6,-84 3,-78 27,-141 -46,-195 -24,-17 -56,-40 -72,-63l75 -66c30,-21 70,-33 71,-74 -37,3 -129,96 -168,123 -20,-14 -49,-31 -62,-50l25 -26c5,-5 6,-6 11,-11l68 -56c1,-1 2,-2 3,-3l7 -4c28,-18 43,-17 43,-52 -26,1 -41,14 -61,29l-88 74c-11,11 -21,22 -25,37 -15,-4 -45,-20 -45,-39 0,-14 12,-19 28,-34 1,-1 2,-2 3,-3l18 -16c13,-9 62,-28 42,-48 -9,-9 -19,1 -30,10 -17,14 -26,13 -41,26 -19,16 -34,27 -36,54 -39,-11 5,-13 -34,-17 9,-34 42,-31 45,-67 -32,0 -54,14 -62,45l-17 0c-17,-44 -91,-28 -129,-28 18,-65 119,-89 124,-152 -44,-10 -71,14 -105,36 -15,9 -22,9 -24,31 24,0 17,-3 39,-5l-53 59c-23,39 -38,23 -78,28 -27,3 -49,3 -77,3 5,-58 143,-146 158,-175 5,-9 7,13 3,-11 -6,-39 -74,41 -88,51 -26,20 -42,33 -62,61 -80,107 -47,74 -313,74zm-1212 -118c-2,-21 -15,-39 5,-74l10 -18c19,-40 14,-16 36,-59l4 -8c7,-12 1,-3 7,-10 13,59 5,54 -43,137l-19 32zm-2945 -68c1,-30 39,-49 62,-61 -5,17 -14,24 -27,34 -12,10 -24,20 -35,27zm2883 -73c3,-27 11,-25 17,-50 12,9 11,7 4,25 -8,20 -6,15 -21,25zm-56 51l-11 0c14,-58 -15,-80 14,-138 0,-1 5,-9 6,-10l7 -10c5,-12 6,-13 7,-27l17 0c0,34 5,80 -8,104 -16,30 -31,37 -32,81zm-2776 -168c-26,2 -33,15 -47,31 -58,68 -28,42 -31,68 -2,17 -17,12 -17,47 33,-3 38,-27 61,-45 20,-16 41,-43 62,-51 -13,54 -34,56 -103,111 -15,12 -1,7 -20,13l0 28 33 0c-28,24 -43,38 -100,33 -153,-14 -247,-11 -405,-11 -18,-217 -22,-366 -22,-589 0,-37 0,-75 0,-112l10 -220c3,-20 2,-31 11,-45 36,-53 184,-33 254,-38 169,-14 354,-11 527,-11 60,0 103,11 157,11l335 7c45,6 100,-7 142,21 0,151 17,280 17,426 0,72 -12,125 -12,197 0,73 12,123 12,196 0,40 3,85 -6,123 -126,0 -229,17 -370,17l94 -57c37,-19 105,-52 131,-82 8,-8 1,6 7,-10 5,-11 3,-11 3,-25 -14,2 -25,10 -27,12l-24 21c-41,29 -89,50 -132,76 -8,5 -8,5 -13,9l-65 42c-46,38 -80,21 -142,26 -28,2 -48,5 -85,5 0,-43 -5,-63 -5,-101 -9,-55 -46,-375 -158,-247 -11,12 -16,24 -33,28l0 17 23 0c-48,32 -1,11 -56,11 1,47 11,4 7,32 -2,9 -11,10 -13,36 35,-1 31,-17 56,-34l-8 20c-10,16 -25,27 -40,38 -21,17 -32,42 -59,49l38 -36c13,-13 13,-15 13,-37zm2844 -62c1,43 20,85 -12,107 0,-60 -10,-91 12,-107zm-2822 11l2 2c0,0 -2,-1 -2,-2zm2889 -118c15,11 12,18 16,40l23 185c0,28 -18,29 -34,50 -28,36 -11,34 -33,51 0,-32 -9,-45 -4,-60 9,-22 -1,-7 15,-13l0 -34 -17 0c1,-24 4,-23 8,-31 1,-1 2,-2 3,-3l4 -7c11,-15 36,-40 27,-58 -14,-26 -38,19 -42,37 -19,-14 -17,-73 -9,-87 24,-44 40,-42 43,-70zm-140 157c0,-29 -1,-62 4,-84 6,-23 19,-45 35,-56 2,21 2,21 22,23 0,-3 0,-9 1,-11 3,-10 2,-6 5,-12l0 40 -28 0c0,23 -2,39 -9,58 -7,21 -18,29 -30,42zm56 -168c0,-14 9,-1 3,0 0,0 -3,16 -3,0zm1329 -33c-5,-22 -11,-25 -9,-49 2,-17 6,-39 9,-52 54,0 94,-13 175,-2l458 18c130,-15 135,-9 123,72 -7,50 -35,33 -78,30 -110,-10 -370,10 -457,-3l-221 -14zm1195 -107c0,-150 -17,-163 50,-163 32,0 22,104 22,141 1,150 52,157 -55,157 -4,-45 -17,-87 -17,-135zm-264 -95c0,-36 2,-58 5,-85 7,-62 -22,-93 68,-72l0 224c8,84 -17,126 17,135 20,-15 13,-79 11,-107l-6 -180c1,-31 6,-35 6,-67 1,-19 -3,-82 6,-100 13,-25 -11,-6 45,-6l5 235c1,27 5,26 6,51l5 179c0,28 -29,23 -50,23 -20,0 -11,-10 -28,-23 -34,9 -8,27 -73,11 -8,-35 -5,-69 -5,-112 -1,-42 -12,-69 -12,-106zm387 -73c34,0 33,-10 39,67 5,58 -4,83 7,173 5,44 13,57 -40,57 -27,0 -22,-41 -23,-67 -2,-54 -30,-230 17,-230zm135 291l-56 0c-1,-30 -17,-101 -17,-173l0 -118c56,0 51,-6 84,17l-11 274zm-258 -325c19,10 10,1 22,17 -33,-3 -12,2 -22,-17zm291 -50c18,-9 26,-12 51,-12 29,0 28,58 28,84 0,38 0,75 0,113 0,35 7,80 4,105 -11,79 13,85 -60,85 -33,0 -23,-52 -22,-84 0,-88 -20,-75 8,-194 12,-53 -9,-15 -9,-97zm-241 50l2 2c0,0 -2,-1 -2,-2zm-22 -17c9,-11 0,-7 17,11 -9,12 -4,7 -10,-1 -4,-6 -7,-10 -7,-10zm56 -45c-16,-16 16,17 0,0zm-774 23l0 -23 33 0c-15,24 -9,11 -33,23zm662 179c0,143 43,197 -17,197 -26,0 -23,-25 -23,-51l-10 -141c-10,-70 -6,-138 -6,-212 0,-29 58,-17 58,-17 17,10 -2,202 -2,224zm218 -241c11,3 6,2 12,6l29 26c21,17 30,22 32,52l-58 -65c0,-1 -1,-3 -2,-3 -1,-1 -2,-3 -2,-4l-11 -12zm-190 -62l28 28c3,3 7,9 10,13l-16 -7c-14,-16 -17,-15 -22,-34zm364 62l0 11 -39 0c13,-25 -3,-11 39,-11zm-314 -56c15,11 23,32 43,53l53 53c27,28 65,49 56,57 -10,11 -38,-10 -48,-20l-71 -92c-9,-14 -28,-34 -33,-51zm-45 56c18,5 6,1 18,11l6 5c33,34 -1,10 64,70 21,19 10,15 47,15l0 11c-21,0 -52,-5 -64,-19 -11,-13 -6,7 -9,-20l-17 0c-3,-32 -11,-8 -45,-73zm170 -18l3 -5 11 13 -3 5 -11 -13zm419 -16c2,18 6,20 6,40l0 235c0,73 -6,125 -6,197 -111,0 -62,-44 -73,-247l-5 -152c0,-89 -30,-73 78,-73zm-392 -11c10,-12 0,-6 36,32l5 5c1,2 8,9 8,9 7,10 7,11 12,22 -13,-5 -8,-4 -16,-12 -15,-17 -28,-43 -45,-56zm185 6c13,-3 77,-8 93,7 8,8 13,88 13,105 2,35 -3,78 1,111l-1 242 -84 0c-13,-19 -17,-8 -17,-39 0,-40 9,-70 4,-104l-9 -216c1,-21 5,-27 6,-50 0,-29 -6,-31 -6,-56zm-146 -11c16,4 28,20 41,31l26 25c-42,-1 -27,-18 -67,-56zm-90 0c21,2 17,-4 23,22 -8,-8 -15,-15 -23,-22zm152 11l1 2c0,-1 -2,-2 -1,-2zm-510 -7l4 -5 11 13 -4 5 -11 -13zm498 -4l2 1c0,0 -2,-1 -2,-1zm-190 0c35,8 38,39 73,78l-22 -12c-1,0 -7,-7 -8,-9l-13 -15c0,-1 -2,-2 -2,-3 -2,-2 -4,-4 -8,-9 -13,-15 -12,-14 -20,-30zm-909 -219l101 0 -5 241c1,48 4,43 -29,42 -121,-6 -67,72 -67,-283zm841 118c0,-80 -11,-487 12,-533 43,0 89,11 134,11 18,77 11,428 11,522 0,32 -48,22 -101,22 -22,0 -56,-1 -56,-22zm-1060 -118l23 6c-3,0 -9,0 -11,-1 -10,-3 -6,-2 -12,-5zm253 -34l45 0 0 6 -45 0 0 -6zm-62 -39l0 28 -34 0c3,-34 7,-15 34,-28zm-163 34l0 -6c32,0 66,-11 96,-11l0 11c-40,0 -62,6 -96,6zm-95 -12l37 -13c19,-4 32,-3 53,-3l0 5c-21,0 -29,-1 -48,3 -18,4 -22,8 -42,8zm303 0l-17 0c1,-32 9,-31 39,-33 25,-2 43,-9 62,0 -3,31 -23,33 -84,33zm-208 -22l28 0 0 6 -28 0 0 -6zm34 -6c6,-6 21,9 6,3 0,0 -15,7 -6,-3zm39 -5l0 0zm84 -23c-19,-14 -10,-4 -3,-30 5,-16 5,-28 15,-43 0,22 -5,59 -12,73zm673 -84c0,89 20,264 6,326 -18,0 -38,0 -56,0 -40,-1 -18,-4 -45,-12l0 -84c17,18 8,-3 17,23 50,0 50,-1 50,-40 0,-36 -15,-33 -50,-33 -4,16 -7,17 -17,28 0,-36 -6,-47 -6,-84l0 -331c0,-31 40,-23 79,-23 37,0 20,72 23,107 4,51 -1,68 -1,123zm382 -213l179 0c18,75 12,255 6,326 -6,71 9,156 -6,218l-174 0 -5 -134c0,-47 0,-94 0,-141 0,-51 -2,-92 -5,-135 -2,-22 -1,-43 2,-63 4,-24 3,-47 3,-71zm224 0l129 0c1,29 6,42 6,107 0,46 5,68 5,112l17 0c0,50 6,78 6,129l0 174c0,19 -4,21 -6,39 -20,-1 -72,-7 -91,-10 -100,-13 -82,38 -83,-198 0,-72 12,-167 6,-246 -2,-20 -22,-107 11,-107zm-561 -17l129 6c20,86 0,425 0,544 -54,12 -51,11 -106,11 -60,0 -22,-61 -37,-159l-12 -136c6,-62 1,-229 3,-239 3,-16 6,-27 23,-27zm802 -78c1,-1 2,1 2,1l-2 -1zm-5 -11c0,-15 9,-1 3,0 0,0 -3,15 -3,0zm-56 -359l5 0c0,26 4,23 6,44 -18,-12 -11,-15 -11,-44zm5 -107l-2 33c0,-5 2,-19 2,-33zm-920 1223l1 174c0,36 -6,50 -6,89 0,68 5,120 5,191 -137,0 -125,10 -116,-37 17,-89 0,-130 6,-175 3,-25 8,-85 9,-113 3,-45 6,-76 6,-124 0,-46 6,-70 6,-117 -1,-68 7,-269 1,-311l10 -951c-1,-47 -7,-79 90,-57 7,83 3,280 -12,348 -9,40 3,36 1,79l-6 185c0,39 -6,56 -6,89l6 461c0,45 12,124 5,184 -5,41 0,41 0,85zm976 -1324l2 2c0,0 -2,-1 -2,-2zm-1935 415l17 0c-2,-26 -3,-11 -1,-35 5,-45 12,-75 12,-122l0 -241c28,0 68,-7 92,-10l733 10 -8 126c-20,130 18,610 -17,819 -7,43 -3,93 -3,137l17 0 0 -123c16,19 5,43 5,67 0,29 2,60 -2,88 -8,55 -2,118 -3,176l-10 164c-8,46 -13,116 -13,167 -57,0 -93,5 -151,5 -41,0 -56,-5 -96,-5 0,-179 -36,-185 42,-222l34 -17c9,-3 34,-7 42,-8 0,48 -17,153 34,157 0,-29 -6,-47 -6,-84 0,-32 0,-64 0,-95 -24,-6 -40,-5 -62,-1 -24,5 -53,3 -73,-4 -30,-11 -11,-4 -11,-23l0 -230c0,-27 -7,-39 45,-40 36,-1 76,15 79,-22l-62 -12 43 -7c9,-1 20,-4 36,-4l0 -28 -96 0 0 17 -45 0 0 -22c36,-10 28,-12 73,-11 38,0 51,-6 84,-6 -2,-28 -23,-28 -78,-28 -103,0 -79,49 -79,-219 0,-50 10,-75 0,-118l-16 0 -6 331c-4,19 -12,21 -33,23 -18,1 -43,0 -62,0 32,-31 84,-216 84,-247l-17 0c-7,25 -11,12 -18,50 -4,24 -10,31 -17,55 -9,31 -19,69 -36,99 0,1 -1,2 -2,3 0,-94 16,-137 38,-220 8,-32 2,-36 14,-58 12,-21 15,-33 15,-64l-25 19c-11,39 -4,37 -22,75l-12 26c-1,1 -2,3 -2,4 0,-35 6,-49 4,-78 0,-1 -1,-13 -1,-14 0,-18 5,-8 8,-32 0,-5 0,-16 0,-22 0,-88 13,-110 17,-157 38,-4 -7,-11 45,-11l0 -17 33 -6c1,39 11,11 11,56 28,-2 8,-2 30,-9 13,-5 19,-6 32,-8l0 -16 -28 -6c41,0 78,-9 112,-17l0 -17c-16,0 -85,-6 -95,-11 0,-1 0,-3 0,-3 0,0 0,-24 -7,-40l-5 -15c0,-8 6,-15 6,-43l-28 0c0,46 -16,69 -17,107l-72 5c-30,0 -13,-76 -9,-98 6,-47 9,-66 9,-120l-17 0 -28 218 -174 6c-45,2 -84,-2 -130,5 -21,3 -20,1 -22,23 115,0 208,-17 320,-17 -8,29 -42,23 -67,23 4,48 30,4 67,22 -6,15 12,11 -22,11l0 17c27,10 -5,2 22,11 0,27 -4,77 -8,105 -13,85 6,175 -20,260 -5,17 -8,25 -14,42l-16 41c-6,18 -3,23 -12,43 -9,18 -10,20 -30,26 -43,12 -134,8 -199,26 -22,6 -24,5 -26,29l28 6c-22,0 -73,-4 -73,28 0,32 101,12 123,23 -13,17 -15,11 -45,11l0 17c65,0 115,-17 180,-17 -1,23 -66,204 -67,224 12,3 12,4 28,6 5,-23 12,-38 20,-64l39 -129c10,-24 16,-48 47,-48 13,0 17,3 17,16l0 253c0,21 -37,27 -58,31 -62,11 -172,64 -222,64 -27,0 -18,-11 -57,-11l0 28c75,6 77,7 147,-16 23,-7 14,-6 32,-13l69 -21c31,-8 58,-17 89,-17l0 39 17 0 0 -45c44,-10 59,-11 106,-11 0,55 -12,42 -43,63 -2,1 -11,10 -15,13 -21,19 -36,12 -37,47l34 -6 0 -16c24,-2 24,-13 44,-17 32,-9 8,86 29,174 -36,0 -71,0 -107,0 -101,0 -209,-21 -308,-11l-79 6c-13,-31 -7,-48 -8,-73l-8 -439c0,-38 7,-43 -29,-44 0,221 11,435 11,656 0,36 -78,23 -101,23 0,-54 7,-90 6,-146 0,-32 -6,-39 -6,-73 0,-26 0,-52 0,-79 0,-66 9,-261 -3,-311 -9,-40 -3,-75 -9,-131 -8,-79 -7,-218 -10,-304 -1,-29 -6,-38 -6,-72 1,-147 0,-305 11,-444 7,-83 -5,-182 19,-262 6,-20 42,-29 66,-29 23,0 11,92 11,117l-6 393zm28 -505c61,-14 543,-11 623,-11 64,0 138,-15 202,0 0,28 5,48 5,84 -60,14 -712,6 -830,6 0,-31 12,-53 0,-79zm1806 382l0 174c0,34 -5,53 -5,78 -2,71 54,84 -135,84 -34,0 -53,-2 -79,-5 -34,-4 -52,5 -83,5l-539 0c-20,-86 9,-264 12,-347 1,-42 -4,-89 0,-129 4,-52 11,-72 11,-135 0,-51 -12,-84 -12,-129l629 -23c74,0 135,12 201,17 -9,21 0,355 0,410z"></path> <g> <path class="fil2" d="M1217 1498c9,32 35,8 67,5l-33 34c-10,10 -23,23 -28,39l-11 0c-6,-20 -1,-15 -23,-17 -30,64 -9,178 -6,247 2,27 -1,57 1,84 7,87 2,293 9,327 6,29 13,44 13,77 37,-3 27,-20 19,-47 -9,-34 -5,-45 -9,-81 -5,-54 1,-121 1,-186 0,-29 -12,18 -11,-79 1,-108 -29,-56 31,-120 20,-23 34,-12 36,-42 29,-1 23,-4 42,-20 41,-35 95,-53 98,-92 -32,0 -18,-4 -34,10l-116 91c-9,6 -6,2 -16,12 -14,15 -2,11 -22,25 -12,8 -25,12 -25,-9 0,-13 12,-36 25,-49 0,-1 2,-2 2,-3 24,-23 74,-62 74,-94l-27 12c-22,15 -21,19 -35,37l-8 9c-16,14 -14,7 -31,26 0,-22 -2,-41 4,-59l25 -41c1,-1 2,-2 3,-3l25 -26c1,0 2,-2 3,-2l16 -12c10,-8 3,-2 12,-11 9,-10 2,-3 10,-12 22,-28 19,-26 65,-25 58,1 111,-12 167,-4 84,12 629,1 792,4 46,1 38,16 73,17l0 -28c-54,-5 -11,-11 -140,-11l-455 0c-95,0 -367,-12 -448,-6l-109 9c-28,6 -13,-5 -26,14zm124 61l-17 0c-8,29 -19,4 -23,51 33,-3 40,-15 40,-51z"></path> <path class="fil2" d="M2541 2058c0,23 -1,46 0,68 0,37 12,73 3,127 -7,42 -9,31 -9,80l28 0c0,-46 6,-70 6,-118 0,-49 -6,-76 -6,-123 0,-43 1,-86 0,-129 0,-67 -21,-119 -7,-220 5,-38 -2,-55 -4,-83l-17 0c0,165 -5,192 9,350 2,21 -3,24 -3,48z"></path> <path class="fil2" d="M1963 2361l45 0 0 -28c-30,0 -8,0 -17,-5 16,-5 7,-1 23,-16l231 -157c20,-11 21,-11 21,-40 -24,2 -110,63 -141,83l-151 113c-7,8 -22,4 -11,50z"></path> <path class="fil2" d="M2053 2395c0,20 11,17 33,17 0,-28 -19,-23 50,-68l193 -116c22,-13 37,-17 38,-52 -34,1 -24,4 -42,20 -13,11 -27,18 -41,26l-106 63c-35,20 -125,67 -125,110z"></path> <path class="fil2" d="M1357 1997l0 17 -22 0c2,20 5,31 34,12 26,-17 7,-16 40,-34l57 -38c43,-40 73,-33 76,-75 -26,1 -12,-1 -26,7l-32 24c-1,2 -12,11 -12,11l-44 29c-44,32 -43,44 -71,47z"></path> <path class="fil2" d="M1537 2109l0 17 -23 0 0 17 126 -77c1,-1 2,-2 3,-2l49 -35c16,-13 17,-11 19,-32 -35,1 -14,1 -26,8l-124 89c-21,22 8,11 -24,15zm-67 67c31,0 42,-13 44,-33 -31,0 -42,2 -44,33z"></path> <path class="fil2" d="M1357 1896c35,-3 47,-20 80,-44l53 -43c13,-13 13,-1 13,-37 -33,1 -42,28 -99,70 -4,3 -5,3 -9,7 -5,3 -7,5 -10,7 -35,26 -27,16 -28,40z"></path> <path class="fil2" d="M1453 2042l22 0 0 -17c50,0 26,-14 61,-34 1,-1 12,-5 16,-8 13,-7 16,-7 18,-26 33,0 54,-14 57,-44l-58 32c-1,1 -2,2 -3,3l-28 16c-1,1 -2,2 -3,3l-67 50c-17,14 -13,-3 -15,25zm-40 33c28,0 38,-8 40,-33 -28,0 -37,8 -40,33z"></path> <path class="fil2" d="M1352 1778c15,-1 6,1 19,-3 15,-6 24,-14 31,-26 8,-13 4,0 6,-21 -31,2 -54,18 -56,50zm-45 34c13,-1 14,-2 23,-5 27,-11 -5,-2 22,-12l0 -17c-31,0 -43,6 -45,34zm-56 50c23,-2 21,-4 38,-18l11 -11c9,-13 5,1 7,-21 -30,0 -54,18 -56,50z"></path> <path class="fil2" d="M2277 1548l124 0c17,0 15,-7 16,-22l-157 0c2,15 0,22 17,22z"></path> <path class="fil2" d="M1688 2159c29,0 11,4 44,-18l47 -37c1,-1 2,-2 2,-3l8 -20c-20,0 -23,4 -34,11l-53 37c-12,11 -12,10 -14,30z"></path> <path class="fil2" d="M2058 2148l0 17c27,-1 36,-8 61,-24 1,0 2,-1 3,-2 1,-1 3,-2 4,-2 1,-1 2,-2 3,-3 5,-3 11,-6 14,-8 14,-10 15,-6 16,-28 -26,0 -22,3 -38,12l-63 38z"></path> <path class="fil2" d="M1301 2176c27,-2 8,1 22,-6 0,0 15,-10 16,-12 14,-12 18,-19 18,-43 -23,2 -55,28 -56,61zm-28 28c25,-2 28,-1 28,-28 -24,2 -27,2 -28,28z"></path> <path class="fil2" d="M1223 2025l17 0c5,-21 13,-24 14,-25 22,-25 30,-12 30,-48 -24,2 -4,-6 -42,24 -17,14 -19,21 -19,49z"></path> <path class="fil2" d="M1537 2244l0 16 50 -16 0 -17c29,-3 8,-5 34,-12l0 -16c-13,0 -14,-2 -25,2l-33 24c-1,0 -2,2 -3,3 -18,19 6,12 -23,16z"></path> <path class="fil2" d="M1268 2092c26,0 31,-2 33,-28 21,-2 21,-2 23,-22 -22,1 -18,3 -26,8l-6 5c-21,16 -22,10 -24,37zm-28 6l0 17 28 0 0 -23c-16,1 -16,3 -28,6z"></path> <path class="fil2" d="M1290 1946c26,0 25,2 48,-19 3,-2 13,5 14,-31 -28,0 -60,22 -62,50z"></path> <path class="fil2" d="M1357 2232l0 28c21,-1 54,-21 56,-50 -55,1 -14,19 -56,22z"></path> <path class="fil2" d="M1627 2199c29,-3 48,-10 50,-40 -32,3 -50,12 -50,40z"></path> <path class="fil2" d="M1425 2210c29,-1 33,-4 33,-34 -26,2 -33,5 -33,34z"></path> <path class="fil2" d="M1374 2109c29,-1 32,-7 34,-34 -27,3 -33,5 -34,34z"></path> <path class="fil2" d="M1296 2283l0 28 22 0 7 -34c-12,1 -21,3 -29,6z"></path> <path class="fil2" d="M1223 1901c23,-2 26,-4 28,-28l-28 0 0 28z"></path> <path class="fil2" d="M1329 2277l23 0 0 -22c-20,1 -23,1 -23,22z"></path> <polygon class="fil2" points="1509,2283 1526,2283 1526,2266 1509,2266 "></polygon> </g> <g> <path class="fil1" d="M3017 32c0,0 248,-56 384,72 0,0 172,95 179,356 0,0 32,149 -95,318 0,0 -77,166 -423,120 0,0 -311,-92 -343,-328 0,0 -41,-239 73,-387l112 -85 80 -36 33 -30z"></path> <path class="fil2" d="M3466 808c16,14 -29,20 -33,61 20,0 25,-1 37,-13l8 -9c41,-53 18,-62 66,-152l42 -99c19,-62 20,-124 20,-187 0,-23 -17,-1 -30,-81 -4,-26 -3,-24 -13,-43 -1,-2 -3,-6 -4,-8 -45,-87 -32,-82 -95,-146 -46,-46 -94,-74 -155,-97 -49,-19 -161,-34 -219,-34 -36,0 -59,7 -90,11 -66,8 -47,35 -89,62l-90 62c-26,20 -48,38 -66,68l-18 33c-45,111 -48,225 -33,347 5,42 58,139 86,172 1,1 4,4 5,6l49 46c10,9 18,12 30,21 77,53 152,86 250,86 87,0 191,5 250,-30 5,-3 49,-31 79,-62 1,-1 4,-4 5,-6 0,0 8,-8 8,-8zm-600 -45c31,20 29,33 37,42 10,12 8,7 25,14l62 22c66,26 192,34 258,12 56,-18 89,-12 143,-53l28 -23c13,-11 21,-18 31,-30l50 -74c4,19 6,23 -2,43 -12,33 -93,117 -139,142 -78,42 -156,28 -263,28 -51,0 -150,-42 -195,-74 -49,-36 -37,-23 -35,-49zm606 33l2 2c-1,0 -3,-1 -2,-2zm-354 0l73 0 0 6 -73 0 0 -6zm-286 -84c12,14 18,19 23,40 -30,-3 -23,-7 -23,-40zm606 0c10,8 -2,13 -24,32 -7,7 -9,8 -15,13 -6,4 -4,3 -9,8l-43 30c-30,17 -61,16 -91,26 -17,6 -30,12 -48,14l-106 1c-28,-1 -26,0 -49,-8 -96,-32 -8,2 -83,-35 -29,-14 -53,-24 -74,-49l-51 -66c-11,-16 -13,-24 -13,-44 -19,-2 -17,-4 -25,-20l-25 -109c0,-67 5,-143 31,-205 14,-32 28,-54 50,-79l17 -17c0,-1 2,-2 2,-3l37 -36c1,-1 2,-2 3,-3 52,-46 145,-113 215,-79 21,10 185,74 206,74 -1,-25 -1,-27 -42,-42 -14,-5 -15,-5 -29,-10 -93,-39 -113,-60 -198,-60 -29,0 -30,9 -56,11 56,-39 178,-27 231,-1 17,9 33,13 50,23 47,30 31,4 90,49l18 17c1,0 2,2 3,2 12,10 9,9 28,11 2,26 -2,9 12,27l53 59c8,9 3,2 10,13 25,38 34,77 45,129 6,33 1,87 4,125 2,26 6,46 -1,73 -6,25 -22,77 -39,96 0,-119 34,-85 34,-180 0,-53 -17,-191 -48,-232l-38 -46c-5,-4 -5,-5 -9,-8l-113 -67 0 17c28,3 8,0 30,20l61 47c46,40 65,78 74,139 2,14 8,28 9,46 -5,-7 -3,6 -5,-17l-28 0c0,57 1,124 8,178 6,47 -25,55 -48,85 -11,14 -7,18 -28,23 15,-13 9,-9 17,-28 5,-14 11,-24 14,-36 7,-25 7,-57 11,-85 5,-29 0,-53 -4,-85 -4,-35 5,-60 -32,-63 -8,16 -11,64 -11,90l22 0c0,107 -9,180 -87,255 -24,22 -46,31 -80,37 -94,17 -131,11 -231,11 2,28 -4,7 8,20 3,4 18,11 21,12 45,14 139,10 180,-3 13,-4 21,-8 34,-11 37,-9 67,-30 100,-45 19,-9 47,-26 55,-41zm-656 -16l2 1c0,0 -3,-1 -2,-1zm740 -264l6 0 0 34 -6 0 0 -34zm-768 17c0,147 26,138 45,218l-17 0 0 17c-12,-9 -7,-5 -16,-23 -1,-1 -2,-2 -2,-3 -8,-16 -21,-29 -21,-47 0,-23 14,0 -3,-35 -12,-25 -23,-98 -22,-124 6,-89 24,-114 47,-177 23,-64 71,-111 125,-150 57,-42 22,-17 71,-41 -6,24 -15,22 -32,35l-51 44c-1,1 -2,2 -3,3 -1,1 -2,2 -3,3l-18 20c-39,47 -61,74 -79,135l-21 125zm207 -376l2 2c0,-1 -2,-2 -2,-2zm12 -6l1 2c0,0 -2,-1 -1,-2zm11 -5l2 1c-1,0 -3,-1 -2,-1zm11 -6c7,-6 32,9 7,2 -1,0 -17,8 -7,-2z"></path> <path class="fil2" d="M3118 482c0,62 41,51 77,21l41 -32c80,-52 90,-20 90,-73 -44,0 -13,1 -45,11 -83,27 -105,99 -126,-53 0,-5 -3,-24 -4,-30l-4 -21c0,-4 6,2 5,-24 -1,-17 -11,-24 -11,-29 0,-40 25,-60 -23,-61l6 73c0,15 6,34 6,34 0,27 5,-31 -4,13 -2,13 -3,9 0,23 5,30 6,-4 5,31 -1,19 -2,24 1,42 10,63 -14,53 -14,75z"></path> </g> </g> </g> </svg> 