<?xml version="1.0" encoding="UTF-8"?> <!-- Creator: CorelDRAW X7 --> <svg xmlns="http://www.w3.org/2000/svg" xmlns:xlink="http://www.w3.org/1999/xlink" xml:space="preserve" width="6.4in" height="1.30543in" version="1.1" style="shape-rendering:geometricPrecision; text-rendering:geometricPrecision; image-rendering:optimizeQuality; fill-rule:evenodd; clip-rule:evenodd" viewBox="0 0 6400 1305"> <defs> <style type="text/css"> <![CDATA[ .fil2 {fill:none} .fil0 {fill:#E52D33} .fil1 {fill:#4D4D4D} ]]> </style> <clipPath id="id0"> <path d="M6400 0l-6400 0 0 1305 6400 0 0 -1305z"></path> </clipPath> </defs> <g id="Layer_x0020_1"> <metadata id="CorelCorpID_0Corel-Layer"></metadata> <g> </g> <g style="clip-path:url(#id0)"> <g> <g id="_1504543185968"> <g> <path class="fil0" d="M3829 1056l-6 -36 1 -39 2 -3 13 0 15 -1 34 0 23 3 4 8c0,0 2,6 2,9 0,3 0,13 0,17 0,3 0,22 0,22 0,0 -1,5 -1,6 -1,1 -2,3 -2,3 0,0 -2,4 -3,5 0,1 -4,4 -4,4l-8 1 -22 1 -33 0 -15 0z"></path> <path class="fil0" d="M3972 897l-4 3 1 39c0,0 -2,26 12,30l6 4 15 4 12 -1 10 0 1 28 2 43c0,0 5,12 21,12l50 -10 8 -2 2 -15 1 -20 -2 -20 -1 -10 -2 -5 -5 -2 -15 -3 -15 0 0 -3 -7 -7 8 -2 2 -19 -3 -26 -2 -15 -6 -3 -7 -2c0,0 -12,-2 -14,-2 -1,0 -12,0 -12,0l-12 0 -10 0 -34 4z"></path> <path class="fil0" d="M4109 753l0 -23 -4 -7 -7 -1 -13 0 -17 -1c0,0 -5,0 -7,0 -1,0 -9,1 -9,1l-8 3c0,0 -3,1 -4,3 -1,3 -7,12 -7,14 0,1 -1,11 -1,16 1,5 3,14 3,19 1,5 1,13 1,13l2 8 7 4 11 1 13 0 11 -1 4 -1 10 -1c0,0 6,-1 7,-1 1,0 6,-1 6,-1l5 -2 0 -15 -1 -9 -2 -19z"></path> <path class="fil0" d="M4179 904l1 -60 0 -22 -2 -9 -1 -4 -10 -5 -9 -1c0,0 -7,1 -8,1 0,0 -11,2 -11,2l-10 1 -7 1 -8 1c0,0 -3,7 -3,9 0,1 -1,9 -2,14 0,4 -2,11 -2,17 0,5 1,13 0,17 0,4 -2,9 -2,11 0,1 0,7 0,7l0 2 34 0 10 1c0,0 9,2 10,3 2,1 6,1 6,2 1,1 4,5 5,7 1,2 3,5 4,6 1,1 5,-1 5,-1z"></path> <polygon class="fil0" points="4225,971 4223,1033 4220,1050 4212,1051 4142,1051 4147,1027 4143,969 4143,965 4158,962 4168,960 4176,963 4178,967 4185,969 4201,971 "></polygon> <path class="fil0" d="M4291 894l40 -5 8 -5 2 -21 1 -19 -4 -19 -9 -5c0,0 -15,-3 -17,-3 -2,0 -19,-1 -19,-1l-15 2 -15 4c0,0 -6,5 -6,6 0,1 -1,9 -1,11 0,3 2,19 2,21 0,3 0,16 0,20 0,4 2,16 2,16 0,0 1,1 2,1 1,0 29,-3 29,-3z"></path> <path class="fil0" d="M4355 955l-1 95 7 5 37 1 19 -1 6 0 10 -1 3 -5 1 -38 -2 -31 -3 -4c0,0 6,1 -10,-2 -16,-2 -1,-2 -21,-2 -19,0 -31,-1 -31,-1l-11 -2 -4 -14z"></path> </g> <g> <g> <path class="fil1" d="M4028 1007l0 -28c15,0 13,-2 38,-2l34 0c3,9 4,4 4,21 0,9 1,15 1,25 0,8 -1,12 -1,21l-18 5c-5,1 -4,1 -7,2 -8,2 -26,5 -36,5 -3,0 -9,-3 -11,-5 -4,-5 -4,-36 -4,-44zm99 64l-307 0c-13,-1 -24,-1 -30,-2 -9,-2 -9,-3 -12,-10 -16,4 -75,2 -97,2l2 -2c4,-2 1,-3 7,-3l90 -2 0 -9c-17,-1 -31,-3 -48,-3 -8,0 -18,0 -26,0 -5,-1 -5,-1 -11,-2 -7,0 -6,1 -9,-3 8,-4 20,1 27,0 19,-2 41,-1 59,1 14,1 14,4 14,16 9,0 13,-1 22,-1 8,0 15,0 23,0 10,0 56,-1 65,-2 9,-2 15,1 17,-6 1,-6 2,-45 0,-55 -1,-8 -4,-6 -10,-8l-15 -1c-53,0 -47,-8 -49,18l-5 39c-1,8 0,13 -8,14 -1,-6 -4,-10 -4,-17 -1,-19 0,-39 0,-58 13,-3 13,3 13,-13 4,-3 1,-2 6,-2 -11,-18 -4,-16 -7,-33 -1,-6 -1,-5 3,-8l3 19c0,6 2,12 4,16 6,0 13,1 20,2 7,0 10,2 19,2 8,0 14,0 21,1 10,1 10,1 17,4 4,-7 3,-6 4,-16 2,-20 4,-33 0,-52l-65 -2c-18,0 -10,1 -18,4 0,-5 1,-4 -1,-7 9,-1 -1,-2 10,-3 12,0 49,0 57,2 6,1 17,0 20,2 10,7 4,52 2,64 -2,7 -1,13 -9,15 0,42 -1,34 4,73 0,5 -1,5 3,7 5,2 33,0 41,1 10,2 20,1 31,0 4,0 4,-1 9,-1 1,-11 2,-25 1,-37 0,-6 -1,-10 -1,-18 0,-7 -2,-10 -3,-16 -15,0 -46,4 -62,2l-9 -5c1,-5 2,-5 7,-6l33 -3 -6 -5c-4,-7 -1,-19 -2,-29 -3,-23 0,-24 0,-40 6,-1 1,-1 10,-2l34 -3c21,-3 34,1 45,2 8,0 12,2 14,10 4,16 7,37 3,54 -1,5 -2,3 -3,8 5,0 5,0 6,-5 4,-12 -1,-53 3,-70 -10,0 -38,1 -44,-5 -7,-7 -3,-60 -3,-75 6,0 10,-1 19,-1l0 -3c-2,0 -10,-1 -12,-2 -4,-2 -4,-4 -5,-9 -6,0 -1,1 -6,2 -5,1 -19,1 -23,-1 -3,-1 1,0 -4,-1l-55 -20c-9,-2 -6,-3 -12,-3 1,16 2,59 -3,73 -6,15 -12,12 -26,13l-37 2c-10,0 -28,1 -31,-8 -2,-3 -2,-8 -2,-11 -6,2 -3,3 -19,8 -3,1 -1,1 -6,2 -2,0 -5,1 -8,1l-23 4c-4,1 -4,1 -7,2l-25 2c-21,0 -40,-2 -59,-11 -5,-2 -8,-3 -13,-5 -3,-2 -3,-2 -6,-3l-19 -13c-1,-1 0,-1 -2,-2 -3,-3 0,-2 -6,-2 -11,-1 -20,-1 -31,-4 0,4 -2,12 -2,15 2,2 -1,0 2,2l2 1c0,1 1,1 1,1 9,5 30,10 41,12l21 5c7,1 -4,-2 2,0l10 3c12,2 46,13 55,16l20 8c1,0 1,0 1,0l14 7c1,1 1,1 1,1 1,0 1,0 1,0l11 8c9,7 12,19 4,27 -8,8 -21,14 -31,19l-102 43c-2,0 -2,0 -4,1l-19 7c-17,6 -34,13 -52,19l-29 11c-7,3 -16,8 -23,8l0 4c20,0 41,0 61,0 19,0 38,-2 57,0l0 3 -100 2c-13,0 -21,-2 -32,-2 -1,-3 -1,-2 -1,-4 1,-5 1,-2 2,-3l40 -16c3,-1 1,0 4,-1l61 -22c16,-7 34,-12 50,-20l13 -5c2,0 2,0 4,-1l15 -6c4,-1 4,-2 7,-3l32 -14c15,-7 30,-15 37,-20 9,-6 12,-15 3,-22 -9,-7 -19,-12 -30,-16l-18 -7c0,0 -1,-1 -1,-1 0,0 -1,0 -1,0l-22 -7c-4,-1 0,0 -4,-2l-73 -18c-3,0 1,0 -4,-1 0,0 -4,-1 -4,-1 -9,-1 -14,-6 -22,-8 -4,7 -4,14 -7,21 -7,15 -14,10 -25,6l-217 -73c-3,-1 -2,-1 -5,-2 -2,-1 -2,-1 -4,-1l-14 -6c-4,-1 -6,-2 -9,-3 -9,-4 -11,-7 -9,-14 1,-1 2,-3 2,-3 1,-3 0,0 1,-4l12 -26c1,-3 2,-4 4,-7 1,-3 1,-4 3,-6l63 -136c2,-3 1,0 2,-3 4,-9 4,-13 4,-24 -4,-1 -4,-1 -5,-6l-2 1c-5,0 -6,-2 -9,-4 -5,-5 -2,-4 -7,-6l0 -3c3,0 2,0 4,-1l4 2c0,0 0,0 0,0 1,1 1,1 1,1 0,0 0,1 1,1l1 1c3,3 5,4 9,5l0 -6c0,0 0,1 0,1l1 1c2,2 1,1 2,2 1,4 0,1 3,4l1 1c0,1 0,1 0,1 8,10 49,26 62,32l50 22c5,2 4,2 7,3l59 27c9,4 18,7 26,12l6 5c2,1 3,3 4,6 -9,4 -19,6 -27,10l-2 1c-1,0 -1,1 -2,1l-10 7 -14 19c-12,24 -5,70 4,94 5,10 10,20 18,29 2,1 3,3 5,4 3,3 -2,2 5,3l0 -14c-5,-1 -8,-4 -10,-7 -12,-15 1,-96 17,-122 0,0 1,0 1,-1l2 -3c0,0 0,0 0,0 2,-2 1,-1 2,-2l5 -3c1,-1 2,-1 3,-1l14 -6c7,-2 20,-3 28,-1 9,1 3,3 10,5 0,8 -4,12 -9,17l-8 10c0,0 0,1 0,1l-20 22c-9,9 -22,25 -24,38 -2,14 -4,25 -4,40 0,12 0,13 31,13 0,-9 6,-27 9,-36l20 -56c1,-2 0,0 1,-3l5 -11c5,-10 13,-14 22,-19l21 -8c13,-5 28,-9 42,-12 12,-3 19,-3 29,-5 14,-2 25,5 36,13 1,0 2,1 3,1 1,1 1,1 3,2l31 22c5,4 9,9 15,11l29 10c0,0 1,1 2,1 0,0 0,0 0,0 1,1 1,1 1,1l7 3c9,4 17,6 25,13 11,9 -1,20 -2,23 6,0 9,3 14,5l29 10c5,2 2,1 5,2 13,6 31,9 43,3 0,-8 -1,-11 -1,-19 0,-43 5,-36 -8,-49 0,0 0,0 -1,-1l-8 -8c0,0 0,0 -1,-1 -6,-6 -13,-22 -19,-31 -2,-2 -2,-2 -4,-4l-31 -50c-3,-7 -5,-15 -9,-21 -15,-23 -25,-12 -26,-23 6,-2 5,0 10,-1 6,-1 1,-2 8,-2l0 -4c-3,-1 -4,-4 -7,-6l-1 -2c-1,-1 -2,-2 -4,-4l-8 -9c0,-1 0,-1 0,-1 -1,-1 -1,-1 -2,-2 -16,-17 -6,-2 -27,-3 -9,0 -16,-8 -23,-13l-24 -20c0,0 0,0 -1,0l-24 -21c0,0 -1,-1 -2,-1l-9 -8c0,0 0,0 0,-1l-39 -34c-2,-2 -2,-2 -3,-4l-31 -26c0,-1 0,-1 0,-1l-15 -14c0,-1 -1,-1 -1,-1l-36 -34c-1,-1 -2,-2 -3,-3 -1,-2 -2,-2 -3,-3l-40 -42c0,0 -1,0 -1,0 -1,-1 -1,-2 -2,-3 -1,-1 -2,-2 -3,-4 0,0 -1,-1 -1,-1l-4 -5c-3,-6 -2,-8 6,-9l95 -24c8,-1 4,1 9,-3 9,-6 23,-9 33,-14l22 -12 -5 -9c-1,0 -2,-1 -2,-2 -3,-3 -4,-6 -6,-10 -7,-11 -6,-15 0,-25 9,0 11,1 16,6 20,17 7,37 6,41l5 6c0,1 1,1 1,1l14 18c0,1 2,3 2,3l66 75c0,1 1,1 1,2 1,0 1,1 1,1 0,0 0,0 1,0l17 21c0,0 1,1 1,1l40 48c5,6 13,16 12,25 -1,5 -4,9 -8,13l-6 5c0,1 -3,3 -3,3 -1,1 -1,1 -2,1 0,1 -1,1 -1,2 -1,0 -1,0 -1,0 0,0 -1,0 -1,1l-39 29c-3,5 -4,6 -2,11 3,7 7,15 14,19l4 -4c0,0 0,0 0,-1l25 -31c2,-3 4,-5 7,-10l2 -3c0,0 0,0 0,-1 0,0 1,0 1,0l3 -5c3,-7 7,-14 12,-19 7,3 11,7 15,12l40 44c2,3 3,2 6,3l82 25 16 11c2,3 2,3 4,6l13 25c4,9 10,26 13,35l-7 0c-3,-6 -4,-13 -7,-20l-8 -20c-4,-9 -9,-19 -16,-26 -2,-3 -1,-2 -4,-4 -7,-4 -18,-6 -25,-9 -4,-1 -8,-1 -12,-3l-24 -7c-10,-2 -20,-7 -31,-7 -1,7 -5,15 -8,21 -1,3 -1,2 -3,5l-16 21c-1,1 -1,1 -2,2 -1,1 0,1 -1,2l-5 5c-5,5 -8,8 -6,16 0,0 0,1 0,1 0,0 -2,1 6,5l8 4c3,1 0,0 3,1 18,6 37,4 70,20 5,2 6,3 10,5 4,-3 2,-3 8,-4 2,5 1,7 3,11 2,5 19,18 15,37 0,3 -2,7 -3,9 -1,3 -3,5 -6,7 -4,3 -4,2 -4,9 8,-2 16,-5 22,-8 27,-13 22,-26 13,-48 -1,-5 -2,-13 3,-10 2,1 3,4 4,6l12 32c4,-16 -1,-23 -1,-37 15,0 1,15 17,15 -2,7 -1,7 -8,8 0,15 -3,13 -5,21 -7,0 -4,0 -9,-4 -5,9 -4,8 -11,15 -6,6 -9,24 -5,31l3 6c1,3 1,2 3,5 2,4 3,6 5,10 11,19 16,21 31,10 1,0 2,0 2,-1l25 -18c1,-1 2,-2 2,-2 4,-3 3,-2 6,-5 -1,-3 -1,-2 -2,-6 0,-1 -1,-3 -1,-5l-8 -30c-3,-15 -9,-28 -5,-43l33 -7c-5,-7 -8,-3 -12,-10l-1 -2c-6,-11 -9,-37 -6,-50l18 -47c2,-4 1,-2 3,-6l8 -16c4,-9 8,-18 14,-25l4 -6c9,-14 29,-16 45,-19 5,-1 3,-1 7,-2l41 -7c6,-2 12,-1 18,-2l25 -6c1,0 1,0 1,0 5,-1 6,-1 9,-4l8 -8c20,-20 22,-28 35,-45 4,-5 2,1 4,-5l3 0c2,5 2,10 5,15 5,5 9,13 15,17 0,-8 3,-29 6,-37 2,-6 4,-2 5,-6l3 1c-1,-8 -6,-3 1,-10 2,-2 5,-5 8,-6l3 2c-3,6 -9,9 -12,16 -1,0 -1,0 -1,0l-4 18c-2,5 -5,27 -2,32 4,6 17,22 22,27l5 7c5,6 18,22 20,30 4,-1 7,-3 10,-5l32 -20c2,-1 3,-2 5,-3 2,-1 3,-2 5,-3 5,-4 -4,2 1,-1l18 -11c0,0 1,-1 1,-1l112 -69c1,-1 2,-1 3,-2l30 -19c2,-2 0,-1 2,-2 0,0 1,-1 2,-1l6 -4c1,0 1,-1 1,-1l2 -1c2,-2 2,-1 4,-3l39 -28c0,0 1,-1 2,-2 0,0 0,0 0,0l11 -13 -7 -7c-3,-3 -4,-4 -8,-7l-62 -43c0,0 -1,0 -1,0l-28 -17c-7,-4 -22,-11 -25,-15 3,-2 4,-3 8,-3 1,4 3,3 7,5l40 24c0,0 1,0 1,0 2,1 2,1 4,3l51 34c0,0 0,1 0,1l18 14c3,2 8,7 8,11 1,5 -6,11 -9,14l-81 58c-3,1 -3,2 -5,3l-13 8c0,0 0,0 -1,1l-16 10c-1,1 -2,1 -3,2 -1,0 -2,1 -3,1 -7,5 -15,9 -23,15 -2,1 -2,1 -3,2l-3 2c-2,1 -2,1 -4,1 0,1 0,1 -1,1l-16 10c-1,1 -2,2 -3,2l-24 15c-1,0 -1,1 -1,1l-20 12c0,0 -1,0 -1,0l-4 3c0,0 0,0 -1,0l-1 1c0,0 -1,0 -1,1l-23 14c0,0 0,0 0,0 -3,1 -1,1 -4,2l-2 2c-9,6 -17,7 -21,13 0,0 0,1 0,1 -1,2 0,9 -7,15 -1,1 -1,1 -1,1l-40 30c0,0 -1,0 -1,0 -11,7 -16,9 -22,9 -3,-13 8,-20 17,-27l21 -15c2,-1 3,-1 5,-3l3 -2c5,-3 9,-8 15,-9 0,-6 0,-4 -3,-8 -7,-11 -15,-21 -23,-31l-2 -3c0,0 0,0 -1,0 -1,-2 -1,-2 -2,-4 -4,-4 -10,-9 -11,-15l-4 0c0,17 -1,42 -6,57 -2,6 -3,6 -6,11l-11 12c0,0 0,0 -1,0 0,0 0,1 0,1l-7 6c-2,2 0,0 -1,2 -5,5 8,12 3,24l-4 6c0,0 -1,0 -1,1 -8,7 -13,8 -23,13l-2 1c0,0 0,1 0,1l-26 12c0,0 -1,0 -1,0l-51 23c-1,1 -2,1 -3,1 -6,3 -17,9 -21,15 -1,2 -7,20 -4,21 4,2 -1,1 2,0l16 -4c2,-1 1,-1 5,-1 12,-2 18,-5 31,-4 5,1 2,0 6,2 0,0 0,0 1,0l2 1c1,0 1,0 2,1 9,3 15,9 23,13l40 4c3,1 9,2 12,2 10,1 14,4 25,4 1,-4 3,-4 6,-6l6 -2c6,-3 10,-7 14,-11l4 -4c2,-1 1,-1 3,-3l3 -4c2,-2 3,-4 5,-7 2,-2 4,-5 6,-6 3,-1 7,0 7,0 0,0 1,0 1,0 4,-2 10,-8 14,-12 1,-1 1,0 2,-1l24 -21c0,0 1,0 1,0l15 -13c0,0 0,-1 1,-1l16 -13c0,0 0,0 1,0l108 -90c1,0 1,0 1,0l28 -23c1,-1 1,-1 2,-2l26 -20c0,0 0,0 1,-1l54 -38c2,-1 2,-1 4,-2 0,0 1,0 1,-1l2 0c0,0 0,-1 1,-1l7 0c2,0 1,0 2,1 15,9 14,75 14,89 0,6 1,7 2,12 1,20 -1,22 16,43 0,0 1,0 1,0 0,1 0,1 0,1l16 16c1,2 2,2 3,4l12 13c5,7 1,7 1,8 -1,4 0,1 -4,4l-36 23c-1,0 -1,0 -1,0l-8 4c-5,3 4,-2 -1,1l-22 13c-4,2 -6,3 -10,6l-43 24c-4,2 -7,4 -11,6l-10 6c0,0 -1,1 -1,1 0,0 0,0 -1,0l-77 46c0,0 0,1 -1,1 0,0 0,0 0,0l-24 15c-2,1 -1,1 -3,2 0,0 -1,1 -1,1l-25 16c0,0 -1,0 -1,1 -7,4 -14,8 -17,17 -1,5 -2,8 -4,12 -5,9 -8,14 -19,14 -2,-9 -5,-13 3,-21l10 -10c10,-7 10,-9 10,-22 0,-9 -1,-8 -4,-14l-12 -19c0,0 0,0 0,-1l-12 -14c0,-1 -1,-1 -1,-1l-31 -33c-2,-1 -2,-2 -3,-3 -4,-4 -8,-10 -15,-12 -2,2 -2,3 -4,5 0,0 0,0 -1,0l-19 21c-3,2 -6,4 -7,7 4,2 26,2 34,4 10,3 18,4 24,12 6,7 10,17 12,25l3 17c1,6 1,10 2,16 0,8 1,19 -6,23 -4,2 -23,6 -29,7 -3,1 -6,1 -8,1l-16 3c-8,1 -7,2 -13,5l-25 12c7,0 3,0 6,1 1,1 3,2 4,2l23 12c0,0 1,1 2,1l2 1c3,1 9,1 13,2 11,1 44,9 55,13l13 3c0,0 0,0 0,0l2 1c1,0 1,0 1,0 2,1 3,1 5,1l20 7c6,2 17,3 19,8 6,-1 3,-1 8,-2l11 -2c12,0 32,2 43,-1 8,-3 11,-1 7,6l20 -3c8,-2 18,-2 26,-4 3,-1 4,0 7,-1l136 -25c3,-1 0,0 3,-1 6,-2 5,-1 10,-4 1,3 -1,2 2,3 0,3 -2,8 -3,12l-16 44c-2,4 -3,8 -4,12 -2,7 -3,17 -2,27 3,16 15,37 23,53 5,8 16,19 16,28 -8,0 -16,3 -25,3l-56 0c-10,0 -16,1 -25,1 -18,0 -38,-1 -55,0 -18,1 -30,3 -50,3 -1,4 0,1 -3,4 0,0 -3,2 -4,3 -3,1 -7,2 -12,2 -3,-1 -9,-1 -12,-2l-11 -4 0 -6c53,-4 39,0 39,-34 0,-9 -3,-14 -2,-21 3,2 1,1 5,2 0,18 4,31 4,49 18,0 32,-1 50,-1 15,0 36,1 50,0l98 -4c-1,-3 -3,-7 -5,-10 -9,-13 -18,-31 -24,-45 -8,-20 -8,-25 -5,-47 2,-13 15,-50 22,-62l-10 2c-3,0 -3,0 -3,1 -3,1 -1,0 -6,1l-78 15c-4,1 -10,1 -14,1l-37 7c-10,1 -16,3 -25,4 -9,0 -17,3 -24,3 0,5 1,5 1,11l3 29c0,16 2,26 3,39 -10,0 -7,-5 -7,-15 0,-6 -2,-15 -3,-21l-2 -41c-13,0 -25,4 -38,4 0,3 12,21 15,31 2,6 4,13 5,19 1,7 2,13 4,19 -6,0 -3,1 -6,-3l-13 -43c-3,-8 -8,-17 -15,-23 -9,-6 -24,-6 -35,-3 -7,1 -14,2 -20,4l-27 10c0,0 0,0 -1,1l-1 0c-2,1 0,1 -3,1 -15,3 -27,-5 -40,-10 -4,-2 -2,-1 -5,-3 1,10 10,12 18,17 4,2 8,3 11,7 2,3 2,2 3,5l-6 7c0,0 0,0 0,0 0,0 -1,1 -1,1l-13 11c0,5 2,10 2,15 2,19 -4,19 21,6l9 -4c9,-4 26,-2 35,0 3,0 4,1 7,1 5,2 10,1 16,1l14 3c11,4 13,10 4,13l-4 2c-10,3 -70,5 -85,5 3,6 1,2 13,7l23 7c3,1 6,1 9,2 1,1 5,3 6,4 3,3 -3,-1 2,4 -4,0 -6,0 -10,-1l-28 -10c-6,-2 4,1 -2,-1l-7 -2c-12,-4 -16,-2 -16,-13 14,-3 33,-5 48,-5 37,0 23,-2 48,-4l0 -2c-6,0 -13,-2 -18,-3 -10,-3 -22,-1 -31,-3 -4,0 -3,-1 -8,-2 -5,0 -6,0 -10,2 0,0 0,0 -1,0l-14 6c-1,0 -1,0 -1,0l-6 3c-8,4 -12,3 -14,8 -2,5 0,13 -1,20 -1,5 -3,13 -4,18 -25,0 -46,-1 -71,-1l0 4c15,0 34,0 48,3 22,5 23,-4 26,25 1,10 4,21 -4,27 -2,-5 -2,-34 -2,-42 -3,-1 -6,-1 -9,-2 -5,-2 -1,-2 -8,-2 -6,-1 -10,-2 -18,-1 -10,0 -30,-1 -34,-3 0,20 -1,41 0,61 0,2 1,12 2,13 4,7 33,2 39,1 -2,6 -3,1 -4,8l-23 1c-10,0 -11,-2 -18,-5 0,-8 -1,-13 -1,-20l-3 -40c1,-6 2,-11 2,-19l-14 0c1,5 3,7 3,13 2,16 2,32 2,48 0,16 0,20 -10,24 -8,3 -35,3 -46,1 -36,-5 -31,1 -32,-16 -2,-16 0,-42 0,-62l-15 0c0,6 0,13 0,20 0,7 -2,10 -2,18 1,7 -1,11 -1,19 0,12 0,14 -4,15 -1,4 0,2 -3,3 -10,3 -50,1 -61,1 -9,0 -13,-1 -22,-1 -1,-7 -2,-17 -3,-23l1 -51c0,-5 2,-7 -3,-8 -4,-1 -9,0 -12,2l-1 65c-2,9 -2,11 -11,12l-90 0 0 -4c6,-1 15,0 17,-9 1,-5 0,-11 0,-16 0,-7 0,-13 0,-19 0,-14 -2,-24 -2,-37 -10,0 -28,4 -37,0 1,-6 4,-6 9,-7 7,-3 19,-8 26,-7 5,1 6,5 9,8 11,-3 15,-1 26,-6 -3,-9 -13,-6 -10,-28 1,-10 4,-25 2,-35 -19,0 -37,-7 -60,-3 -7,2 -11,2 -20,2 -4,18 -2,42 -2,62 0,4 -1,7 -2,10 -1,2 0,1 -2,3 -2,4 1,-2 -2,3 10,0 28,-1 31,8 2,12 4,24 4,34 1,23 1,35 -10,39l-15 4c-2,1 -6,1 -7,2 -11,1 -48,11 -55,-5 -2,-5 -2,-36 -2,-45 0,-6 -2,-9 -1,-18 0,-10 1,-10 -9,-10 0,18 5,37 4,65 -1,3 -1,7 -3,10 -2,3 -2,2 -6,4 -7,2 -54,3 -66,1 -6,-1 -12,-2 -20,-2 0,-2 -1,-3 -2,-4 -2,-5 0,3 -1,-5l-1 2c0,0 -1,1 -1,1 -2,4 -4,5 -10,5 -7,0 -9,1 -16,1 -13,0 -23,0 -34,2 -18,2 -52,0 -72,0 3,3 5,4 9,4 4,0 6,0 11,1 17,2 222,1 251,1 32,0 59,-2 90,-2l322 0c10,0 10,-1 19,-1 8,0 14,0 17,5 -7,2 -19,3 -24,-2 -7,5 -7,3 -19,3l-316 2c-8,0 -11,1 -18,1zm-297 -37l-2 0c0,-8 -1,-11 -1,-19 0,-11 -1,-24 1,-34l5 0c0,25 -3,40 -3,53zm857 -55l0 -2c6,-1 8,-1 16,-1 -1,0 0,0 -2,1l-2 1c0,0 -1,0 -1,1 -3,1 -7,0 -11,0zm-724 -3c2,-2 7,2 2,0 0,0 -4,2 -2,0zm-4 0l1 0c0,0 -1,0 -1,0zm-58 -2c6,0 8,1 13,-1 1,3 1,1 1,6 -3,-3 -1,-2 -7,-2 -5,-1 -3,1 -7,-3zm-60 -6c4,2 42,6 46,6l-46 2 0 -8zm489 4l0 1c-9,0 -16,1 -24,-1l24 0zm-28 -2c2,-1 5,2 2,1 0,0 -4,2 -2,-1zm-282 -2l0 5c-5,0 -3,1 -7,1 -6,0 -4,-2 -13,-2 3,-4 14,-4 20,-4zm154 -4c-2,4 -4,6 2,8 3,1 11,1 15,2 10,2 18,2 30,2 3,13 2,38 0,54 -1,5 -2,12 -2,17 -25,2 -48,1 -73,1 1,-13 4,-17 3,-39 -2,-14 -3,-26 -3,-41 6,0 14,-4 28,-4zm-318 0c8,0 38,1 46,3l-27 1c-7,-1 0,0 -5,-2 -4,-1 -9,-1 -14,-1l0 -1zm318 0l5 -6c4,1 2,1 10,3 2,0 7,0 11,1 16,3 30,3 45,-2 8,-2 7,-6 20,-4 9,1 60,1 76,0 14,0 11,1 11,16 14,0 29,2 40,3l30 3c6,1 3,1 10,1 0,18 2,36 1,55 0,7 -1,10 -1,18 -11,0 -27,2 -43,1 -30,-3 -32,2 -32,-13 0,-12 -1,-32 0,-44 4,-23 2,-20 -10,-20 -6,0 -5,-1 -10,-2 0,-6 -2,-5 -3,-9 -14,0 -25,-1 -38,-1 -6,0 -13,0 -19,0 -10,0 -11,-1 -18,3 1,4 1,4 5,5l8 3c3,1 16,2 19,2 9,0 10,0 19,2 6,1 14,0 20,0l-1 53c0,8 -1,10 -1,17 -17,4 -40,3 -59,3 -8,0 -11,-1 -20,-1l-1 -62c0,-8 1,-11 1,-20 -11,-2 -26,1 -37,-2 -6,-2 -28,-3 -38,-3zm-49 0c3,-4 7,-4 13,-4 -1,1 0,1 -2,2 -5,2 -6,2 -11,2zm54 -19c1,2 1,-1 1,4 12,1 18,4 31,4 7,0 10,0 15,1 8,0 12,-2 15,2 -8,0 -11,2 -19,2 -7,0 -25,-1 -31,-3 -1,0 -1,0 -1,0 0,0 -1,0 -1,-1 -7,-2 -6,0 -11,-4l1 -5zm112 -47l46 3c8,0 7,1 14,2 0,7 1,7 1,14l0 34c-12,0 -18,1 -29,0 -3,-1 -5,-1 -8,-1 -13,0 -41,1 -51,-1 1,-5 2,-4 4,-10 4,-8 4,-10 6,-19 1,-11 1,-22 17,-22zm-122 20c5,6 4,20 4,27 -6,-7 -4,-10 -4,-27zm-197 -19c14,0 11,-2 32,-2l30 -2c6,0 19,1 24,3 4,1 6,3 7,7 3,11 7,39 2,51 -3,6 -5,4 -12,6 0,11 4,3 9,10l-37 1c0,-8 0,-7 -3,-13 -3,1 -5,1 -9,2 -11,2 -25,6 -37,2 -4,-1 -3,-1 -4,-5l-3 -39c0,-9 1,-12 1,-21zm399 4c14,0 6,-5 40,0 4,0 7,0 11,0 6,0 5,1 10,1 3,12 4,47 0,60 0,2 -1,4 -1,4 0,0 -1,0 -1,0 0,1 0,1 0,1 1,2 2,3 3,4l-56 -5c-10,0 -11,-2 -19,-3 0,-10 -1,-9 13,-9l-2 -28c-1,-13 2,-14 2,-25zm144 8c0,-4 2,-8 3,-11 2,-3 4,-4 7,-7 3,14 2,10 2,25 -6,0 -4,1 -8,-1 -2,-1 -4,-5 -4,-6zm-260 -10l3 0c0,10 2,21 0,25 -1,6 0,2 -1,4 0,-12 -2,-19 -2,-29zm206 -4l3 0 0 26 -1 0c0,-10 -2,-17 -2,-26zm-198 2l10 -1c-1,3 -1,4 -3,7 -4,10 -1,10 -2,18l-4 7c0,-9 2,-24 -1,-31zm-102 -14c7,0 4,-1 7,3l-7 0 0 -3zm366 -1c-11,0 -20,1 -30,1 -8,1 -22,6 -28,3 1,-1 1,-2 2,-3 3,-3 8,-4 11,-5l3 -1c0,0 0,0 0,0l11 -5c1,-1 1,-1 3,-2l2 -1c13,-7 10,-6 16,-17 4,0 4,1 6,2l20 10c-1,6 -3,6 -8,10 -1,1 -3,2 -4,3 0,0 0,0 -1,0l-3 5zm-415 -15c-6,-4 -1,-12 0,-28 0,-7 0,-17 2,-23 1,-2 1,-2 2,-3 0,9 0,20 0,28 -1,9 -4,16 -4,26zm359 9c2,-3 2,-3 5,-5l4 -5c2,-3 5,-8 7,-11l12 -26c4,1 8,4 12,6 5,2 -3,0 5,1 -10,9 4,15 -15,27l-30 13zm-639 -47l1 0c0,0 -1,0 -1,0zm828 3c-6,0 -5,-2 -14,-2 11,-10 38,1 50,-5 -1,5 1,3 -16,5 -4,0 -7,0 -11,0 -5,1 -4,2 -9,2zm-1004 -12l23 -3c2,-1 1,0 3,-2 6,-5 7,-10 11,-19l5 -7c5,-5 3,1 5,-5 4,3 4,3 8,7l1 2c1,2 1,1 2,3l32 30c2,0 4,1 5,2 6,2 13,2 19,3 16,3 32,-7 52,1 0,0 2,1 2,1 3,2 2,-1 3,3 -12,3 -10,6 -34,9 -5,1 -12,4 -28,4 -18,0 -19,5 -40,1 -13,-3 -7,1 -28,-6l-21 -9c0,-1 0,-1 0,-1 -1,0 -2,-1 -3,-1l-17 -13zm464 -10c20,0 3,-1 20,-3 6,-1 25,-3 32,0 6,2 -2,0 5,3l-2 96c0,-11 -2,-7 -2,-26 -15,-4 -37,0 -52,0 -31,-1 -51,5 -82,-2l-1 -20c-1,-12 -3,-35 0,-47l70 -3c0,18 -4,29 -4,46 0,16 -2,24 4,24 4,0 6,-5 7,-8 8,-22 7,-38 5,-60zm327 76c-2,-5 -2,-23 2,-31l13 -21c2,-2 2,-2 4,-5l15 -19c1,-1 1,-1 2,-2 0,0 0,0 1,0 0,0 0,-1 0,-1 1,0 1,-1 2,-1l13 -10c6,-2 6,0 12,2l43 14c0,0 1,0 1,1l32 8c1,1 4,1 6,2l2 0c10,4 6,1 13,3 6,2 1,-2 5,4l-12 1c0,0 -1,0 -1,0l-10 3c-12,6 -33,16 -46,10 0,0 0,-1 -1,-1l-36 -17c-4,-3 -5,-3 -6,-9l-5 0c-1,9 -8,24 -12,32 -6,11 -24,31 -34,36 -1,1 0,1 -3,1zm136 -73c2,-1 7,3 2,1 0,0 -4,2 -2,-1zm-6 -1l0 1c0,0 0,-1 0,-1zm-8 -2c2,-2 7,2 2,0 0,0 -4,2 -2,0zm-479 -8c0,0 -1,0 -1,0l1 0zm0 0c4,-3 2,-2 8,-3 6,0 5,0 10,-1l0 4 -18 0zm262 -22c2,3 3,3 4,8 -5,-3 -4,0 -4,-8zm-19 -3l9 9c8,6 5,2 6,11 1,4 2,5 3,10l-3 1c0,-9 -14,-23 -15,-31zm0 0l0 0zm-474 -6l0 1c0,0 0,0 0,-1zm180 8c0,-6 -1,-10 -1,-18 0,-6 0,-13 0,-20l2 4c5,9 7,29 -1,34zm-105 -10l0 0zm417 -6c9,-5 16,-5 16,8 -4,0 -12,-2 -16,-8zm-493 8l-68 -24c0,0 0,0 -1,0l-6 -2c0,-1 -2,-3 4,-1l62 22c0,1 0,1 1,1 9,4 4,0 8,4zm723 -11c0,-8 0,-10 7,-16 2,-2 1,-2 5,-3 -3,7 -6,15 -12,19zm-539 -29c6,4 6,3 13,2 1,-12 1,-11 33,-11 4,0 4,3 5,6 1,5 2,5 4,9l7 0c4,-12 3,23 3,24l1 31 -22 3c-4,1 -8,0 -12,1 -7,1 -33,6 -35,-5l3 -5c14,-15 9,-31 2,-47 -1,-3 -1,-6 -2,-8zm56 -8c5,1 6,1 6,7l-3 0c-3,-2 -2,-2 -3,-7zm-47 1l0 3 -5 0c3,-4 -1,-2 5,-3zm-157 2c3,0 5,0 8,1l18 8c1,1 1,1 1,1 0,0 1,0 1,0 0,0 1,1 1,1l4 2c0,0 1,0 1,0l4 2c11,6 5,5 11,8 0,11 -8,9 -10,15l-4 0c0,-3 0,-2 -1,-3l-23 -26c-2,-1 -1,-1 -2,-2l-9 -7zm0 0l0 0zm473 26l-8 -13c-4,-9 -6,-12 -6,-21 0,-5 0,0 1,-3l3 -5c0,0 0,0 1,0 4,-6 12,-9 19,-11 8,-3 19,-5 28,-3 5,1 3,1 5,2l19 12c11,12 3,16 -3,26 -2,3 -3,5 -7,6 -2,0 -4,0 -6,1 -6,1 0,0 -5,1l-36 7c-5,1 0,0 -5,1zm-503 -35c11,1 14,2 21,9l4 4c0,0 1,0 1,0l7 6c0,0 0,0 1,1l11 10c26,27 20,26 20,69 0,9 -2,29 -9,32 -4,2 -9,1 -14,1 -6,1 -9,3 -17,3 -15,0 -22,1 -36,-2 -4,-1 -8,-1 -12,-2 0,-8 -1,-13 -1,-19 18,0 30,2 44,-5 3,-2 -1,0 3,-2 0,-7 -2,-5 -5,-10 15,0 30,-5 18,-21 -2,-2 -2,-2 -3,-4 5,0 12,3 20,-2 3,-1 0,-1 4,-2 0,-9 1,-10 -4,-18 -1,-1 -3,-4 -4,-5l-18 -16c0,0 0,0 -1,0l-1 -2c-1,0 -1,-1 -2,-1l-15 -12c-12,-11 -3,0 -12,-12zm-6 0c0,3 3,7 5,9 1,1 3,2 4,3l13 11c0,0 1,0 1,1l27 22c4,5 8,10 8,16 -3,1 -9,4 -9,4l-23 -5 -19 -11c-4,-2 -5,-2 -9,-4l-71 -26c-5,0 -10,-3 -15,-2 -5,1 2,0 -4,2 1,5 5,7 9,9 0,1 0,1 0,1 9,5 19,7 28,12l2 1c2,1 2,1 4,1l2 1c1,0 2,1 3,1l57 18c9,4 17,4 25,15 2,2 2,4 2,7 -6,1 -3,3 -16,3 -16,0 -18,0 -32,-4l-61 -15c-8,-1 -18,-6 -25,-3 0,6 5,6 10,8l52 13c1,0 -1,0 3,1l12 1c6,2 1,2 8,3l17 3c0,0 1,0 1,0 0,0 1,0 1,0 2,1 2,1 4,2 5,2 2,2 7,2l0 4c-7,0 -9,1 -16,1l-26 0c-6,0 -5,-3 -15,-3 -5,0 0,0 -4,1 -7,2 -12,1 -20,1 -15,0 -20,-2 -27,-2 -1,3 -2,2 -1,6 -9,0 -15,-2 -23,-5l-29 -29c0,-1 -2,-2 -2,-3 -1,-1 -2,-2 -3,-4 -9,-8 -15,-5 -22,4 -5,8 -8,24 -20,25 -3,1 -8,0 -12,0 -5,1 -4,2 -10,2 0,-10 7,-31 10,-40l7 -18c0,-2 0,-2 1,-5 1,-4 1,-1 2,-4 1,-2 1,-3 1,-5 4,-11 8,-24 15,-35 0,0 0,0 1,-1 0,0 0,0 0,0l19 -12c0,0 1,0 1,0 0,0 1,-1 1,-1l19 -7c13,-5 26,-8 39,-11 0,0 1,0 1,0 0,0 1,0 1,0 17,-6 36,-7 51,2l32 22c1,0 2,1 2,1l7 5c3,2 4,2 5,6 -5,0 -6,0 -6,5zm239 1l-4 -15 6 -2c4,-1 4,-1 8,-2 5,-2 10,-3 12,-6 0,8 -2,13 -6,20 -5,12 -2,5 -16,5zm-81 -19l0 0zm194 28c2,-4 2,-5 10,-8 15,-6 13,-1 24,-6 13,-4 9,-1 25,-10l9 -5c0,0 0,0 0,0l5 -4c0,0 10,-9 12,-20 0,-6 0,-15 0,-21l4 0c0,8 -1,5 2,11 3,8 5,25 5,35 -4,1 -2,1 -5,3l-10 4c-13,5 -21,7 -30,10l-37 9c-2,1 -11,2 -14,2zm-125 -29c0,-3 2,0 1,0 0,0 -1,3 -1,0zm-69 1l-1 -2 1 2zm-3 -6c1,1 1,-3 1,4 -1,-2 -1,1 -1,-4zm0 0l-2 -3 2 3zm-4 -5l0 0c0,0 0,0 0,0zm-1 -4l0 0c0,0 -1,0 0,0zm-3 -4l2 2 -2 -2zm-399 128c-13,-3 -9,-16 -9,-38 0,-14 2,-17 4,-27 0,-4 0,-7 1,-10l18 -47c0,0 0,0 0,0 1,-1 1,-1 1,-1l4 -3c16,-9 30,-8 45,-8 1,6 -4,12 -10,18l-42 52c-11,17 -8,28 -10,41 0,6 -2,17 -2,23zm-44 -78c0,15 1,29 3,42 1,3 1,6 2,9l10 26c6,10 12,17 21,25 5,4 4,8 2,16 -5,24 -14,16 -34,9 -10,-4 -21,-6 -31,-11l-27 -9c-2,0 -2,0 -4,0l-64 -22c-3,-1 -5,-1 -8,-3l-16 -5c-2,-1 -2,-1 -4,-1l-80 -29c-10,-5 -9,-5 0,-22 9,-19 17,-39 27,-59l24 -49c8,-18 18,-35 25,-53 3,-9 9,-18 9,-30l24 12c3,2 4,2 7,3l21 11c0,0 1,0 1,0 0,0 1,0 1,0l4 2c2,1 2,1 4,2 3,2 9,4 13,6l23 10c0,0 0,0 1,0l9 4c0,0 0,0 1,0 0,1 0,1 0,1l86 39c3,2 3,2 7,3 -1,0 -1,0 -1,1 -1,2 -10,4 -13,5l-18 10c-8,5 -14,13 -18,22 -6,10 -7,22 -7,35zm931 -75l32 3c1,0 3,1 3,1l10 4c2,0 4,2 5,3l10 17c1,4 1,4 2,8 4,20 6,28 3,50l-13 1c-3,1 -2,1 -3,1l-26 6c2,-7 11,-8 11,-18 0,-20 0,-18 -7,-35l-5 -13c-3,-6 -11,-22 -17,-25 -1,-1 -2,-1 -5,-1l0 -2zm-241 6c5,0 2,-1 6,-2l7 -3c2,-1 -1,0 1,-1l16 -11c3,-3 4,-5 9,-6l-3 37c-2,7 -5,11 -10,16l-4 2c0,1 -1,1 -1,1l-1 1c-1,1 -3,2 -4,3 -8,4 -30,12 -38,13 -4,0 -6,0 -9,1l-14 7 -12 -46c-1,-4 -2,-6 -2,-10 -1,-4 -1,-7 -2,-10 -1,-7 -6,-9 14,-13l13 -3c0,0 1,0 1,-1 26,-8 10,9 24,21 2,1 7,4 9,4zm231 -18c-1,4 -1,4 -6,4 2,-2 2,-3 6,-4zm-78 1l44 6c10,2 5,3 14,3l0 2c-16,0 1,2 -20,2 -4,0 -4,-1 -10,-2l-21 -7c-7,-3 -4,0 -7,-4zm80 -2l-2 1 2 -1zm-399 0c8,2 14,17 14,20 0,8 1,14 -4,20l-11 6c-7,1 -12,0 -18,-3 -6,-3 -3,1 -5,-4 7,-3 15,-3 23,-5 6,-1 3,-1 8,-2 0,-8 -4,-26 -7,-32zm403 -3c-1,4 3,2 -4,3 2,-4 -2,-2 4,-3zm-138 168c0,0 0,1 0,1 0,1 0,1 0,1 3,12 -1,3 9,15 0,-10 -3,-10 -7,-16 3,-8 2,5 3,-5 0,-5 -1,-4 -1,-9 3,0 1,0 4,0 2,-1 -1,-1 3,-2 0,-9 -3,-11 -6,-17 9,1 23,6 15,-12 -3,-7 -3,-5 12,-9l20 -4c4,-1 8,-1 11,-1 -1,3 0,1 -1,3 -1,2 -2,3 -2,4 -6,9 -9,21 5,21 -7,-10 -4,-12 3,-23l6 -5c1,-1 4,0 6,0 0,7 2,10 0,15l-5 4c-3,4 -1,3 -5,5l-2 1 8 -1c5,-2 7,-1 9,-5 3,-8 0,-15 0,-23 -6,-2 -1,-2 -8,-3 12,-17 21,-25 -1,-41 0,0 0,0 0,0 -8,-6 -15,-9 -24,-11 -4,-2 -10,-2 -14,-1 -7,1 -2,0 -5,1l-12 4c-1,0 -4,1 -5,2l-13 9c-5,5 -6,7 -6,16 0,16 11,22 12,33 -4,0 -4,1 -7,2 -2,1 -7,1 -9,2l-8 -15c-3,-5 -5,-11 -11,-12 -3,5 -4,7 0,13l13 17c0,0 0,0 0,0 1,1 2,2 2,3 4,5 4,7 4,15 -9,-3 -7,-15 -23,-15 0,8 6,18 10,24l13 23c-5,-1 -7,-3 -11,-5l-13 -12c0,0 0,0 0,0l-12 -15c-8,-13 -10,-28 -3,-42 1,-1 1,-1 2,-3l13 -23c0,0 0,0 0,-1 0,0 1,0 1,0l14 -21c1,0 1,-1 1,-1 0,0 0,0 1,0l42 -40c8,-4 13,-3 20,1l28 10c1,0 1,1 1,1 11,3 26,4 37,-1 11,-4 18,0 23,2 11,3 10,5 16,15l7 13c5,9 8,18 10,29 3,9 0,17 -7,23 -5,4 -10,8 -16,10 -2,2 -6,2 -8,2l-19 6c-7,3 -13,5 -14,12 -7,0 -15,2 -21,6 -4,4 -1,9 0,14 1,10 2,15 2,26l-29 5c-6,1 -4,2 -10,3 -7,1 -15,0 -22,2 -6,2 -3,1 -10,2 -11,1 0,1 -9,3l2 3 74 -10c3,-1 7,-3 9,-4 0,-30 -3,-30 -3,-39 11,-6 27,-5 38,0 0,0 3,1 3,1 1,1 2,1 2,2l10 6 -29 30c-3,5 -5,8 -8,12l-2 2c0,1 0,1 -1,1l-1 2c0,0 0,0 0,0 0,1 0,1 -1,1l-3 6c0,0 0,0 0,1 -10,14 -12,34 -5,49 8,-1 7,-2 11,-5l9 -7c1,7 -1,5 -8,8 0,15 2,27 4,41 0,3 0,3 2,5 2,4 1,3 4,4 9,-7 5,-33 5,-48 6,0 16,-3 26,-3 21,-1 27,-7 17,5l-1 2c-2,4 -6,8 -3,15l5 6c1,2 0,1 2,2 1,1 10,4 11,4 0,1 -3,21 -3,23 -2,15 1,11 -17,11 -11,0 -16,-2 -25,-2 -10,0 -19,0 -28,0l-4 10 -12 0c1,-6 2,-8 2,-15 0,-17 2,-38 -2,-52l-7 -2c-6,-2 -15,-3 -22,-3 -9,-1 -35,-3 -41,4 -5,4 -5,11 -5,18l2 26c0,0 0,3 0,3 0,1 0,2 0,2 0,3 -6,5 -7,-3 -4,-35 7,-50 -16,-51 -10,0 -14,-2 -24,-2l0 -1c9,0 17,1 22,-6 1,0 1,-1 1,-1 6,-10 5,-25 4,-34 -2,-11 -1,-12 -8,-17 0,6 1,8 3,13 1,5 0,1 0,6 0,8 1,17 -2,25 -3,7 -5,7 -13,7 -4,1 -5,1 -9,1 -6,1 -11,1 -19,2 -6,1 -8,3 -15,4 -3,0 -7,0 -10,0 -6,0 -4,1 -9,1 -1,-18 -4,-42 -1,-61 1,-11 2,-8 11,-10 12,-4 40,-3 53,1 10,3 8,6 16,11 0,-4 0,-7 -2,-10l-2 -2c-2,-2 -2,-2 -4,-3 -13,-6 -47,-5 -63,-3 -18,2 -16,13 -16,31 0,17 2,30 2,46 -4,2 -7,3 -8,9 -2,13 5,33 5,47 -14,0 -23,0 -35,-2 -8,-1 -28,-1 -33,-3 -6,-6 -2,-108 -4,-130 -1,-5 -1,-6 -4,-9 -14,-9 -41,0 -60,0 -8,-15 -3,-25 -6,-43 -1,-8 0,-16 0,-24 0,-6 -1,-7 1,-11l4 -5c2,-2 1,-1 2,-2 1,6 6,15 10,20 4,7 9,15 15,20 8,7 19,0 27,-4 2,-1 2,-1 4,-2l3 -2c0,-1 0,-1 0,-1 0,0 1,0 1,-1l16 -12c1,-1 0,1 1,-1 1,0 1,-1 2,-1l7 -3 5 2c0,0 3,1 3,1l43 -11c1,0 2,0 3,0 2,-1 2,-1 5,-1l16 -6c9,-3 17,-5 25,-10l4 -3c6,-5 3,-14 2,-22 -1,-6 -1,-7 -3,-12l-5 -15c-2,-6 -4,-12 -4,-18 7,-1 13,-4 20,-5l23 -5c23,-4 24,8 39,12l0 4c-6,0 -4,0 -8,3l-37 34c-2,3 -3,3 -5,6 -8,11 -18,23 -25,36 -7,14 -17,31 -9,48l6 14c3,4 3,4 5,7 2,2 3,3 5,5l9 9c0,1 0,1 0,1l11 8c0,0 1,0 1,1 10,6 17,9 17,-7zm138 -168l4 -3c-1,3 0,2 -4,3zm-469 -5c4,2 3,1 7,2l36 9c2,1 6,1 8,1 8,0 5,1 6,-3l4 0c0,10 5,16 5,27l-17 3c-12,2 -18,9 -7,16 3,2 6,4 12,4 -2,8 -15,3 -16,14 8,1 6,1 13,0 17,-2 18,-9 18,9 -27,0 -18,1 -32,2 -2,-8 -2,-18 -4,-25 -5,-18 -3,-21 -16,-37 -1,0 -2,-1 -2,-2 -5,-5 -14,-13 -15,-20zm476 0l-3 2 3 -2zm0 0c1,-3 0,-1 3,-4 2,-2 6,-9 9,-10 -1,4 -3,7 -6,9l-6 5zm12 -14c1,-6 0,-1 2,-3 0,-1 1,-2 1,-2l3 -4c2,-2 0,-1 3,-2 -1,4 -4,10 -9,11zm-197 -26l0 2 0 -2zm0 0c3,-5 3,-5 10,-5 0,0 0,0 0,0l-10 5zm-306 86l-3 -3c0,-1 0,-1 -1,-1l-18 -25c-2,-3 -2,-3 -4,-6 -5,-6 -11,-19 -14,-26 -2,-6 -3,-11 -6,-15 -1,-3 -1,-4 -3,-7 -4,-5 -7,-10 -12,-13 -2,-1 -1,-1 -4,-2 0,0 1,-1 1,0 0,0 2,-1 3,-4l5 0c1,5 8,11 11,15 0,0 0,0 1,1l15 21c1,2 1,2 2,3 6,10 7,19 11,28 2,4 2,4 4,7 0,2 0,1 1,3 4,11 10,17 11,24zm343 -103c-2,1 3,1 -4,1 2,-1 -1,0 4,-1zm-108 -11c7,0 6,1 12,1l0 2 -14 0c0,-1 0,-3 2,-3zm-833 -16l0 0zm1198 172c3,-15 -2,-24 -9,-36 -1,-2 0,-1 -2,-3l-16 -21c0,0 0,0 0,0 -1,-1 -1,-1 -1,-1l-46 -47c-3,-3 -3,-3 -5,-6l13 -11c0,-1 1,-1 1,-1 0,0 0,0 1,-1l21 -18c0,0 1,0 1,0l19 -16c0,-1 1,-1 1,-1 0,0 1,-1 1,-1 2,-2 3,-3 5,-4l42 -35c2,-2 2,-2 4,-4 2,-1 3,-2 5,-3 2,-2 2,-3 4,-4l23 -19c2,-2 4,-3 5,-4l30 -24c0,0 2,-2 2,-2 2,-1 1,-1 2,-2l23 -18c2,-1 1,-1 2,-2l18 -13c1,-1 0,-1 2,-2l8 -7c0,0 1,0 1,0l44 -33c31,-22 32,-13 36,34 2,27 -5,55 7,79l11 16c1,1 1,1 2,2l18 20c4,4 9,11 14,13l0 3 -83 49c0,0 0,0 0,0 -1,0 -2,1 -2,1 -1,1 -1,0 -2,1l-105 62c-1,0 -1,0 -1,0 0,1 -1,1 -1,1 0,0 0,0 -1,0l-44 27c0,0 -1,1 -1,1l-17 11c0,0 0,0 -1,0l-24 17c-2,1 -2,1 -5,2zm-257 -145c2,-4 7,-6 12,-9 1,-1 2,-1 2,-1l10 -7c2,-2 2,-2 5,-4l12 -9c0,0 1,0 1,-1 0,0 0,0 1,0l3 -3c1,0 1,0 1,0l27 -23c2,-2 1,0 2,-3l4 0c1,7 5,6 4,14 0,3 -1,4 -3,6l-6 4c-18,11 -23,12 -39,20l-10 5c-2,1 -4,1 -7,2 -2,1 -3,2 -6,3 -3,2 -9,6 -13,6zm-88 -57c4,0 6,0 8,1l3 2c8,5 8,8 12,10 0,9 -1,10 -5,16 -5,5 -5,10 -12,10 0,-9 -1,-13 -2,-20 -1,-8 -3,-12 -4,-19zm-180 114l0 4c-10,1 -10,2 -22,0 -9,-1 -16,-5 -26,-7 -20,-4 -10,-3 -19,-1 0,9 1,9 5,14l20 23c8,14 13,37 13,51 -25,2 -11,5 -28,-20l-11 -20c-8,-16 -16,-30 -22,-47 -3,-8 -5,-13 -10,-20 -2,-4 -4,-6 -6,-9 -3,-4 -4,-5 -7,-9l-13 -17c3,-4 1,-1 4,-4 1,0 2,0 2,-1 1,0 2,-1 2,-1l21 -14c9,-7 19,-15 26,-25 2,-4 6,-7 6,-14l3 0c0,9 -4,17 -9,25l-24 29c0,0 0,1 0,1l-6 6c-14,23 12,27 26,32 0,0 1,0 1,0l21 5c8,2 15,3 23,6 4,1 0,0 3,1l4 1c2,1 1,0 3,1l17 9c3,1 -2,-1 3,1zm212 -2c-7,0 -6,1 -11,4l-19 15c-3,2 -7,4 -12,4 -1,0 -7,-8 -8,-10 -1,-4 -1,-12 -2,-17 -3,-2 -2,-1 -6,0l8 -12c3,-6 5,-8 9,-13 0,-1 0,-1 0,-1l2 -2c0,-1 0,-1 0,-1l52 -68c2,-1 3,-3 5,-5 0,0 1,0 1,0 0,0 0,-1 0,-1l16 -17c0,0 1,-1 1,-1l42 -47c1,-1 1,-1 2,-2l6 -6c1,-1 2,-2 3,-3 2,-2 3,-3 7,-4 5,12 4,26 18,45 1,1 2,2 3,3l10 12c0,1 0,1 0,1 0,0 1,1 1,1l3 5 -33 27c0,0 -1,0 -1,0 0,0 0,1 -1,1l-16 12c0,0 0,0 0,0l-12 9c-1,0 -1,0 -1,0l-9 6c-9,5 -18,13 -28,15 -7,1 -8,0 -12,4 -5,3 -7,9 -9,14l-7 25c-1,4 -1,2 -2,7zm-344 -63c-2,-4 0,0 -3,-4 -2,-2 -2,-2 -4,-4 -1,-1 -2,-3 -4,-4l-10 -12c-5,-6 -4,-7 -8,-9l0 -3c4,-2 6,-6 10,-10l37 -53c3,-5 2,-5 6,-7l29 31c1,1 1,1 2,2 0,0 0,0 0,0l8 9c1,0 1,1 2,1 3,3 -1,1 3,2 0,1 0,1 0,1 -1,2 -3,-1 -6,8 -2,3 -1,3 -3,5l-28 29c-7,6 -23,18 -31,18zm509 -38c2,-6 8,-9 13,-13l20 -14c0,0 0,-1 0,-1l26 -16c-1,7 -8,11 -14,15l-10 9c0,0 -1,0 -1,1l-18 11c-4,3 -11,8 -16,8zm-167 5c-2,-3 -2,-4 -4,-8l-5 -6c-6,-5 -29,-17 -26,0l5 25c2,13 0,11 -2,12 -3,7 -5,0 -18,0 -3,0 -5,3 -6,5 -2,4 -1,5 0,9 7,4 17,2 24,-1 4,-1 4,-2 9,-3 -8,8 -13,20 -20,28l-2 3c-1,1 -2,2 -2,4l-2 3c-4,4 -6,9 -10,13 -4,5 -7,5 -13,3 -6,-1 -3,0 -5,-2 -6,-7 -8,-31 -8,-40 0,-5 1,-12 2,-16 3,-10 8,-20 12,-28 7,-16 13,-32 22,-47 4,-6 7,-13 12,-18 3,-4 7,-7 11,-8l16 -4c13,-2 28,-7 41,-8l42 -8c3,0 6,0 9,-1 5,-1 1,-2 8,-2 -2,6 -7,8 -11,12l-6 5c-3,3 -4,4 -6,6l-4 5c-1,0 -1,1 -2,1l-42 49c-6,6 -12,13 -19,17zm137 -29c-2,-2 -3,-5 -5,-7l-17 -23c-5,-8 -12,-30 -12,-40 5,-3 6,-4 11,-9 0,0 0,0 1,0 12,-12 15,-16 25,-32 5,-7 5,-4 7,-12l4 0c2,6 13,20 18,26l2 2c0,1 0,1 0,1 0,0 1,1 1,1 0,0 0,1 0,1 1,2 1,1 0,3l-3 31c-1,26 -5,31 -17,44 -1,2 -1,2 -3,4l-12 10zm-792 -204c7,-4 29,-5 39,-8l16 -5c21,-7 43,-12 62,-20l24 -11c1,0 1,0 1,0l4 -2c1,0 1,0 1,-1l9 -4c3,-2 5,-3 8,-5 1,5 5,9 9,13 1,2 3,3 4,5l2 2c0,0 0,0 0,0 0,0 1,1 1,1l83 96c0,0 0,1 0,1 1,1 1,1 2,2l41 49c0,0 0,1 1,1 0,0 0,0 0,0l3 4c9,13 19,21 6,34l-43 31c-2,2 -1,1 -2,2 -7,7 -12,11 -12,22 0,7 14,17 14,25 -2,1 -3,1 -6,2 -4,1 -3,2 -8,2 -3,0 -9,-5 -14,-9l-65 -54c-1,-1 -1,-1 -2,-2l-25 -22c0,0 -1,-1 -2,-2 -1,-1 -1,0 -2,-1l-25 -23c-3,-2 -1,-1 -4,-3l-61 -58c-1,-1 -1,-1 -2,-2l-17 -17c-1,0 -2,-1 -3,-2l-8 -8c-2,-2 -2,-2 -3,-4l-26 -29zm148 -96c0,-13 30,11 16,31 -4,-3 -13,-18 -14,-20 -1,-3 -2,-7 -2,-11z"></path> <path class="fil1" d="M4508 1063c6,9 18,4 29,4l295 0c14,0 23,-1 36,-1l55 0c8,0 11,-1 17,-2 35,-1 90,0 129,1 10,0 13,1 15,-4 -4,-3 -11,-2 -17,-2 -47,0 -94,0 -141,0 -48,0 -93,2 -139,2 -47,0 -94,0 -141,0 -25,0 -47,1 -70,1 -12,0 -24,0 -36,0 -7,0 -9,2 -16,1 -6,-1 -10,-3 -16,0z"></path> <path class="fil1" d="M3638 1062l12 -1c-5,-7 -11,-5 -22,-5 -10,0 -20,0 -30,0 -10,0 -16,1 -28,1l-378 0c-6,1 -3,-2 -5,2 0,1 0,1 0,1l0 0c0,0 0,0 0,1 2,4 9,2 16,2l380 0c5,0 10,0 14,0l28 -1c7,-1 5,0 13,0z"></path> <path class="fil1" d="M4634 211c2,-1 2,-1 3,-2l6 -6c16,-14 8,-6 19,-5 -2,-9 -11,-10 -18,-4l-3 3c-7,7 -9,6 -7,14z"></path> <path class="fil1" d="M4558 279c7,2 6,0 17,-10l3 -4c0,0 1,0 1,0 0,-1 0,-1 0,-1l-2 -4c-2,1 -1,0 -3,1l-2 2c0,0 0,1 0,1l-3 3c-4,4 -10,6 -11,12z"></path> <path class="fil1" d="M4579 258c4,0 2,-1 3,2 5,-1 19,-15 22,-20 -7,1 -10,2 -16,8l-9 10z"></path> <path class="fil1" d="M4676 950l-8 8c-5,6 -6,1 -8,10 4,0 4,0 7,-2 6,-3 12,-12 13,-17 -2,1 -2,1 -4,1z"></path> <path class="fil1" d="M4676 945c0,0 1,-1 1,-1l6 -12c1,-3 1,-8 -1,-11 -2,-4 -3,-3 -5,-4 0,11 -1,18 -1,28z"></path> <path class="fil1" d="M4161 644c1,-4 3,-20 -7,-20 0,5 0,8 1,12 1,6 0,7 6,8z"></path> <path class="fil1" d="M4615 955c7,5 3,7 15,7 -1,-2 2,-1 -4,-2 0,-3 1,-1 0,-3 0,0 -3,-2 -3,-2 -2,-1 -5,-2 -7,-2 -5,-1 -3,-1 -7,-2 -3,-1 -4,-1 -7,-2l2 4c2,3 5,5 7,5 7,-1 3,0 4,-3z"></path> <path class="fil1" d="M4527 1033l-3 0 0 10c-3,1 -4,1 -8,1 2,4 2,2 0,5 6,0 6,-1 11,-1 2,-7 4,-8 0,-15z"></path> <path class="fil1" d="M4637 964l14 1c4,0 0,1 3,-1 -3,-6 0,-3 -8,-4 -8,0 -5,-2 -12,-2l3 6z"></path> <path class="fil1" d="M4629 211c-7,1 -1,2 -11,7 2,5 -2,3 5,7 1,-7 8,-6 8,-11 0,0 0,0 0,0l-2 -3c0,0 0,0 0,0z"></path> <path class="fil1" d="M4516 317l4 7c1,-3 0,-1 2,-3l8 -8c-3,-4 -1,-1 -6,-3 -2,3 -5,6 -8,7z"></path> <path class="fil1" d="M3662 1040c1,0 4,1 4,1 2,0 2,0 5,-1 3,0 8,0 11,0 -4,-7 -15,-7 -20,0z"></path> <path class="fil1" d="M3656 1061c5,0 4,1 8,1 2,-1 5,-1 9,-1 0,0 0,-1 0,-1l-7 -4c-3,-1 -7,0 -10,0 0,3 1,2 0,5z"></path> <path class="fil1" d="M4615 226l0 0zm0 0c-3,-4 -10,5 -11,7 0,0 11,3 12,-5 0,-3 0,-1 -1,-2z"></path> <path class="fil1" d="M4493 347c4,-1 2,0 4,-2l7 -7c0,0 0,0 0,0 -1,0 -3,-1 -4,-1 -4,0 -5,1 -9,5 0,0 0,0 0,1l2 4z"></path> <path class="fil1" d="M4496 1053c7,0 10,-1 16,-1 -1,-2 -1,-2 -1,-4 -2,0 -10,0 -12,0 -4,1 0,1 -3,5z"></path> <path class="fil1" d="M4557 284l-2 -2c-1,1 -8,2 -10,10l10 -3c2,-2 0,-1 3,-2l-1 -3z"></path> <path class="fil1" d="M4531 305l3 -1 2 1c6,-3 -3,3 4,-2 0,0 0,-1 0,-1 3,-2 2,0 3,-4l-4 -3c-3,4 -5,5 -6,6 -2,2 -1,1 -2,4z"></path> <path class="fil1" d="M3387 536c14,7 -1,-1 13,2 -2,-3 -4,-6 -9,-7 -1,3 -1,1 -4,5z"></path> <path class="fil1" d="M4358 834l2 -5c-1,0 -1,0 -1,0 0,0 0,-1 -1,-1 0,0 0,-1 0,-1 0,0 -1,0 -1,0 -1,-2 -1,-2 -2,-3 0,7 1,6 1,12l2 -2z"></path> <path class="fil1" d="M4142 626c0,4 1,2 3,4 0,-6 1,-6 1,-12l-4 0 0 8z"></path> <path class="fil1" d="M4504 331l8 -7c-4,1 -6,3 -8,7z"></path> <polygon class="fil1" points="4419,776 4421,775 4421,773 4416,773 4416,776 "></polygon> <path class="fil1" d="M3842 899c-1,2 -1,-2 -1,4l1 0 0 -4z"></path> <path class="fil1" d="M3652 1061c1,1 4,-2 1,-1 0,0 -3,-1 -1,1z"></path> <path class="fil1" d="M4679 912c0,3 2,0 0,0 0,0 0,-4 0,0z"></path> <polygon class="fil1" points="4558,283 4559,283 4558,281 "></polygon> <polygon class="fil1" points="4493,347 4492,347 4493,348 "></polygon> <polygon class="fil1" points="4629,211 4630,211 4629,209 "></polygon> <polygon class="fil1" points="4421,773 4422,773 4421,772 "></polygon> <polygon class="fil1" points="4577,260 4578,260 4577,259 "></polygon> <polygon class="fil1" points="3407,546 3407,545 3405,546 "></polygon> <polygon class="fil1" points="4474,363 4474,362 4473,363 "></polygon> <polygon class="fil1" points="4546,294 4545,294 4546,296 "></polygon> <polygon class="fil1" points="3403,538 3401,538 3402,540 "></polygon> <polygon class="fil1" points="4676,950 4676,949 4675,950 "></polygon> <polygon class="fil1" points="4527,1033 4529,1033 4528,1031 "></polygon> <polygon class="fil1" points="4634,211 4633,211 4634,212 "></polygon> <polygon class="fil1" points="4558,279 4557,279 4558,281 "></polygon> <polygon class="fil1" points="4360,837 4358,837 4359,839 "></polygon> <polygon class="fil1" points="4531,310 4532,310 4531,308 "></polygon> <polygon class="fil1" points="3403,556 3403,557 3404,556 "></polygon> <polygon class="fil1" points="3410,550 3412,550 3411,548 "></polygon> <polygon class="fil1" points="4546,294 4548,294 4547,293 "></polygon> <polygon class="fil1" points="4543,298 4544,298 4543,297 "></polygon> <polygon class="fil1" points="4531,310 4530,310 4531,311 "></polygon> <polygon class="fil1" points="4531,305 4530,305 4531,306 "></polygon> <polygon class="fil1" points="4504,331 4503,331 4504,333 "></polygon> <polygon class="fil1" points="3403,538 3404,538 3403,537 "></polygon> <polygon class="fil1" points="4535,306 4534,306 4535,307 "></polygon> <path class="fil1" d="M4503 336c0,0 1,0 1,0 0,0 0,0 0,0 0,0 0,0 0,0 0,0 -1,0 -1,0z"></path> <path class="fil1" d="M4499 336c1,0 1,0 1,0 0,0 0,0 0,0 0,0 0,0 0,0 0,0 -1,0 -1,0z"></path> <path class="fil1" d="M4604 238c0,1 0,0 0,0 0,0 0,0 0,0 0,0 0,0 0,0 0,0 -1,0 0,0z"></path> <path class="fil1" d="M4516 325c0,0 0,-1 0,0l0 0c0,0 0,0 0,0z"></path> <path class="fil1" d="M4501 334l0 -1c0,0 0,1 0,1z"></path> <path class="fil1" d="M4615 223l0 0c0,0 0,0 0,0z"></path> <path class="fil1" d="M3403 542l0 0c0,0 0,0 0,0z"></path> <path class="fil1" d="M3407 542l0 0c0,0 -1,0 0,0z"></path> <path class="fil1" d="M3409 546l0 0c0,0 0,0 0,0z"></path> <path class="fil1" d="M3840 897l0 -1c0,0 0,1 0,1z"></path> <path class="fil1" d="M4663 195l1 0c0,0 -1,0 -1,0z"></path> <path class="fil1" d="M3403 545l0 -1c0,0 0,1 0,1z"></path> <path class="fil1" d="M3399 535l0 -1c0,0 0,0 0,1z"></path> <path class="fil1" d="M4489 349l1 0c0,0 -1,0 -1,0z"></path> <path class="fil1" d="M4668 200l1 0c0,0 -1,0 -1,0z"></path> <path class="fil1" d="M4526 310c0,0 0,-1 0,-1 0,0 1,0 1,0l-1 1z"></path> <path class="fil1" d="M4515 321c0,0 0,0 0,0 0,0 0,0 0,0l0 0z"></path> <line class="fil1" x1="4672" y1="199" x2="4672" y2="199"></line> <line class="fil1" x1="4665" y1="199" x2="4665" y2="199"></line> <line class="fil1" x1="4606" y1="237" x2="4606" y2="237"></line> <polygon class="fil1" points="4558,283 4557,284 "></polygon> <polygon class="fil1" points="4536,305 4535,306 "></polygon> </g> <path class="fil1" d="M3419 1057l-3406 0c-80,1 -34,-2 -62,2 -7,1 -10,1 -12,1l0 0c2,0 5,0 12,1 26,4 131,2 236,2l3232 0 0 -6z"></path> <path class="fil1" d="M4833 1067c122,0 202,-1 323,-1l505 0c76,0 102,-1 164,-2 324,-1 835,0 1189,1 92,0 123,1 141,-4 -41,-3 -107,-2 -153,-2 -435,0 -870,0 -1305,0 -296,0 -579,1 -864,1l0 7z"></path> </g> </g> </g> </g> <polygon class="fil2" points="6400,0 0,0 0,1305 6400,1305 "></polygon> </g> </svg> 