<?xml version="1.0" encoding="UTF-8"?> <!-- Creator: CorelDRAW X7 --> <svg xmlns="http://www.w3.org/2000/svg" xmlns:xlink="http://www.w3.org/1999/xlink" xml:space="preserve" width="1.32309in" height="0.883642in" version="1.1" style="shape-rendering:geometricPrecision; text-rendering:geometricPrecision; image-rendering:optimizeQuality; fill-rule:evenodd; clip-rule:evenodd" viewBox="0 0 639 427"> <defs> <style type="text/css"> <![CDATA[ .fil0 {fill:#474646} .fil2 {fill:#E52D33} .fil4 {fill:#E74224} .fil6 {fill:#F2F2F2} .fil1 {fill:#FEFEFE} .fil3 {fill:white} .fil5 {fill:white} ]]> </style> </defs> <g id="Layer_x0020_1"> <metadata id="CorelCorpID_0Corel-Layer"></metadata> <g id="_2770960109072"> <g> <g> <path class="fil0" d="M388 91l0 23c-7,-2 -12,-6 -21,-9 -6,-2 -17,-5 -23,-6 -60,-11 -131,-3 -185,16 0,-7 1,-13 1,-19l1 -16c0,-3 1,2 0,-2 -1,-3 0,-2 -2,-4l-56 0c-11,0 -8,3 -8,14 1,7 2,14 2,21 1,8 4,37 2,44 -1,2 -17,21 -20,25 -11,13 -14,10 -9,31 7,39 12,79 20,117 11,57 -5,36 53,41 -22,53 85,-4 101,-10l1 31c7,-1 8,0 8,-7 0,0 1,-1 1,-1 5,4 9,1 7,-3 -1,-3 -6,-4 -8,-6l-1 -35c5,1 9,3 13,5l30 6c9,2 10,2 13,-5 -4,-2 -24,-4 -29,-6 -10,-2 -19,-4 -27,-9l0 -11c14,7 29,12 45,14 13,2 43,4 57,-1 -4,-9 -10,-3 -28,-4 -10,-1 -20,-1 -29,-3 -17,-2 -67,-15 -33,-33 29,-14 78,-14 109,-6 3,1 5,2 9,2l9 4c13,9 16,16 1,25 -6,3 -14,5 -21,6 -12,2 -12,2 -11,5 2,9 18,0 21,-1 15,-4 17,-7 21,-8l1 14c-14,8 -41,10 -54,10 0,0 0,0 -2,4 39,0 44,-5 56,-8l-1 35c-33,25 -100,16 -115,12 0,0 0,2 -2,5 41,11 89,1 101,-2 6,-2 12,-5 17,-5 -3,12 -17,15 -28,18 -24,7 -85,8 -107,-3 -5,-3 -12,-9 -18,-9 -2,0 -3,0 -5,1 0,5 9,9 14,12 2,1 7,3 10,4 9,3 15,4 24,6 31,5 74,5 102,-10 20,-11 14,-20 15,-44 9,0 28,5 49,5 16,0 35,-4 49,-9 11,-4 9,-1 20,3 23,9 49,10 72,3 24,-8 22,-9 22,-34 1,-14 6,-149 4,-157 0,-1 0,-1 -1,-2 0,-1 0,-1 0,-1l-1 -2c11,-10 22,-16 8,-30 -17,-17 -20,-1 -32,7 -5,-4 -6,-8 -13,-8 -22,-1 -44,0 -66,0 -1,-13 0,-26 0,-39 0,-13 -10,-18 -21,-29 -23,-24 -19,-17 -19,-53 0,-14 -9,-9 -38,-9 -20,-1 -16,-1 -16,34 1,11 0,9 -7,16l-23 24c-5,5 -9,7 -9,16zm-281 -10l46 0c1,0 2,1 2,2l0 22 -50 0 0 -22c0,-1 1,-2 2,-2zm329 -75l37 0c1,0 1,1 1,2l0 20 -40 0 0 -20c0,-1 1,-2 2,-2zm166 135l19 18c0,0 18,-13 15,-16 0,0 -13,-17 -16,-15l-18 13z"></path> <path class="fil1" d="M123 152c5,6 26,6 35,6 0,22 -8,59 -4,92 1,13 11,70 18,78 7,-4 14,-12 23,-15 3,3 2,1 3,5 -3,5 -11,9 -15,12 -16,12 -17,14 -27,30l-7 14c-7,25 79,-21 95,-26 2,-13 0,-30 0,-44 1,-14 12,-20 22,-24 22,-9 54,-11 80,-9 -5,-14 -10,-15 -25,-17 -27,-5 -65,0 -88,16 -3,2 -8,9 -12,5 -12,-11 61,-45 117,-26 2,-42 16,-43 19,-89 -8,2 -13,13 -19,9 -9,-9 23,-15 44,-47 -23,-21 -106,-22 -142,-17 -25,4 -46,6 -68,14 -15,5 -43,18 -49,33z"></path> <path class="fil2" d="M515 170l0 32c2,4 3,65 3,70 1,24 2,47 2,70 20,17 73,16 93,0 3,-42 4,-106 5,-153 0,-4 0,-9 0,-13 0,-15 -9,-10 -17,-24 -15,0 -75,-2 -86,0l0 18z"></path> <path class="fil1" d="M413 294c4,8 1,41 1,52 6,4 16,6 23,5l1 -69c0,-5 -1,-15 -1,-22 -1,0 -31,-3 -31,-3 1,-6 0,-6 6,-6 1,0 30,-2 33,2 5,13 -4,82 1,99l15 1c5,-18 -4,-88 1,-100 3,-4 24,-3 29,-2 6,0 6,-1 9,2 2,6 1,80 1,92l11 -3 -4 -100 -2 -85 -106 -1c5,17 22,38 5,76 -11,24 -9,2 -11,35 0,4 0,8 0,11 2,11 14,9 19,16z"></path> <path class="fil2" d="M396 148l110 0 0 -15c4,-2 3,-1 6,-3l0 -40 -116 0 0 58z"></path> <path class="fil2" d="M96 310c24,3 36,2 60,1 0,-3 -8,-41 -9,-48 -3,-19 -2,-38 -1,-57 -13,0 -24,0 -37,0 -11,-1 -22,-4 -32,-4 3,17 16,98 19,108z"></path> <path class="fil3" d="M537 245c-6,0 -8,-4 -8,17l1 14c7,3 66,3 72,0 2,-1 3,-26 0,-29 -1,-2 0,-1 -3,-2 -1,0 -3,0 -4,0 9,-9 11,-28 5,-40 -18,-37 -76,-23 -71,21 1,8 4,12 8,19z"></path> <path class="fil1" d="M386 279c0,-8 1,-14 0,-22 -1,-21 15,-18 17,-53 3,-29 -14,-45 -15,-52 -1,-6 0,-17 0,-23 -5,4 -9,10 -13,15 -8,8 -10,6 -10,19 0,36 -26,74 -16,95 6,13 6,14 13,15 8,2 16,4 24,6z"></path> <path class="fil1" d="M79 193c12,3 55,8 68,4 0,-7 2,-27 1,-31 -12,-1 -27,-1 -33,-10 -5,-11 17,-27 26,-32 6,-3 9,-2 10,-9 -1,0 -1,-1 -1,0l-44 -1c1,9 1,18 1,27 1,15 3,13 -16,36 -4,4 -11,10 -12,16z"></path> <path class="fil1" d="M404 81l101 0c-1,-4 -15,-16 -19,-20 -14,-15 -13,-11 -13,-27l-37 -1c0,19 -2,15 -13,28 -4,3 -19,17 -19,20z"></path> <path class="fil4" d="M561 194c-28,6 -28,39 -12,49 5,4 18,2 25,2 19,0 22,-22 19,-32 -4,-12 -16,-23 -32,-19z"></path> <path class="fil1" d="M97 318l6 40 45 0c3,-6 7,-11 8,-17 1,-5 4,-19 3,-22 -20,-1 -20,4 -62,-1z"></path> <path class="fil1" d="M470 264l0 88c5,-1 10,-1 15,-2 7,-1 7,-1 7,-8l0 -83 -22 0 0 5z"></path> <path class="fil3" d="M457 94c-7,-1 -8,3 -10,10 -2,5 -5,11 -6,14 -13,35 36,33 28,5 -1,-6 -9,-24 -12,-29zm0 5c-7,-1 -7,2 -9,8 -2,4 -4,9 -5,12 -11,29 30,28 24,4 -1,-5 -8,-20 -10,-24z"></path> <path class="fil0" d="M394 301c1,-8 -25,-15 -32,-16 -14,-2 -88,-7 -91,13 -5,31 120,29 123,3zm-7 0c0,-7 -23,-13 -28,-14 -13,-2 -78,-6 -81,11 -4,27 106,26 109,3z"></path> <rect class="fil4" x="533" y="249" width="66.6672" height="25.6276" rx="2" ry="2"></rect> </g> <path class="fil2" d="M246 191c-8,0 -47,-3 -49,-1 -4,3 2,17 5,25 1,7 4,20 8,25 4,2 89,-8 106,-10 17,-3 18,0 14,-15 -13,-52 12,-24 -84,-24z"></path> <path class="fil0" d="M246 191c-8,0 -47,-3 -49,-1 -4,3 2,17 5,25 1,7 4,20 8,25 4,2 89,-8 106,-10 17,-3 18,0 14,-15 -13,-52 12,-24 -84,-24zm-41 7l10 34 108 -11c-1,-10 -3,-22 -7,-29 -8,1 -17,3 -25,5 -9,1 -18,1 -28,2 -20,2 -38,-1 -58,-1z"></path> </g> <g> <rect class="fil5" x="3" y="323" width="132.918" height="29.8241"></rect> <g> <path class="fil0" d="M7 399c8,-2 26,-1 38,-1 3,-1 4,0 7,0 18,1 69,-2 80,1 2,4 1,13 1,17 -6,4 -5,4 -15,4l-94 0c-5,0 -12,0 -16,-4 -2,-3 -2,-13 -1,-17zm27 -7c-6,0 -22,1 -27,0 -1,-3 -2,-15 1,-17 3,-2 20,-1 25,-1l94 0c5,0 6,1 6,6 0,4 0,8 -1,12 -10,2 -75,0 -97,0 1,-1 3,-1 3,-6 0,-3 0,-6 -1,-8 -7,-4 -6,9 -4,12l1 2zm98 -41c1,3 2,15 0,17 -3,2 -99,0 -117,1 -10,0 -8,0 -8,-9 0,-11 -3,-9 24,-9 16,0 97,-1 101,0zm-125 -47c6,-2 23,-1 31,-1 16,0 89,-1 94,1 2,5 0,11 1,15 1,3 1,0 1,4 -8,-3 -5,-2 -16,-2l-92 0c-3,0 -16,1 -18,0 -2,-2 -2,-14 -1,-17zm125 -25c2,3 1,16 0,17 -2,2 -99,0 -117,1 -9,0 -8,0 -8,-9 0,-12 -4,-10 24,-10l93 0c3,0 6,0 8,1zm-8 -7l-108 0c1,-4 6,-9 9,-12 3,-4 7,-7 11,-10 4,-4 8,-6 13,-9 5,-2 14,-1 20,-1 21,0 25,-1 42,17l8 9c3,3 4,3 5,6zm-72 -57c0,-9 5,-7 21,-6 16,0 14,-1 14,17l-35 0 0 -11zm-23 -42c6,-3 4,-4 15,-6 19,-5 40,-4 57,2 13,5 11,7 5,28 -2,5 -10,29 -12,32 -2,-6 -1,-3 -1,-11 0,-18 -7,-16 -23,-16 -8,0 -18,-1 -22,4 -4,7 1,20 -3,22 -4,-10 -17,-44 -16,-55zm14 65c-6,4 -9,5 -18,13 -9,10 -15,19 -17,21 -5,4 -8,-1 -8,16 0,2 0,5 1,7 0,3 2,3 1,6 -1,4 -2,-2 -2,13 0,3 0,5 1,7 1,4 2,1 0,5 -2,5 -1,15 1,20 1,4 -1,2 -1,6 -2,9 1,20 1,20 0,1 -1,2 -2,6 -1,21 3,13 2,19 -2,4 -2,18 1,22 5,6 15,7 24,7 27,0 70,1 93,0 10,-1 17,-2 19,-12 2,-12 -2,-18 -2,-20 1,-2 2,-1 2,-6 0,-4 1,-11 -1,-14 -2,-7 1,1 1,-12 0,-15 -1,-10 -2,-14 0,-3 3,0 2,-13l-5 -2c0,3 1,3 1,5 0,0 -1,1 -1,1 -3,6 2,6 -10,6l-1 2c0,2 1,1 0,2 -5,-4 -1,-4 -11,-4 -18,0 -99,1 -105,-1l1 -16c2,-2 85,-1 94,-1 4,0 25,0 28,0 4,-1 0,-1 3,-1 0,5 0,5 6,6 0,-5 -2,-4 -4,-8l1 0c0,0 0,0 2,-1 0,-3 -1,-2 -2,-5l3 0c0,0 0,0 0,0 0,-5 1,-11 -1,-15 -3,-8 1,0 1,-12 0,-5 1,-11 -1,-14 -3,-5 -4,-1 -9,-8 -15,-22 -22,-23 -32,-31 7,-19 14,-34 19,-55 3,-14 -4,-16 -14,-20 -20,-7 -45,-7 -65,-1 -11,4 -16,7 -13,20 2,10 5,20 9,29 3,9 6,19 10,27z"></path> <path class="fil3" d="M29 173c-1,11 12,45 16,55 4,-2 -1,-15 3,-22 4,-5 14,-4 22,-4 16,0 23,-2 23,16 0,8 -1,5 1,11 2,-3 10,-27 12,-32 6,-21 8,-23 -5,-28 -17,-6 -38,-7 -57,-2 -11,2 -9,3 -15,6z"></path> <path class="fil2" d="M7 399c-1,4 -1,14 1,17 4,4 11,4 16,4l94 0c10,0 9,0 15,-4 0,-4 1,-13 -1,-17 -11,-3 -62,0 -80,-1 -3,0 -4,-1 -7,0 -12,0 -30,-1 -38,1z"></path> <path class="fil3" d="M53 252c-2,1 -4,1 -7,3 -8,6 -6,9 -9,12 -2,2 -4,1 -5,-2 0,-6 10,-15 15,-17 5,-1 6,0 6,4zm71 20c-1,-3 -2,-3 -5,-6l-8 -9c-17,-18 -21,-17 -42,-17 -6,0 -15,-1 -20,1 -5,3 -9,5 -13,9 -4,3 -8,6 -11,10 -3,3 -8,8 -9,12l108 0z"></path> <path class="fil2" d="M7 304c-1,3 -1,15 1,17 2,1 15,0 18,0l92 0c11,0 8,-1 16,2 0,-4 0,-1 -1,-4 -1,-4 1,-10 -1,-15 -5,-2 -78,-1 -94,-1 -8,0 -25,-1 -31,1z"></path> <path class="fil2" d="M132 351c-4,-1 -85,0 -101,0 -27,0 -24,-2 -24,9 0,9 -2,9 8,9 18,-1 114,1 117,-1 2,-2 1,-14 0,-17z"></path> <path class="fil6" d="M132 279c-2,-1 -5,-1 -8,-1l-93 0c-28,0 -24,-2 -24,10 0,9 -1,9 8,9 18,-1 115,1 117,-1 1,-1 2,-14 0,-17z"></path> <path class="fil3" d="M33 390c-2,-3 -3,-16 4,-12 1,2 1,5 1,8 0,5 -2,5 -3,6 22,0 87,2 97,0 1,-4 1,-8 1,-12 0,-5 -1,-6 -6,-6l-94 0c-5,0 -22,-1 -25,1 -3,2 -2,14 -1,17 5,1 21,0 27,0l-1 -2z"></path> <path class="fil3" d="M52 226l35 0c0,-18 2,-17 -14,-17 -16,-1 -21,-3 -21,6l0 11z"></path> <path class="fil0" d="M53 252c0,-4 -1,-5 -6,-4 -5,2 -15,11 -15,17 1,3 3,4 5,2 3,-3 1,-6 9,-12 3,-2 5,-2 7,-3z"></path> </g> </g> </g> </g> </svg> 