<?xml version="1.0" encoding="UTF-8"?> <!-- Creator: CorelDRAW X7 --> <svg xmlns="http://www.w3.org/2000/svg" xmlns:xlink="http://www.w3.org/1999/xlink" xml:space="preserve" width="1.61959in" height="0.746217in" version="1.1" style="shape-rendering:geometricPrecision; text-rendering:geometricPrecision; image-rendering:optimizeQuality; fill-rule:evenodd; clip-rule:evenodd" viewBox="0 0 487 224"> <defs> <style type="text/css"> <![CDATA[ .fil0 {fill:#E52D33} .fil1 {fill:#1E1621} ]]> </style> </defs> <g id="Layer_x0020_1"> <metadata id="CorelCorpID_0Corel-Layer"></metadata> <g id="_2660382734800"> <g> <g> <path class="fil0" d="M276 39c1,-1 2,-3 7,-2 2,1 5,2 8,2 5,1 11,1 16,0 4,-1 8,-2 10,-5 2,12 -4,20 -13,22 -2,0 -6,0 -8,-1 -6,-2 -10,-6 -13,-12 0,0 -2,-5 -7,-4z"></path> <g> <path class="fil0" d="M276 39c5,-8 -2,-10 -1,-17l0 1c-1,6 5,9 1,16zm-1 -16l0 0c-3,6 -3,11 1,16 -5,-5 -4,-10 -1,-16l0 0z"></path> </g> <path class="fil0" d="M276 38c3,-6 -2,-9 -1,-15 -2,5 -3,11 1,15z"></path> </g> <path class="fil0" d="M47 54c-16,0 -27,-2 -42,-10 0,0 -5,-3 -5,-3l0 0c4,3 9,5 13,8 14,8 24,12 38,13l10 0 1 0 1 0 9 0 0 12c-4,-2 -9,-3 -13,-3 -3,0 -5,0 -7,1 -15,7 -9,19 1,25 -29,17 -52,50 -41,85 8,26 32,42 58,42 42,1 53,-52 77,-52 2,0 5,1 7,2 -4,-3 -8,-6 -12,-8 -3,-1 -6,-2 -8,-2 -22,0 -33,46 -71,52 -2,0 -3,0 -5,0 -16,0 -27,-13 -30,-22 -14,-33 6,-67 33,-86 9,-6 16,-8 20,-8 11,0 13,10 6,17 0,0 14,8 14,8 13,-12 -8,-34 -31,-34 -4,0 -8,1 -12,3 -3,-6 1,-11 7,-13 2,-1 5,-1 8,-1 5,0 10,1 13,2l0 -20c21,0 42,0 63,0 4,3 8,7 10,11l0 0 -22 0c0,0 -3,4 -7,10 0,0 0,1 0,1l31 0c0,1 -1,3 -1,4 -6,15 -24,16 -37,14l-1 1c0,37 44,88 100,55 -41,21 -82,-7 -82,-47l0 -1c6,0 13,-1 19,-5 4,-1 8,-4 12,-9 3,-5 5,-9 5,-12l13 0c0,0 2,-4 7,-11 0,0 -1,0 -1,0l-20 0c0,-3 -3,-8 -5,-11l36 0c0,0 -1,0 -1,0l-13 -8c-48,0 -95,0 -143,0l-2 0zm308 0l0 0 -5 0 -1 0 -1 0 0 0 -1 0 -1 0 0 0 -1 0 -1 0 -1 0 0 0 -1 0 -1 0 0 0 -1 0 0 0 -1 0 -1 0 0 0 -1 0 -1 0 0 0 -1 0 -1 0 0 0 -1 0 -1 0 0 0 -1 0 0 0 -1 0 -1 0 0 0 -11 0c7,-7 6,-22 1,-31 -9,-16 -23,-23 -37,-23 -12,0 -26,5 -37,15 -7,6 -15,11 -23,11 -3,0 -9,-3 -13,-5 14,11 31,24 45,33l-26 0 14 8 6 0 0 70 14 8 0 -78 26 0 0 0 30 0 0 12c-3,-1 -6,-2 -9,-2 -13,0 -21,10 -6,24 -36,7 -4,63 26,63 6,0 11,-3 15,-9 -2,-1 -8,-6 -11,-8 -3,5 -9,8 -14,8 -15,0 -20,-17 -19,-29 1,-10 7,-15 15,-17 1,0 2,-1 3,-1 6,0 11,4 11,10 0,3 -1,6 -4,8 -1,1 11,9 11,8 17,-11 -11,-34 -28,-34 0,0 0,0 -1,0 -5,-9 4,-15 14,-15 3,0 6,0 9,2 0,-6 0,-12 0,-20l31 0 0 0 11 0 1 0 26 0 7 0c0,7 0,16 0,23l0 1c-1,13 -33,9 -43,14 -2,2 -4,4 -5,6 -10,20 1,46 13,58 -9,-12 -9,-30 -2,-46 5,-11 24,-9 37,-12l0 0 0 6c0,8 -1,15 -1,23 0,53 39,35 73,10l0 -1c-19,13 -62,37 -60,-15 0,-8 1,-17 1,-25l0 -42 17 0 0 0c9,0 17,1 26,6 1,0 4,2 5,2l0 0 -1 0c-4,-3 -9,-5 -14,-8 -12,-7 -19,-8 -33,-8 -7,0 -14,0 -21,0 -14,0 -29,0 -43,0zm97 8l0 0 0 0zm6 79c27,-1 23,4 15,22l14 -25 -29 3zm-182 -87l-16 0 -29 -21c3,1 5,2 8,2 8,0 12,-5 20,-12 7,-6 13,-12 22,-15 3,-1 6,-2 9,-2 25,0 25,45 2,45 2,1 4,2 6,3l-22 0z"></path> </g> <path class="fil1" d="M433 48l0 -7 -2 0 0 -2 7 0 0 2 -3 0 0 7 -2 0zm6 0l0 -9 3 0 1 6 2 -6 3 0 0 9 -2 0 0 -7 -2 7 -1 0 -2 -7 0 7 -2 0z"></path> </g> </g> </svg> 