<?xml version="1.0" encoding="UTF-8"?> <!-- Creator: CorelDRAW X7 --> <svg xmlns="http://www.w3.org/2000/svg" xmlns:xlink="http://www.w3.org/1999/xlink" xml:space="preserve" width="1.13213in" height="0.754996in" version="1.1" style="shape-rendering:geometricPrecision; text-rendering:geometricPrecision; image-rendering:optimizeQuality; fill-rule:evenodd; clip-rule:evenodd" viewBox="0 0 3657 2438"> <defs> <style type="text/css"> <![CDATA[ .str0 {stroke:#2B2A29;stroke-width:1.11898} .fil2 {fill:#4D4D4D} .fil0 {fill:#E52D33} .fil1 {fill:#E52D33} .fil3 {fill:#F2F2F2} ]]> </style> </defs> <g id="Layer_x0020_1"> <metadata id="CorelCorpID_0Corel-Layer"></metadata> <g id="_2770960082608"> <g> <polygon class="fil0 str0" points="1489,1304 417,1308 420,1268 517,1085 1486,1083 "></polygon> <polygon class="fil0 str0" points="1489,875 1762,650 1489,654 1384,860 "></polygon> <polygon class="fil1" points="2000,652 3155,651 3174,667 3262,854 3257,870 2315,870 2252,871 2014,686 1980,650 "></polygon> </g> <g> <path class="fil2" d="M1844 1859c11,-7 14,-5 28,-5 4,0 13,0 17,0 18,1 15,1 15,8 0,1 4,14 3,39 -1,9 0,16 -15,17l-47 -2c-4,-11 -4,-47 -1,-57zm456 60l161 0 0 34 -229 0 0 -1c-156,1 -315,-1 -471,-1l-1148 0c-42,0 -328,-6 -354,6 -63,28 -40,119 16,121l658 5c33,-1 37,-6 56,14 6,7 5,5 9,13l-734 -1c-36,-6 -61,-34 -71,-66 -7,-19 -6,-38 1,-57 7,-22 14,-27 24,-41l16 -12c1,-1 2,-1 2,-3 1,-1 2,-1 3,-2 -84,8 -140,-43 -133,-129l0 -10c-56,-9 -141,-116 -91,-227 15,-33 31,-41 51,-65 -3,-29 -8,-44 -3,-76 4,-23 16,-41 18,-59 -46,-44 -57,-119 -20,-172 28,-39 9,-18 15,-63 9,-63 61,-74 67,-91 18,-49 -4,-41 61,-94 3,-71 34,-120 96,-139 40,-13 30,4 53,-20 29,-30 82,-32 115,-5 21,17 19,25 29,47 7,14 13,8 46,29 24,-5 68,-28 114,13 55,49 11,52 56,89 70,56 31,97 75,111 20,6 372,2 397,2 92,0 199,5 290,0l0 -184c-117,-7 -137,26 -84,-81l69 -140c7,-14 10,-27 23,-30l261 -1c28,0 31,-10 54,-28 5,-4 8,-6 13,-10 13,-10 51,-44 61,-43 15,0 87,71 109,79 3,9 51,5 69,5l381 0c48,0 106,-3 153,0 10,25 1,12 20,27 -150,4 -347,0 -507,0 -17,0 -60,-3 -73,4 1,8 -2,1 5,6l78 60c26,20 145,117 156,120 24,4 108,0 139,0 -8,12 -7,15 -8,32l-127 0 0 1032c9,2 21,0 33,2zm-1505 -631l154 0 0 1 526 -1c0,-19 0,-15 -2,-187l-950 0c-8,10 -88,173 -90,187l362 0 0 0zm154 32l0 3 -239 0 0 -4 -171 0c-17,1 -6,-3 -10,5 0,45 -4,570 2,595 94,1 74,28 74,-129 0,-117 5,-283 0,-388l2 -5 53 -1c-4,10 -7,3 -12,13l9 17c-22,1 -15,2 -20,7l0 60c6,7 -8,6 10,6 75,0 720,5 733,-3 7,-12 2,-43 2,-60 -1,-11 3,-4 -6,-5 -5,-8 -22,-5 -39,-4l-626 0c-9,-2 -12,-13 -17,-30 26,2 24,-2 33,6 -16,7 -13,-5 -20,10 31,14 27,-15 38,-17l660 -1c-3,6 -3,4 4,3 10,50 3,191 3,254 0,85 0,170 0,255 0,17 -1,5 4,8 3,5 -7,5 29,5 9,0 19,0 29,-1 4,-15 5,-561 1,-600 -105,-3 -214,0 -320,0 -30,0 -126,1 -206,1zm869 510c-8,30 2,74 -7,87 -9,7 -29,4 -40,4 -32,0 -36,2 -44,-3l-4 -54c0,-41 -4,-402 4,-415 7,-7 23,-5 34,-5 72,1 209,-8 268,2l2 474c-31,3 -84,2 -93,-2 -5,-3 -3,0 -4,-7l-2 -78 0 -1c-7,0 -6,2 -5,-4l-105 -1 -4 3zm-439 -193l0 76c-29,0 -57,0 -86,0 -33,0 -67,-11 -60,26 16,11 116,6 145,5l1 76c-169,-4 -380,0 -557,0 -19,0 -64,-8 -63,17 0,23 40,15 60,15l560 0 0 67 -742 0 0 -175c47,-1 255,5 281,-4 10,-34 -18,-27 -46,-27 -69,0 -173,2 -236,-1l0 -182 743 0 0 76c-83,-3 -193,-1 -281,-1 -21,0 -77,-10 -78,16 0,26 54,16 75,16 87,0 202,3 284,0zm318 -218c-8,29 -5,13 -5,51l0 449 -185 0 0 -1038c2,-11 26,-26 43,-40l321 -252c9,5 18,13 29,21l326 257c17,14 10,53 10,95l0 531c0,141 3,285 0,426l-176 0c-1,-29 -3,-468 2,-494 -2,-33 -310,-17 -365,-6zm-1468 476l-33 -2c-3,8 -6,18 -27,17 -18,-2 -9,-2 -14,-6l20 -19c-8,-5 -17,-11 -22,-22 -9,2 -11,4 -23,3l8 -64c3,-8 2,-5 6,-9 -4,-53 -34,-11 -82,-74 -24,-31 -41,-79 -24,-128 10,-31 27,-53 51,-70 10,-7 15,-12 10,-28 -6,-24 -9,-50 -3,-76 6,-26 22,-42 24,-63 -3,-8 -59,-37 -48,-105 3,-23 13,-40 25,-53 28,-29 7,-18 10,-55 5,-63 62,-66 67,-86 8,-30 -2,-33 18,-60 16,-20 25,-20 43,-34 8,-48 -6,-53 23,-92 16,-22 47,-39 76,-41 34,-2 21,1 39,-19 9,-10 21,-18 42,-18 50,1 50,45 56,62 4,12 21,9 36,16 14,7 20,17 32,23 30,-5 40,-32 85,-9 32,17 34,37 38,75 21,18 31,17 50,43 11,13 29,47 22,65 -26,15 -196,-9 -229,6 -10,5 -26,42 -33,58l-60 121c-9,18 -28,47 -20,63 22,13 75,2 105,6l1 587c-7,19 -45,13 -66,13 -67,0 -101,8 -145,-19 -43,-26 -12,-12 -58,-6zm1176 -1042c3,-17 77,-159 90,-187l221 0 -202 163c-6,5 -18,15 -24,20 -17,10 -61,4 -85,4z"></path> <path class="fil2" d="M2799 517l3 3c8,18 21,28 26,45 -3,7 -5,10 -11,16 -8,10 -10,9 -17,13l2 0c0,6 1,15 1,21 0,4 -1,7 -1,10 -2,8 -2,5 -4,8l-91 3c3,12 9,9 3,20 0,1 -2,6 -3,5 0,-1 -2,1 -2,2l445 0 5 9 6 10c4,15 14,31 20,44 12,24 59,114 60,127l-803 0c-3,11 0,5 -10,10 -5,1 -7,0 -13,3l-1 19 731 -1 0 1035 -779 1c3,23 0,19 -10,31 185,6 380,0 566,0 94,0 188,0 283,0 51,0 90,-8 116,25 12,15 17,34 11,59 -5,21 -16,27 -30,37l-1 36c52,-21 89,-84 51,-143 -40,-65 -100,-37 -175,-46l-1 -1033c29,-6 81,5 103,-5 12,-18 -6,-41 -15,-59l-72 -147c-5,-9 -11,-24 -16,-32 -11,-16 -40,-10 -76,-10 -62,0 -228,4 -269,-1l1 -70 30 -2c4,-7 -1,-2 6,-7 -1,-14 -3,-12 -10,-20l-24 -1 -27 -38c0,6 1,8 -1,15 -5,13 -1,4 -7,8z"></path> <path class="fil2" d="M2426 2085c-86,18 -99,169 14,187 79,13 201,-15 238,17 17,14 27,34 22,62 -10,56 -67,52 -121,52l-1690 0c-33,0 -110,10 -118,-50 -2,-2 -3,-2 -4,-8 -2,-9 -1,-4 0,-12 -26,-4 -17,-14 -29,-15 -2,39 2,49 19,75 7,11 4,11 15,19 43,36 122,23 195,23l1578 0c61,0 118,8 154,-23 51,-45 48,-137 -34,-167 -23,-8 -57,-3 -83,-3 -44,0 -135,8 -164,-12 -44,-29 -31,-109 18,-113 6,-11 16,-7 45,-7 17,0 34,0 51,0 231,0 490,5 714,0l-10 -16c-4,-5 -4,-5 -8,-12 -62,4 -138,1 -202,1 -96,0 -542,-4 -600,2z"></path> <path class="fil2" d="M1993 1144l150 0 1 143 -151 1 0 -144zm-203 2c10,-7 26,-4 42,-4l118 -1c12,2 6,1 10,5 1,1 1,1 2,2 0,2 0,2 1,3l0 29c0,13 0,25 0,37 0,13 0,25 0,37 0,6 1,12 1,18 -1,17 -2,13 -6,16l-166 0c-11,-7 2,13 -4,-4 -3,-12 -3,-128 2,-138zm-195 -1l163 0 0 143 -162 0 -1 -143zm398 -181l152 0 -1 148 -150 0 -1 -148zm-202 0l169 0c0,1 1,1 1,2 0,2 1,2 1,3 4,15 1,136 0,144 -18,4 -154,4 -174,0 -3,-22 -1,-51 -1,-74l4 -75zm-196 0l163 0 -1 148 -160 0 -2 -148zm-27 -23c-7,42 -2,134 -2,182 0,62 1,124 0,186 3,8 2,6 8,9l591 0c19,-7 11,-64 11,-84 0,-32 0,-65 0,-97 0,-65 0,-130 -1,-195 -7,-4 -1,4 -6,-5 -26,-8 -254,-3 -300,-3 -51,0 -101,0 -152,0 -31,0 -131,-8 -149,7z"></path> <path class="fil2" d="M813 411c-27,0 -24,-3 -43,7 -7,4 -12,5 -19,3 -21,-7 1,0 -15,-13 -10,-8 -46,-15 -66,-43 -36,-40 -44,-98 -19,-150 7,-14 17,-25 29,-38 64,-63 138,-21 152,-29 8,-5 60,-139 216,-112 50,8 96,42 120,81 4,6 9,14 12,22 5,9 5,15 16,20 14,4 64,-39 123,-4 79,47 28,107 80,102 113,-12 123,152 9,154 -40,1 -81,0 -122,0 -155,0 -318,5 -473,0zm2 -296c-61,-8 -114,-7 -164,46 -36,38 -62,107 -36,174 56,143 202,108 342,108 149,0 299,2 447,0 66,0 116,-42 116,-111 0,-18 -3,-31 -10,-45l-12 -21c-27,-33 -47,-36 -80,-42 -24,-4 -16,-8 -24,-30 -3,-7 -10,-20 -14,-26 -44,-61 -102,-65 -171,-47 -12,-14 -19,-31 -32,-46 -96,-109 -264,-96 -347,17 -6,8 -9,16 -15,23z"></path> <path class="fil2" d="M2414 1145l191 -1 1 144 -192 0 0 -143zm0 -180l192 -1 0 148 -191 0 -1 -147zm-31 -7l0 334c0,22 0,27 24,27 55,0 180,3 227,-2 10,-27 4,-152 4,-190 0,-41 5,-161 -4,-191 -26,-9 -159,-4 -207,-4 -31,-1 -44,-6 -44,26z"></path> <path class="fil2" d="M2811 1145l192 0 0 143 -192 -1 0 -142zm0 -181l193 0 -2 148 -191 0 0 -148zm-26 -31c-3,10 0,5 -6,8 4,40 1,265 1,337 -1,24 -5,30 10,40 21,1 222,4 232,0 9,-3 2,1 7,-4 14,-16 4,-329 5,-377 -6,3 -4,3 -4,-4 -36,2 -213,4 -240,-2 5,6 3,3 -5,2z"></path> <path class="fil2" d="M2415 1447l191 0 0 149 -192 -1 1 -148zm-1 325l-1 -145 176 -1c16,1 14,3 17,6l0 134c-7,13 -157,6 -192,6zm5 31l114 0c124,5 105,10 105,-91 0,-47 6,-282 -5,-292 -11,-9 -181,-5 -219,-5 -5,0 -13,0 -17,1l-11 6c-7,17 -5,364 0,374 9,9 19,8 33,7z"></path> <path class="fil2" d="M2810 1628l193 -1 1 145 -193 0 -1 -144zm0 -178c4,-10 6,-7 21,-7 29,1 166,-2 172,4 7,12 5,128 2,150 -16,5 -139,3 -174,3 -23,0 -19,-4 -21,-7l0 -143zm-26 -33c-3,13 0,5 -5,7l0 371c8,2 4,0 8,8l242 0c1,-9 -2,-8 5,-6 -1,-54 6,-352 -2,-376l-13 -5c-5,-1 -11,-1 -16,0 -13,1 -14,3 -29,1 -19,-3 -41,-2 -62,-1 -42,1 -87,-1 -128,1z"></path> <path class="fil2" d="M2625 535l-2 12c13,-5 14,-13 27,10l6 11c14,-6 43,-35 59,-7l17 1c-6,-12 -13,-17 -16,-32l-36 0 -14 -38c-16,-2 -29,3 -39,-7 -12,-13 -2,-22 -4,-33 -2,-11 -13,-13 -23,-20 -31,-23 -44,-62 -32,-101 7,-25 38,-41 32,-59 -10,-14 -29,-14 -35,-38 -11,-48 42,-75 75,-44 17,17 4,39 26,47 16,3 44,-51 91,-19 49,34 13,76 15,98 17,13 23,6 38,17 12,8 21,22 22,40 1,50 -42,40 -51,65 12,7 12,-11 29,23 10,-2 11,-4 19,-7 -4,-19 -1,-10 3,-13 1,-28 -14,7 -1,-38 10,4 11,7 15,15l11 -9c20,-83 -19,-90 -46,-114 6,-31 10,-65 -26,-95 -10,-9 -28,-19 -45,-22 -30,-4 -37,4 -60,11l-10 -12c-5,-6 -3,-5 -9,-11 -41,-37 -96,-20 -119,16 -27,45 6,85 17,101 -32,45 -37,102 -6,146l23 24c19,16 8,8 15,33 3,10 12,21 19,27 15,11 24,6 35,15l-20 7z"></path> <path class="fil2" d="M688 1424c-10,4 -8,3 -18,0 -10,-34 17,-21 19,-7 1,6 0,5 -1,7zm728 491l2 -516 -9 -1c0,-7 2,-7 -4,-3 -9,-8 -25,-6 -38,-6 -13,0 -27,0 -40,0l-589 0c-12,5 15,5 -25,3 -20,-1 -70,-6 -90,-3 -13,2 -9,0 -16,8 -6,-2 -4,-2 -2,5l2 -5 53 -1c-4,10 -7,3 -12,13l9 17c-22,1 -15,2 -20,7 92,0 227,0 387,0 46,0 332,3 352,-2l-2 62 -737 0c6,7 -8,6 10,6 75,0 720,5 733,-3 7,-12 2,-43 2,-60 -1,-11 3,-4 -6,-5 -5,-8 -22,-5 -39,-4l-626 0c-9,-2 -12,-13 -17,-30 26,2 24,-2 33,6 -16,7 -13,-5 -20,10 31,14 27,-15 38,-17l660 -1c-3,6 -3,4 4,3 10,50 3,191 3,254 0,85 0,170 0,255 0,17 -1,5 4,8 3,5 -7,5 29,5 9,0 19,0 29,-1 4,-15 5,-561 1,-600 -105,-3 -214,0 -320,0 -629,0 -7,-40 -616,0 -17,1 -6,-3 -10,5 358,0 150,0 606,0 113,0 226,-1 338,0l0 593 -57 -2z"></path> <path class="fil2" d="M1110 2111c19,-5 176,-1 220,-2 4,0 14,0 17,1l10 3c1,-1 2,1 3,1 27,4 50,30 53,56 4,33 -21,63 -46,67 -8,10 -19,7 -44,7l-370 0 -25 27 432 1c41,-2 82,-42 84,-85 2,-27 -4,-48 -17,-67 -11,-15 -28,-31 -50,-34 -52,-8 -259,-3 -329,-4 6,36 27,9 62,29z"></path> <path class="fil2" d="M1912 1530l50 1 -1 240 -49 1 0 -242zm74 270c13,-14 7,-123 7,-148 0,-34 6,-125 -4,-151 -21,-4 -85,-5 -105,1 -9,26 -4,164 -4,203 0,19 -5,88 8,95 12,7 87,5 98,0z"></path> <path class="fil2" d="M1791 1529l42 0c6,3 6,-9 5,28 0,62 3,165 0,216l-50 -1c-4,-40 0,-158 -1,-215 0,-16 -2,-19 4,-28zm-30 267c13,13 96,6 98,4 14,-8 9,-48 9,-78l0 -182c0,-48 -2,-42 -50,-41 -12,0 -33,-2 -44,0 -18,2 -17,10 -17,28 0,46 -3,254 4,269z"></path> <path class="fil2" d="M789 984c-13,4 -5,-5 -11,9 -2,5 -2,10 1,14 5,10 14,8 26,8 77,-1 471,4 482,-3 15,-7 12,-29 -17,-29 -75,-2 -469,-2 -481,1z"></path> <path class="fil2" d="M3485 2025c-12,-90 128,-99 140,-20 13,92 -129,100 -140,20zm48 -103c-130,28 -90,212 43,189 128,-23 96,-219 -43,-189z"></path> <path class="fil2" d="M3209 2276c6,-2 5,-4 5,2 26,3 47,35 47,60 0,29 -23,54 -46,61 -35,10 -162,2 -209,6l-20 0c-2,5 0,2 0,11 -1,7 -1,10 -3,16l230 0c41,-3 79,-47 79,-94 0,-49 -37,-89 -78,-94l-13 1c-6,10 -15,16 -27,19 -5,-8 -7,-14 -10,-20l-82 0c5,10 12,19 22,27l84 0c26,0 21,2 21,5z"></path> <path class="fil2" d="M2649 600c5,4 44,52 49,64 -44,-1 8,-16 -48,-33 -51,4 -112,0 -166,0 -56,0 -112,0 -168,0 -109,0 -227,4 -335,0 3,9 51,5 69,5l381 0c48,0 106,-3 153,0 10,25 1,12 20,27 -150,4 -347,0 -507,0 -17,0 -60,-3 -73,4 1,8 -2,1 5,6 6,-5 -6,-6 31,-5 216,3 454,0 670,0 51,0 407,-6 425,4 1,11 -2,6 6,10l-6 -10 -5 -9 -445 0c0,-1 2,-3 2,-2 1,1 3,-4 3,-5 6,-11 0,-8 -3,-20l91 -3c2,-3 2,0 4,-8 0,-3 1,-6 1,-10 0,-6 -1,-15 -1,-21 -3,4 -2,1 -3,8 -1,2 -1,7 -1,9 0,7 0,15 0,22 -22,-4 -108,1 -113,-2 -7,-6 -2,-25 -2,-33 2,-16 -2,-23 -2,-36l34 -1c-16,-28 -45,1 -59,7l-6 -11c-13,-23 -14,-15 -27,-10l2 -12c-9,6 -13,21 11,26l12 4 1 35z"></path> <path class="fil2" d="M1027 2103c-9,-5 -4,-1 -11,-9 -4,-5 -6,-7 -9,-11l24 -1 -4 21zm-763 6c20,11 184,5 208,5 73,0 590,4 638,-3 2,8 -3,2 8,3l242 0c-1,0 -2,-2 -3,-1l-10 -3c-3,-1 -13,-1 -17,-1 -44,1 -201,-3 -220,2 -35,-20 -56,7 -62,-29 70,1 277,-4 329,4 -8,-15 -115,-8 -134,-8l-273 1c-50,-4 -352,-1 -417,-1 -90,0 -189,-4 -278,0l658 5c33,-1 37,-6 56,14 6,7 5,5 9,13l-734 -1z"></path> <path class="fil2" d="M1216 1984c-3,34 12,26 67,26 33,0 65,0 98,0l144 0c27,1 22,3 39,-8 3,-32 -23,-23 -69,-23 -56,0 -255,-6 -279,5z"></path> <path class="fil2" d="M2865 2248c-57,8 -90,97 -46,148l9 -5 20 24c12,-3 10,-5 19,-11 5,4 9,7 14,11 -6,17 -15,9 -4,15 8,4 21,3 30,1 -6,-4 -8,-5 -13,-12l-12 -19c-27,-3 -50,-29 -52,-58 -1,-32 20,-61 45,-64 11,-14 63,-7 84,-6 76,0 36,-5 74,-15 18,11 -11,16 40,13 -19,-24 -9,-2 -25,-15l-8 -8c0,0 -1,-1 -2,-2 -1,-6 -154,0 -173,3z"></path> <path class="fil2" d="M2464 1981c-10,7 -8,23 3,28 8,3 121,1 135,1 23,0 174,3 182,-2 10,-6 10,-24 -1,-28 -4,-2 -310,-4 -319,1z"></path> <path class="fil3" d="M2737 802c-9,3 -9,-1 -11,12 -1,7 1,12 5,15 12,10 293,3 293,2 12,-4 14,-19 5,-27 -6,-6 -29,-4 -40,-4 -47,1 -234,-4 -252,2z"></path> <path class="fil2" d="M2034 566c-7,6 -8,15 -1,22 6,6 21,4 31,4 32,0 191,3 199,-4 6,-6 6,-18 0,-23 -9,-9 -172,-4 -199,-5 -4,0 -14,0 -17,1 -14,2 -6,-2 -13,5z"></path> <path class="fil2" d="M2464 265c25,-12 41,22 20,34 -9,6 -23,4 -28,-6 -3,-5 -4,-11 -2,-17 4,-15 1,-6 10,-11zm0 -34c-71,16 -48,118 23,101 26,-6 44,-32 37,-63 -5,-25 -33,-45 -60,-38z"></path> <path class="fil2" d="M2507 70c17,0 17,2 26,10l1 20c-26,21 -56,-3 -27,-30zm-2 -30c-72,20 -42,113 22,100 25,-6 45,-30 38,-63 -5,-26 -32,-45 -60,-37z"></path> <path class="fil2" d="M2944 580c22,7 73,3 99,3l74 0c4,0 10,0 14,-1l8 -3c16,-6 2,-24 0,-27 -35,-3 -80,0 -116,0 -57,0 -94,-10 -79,28z"></path> <path class="fil3" d="M571 1156c15,24 21,17 52,17l141 -1c19,-3 25,-31 -9,-31l-172 0 -12 15z"></path> <path class="fil2" d="M3251 2082l32 0 -1 28c-20,-5 -15,-16 -31,-28zm-23 0c-16,-11 -353,-4 -404,-4l-398 7c58,-6 504,-2 600,-2 64,0 140,3 202,-1 4,7 4,7 8,12l10 16c-224,5 -483,0 -714,0 -17,0 -34,0 -51,0 -29,0 -39,-4 -45,7 44,-7 563,-3 654,-3 28,0 174,3 199,-3 7,-2 7,-2 12,-3l1 -36c-23,9 -53,7 -74,10z"></path> <path class="fil2" d="M827 2252c25,-21 33,-2 45,4 20,-15 19,-14 51,-12 -8,9 -5,2 -11,13 6,10 2,7 11,14l-85 -1 -11 -18zm-44 5l8 -2c8,28 19,-2 22,22 50,-13 516,11 547,-5l-432 -1 25 -27 370 0c25,0 36,3 44,-7 -89,8 -204,2 -296,2l-188 2c-26,2 -26,-6 -72,3 -26,5 -23,4 -28,13z"></path> <path class="fil3" d="M2944 721c16,6 157,5 165,0 14,-11 5,-28 -19,-28l-124 0c-25,0 -31,8 -22,28z"></path> <path class="fil2" d="M2865 2248c19,-3 172,-9 173,-3 1,1 2,2 2,2l8 8c16,13 6,-9 25,15 -51,3 -22,-2 -40,-13 -38,10 2,15 -74,15 -21,-1 -73,-8 -84,6l166 -3c13,1 28,1 40,-1 16,-1 89,8 128,2 -2,6 -2,3 5,2 0,-6 1,-4 -5,-2 0,-3 5,-5 -21,-5l-84 0c-10,-8 -17,-17 -22,-27l82 0c3,6 5,12 10,20 12,-3 21,-9 27,-19l13 -1c-13,-7 -242,-5 -265,-5 -24,0 -71,-6 -84,9z"></path> <path class="fil3" d="M2399 771c19,6 138,6 159,1 8,-17 8,-12 -2,-28l-125 -1c-24,0 -42,-1 -32,28z"></path> <path class="fil2" d="M2819 2396c7,15 27,26 44,34 25,12 49,5 79,5l-4 -5c-1,0 -3,-4 -3,-4l16 -20 14 3c-2,18 -1,14 -13,25 27,1 238,11 261,-2l-230 0c2,-6 2,-9 3,-16 0,-9 -2,-6 0,-11l20 0c-22,-14 -94,3 -124,-5l12 19c5,7 7,8 13,12 -9,2 -22,3 -30,-1 -11,-6 -2,2 4,-15 -5,-4 -9,-7 -14,-11 -9,6 -7,8 -19,11l-20 -24 -9 5z"></path> <path class="fil2" d="M1568 941c-14,11 -7,62 -7,85l0 239c0,11 -5,38 5,44 1,-62 0,-124 0,-186 0,-48 -5,-140 2,-182 18,-15 118,-7 149,-7 51,0 101,0 152,0 46,0 274,-5 300,3 5,9 -1,1 6,5l-6 -5c-8,-14 -49,-7 -68,-7l-505 -1c-19,0 -22,-1 -28,12z"></path> <path class="fil3" d="M688 1227c16,8 79,5 104,5 15,-1 37,-5 26,-24 -8,-15 -85,-9 -104,-9 -23,0 -32,2 -26,28z"></path> <path class="fil2" d="M2945 1979l-84 0c-31,0 -30,22 -17,29 4,3 111,5 121,-1 15,-11 7,-28 -20,-28z"></path> <path class="fil2" d="M551 1995c10,22 42,15 83,15 14,0 25,2 27,-12 4,-27 -32,-20 -81,-19l-20 0c-5,8 -5,6 -9,16z"></path> <path class="fil2" d="M1833 1529l-2 241 -40 -1 0 -240c-6,9 -4,12 -4,28 1,57 -3,175 1,215l50 1c3,-51 0,-154 0,-216 1,-37 1,-25 -5,-28z"></path> <path class="fil2" d="M1355 985c-22,9 -13,28 5,30 98,10 74,-31 51,-32 -17,-1 -43,-3 -56,2z"></path> <path class="fil2" d="M1580 570l0 17c20,11 28,7 56,7 14,0 22,0 24,-13 4,-25 -27,-19 -54,-19 -21,0 -14,1 -26,8z"></path> <path class="fil2" d="M2781 438c3,15 -1,4 8,14 8,10 18,26 16,40 -1,5 -4,16 -6,25 6,-4 2,5 7,-8 2,-7 1,-9 1,-15l27 38c-1,-15 5,-25 6,-42 0,-16 -6,-20 -11,-36 -8,3 -9,5 -19,7 -17,-34 -17,-16 -29,-23z"></path> <path class="fil2" d="M827 2252l11 18 85 1c-9,-7 -5,-4 -11,-14 6,-11 3,-4 11,-13 -32,-2 -31,-3 -51,12 -12,-6 -20,-25 -45,-4z"></path> <path class="fil2" d="M1960 964l0 146 -169 0 0 -146 -4 75c0,23 -2,52 1,74 20,4 156,4 174,0 1,-8 4,-129 0,-144 0,-1 -1,-1 -1,-3 0,-1 -1,-1 -1,-2z"></path> <path class="fil2" d="M738 2318c12,1 3,11 29,15 -1,8 -2,3 0,12 1,6 2,6 4,8l6 -48c-12,8 -1,4 -12,5 -18,-17 12,-21 23,-29 -2,-19 -5,-12 -9,-24 -13,6 -17,14 -24,24 -3,5 -6,10 -9,14 -5,10 -6,11 -8,23z"></path> <path class="fil2" d="M1792 1288l-2 -142 170 0 -2 142c4,-3 5,1 6,-16 0,-6 -1,-12 -1,-18 0,-12 0,-24 0,-37 0,-12 0,-24 0,-37l0 -29c-1,-1 -1,-1 -1,-3 -1,-1 -1,-1 -2,-2 -4,-4 2,-3 -10,-5l-118 1c-16,0 -32,-3 -42,4 -5,10 -5,126 -2,138 6,17 -7,-3 4,4z"></path> <path class="fil2" d="M2783 531c3,9 5,11 10,18 6,9 11,7 3,12l4 33c7,-4 9,-3 17,-13 6,-6 8,-9 11,-16 -5,-17 -18,-27 -26,-45l-19 11z"></path> <path class="fil2" d="M2757 562l39 -1c8,-5 3,-3 -3,-12 -5,-7 -7,-9 -10,-18l-43 -2c5,14 12,18 17,33z"></path> <path class="fil2" d="M779 2257c4,12 7,5 9,24 -11,8 -41,12 -23,29 11,-1 0,3 12,-5 8,-13 19,-25 36,-28 -3,-24 -14,6 -22,-22l-8 2 -4 0z"></path> <path class="fil2" d="M2650 631c56,17 4,32 48,33 -5,-12 -44,-60 -49,-64l1 31z"></path> <path class="fil2" d="M2732 562l25 0c-5,-15 -12,-19 -17,-33l-24 1c3,15 10,20 16,32z"></path> <path class="fil2" d="M2394 885l20 0 1 -19c6,-3 8,-2 13,-3 10,-5 7,1 10,-10l-36 0c-8,12 -7,15 -8,32z"></path> <path class="fil2" d="M196 1893c-10,0 -4,1 -11,-2 -6,-2 2,1 -5,-2 0,-1 -2,-1 -2,-2 -1,-1 -2,-1 -3,-2l-20 19c5,4 -4,4 14,6 21,1 24,-9 27,-17z"></path> <path class="fil2" d="M2942 2435l10 -1c12,-11 11,-7 13,-25l-14 -3 -16 20c0,0 2,4 3,4l4 5z"></path> <path class="fil2" d="M3251 2082c16,12 11,23 31,28l1 -28 -32 0z"></path> <path class="fil2" d="M2832 441c5,-3 3,-2 7,-7 0,0 1,-1 1,-2 9,-9 12,-10 17,-23l-11 9c-4,-8 -5,-11 -15,-15 -13,45 2,10 1,38z"></path> <path class="fil2" d="M2354 1938c3,-5 4,8 3,-7 -1,-15 -17,-12 -28,-11 2,8 6,18 15,21 15,3 8,-2 10,-3z"></path> <path class="fil2" d="M689 1417c-2,-14 -29,-27 -19,7 10,3 8,4 18,0 1,-2 2,-1 1,-7z"></path> <path class="fil2" d="M1027 2103l4 -21 -24 1c3,4 5,6 9,11 7,8 2,4 11,9z"></path> <path class="fil3" d="M1136 1195c14,24 21,17 52,17l141 -1c18,-3 24,-31 -10,-31l-171 0 -12 15z"></path> <path class="fil3" d="M1525 730c8,3 59,2 67,0 4,-7 4,-5 -1,-12l-53 0c-9,0 -17,0 -13,12z"></path> </g> </g> </g> </svg> 