<?xml version="1.0" encoding="UTF-8"?> <!-- Creator: CorelDRAW X7 --> <svg xmlns="http://www.w3.org/2000/svg" xmlns:xlink="http://www.w3.org/1999/xlink" xml:space="preserve" width="2.2947in" height="0.941409in" version="1.1" style="shape-rendering:geometricPrecision; text-rendering:geometricPrecision; image-rendering:optimizeQuality; fill-rule:evenodd; clip-rule:evenodd" viewBox="0 0 1386 568"> <defs> <style type="text/css"> <![CDATA[ .fil1 {fill:#4D4D4D} .fil0 {fill:#E52D33} ]]> </style> </defs> <g id="Layer_x0020_1"> <metadata id="CorelCorpID_0Corel-Layer"></metadata> <g id="_2823561743024"> <polygon class="fil0" points="258,141 329,169 329,234 255,210 "></polygon> <polygon class="fil0" points="346,178 403,202 404,263 345,242 "></polygon> <path class="fil0" d="M918 422c0,1 -21,3 -19,3 1,0 -1,14 -1,14 0,0 22,-8 31,-5 9,3 24,-3 40,15 0,0 25,8 34,42 0,0 3,21 0,33l0 3 23 -2 36 -1c0,0 22,-3 27,-9 0,0 22,-16 28,-26 0,0 18,-23 47,-24l31 -3 38 -1 71 0 -1 -17 -6 0 -29 -1 -10 -25 -16 -32c0,0 -10,-18 -17,-16 -6,2 -41,1 -41,1l2 29 1 14c0,0 -43,4 -50,9l-16 9 -37 35c0,0 -31,18 -36,20l-24 6 -10 -19 -15 -24 -17 -15 -19 -9 -14 -4 -14 -2 -17 2z"></path> <polygon class="fil0" points="445,313 464,314 526,334 528,383 463,369 442,365 "></polygon> <polygon class="fil0" points="325,366 404,382 403,445 326,434 "></polygon> <polygon class="fil0" points="171,239 239,261 238,314 169,299 "></polygon> <polygon class="fil0" points="599,357 640,371 639,413 598,403 588,401 588,395 587,357 "></polygon> <polygon class="fil0" points="579,278 618,293 619,341 581,327 571,324 571,318 570,281 "></polygon> <g> <path class="fil1" d="M1159 549c2,3 6,7 9,10 5,4 3,1 3,3 -5,2 -117,0 -135,0 4,-5 5,-4 9,-8 4,-4 6,-3 13,-3 33,0 68,-2 101,-2zm-144 12c4,-3 8,-5 11,-11 5,0 12,0 15,2 -5,6 -17,11 -26,9zm-35 1l7 -7c4,-2 10,-1 14,-2 4,-1 7,-2 10,-4 5,-3 4,-4 10,-1 0,2 1,3 -5,8 -3,1 -7,3 -10,4 -9,2 -17,2 -26,2zm280 1c4,-4 5,-3 9,-8 7,-8 2,-8 11,-9 -1,5 -4,8 -8,11 -3,3 -6,7 -12,6zm-23 0c3,-5 6,-4 13,-15l19 -1c-1,3 -2,4 -6,7 -2,2 -5,4 -7,5 -5,3 -13,6 -19,4zm-218 -20c2,-1 0,0 2,-1l28 1 -3 4c-5,0 -11,0 -16,0 -8,0 -9,-3 -11,-4zm-25 6l9 -16c0,0 0,0 0,1 0,0 1,0 1,0 0,0 0,1 0,1l7 8 -17 6zm160 -26c-2,-24 17,-44 38,-46 44,-4 60,48 37,71 -32,32 -72,6 -75,-25zm122 -35c7,0 13,-1 22,0l-2 21c-5,0 -12,1 -17,-1 -1,-5 -2,-14 -3,-20zm-57 -12l14 0c8,10 18,30 18,47 0,10 -3,20 -8,27 -6,7 -11,12 -21,12l9 -8c8,-7 15,-23 14,-37 -1,-28 -19,-35 -26,-41zm-70 43c0,13 3,16 5,25l-102 3 2 -4 74 -2c6,-1 18,0 21,-5 -6,-4 -8,5 -9,-13 0,-17 8,-36 20,-48 4,-4 8,-7 13,-9 8,-2 34,-3 42,-3 6,0 13,4 13,9 -29,-1 -60,-4 -74,26 -3,6 -6,13 -5,21zm-12 2l0 15c-5,0 -76,5 -80,2l-2 -1c0,-1 0,-1 -1,-1 -3,5 -6,3 -20,3 -13,0 -11,-1 -15,-1 -2,0 -5,6 -13,-10 40,-2 69,5 96,-20l14 -15c9,-11 21,-21 35,-24 4,-1 6,-2 9,-1l-1 2c-13,14 -23,29 -22,51zm-113 -31c0,0 0,-1 0,0l-7 -17c10,-1 22,-2 31,-2 6,-1 28,-4 30,-3 -13,9 -34,22 -54,22zm-44 59c0,0 0,0 0,1l1 3c-9,3 -9,10 -27,8 8,-6 14,-7 24,-19 17,-21 16,-50 0,-72 -5,-8 -9,-10 -17,-16l3 0c27,0 45,53 35,75 -11,21 -13,18 -19,20zm-77 -96c-4,-1 -2,-12 -2,-14l11 -2 1 10 -1 2c-4,1 -7,2 -9,4zm112 14c-4,-4 -7,-9 -10,-15 45,0 57,-2 100,-8 -2,4 -12,11 -14,14 -7,6 -10,5 -22,6 -17,1 -36,4 -54,3zm-83 -23c0,4 0,2 3,2l1 -9c2,0 5,1 7,1 4,0 2,-1 7,-1 2,2 3,4 6,6 4,2 7,2 9,6 -3,0 -13,-2 -18,-2 1,1 2,3 3,5 2,2 3,2 4,4l3 5c4,-2 3,-3 11,4 26,24 23,66 -7,86 -39,27 -86,-7 -85,-42l0 -5 -5 -4c-1,11 1,15 3,24l4 11c-2,2 -7,2 -11,2l-3 -21c0,-2 1,-5 -1,-6 -3,-5 -2,0 -2,0 0,26 7,26 -10,27 0,-5 -1,-5 0,-10 1,-6 0,-2 -1,-8l-3 -109c0,-8 -1,-15 -1,-22 -1,-11 2,-8 4,-16 -6,-1 -2,-2 -8,7 -3,2 6,127 2,144 -10,3 -68,7 -78,4 -3,2 -8,2 -11,2l-87 0c-5,0 -5,0 -7,-2l0 1 -4 0c-2,1 -1,-2 -2,3 42,2 103,1 146,0l46 -3 0 9c-14,3 -37,3 -52,3 -19,1 -38,0 -57,0 -9,0 -18,-1 -25,-1 -7,0 -18,0 -27,0 -18,-1 -38,-2 -57,-2 2,2 -1,4 12,4l40 2c27,3 82,3 110,3 20,0 38,-2 57,-2 0,10 -1,11 2,13 2,-3 0,-7 2,-14l11 -1c1,11 0,11 3,13 5,-8 -6,-13 8,-14 12,-1 6,0 18,10 2,2 4,3 6,5 1,0 3,1 3,2 4,2 2,0 4,3l-254 -1 -164 0 -45 0 -2 4c23,-1 42,0 65,0l205 1c135,0 272,2 408,2 5,0 11,1 16,0 4,0 37,2 45,1l75 0c15,1 128,0 132,-4l-112 -1c20,-26 23,-8 33,-32 2,-5 3,-9 4,-14 1,-3 2,-4 -1,-6 -1,-1 -1,-1 -4,-1 0,0 0,0 -1,-1 -3,0 -1,0 -3,-1l1 -21 4 2c2,-7 0,-19 -1,-26 -1,1 0,2 -5,4l2 15c-10,2 -22,-1 -31,2 -1,3 3,26 4,29l21 0c0,7 -4,20 -3,22 3,0 2,3 5,-9 1,-4 2,-9 3,-12 7,0 5,2 2,11 -2,5 -4,10 -6,15l-45 3c4,-16 3,-33 -3,-47 -6,-16 -20,-29 -21,-31l65 -2c2,-1 3,-1 7,-1 1,-1 -1,-3 -1,-3 -11,-1 -77,-1 -90,0 -25,2 -57,1 -78,13 -10,6 -19,21 -33,33 -4,4 -8,7 -13,10 -17,10 -39,8 -60,8 -7,0 -16,2 -21,1 0,-13 7,-25 -7,-49 -5,-10 -11,-18 -20,-25 -2,-2 -2,-2 -4,-4 -2,-1 -3,-1 -5,-3 -5,-1 -7,1 -10,-2l-7 -7c-6,1 -14,-4 -28,-2l-6 1c-2,0 -2,0 -2,-1l-1 -8c19,-3 25,-2 42,3 5,0 4,-1 8,2l3 2c4,2 2,0 3,3 6,0 13,7 17,10 5,4 9,8 13,15 4,5 8,10 11,17l9 19c8,0 25,-5 31,-8 15,-6 27,-14 39,-24l20 -19c0,0 0,0 0,-1l3 -2c0,0 0,-1 1,-1 8,-9 15,-14 30,-17 34,-6 72,-9 108,-7 2,6 10,27 13,29l1 1c1,0 1,0 1,0l31 1 1 4c3,4 -1,3 4,3 1,-4 -1,-5 1,-8 3,0 8,1 11,-1 -3,-4 -15,-3 -18,-3l-3 -23c2,0 -1,1 2,0l3 -2c0,-7 -5,-25 -8,-32 -2,-7 -2,-5 -7,-7 -7,-2 -14,-4 -22,-5 -31,-6 -22,4 -29,-40 -1,-13 -15,-97 -18,-104 6,-1 8,4 15,4 -4,-5 -12,-6 -15,-9 0,-1 0,-1 0,-1 0,0 -1,-1 -1,-1l-3 -12c-1,-4 -2,-10 -3,-14 -2,2 -1,-1 -1,2l1 11c1,4 2,8 3,13 -11,-2 -16,-7 -42,-10 -9,-1 -8,1 -10,-3l-2 -4c0,5 0,4 -1,7 -28,-1 -59,-2 -85,3 -23,3 -41,2 -61,16 -3,2 -4,5 -6,6 -9,2 -8,-8 -27,-3 -9,2 -10,5 -16,14 -5,7 -3,21 -2,29 0,8 0,22 4,27 4,-4 -1,-4 7,-4l-17 43c0,0 0,1 0,1 -2,-6 -6,-61 -7,-71 -1,-13 -1,-25 -2,-38 -1,-40 -6,-36 13,-39 1,3 1,7 1,10 1,6 1,6 -4,7 -4,-11 3,-7 -5,-9l0 10c0,0 -1,-1 1,4 5,0 4,-2 9,0 2,11 0,21 4,23 4,-3 0,-13 1,-21 0,-6 0,-3 1,-7 -3,-3 -2,-4 -3,-10 0,-5 0,-11 0,-16l7 4c0,9 0,33 5,37 3,-3 -1,-33 -1,-41 -2,-1 -3,-1 -5,-2 -13,-7 -4,-8 -10,-12 0,0 0,0 0,1 0,0 0,0 0,1 -2,4 -1,4 -1,7l-16 3c-1,-15 1,-12 -3,-17 -2,-3 0,0 -1,-2l0 -1c0,0 0,-1 0,-1l-8 1c-1,-9 -2,-30 -4,-37l0 38 -26 5 0 -10c-3,3 -2,7 -2,12 -4,1 -4,2 -7,1 -4,1 -6,-2 -6,7l2 16c-1,10 0,33 0,44 3,42 5,89 7,132 -21,-3 -29,-12 -35,-3l-2 -3c-3,-2 1,0 -3,-2 1,15 6,96 3,105l1 2c2,6 -1,-6 1,2 1,7 -1,25 3,31 3,-4 1,-5 1,-8 0,-2 1,-3 1,-7 0,-14 -2,-39 -3,-54l-2 -50c0,-11 -1,-8 4,-14 8,0 27,4 32,7l0 11c-7,-1 -24,-6 -29,-5l6 108 1 6c4,-1 2,-1 4,-4l0 -1c-1,-5 -1,-3 -2,-8 3,1 2,1 5,1 0,-2 -1,-1 0,-4 -4,-2 1,-1 -5,-3l-1 -21c1,-14 -5,-51 -3,-61 6,1 8,2 11,3l5 62c-1,4 -1,2 -4,6 -1,3 0,0 -1,4 4,-1 5,-1 8,1 0,-5 -1,-7 2,-8 6,-5 11,-10 20,-12l0 2c1,0 1,1 1,1 2,3 -1,1 2,2 2,-3 0,-1 1,-3l0 -2c1,0 1,0 1,-1 0,0 0,0 0,-1l8 -1c0,0 3,-2 4,-3 2,-1 0,-1 3,-1l-8 0 -8 0 0 -10 16 0 0 7zm-51 30c0,0 1,2 1,0 -1,-2 2,1 -2,-2l1 2zm379 -57l27 1c4,1 4,2 5,5l2 18c-11,0 -24,2 -26,-2 -2,-2 -7,-19 -8,-22zm-175 12c1,1 1,2 5,1 10,-1 30,-6 41,-6 -5,3 -9,4 -13,8 -6,4 -6,7 -13,8 -14,2 -26,3 -40,4 1,-5 9,-25 20,-27 5,0 10,-1 15,-1 19,-2 42,-3 60,-2 0,0 0,0 0,0l-9 2c-3,0 -6,1 -9,1l-39 7c-4,1 -15,3 -18,5zm-31 17c0,-27 -4,-23 8,-32 4,-3 8,-5 12,-7 12,-5 68,-6 83,-4 6,1 12,6 3,6 -21,2 -47,1 -68,4 -14,2 -17,2 -23,13 -3,5 -9,19 -15,20zm26 -52c6,0 72,1 79,2 5,2 3,1 4,3 -38,0 -37,-1 -73,1 -6,1 -9,2 -9,-2 -9,8 -6,3 -17,10 -26,16 -8,14 -15,38l-23 1c0,-9 11,-62 14,-72 2,-5 9,-12 12,-18 5,3 12,6 19,5 5,0 4,0 6,-3 -3,-2 -18,-1 -30,-10l3 -13c11,6 11,14 17,17 -1,-7 -2,-9 -5,-13 -2,-2 -3,-3 -5,-4 -6,-5 -7,-2 0,-23 1,-2 1,-2 2,-3l1 -3c0,0 0,0 0,0l3 19c7,1 4,3 8,0 -2,-3 -3,-1 -6,-4 -1,-13 -2,-23 2,-32 4,-8 9,-16 14,-23 5,-7 10,-11 22,-12 11,-1 21,-3 33,-3l2 3c1,1 1,1 3,3 1,2 2,3 3,6 4,6 4,6 6,15 1,9 4,28 3,36 -7,5 -18,10 -20,22 -3,12 1,21 2,30 2,17 -15,7 -54,8 -9,0 -9,1 -14,4 0,6 1,7 2,11 0,0 0,0 -1,1 0,0 -2,0 -4,2 6,4 9,-2 13,7 0,0 0,-1 0,-1l3 -5zm-209 -1l0 -4 24 5c2,5 1,16 2,23 0,4 0,8 0,12 1,6 2,7 -2,9l2 3c2,3 1,10 1,14 -2,2 -5,4 -8,6 0,-6 -3,-59 -4,-61 -2,-6 -11,-4 -15,-7zm138 54l-9 0c2,-18 13,-38 13,-38 0,-1 2,-20 13,-23 -1,8 -7,20 -9,29 -1,5 -6,29 -8,32zm12 -1l-6 1c2,-17 10,-53 17,-65 2,2 3,0 1,8l-12 56zm8 -103l13 10c-4,25 -8,25 -26,33l7 -21c2,-7 4,-18 6,-22zm208 31c4,1 46,6 50,9 3,4 8,25 9,31l-37 -1 -22 -39zm-51 0c8,-1 17,-1 25,-1 15,0 21,-2 32,19 3,5 7,15 8,20 -17,-1 -35,-1 -52,0 -13,0 -10,4 -12,-15 -1,-7 -2,-16 -1,-23zm-31 -43l7 60c-12,1 -29,-1 -42,-1 -15,0 -29,0 -43,1 -3,-2 -6,-7 -5,-11 7,-1 29,0 37,0 12,0 23,3 35,3 10,-29 -3,-37 7,-50 0,0 2,-2 2,-2 0,0 1,0 1,0l1 0zm-146 64c-8,0 -2,0 -5,1l6 4 0 0c-2,9 -3,7 -7,7 0,0 1,0 1,1 1,4 1,-2 3,3l-3 3c1,4 1,2 -1,3 1,3 -4,23 -7,26l-15 -12c-6,0 -6,-1 -11,-4 -2,-1 -4,-2 -6,-3 -3,-1 -3,-1 -5,-3l-4 0c0,-7 9,-35 11,-43 4,0 35,8 40,4 2,-1 10,-19 13,-23l3 -4c-1,8 -7,25 -8,31 -1,6 1,7 -5,9zm34 -48l-4 -2c-2,-2 -8,-6 -8,-9l3 -6c6,0 10,2 13,4 0,4 -2,10 -4,13zm117 -29l13 -1c1,7 1,11 2,17 2,10 3,10 -1,17 4,3 1,0 3,0 2,7 7,51 8,61l-16 2 -9 -96zm-186 37c1,-5 9,-28 11,-32 0,0 5,0 3,8 -1,3 -2,7 -3,10 -3,8 -2,12 -11,14zm204 -35c5,1 8,3 7,8 0,3 -1,10 -4,11l-3 -19zm-41 60l1 -2c9,-15 -11,-32 3,-49 2,-3 9,-8 13,-8 1,8 -1,4 -7,12 -3,5 -3,9 -3,16 0,7 1,12 1,18 0,4 0,7 -1,9 -2,5 -2,4 -7,4zm-148 -67c3,1 0,0 2,2 8,10 4,17 0,28 -8,24 -4,16 -19,22 -1,-8 5,-5 10,-9 4,-2 10,-27 10,-29 0,-5 -5,-8 -3,-14zm-50 105c4,-31 24,-87 37,-116 0,-1 1,-3 1,-4l7 -14c2,-4 5,-15 9,-16 0,7 1,18 -1,25 -13,33 -24,58 -34,96 -1,7 -3,13 -5,20 -3,13 -1,12 -14,9zm229 -167c18,0 15,-1 27,14l8 12c2,5 2,13 3,18 2,10 9,66 9,73l-30 0c-2,-4 -2,-10 -3,-16 -1,-9 1,-7 4,-13 8,-18 -3,-20 -7,-23 -3,-3 -5,-25 -6,-31 -1,-11 -4,-23 -5,-34zm-139 82c-3,-1 -1,0 -3,-2 -2,-2 -2,-5 -2,-7 0,0 -1,-2 -1,-2 0,-2 0,-2 -1,-3 -2,2 -4,3 -1,11 6,17 9,-1 -12,38l-4 8c0,0 0,0 -1,1l-1 2c-9,0 -29,-2 -35,-5 1,-10 15,-7 19,-10 4,-7 9,-22 12,-32 5,-16 -11,-15 -5,-30 1,5 0,5 5,6 3,1 6,2 10,1 2,-8 2,-20 2,-29 0,-19 0,-13 8,-25 4,-7 6,-13 20,-8 8,2 15,5 23,9 -4,11 -27,47 -33,77zm113 -83l20 0 10 64 -13 0c-1,-12 -3,-24 -5,-36 -1,-6 -3,-11 -5,-15 -2,-5 -6,-8 -7,-13zm-103 -9l5 -3c2,0 3,-1 6,-1 10,-2 61,-7 69,-5 3,1 13,13 14,16 -17,1 -43,1 -52,10 -15,14 -29,48 -32,71 -2,0 -12,-3 -14,-4 3,-13 22,-48 31,-62 2,-3 3,-4 3,-10 -5,-2 -10,-5 -14,-7l-13 -4c-3,-1 -2,-1 -3,-1zm-65 53l-9 1c0,-9 -1,-17 -1,-25 -1,-12 -3,-15 3,-24 6,-8 7,-7 17,-9 9,-3 1,-1 15,4l3 2c-2,3 -5,7 -7,10 -3,5 -4,8 -7,11 0,-2 0,-5 -1,-8 0,-4 0,-6 -2,-8 -1,1 0,-3 -1,3 -1,9 3,17 -4,29 -1,-5 -1,-21 -1,-29 -1,-4 0,-7 -2,-9 -5,6 3,43 -3,52zm211 -45c-7,-3 -10,-2 -18,-3l-2 -13c7,-1 42,6 46,9l2 4c0,1 1,3 1,4 1,2 1,5 1,8l20 111 -15 -1c-4,-16 -6,-83 -15,-96l-9 -12c-3,-5 -6,-10 -11,-11zm-58 -17l32 0c7,19 -1,15 -8,15 -4,1 -8,1 -12,1 -2,-4 -3,-5 -6,-8l-4 -5c-2,-3 0,0 -2,-3zm-126 52l3 -5c1,-2 0,0 1,-2 2,-3 1,-1 2,-2l-1 29c-4,1 -4,0 -8,-1 -1,-10 -1,-20 0,-30 0,-13 -1,-16 6,-25 2,-4 3,-6 6,-9 13,-17 39,-16 58,-18 18,-3 75,-5 91,-4l1 10c-18,-1 -36,-1 -54,-1 -24,1 -72,3 -88,21 -4,5 -8,11 -11,16 -5,8 -7,9 -6,21zm214 -43c-2,-4 -20,-8 -24,-9 -9,-2 -18,-5 -28,-5l-1 -10c8,0 36,4 45,8 6,2 5,2 6,6l2 10zm-258 -55c0,1 2,1 1,5 0,3 0,1 -2,1 0,0 -2,0 -1,-3 1,-5 -1,-1 2,-3zm-14 7c0,-5 2,-5 7,-5 0,4 0,3 -1,6l-6 -1zm-25 12c-2,1 -3,1 -6,1 -7,1 -5,1 -6,3l2 1c1,1 -1,1 3,1 1,0 4,-1 6,-1 4,-1 8,-1 12,-1l1 26 -7 0c0,-5 0,-14 -3,-18 -5,5 2,16 -3,19 -4,1 -5,-1 -6,2 2,3 5,2 9,2 5,-1 7,-2 11,-1 0,26 12,141 9,155 -1,5 -3,17 -4,19 -4,-7 -10,-161 -12,-166 -1,-2 0,-1 -1,-3 -2,2 -2,-1 -2,5 0,1 0,5 0,6 0,4 0,8 1,12l3 64c1,30 4,57 4,88l-14 1c-2,-18 -2,-38 -2,-56 -1,-18 -3,-37 -3,-55 -1,-19 -3,-37 -3,-55 -1,-10 -1,-19 -2,-28 0,-5 0,-9 -1,-14 0,-2 0,-4 0,-6 -1,-5 0,-4 -3,-6 -3,4 0,18 0,25l7 139c1,17 4,41 3,57 -4,2 -4,0 -7,2 0,4 0,0 7,1l1 10 -11 2 -1 -40 5 -3c-6,-2 -5,1 -6,-7 0,-10 2,-8 4,-9 -6,-5 -4,0 -5,-20 -2,-31 -10,-170 -7,-179l6 0 1 11c5,2 18,-3 26,-3l3 0c1,0 1,3 1,9 1,3 1,5 1,8l-6 1c-1,-5 0,-8 -2,-11 -5,1 -1,7 -3,12zm-17 -27c4,-3 11,-4 16,-5l-1 9c-4,1 -11,3 -15,2l0 -6zm30 -8c5,2 6,2 7,8 1,4 1,8 1,12 2,24 3,55 4,81l6 78c1,7 0,15 -3,21 -1,3 -1,2 -2,3l-13 -203zm-5 1c1,1 1,-1 1,2 0,1 0,2 0,2 1,2 0,3 0,5 -7,1 -6,0 -6,-9l5 0z"></path> <path class="fil1" d="M478 237l-32 -5 0 -19c3,0 13,4 17,6l131 59c2,1 3,1 4,1 0,0 1,1 1,1l53 24c2,1 4,1 5,2 0,0 1,0 1,0 0,0 0,0 1,0l6 4c16,7 33,13 48,22l0 41c-5,-2 -6,-3 -11,-4l-28 -10c-1,-1 -3,-1 -6,-2 -9,-3 -36,-15 -44,-16 2,-1 7,-1 10,-1 1,1 4,2 4,2l3 1c0,0 2,1 2,1 4,1 10,4 14,5l4 -1c-3,-3 -18,-10 -23,-10 -2,-5 -2,-19 -2,-26l30 13c0,10 -1,22 1,30 4,-3 3,-6 3,-11l18 -3c6,-1 13,-2 17,-3 1,9 -2,21 1,29 5,-2 4,2 4,-7l0 -18c0,-13 -5,-8 -21,-6 -7,1 -13,3 -19,2l-1 -16 -6 -3c-11,-5 -22,-15 -35,-12 -6,1 -3,-1 -5,3 2,2 -1,1 3,1 4,1 0,1 2,0 2,0 2,0 4,0l0 25 -11 2c-1,-7 0,-20 0,-27 0,-8 4,-22 -7,-19 0,2 0,3 3,4l0 34c-6,-1 -5,-2 -10,-1 1,2 0,2 3,3 2,2 13,5 5,6 -2,-2 -29,-11 -33,-12 0,-6 -1,-4 3,-7l-1 -2c0,0 -1,0 -1,0 -1,-1 -2,-2 -2,-6l1 -30c2,1 4,2 5,2 6,3 4,3 8,0l-13 -7c-2,-1 1,0 -2,-1 -4,0 -6,3 -12,2l-3 -2c0,0 -1,0 -1,0 0,0 -2,-1 -2,-1l-12 -6c-4,-2 -20,-10 -24,-11 -3,0 -8,1 -12,2 -1,-9 0,-7 -6,-9l-26 -11c-6,-1 -1,-2 -6,2 9,4 27,10 33,15l0 43 -44 -16 0 -31 0 -12 13 -3zm123 92c7,2 3,2 7,-1 -2,-2 -13,-6 -17,-8l-7 0 17 9zm-7 -45c0,0 1,1 1,1 2,3 4,3 8,4 1,1 5,3 6,3 6,1 2,1 6,-3 -7,-1 -15,-7 -21,-5zm-22 -2l5 -2 0 44 -5 -2 0 -40zm-43 14c0,-6 0,-12 0,-19 0,-16 -4,-15 11,-9 8,4 24,11 27,14l0 28c-3,2 0,-2 -6,2l6 3 0 5c-5,-1 -34,-11 -38,-14l0 -5c3,-1 1,0 4,-2l-4 -3zm3 4c3,4 10,6 15,8l3 1c5,2 6,4 12,2 -2,-2 -2,-3 -7,-4 -13,-4 -16,-9 -23,-7zm-18 -37c4,0 7,-1 11,0l0 41c-4,0 -8,-2 -11,-4l0 -37zm-30 33c3,1 6,1 9,3l23 7c14,7 46,17 63,24 24,8 46,15 69,25l70 24 1 -48 -138 -64c-17,-9 -35,-15 -52,-23l-10 -5c-10,-5 -20,-7 -28,-12l-30 -13c0,0 0,-1 0,-1 -5,-2 -14,-7 -21,-8l2 70 -9 -3 1 -72 -36 -15c0,0 -1,0 -1,0 -15,-8 -51,-22 -60,-27 -1,-1 -2,-1 -3,-2 -2,0 -2,-1 -3,-1l-24 -10c-10,-6 -28,-14 -41,-19l-25 -11c-5,-2 -10,-5 -14,-6l-10 -5c0,0 0,0 -1,0 0,0 0,0 0,0l-30 -13c0,0 0,0 0,0l-23 -11c-3,-1 -5,-2 -7,-2l-97 -44c-4,-2 -8,-4 -13,-6l-13 -5c-5,-2 -9,-5 -15,-6 2,6 7,6 12,9l76 34c3,1 6,2 7,3l96 43c17,8 35,17 53,23l3 2c0,0 1,0 1,0l21 10c1,0 1,0 1,0l25 11c10,4 22,11 35,16l17 7c4,2 9,4 13,6l52 24c0,10 0,20 0,30l0 35 -6 -1c0,0 2,-46 2,-50 0,-4 0,-8 -1,-11 -1,-3 0,-1 -2,-3 -4,5 -2,24 -2,30 -5,2 -11,3 -15,2 -2,-11 1,-27 -1,-37 -2,-1 -5,-2 -8,-3l-44 -19c-3,-2 -10,-6 -12,-2 -15,0 -8,1 -12,-9 -2,-2 -19,-8 -23,-10l-24 -10c-4,-2 -7,-4 -11,-5 -26,-10 -13,-2 -38,-2l0 -9c0,0 0,-1 0,-1 0,-4 -11,-8 -14,-10l-38 -17c0,0 0,-1 -1,-1 -14,-8 -24,-3 -45,1 -8,2 -25,4 -32,7 -4,1 -2,1 -3,3 17,1 56,-11 66,-10l1 58c-3,0 -1,0 -4,-1l-29 -11c-2,-1 -1,-1 -3,1 1,3 -1,0 3,3l4 2c8,3 23,7 29,12l0 9c-2,-1 -4,-2 -6,-2l-63 -23c-7,-4 -15,-5 -22,-8 -9,-3 -17,-7 -25,-9 -3,-1 -1,0 -4,-1l4 5c5,3 13,5 18,7l23 9c5,2 18,7 23,8 6,2 1,0 5,2 2,1 4,1 6,2 4,2 8,3 12,4l40 15c2,1 4,1 6,2l40 14c13,6 51,18 58,21 3,2 2,1 6,2l113 41c27,11 55,20 83,31zm-39 -61l18 4 1 43 -18 -6 -1 -41zm-40 8c4,-2 13,-2 16,-1 0,8 0,19 0,25 -1,0 -1,1 -4,-1 -11,-4 -13,-2 -12,-23zm-30 3l14 5c2,1 10,4 12,6l0 3 -53 -19c0,-3 -2,-6 1,-7 2,3 9,4 13,6 4,2 8,4 13,6zm-28 -66c5,2 10,4 14,6l40 18 0 46c-2,0 -1,1 -3,0l-10 -4c-5,-2 -10,-4 -14,-6 -4,-2 -23,-8 -27,-11l0 -49zm-17 1c5,-2 8,-2 13,-1l0 46c-1,8 0,6 0,13 -6,-2 -8,-2 -14,-5l1 -53zm-9 45c4,1 3,2 4,6l-51 -18c-4,-1 -12,-3 -16,-6l0 -8 39 17c1,0 3,1 5,2l19 7zm-63 -30c-2,-17 3,-38 0,-55l7 2c9,6 14,7 21,10l40 18 -2 51 -17 -6c-5,-2 -10,-5 -16,-7l-33 -13zm-26 -51c2,-1 1,0 2,-2l20 -1 -1 49c-1,6 2,-1 -1,2l-2 2c0,1 2,3 4,3 0,5 0,7 -1,8 1,3 -1,1 -4,-1 -3,-1 -4,-1 -7,-2 -2,-1 -9,-3 -11,-4l1 -54zm-6 52c-10,-3 -18,-7 -28,-10l-22 -8c-4,-1 -2,-1 -5,-2l0 -8 42 16c4,2 10,4 13,6l0 6zm0 -12c-1,0 -1,0 -1,0 0,0 0,0 0,0l-24 -10c-5,-2 -8,-3 -13,-5 -4,-1 -8,-3 -12,-5 -7,-3 -5,-2 -5,-11l0 -51c5,2 10,4 14,6l14 7c0,0 0,0 0,0 5,2 3,3 13,7l15 8c3,4 -1,9 -1,12 1,3 2,0 1,6 0,3 0,5 0,8 0,9 1,21 -1,28z"></path> <path class="fil1" d="M405 443l1 -38c3,-1 2,0 4,-2l11 0 0 42c-6,0 -10,0 -16,-2zm-77 -18c8,0 13,2 20,3l21 3c6,1 12,3 20,4 12,1 12,0 12,7 -14,1 -45,-6 -55,-6 -11,-1 -7,-1 -14,-2 -1,-1 -3,-1 -4,-1l0 -8zm-12 5c0,-14 -2,-52 1,-63 7,0 1,0 6,3l0 62c-5,0 -4,0 -7,-2zm-66 -7l0 -9c12,2 50,9 60,9l2 8 -62 -8zm0 -65l14 2c15,2 20,4 33,7l15 3 0 48c-1,0 -1,1 -1,1l-61 -9 0 -52zm77 11c7,0 12,3 18,4 14,3 49,10 56,11l0 47c-5,1 -64,-9 -72,-10l-2 -52zm-98 -15l2 54c-10,0 -56,-10 -63,-8 2,2 1,3 7,4l55 8c1,2 0,0 1,2l4 5c0,-2 0,-4 1,-7l-1 -52 10 -1 1 63c-18,-1 -49,-8 -66,-9 -9,-1 -13,-2 -21,-3l-1 -59c-1,-17 -5,-14 21,-8 2,1 5,1 7,2 9,3 36,9 43,9zm178 -33c10,-1 9,-2 13,-2 2,10 1,25 1,36 -2,1 -1,0 -2,2l-12 -3c-2,-7 -1,-25 0,-33zm-72 17c2,4 2,4 6,5l16 4c15,3 67,18 77,17l0 -76c-4,-1 -8,-3 -12,-4 -3,0 -2,0 -3,1 2,5 7,5 10,8l0 66c-2,0 -3,0 -4,-1l0 -50c1,-7 2,-12 -2,-15l-2 20c-2,1 -2,1 -2,2l-12 1c-1,-8 -1,-20 -3,-26 1,1 -19,-8 -53,-17 -12,-5 -9,-3 -14,-1 -2,0 -4,0 -6,0l-2 -3c-4,-4 -11,-4 -17,-6 -6,-2 -13,-4 -20,-7 -4,-1 -8,-2 -11,-3l-5 -2c-7,-2 -20,-7 -27,-7l0 2c0,0 0,0 -1,0 -1,3 2,0 0,1 0,0 -3,0 -4,0 -10,0 -37,2 -44,-1l-6 -2c-3,-2 -5,-2 -8,-3 -10,-4 -14,-7 -27,-4l-27 5c-5,1 -17,3 -22,5 -4,2 -2,0 -5,3 5,0 15,-1 18,-2 4,-1 10,-2 15,-3 7,-1 22,-4 29,-4l0 46c-5,2 -12,3 -17,3 -7,0 -39,-8 -48,-11l-48 -11c-6,-2 -11,-5 -16,-1 5,4 11,1 18,5 4,2 0,1 5,3l198 47c12,4 25,7 38,10l18 4c8,3 11,0 13,10 -5,-1 -5,-4 -9,-2 0,0 0,0 1,0l12 7c3,2 0,-2 1,1l-8 -3c-3,-1 -5,-3 -7,-4 1,3 4,5 8,6 -4,1 -33,-7 -40,-8 -13,-3 -29,-6 -41,-9l-21 -5c-30,-6 -73,-17 -102,-23 -11,-2 -19,-5 -31,-6 -8,-2 -84,-20 -91,-18 1,3 -1,1 5,3 56,15 117,27 293,66 6,1 13,2 19,4 12,3 7,-1 16,6l9 -1 87 20 0 57c0,5 2,12 -4,8 0,-10 0,-21 0,-32 0,-6 2,-28 -2,-32 -4,4 -2,12 -2,17 -9,2 1,2 -15,2 -1,-25 5,-18 -22,-24 -14,-3 -29,-4 -42,-9 -4,-2 -6,-2 -11,-3 -8,-1 -14,0 -23,0l-52 -10c-9,-3 -11,0 -20,0 -4,-5 -5,-4 -13,-6 -30,-5 -47,-15 -80,-12 -7,1 -28,3 -33,5l6 3c13,0 25,-4 37,-4l1 70 -7 -1c-2,-1 1,0 -3,-1 -2,0 -4,0 -6,-1 -14,-1 -83,-13 -89,-10 1,1 0,0 2,1l63 11c11,1 23,3 33,4 3,1 7,2 8,2 5,1 2,0 8,0 26,4 55,7 82,12l67 9c0,1 0,3 0,4 1,4 0,1 2,3 2,-3 1,-4 3,-7 7,2 5,1 8,5l2 -1c4,-3 -1,-1 3,-2l55 8c17,2 16,0 16,6l2 -2c0,0 1,0 1,0 1,-1 -3,-2 4,-1 8,0 18,4 26,2 2,-9 0,-52 0,-67 0,-5 1,-5 -1,-8l-97 -21c-2,-4 -3,-10 -5,-14 0,4 0,5 1,8l-4 -10c3,2 2,5 8,-1 -4,-3 -1,-2 -6,-3l0 -56c2,-2 4,-2 8,-2 5,-1 3,-2 4,1 2,-1 0,0 0,4 0,5 -2,30 -1,34 2,4 0,2 5,4l1 -44c5,1 10,4 14,5l28 10 12 3 1 9 -1 40c-8,0 -30,-6 -38,-9 0,0 -13,-3 -9,0 -1,-3 -2,-3 -5,-5 0,0 -2,0 -2,-1l-2 -7c-4,3 -5,6 -3,11l6 2c4,1 3,3 9,3 13,1 29,9 44,11l0 4c-14,-2 -30,-7 -44,-10 -12,-3 -10,-7 -12,-1 2,-4 1,-3 0,-7l-2 1c-5,4 0,-1 -2,3 -1,-1 1,-1 -3,-1 -4,0 0,0 -3,1zm-10 -5c0,0 0,1 0,0 0,0 0,1 0,1l-56 -14c-6,-2 -11,0 -11,-8l56 15c3,1 7,1 10,2 1,1 1,2 1,4zm-153 -92c4,0 5,1 8,2l24 9c10,3 22,8 32,11l1 37c-8,2 -48,-13 -59,-13 1,4 -1,3 3,5l11 3c10,2 35,10 44,11l-1 6 -63 -16 0 -55zm85 9l34 11c3,1 33,9 34,12 -5,0 -6,-1 -9,2 3,3 4,2 9,3 0,2 0,44 -1,46 -4,-1 -28,-7 -34,-8l-27 -7c-7,-1 -1,0 -6,-2l0 -57zm-15 38c0,-32 2,-27 -15,-33l-9 -3c-4,0 1,-1 -1,0l36 -1 -1 55c-1,0 -1,0 -3,0l-3 3c2,0 4,1 6,2l0 5 -11 -3 1 -25z"></path> <path class="fil1" d="M642 474c3,-1 18,2 25,3 1,0 4,1 5,1 4,1 2,-1 3,1 5,0 -2,1 -4,1l-27 -4c-1,-1 -2,-2 -2,-2zm-11 -22c6,-1 -1,-1 7,-1 0,8 0,18 -2,24l-5 0c-2,-5 -2,-17 0,-23zm-40 10c0,0 -1,-35 1,-36 2,-1 27,6 32,6 3,11 2,28 2,41 -5,0 -31,-3 -35,-5 0,-2 0,-2 2,-3 1,2 -5,0 5,2 8,2 12,1 20,1 -4,-4 -21,-6 -27,-6zm-53 -5c12,3 24,6 36,9l-35 -4 -1 -5zm103 -6c8,-1 26,4 36,6 0,6 0,13 -2,18 -2,-2 -27,-5 -33,-7l-1 -17zm-117 7l-38 -3c-2,0 -7,-2 -11,-2l0 -5c11,0 27,5 38,6 13,2 10,1 11,4zm-77 -8c3,-2 18,-2 23,-3l0 5 -23 -2zm91 -25c4,0 33,6 36,7 0,10 1,16 0,27l-36 -6 0 -28zm-92 -25l22 -1 2 29 0 6 0 9 -24 2 0 -45zm27 -1l49 11 3 42c-8,0 -1,0 -10,-2l-17 -3c-8,-1 -16,-2 -23,-4l-2 -44zm114 52c0,23 -2,17 -8,16l0 -27c0,-11 -1,-12 -6,-13 -14,-3 -37,-11 -44,-5 2,2 2,1 5,3l-1 35 -5 0 0 -52c-5,-3 -13,-4 -20,-6l-20 -5c-15,-2 -17,-4 -34,-2 -3,1 -4,2 -8,2l0 -13 49 10c6,2 11,3 17,4 11,3 22,5 34,8l76 16c6,1 2,1 8,3 5,1 11,2 17,3l42 10c3,0 5,1 8,1 5,2 11,3 16,3l0 43 -4 -1c0,-9 2,-31 -1,-39 -6,-1 -12,0 -18,1l-16 1c0,1 0,1 -1,1 0,0 0,0 -1,0 0,0 -1,1 -1,0 0,0 0,1 -1,1 3,2 0,1 5,2 6,1 23,-2 29,-2 1,4 0,28 0,35l-22 -3 -2 -26c-5,-3 -13,-5 -19,-6 -6,-1 -14,-4 -20,-4 -13,0 -12,10 -12,-15 -17,-6 -47,-13 -67,-8 5,5 14,3 25,3 0,8 0,17 0,26zm-146 -73c-1,7 0,62 0,74 25,5 46,6 68,10l70 9c4,1 4,2 9,2 3,1 6,1 9,1 15,2 113,16 122,15l-1 -48c-5,-4 -59,-15 -69,-17l-43 -10c-3,-1 -8,-1 -10,-2l-51 -11c-9,-2 -24,-5 -34,-8 -16,-4 -30,-6 -44,-9 -6,-2 -20,-6 -26,-6z"></path> <path class="fil1" d="M29 0l75 35c3,2 4,2 6,3l23 11c1,0 1,0 1,1 14,8 49,23 64,30 0,0 0,0 1,0l76 36c20,9 42,20 62,30l50 23c1,0 1,0 1,0l19 10c4,2 9,4 13,6 5,2 9,6 15,4l0 -67 5 3 0 68c1,2 6,4 6,4l132 63c3,1 1,0 3,1 3,1 3,1 5,2 2,2 5,3 9,4 6,3 11,6 17,9l23 11c0,0 1,0 1,0 0,0 1,1 2,1l50 23c0,0 0,1 0,1 1,0 1,0 1,0l1 1c1,0 1,0 1,0 0,0 1,0 1,0 0,1 2,1 2,2 6,3 18,9 24,8 0,-11 1,-27 0,-38 -1,-6 0,-3 -2,-5 -4,5 -3,32 -3,39l-57 -28c-13,-6 -30,-15 -43,-20l-25 -12c-2,-1 -6,-2 -9,-4 -5,-3 -10,-4 -16,-8l-24 -11c0,0 0,0 0,0 0,0 -1,0 -1,0l-42 -21c-3,-1 -6,-2 -9,-3l-25 -13c-5,-2 -13,-6 -16,-7 -1,-7 1,-71 -3,-78 -2,2 -1,3 -3,6 -2,-2 -5,-4 -9,-5l0 70 -5 -3 -2 -49c-3,3 -3,-1 -3,12l0 35 -73 -34c-1,-1 -2,-1 -2,-1 -2,-1 -1,-1 -3,-2l-47 -22c0,0 -1,0 -1,0l-6 -4c-4,-2 -9,-4 -13,-5l-43 -21c-1,0 -1,0 -1,0l-65 -31c-47,-21 -88,-44 -138,-60z"></path> <path class="fil1" d="M591 541l-45 -2 -1 -29c58,7 46,-7 46,31zm-104 19l164 0c-4,-2 -21,-2 -25,-2 -9,0 -18,0 -28,0 -13,0 -44,1 -55,-1l2 -5c0,-3 0,-7 1,-10l44 3c1,4 1,5 2,8 2,-2 4,0 3,-10 0,-4 1,-34 -1,-31l-44 -5c-6,-1 -2,-3 -11,0l-12 1 0 -20c-7,0 -13,-1 -21,-2 -6,-1 -14,-1 -21,-2 -7,-1 -36,4 -39,2l0 -16c5,-1 62,6 74,8 4,0 7,0 10,0 4,1 4,2 15,3l67 7c28,4 58,6 84,10 3,0 6,0 9,1 3,0 6,0 7,2l1 0c0,27 3,26 -5,26 1,-7 2,-19 -1,-25 -5,-1 -32,0 -38,1 2,2 1,3 9,3l26 0 0 21c-12,1 -31,-2 -43,0 2,2 2,2 7,2l87 0c3,0 8,0 11,-2 -8,-2 -30,0 -40,0 2,-39 0,-112 0,-154 0,-9 0,-18 0,-26 0,-6 3,-20 -2,-23 -3,2 -2,0 -2,5 0,2 0,5 0,7l0 189c-1,3 2,2 -3,2 -2,-7 2,-26 -2,-31 -2,-1 -96,-12 -103,-12l-28 -3c-10,-2 -13,-3 -25,-3l-120 -14c-1,5 0,67 0,82 0,5 -1,7 2,10 2,-2 2,-1 3,-4 0,-3 -1,-54 0,-61 7,-1 17,-1 25,-2 7,-1 4,-1 5,1 4,4 -2,33 3,48 -12,-5 -12,2 -12,2l6 1c1,0 2,0 4,0 0,3 0,7 2,10 3,-3 0,2 3,-4 1,-6 -1,-9 -1,-10l0 -49 41 3c2,5 0,39 0,47 -7,1 -13,0 -19,-1 -3,0 -7,0 -10,-1 -9,0 -6,1 -7,5l36 2c0,9 -1,7 3,9l2 -11c0,-3 -1,-3 -1,-8 0,-5 0,-14 1,-19 17,-3 14,-3 14,3l-1 22c-1,5 0,2 1,6 1,5 -1,8 1,13 -9,0 -19,-1 -28,0l-22 0c-4,1 -4,1 -5,2z"></path> <path class="fil1" d="M252 447c26,3 72,8 78,9 9,2 17,2 27,2 4,1 6,2 12,3l36 4c23,2 24,1 24,7l0 88c4,0 3,0 3,4l8 0 2 -4 -8 -1c1,-4 1,-92 -1,-96l-113 -13c-49,-6 -116,-11 -163,-18 -37,-5 -75,-9 -112,-12 -3,-1 -11,-3 -16,-2 -2,1 -1,1 -2,1 1,1 0,1 2,2l17 2c7,2 14,2 21,3 4,0 6,1 10,2 16,1 72,7 98,10l77 9 0 0z"></path> <path class="fil1" d="M537 337c4,0 21,6 26,8 5,2 19,5 23,8l1 35c2,-3 1,1 1,-4 2,-19 -6,-27 8,-25 0,14 1,22 -1,34 0,2 2,2 1,8l-6 -1c-2,-5 0,-3 0,-6 0,-3 -1,-1 -1,-6 -3,4 0,1 -4,3l-2 -1c-8,-2 -41,-10 -47,-13l1 -40zm0 43c8,2 18,5 26,7 5,2 9,3 13,4 9,3 10,0 11,7 -8,0 -19,-4 -27,-6 -24,-4 -23,-4 -23,-12zm-4 6l-5 -2c0,0 0,-43 0,-44 0,-4 3,-6 6,-3 2,2 0,49 -1,49zm-69 -26c2,0 61,17 62,17l0 6 -63 -14 1 -9zm-3 0l0 8 -17 -4 17 -4zm3 -2c-1,-3 -1,-35 0,-38 0,-4 -1,-4 3,-5l59 19 0 39c-7,0 -24,-5 -32,-7 -5,-2 -10,-3 -15,-4 -4,-1 -11,-2 -15,-4zm-19 -35c0,-6 -2,-7 5,-8 3,-1 7,0 11,0l0 31c0,9 3,15 -16,13l0 -36zm0 -26c8,0 81,27 100,32 19,6 48,17 68,23l102 34 0 44 -110 -27c-6,-1 -5,2 -6,-4 5,-4 9,0 16,2l11 3c6,1 3,0 4,-1l-31 -9c-2,-46 -1,-35 19,-29 26,7 20,1 20,35 0,1 0,4 0,4 1,2 0,0 1,2 0,3 -1,1 1,2l0 -20 17 -1c0,10 -2,22 2,26l0 -24c5,0 12,2 16,4 3,1 4,1 8,2 9,2 8,1 8,15 0,4 -1,8 1,11 1,-1 0,1 1,-2l0 -22c-6,-3 -16,-6 -24,-8 -23,-8 -14,-3 -28,-4l0 -15c-11,-6 -38,-14 -51,-14 -2,-3 -1,-4 -4,-6l-24 -8c-15,-6 -19,-8 -34,-8 -4,-5 -6,-3 -18,-8l-39 -13c-9,-1 -18,1 -26,0l0 -16zm-3 68c4,3 43,12 51,14 5,1 13,3 17,4 12,4 52,12 69,17 15,4 34,8 52,13l87 20c-1,-9 -2,-41 0,-48 -6,-3 -9,-4 -16,-6l-70 -23c-18,-7 -57,-19 -70,-24l-52 -17c-12,-4 -23,-8 -35,-12l-33 -11 0 73z"></path> <path class="fil1" d="M230 475l73 6 1 53 -75 -3 1 -56zm-22 56l-98 -3 101 7 0 -3 -1 -60 16 3 1 80 2 -21 76 3 1 16 2 -18 -2 -57 -75 -5 -23 -5 0 63z"></path> <path class="fil1" d="M432 564c0,-4 1,-4 -3,-4 -38,2 -279,-3 -297,3 50,1 100,1 150,1 25,0 50,0 75,0 24,0 51,-1 75,0z"></path> <path class="fil1" d="M402 536c-8,1 -63,-1 -74,-2l-1 -63 37 4c13,1 28,1 38,4 1,10 0,18 0,28 -1,10 0,20 0,29zm-104 -63c4,2 19,-1 26,-1l0 62 -6 1 6 1c1,6 0,14 4,16l-1 -15 75 2c1,9 -1,10 2,13 2,-3 1,-6 1,-9l1 -67c-13,0 -40,-4 -55,-5 -9,-1 -49,-3 -53,2z"></path> <path class="fil1" d="M921 472c-17,4 -32,21 -27,43 11,47 81,30 71,-15 -4,-18 -22,-33 -44,-28zm-1 -4c-19,4 -35,23 -30,48 12,52 91,33 79,-17 -5,-20 -24,-37 -49,-31z"></path> <path class="fil1" d="M657 528l4 0c2,-29 -1,-25 -11,-26l-33 -5c-11,-3 -14,0 -24,1l-16 3c-11,1 -3,-1 -7,3l14 -1c7,-1 3,1 12,-2 12,-3 6,3 9,25 0,8 0,12 0,18 0,7 1,6 3,8l0 -51c6,0 43,4 48,6l1 21z"></path> <path class="fil1" d="M415 468c-5,1 -5,0 -7,3 2,2 2,2 6,3 3,0 2,-1 5,0 2,2 1,59 1,69 0,8 1,7 3,8 1,-1 1,0 1,-3l1 -38c0,-9 2,-33 -1,-41 -4,-1 -4,-1 -9,-1z"></path> <path class="fil1" d="M925 498c14,-6 21,14 9,19 -13,6 -24,-13 -9,-19zm-2 -5c-5,2 -6,2 -9,7 -8,18 19,32 29,14 6,-10 -4,-27 -20,-21z"></path> <path class="fil1" d="M1300 451l0 8c0,0 2,2 1,3 -4,0 -5,0 -7,1l7 0 0 4c5,-2 4,-3 5,-4 1,7 3,19 1,26 6,-3 1,-20 1,-25l47 0c2,-1 1,-1 2,-1 -2,-3 -7,-2 -12,-2 -12,-1 -27,-3 -38,-2 -1,-4 -1,-8 -2,-13 -1,3 0,4 -1,8 -5,0 -1,1 -4,-3z"></path> <path class="fil1" d="M687 391c7,2 12,0 18,-1 0,6 0,13 0,20 -1,10 -2,13 2,17 2,-2 1,1 2,-4l0 -36c-4,0 -9,0 -13,0 -11,1 -8,2 -9,4z"></path> <path class="fil1" d="M668 439c-10,-2 -27,-9 -37,-8l0 4c0,0 1,1 1,3 0,3 0,4 2,7 4,-3 2,-3 3,-9 4,-1 11,3 18,3 2,4 4,-1 9,5l4 4 0 -9z"></path> <path class="fil1" d="M983 396c6,3 5,0 8,1 16,4 6,-1 19,3l-6 -4c3,-1 -3,-1 5,-1 -4,-3 -17,-4 -24,-4 1,2 1,1 2,4l-4 1z"></path> <path class="fil1" d="M924 447l8 0c-3,0 -1,0 -3,1 0,1 -4,3 -4,3l10 0c11,0 2,2 11,2l0 0c3,2 1,1 4,2 0,0 1,0 2,0 0,0 2,1 2,1 -1,-2 -2,-2 -4,-4 -1,-2 -2,-4 -3,-5l-5 0 3 5c-7,-3 -2,0 -8,-5l5 0c-3,-3 -1,-1 -7,-1 -3,0 -3,2 -3,-2 -4,1 -6,0 -8,3z"></path> <path class="fil1" d="M885 181c-1,3 0,4 0,8l1 7c0,0 0,0 1,1l-2 -16c0,-9 2,-6 6,-7 3,1 3,0 7,-1 0,-5 -1,-9 2,-12 -1,-5 1,-2 -2,-3 -2,4 -1,10 -1,14 -1,0 -3,0 -4,1 -2,0 -1,0 -2,1 -5,-3 -2,-4 -3,-13 0,-2 -1,-10 -2,-12 -2,3 -1,13 -1,17 1,15 -2,9 0,15z"></path> <path class="fil1" d="M983 226c2,-2 1,2 2,-4l-2 -20c-1,-5 0,-3 -3,-5 -2,3 -1,7 0,14 0,2 1,5 1,8 0,5 -1,5 2,7z"></path> <path class="fil1" d="M952 245l6 0 -2 -19c-1,-2 -1,-1 -2,-2 -2,2 -2,-2 -1,10 0,7 -1,6 -1,11z"></path> <path class="fil1" d="M983 396l4 -1c-1,-3 -1,-2 -2,-4 -4,-1 -6,-5 -13,-8 -1,4 -1,1 3,5 3,3 5,6 8,8z"></path> <path class="fil1" d="M942 447l0 0 -5 0c6,5 1,2 8,5l-3 -5zm4 6l0 0 0 0z"></path> <path class="fil1" d="M916 458c58,-21 96,77 27,99 -57,18 -98,-74 -27,-99zm-1 -9c-28,6 -52,35 -44,72 17,77 135,49 117,-26 -6,-30 -35,-55 -73,-46z"></path> <path class="fil1" d="M923 482c29,-10 48,39 14,50 -29,9 -50,-37 -14,-50zm-1 -4c-14,3 -26,17 -22,36 9,39 68,25 59,-13 -3,-15 -18,-28 -37,-23z"></path> <path class="fil1" d="M1193 510c14,-5 21,14 9,20 -13,5 -24,-14 -9,-20zm-2 -4c-5,2 -6,2 -9,7 -8,18 19,32 29,14 6,-11 -4,-27 -20,-21z"></path> <path class="fil1" d="M1190 495c-12,3 -22,15 -19,31 8,33 58,21 51,-11 -3,-13 -15,-24 -32,-20zm0 -3c-14,3 -26,17 -22,35 9,37 65,23 57,-13 -3,-14 -17,-26 -35,-22z"></path> </g> </g> </g> </svg> 