<?xml version="1.0" encoding="UTF-8"?> <!-- Creator: CorelDRAW X7 --> <svg xmlns="http://www.w3.org/2000/svg" xmlns:xlink="http://www.w3.org/1999/xlink" xml:space="preserve" width="0.534157in" height="0.232776in" version="1.1" style="shape-rendering:geometricPrecision; text-rendering:geometricPrecision; image-rendering:optimizeQuality; fill-rule:evenodd; clip-rule:evenodd" viewBox="0 0 214 93"> <defs> <style type="text/css"> <![CDATA[ .fil1 {fill:#4D4D4D} .fil0 {fill:#E52D33} ]]> </style> </defs> <g id="Layer_x0020_1"> <metadata id="CorelCorpID_0Corel-Layer"></metadata> <g id="_2822800387504"> <polygon class="fil0" points="1,13 12,18 12,30 0,26 "></polygon> <path class="fil0" d="M118 63c0,0 -4,1 -4,1 0,0 0,3 0,3 0,0 4,-2 6,-1 2,0 5,-1 8,3 0,0 5,1 7,8 0,0 1,5 0,7l0 1 5 -1 7 0c0,0 5,0 6,-2 0,0 4,-3 6,-5 0,0 3,-5 9,-5l7 -1 8 0 14 0 0 -3 -1 0 -6 -1 -2 -5 -4 -6c0,0 -2,-4 -3,-4 -1,1 -9,1 -9,1l1 6 0 3c0,0 -9,0 -10,1l-4 2 -7 7c0,0 -6,4 -8,4l-4 2 -2 -4 -3 -5 -4 -3 -4 -2 -3 -1 -3 0 -3 0z"></path> <polygon class="fil0" points="21,41 25,41 37,45 38,55 25,52 20,51 "></polygon> <polygon class="fil0" points="0,52 12,55 12,68 0,66 "></polygon> <polygon class="fil0" points="52,50 61,53 61,61 52,59 50,59 50,58 50,50 "></polygon> <polygon class="fil0" points="48,34 56,37 57,46 49,44 47,43 47,42 47,34 "></polygon> <g> <path class="fil1" d="M167 89c1,1 2,2 2,2 1,1 1,0 1,1 -1,0 -24,0 -28,0 1,-1 1,-1 2,-2 1,-1 1,0 3,0 6,0 13,-1 20,-1zm-29 3c1,-1 1,-1 2,-3 1,1 2,0 3,1 -1,1 -3,2 -5,2zm-7 0l1 -2c1,0 2,0 3,0 1,0 1,0 2,-1 1,0 1,-1 2,0 0,0 0,1 -1,2 -1,0 -1,0 -2,0 -2,1 -4,1 -5,1zm57 0c1,-1 1,-1 2,-2 1,-1 0,-1 2,-1 0,1 -1,1 -1,2 -1,0 -2,1 -3,1zm-5 0c1,-1 2,-1 3,-3l4 0c0,0 0,1 -1,1 -1,1 -1,1 -2,1 -1,1 -2,1 -4,1zm-44 -4c0,0 0,0 0,0l6 0 -1 1c-1,0 -2,0 -3,0 -2,0 -2,-1 -2,-1zm-6 1l2 -3c0,0 0,0 0,0 0,0 0,0 0,0 0,0 1,0 1,0l1 2 -4 1zm33 -5c0,-5 4,-9 8,-10 9,0 12,10 8,15 -7,7 -15,1 -16,-5zm25 -7c2,0 3,-1 5,0l0 4c-2,0 -3,0 -4,0 0,-1 0,-3 -1,-4zm-11 -3l2 0c2,2 4,6 4,10 0,2 0,4 -1,5 -2,2 -3,3 -5,3l2 -2c2,-1 3,-4 3,-7 0,-6 -4,-7 -5,-9zm-15 9c0,3 1,3 1,5l-21 1 1 -1 15 -1c1,0 4,1 4,0 -1,-1 -1,1 -1,-3 -1,-4 1,-8 4,-10 0,-1 1,-1 2,-2 2,0 7,0 9,0 1,0 2,0 2,1 -5,0 -12,0 -15,6 0,1 -1,2 -1,4zm-2 1l0 3c-1,0 -16,0 -17,0l0 0c0,0 0,0 0,-1 -1,2 -1,1 -4,1 -3,0 -3,0 -3,0 -1,0 -1,1 -3,-2 8,-1 14,1 20,-4l3 -3c1,-3 4,-5 7,-5 1,0 1,-1 2,0l-1 0c-2,3 -4,6 -4,11zm-23 -7c0,0 0,0 0,0l-2 -3c2,-1 5,-1 7,-1 1,0 5,-1 6,0 -3,1 -7,4 -11,4zm-9 12c0,0 0,0 0,0l0 1c-2,1 -2,2 -6,2 2,-2 3,-2 5,-4 4,-5 4,-10 0,-15 -1,-2 -2,-2 -3,-3l0 0c6,0 10,11 7,15 -2,4 -2,4 -3,4zm-16 -19c-1,-1 -1,-3 -1,-3l3 -1 0 2 0 1c-1,0 -2,0 -2,1zm23 2c-1,-1 -2,-1 -2,-3 9,0 11,0 20,-1 0,0 -2,2 -3,2 -1,2 -2,2 -4,2 -4,0 -8,1 -11,0zm-17 -4c0,1 0,0 0,0l0 -2c1,0 2,0 2,0 1,0 0,0 1,0 1,1 1,1 2,1 0,1 1,1 1,2 0,0 -2,-1 -3,-1 0,1 0,1 0,1 1,1 1,1 1,1l1 1c1,0 1,0 2,1 5,5 5,13 -1,18 -8,5 -18,-2 -18,-9l0 -1 -1 -1c0,2 0,3 1,5l1 2c-1,1 -2,1 -3,1l0 -5c0,0 0,-1 0,-1 -1,-1 -1,0 -1,0 0,6 2,6 -2,6 0,-1 0,-1 0,-2 0,-1 0,-1 0,-2l-1 -22c0,-2 0,-3 0,-5 0,-2 0,-1 1,-3 -1,0 0,-1 -2,1 0,1 2,26 1,30 -2,1 -14,1 -16,1 -1,0 -2,0 -3,0l-17 0c-1,0 -1,0 -2,0l0 0 -1 0c0,0 0,-1 0,1 8,0 21,0 30,0l9 -1 0 2c-3,0 -7,0 -10,0 -4,1 -8,0 -12,0 -2,0 -4,0 -5,0 -2,0 -4,0 -6,0 -4,0 -7,0 -11,0 0,0 -1,0 2,1l8 0c6,1 17,1 23,1 4,0 8,-1 11,-1 0,2 0,2 1,3 0,-1 0,-2 0,-3l3 0c0,2 -1,2 0,2 1,-1 -1,-2 2,-2 2,-1 1,0 3,2 1,0 1,0 2,1 0,0 0,0 0,0 1,0 1,0 1,1l-52 -1 -34 1 -9 -1 0 1c4,0 8,0 13,0l42 0c28,1 56,1 84,1 1,0 2,0 3,0 1,0 8,0 9,0l16 0c3,0 26,0 27,-1l-23 0c4,-5 5,-2 7,-7 0,0 0,-1 1,-2 0,-1 0,-1 -1,-2 0,0 0,0 0,0 0,0 -1,0 -1,0 0,0 0,0 0,0l0 -5 1 1c0,-2 0,-4 0,-5 -1,0 -1,0 -1,0l0 3c-2,1 -5,0 -7,1 0,0 1,5 1,6l5 0c0,1 -1,4 -1,4 1,0 0,1 1,-2 0,0 0,-1 1,-2 1,0 1,0 0,2 0,1 -1,2 -1,3l-9 1c1,-3 0,-7 -1,-10 -1,-3 -4,-6 -4,-6l13 0c0,-1 1,-1 1,-1 1,0 0,0 0,0 -2,-1 -16,0 -18,0 -5,0 -12,0 -16,2 -2,2 -4,5 -7,7 -1,1 -2,2 -3,2 -3,2 -8,2 -12,2 -1,0 -3,0 -4,0 0,-3 1,-5 -2,-10 -1,-2 -2,-4 -4,-5 0,-1 0,-1 -1,-1 0,0 0,0 -1,-1 -1,0 -1,1 -2,0l-1 -1c-1,0 -3,-1 -6,-1l-1 0c-1,0 0,0 -1,0l0 -2c4,0 5,0 9,1 1,0 1,0 2,1l0 0c1,0 0,0 1,1 1,0 3,1 3,2 1,0 2,1 3,3 1,1 2,2 2,3l2 4c2,0 5,-1 6,-1 3,-2 6,-3 8,-5l4 -4c1,0 1,0 1,0l0 -1c0,0 0,0 0,0 2,-2 3,-3 6,-4 8,-1 15,-2 23,-1 0,1 2,5 2,6l1 0c0,0 0,0 0,0l6 0 0 1c1,1 0,1 1,1 0,-1 0,-1 0,-2 1,0 2,0 3,0 -1,-1 -4,-1 -4,-1l-1 -4c1,-1 0,0 1,-1l0 0c0,-1 -1,-5 -1,-7 -1,-1 -1,-1 -2,-1 -1,0 -3,-1 -4,-1 -7,-1 -5,1 -6,-8 -1,-3 -3,-20 -4,-21 1,-1 2,0 3,0 -1,-1 -2,-1 -3,-2 0,0 0,0 0,0 0,0 0,0 0,0l-1 -2c0,-1 0,-2 0,-3 -1,0 -1,0 -1,0l1 2c0,1 0,2 0,3 -2,0 -3,-1 -8,-2 -2,0 -2,0 -2,-1l-1 0c0,1 0,0 0,1 -6,0 -12,0 -18,1 -4,0 -8,0 -12,3 -1,0 -1,1 -1,1 -2,1 -2,-1 -6,-1 -2,1 -2,1 -3,3 -1,2 -1,5 -1,6 1,2 1,5 1,6 1,-1 0,-1 2,-1l-4 9c0,0 0,0 0,0 0,-1 -1,-12 -1,-15 0,-2 0,-5 -1,-7 0,-9 -1,-8 3,-8 0,0 0,1 0,2 0,1 1,1 -1,1 0,-2 1,-1 0,-2l0 2c0,0 -1,0 0,1 1,0 0,0 1,0 1,3 0,5 1,5 1,-1 0,-3 0,-4 1,-2 1,-1 1,-2 -1,0 -1,-1 -1,-2 0,-1 0,-2 0,-3l2 1c0,2 0,6 1,7 0,0 -1,-7 -1,-8 0,0 0,0 -1,0 -2,-2 0,-2 -2,-3 0,0 0,0 0,0 0,0 0,0 0,0 0,1 0,1 0,2l-3 0c0,-3 0,-2 -1,-3 0,-1 0,0 0,0l0 -1c0,0 0,0 0,0l-2 0c0,-1 0,-6 0,-7l0 8 -6 1 0 -2c0,0 0,1 0,2 -1,0 -1,0 -2,0 -1,0 -1,0 -1,2l0 3c0,2 0,7 1,9 0,9 0,18 1,27 -4,-1 -6,-2 -7,0l-1 -1c0,-1 1,0 0,-1 0,3 1,20 0,22l1 0c0,2 -1,-1 0,1 0,1 0,5 0,6 1,-1 1,-1 1,-1 0,-1 0,-1 0,-2 0,-3 -1,-8 -1,-11l0 -10c0,-2 0,-2 1,-3 1,0 5,1 6,1l0 3c-1,-1 -5,-2 -6,-1l2 22 0 1c0,0 0,0 1,-1l-1 0c0,-1 0,-1 0,-2 1,0 0,1 1,0 0,0 0,0 0,0 -1,-1 0,0 -1,-1l0 -4c0,-3 -1,-11 -1,-13 1,0 2,1 3,1l0 13c0,0 0,0 0,1 -1,0 0,0 0,1 0,-1 1,-1 1,0 0,-1 0,-2 1,-2 1,-1 2,-2 4,-2l0 0c0,0 0,0 0,0 0,1 0,1 0,1 1,-1 0,0 0,-1l1 0c0,0 0,0 0,0 0,0 0,-1 0,-1l1 0c0,0 1,0 1,0 1,-1 0,-1 1,-1l-2 0 -2 0 0 -2 4 0 0 2zm-11 6c0,0 1,0 0,0 0,-1 1,0 0,-1l0 1zm78 -12l6 0c1,0 0,1 1,1l0 4c-2,0 -5,0 -5,0 -1,-1 -2,-4 -2,-5zm-36 3c0,0 0,0 1,0 2,-1 6,-2 9,-1 -1,0 -2,0 -3,1 -1,1 -1,2 -3,2 -3,0 -5,0 -8,1 0,-1 2,-6 4,-6 1,0 2,0 3,0 4,0 9,-1 13,-1 0,0 -1,0 -1,1l-1 0c-1,0 -1,0 -2,0l-8 2c-1,0 -3,0 -4,1zm-6 3c0,-5 -1,-5 1,-7 1,0 2,-1 3,-1 2,-1 14,-1 17,-1 1,0 2,1 1,2 -5,0 -10,0 -14,0 -3,1 -4,1 -5,3 -1,1 -2,4 -3,4zm5 -11c1,0 15,1 16,1 1,0 1,0 1,0 -8,0 -7,0 -15,1 -1,0 -2,0 -2,-1 -2,2 -1,1 -3,2 -6,4 -2,3 -3,8l-5 0c0,-2 2,-12 3,-15 0,-1 2,-2 2,-3 2,0 3,1 4,1 1,0 1,0 1,-1 0,0 -3,0 -6,-2l1 -2c2,1 2,2 4,3 -1,-1 -1,-2 -2,-3 0,0 0,0 -1,-1 -1,-1 -1,0 0,-4 1,-1 1,-1 1,-1l0 0c0,0 0,-1 0,-1l1 4c1,1 1,1 1,0 0,0 0,0 -1,0 0,-3 0,-5 0,-7 1,-2 2,-3 3,-5 1,-1 2,-2 5,-2 2,0 4,-1 7,-1l0 1c0,0 0,0 1,0 0,1 0,1 0,2 1,1 1,1 1,3 1,2 1,6 1,7 -1,1 -4,2 -4,5 -1,2 0,4 0,6 1,3 -3,1 -11,1 -2,1 -1,1 -3,1 0,1 1,2 1,3 0,0 0,0 0,0 0,0 -1,0 -1,0 1,1 2,0 2,2 0,0 1,-1 1,-1l0 -1zm-43 0l0 -1 5 1c1,1 0,4 0,5 1,1 1,2 1,2 0,2 0,2 -1,2l1 1c0,1 0,2 0,3 -1,0 -1,1 -2,1 0,-1 0,-12 -1,-12 0,-2 -2,-1 -3,-2zm29 11l-2 0c0,-4 2,-7 2,-7 0,-1 1,-5 3,-5 0,1 -1,4 -2,6 0,1 -1,6 -1,6zm2 0l-1 0c0,-3 2,-11 3,-13 1,0 1,0 1,2l-3 11zm2 -21l2 2c-1,5 -1,5 -5,7l1 -5c1,-1 1,-3 2,-4zm42 6c1,1 10,1 11,2 0,1 1,5 1,6l-7 0 -5 -8zm-10 0c1,0 3,0 5,0 3,0 4,0 7,4 0,1 1,3 1,4 -3,0 -7,0 -10,0 -3,0 -2,1 -3,-3 0,-1 0,-3 0,-5zm-7 -9l2 13c-3,0 -6,-1 -9,0 -3,0 -6,0 -9,0 0,-1 -1,-2 0,-2 1,-1 5,0 7,0 3,0 5,0 7,0 2,-6 0,-8 2,-10 0,0 0,0 0,-1 0,0 0,0 0,0l0 0zm-29 14c-2,0 -1,0 -1,0l1 1 0 0c-1,1 -1,1 -2,1 0,0 0,0 1,0 0,1 0,0 0,1l0 1c0,0 0,0 -1,0 0,1 -1,5 -1,5l-3 -2c-2,0 -1,0 -2,-1 -1,0 -1,0 -2,0 0,-1 0,-1 -1,-1l-1 0c0,-2 2,-7 3,-9 1,0 7,2 8,1 0,0 2,-4 3,-5l0 -1c0,2 -1,5 -1,7 -1,1 0,1 -1,2zm7 -10l-1 -1c-1,0 -2,-1 -2,-1l1 -2c1,0 2,1 2,1 0,1 0,2 0,3zm24 -6l2 0c0,1 1,2 1,3 0,2 0,2 -1,4 1,0 1,0 1,0 1,1 1,10 2,12l-4 0 -1 -19zm-39 7c1,-1 2,-5 3,-6 0,0 1,0 0,1 0,1 0,2 0,2 -1,2 -1,3 -3,3zm42 -7c1,0 2,1 2,2 0,1 -1,2 -1,2l-1 -4zm-8 12l0 0c2,-3 -2,-6 1,-10 0,-1 2,-2 2,-2 1,2 0,1 -1,3 -1,1 -1,2 -1,3 0,2 1,3 1,4 0,1 -1,1 -1,2 0,1 0,0 -1,0zm-31 -13c1,0 0,0 1,0 1,2 1,4 0,6 -2,5 -1,3 -4,4 0,-1 1,-1 2,-1 1,-1 2,-6 2,-6 0,-1 -1,-2 -1,-3zm-10 21c1,-6 5,-17 8,-23 0,-1 0,-1 0,-1l1 -3c1,-1 1,-3 2,-4 0,2 1,4 0,6 -3,6 -5,12 -7,19 0,2 -1,3 -1,5 -1,2 0,2 -3,1zm47 -34c4,0 3,0 6,3l1 2c1,1 1,3 1,4 0,2 2,14 2,15l-6 0c-1,-1 -1,-2 -1,-3 0,-2 0,-2 1,-3 2,-4 -1,-4 -2,-5 0,0 -1,-5 -1,-6 0,-2 -1,-5 -1,-7zm-28 17c-1,0 0,0 -1,-1 0,0 0,-1 0,-1 0,0 -1,0 -1,0 0,-1 0,-1 0,-1 0,0 -1,1 0,2 1,4 2,0 -2,8l-1 2c0,0 0,0 0,0l-1 0c-1,0 -6,0 -7,-1 0,-2 3,-1 4,-2 1,-1 2,-4 3,-6 1,-4 -3,-3 -2,-6 1,1 1,0 2,1 0,0 1,0 2,0 0,-2 0,-4 0,-6 0,-4 0,-3 2,-5 1,-2 1,-3 4,-2 1,1 3,1 4,2 0,2 -5,10 -6,16zm23 -17l4 0 2 13 -3 0c0,-2 0,-5 -1,-7 0,-2 0,-3 -1,-4 0,0 -1,-1 -1,-2zm-21 -2l1 -1c0,0 0,0 1,0 2,0 13,-1 14,-1 1,0 3,3 3,3 -3,1 -9,1 -11,2 -3,3 -6,10 -6,15 -1,0 -3,-1 -3,-1 1,-2 4,-10 6,-12 1,-1 1,-1 1,-3 -1,0 -2,-1 -3,-1l-3 -1c0,0 0,0 0,0zm-14 11l-1 0c-1,-2 -1,-3 -1,-5 0,-3 0,-3 1,-5 1,-2 1,-1 3,-2 2,0 1,0 3,1l1 0c0,1 -1,2 -1,2 -1,1 -1,2 -2,3 0,-1 0,-1 0,-2 0,-1 0,-1 0,-2 -1,1 0,0 -1,1 0,2 1,4 0,6 -1,-1 -1,-4 -1,-6 0,-1 0,-1 0,-2 -1,1 1,9 -1,11zm44 -9c-2,-1 -2,-1 -4,-1l0 -3c1,0 8,2 9,2l0 1c0,0 1,1 1,1 0,0 0,1 0,1l4 23 -3 0c-1,-3 -1,-17 -3,-20l-2 -2c-1,-1 -1,-2 -2,-2zm-12 -4l6 0c2,4 0,3 -1,3 -1,0 -2,0 -3,0 0,0 0,-1 -1,-1l-1 -1c0,-1 0,0 0,-1zm-26 11l0 -1c1,-1 0,0 1,-1 0,0 0,0 0,0l0 6c-1,0 -1,0 -2,0 0,-2 0,-4 0,-6 0,-3 0,-4 1,-6 1,0 1,-1 2,-1 2,-4 8,-4 12,-4 3,-1 15,-1 18,-1l1 2c-4,0 -8,0 -12,0 -4,0 -14,0 -18,4 0,1 -1,2 -2,4 -1,1 -1,1 -1,4zm44 -9c-1,-1 -4,-2 -5,-2 -2,0 -4,-1 -6,-1l0 -2c2,0 7,1 9,2 1,0 1,0 2,1l0 2zm-53 -11c0,0 0,0 0,1 0,0 0,0 0,0 0,0 -1,0 -1,-1 1,-1 0,0 1,0zm-3 1c0,-1 0,-1 1,-1 0,1 0,1 0,1l-1 0zm-5 3c-1,0 -1,0 -1,0 -2,0 -1,0 -2,0l1 1c0,0 0,0 0,0 1,0 1,0 2,0 0,-1 1,-1 2,-1l0 6 -1 0c0,-1 0,-3 -1,-4 -1,1 1,3 0,4 -1,0 -1,0 -2,0 1,1 2,1 2,1 1,0 2,-1 3,0 0,5 2,28 1,31 0,1 0,4 -1,4 0,-1 -2,-33 -2,-34 0,0 0,0 0,0 -1,0 0,-1 -1,1 0,0 0,1 0,1 1,1 1,1 1,2l0 13c1,7 1,12 1,18l-3 1c0,-4 0,-8 0,-12 0,-4 -1,-7 -1,-11 0,-4 0,-8 0,-11 -1,-2 -1,-4 -1,-6 0,-1 0,-2 0,-3 0,0 0,-1 0,-1 0,-1 0,-1 -1,-1 0,0 0,3 0,5l2 28c0,4 1,9 0,12 0,0 0,0 -1,0 0,1 0,0 2,1l0 1 -3 1 0 -8 1 -1c-1,0 -1,0 -1,-1 0,-2 0,-2 1,-2 -2,-1 -1,0 -1,-4 -1,-7 -2,-35 -2,-37l2 0 0 2c1,1 4,0 5,0l1 0c0,0 0,0 0,2 0,0 0,1 0,1l-1 0c0,-1 0,-1 0,-2 -2,0 -1,1 -1,3zm-4 -6c1,-1 3,-1 4,-1l-1 2c0,0 -2,0 -3,0l0 -1zm7 -1c1,0 1,0 1,1 0,1 0,2 0,3 1,4 1,11 1,16l1 16c1,2 0,3 0,4 -1,1 -1,1 -1,1l-2 -41zm-1 0c0,0 0,-1 0,0 0,0 0,0 0,1 0,0 0,0 0,0 -2,1 -2,0 -2,-1l2 0z"></path> <path class="fil1" d="M28 25l-7 -1 0 -4c1,0 3,1 3,2l27 12c1,0 1,0 1,0 0,0 0,0 0,0l11 5c1,0 1,0 1,0 0,0 0,0 0,0 1,0 1,0 1,0l1 1c3,2 7,3 10,5l0 8c-1,0 -2,0 -2,-1l-6 -2c0,0 -1,0 -1,0 -2,-1 -8,-3 -9,-3 0,-1 1,-1 2,-1 0,0 0,1 1,1l0 0c0,0 0,0 0,0 1,0 2,1 3,1l1 0c0,-1 -4,-2 -5,-2 0,-1 0,-4 0,-5l6 2c0,2 0,5 0,6 1,0 1,-1 1,-2l4 -1c1,0 2,0 3,0 0,2 0,4 0,6 1,0 1,0 1,-2l0 -3c0,-3 -1,-2 -4,-2 -1,1 -3,1 -4,1l0 -3 -1 -1c-3,-1 -5,-3 -8,-3 -1,1 0,0 -1,1 1,0 0,0 1,0 1,1 0,0 0,0 1,0 1,0 1,0l0 5 -2 1c0,-1 0,-4 0,-6 0,-1 1,-4 -2,-4 0,1 0,1 1,1l0 7c-1,0 -1,0 -2,0 0,1 0,0 1,1 0,0 2,1 1,1 -1,-1 -6,-2 -7,-3 0,-1 0,0 1,-1l-1 0c0,0 0,0 0,0 0,-1 0,-1 0,-2l0 -6c0,0 1,1 1,1 1,0 1,0 2,0l-3 -2c0,0 0,0 0,0 -1,0 -2,1 -3,0l-1 0c0,0 0,0 0,0 0,0 0,0 0,0l-3 -2c-1,0 -4,-2 -5,-2 0,0 -1,1 -2,1 0,-2 0,-2 -1,-2l-6 -2c-1,-1 0,-1 -1,0 2,1 6,2 7,3l0 9 -9 -3 0 -7 0 -2 3 -1zm25 19c1,0 0,1 1,0 0,-1 -2,-1 -3,-2l-2 0 4 2zm-2 -9c0,0 0,0 1,0 0,1 0,1 1,1 0,0 1,0 1,0 2,1 1,1 2,0 -2,0 -3,-2 -5,-1zm-4 -1l1 0 0 9 -1 0 0 -9zm-9 3c0,-1 0,-2 0,-4 0,-3 -1,-3 2,-1 2,0 5,2 6,2l0 6c-1,1 0,0 -1,1l1 0 0 1c-1,0 -7,-2 -8,-3l0 -1c1,0 0,0 1,0l-1 -1zm1 1c0,1 2,1 3,2l0 0c1,0 2,1 3,0 0,0 -1,0 -2,-1 -2,0 -3,-1 -4,-1zm-4 -7c1,0 1,-1 2,-1l0 9c-1,0 -1,0 -2,-1l0 -7zm-6 6c0,0 1,1 2,1l4 1c3,2 10,4 13,5 5,2 10,3 14,5l15 5 0 -10 -28 -13c-4,-1 -7,-3 -11,-5l-2 0c-2,-1 -4,-2 -6,-3l-6 -3c0,0 0,0 0,0 -1,0 -3,-1 -4,-1l0 14 -2 -1 0 -14 -7 -3c0,0 0,-1 0,-1 -3,-1 -8,-3 -11,-4l0 1 1 0 3 2c1,0 2,0 3,1l11 5c0,2 0,4 0,6l0 7 -2 0c0,0 1,-10 1,-11 0,0 0,-1 0,-2 0,0 0,0 -1,0 -1,1 0,4 0,6 -1,0 -2,0 -3,0 -1,-2 0,-5 0,-7 -1,-1 -1,-1 -2,-1l-9 -4c-1,0 -1,-1 -2,-1l0 15 12 4c5,2 11,4 17,6zm-8 -12l4 1 0 8 -4 -1 0 -8zm-8 1c0,0 2,0 3,0 0,2 0,4 0,5 0,0 0,0 -1,0 -2,-1 -3,0 -2,-5zm-7 1l3 1c1,0 2,1 3,1l0 1 -11 -4c0,-1 0,-1 0,-1 0,0 2,0 3,1 1,0 2,1 2,1zm-5 -14c1,1 2,1 3,2l8 3 0 10c-1,0 0,0 -1,0l-2 -1c-1,0 -2,-1 -3,-1 -1,-1 -4,-2 -5,-3l0 -10z"></path> <path class="fil1" d="M13 68l0 -8c0,-1 0,0 1,-1l2 0 0 9c-1,0 -2,0 -3,0zm-13 -4l1 0 4 1c2,0 3,1 4,1 3,0 3,0 3,1 -3,1 -9,-1 -12,-1l0 0 0 1 9 1c3,0 3,0 3,1l0 0c0,0 0,0 0,0 0,0 0,0 1,0 2,0 4,1 5,0 1,-2 1,-11 1,-14 0,-1 0,-1 -1,-1l-18 -4 0 0 18 5 0 11c0,1 0,3 -1,2 0,-2 0,-5 0,-7 0,-1 0,-5 -1,-6 0,0 0,2 0,3 -2,1 0,1 -3,1 0,-6 1,-4 -5,-5 -2,-1 -5,-1 -8,-2l0 1 0 0c3,1 10,2 12,2l0 10c-1,0 -8,-1 -12,-2l0 1zm13 -22c2,0 2,0 3,0 0,2 0,5 0,7 -1,1 0,0 0,1l-3 -1c0,-1 0,-5 0,-7zm-13 5l3 1c3,0 14,3 16,3l-1 -15c0,-1 -1,-1 -2,-1 -1,0 0,0 -1,0 1,1 2,1 3,2l0 13c-1,0 -1,0 -1,0l0 -10c0,-2 0,-3 -1,-3l0 4c0,0 0,0 -1,0l-2 0c0,-1 0,-4 -1,-5 1,0 -4,-2 -10,-3 -1,-1 -2,-1 -2,-1l0 10c0,0 0,0 1,0l0 -9c1,0 2,1 2,1l6 2 3 1 0 2 0 8c-2,0 -6,-1 -8,-2 0,0 -3,-1 -2,0 0,0 0,-1 -1,-1 0,0 0,0 0,0l-1 -2 0 1 0 2 1 0c1,0 1,1 2,1 2,0 6,2 9,2l0 1c-3,-1 -6,-2 -9,-2 -3,-1 -2,-2 -3,0 1,-1 1,-1 0,-2l0 0 0 2z"></path> <path class="fil1" d="M61 74c1,0 4,0 5,0 0,0 1,1 1,1 1,0 1,-1 1,0 1,0 0,0 -1,0l-5 -1c-1,0 -1,0 -1,0zm-2 -5c1,0 0,0 1,0 0,2 0,4 0,5l-1 0c0,-1 0,-3 0,-5zm-8 2c0,0 -1,-7 0,-7 0,0 5,1 7,1 0,2 0,6 0,9 -1,0 -6,-1 -7,-1 0,-1 0,-1 0,-1 0,0 -1,0 1,0 2,1 3,1 4,1 -1,-1 -4,-2 -5,-2zm-11 -1c2,1 5,1 7,2l-7 -1 0 -1zm21 -1c2,0 5,1 7,1 0,2 1,3 0,4 0,0 -6,-1 -7,-1l0 -4zm-24 2l-8 -1c0,0 -1,0 -2,-1l0 -1c2,1 5,1 8,2 2,0 2,0 2,1zm-16 -2c1,-1 4,-1 5,-1l0 1 -5 0zm19 -5c1,0 7,1 7,1 0,2 0,4 0,6l-7 -1 0 -6zm-19 -5l5 -1 0 6 0 2 0 1 -5 1 0 -9zm5 -1l11 3 0 8c-2,0 0,0 -2,0l-3 -1c-2,0 -4,0 -5,0l-1 -10zm24 11c0,5 0,3 -2,3l0 -5c0,-2 0,-3 -1,-3 -3,0 -8,-2 -9,-1 0,1 1,0 1,1l0 7 -1 0 0 -11c-1,0 -3,-1 -4,-1l-4 -1c-3,0 -4,-1 -7,0 -1,0 -1,0 -2,0l0 -3 10 2c1,1 2,1 3,1 3,1 5,1 7,2l16 3c1,0 1,0 2,1 1,0 2,0 3,0l9 2c0,0 1,1 1,1 2,0 3,0 4,0l0 9 -1 0c0,-2 0,-7 0,-8 -1,0 -3,0 -4,0l-3 0c0,0 0,0 0,0 0,0 -1,0 -1,0 0,0 0,1 0,1 0,-1 0,0 0,0 1,0 0,0 1,0 1,0 5,0 6,0 0,1 0,5 0,7l-5 -1 0 -5c-1,-1 -3,-1 -4,-1 -1,0 -3,-1 -4,-1 -3,0 -2,2 -2,-3 -4,-2 -10,-3 -14,-2 1,1 3,1 5,1 0,1 0,3 0,5zm-30 -15c0,1 0,13 0,15 5,1 9,2 14,2l14 2c1,0 1,1 2,1 1,0 1,0 2,0 3,0 23,3 25,3l0 -10c-1,-1 -12,-3 -14,-4l-9 -1c-1,-1 -2,-1 -2,-1l-11 -2c-2,-1 -5,-1 -7,-2 -3,-1 -6,-1 -9,-2 -1,0 -4,-1 -5,-1z"></path> <path class="fil1" d="M0 7l9 4c0,0 0,0 0,0l4 2c1,1 2,1 3,2 1,0 2,1 3,0l0 -13 1 0 0 14c0,0 1,1 1,1l27 13c1,0 0,0 1,0 0,0 0,0 1,1 0,0 1,0 1,0 2,1 3,2 4,2l5 2c0,0 0,0 0,0 0,0 0,1 0,1l11 4c0,0 0,0 0,0 0,1 0,1 0,1l0 0c0,0 0,0 0,0 0,0 0,0 0,0 1,0 1,0 1,0 1,1 4,2 5,2 0,-2 0,-6 0,-8 0,-1 0,-1 -1,-1 0,1 0,7 0,8l-12 -6c-3,-1 -6,-3 -9,-4l-5 -2c0,0 -1,-1 -2,-1 -1,-1 -2,-1 -3,-2l-5 -2c0,0 0,0 0,0 0,0 0,0 0,0l-9 -4c0,-1 -1,-1 -2,-1l-5 -3c-1,0 -2,-1 -3,-1 0,-1 0,-15 -1,-16 0,0 0,1 0,1 -1,0 -1,-1 -2,-1l0 15 -1 -1 -1 -10c0,0 0,0 0,2l0 7 -15 -7c0,0 0,0 0,0l-1 0 0 1z"></path> <path class="fil1" d="M51 88l-10 -1 0 -6c12,2 10,-1 10,7zm-22 4l34 -1c-1,0 -4,0 -5,0 -2,0 -4,0 -6,0 -2,0 -9,0 -11,0l0 -1c0,-1 0,-2 0,-2l10 0c0,1 0,1 0,2 0,0 1,0 1,-2 0,-1 0,-7 -1,-6l-9 -1c-1,-1 0,-1 -2,0l-2 0 0 -4c-2,0 -3,-1 -5,-1 -1,0 -3,0 -4,0 -1,0 -7,1 -8,0l0 -3c1,0 13,1 15,2 1,0 2,0 2,0 1,0 1,0 3,0l14 2c6,0 12,1 17,2 1,0 1,0 2,0 1,0 1,0 2,0l0 0c0,6 0,6 -1,6 0,-2 0,-4 0,-5 -2,-1 -7,0 -8,0 0,0 0,0 2,0l5 0 0 5c-3,0 -6,-1 -9,0 1,0 1,0 2,0l17 0c1,0 2,0 3,0 -2,-1 -6,0 -9,0 1,-8 1,-23 1,-32 0,-2 0,-4 0,-5 0,-1 0,-4 -1,-5 0,0 0,0 0,1 0,0 0,1 0,1l0 39c0,1 0,1 -1,1 0,-2 0,-6 0,-7 -1,0 -20,-2 -22,-2l-5 -1c-2,0 -3,0 -5,0l-25 -3c0,1 0,13 0,17 0,1 0,1 0,2 1,-1 1,-1 1,-1 0,-1 0,-11 0,-13 2,0 3,0 5,0 1,0 1,0 1,0 1,1 0,7 1,10 -3,-1 -3,0 -3,0l1 1c1,0 1,0 1,0 0,0 0,1 1,2 0,-1 0,0 0,-1 1,-1 0,-2 0,-2l0 -10 9 0c0,1 0,8 0,10 -2,0 -3,0 -4,0 -1,0 -2,0 -2,0 -2,0 -2,0 -2,1l8 0c0,2 -1,1 0,2l1 -2c0,-1 -1,-1 -1,-2 0,-1 0,-3 1,-4 3,-1 3,-1 3,1l-1 4c0,1 0,1 1,1 0,1 -1,2 0,3 -2,0 -4,0 -6,0l-5 0c0,0 0,0 -1,1z"></path> <path class="fil1" d="M0 70c1,1 2,1 3,1 1,0 1,0 2,0l8 1c4,0 5,0 5,1l0 19c0,0 0,-1 0,0l2 0 0 -1 -1 0c0,0 0,-19 -1,-19l-18 -3 0 1z"></path> <path class="fil1" d="M40 46c1,0 4,1 5,1 1,1 4,1 5,2l0 7c0,0 0,0 0,-1 0,-3 -1,-5 2,-5 0,3 0,5 0,7 0,1 0,1 0,2l-1 0c-1,-1 0,-1 0,-2 0,0 -1,0 -1,-1 0,1 0,0 0,1l-1 0c-1,-1 -8,-2 -9,-3l0 -8zm0 8c1,1 3,2 5,2 1,0 2,0 3,1 2,0 2,0 2,1 -2,0 -4,-1 -6,-1 -5,-1 -4,-1 -4,-3zm-1 2l-1 -1c0,0 0,-8 0,-9 0,-1 0,-1 1,0 1,0 0,10 0,10zm-14 -6c0,0 12,4 12,4l0 1 -12 -3 0 -2zm-1 0l0 2 -3 -1 3 -1zm1 0c-1,-1 0,-7 0,-8 0,-1 0,-1 0,-1l12 4 0 8c-1,0 -4,-1 -6,-1 -1,-1 -2,-1 -3,-1 -1,0 -3,-1 -3,-1zm-4 -7c0,-2 -1,-2 1,-2 0,0 1,0 2,0l0 6c0,2 1,4 -3,3l0 -7zm0 -6c1,0 16,6 20,7 4,1 10,3 14,5l21 7 0 9 -22 -6c-2,0 -1,1 -2,-1 1,0 2,0 4,1l2 0c1,1 0,0 1,0l-7 -2c0,-9 0,-7 4,-6 6,2 4,1 4,8 0,0 0,0 0,1 1,0 0,0 1,0 0,0 -1,0 0,0l0 -4 3 0c0,2 0,5 1,5l0 -5c1,0 2,1 3,1 1,0 1,0 2,1 1,0 1,0 1,3 0,1 0,1 0,2 1,0 1,0 1,0l0 -5c-1,-1 -4,-1 -5,-2 -5,-1 -3,0 -6,-1l0 -3c-2,-1 -8,-2 -10,-2 -1,-1 -1,-1 -1,-2l-5 -1c-3,-2 -4,-2 -7,-2 -1,-1 -1,-1 -4,-2l-8 -2c-2,0 -3,0 -5,0l0 -4zm-1 14c1,1 9,3 11,3 1,0 2,1 3,1 3,1 11,3 14,4 3,1 7,1 11,2l18 4c0,-1 -1,-8 0,-9 -1,-1 -2,-1 -3,-2l-15 -4c-4,-2 -12,-4 -14,-5l-11 -4c-2,-1 -4,-1 -7,-2l-7 -2 0 14z"></path> <path class="fil1" d="M18 92c0,-1 0,0 0,0 -3,0 -10,0 -18,0l0 0 3 0c5,0 10,0 15,0z"></path> <path class="fil1" d="M12 86c-1,1 -8,0 -12,0l0 1 12 0c0,2 0,2 0,3 1,-1 1,-1 1,-2l0 -14c-3,0 -8,-1 -11,-1l-2 0 0 1 4 0c3,0 6,0 8,1 0,2 0,4 0,6 0,2 0,4 0,5z"></path> <path class="fil1" d="M118 73c-3,1 -6,5 -5,9 2,10 17,6 15,-3 -1,-4 -5,-7 -10,-6zm0 0c-4,0 -7,4 -6,9 3,11 19,7 16,-3 -1,-4 -5,-8 -10,-6z"></path> <path class="fil1" d="M64 85l1 0c1,-6 0,-5 -2,-5l-7 -2c-2,0 -3,0 -5,1l-3 0c-2,1 -1,0 -1,1l2 0c2,0 1,0 3,-1 2,0 1,1 2,5 0,2 0,3 0,4 0,2 0,1 0,2l0 -11c2,0 9,1 10,2l0 4z"></path> <path class="fil1" d="M15 73c-1,0 -1,0 -2,0 1,1 1,1 1,1 1,0 1,0 2,0 0,0 0,12 0,14 0,2 0,1 0,2 1,-1 0,0 1,-1l0 -8c0,-2 0,-7 -1,-8 0,0 0,0 -1,0z"></path> <path class="fil1" d="M119 79c3,-1 5,3 2,4 -3,1 -5,-3 -2,-4zm0 -1c-1,0 -1,0 -2,1 -2,4 4,7 6,3 1,-2 -1,-6 -4,-4z"></path> <path class="fil1" d="M196 69l0 2c0,0 1,0 0,0 0,0 -1,0 -1,1l2 0 0 0c0,0 0,0 1,0 0,1 0,3 0,5 1,-1 0,-4 0,-5l10 0c0,0 0,0 0,0 0,-1 -1,-1 -2,-1 -3,0 -6,0 -8,0 0,-1 -1,-2 -1,-3 0,1 0,1 0,2 -1,0 0,0 -1,-1z"></path> <path class="fil1" d="M70 57c2,0 3,0 4,0 0,1 0,2 0,4 0,2 0,2 0,3 1,0 1,0 1,-1l0 -7c-1,0 -2,0 -3,0 -2,0 -1,0 -2,1z"></path> <path class="fil1" d="M67 67c-2,-1 -6,-2 -8,-2l0 1c0,0 0,0 0,0 0,1 0,1 1,2 0,-1 0,-1 0,-2 1,0 2,1 4,1 0,0 1,-1 2,1l1 0 0 -1z"></path> <path class="fil1" d="M131 58c1,0 1,0 2,0 3,1 1,0 4,1l-1 -1c0,0 -1,0 1,0 -1,-1 -4,-1 -5,-1 0,0 0,0 0,1l-1 0z"></path> <path class="fil1" d="M119 68l2 0c-1,0 0,0 -1,1 0,0 -1,0 -1,0l2 0c3,0 1,0 3,0l0 0c0,1 0,1 0,1 0,0 1,0 1,0 0,0 0,0 0,0 0,0 0,0 -1,-1 0,0 0,0 0,-1l-1 0 0 1c-1,0 0,0 -1,-1l1 0c-1,0 0,0 -2,0 0,0 0,1 0,0 -1,0 -1,0 -2,0z"></path> <path class="fil1" d="M111 14c0,0 0,1 0,1l0 2c0,0 0,0 0,0l0 -3c0,-2 0,-2 1,-2 1,0 1,0 2,0 0,-1 0,-2 0,-2 0,-2 0,-1 0,-1 -1,1 0,2 0,3 -1,0 -1,0 -1,0 -1,0 0,0 -1,0 -1,0 0,-1 0,-3 0,0 -1,-2 -1,-2 0,1 0,3 0,4 0,3 0,1 0,3z"></path> <path class="fil1" d="M131 23c1,-1 0,0 1,-1l-1 -4c0,-1 0,-1 0,-1 -1,1 -1,1 0,3 0,0 0,1 0,1 0,1 0,1 0,2z"></path> <path class="fil1" d="M125 27l1 0 0 -4c-1,0 -1,0 -1,-1 0,1 0,0 0,3 0,1 0,1 0,2z"></path> <path class="fil1" d="M131 58l1 0c0,-1 0,-1 0,-1 -1,0 -2,-1 -3,-2 0,1 0,0 1,1 0,1 1,1 1,2z"></path> <path class="fil1" d="M123 68l0 0 -1 0c1,1 0,1 1,1l0 -1zm1 1l0 0 0 0z"></path> <path class="fil1" d="M117 71c12,-5 20,15 6,20 -12,3 -20,-15 -6,-20zm0 -2c-6,1 -10,7 -9,14 4,16 28,11 24,-5 -1,-6 -7,-11 -15,-9z"></path> <path class="fil1" d="M119 75c6,-2 10,8 3,11 -6,2 -11,-8 -3,-11zm0 0c-3,0 -6,3 -5,7 2,8 14,5 12,-3 0,-3 -3,-5 -7,-4z"></path> <path class="fil1" d="M174 81c3,-1 5,3 2,4 -3,1 -5,-3 -2,-4zm0 -1c-1,1 -1,1 -2,2 -2,3 4,6 6,3 1,-2 -1,-6 -4,-5z"></path> <path class="fil1" d="M174 78c-3,1 -5,3 -4,6 1,7 12,5 10,-2 0,-2 -3,-5 -6,-4zm0 0c-3,0 -6,3 -5,7 2,7 14,5 12,-3 -1,-3 -4,-5 -7,-4z"></path> </g> </g> </g> </svg> 