<?xml version="1.0" encoding="UTF-8"?> <!-- Creator: CorelDRAW X7 --> <svg xmlns="http://www.w3.org/2000/svg" xmlns:xlink="http://www.w3.org/1999/xlink" xml:space="preserve" width="0.95602in" height="1.13253in" version="1.1" style="shape-rendering:geometricPrecision; text-rendering:geometricPrecision; image-rendering:optimizeQuality; fill-rule:evenodd; clip-rule:evenodd" viewBox="0 0 875 1037"> <defs> <style type="text/css"> <![CDATA[ .fil0 {fill:#4D4D4D} .fil2 {fill:#E52D33} .fil1 {fill:white} ]]> </style> </defs> <g id="Layer_x0020_1"> <metadata id="CorelCorpID_0Corel-Layer"></metadata> <g id="_2822800434512"> <g> <path class="fil0" d="M764 958c1,1 0,0 0,0zm-124 -209c-1,-10 0,-10 -3,-19 -2,-5 -5,-9 -7,-15 -2,-5 2,-11 3,-17 2,-8 4,-9 8,-14 1,2 2,-2 -1,7 -1,3 0,5 0,8l7 4c1,9 3,12 5,20 2,7 2,13 5,20 2,6 5,9 9,15 1,2 1,2 2,4 1,1 2,2 3,4l25 35c5,7 9,16 17,20 6,2 12,12 19,17 12,10 7,5 14,11l25 23c19,18 26,18 48,37 0,0 4,2 4,2 6,3 6,-3 1,-8 -7,-7 -15,-12 -23,-17 -18,-11 -21,-17 -30,-23 -24,-16 -20,-18 -27,-24 -15,-13 -20,-8 -40,-39l-21 -31c-4,-5 -7,-9 -11,-15 -4,-5 -17,-26 -16,-35 1,-10 -2,-14 -3,-23 -1,-8 0,-14 -6,-19 -7,0 -12,5 -14,11 -8,21 -9,10 -5,37 2,10 3,10 -1,20 -6,0 -21,3 -25,6 -6,4 -11,11 -7,21 -3,6 -9,10 -7,20 2,11 -6,9 -3,20 2,7 8,11 4,20 -6,13 8,16 14,22 8,9 -5,8 23,16 9,3 13,2 24,3l21 3c6,1 22,20 27,25 3,2 4,5 7,7 2,2 4,4 6,6 5,4 9,9 12,13 7,9 18,15 27,26l19 19c3,3 3,5 8,6 -2,-9 -10,-13 -13,-20 4,3 7,6 9,10 3,4 5,6 11,3 1,-14 -16,-16 -19,-32 -2,-7 -4,-14 -6,-20 -5,-17 -9,-10 -13,-14 -3,-5 -3,-14 -12,-13 -3,3 -2,4 -3,9 -4,-6 -9,-14 -10,-21 -1,-2 -1,-4 -1,-5 -1,-4 1,-1 -2,-3 -3,1 -2,0 -2,5 0,5 2,9 2,15 -3,0 -3,-1 -5,-3 -6,-8 -12,-22 -14,-32 0,-1 0,-3 0,-4 0,-4 0,-1 -1,-3 -5,4 1,24 2,29 -6,-1 -3,-4 -11,-4l-2 4c-2,-4 -7,-10 -13,-11 -10,-3 -25,2 -35,-1 -4,-1 -1,-1 -5,-2 -7,-3 -19,-1 -20,-9 3,1 5,3 8,1 -3,-5 -6,-2 -14,-7l-13 -8c0,-16 1,-16 1,-18 0,-5 -5,-8 -3,-15 1,-7 5,-7 2,-15 -2,-6 -3,-10 1,-15 5,-8 3,-7 4,-17 0,-4 4,-9 9,-9 9,0 27,2 35,4 1,3 1,3 3,5 4,4 9,3 13,6 6,4 9,10 14,12 2,-5 -5,-13 -9,-16 0,0 0,0 -1,0l-4 -2c-4,-1 -7,-4 -10,-7l-10 -6z"></path> <path class="fil0" d="M703 546l4 -3c-2,0 -1,1 -5,0 -1,-4 0,-4 0,-5 0,-6 -4,-2 -3,-8 1,-1 2,-3 3,-4l5 8c4,-1 5,-3 8,-5 -3,-6 -4,-6 -3,-9 1,-3 2,-2 1,-3 -4,-1 -1,-1 -5,1l-1 8c-4,-3 -3,-3 -5,-6 -2,-3 -5,-5 -9,-3 -7,4 2,12 3,17 -7,1 -9,-1 -12,-4 -4,-4 -3,-8 -10,-6 -5,6 3,10 4,15 -9,-1 -10,-15 -15,-16 -6,8 11,20 12,25l-5 1 -5 -4c-2,-2 -3,-3 -5,-5 -3,-3 -5,-8 -8,-10 -3,8 8,16 13,22 -3,8 0,6 -6,11 -9,7 -18,17 -29,20 0,-4 2,-7 0,-11 -3,-4 -5,-4 -10,-5 2,4 0,1 2,4 3,3 3,4 3,8l-4 2c1,3 1,2 2,4 -3,3 -4,3 -4,9 -8,0 -11,9 -19,5 -1,-3 1,-3 3,-5 1,-1 1,-1 2,-2 1,-2 1,-1 2,-3 3,-3 6,-7 6,-11 -5,1 -12,20 -28,16 -3,-1 -5,-3 -5,-6 0,-3 2,-5 5,-6 5,-3 9,-6 10,-13 -5,1 -6,4 -10,7 -7,4 -3,2 -7,8 -3,1 -1,1 -3,0l-1 -1c-6,-3 -14,-2 -18,-7 2,-5 0,0 2,-4 2,-4 0,-10 0,-14 -1,-8 2,-12 2,-20 5,0 4,2 8,2 6,1 2,0 3,0 -1,-6 -2,-4 -7,-7 -3,-2 -4,-3 -6,-6 -8,-8 -8,-4 -19,-7 -1,-1 -2,-2 -3,-3 -6,-7 -17,-14 -16,-24 2,1 3,4 5,5 4,2 6,0 9,-1 5,2 2,3 9,4 19,4 20,10 29,8 6,-1 10,-7 18,-6 6,1 16,2 23,2 13,2 32,7 44,2 6,-2 27,-14 30,-19 -5,0 -7,2 -10,4l-19 8c-5,2 -4,2 -10,3 -17,2 -33,-1 -48,-5 -14,-3 -11,-2 -21,4 -11,6 -22,-3 -33,-5 -7,-1 -6,1 -10,-3 -4,-2 -5,-3 -8,-6 -9,-9 -16,1 -14,13 1,10 6,10 12,15 3,2 3,2 5,5 5,5 12,5 18,9 9,5 7,10 5,19 -2,8 -4,20 0,29 1,5 5,5 10,8 6,3 10,1 12,4l5 9c3,2 7,0 11,1 2,3 2,6 5,8 3,2 6,0 9,2 13,6 16,-4 25,-13 4,-3 4,-7 8,-10 3,-3 6,-4 9,-7l13 -13c11,-6 13,-13 26,-15 10,-2 11,-6 16,-6z"></path> <path class="fil0" d="M0 717c6,0 8,-2 16,-5 4,-2 9,-3 13,-5 15,-6 14,-7 26,-12 22,-11 14,-1 34,-23l5 -5c1,-2 2,-3 4,-5 14,-15 10,-8 17,-12 2,-1 4,-2 6,-4 12,-7 20,-3 31,-26 6,-14 3,-2 7,-11 2,-4 5,-8 5,-14 1,-6 -1,-12 3,-16 6,2 6,7 8,14 1,3 2,5 2,7 0,8 -6,15 -9,20 -4,7 -2,7 -3,16 -13,0 -20,4 -29,8 -7,3 -21,8 -23,15 5,-1 14,-5 20,-7 6,-2 5,-2 8,-6 1,-1 1,0 3,-1 9,-6 23,0 28,-1 6,-1 2,-3 9,1 3,2 5,3 7,6 -2,2 -1,1 -3,4 -9,9 0,12 1,16 -1,6 -4,6 -6,10 -2,6 1,7 3,12 -2,5 -8,8 -11,11 -1,2 -4,6 -5,7 -1,5 1,5 2,7 4,3 -1,-4 1,1 0,0 0,0 -1,1l-13 4c-6,2 -10,3 -16,4 -6,2 -11,3 -17,1 -6,-1 -13,-3 -18,-2 -4,2 -31,20 -36,24 -5,3 -9,5 -9,10 1,-1 2,-1 4,-2 13,-7 11,-8 31,-17 6,-3 11,-9 19,-8 5,0 6,2 12,2 5,0 7,-1 11,-2 16,-3 30,-2 40,-14 6,-8 -2,-4 11,-17 9,-10 2,-11 2,-20 2,-4 6,-7 6,-12 0,-4 -4,-7 -5,-10 1,-5 14,-13 -6,-20 -5,-2 -10,-1 -11,-6 -4,-14 12,-22 7,-43 -2,-7 -6,-19 -17,-17 -2,4 -1,5 -2,9 -1,4 -2,3 -3,6 -2,6 -1,8 -4,15 -3,6 -1,6 -7,12 -22,27 -20,15 -33,24 -6,4 0,2 -10,8 -13,7 -12,11 -16,14 -3,3 -1,-1 -10,9 -2,1 -2,1 -3,2l-4 5c-1,0 -3,1 -3,2l-63 31c-5,3 -5,4 -6,4 0,0 0,1 0,1z"></path> <path class="fil0" d="M699 680c-7,-4 -13,4 -22,-1 -11,-6 -7,-12 -13,-15 0,6 1,10 4,14 3,4 4,5 8,7 -1,5 0,1 -1,3 -2,7 1,10 6,14 -2,7 2,7 6,10 1,5 1,7 3,9 2,2 5,3 8,4 7,2 12,2 20,2 3,-4 2,-1 2,-4 -8,-4 -12,5 -16,-5l14 0c6,-11 -13,-2 -18,-4 -1,-1 -5,-6 -6,-9 24,2 17,2 27,-13 3,6 2,10 1,17 -1,4 2,2 1,16 4,-1 4,-3 7,-5 7,0 13,1 20,-2 6,-2 7,-5 15,-6 15,0 6,-3 12,1 13,8 47,21 62,26l15 4c-3,-3 -9,-6 -14,-8 -1,-1 -3,-1 -4,-2l-11 -5c3,-1 6,-2 6,-6 0,-3 -9,-19 -12,-19 -5,0 -5,2 -5,7 -3,-2 -3,-1 -4,-4 -4,-6 -5,-13 -9,-12l0 2c0,1 0,1 0,1 0,1 1,3 1,3 0,2 -1,4 -1,5 -5,0 -1,2 -4,-1 -2,-2 -7,-11 -8,-16 -1,-7 2,-5 -3,-7 -2,8 1,17 4,23 3,9 5,12 16,9l3 4c8,8 9,-5 13,8l-43 -18c0,-3 0,-3 1,-6 0,0 0,1 0,1 4,5 2,5 7,5 0,-6 -2,-8 -3,-14 -2,-7 -1,-10 -5,-11 -2,4 1,8 -2,14 -1,3 -2,8 -4,11 -6,0 -8,2 -12,3 -5,0 -5,-4 -11,-1 -20,10 -19,4 -23,7 0,-4 0,-11 1,-16 0,-8 0,-11 -4,-14 -4,1 -1,2 -7,3l-2 4c-2,-1 -1,0 -3,-2 -1,-1 0,-1 -1,-2 -4,3 1,6 2,11 -4,0 -18,1 -21,0 -3,0 -3,-2 -7,-3 -11,-4 -6,-12 2,-13 7,0 11,1 12,-4z"></path> <path class="fil0" d="M525 746c-1,-5 -4,-10 -6,-14 -4,-9 -2,-9 -8,-9 0,3 0,6 1,8 -2,3 -2,1 -3,4 3,2 4,0 6,0 2,5 2,12 5,16 12,17 5,20 13,28 3,4 5,10 8,14 4,7 5,4 3,14 -5,29 2,25 3,36 0,7 1,12 2,19 -4,-2 -2,-3 -4,-7 -1,-2 -3,-3 -6,-3 -7,1 -3,10 -1,14 -1,0 -1,0 -1,0l-6 2c-1,8 7,14 11,19l12 17c-7,-1 -15,-16 -20,-17 -1,6 3,9 7,15 7,8 11,14 21,14 2,8 4,16 7,23 2,8 4,19 9,21 3,-4 0,-3 -1,-16l-2 2c-1,1 1,0 -1,1 0,-5 2,-3 2,-8 0,-2 -1,-6 -1,-8 -4,-37 -17,-54 -18,-58 -1,-5 -1,-12 -3,-17 -2,-10 -7,-20 -5,-31 1,-16 11,-25 0,-35 -14,-13 -1,-10 -10,-20 -4,-4 -6,-5 -9,-11 -5,-12 -2,-2 -5,-13z"></path> <path class="fil0" d="M259 867c-4,-3 -4,-3 -3,-8 6,-2 19,-7 22,-7 -1,4 -12,14 -19,15zm14 -40l-3 2c-3,3 -12,8 -14,12 8,0 14,-8 23,-8l3 7c-2,2 0,0 -2,2 0,0 -1,1 -1,1l-10 7c-12,7 -18,7 -28,-5 -8,-10 -2,-10 -6,-15 6,3 7,12 16,12l-10 -14c-3,-3 -6,-13 -6,-17 5,0 10,9 16,10 -1,-4 -2,-5 -5,-8 -1,-1 -2,-2 -3,-3 -1,-1 -3,-3 -3,-3 -2,-2 -3,-7 -1,-10 1,-3 1,-1 3,-3 2,-4 -5,-1 7,-7 1,-4 1,-4 0,-6 -4,2 0,1 -4,4 -4,3 -5,1 -12,10 0,-4 1,-7 2,-11 1,-5 1,-9 1,-14 13,1 21,5 28,6 6,1 8,3 11,6 11,8 10,9 2,17 -1,2 0,2 -1,2l-5 6c-5,3 -12,4 -16,7 -2,2 -2,2 -2,4 6,3 16,-10 28,-4 1,6 -2,10 -7,13 0,0 0,0 -1,0zm-9 -58c-7,-4 -20,-2 -28,-3l0 -2c-5,-10 6,-30 -3,-38 -3,6 0,5 1,10 1,5 -10,23 -7,33 0,4 2,20 1,25 -2,9 -4,14 -4,25 5,-3 4,-6 6,-12l1 -4c3,4 1,2 -1,7 0,5 1,9 1,13 0,5 -3,6 0,11 2,3 1,0 2,5 1,5 1,1 -1,4 -1,4 0,8 3,10 1,-1 1,2 1,-4 0,0 -1,-3 -1,-4 4,1 4,6 10,9 4,2 8,2 8,10l-3 2c-4,-2 -5,-3 -7,-6 -3,-3 -3,-5 -7,-5 0,5 1,4 3,8 -2,5 -5,5 -7,11 3,1 7,-2 10,-5l3 -2c5,-1 7,10 27,-1 7,-3 17,-8 12,-20 0,-1 0,-1 0,-1 0,0 0,0 1,-1 4,-5 -1,-7 -3,-13 6,-6 4,-2 5,-6 3,-6 -1,-8 -3,-12 -2,-4 0,-7 2,-11 7,-15 4,-18 -14,-26 -4,-2 -4,-5 -8,-7z"></path> <path class="fil0" d="M371 777c0,-2 0,-5 0,-8 1,-3 2,-3 5,-4 4,10 -1,9 4,12 4,-3 1,1 1,-9 2,4 1,0 3,4 2,5 2,14 2,20 -1,21 0,9 1,19 0,3 -1,5 0,7 2,2 1,1 3,1 1,1 0,0 1,2l0 5c1,2 1,5 1,7l2 31c-1,5 -3,7 -1,12 3,-1 0,1 3,-2 0,-1 1,-2 1,-3 1,-4 1,-5 3,-7 8,-7 12,-9 12,-26 0,-9 9,-10 1,-17 -7,-7 4,-10 1,-20 -4,4 -10,20 -16,28 -1,-6 -5,-11 -2,-17 5,-11 9,-8 6,-13 -2,-1 -2,-1 -4,1 0,0 -2,2 -2,2l-2 2c0,0 -1,0 -1,0l1 -8c11,0 8,1 18,3 0,-5 0,-5 -6,-6 -4,-1 -8,0 -11,-1 -6,-4 3,-18 -11,-30 -7,-7 -16,-2 -18,2 -2,7 1,15 0,22l-5 5c0,0 -1,0 -1,0 0,0 0,1 0,1 -1,0 -2,1 -3,1 -4,3 -7,3 -8,8 3,0 6,-2 9,-3 2,-1 6,-4 8,-4 0,4 -2,8 -3,14 0,5 1,11 1,17 -2,3 -11,7 -12,18l7 -2c-2,3 -3,6 -2,11 4,-1 3,-2 5,-6 1,-2 3,-5 4,-7 1,-3 1,-15 1,-19 0,-16 5,-24 5,-37 0,0 0,0 0,0 1,0 1,-1 1,-1 3,-2 2,-1 3,-3 0,0 0,0 0,0 -1,0 -1,0 -1,0l-4 -2z"></path> <path class="fil0" d="M60 937c7,1 11,-5 15,-9l39 -37c0,0 1,0 1,-1l7 -7c0,0 0,0 0,0 1,-1 1,-1 2,-1l21 -22c3,-3 12,-11 16,-13 4,-1 8,0 10,-8 1,-6 1,-13 3,-20 2,-12 9,-21 13,-32 3,-7 5,-9 11,-13 7,-6 3,-8 8,-15 3,-5 4,-11 5,-18 0,-3 0,-7 0,-11 -1,-9 -1,-8 -3,-8l-1 4c1,10 -3,31 -6,34 -2,3 -1,-1 -6,5l-2 3c-7,8 -9,4 -12,17 -4,12 -8,24 -14,32 -3,6 -2,15 -4,18l-10 9c0,0 0,0 0,0l-55 52c-1,1 -2,1 -3,3l-3 2c0,1 -1,1 -1,2 0,0 0,0 -1,0 0,0 0,1 0,1 0,0 0,0 -1,0l-3 3c-2,2 -3,4 -5,5 -11,11 -21,16 -21,25z"></path> <path class="fil0" d="M247 598c9,0 11,3 15,-5 4,-9 3,-4 12,-8 3,-1 10,-4 11,-8 1,-5 2,-13 2,-19 0,-9 -8,-25 3,-31 4,-2 19,-2 22,-13 1,-5 0,-2 -1,-3 -5,4 -4,10 -28,10 -3,3 -5,7 -10,10 -2,2 -3,2 -6,3 -4,2 -4,2 -4,6 7,0 8,-2 13,-2 7,12 5,20 5,36 -4,4 -1,4 -8,6 -10,1 -5,3 -11,3 -4,-5 1,-3 -8,-9 -6,-4 -4,-6 -10,-6 4,16 17,6 14,23 -4,2 -3,3 -9,1 -19,-5 -13,-11 -23,-15 0,5 4,8 7,12 3,4 8,7 6,9 -7,4 -10,-4 -18,-6 0,8 6,3 5,9 -5,1 -4,0 -5,-1 -17,-15 -15,-9 -11,-17 0,0 0,0 -1,0l-6 -4c-4,-4 -7,-3 -16,-12 -5,-6 -13,-18 -21,-16 1,4 1,4 4,6 10,7 12,12 20,20 1,1 1,1 2,2 1,2 1,1 2,3 9,8 7,3 11,8 2,5 5,7 9,11 3,3 8,14 18,8 8,-4 9,4 15,-11z"></path> <path class="fil0" d="M138 479c2,4 -1,1 6,5 2,2 4,3 6,4l33 21c-3,1 0,0 -2,2 -2,3 -5,5 -2,8 4,-2 5,-8 10,-10 8,-2 10,3 17,1 11,-4 21,-6 34,-7 9,-1 10,-2 18,2 5,2 10,4 16,3 3,-1 5,-3 7,-4 1,-1 5,-2 7,-2 8,-3 9,1 14,-5 7,0 6,3 14,-5l3 -3c4,9 -8,12 -4,19 9,4 15,-16 7,-24 -7,-2 -9,1 -12,4 -1,1 -7,6 -9,6 -2,2 -8,1 -12,3 -21,7 -22,7 -34,0 -16,-10 -16,4 -49,6 -22,1 -16,-3 -24,-5 -5,-2 -8,-2 -12,-4 -8,-4 -24,-13 -32,-15z"></path> <path class="fil0" d="M346 801c-5,-1 -7,1 -10,4 -6,4 -1,5 -6,8 -2,2 -11,4 -10,18 0,18 -6,2 -2,23 5,24 3,19 2,38 -1,12 -9,22 -12,31 -3,7 -5,13 -8,20 -2,3 -3,6 -5,10 -1,3 -4,7 -1,9 2,1 10,-14 11,-17 7,-14 7,-12 17,-25 2,-3 4,-6 6,-9 4,-6 0,-15 0,-24 -1,-8 0,-19 -3,-26 -2,-5 -2,-20 -1,-26 3,-18 4,-11 12,-17 5,-3 3,-5 6,-8 4,-4 6,-1 4,-9z"></path> <path class="fil0" d="M467 766c-2,4 -7,7 -7,11 0,7 4,8 0,15 -11,17 -8,12 -3,22 0,6 -3,8 -2,14 2,4 4,6 5,11 2,10 6,12 14,18 3,2 6,5 8,8 2,3 5,8 7,10 4,4 4,0 7,8 2,7 2,9 7,11 0,-12 -3,-9 -6,-17 -3,-8 0,-8 -6,-16 -6,-7 -11,-9 -18,-14 -2,-2 -1,-1 -3,-3l-3 -2c0,-9 -4,-13 -3,-21l6 2c-1,-13 -6,-11 -8,-17 -1,-3 6,-12 8,-13 3,2 1,3 6,4 -1,-10 -5,-12 -8,-20 2,-5 4,-6 9,-10 9,-7 9,-3 8,-8 -3,1 -6,2 -9,3l-9 4z"></path> <path class="fil0" d="M353 977c3,-7 11,-43 13,-53 1,-6 0,-9 3,-14 4,-7 20,-22 20,-29 -2,0 -3,0 -4,1l-19 17c-18,16 -3,23 -10,27 -2,-5 -1,-12 -6,-15 -7,-5 -10,3 -10,9 -2,3 -1,1 -3,3 1,7 2,11 3,17 2,6 1,11 9,10 3,-6 1,-10 1,-17l6 -1c-1,5 -2,18 -3,24 0,4 0,8 -1,12 -1,4 -2,6 1,9z"></path> <path class="fil0" d="M503 738c5,-3 0,-3 2,-20 4,1 3,1 7,2 -1,-4 0,-4 -4,-5 -3,-1 -6,-2 -8,0 -4,4 3,-4 -1,1 -1,1 -1,1 -2,2 -1,1 -1,3 -2,4 -6,18 -1,26 -1,34 -9,0 -6,0 -7,3l9 1c3,3 4,6 4,11 -3,0 -5,-1 -8,-1 -7,-1 -6,2 -6,2 1,1 0,0 1,1 3,1 4,0 6,2 0,0 3,2 3,3 5,6 4,5 4,11l0 7c-2,5 -6,3 -6,11 4,-1 4,-3 7,-5 0,8 -3,10 0,14 2,-1 1,0 2,-2 1,-1 1,-2 1,-3 4,-12 6,-10 5,-18 -1,-9 -2,-22 -4,-27 -4,-9 -3,-9 -4,-11 -1,-2 -5,-6 -5,-9 -1,-5 2,-5 3,-11 0,-5 1,-9 1,-13 1,6 -2,12 3,16z"></path> <path class="fil0" d="M759 640c2,2 3,4 5,6 12,15 7,15 25,18 5,1 12,3 17,3 11,2 66,15 69,14 -1,-2 0,-2 -2,-3l-28 -9c-12,-4 -23,-6 -34,-9 -14,-4 -28,-3 -33,-8 -7,-5 -15,-18 -24,-19l5 7z"></path> <path class="fil0" d="M507 902c-1,1 -2,-2 -1,5 0,2 0,4 0,6l1 36c1,14 4,29 4,43l-1 26c0,10 -1,13 4,19 8,-7 -1,-29 2,-41 1,-6 2,-5 2,-13 0,-13 -7,-74 -11,-81z"></path> <path class="fil0" d="M121 534c1,0 4,-1 4,1l13 -1c2,5 2,6 7,7 5,0 9,-1 14,-1 1,2 1,4 3,6 6,0 10,-2 11,-7l-3 -3c-3,-2 -4,-3 -5,-7l-8 -1 -2 -7 -4 0 -3 2c-1,0 -2,0 -3,0 -3,1 -3,1 -6,2 -4,2 -7,3 -12,3l-4 -5c0,-1 0,-1 0,-1l-4 3c-1,6 0,6 2,9z"></path> <path class="fil0" d="M79 714c-6,1 -9,11 -10,17 -1,4 0,7 4,8 4,0 7,-4 9,-6 10,-12 8,-3 15,-11 12,-13 12,-9 10,-18 -5,-2 -4,-2 -12,7 -3,0 -5,-2 -8,0 -2,2 -3,5 -4,7 -2,4 -4,8 -8,12 0,-7 4,-10 4,-16z"></path> <path class="fil0" d="M126 986c6,1 7,-2 9,-6l13 -17c2,-3 4,-6 6,-9l13 -18c2,-3 3,-6 5,-9 3,-4 5,-7 5,-12l-8 9c-2,3 -4,6 -7,9l-10 12c-2,2 -2,2 -3,4l-14 18c-6,8 -11,13 -9,19z"></path> <path class="fil0" d="M708 518c4,-2 1,-2 5,-1 1,1 0,0 -1,3 -1,3 0,3 3,9 -3,2 -4,4 -8,5l-5 -8c-1,1 -2,3 -3,4 -1,6 3,2 3,8 0,1 -1,1 0,5 4,1 3,0 5,0l-4 3c9,-1 3,-2 12,-3 9,-1 8,-3 9,-4 -1,-2 2,0 -2,-2 -4,-1 -8,3 -12,3 -5,0 -3,-1 -4,-1 7,-6 10,5 15,-8 20,2 12,-5 10,-12 -4,-1 -10,0 -13,-1 -6,-3 -8,-5 -10,0z"></path> <path class="fil0" d="M177 897c6,-1 7,-2 10,-7 3,-5 3,-8 0,-12 -5,-1 -6,1 -8,4l-6 0c-4,8 -3,9 -4,18 -1,3 -1,3 -3,5 0,-2 1,-12 -3,-11 -2,1 -1,2 -1,7 0,9 -2,12 3,16 10,-1 8,-9 12,-20z"></path> <path class="fil0" d="M697 616c-2,-4 -5,-5 -8,-8 -5,-4 -3,-6 -6,-9 -1,1 -1,0 -1,2 -1,1 -1,2 0,3 0,3 2,5 4,7 1,1 1,2 2,3 4,5 6,12 5,18 -3,3 -6,4 -9,6 -3,3 -6,5 -9,7 -6,5 -12,10 -10,16 9,0 17,-22 30,-25 2,3 3,5 7,6 -1,-7 -4,-4 -3,-13 0,-4 -1,-10 -2,-13z"></path> <path class="fil0" d="M684 591c2,-6 -1,-11 2,-15 2,-1 1,-1 4,-2 -1,5 -3,10 0,13 3,3 4,2 5,3 2,1 1,3 6,7 11,8 6,17 17,18 -1,-8 -7,-14 -12,-18 -6,-6 -4,-8 -9,-18l-6 -11c-11,1 -16,23 -7,23z"></path> <path class="fil0" d="M184 906c4,0 4,-1 6,-4 1,-1 2,-2 4,-5 4,-5 5,-5 7,-8 5,-6 17,-6 22,-9 3,-2 3,-3 4,-5 -5,1 -15,1 -18,3 -11,4 -9,-2 -16,-2 1,10 3,7 -2,16 -4,6 -7,7 -7,14z"></path> <path class="fil0" d="M592 1013c1,-2 -3,-20 -4,-23 -1,-5 -2,-9 -3,-13 -3,-8 -4,-8 -8,-8 -3,6 2,17 4,24 1,4 6,20 8,22 2,0 1,3 3,-2z"></path> <path class="fil0" d="M208 716c0,-5 -2,-6 -2,-10 2,2 3,3 4,7 2,10 2,7 5,7 2,-5 -1,-5 -2,-12 12,3 9,17 20,16 -1,-14 -17,-19 -19,-20 -2,-1 -2,-3 -5,-4 -2,0 -3,0 -4,1 -4,2 -4,13 3,15z"></path> <path class="fil0" d="M561 572c6,-3 3,-6 15,-13 5,-2 3,-4 6,-7 3,-3 7,-3 11,-3 -3,-5 -6,-4 -12,-3 -6,1 -8,0 -11,5l3 1c0,0 4,-1 3,2 -1,7 -15,1 -15,18z"></path> <path class="fil0" d="M543 943c2,4 3,10 7,14 1,0 1,0 1,0l2 2c0,0 0,0 0,0l2 2c8,9 17,-11 6,-12 -1,3 -1,4 0,6 -4,1 -5,0 -8,-4 -6,-7 -2,-7 -10,-8z"></path> <path class="fil0" d="M709 656c1,4 1,5 3,8 -2,3 -3,2 -4,8 -2,9 -1,2 -4,8 8,0 7,-3 9,-8 3,4 3,9 8,10 0,-1 -3,-17 -5,-18 -8,-8 1,-7 -7,-8z"></path> <path class="fil0" d="M682 666c12,1 10,-5 11,-6 1,-3 -2,1 2,-2 -1,7 -2,9 2,12 2,-2 1,-2 1,-5 -1,-6 -1,-5 4,-6 2,-1 3,-1 5,-4 -3,-3 -7,-4 -10,-3 -7,2 -5,7 -5,7 0,0 0,1 0,1 -5,0 -11,1 -13,5l3 1z"></path> <path class="fil0" d="M52 742c-1,-9 3,-11 4,-18 -5,1 -7,6 -9,11 0,3 -1,6 -1,9 1,4 2,4 4,6 7,0 10,-1 10,-8l-8 0z"></path> <path class="fil0" d="M259 867c7,-1 18,-11 19,-15 -3,0 -16,5 -22,7 -1,5 -1,5 3,8z"></path> </g> <g> <path class="fil1" d="M497 367l-1 -20 39 -16c0,0 156,-32 218,-9l36 16 9 0 4 -8 1 -13 1 -10c0,0 -6,-31 -5,-31 2,0 -23,-71 -23,-71l-24 -57 -14 -32c0,0 -41,-76 -46,-79l-26 -26 -11 -7 -10 14c0,0 -21,32 -22,31 -1,-1 -14,22 -14,22l-22 28 -31 34 -43 34 -29 21 -26 15 -12 -1 -12 6c0,0 -118,54 -117,56l-11 5 -4 6 -1 8 1 9 -12 4 -55 26c0,0 -9,4 -6,27 0,0 9,61 41,66l62 -21 16 4 10 5 12 2 5 12 13 20 12 3 112 128 10 4 21 -5 21 -7 15 -11 9 -18 -4 -12 -11 -7c0,0 -87,-129 -86,-126 2,2 10,-19 10,-19z"></path> <path class="fil1" d="M399 450c0,0 11,-22 29,-22 0,0 29,-6 29,-4 1,2 -3,-6 2,-13 6,-7 24,-22 24,-22l4 -4c0,0 9,-4 18,1 0,0 16,1 16,12l0 10 5 1c0,0 18,-6 25,12l2 16 7 2c0,0 10,4 11,14l-1 13 2 5c0,0 9,2 12,10l4 8 0 7c0,0 -2,6 -2,7 0,1 -1,3 -3,4 -1,2 -4,5 -4,5l-17 11 -6 1c0,0 -10,1 -10,2 -1,1 -17,-11 -17,-11l-5 -12 -7 2 -12 -6 -7 -12 -16 -4 -9 -5 -9 -12 -6 -1 -15 9 11 20c0,0 53,62 52,64 -2,1 6,10 6,10l-20 29 -37 31 -3 5 10 29 -5 12 -18 22c0,0 6,14 5,26l-10 19 -35 37c0,0 -103,10 -103,-134l33 -42 11 -15 3 -4 9 4 2 0 4 -4 14 -18 8 -5 3 0 3 -8 -3 -41 2 -22c0,0 10,-34 14,-39z"></path> <path class="fil2" d="M538 407c-6,-1 -7,0 -12,0l0 -3c0,-1 1,0 -1,-2 -1,2 -2,2 -5,3l0 -3c2,-1 4,1 4,-5 0,-1 0,-1 0,-1 0,-3 -2,-3 -4,-3 0,1 -1,1 -1,1l-2 7c0,3 0,9 -1,11 -2,-1 -3,3 -1,-3 0,-2 0,-1 0,-3 0,-3 0,-5 -1,-7 -2,1 0,-1 -1,2 0,1 1,3 0,6 -1,8 2,5 -1,7 -2,-3 0,0 -1,-3 0,3 -1,4 -3,5l3 -7c1,-3 1,-6 0,-10 -3,4 0,6 -2,9l-2 5c0,2 1,1 0,2 -1,1 0,0 -1,1 0,1 -10,9 -11,11 -2,2 -9,12 -10,12 2,-5 8,-10 12,-15 3,-3 1,-1 4,-4 3,-3 7,-8 5,-14 -1,2 -2,7 -5,11 -3,4 -4,5 -7,6 -2,1 -1,3 -4,7 -3,3 -3,2 -5,5 0,1 0,1 -1,2l-2 -3c7,-6 15,-16 2,-24 -12,-7 -22,11 -23,12 -5,-9 11,-22 16,-26 20,-14 19,-11 32,-7l6 4c3,-1 1,-2 6,-2l-7 -6 -19 -3c2,-3 7,-6 10,-10 3,-5 -4,-10 -4,-14 5,-2 12,-4 17,-7l11 -12 41 -9c69,-12 145,-8 213,10 18,4 24,-3 23,-21 0,-7 0,-4 -2,-5 -4,-2 -1,-2 0,-3 2,-2 1,1 2,-2 0,-2 -1,-9 -5,-5 -2,2 2,20 -1,25 -1,18 -23,-6 -26,-9 -7,-8 -14,-18 -20,-28 -7,-9 -13,-20 -19,-31 -3,-5 -5,-10 -8,-16 -2,-3 -9,-13 -6,-15 1,0 40,74 46,74 0,-1 -29,-49 -34,-58 -2,-4 -11,-17 -7,-20 2,1 30,59 37,60 -5,-9 -13,-21 -19,-32 -3,-5 -6,-10 -9,-16 -2,-4 -8,-12 -6,-16 3,2 21,41 29,47 -2,-8 -29,-45 -25,-52l12 23c3,-4 -13,-24 -9,-27l8 15c0,-4 -5,-13 -6,-17 -2,-4 4,-25 0,-38 -8,-28 -37,-45 -52,-90l9 10c-1,-4 -6,-13 -10,-14 0,6 8,30 8,31l3 16c-3,-14 -15,-38 -15,-54 5,1 17,17 19,22 2,-2 -15,-26 -20,-26 -2,7 4,26 6,32l2 6c0,0 7,18 6,19l-5 -15 -1 3c-1,-3 -1,-4 -2,-7 -1,-4 2,1 0,-3 -1,-2 -2,-1 -3,-6 -2,-7 -8,-30 -6,-35 6,-2 27,32 32,39 2,-3 -29,-47 -34,-44 -4,3 3,28 4,35 1,4 -1,5 1,8 2,2 2,1 4,6 1,3 4,12 4,15 -2,-2 -6,-16 -7,-17 -2,-1 0,4 -1,-1 -3,-9 -14,-51 -8,-54 7,-4 45,57 48,58 -1,-6 -18,-31 -22,-37 -29,-41 -37,-37 -27,6 1,8 -2,3 0,10 3,9 0,-6 3,5l8 29 -9 -29 -1 7c-2,-11 -14,-57 -4,-64 16,1 60,81 64,81 -1,-6 -20,-35 -24,-42 -10,-15 -17,-24 -29,-36 -22,-25 -20,8 -17,27 2,9 4,17 6,27 1,7 6,20 7,26 -3,-7 -5,-15 -7,-23 -1,-2 -3,-10 -3,-12 -3,-4 -2,3 -3,-3 -3,-11 -8,-53 0,-57 10,-2 26,21 31,26 2,-1 4,-3 6,-2 4,2 -2,2 -4,3l5 8c5,-3 -1,-3 3,-4 2,0 1,2 1,3 0,5 -3,2 0,7 9,12 18,27 25,39 17,34 37,83 50,120 4,11 18,55 18,66 1,2 1,5 2,8 0,5 0,4 6,4l-1 -5c-1,-23 -24,-85 -32,-106 -12,-33 -27,-65 -42,-95 -9,-18 -53,-101 -76,-93 -5,1 -11,15 -14,20 -9,15 -18,27 -27,41 -37,54 -85,96 -142,131 -4,2 -6,5 -11,3 -6,-2 -9,-1 -13,2 -23,11 -48,22 -70,33 -15,8 -31,15 -46,23 -35,16 -30,12 -32,37 -5,2 -46,20 -55,25 -12,5 -17,6 -18,21 -2,27 17,70 39,81 10,5 21,-1 30,-4l23 -8c8,-2 3,-1 5,-4 7,4 3,-2 8,-3l6 1 -3 -4c6,-3 2,-3 3,-5 6,2 2,3 5,5 1,2 4,2 7,5 7,6 7,6 17,7 4,8 9,15 14,23 12,20 13,6 20,13 -2,7 -8,14 -11,23 -16,42 -1,63 -6,91 -13,-1 -16,16 -29,27 -13,-3 -10,-8 -19,5 -5,7 -40,52 -39,54 6,4 39,-45 41,-50 2,5 5,20 8,27 6,15 15,33 24,46 11,16 29,36 44,48 5,4 12,9 18,11 3,1 6,0 7,2 -4,5 -30,-14 -32,-16 -17,-14 -36,-38 -47,-57 -7,-13 -11,-23 -17,-36 -6,12 29,62 36,68 8,9 14,19 24,27 5,4 10,8 15,11 2,2 17,8 17,9 -2,3 -5,3 -8,1 -2,-3 0,-2 -6,-5 -3,-2 -12,-9 -13,-10l6 7c-23,-11 -48,-47 -61,-69 -3,-6 -12,-28 -14,-30 -1,23 41,78 60,94 18,16 24,13 31,18 -6,15 -53,-33 -57,-38 -13,-19 -19,-25 -30,-47 -2,-5 -5,-15 -8,-19 -1,16 27,57 34,66 29,39 51,42 56,46l-3 3c-10,-1 -29,-16 -37,-23 -2,-2 -7,-10 -11,-9 -2,7 32,30 35,30l-19 -10c3,4 8,7 13,10 7,4 9,3 16,5 -3,6 -7,3 -11,0 -5,-2 -8,-4 -11,-6 -4,-2 -18,-13 -19,-17l6 4 -16 -16 10 12c-7,-2 -22,-25 -28,-35 -4,-7 -8,-13 -12,-20 -3,-6 -7,-18 -10,-22 2,17 22,49 30,60 9,11 34,40 47,43 -4,3 -20,-12 -21,-11 -2,2 18,16 22,13 0,-1 -3,-2 2,0 2,0 4,1 5,2 -3,7 -11,1 -15,-2 -5,-3 -10,-7 -14,-10 -6,-5 -21,-19 -24,-24 -7,-10 -13,-18 -19,-29 -6,-11 -11,-21 -16,-33 0,6 11,29 13,34 6,11 12,19 19,28 10,15 22,25 35,35 5,3 13,6 16,8 -3,5 -4,4 -9,2 -8,-4 -17,-11 -24,-17 -5,-4 -25,-24 -26,-30l4 3 -4 -6c0,1 1,6 -2,1l-11 -18c-3,-6 -9,-21 -13,-26 3,18 23,46 31,58 7,11 34,36 48,39l-2 4c6,1 25,-24 29,-28 5,-6 8,-9 14,-16 7,-8 7,-7 5,-21 -3,-18 -6,-16 0,-22 5,-6 8,-11 13,-16 7,-9 7,-8 3,-20 -2,-7 -6,-16 -8,-22 5,-6 32,-24 46,-40 5,-5 8,-12 12,-16 18,-2 17,-2 32,-9 10,-3 22,-7 30,-12 5,-3 16,-15 20,-20 8,-13 -1,-21 -10,-26 3,-4 4,-5 4,-10 0,-3 3,-6 0,-13 -4,-10 -9,-13 -15,-19 4,-15 -5,-31 -20,-32 0,-8 4,-9 -3,-18 -3,-5 -7,-9 -13,-11zm-195 -130c2,-1 2,1 1,-2 0,-1 0,-2 0,-3 -4,0 -2,5 -1,5zm-6 119c0,1 0,-2 0,1 0,4 3,2 4,2 0,0 0,-1 0,-1 0,0 0,0 0,0 0,-4 -3,-2 -4,-2zm155 26c2,-1 4,-3 5,-5 1,2 1,3 2,1 1,-1 1,-2 1,-4 -4,1 -7,4 -8,8zm155 -351c0,-1 -1,-7 -1,-9 -1,-2 -1,-2 -2,-2 -1,1 -1,11 3,11zm-3 -16c2,-2 1,-5 0,-7 0,-1 0,-3 0,-4 -1,-3 -1,-3 -2,-3 -1,1 -1,1 -1,4 0,1 1,3 1,4 0,2 1,5 2,6zm3 23c-2,2 -1,2 0,6 0,2 0,6 2,6 4,0 1,-10 -2,-12zm-147 234l-5 -5 3 7 13 12 -7 -9 -4 -5zm128 -37l0 0 1 4 6 11 10 12 -16 -27 -1 0zm-1 21l-13 -19 6 14 10 13 -3 -8zm13 -29l6 9 3 4 2 4 12 21 -8 0 -7 -10 -44 -86c-2,-5 -16,-47 -17,-48 -5,4 1,15 3,20l40 90 19 33 -12 -6c-12,-19 -19,-30 -29,-51l-17 -38c-2,-5 -12,-38 -14,-40 -5,3 1,14 2,18l22 54 17 33 19 31 -4 3 -21 -28 -32 -66c-2,-6 -11,-35 -13,-37l9 35 30 65 18 31 -6 2c-7,-12 -59,-124 -61,-125l51 124 -4 0 -53 -121 42 121 -34 -83 -12 -35 2 16 39 104 -46 -97 -6 -16 43 115 -53 -109 39 114 -49 -109 43 112 -61 -105 49 107 -53 -104 47 106 -9 1 -28 -46c-4,-9 -8,-18 -11,-27 -2,-5 -7,-28 -10,-29 -5,3 4,23 6,28l25 52 15 23 -20 -15c-12,-17 -20,-33 -27,-53 -2,-5 -3,-10 -5,-16 0,-3 -2,-14 -5,-14l17 55 13 24 16 22 -13 -4 -23 -36c-4,-9 -8,-17 -11,-27 -2,-5 -3,-10 -5,-16 -1,-4 -1,-13 -5,-14 -3,7 14,49 18,56l13 24 15 21c-7,0 -26,-34 -29,-41 -9,-15 -15,-32 -20,-51 -3,-9 -5,-22 -3,-31 2,-6 16,-12 21,-15 14,-8 28,-18 42,-28 46,-34 68,-64 101,-108 3,-4 28,-41 28,-41 1,4 1,19 1,24 1,7 2,14 3,21 16,62 38,119 67,176l35 61c-11,2 -51,-80 -58,-94 -8,-17 -16,-36 -23,-54 -2,-7 -18,-58 -18,-58 -7,-1 2,23 3,28 3,10 7,19 10,28 16,43 27,66 48,105l29 47 -4 2c-10,-4 -36,-55 -43,-68 -2,-3 -7,-5 -9,-9 -1,-5 2,-3 0,-7 0,-2 -2,-5 -3,-6 -12,-28 -22,-51 -31,-80 -2,-7 -6,-23 -9,-29 -8,1 1,21 3,26 9,27 20,55 31,80 12,25 24,48 39,71l14 22c-12,9 -37,-54 -45,-59l23 46 7 15c-13,1 -47,-69 -53,-82 -8,-15 -15,-32 -21,-48 -7,-18 -32,-80 -14,-26 3,8 6,16 9,24l61 121 4 10c-8,5 -25,-29 -28,-35 -17,-28 -30,-57 -42,-87 -2,-5 -16,-48 -17,-49 -5,3 -2,7 0,12 1,4 2,8 3,11 3,8 6,16 9,24 6,15 12,29 18,44 4,7 7,14 11,21 2,3 11,19 11,19l23 39 -5 3 -23 -34 -11 -18c-2,-7 -9,-19 -13,-26 -7,-16 -17,-39 -22,-56 -3,-8 -7,-24 -10,-30l-3 2c3,18 36,101 45,111 0,1 0,1 1,3l-3 -3c0,2 1,4 2,5 1,1 0,1 1,1 1,-1 0,-2 0,-3l3 4c0,1 1,2 2,4l5 8 17 30 -13 -8 -9 -15 -3 -5 -4 -6 -4 -7c0,-1 -22,-45 -26,-53 -4,-10 -7,-19 -11,-29 -4,-13 -20,-47 -10,-16 2,5 4,10 6,15 6,19 15,40 23,58l14 27zm133 44c1,3 3,5 4,7 5,6 10,14 15,12 2,0 2,-1 4,-2 -1,-5 -1,-3 -2,-4 -2,2 -1,1 -2,4 -4,1 -7,-4 -10,-8 -4,-4 -6,-8 -9,-9zm-131 -36l-4 -3 10 18 12 14 -16 -24 -2 -5zm61 -13c-1,-3 -2,-5 -3,-8 -3,-5 -2,-5 -4,-6l24 47 6 5 -4 -7c-10,-14 -11,-15 -19,-31zm-172 219c0,5 -5,10 -9,12 -6,4 -14,0 -15,-6 0,-3 7,-11 10,-13 8,-6 12,3 14,5 -2,1 -2,2 -3,4 -4,6 -3,4 -2,5l4 -6c1,-1 1,-1 1,-1zm-2 -4c0,1 0,1 -1,2 0,1 -1,1 -1,2l-1 1c0,1 -1,1 -1,2 0,0 -1,0 -1,1l-3 5c1,-1 1,-1 2,-2l4 -5c3,-4 4,-3 2,-6zm-6 13c-3,3 -4,3 -6,4l3 -1c1,0 1,0 1,0 2,-1 4,-2 4,-5l-2 2zm-3 -20c-2,1 -1,0 -4,3 -1,1 -2,2 -3,3 -6,7 -11,10 -3,18 8,9 23,-4 24,-12 0,-5 -7,-14 -12,-14 -3,1 -2,1 -2,2zm-164 231c0,4 5,10 8,12 3,-1 -2,2 1,-1 1,-1 -1,-1 0,0 2,0 4,6 6,5 2,-2 1,-2 -1,-4 -1,-2 -1,-3 -3,-4 -2,-3 -4,-6 -6,-8 -4,-6 -7,-12 -11,-18 -4,-6 -7,-12 -10,-18 -2,-4 -7,-18 -9,-20 0,12 16,41 24,52 2,4 9,12 10,14 -3,1 -2,1 -4,-1l-5 -9zm-12 -317l3 2c0,0 0,0 0,0 -1,-3 0,-1 -1,-3 0,-2 0,-1 -1,-4 -4,-2 -18,-31 -21,-38 -5,-12 -9,-27 -12,-40 -1,-3 -1,-4 -3,-5 -5,7 17,57 23,69 3,3 12,17 12,19zm7 -3c3,1 3,4 6,5 0,-3 -3,-5 -4,-8 -4,-3 -18,-32 -22,-39 -4,-9 -9,-24 -11,-34 -1,-4 -1,-11 -4,-12 -1,1 -1,1 0,6 9,46 34,78 35,82zm324 -161c-7,-14 -13,-28 -19,-42 -4,-10 -7,-20 -10,-30 -2,-5 -9,-29 -10,-31 -8,2 2,24 5,30 8,24 46,98 34,73zm-237 500l2 -13c1,1 2,4 2,7 -1,6 -2,6 -4,6zm-20 -74c2,1 3,3 7,5 0,0 0,0 0,0 0,1 0,1 1,-2 2,-4 0,-2 1,-3l15 -20c-5,0 -16,19 -18,18 -4,-2 10,-15 11,-18 -5,2 -10,11 -13,16l-3 -2 8 -12 -1 0 -8 11c-5,-4 1,-4 2,-9l-6 5 -1 -1 3 -6 -1 0 -3 3 -3 -2 2 -6 -3 5c-3,-7 -1,-3 1,-8l-4 3c-5,-2 -2,-4 -1,-7l-4 2 1 -5c-3,1 -2,3 -4,-1 -1,-2 -6,-9 -10,-19 -7,-16 -7,-11 -3,-27 6,-25 -2,-49 2,-72 3,-17 13,-43 22,-53 6,-7 14,-10 26,-12 5,-1 11,-1 16,-2 21,-4 11,-1 14,2 0,-2 1,-4 4,-3 3,1 0,2 0,4l4 -2 13 16c-7,6 -11,7 -4,17 5,7 7,8 14,13 -11,7 -18,-3 -19,-5 0,4 5,7 8,8 8,2 10,-2 14,-2 -5,5 -13,5 -19,1 -8,-6 -7,-10 -12,-15 -2,4 9,15 13,17 14,8 16,-1 22,-4 0,6 -9,8 -15,8 -6,-1 -5,1 -13,-6 -6,-7 -9,-12 -12,-20 -2,-3 -2,-8 -5,-8l3 9 -6 -8c1,4 6,8 3,12 -1,2 -8,7 -11,7l11 -7 -1 -1c-2,-1 -12,10 -20,9l-5 -5 3 5 -5 -2 5 7 -10 -9c-1,0 6,15 7,18 5,15 8,25 10,42 0,5 -1,23 1,25 5,-21 -4,-60 -10,-74 4,3 12,33 13,44 1,9 1,18 0,27 -1,5 -6,21 -4,23 2,-7 4,-13 5,-21 1,-4 2,-22 3,-24l-2 36c7,-23 0,-45 1,-54 5,17 7,34 1,52 -1,3 -6,13 -5,14 7,-2 10,-28 12,-31l-1 13 4 -14 -2 0 1 -2 1 -25 1 20 2 -15 1 16 2 -12c1,2 1,7 1,10 -2,7 -5,4 -5,5l-1 11 2 -9 3 -1 1 4 4 -15 0 6c1,-1 2,-4 3,-1 0,2 -1,2 -3,4l5 -2 1 1 -2 5 3 -2 2 0 -4 7 6 -4c3,4 -19,10 -15,16l18 -12 1 2 -10 8 12 -7 -1 5c2,0 4,-3 4,0 -1,4 -4,2 -4,5l6 -2 -4 8 5 -7c4,2 -7,15 -8,16 5,-1 8,-9 11,-13 5,5 -18,25 -22,30 14,-7 22,-25 26,-26 -1,5 -16,23 -24,29 -2,2 -11,6 -11,7 6,-1 17,-10 21,-14 4,-4 15,-19 16,-20 1,4 -5,10 -8,13 -22,30 -29,22 -37,26 2,4 15,-3 17,-4 12,-6 22,-18 29,-29 2,-4 4,-1 1,2 -5,8 -14,18 -22,24 -23,16 -20,9 -34,13l15 0 -17 5 0 4 9 -4 -27 30c5,0 5,-5 11,-11 2,-2 3,-3 4,-4 1,-1 2,-2 4,-4 3,-3 9,-9 13,-9 -1,1 -2,2 -4,3 -4,3 -8,8 -11,12 -4,4 -11,11 -13,16 -5,-1 -4,-1 -4,5l5 3 0 -1c1,-3 0,-1 1,-3 3,0 2,1 2,4 0,0 0,1 0,1 0,0 0,0 0,0 0,2 4,4 7,5l14 4c-3,3 -26,34 -30,37 -3,3 1,0 -2,1 -3,1 -3,5 -5,4 -1,-1 6,-7 8,-9 3,-4 24,-28 22,-31l-15 16 -1 -2 0 4 -16 21c-4,-3 1,-5 3,-8 2,-3 4,-6 6,-9 2,-2 12,-16 13,-17l-8 7c-1,3 -14,27 -19,23l13 -15 -1 -1 -13 15c0,-2 22,-26 22,-33l-23 31 -5 -3 19 -25 -1 -1 -19 24 -1 -1 4 -8 -6 7 -1 -1 17 -20c-9,2 -15,20 -19,18l4 -7 -4 5c-5,-2 5,-6 9,-16l-12 14 -2 -1 4 -6 -5 4 -1 -1 8 -10 -1 0 -8 8 1 -3 -3 1 3 -6 -5 4 1 -4c-8,3 -2,0 -2,-5l-3 4 -1 -1 1 -6 -3 3 2 -5c-3,2 -2,4 -4,3 -2,-2 -1,-4 0,-6l-3 1 1 -5 -3 2c0,-1 0,-3 0,-5l-2 1c-4,-6 0,-2 0,-8l-4 3 1 -6c-2,-1 -6,4 -4,-6 -1,0 -4,4 -3,-1 1,-3 4,-4 2,-6l-3 4c-5,-4 0,-4 1,-9l-4 3c-5,-5 1,-7 2,-11l-6 4 3 -5 -4 2 9 -13 -1 -1 -8 11c-4,-3 1,-4 2,-8l-5 4 1 -4c0,0 -3,1 -1,-2 1,-2 3,-3 4,-3l-3 5 1 0 8 -11c-2,2 -2,3 -4,4 -4,4 -1,0 -2,-1l-6 6 19 -25 -1 -1 -19 23c-1,-3 23,-33 27,-34 2,4 6,15 9,21 10,21 8,20 22,39 2,3 13,15 14,17zm33 -7c0,0 1,0 1,1l1 1c0,0 1,2 1,2 1,5 3,12 2,16 -8,2 -8,0 -9,-3 0,0 0,-1 -1,-2 0,-2 -1,-4 -1,-6 2,2 2,4 4,6 0,-1 0,0 0,-1 0,-2 -2,-4 -1,-7 1,4 1,5 1,6l2 3c0,-9 -3,-11 -1,-13l2 10c1,2 0,2 2,3 2,-4 -2,-12 -3,-16zm-105 -42c0,-2 -1,-2 -1,-2 0,-1 0,-2 0,-3 -1,-2 -1,-3 -2,-4l3 9zm-2 2c-1,-2 -1,-3 -2,-5 -1,-4 -1,-3 -1,-7 2,0 3,-1 6,-1 1,0 4,2 4,3 0,2 -2,1 -2,1 0,0 0,0 0,-1 -1,2 0,2 0,4 0,0 0,2 -1,1 -1,-1 0,-1 -1,-3 0,-3 -1,-2 -2,-3l2 8c-2,1 -1,2 -3,3zm200 -72c7,1 12,17 16,14l-8 -12 5 4 1 -1 -8 -6c4,0 7,7 11,4l-8 -6c4,1 9,9 13,6l-10 -6c5,2 4,5 10,5 6,0 27,12 4,24 -9,4 -42,19 -50,10 -5,-5 -60,-71 -61,-72l3 0 -14 -17 8 14 -10 -12 3 -2 5 5c2,-3 -1,-3 -3,-6l3 -2c7,10 19,24 28,34 2,2 14,17 14,17 1,3 -3,-3 1,3 1,2 2,3 3,5 2,2 5,8 8,8l-6 -10 25 29 1 -1 -17 -21c7,1 13,16 19,18 0,-3 -7,-10 -9,-13 -1,-1 -6,-6 -3,-5 2,1 3,5 6,5l-4 -7 19 20c-1,-5 -20,-20 -17,-23l9 8c-2,-5 -9,-8 -9,-15l24 29 1 -1 -36 -47 41 44 1 -1 -36 -42c7,3 10,15 19,20 7,4 17,19 20,20 -1,-4 -10,-12 -9,-14 1,-2 -1,-1 -3,-4zm-21 -10c-1,0 0,-1 0,0zm-15 24l1 -3 -1 0 0 3zm-18 -26l3 5 1 0 -4 -5zm-27 -28l-10 -15 -1 1 11 14zm54 69l-62 -78 -1 1 63 77zm-64 -74c-2,-2 0,0 0,0 0,0 1,1 0,0zm113 48c2,2 0,-1 0,-1 0,1 -1,0 0,1zm-1 2l1 -1c0,0 0,0 0,0 0,0 -1,1 -1,1zm-5 0c1,1 4,-1 1,-1 0,0 -2,-1 -1,1zm-12 0l0 0c0,0 0,0 0,0zm-50 -18c4,-3 3,-3 7,-2 5,1 11,6 8,11 -2,3 -4,1 -7,1 1,5 4,4 8,2 0,1 0,2 -2,2 -3,2 -14,-3 -14,-14zm82 -21l0 -6c-2,2 0,3 -3,8 -1,4 -2,4 -4,7 -2,-2 6,-7 2,-14l0 8c-2,3 -2,-2 -5,3 -2,5 -2,8 -9,15 -4,3 -15,15 -22,8 14,2 29,-15 30,-29 -3,3 -6,14 -11,19 -4,4 -11,11 -18,8 5,-3 7,-1 13,-7 3,-4 5,-9 1,-15 -10,-14 -24,5 -24,5 0,0 8,-11 11,-13 4,-4 9,-8 14,-11 6,-4 11,-9 19,-5 5,2 10,8 11,15 3,3 1,11 1,13l-1 -8 0 -2c-1,2 0,0 -1,2 0,1 1,1 0,2l0 1 0 -1 -2 -2c0,1 0,2 -1,3l-6 6c1,1 2,1 3,2 0,-3 3,-5 4,-7 0,2 0,3 -1,5 1,0 0,1 3,-1 -1,3 -1,3 -2,4l-9 -1c1,-1 1,-1 1,-1 0,0 0,-1 1,-1l5 -10zm4 1c-1,0 -2,0 0,1l0 -1zm-36 11c4,2 0,1 4,-2l2 0c0,1 -1,1 -2,2 -1,1 -8,7 -8,8 1,1 8,-6 10,-7 -1,2 -2,3 -5,6 -2,2 -4,4 -5,5 -7,3 -13,-2 -13,-7 -1,-9 20,-22 22,-8l-5 3zm-10 9l4 -2c2,-2 6,-4 6,-6 -2,0 -5,3 -7,5 -2,2 -3,1 -3,3zm-29 -5c-5,-1 -4,-4 -7,-5 0,2 1,2 1,4 -2,0 -8,-9 -10,-11 -3,-3 -8,-8 -10,-12 5,1 5,5 9,7 -1,-3 -3,-3 -4,-6 2,0 1,1 3,3 1,1 0,0 1,1 2,1 0,-2 1,1 0,0 0,2 2,3 3,1 0,-3 3,1 2,2 3,4 5,7 2,2 5,4 6,7zm-32 -24c0,3 3,5 5,6 0,-1 0,-1 -2,-3 -1,-2 -1,-2 -3,-3zm18 20c0,4 1,3 2,6 -3,-2 -6,-6 -8,-9 -3,-3 -20,-24 -22,-27 4,1 2,0 4,3 1,1 1,1 2,2 1,2 2,4 4,6 1,-2 1,0 0,-3 -1,-1 -2,-2 -2,-2 1,-1 1,1 4,4 0,1 1,1 1,2 7,7 2,-1 7,5 1,1 2,3 3,4l7 9c1,1 4,4 2,4 -1,0 -1,-1 -2,-2 -2,-1 -1,-1 -2,-2zm51 -34c-1,6 -10,17 -15,21 -10,9 -14,10 -24,2 3,10 15,7 21,3 9,-6 12,-13 17,-17 -1,6 -25,33 -36,19 -7,-7 -8,-11 -3,-21 3,-5 10,-13 15,-17 8,-6 26,-26 38,-21 5,2 11,7 9,14 -2,6 -1,-5 -3,2 -2,5 -2,7 -4,12 -3,8 3,-1 0,3 0,1 -1,0 -4,3 1,-4 5,-5 3,-8l-7 10c1,-3 8,-12 5,-17l-6 18c-1,-5 5,-14 0,-20 -1,1 0,10 -1,14 -2,5 -1,1 -3,5 -2,3 -1,2 -4,4 1,-3 4,-6 2,-9zm15 -15l-1 10c1,-1 2,-1 2,-4 0,-2 0,-4 -1,-6zm-103 11l33 39c2,3 0,2 1,4 1,4 3,3 3,7 -5,-4 -39,-47 -40,-48 3,0 9,12 14,13 -1,-3 -7,-8 -9,-11 -3,-3 -3,-1 -2,-4zm10 16c0,0 1,-1 1,0 0,0 0,0 0,0 0,0 -2,-1 -1,0zm67 -49c-6,12 -11,19 -22,26 1,-7 0,-13 -5,-17 -8,-5 -13,1 -17,4l-3 -5c2,-8 20,-22 28,-27 14,-8 33,-10 32,12l-4 -10c-2,5 1,5 0,11 -1,4 -1,8 -3,11l1 -13 -6 17 5 -3c-1,3 -1,2 -2,2l-1 1c-3,4 -1,1 -2,1 -2,1 1,-1 -1,1 -4,5 -1,0 -7,6 -1,1 -4,3 -6,4 2,-2 18,-17 13,-21zm1 6c0,-3 0,3 0,0zm-48 21c0,0 0,0 0,0 0,3 0,0 0,0 -1,1 -1,-1 -1,1 4,6 -1,-3 3,1 0,1 1,2 1,2 0,2 0,0 -1,2 -1,-3 -19,-15 -4,-21 2,2 18,23 18,24 -2,5 -11,2 -13,-4 2,2 1,2 4,4 -1,-1 -10,-17 -11,-18 0,3 3,7 4,9zm2 4l0 0zm-3 -4c0,-2 -2,-2 -1,-1 0,0 0,2 1,1zm5 -12c4,-7 15,-8 19,1 -2,3 -7,6 -9,10 4,-1 7,-7 10,-8 -1,4 -8,7 -8,10 1,-1 2,-1 3,-2 1,-1 2,-2 2,-2 1,-1 0,0 1,-1 1,-1 0,0 1,-1 -1,4 -4,6 -7,8l-12 -15zm-28 -27c2,-7 19,-18 22,-5 0,0 -1,1 -2,1 -1,2 -3,4 -3,6 3,-1 2,-5 6,-6 1,2 0,0 0,2 -1,2 -7,8 -9,10 -1,-1 -3,-4 -6,-5 -3,-2 -7,-2 -8,-3zm12 4c1,1 0,2 3,0 2,-1 1,-1 2,-2 -3,0 -2,1 -5,2zm-32 -12c2,-1 1,-2 2,-2l4 4c2,2 1,0 1,2l-1 -1c-1,0 0,0 -2,0l1 1c1,2 3,2 4,5 -2,-1 -3,-3 -5,-5 -1,-1 -1,-1 -2,-2 0,0 -1,-1 -1,-1 -1,0 0,0 -2,-1l6 7c1,1 1,0 2,2l-4 -3c-1,-1 -4,-3 -5,-4 1,4 2,1 3,6 -1,-1 -2,-2 -3,-2 0,2 -1,-1 1,1 1,2 0,0 1,3 -4,-2 -1,-2 -5,-3 1,1 2,2 2,3l-1 -1c-1,0 -1,0 -1,0l-3 -5c0,0 0,0 0,0l2 -1c3,2 0,2 3,2 0,-2 -1,-1 -2,-3l5 -2zm-3 1l0 0c0,0 0,0 0,0zm7 2c0,-2 -1,-3 -3,-3l3 3zm-7 2c0,0 0,0 0,0l0 0zm-2 1c1,0 -1,-2 -1,0 0,2 1,0 1,0 0,0 0,0 0,0zm45 -46c5,6 2,-1 1,-3l5 7c-9,7 -64,40 -77,47 -4,3 -22,18 -25,9 -2,-5 3,3 0,-4 -1,-3 -6,-8 -7,-12l10 14 1 -1 -9 -16c4,2 8,15 13,14l-8 -12 1 0 9 12c1,-2 0,0 1,-3 0,-1 0,0 -1,-2 0,0 -2,-2 -2,-2 -2,-2 -4,-4 -5,-7l10 10c2,-1 1,-2 2,-3 0,-1 0,2 2,-1l-7 -11 10 12 0 -4 3 3 -1 -6 4 2 1 -1 -5 -11 8 10 1 -1 -2 -5 6 5 -6 -14 8 12 0 -5 4 3 0 -4c2,-1 1,-1 1,-1 0,0 1,0 1,0 3,-3 0,0 1,-3l3 2 -4 -10 8 11 1 -1 -6 -12 1 -1 7 12 -6 -13 8 8 1 0 2 2 2 -1 -7 -11c4,2 2,-1 5,5 1,2 3,5 5,5 0,-5 -6,-6 -2,-10l5 6 1 -1 -5 -9 6 8 -4 -9 7 8c3,-4 -5,-5 -1,-8l4 6 0 -8 6 6 1 -1 -4 -7 4 6 2 -3 0 -3 5 3 0 -5 4 3 -1 -4c1,0 3,1 4,1l0 -3zm-31 22l1 0 -4 -6 3 6zm-21 9c0,2 0,-2 0,0zm-3 5c0,0 1,-2 0,0l0 0zm-173 -18c-2,2 4,8 7,8l-7 -8zm-21 -52c5,-10 -9,-11 8,-18 6,-3 12,-6 19,-9 9,-4 28,-14 37,-16 1,1 5,18 6,22 2,7 4,14 6,20 3,7 16,36 16,40 -7,-8 -18,-36 -22,-48 -1,-4 -3,-16 -7,-17 -2,4 9,31 10,36 3,5 6,11 8,15 2,5 0,12 7,16l-5 -12 7 13 -2 1c-12,-9 -30,-66 -30,-66 -3,4 7,31 10,36 2,5 6,12 7,16 1,8 6,10 9,14 -3,5 -9,-7 -11,-10 -2,-5 -5,-11 -8,-17 -2,-4 -12,-36 -13,-36 -2,4 8,31 10,36 2,5 16,30 16,30 -4,2 -4,0 -6,-4 -5,-8 -9,-14 -13,-23 -2,-4 -12,-37 -12,-37 -3,5 7,32 9,37 2,5 6,12 8,16 1,4 0,5 3,8 3,3 5,2 5,5 -3,4 -9,-9 -11,-11 -6,-10 -11,-22 -15,-34 -1,-3 -4,-17 -5,-18 -3,5 7,32 9,37 1,3 7,13 8,15 1,10 8,10 9,13 -5,3 -9,-7 -12,-10 -2,-4 -5,-10 -8,-16 -2,-4 -12,-36 -12,-36 -6,11 21,63 26,64l-3 2c-6,-9 -13,-17 -18,-28 -6,-14 -6,-23 -10,-36 -4,5 4,28 6,33 2,4 4,9 6,13 2,2 8,11 8,12l-5 -4c2,7 9,8 10,11 -4,3 -10,-8 -12,-11 -6,-9 -12,-20 -15,-32 -1,-3 -2,-17 -4,-19 -3,7 5,30 8,36 3,8 7,15 13,22 2,3 5,5 4,7l-5 -2 0 -1 3 1 -7 -9 -1 3c-2,-6 -9,-15 -13,-24 -2,-5 -7,-30 -8,-30 -5,2 4,27 5,31 2,4 4,9 7,13 1,2 8,11 8,12l-1 0c-5,-6 -4,-1 -9,-8 -13,-21 -13,-42 -15,-45 -6,3 4,31 6,35 3,5 6,10 9,15 1,3 9,12 9,12 -6,3 -18,-18 -20,-23 -3,-6 -5,-11 -7,-17 0,-3 -3,-19 -3,-20 -6,2 5,33 6,36 3,5 5,9 8,14 3,3 10,10 10,12 -5,2 -9,-6 -12,-9 -7,-9 -12,-19 -15,-31 -1,-4 -1,-17 -4,-19 -5,3 6,33 8,37 1,3 8,13 8,14 1,3 -1,-1 -1,2 0,3 8,5 9,7 -13,-1 -35,-58 -27,-72l3 8zm34 61l1 -2 -10 -8 9 10zm35 -30c-2,2 0,6 2,8 2,3 3,5 6,6l-8 -14zm-29 29c-1,-1 -2,-3 -3,-4 -2,-2 -3,-3 -4,-5 2,2 5,5 7,5 1,1 0,0 1,1 1,0 2,1 2,2 -1,1 -1,1 -3,1zm84 -20c2,1 8,8 9,11 -6,2 -5,1 -9,-4l-2 1c2,2 3,4 4,5 -9,3 -8,-4 -13,-6 0,4 1,3 4,6 -2,2 -5,5 -7,3 -3,-3 2,-5 0,-6 -2,-1 0,0 -1,0 -1,1 2,1 -1,2 -2,-3 0,-2 0,-5 0,-1 -1,-2 -2,-3 -8,-7 -24,-45 -29,-59 -4,-11 -7,-24 -8,-36 -1,-21 4,-18 18,-25 20,-10 40,-19 60,-29 11,-5 51,-25 60,-27 -2,37 15,77 33,106 2,5 18,26 17,27 -3,3 -28,-40 -32,-47 -4,-9 -8,-20 -11,-29 -1,-5 -5,-31 -9,-31 -6,6 14,56 17,62 5,10 10,18 15,26 2,4 17,22 17,23 -4,1 -7,-3 -9,-6 -2,-2 -7,-8 -7,-10l13 15c0,-2 -10,-14 -11,-15 -5,-4 0,4 -5,-2 -12,-18 -22,-37 -28,-59 -1,-5 -5,-31 -9,-31 -5,8 13,51 16,59 4,9 8,16 13,24 5,8 12,15 15,22l-12 -13c1,2 11,18 14,17 2,0 -1,-2 2,-1 1,1 1,2 2,3 -8,3 -16,-14 -20,-20 -6,-7 -12,-17 -16,-26 -4,-9 -8,-19 -11,-30 -2,-5 -3,-11 -5,-16 0,-5 -1,-15 -5,-16 -4,11 13,54 18,63 7,14 15,26 23,38 2,2 9,9 9,10 -3,4 -8,-3 -8,-4l4 3 -15 -17c-13,-21 -24,-39 -30,-65 -1,-4 -3,-23 -7,-24 -8,4 15,57 17,62 5,10 10,18 15,26 5,8 1,1 0,4 0,3 12,16 13,16l-11 -16 16 18c-6,2 -8,-2 -12,-7 -19,-24 -34,-54 -40,-85 -1,-3 -2,-15 -6,-15 -5,7 15,56 18,63 9,18 21,34 33,47 -8,7 -32,-36 -36,-45 -4,-9 -9,-19 -12,-29 -1,-4 -6,-32 -9,-33 -7,2 13,54 15,58 4,9 9,18 14,26 3,4 16,20 16,22l-12 -13c1,5 7,10 11,14 4,4 0,0 2,-1l4 4c-6,2 -9,-3 -12,-7 -15,-21 -28,-42 -36,-68 -1,-4 -6,-32 -9,-31 -7,4 15,56 17,61 7,16 22,38 33,47 -8,5 -17,-13 -20,-18 -6,-8 -11,-17 -15,-25 -5,-10 -9,-20 -13,-30 -1,-5 -7,-31 -8,-32 -9,1 14,55 16,60 10,20 19,34 33,48 -8,4 -17,-13 -20,-18 -15,-22 -26,-46 -32,-72 -1,-3 -1,-14 -5,-15 -6,4 13,52 16,57 4,9 8,17 13,24 2,4 15,22 15,22l-11 -12c1,4 3,7 6,9 8,9 5,4 6,4l4 4c-6,4 -16,-14 -19,-18 -16,-23 -25,-44 -32,-71 -1,-4 -1,-15 -5,-16 -6,5 13,51 15,56 4,8 9,17 13,24 4,7 12,16 15,22l-10 -12c0,5 4,9 7,12 5,5 6,1 9,5 -7,5 -17,-13 -20,-18 -11,-17 -20,-35 -26,-54 -2,-5 -4,-11 -5,-16 -1,-5 -1,-15 -6,-15 -2,9 15,51 19,60 6,13 14,24 22,36 2,2 8,10 8,10 -3,5 -13,-8 -14,-10l10 9 -13 -17 3 7c-5,-4 -20,-32 -24,-42 -4,-8 -6,-16 -9,-25 -1,-4 -4,-25 -8,-25 -5,7 16,55 19,62 3,6 13,22 14,26 0,4 5,9 7,12 6,6 0,-1 4,1 1,0 4,4 5,5 -6,1 -8,-2 -12,-6 -14,-21 -27,-42 -34,-66 -2,-5 -7,-30 -10,-31 -4,5 13,49 16,55 3,8 7,15 12,23 2,4 13,17 13,21l-11 -12c0,3 9,14 13,16l-1 -4 6 6c-6,2 -7,-1 -11,-6 -9,-11 -16,-23 -23,-36 -4,-9 -8,-19 -11,-29 -2,-5 -3,-10 -5,-16 0,-3 -1,-14 -4,-15 -6,7 13,52 17,59 4,9 8,16 13,24 3,5 16,21 16,22 -7,4 -15,-13 -18,-18 -6,-9 -10,-16 -15,-25 -6,-13 -12,-28 -15,-43 -1,-4 -2,-14 -5,-15 -6,5 14,52 17,58 6,13 13,23 21,35 2,3 8,9 8,10 -7,5 -15,-12 -18,-17 -11,-16 -20,-34 -26,-53 -2,-5 -3,-10 -4,-15 -1,-4 -2,-14 -6,-15 -3,8 14,49 18,58 9,18 18,31 29,45 -6,2 -7,-1 -11,-6 -9,-12 -15,-23 -22,-36 -4,-9 -8,-18 -11,-28 -2,-5 -3,-10 -4,-15 -1,-4 -2,-14 -5,-15 -4,7 12,47 15,53 3,8 7,15 12,23 2,3 12,18 13,20l-11 -11c0,4 3,6 5,8 9,10 5,1 7,4l4 5c-5,3 -8,-3 -10,-6 -15,-19 -26,-41 -33,-63 -1,-5 -6,-29 -9,-29 -5,4 11,43 13,49 4,8 7,14 11,21 3,5 12,18 12,20zm358 -152l-39 -88 3 -3 4 11 -2 -11 3 4 0 -4 3 4 3 -4c8,1 18,6 25,16 27,37 7,64 0,75z"></path> </g> </g> </g> </svg> 