<?xml version="1.0" encoding="UTF-8"?> <!-- Creator: CorelDRAW X7 --> <svg xmlns="http://www.w3.org/2000/svg" xmlns:xlink="http://www.w3.org/1999/xlink" xml:space="preserve" width="1.13994in" height="0.52237in" version="1.1" style="shape-rendering:geometricPrecision; text-rendering:geometricPrecision; image-rendering:optimizeQuality; fill-rule:evenodd; clip-rule:evenodd" viewBox="0 0 426 195"> <defs> <style type="text/css"> <![CDATA[ .fil0 {fill:#4D4D4D;fill-rule:nonzero} ]]> </style> </defs> <g id="Layer_x0020_1"> <metadata id="CorelCorpID_0Corel-Layer"></metadata> <g id="_1504604317728"> <g id="surface1"> <path class="fil0" d="M23 125l-8 0 0 8c1,1 2,1 3,1 2,0 3,-1 5,-3l0 -6zm0 10c-1,1 -3,2 -4,2 -1,0 -3,-1 -5,-2 0,1 0,2 -1,2 0,1 -1,1 -2,1l7 7 -2 2 -6 -7c-1,-1 -2,-2 -3,-3 -1,-2 -1,-3 -1,-4 0,-1 0,-1 0,-1 1,-1 1,-1 2,-1 0,0 1,0 2,1 0,0 0,0 0,-1l0 -6 -5 0 -3 -4 29 0 3 4 -6 0 0 21 -5 -3 0 -8zm16 25l-2 0c-1,-3 -3,-5 -5,-6 -2,-2 -4,-3 -5,-3 -1,0 -2,1 -3,1 0,1 0,1 0,2 0,1 0,1 0,2 1,0 1,0 2,0 1,0 2,0 3,-1l2 2c-1,2 -2,2 -4,2 -1,0 -3,0 -4,-2 -1,-1 -2,-2 -2,-4 0,-2 1,-3 2,-4 0,-1 2,-1 3,-1 1,0 4,1 6,3 2,2 5,5 7,9zm15 -35l-5 0 -2 -4 4 0 3 4zm-1 10c-2,1 -3,1 -5,1 -1,0 -3,0 -5,-2 -2,1 -3,1 -4,2 -1,1 -1,2 -1,3 0,1 0,2 1,3 0,0 1,1 2,1 1,0 2,-1 2,-1 0,0 0,-1 0,-1 0,-1 0,-1 1,-2 0,0 1,-1 1,-1 1,0 2,1 3,1 0,1 1,2 1,2 0,2 -1,3 -2,3l4 6 -3 1 -2 -6c-1,0 -1,1 -3,1 -2,0 -4,-1 -6,-3 -2,-2 -3,-4 -3,-6 0,-1 0,-2 1,-3 1,-1 3,-2 4,-3 -1,-1 -2,-2 -3,-3 -1,-1 -1,-2 -1,-3 0,-1 1,-2 2,-3 1,-1 2,-1 4,-1 1,0 3,1 4,2 2,2 3,3 3,5 0,1 -1,2 -1,3 -1,1 -2,1 -3,2 1,0 2,1 3,1 2,0 4,-1 6,-3l0 4zm-13 -4c1,-1 2,-2 3,-2 1,-1 1,-2 1,-3 0,0 0,-1 0,-1 -1,-1 -2,-1 -2,-1 -1,0 -2,0 -3,1 0,0 -1,1 -1,2 0,1 1,3 2,4zm28 -6l-7 0 0 8 7 0 0 -8zm0 12l-7 0 0 2c0,1 -1,1 -1,2 0,0 0,0 0,0 -1,0 -3,-1 -4,-3 -2,-1 -3,-2 -3,-3 0,-1 0,-1 1,-1 0,0 0,-1 1,-1l1 0 0 -8 -4 0 -2 -4 26 0 2 4 -5 0 0 21 -5 -3 0 -6zm20 16l0 -1c2,-1 3,-1 4,-2 0,-1 1,-2 1,-4 0,0 0,0 0,0 -1,0 -1,0 -1,0 0,0 0,0 0,0 0,0 -1,0 -1,0 -1,0 -2,0 -2,-1 -1,0 -1,-1 -1,-2 0,-1 0,-1 1,-2 0,-1 1,-1 2,-1 1,0 2,0 3,1 1,1 1,2 1,4 0,2 0,3 -2,5 -1,1 -2,2 -5,3zm41 -20c-1,0 -1,0 -2,0 -1,0 -2,0 -3,1 -1,1 -2,2 -2,4l-4 -3c0,0 0,0 1,-2 -1,-1 -2,-1 -3,-1 -1,0 -2,0 -3,1 0,1 -1,2 -1,3 0,3 2,6 6,9l-1 2c-6,-4 -9,-9 -9,-13 0,-2 1,-3 2,-4 1,-2 3,-2 4,-2 2,0 4,1 6,3 1,-2 3,-3 5,-3 1,0 3,1 4,2l0 -5 -23 0 -2 -4 33 0 2 4 -6 0 0 21 -4 -2 0 -11zm25 -8l-9 0c0,0 -1,0 -1,0 0,1 -1,1 -1,2 0,1 1,2 2,2 1,0 2,0 3,0l2 4c-2,0 -3,0 -5,1 -1,0 -2,1 -2,2 0,1 1,1 1,1 1,1 2,1 2,1 3,0 6,-2 8,-4l0 -9zm0 14c-2,2 -4,3 -6,3 -2,0 -3,-1 -5,-3 -2,-2 -3,-4 -3,-5 0,-2 1,-3 3,-4 -2,0 -2,-1 -3,-1 -1,-1 -1,-2 -1,-2 0,-1 0,-2 0,-2l-2 0 -2 -4 27 0 3 4 -6 0 0 21 -5 -3 0 -4zm-13 13l2 -1c1,2 3,3 5,4 2,1 4,2 6,2 2,0 3,0 4,-1 1,-1 2,-2 2,-4 0,0 0,0 -1,-1 0,0 0,0 -1,0 -1,0 -2,1 -3,2l-3 -2c1,-2 3,-3 4,-3 2,0 3,1 4,2 2,2 3,3 3,5 0,1 -1,2 -3,4 -1,1 -3,1 -4,1 -3,0 -5,-1 -8,-2 -2,-2 -5,-4 -7,-6zm54 -27l-4 0 0 10c0,1 -1,2 -2,3 -1,0 -3,1 -5,1l-1 -3c0,0 1,0 1,0 0,0 1,0 1,-1 1,0 1,0 1,-1l0 -9 -6 0 0 11c0,1 0,2 1,3 1,1 1,2 2,2l8 5c0,0 1,1 2,2 1,1 1,1 1,2 0,0 0,1 -1,1 0,1 -1,2 -1,2l-4 -3c1,-1 1,-1 1,-2 0,0 0,-1 -1,-2 -1,0 -2,-1 -2,-1l-7 -4c-1,0 -2,-1 -2,-1 -1,-1 -1,-2 -1,-3l0 -12 -3 0 -3 -4 23 0 2 4zm15 9c-3,-2 -5,-3 -7,-3 -2,0 -3,0 -4,1 -1,1 -1,2 -1,3 0,1 0,2 1,2 1,1 2,1 3,1 3,0 5,-1 8,-4zm0 5c-1,1 -2,2 -3,2 -1,1 -2,1 -3,1 -2,0 -4,-1 -6,-3 -2,-2 -3,-4 -3,-6 0,-1 1,-3 2,-4 1,-1 3,-2 5,-2 3,0 5,2 8,5l0 -7 -17 0 -2 -4 27 0 2 4 -6 0 0 21 -4 -3 0 -4zm5 -23l-3 3 -3 -3 3 -3 3 3zm39 9l-7 0 0 8 7 0 0 -8zm0 12l-7 0 0 2c0,1 0,1 -1,2 0,0 0,0 0,0 -1,0 -2,-1 -4,-3 -2,-1 -3,-2 -3,-3 0,-1 1,-1 1,-1 0,0 0,-1 1,-1l1 0 0 -8 -4 0 -2 -4 26 0 2 4 -5 0 0 21 -5 -3 0 -6zm16 -10c1,0 1,0 2,0 1,-1 1,-1 1,-2 0,-1 0,-1 -1,-2 0,0 -1,-1 -1,-1 -1,0 -2,1 -2,1 -1,1 -1,2 -1,2 0,1 0,2 1,2 0,0 0,0 1,0zm10 12c-3,2 -5,3 -7,3 -1,0 -3,-1 -5,-2 -2,-2 -3,-3 -3,-5 0,-1 0,-2 1,-3 1,-1 2,-1 3,-2 -1,0 -2,-1 -3,-2 -1,-1 -2,-2 -2,-3 0,-1 1,-2 2,-3 1,-1 2,-2 3,-2 2,0 3,1 4,2 1,0 2,1 2,3 0,1 -1,2 -2,3 -1,1 -2,1 -3,1 0,0 1,0 1,1 1,0 2,0 3,0l2 4 -3 0c-1,0 -2,0 -3,1 -1,0 -2,1 -2,2 0,0 1,1 1,1 1,0 2,0 2,0 2,0 3,0 5,-1 1,-1 3,-2 4,-3l0 5zm1 -14l-3 0 -2 -4 3 0 2 4zm14 0l-8 0c2,2 3,3 3,5 0,1 -1,2 -2,3 -1,0 -2,1 -4,1 0,1 1,2 2,2 1,1 1,1 2,1 3,0 5,-1 7,-4l0 -8zm0 14c-1,1 -3,2 -5,2 -2,0 -4,-1 -6,-3 -2,-2 -3,-5 -4,-8 2,0 4,0 5,0 1,-1 1,-2 1,-3 0,-1 0,-1 -1,-2l-6 0 -2 -4 26 0 3 4 -6 0 0 21 -5 -3 0 -4zm25 -14l-8 0 0 8 8 0 0 -8zm0 12l-8 0 0 2c0,1 0,1 0,2 0,0 0,0 -1,0 -1,0 -2,-1 -3,-3 -2,-1 -3,-2 -3,-3 0,-1 0,-1 0,-1 1,0 1,-1 1,-1l2 0 0 -8 -4 0 -3 -4 27 0 2 4 -6 0 0 21 -4 -3 0 -6zm47 2c0,2 -1,3 -2,4 -1,1 -3,2 -4,2 -2,0 -4,-1 -7,-3 -2,-1 -4,-4 -5,-6l1 -1c1,2 2,3 4,4 1,1 3,1 4,1 1,0 2,0 3,-1 1,0 1,-1 1,-2 0,-1 0,-1 0,-2 0,0 -1,0 -2,-1 -1,1 -2,1 -4,1l-2 -4c0,0 1,0 1,0 2,0 3,0 4,-1 1,0 2,-1 2,-2 0,0 0,-1 -1,-2 0,0 0,-1 -1,-1l-11 0 -2 -4 22 0 2 4 -8 0c1,1 2,2 2,2 1,1 1,2 1,3 0,1 -1,2 -3,3 2,1 3,2 4,3 0,1 1,2 1,3zm32 -14l-6 0 0 21 -5 -3 0 -1c-2,2 -4,3 -7,3 -2,0 -4,0 -6,-2 -1,-1 -2,-3 -2,-5 0,-1 0,-1 1,-2 -1,-1 -2,-2 -3,-3 0,-1 -1,-2 -1,-3 0,-1 1,-1 1,-2 1,-1 2,-1 3,-1l5 0 0 -2 -10 0 -3 -4 30 0 3 4zm-11 12l0 -12 -4 0 0 6 -8 0c-1,0 -1,0 -2,0 0,0 0,1 0,1 0,1 0,2 1,3 1,-1 3,-1 6,-1l2 3c-1,0 -1,0 -2,0 -2,0 -3,1 -4,1 -1,1 -2,1 -2,2 0,1 1,1 2,2 1,0 2,0 3,0 3,0 6,-1 8,-5zm25 -12l-8 0 0 8 8 0 0 -8zm0 12l-8 0 0 2c0,1 0,1 0,2 0,0 0,0 -1,0 0,0 -2,-1 -3,-3 -2,-1 -3,-2 -3,-3 0,-1 0,-1 1,-1 0,0 0,-1 0,-1l2 0 0 -8 -4 0 -2 -4 26 0 2 4 -6 0 0 21 -4 -3 0 -6zm0 0z"></path> <path class="fil0" d="M0 107l425 0c-1,-4 4,-5 -10,-4 -64,1 -139,0 -203,0l-189 0c-28,0 -22,-2 -23,4zm0 0z"></path> <path class="fil0" d="M24 2c-19,-1 -24,10 -24,28 0,18 0,35 0,53l24 0 0 -81zm0 0z"></path> <path class="fil0" d="M72 83l24 0 0 -1c0,-17 0,-35 0,-52 0,-18 -5,-28 -24,-29l0 82zm0 0z"></path> <path class="fil0" d="M59 72l1 -70 -24 0 0 70 23 0 0 0zm0 0z"></path> <path class="fil0" d="M244 1c-20,1 -24,12 -24,31 0,17 0,34 0,51l24 0 0 -82zm0 0z"></path> <path class="fil0" d="M292 83l24 0c0,-18 0,-35 0,-53 0,-18 -5,-29 -24,-28l0 81zm0 0z"></path> <path class="fil0" d="M255 72l23 0 0 -70 -23 0 0 70zm0 0z"></path> <path class="fil0" d="M426 22l0 -21c-17,-2 -42,0 -60,0 -22,0 -37,-2 -38,21l98 0zm0 0z"></path> <path class="fil0" d="M426 84l0 -21 -98 -1c1,24 17,22 38,22 19,0 41,1 60,0zm0 0z"></path> <path class="fil0" d="M328 53l72 0 0 -22 -72 0 0 22zm0 0z"></path> <path class="fil0" d="M108 22l97 0 0 -21c-18,-2 -40,0 -59,0 -22,0 -37,-2 -38,21zm0 0z"></path> <path class="fil0" d="M108 84c20,0 40,0 59,0 22,0 37,2 38,-21l-97 -1 0 22zm0 0z"></path> <path class="fil0" d="M108 31l2 0 50 0c2,0 5,0 7,0 20,0 35,-1 38,18l0 4c-20,0 -40,0 -59,0 -22,0 -37,2 -38,-22zm0 0z"></path> <path class="fil0" d="M4 191l0 -20 4 0 3 13 2 -13 5 0 0 20 -3 0 0 -16 -3 16 -3 0 -3 -16 0 16 -2 0zm17 -20l3 0 0 20 -3 0 0 -20zm16 12l3 2c-1,2 -2,3 -3,4 -1,1 -2,2 -4,2 -2,0 -3,-1 -5,-3 -1,-1 -2,-4 -2,-7 0,-3 1,-6 2,-8 2,-1 3,-2 6,-2 1,0 3,0 4,2 1,1 1,2 2,3l-3 1c-1,-1 -1,-1 -2,-2 0,-1 -1,-1 -2,-1 -1,0 -2,1 -2,2 -1,1 -1,2 -1,5 0,2 0,4 1,5 0,1 1,2 2,2 1,0 2,-1 2,-1 1,-1 1,-2 2,-4zm5 8l0 -20 7 0c1,0 2,0 3,1 1,0 1,1 2,1 0,1 1,2 1,4 0,1 -1,2 -1,3 -1,1 -2,2 -3,2 0,0 1,1 1,2 1,0 1,1 2,3l2 4 -4 0 -2 -5c-1,-1 -1,-2 -2,-3 0,0 0,0 -1,0 0,0 0,-1 -1,-1l-1 0 0 9 -3 0zm3 -12l3 0c1,0 2,0 2,0 1,0 1,0 1,-1 0,0 0,-1 0,-1 0,-1 0,-1 0,-2 0,0 -1,0 -1,-1 0,0 -1,0 -2,0l-3 0 0 5zm12 2c0,-2 0,-4 0,-5 1,-1 1,-2 2,-3 0,-1 1,-1 2,-2 1,0 2,0 3,0 2,0 4,1 5,2 2,2 2,5 2,8 0,3 0,6 -2,7 -1,2 -3,3 -5,3 -2,0 -4,-1 -5,-3 -2,-1 -2,-4 -2,-7zm3 0c0,2 0,4 1,5 1,1 2,2 3,2 1,0 2,-1 3,-2 1,-1 1,-3 1,-5 0,-2 0,-4 -1,-5 -1,-1 -2,-2 -3,-2 -1,0 -2,1 -3,2 -1,1 -1,3 -1,5zm14 6l3 0 0 3c0,1 0,2 -1,2 0,1 0,1 0,2 -1,0 -1,1 -2,1l-1 -2c1,0 1,0 2,-1 0,0 0,-1 0,-1l-1 0 0 -4zm11 -3l3 0c0,1 0,2 1,3 0,0 1,1 2,1 1,0 2,-1 2,-1 1,-1 1,-1 1,-2 0,0 0,-1 0,-1 -1,-1 -1,-1 -1,-1 -1,0 -2,-1 -3,-1 -2,0 -3,-1 -3,-2 -1,-1 -2,-2 -2,-4 0,-1 1,-2 1,-3 0,-1 1,-1 2,-2 1,0 2,0 3,0 2,0 3,0 4,1 1,1 2,3 2,5l-3 0c-1,-1 -1,-2 -1,-2 -1,-1 -1,-1 -2,-1 -1,0 -2,0 -2,1 -1,0 -1,0 -1,1 0,0 0,1 1,1 0,1 1,1 2,1 2,1 3,1 4,2 0,0 1,1 1,2 1,1 1,2 1,3 0,1 0,2 -1,3 0,1 -1,2 -2,2 -1,1 -2,1 -3,1 -2,0 -3,-1 -4,-2 -1,-1 -2,-3 -2,-5zm15 7l0 -20 4 0 3 13 3 -13 4 0 0 20 -3 0 0 -16 -3 16 -3 0 -3 -16 0 16 -2 0zm31 0l-4 0 -1 -5 -6 0 -1 5 -3 0 5 -20 4 0 6 20zm-6 -8l-2 -7 -2 7 4 0zm7 8l0 -20 4 0 0 16 7 0 0 4 -11 0zm13 0l0 -20 3 0 0 16 8 0 0 4 -11 0zm32 -3l-2 3c-1,0 -2,-1 -2,-2 -1,1 -2,1 -2,2 -1,0 -2,0 -3,0 -2,0 -3,-1 -4,-2 -1,-1 -1,-2 -1,-4 0,-1 0,-2 1,-3 0,-1 1,-2 2,-3 0,-1 0,-1 -1,-2 0,-1 0,-1 0,-2 0,-1 0,-2 1,-3 1,-1 2,-1 3,-1 1,0 2,0 3,1 1,1 1,2 1,3 0,1 0,2 0,2 -1,1 -1,2 -2,3l2 3c0,0 0,-1 0,-2l3 1c0,1 -1,2 -1,3 0,0 0,1 0,1 0,0 0,1 1,1 0,1 1,1 1,1zm-8 -10l1 -1c0,-1 1,-1 1,-2 0,0 0,-1 -1,-1 0,-1 0,-1 -1,-1 0,0 -1,0 -1,1 0,0 0,0 0,1 0,0 0,1 0,2l1 1zm-1 4c-1,0 -1,1 -2,1 0,1 0,2 0,2 0,1 0,2 1,2 0,1 1,1 1,1 1,0 1,0 1,0 1,-1 1,-1 2,-2l-3 -4zm17 9l0 -20 4 0 3 13 3 -13 4 0 0 20 -3 0 0 -16 -3 16 -3 0 -3 -16 0 16 -2 0zm17 0l0 -20 11 0 0 3 -8 0 0 5 8 0 0 3 -8 0 0 5 9 0 0 4 -12 0zm14 -20l6 0c1,0 2,0 3,0 1,1 1,1 2,2 1,1 1,2 1,3 1,2 1,3 1,5 0,2 0,3 -1,4 0,2 0,3 -1,4 -1,0 -1,1 -2,1 -1,1 -2,1 -3,1l-6 0 0 -20zm3 3l0 13 3 0c0,0 1,0 1,0 1,0 1,0 2,-1 0,0 0,-1 0,-2 1,0 1,-2 1,-3 0,-2 0,-3 -1,-4 0,0 0,-1 0,-2 -1,0 -1,0 -2,0 0,-1 -1,-1 -2,-1l-2 0zm12 -3l3 0 0 20 -3 0 0 -20zm6 0l3 0 0 11c0,1 0,2 1,3 0,1 0,1 0,2 1,0 2,1 2,1 1,0 2,-1 2,-1 1,-1 1,-1 1,-2 0,0 0,-2 0,-3l0 -11 3 0 0 10c0,3 0,4 0,5 0,1 0,2 -1,3 0,0 -1,1 -2,1 0,1 -1,1 -2,1 -2,0 -3,0 -4,-1 0,0 -1,-1 -1,-1 -1,-1 -1,-2 -1,-2 -1,-2 -1,-3 -1,-5l0 -11zm16 20l0 -20 4 0 3 13 2 -13 5 0 0 20 -3 0 0 -16 -3 16 -3 0 -3 -16 0 16 -2 0zm23 0l0 -20 11 0 0 3 -8 0 0 5 8 0 0 3 -8 0 0 5 8 0 0 4 -11 0zm14 0l0 -20 3 0 6 13 0 -13 3 0 0 20 -3 0 -6 -13 0 13 -3 0zm19 0l0 -17 -5 0 0 -3 12 0 0 3 -4 0 0 17 -3 0zm9 0l0 -20 11 0 0 3 -8 0 0 5 8 0 0 3 -8 0 0 5 9 0 0 4 -12 0zm14 0l0 -20 7 0c1,0 2,0 3,1 1,0 1,1 2,1 0,1 1,2 1,4 0,1 -1,2 -1,3 -1,1 -2,2 -3,2 0,0 1,1 1,2 1,0 1,1 2,3l2 4 -4 0 -2 -5c-1,-1 -1,-2 -2,-3 0,0 0,0 -1,0 0,0 0,-1 -1,-1l-1 0 0 9 -3 0zm3 -12l3 0c1,0 2,0 2,0 1,0 1,0 1,-1 0,0 0,-1 0,-1 0,-1 0,-1 0,-2 0,0 -1,0 -1,-1 0,0 -1,0 -2,0l-3 0 0 5zm12 12l0 -20 5 0c2,0 3,0 4,0 1,1 1,1 2,2 1,1 1,3 1,4 0,1 0,2 -1,3 0,1 0,2 -1,2 0,1 -1,1 -1,1 -1,0 -2,0 -4,0l-2 0 0 8 -3 0zm3 -17l0 6 2 0c1,0 2,0 3,0 0,-1 0,-1 0,-1 1,-1 1,-1 1,-2 0,-1 0,-1 -1,-2 0,0 0,0 -1,-1 0,0 -1,0 -2,0l-2 0zm11 17l0 -20 7 0c1,0 3,0 3,1 1,0 2,1 2,1 1,1 1,2 1,4 0,1 -1,2 -1,3 -1,1 -2,2 -3,2 1,0 1,1 1,2 1,0 1,1 2,3l2 4 -4 0 -2 -5c-1,-1 -1,-2 -1,-3 -1,0 -1,0 -1,0 -1,0 -1,-1 -2,-1l0 0 0 9 -4 0zm4 -12l2 0c1,0 2,0 3,0 0,0 0,0 0,-1 1,0 1,-1 1,-1 0,-1 0,-1 -1,-2 0,0 0,0 -1,-1 0,0 -1,0 -2,0l-2 0 0 5zm12 -8l3 0 0 20 -3 0 0 -20zm5 13l3 0c0,1 0,2 1,3 0,0 1,1 2,1 1,0 2,-1 2,-1 1,-1 1,-1 1,-2 0,0 0,-1 0,-1 -1,-1 -1,-1 -1,-1 -1,0 -2,-1 -3,-1 -2,0 -3,-1 -3,-2 -1,-1 -2,-2 -2,-4 0,-1 1,-2 1,-3 0,-1 1,-1 2,-2 1,0 2,0 3,0 2,0 3,0 4,1 1,1 2,3 2,5l-3 0c-1,-1 -1,-2 -1,-2 -1,-1 -1,-1 -2,-1 -1,0 -2,0 -2,1 -1,0 -1,0 -1,1 0,0 0,1 1,1 0,1 1,1 2,1 2,1 3,1 4,2 0,0 1,1 1,2 1,1 1,2 1,3 0,1 0,2 -1,3 0,1 -1,2 -2,2 -1,1 -2,1 -3,1 -2,0 -3,-1 -4,-2 -1,-1 -2,-3 -2,-5zm15 7l0 -20 11 0 0 3 -8 0 0 5 7 0 0 3 -7 0 0 5 8 0 0 4 -11 0zm13 -7l3 0c0,1 0,2 1,3 0,0 1,1 2,1 1,0 2,-1 2,-1 1,-1 1,-1 1,-2 0,0 0,-1 0,-1 0,-1 -1,-1 -1,-1 -1,0 -2,-1 -3,-1 -1,0 -3,-1 -3,-2 -1,-1 -2,-2 -2,-4 0,-1 1,-2 1,-3 1,-1 1,-1 2,-2 1,0 2,0 3,0 2,0 3,0 4,1 1,1 2,3 2,5l-3 0c-1,-1 -1,-2 -1,-2 -1,-1 -1,-1 -2,-1 -1,0 -2,0 -2,1 -1,0 -1,0 -1,1 0,0 0,1 1,1 0,1 1,1 3,1 1,1 2,1 3,2 1,0 1,1 2,2 0,1 0,2 0,3 0,1 0,2 -1,3 0,1 -1,2 -2,2 -1,1 -2,1 -3,1 -2,0 -3,-1 -4,-2 -1,-1 -2,-3 -2,-5zm0 0z"></path> </g> </g> </g> </svg> 