<?xml version="1.0" encoding="UTF-8"?> <!-- Creator: CorelDRAW X7 --> <svg xmlns="http://www.w3.org/2000/svg" xmlns:xlink="http://www.w3.org/1999/xlink" xml:space="preserve" width="0.768335in" height="0.717051in" version="1.1" style="shape-rendering:geometricPrecision; text-rendering:geometricPrecision; image-rendering:optimizeQuality; fill-rule:evenodd; clip-rule:evenodd" viewBox="0 0 257 240"> <defs> <style type="text/css"> <![CDATA[ .fil1 {fill:#E52D33} .fil0 {fill:#4D4D4D} ]]> </style> </defs> <g id="Layer_x0020_1"> <metadata id="CorelCorpID_0Corel-Layer"></metadata> <g id="_1502077917040"> <g> <path class="fil0" d="M217 150c0,0 0,0 0,0 0,0 0,0 0,0zm14 2l0 0c0,1 0,0 0,1l-1 0c0,0 -1,0 -1,0l-1 0c0,0 0,1 0,1 0,0 -1,0 -1,0 0,-1 0,-1 0,-1 -1,0 -1,0 -1,0l-3 -1c0,0 0,0 -1,0l-4 -2c-1,-1 -1,-1 -1,-1 0,0 0,0 -1,0 0,0 0,0 0,0 0,0 0,0 0,0l-2 -2c0,0 0,0 0,0 0,0 0,0 0,0l-1 0c0,0 0,0 0,0 0,0 0,0 0,0 -1,-1 -1,-1 -2,-1 0,0 0,0 0,0 -1,-1 -1,-1 -2,-1 0,-1 0,-1 0,-1 0,0 -1,0 -1,0l0 -1c0,0 0,0 0,0 -1,0 -1,0 -1,0l0 0c-1,-1 -1,0 -1,-1 0,0 0,0 0,0 0,0 0,0 -1,0 0,0 0,-1 0,-1l-1 0c0,-1 0,0 0,-1 0,0 0,0 -1,0l-2 -2c0,0 0,-1 -1,-1l0 0c-1,-1 -1,0 -1,0 -1,0 -1,-1 -1,-1 0,0 -1,1 -1,0 2,0 3,0 4,1 1,0 1,0 2,0 0,0 1,0 1,0 0,0 1,0 1,0l1 1c1,0 1,0 2,0 0,0 0,0 1,0 1,0 1,0 1,0 1,1 1,1 2,1l1 0c1,0 1,0 2,0 0,1 1,1 1,1l2 0c1,0 2,0 2,0 1,1 1,0 1,0 1,1 2,1 2,1 1,0 2,0 3,0 0,0 1,0 1,0 0,0 1,0 1,0l1 0c2,-1 2,0 3,-1 1,0 2,0 2,0l2 0c1,0 1,0 1,0 0,0 1,0 1,-1 1,0 1,0 2,0 1,0 1,0 1,0 1,0 1,0 1,0 1,0 2,-1 3,-1 1,0 1,0 2,0 0,0 0,0 1,0l1 2c1,0 1,0 1,0l1 1c0,0 0,0 0,1 0,0 -1,0 -2,1l0 0c-1,0 -1,0 -1,1l-1 0c0,0 0,0 0,0 0,0 0,0 0,1l-1 0c-1,0 -1,0 -1,1 -1,0 -1,0 -1,0 0,0 0,0 0,0 -1,0 -1,1 -2,1l-4 2c0,0 0,0 0,0 -1,0 -1,0 -1,1 -1,0 -1,0 -1,0 -1,0 -1,0 -1,0 0,1 0,1 -1,1 0,0 0,0 0,0 0,0 -2,1 -3,1zm6 1c1,0 1,-1 1,-1 1,0 0,0 1,0 0,0 0,0 1,0l0 -1c1,0 1,0 1,0l1 -1c0,0 1,0 1,0l2 -1c0,0 0,0 0,0l1 -1c0,0 1,0 1,0l1 -1c0,0 0,0 1,0 0,0 0,-1 1,-1 0,0 0,0 1,0 0,-1 0,-1 1,-1 0,0 0,0 0,0 0,0 0,0 0,0 0,0 0,-1 0,-1 0,0 1,0 1,-1 0,0 1,0 1,-1 0,0 0,0 0,-1 0,0 -1,0 -1,0 0,0 0,0 0,0 0,-1 0,-1 0,-1 -1,0 0,0 -1,0 0,0 0,0 0,0 0,-1 0,-1 0,-1 0,0 0,0 -1,0 0,0 0,0 0,0 0,-1 0,0 0,-1l-1 0c1,-1 1,0 1,0 1,-1 1,-1 1,-1 0,1 1,1 2,1 1,-1 0,0 0,-1 1,0 1,0 1,0 0,-1 0,-1 0,-1 0,-1 0,-1 0,-1 -1,0 0,0 -1,-1 0,0 0,0 -1,0 0,0 0,0 0,0l0 0c-1,0 -1,-1 -1,-1 0,0 0,0 -1,0 0,0 -1,0 -1,0 0,0 0,-1 0,-1 1,0 0,0 1,0l0 -2c1,0 1,0 1,0l0 -1c1,-1 1,0 1,0 0,0 0,0 0,0 0,-1 0,-1 0,-1 0,-1 0,-1 -1,-1 0,0 0,0 0,0 0,0 -1,-1 -1,-2l-3 -2c0,0 0,0 0,0 -1,-1 -2,-1 -2,-2 0,0 0,0 0,0 0,0 0,0 0,0 -1,0 -1,0 -1,0 -1,-1 -1,-1 -1,-1 0,0 0,0 0,0 -1,0 -1,-1 -1,-1 0,0 0,0 -1,0 0,0 0,0 -1,0 0,-1 0,-1 0,-1 -1,0 -1,0 -1,0l-1 -1c0,0 0,0 0,0 -1,0 -1,0 -1,0l0 0c-1,0 -2,-1 -2,-1 -1,0 -1,0 -1,0 -1,0 -1,0 -1,0 -1,0 -1,0 -1,0 -1,-1 -1,-1 -2,-1 -1,0 -1,0 -1,0 -2,0 -4,0 -7,0 0,0 0,0 -1,0 0,0 0,0 -1,0 0,0 -1,0 -1,0 0,1 0,1 -1,1 0,0 -1,0 -1,0 -1,0 -1,0 -2,1 0,0 0,0 0,0 0,0 0,0 -1,0l-2 1c0,0 -1,0 -1,1l-1 0c-1,1 -1,1 -2,1l0 1c-1,0 -1,0 -1,0 -1,0 0,0 -1,1 0,0 0,0 -1,0 0,0 0,1 -1,1 0,0 0,0 0,0 0,0 0,0 -1,1 0,0 0,0 -1,1 0,0 1,0 0,1 0,0 -1,0 -1,0l0 1c-1,0 -1,1 -1,1l-1 0c0,-1 1,-1 1,-1 1,-1 1,-1 1,-1l-1 0c0,0 0,0 0,1l-2 2c-1,0 -1,1 -1,1 -1,0 -1,0 -1,0l-2 0c-1,0 -2,0 -2,0 -1,0 -2,0 -3,0l-4 0c0,0 0,0 -1,0 0,0 0,0 0,-1 -1,-1 0,0 -1,-1 -1,-1 -1,0 -2,-1 0,0 0,0 0,0 -1,0 -1,0 -1,0 0,-1 0,-1 0,-1 -1,0 0,0 -1,0 0,0 0,0 -1,-1l0 0c-1,0 -1,0 -1,-1 -1,0 -1,0 -1,0l-1 -1c0,0 0,0 0,0 0,0 -1,0 -1,0 0,-1 0,0 1,-1 1,0 1,0 1,0 1,-1 1,-1 1,-1 0,-1 0,-1 0,-1 0,0 0,0 -1,0 0,-1 0,-1 0,-1 0,-1 0,0 0,-1l-1 0c0,-1 0,-1 -1,-1 0,-1 0,-1 0,-1 0,0 0,0 0,0l-1 -1c0,0 -1,-1 -1,-1 0,0 0,0 0,0 0,0 0,0 0,0 -1,-1 -1,-1 -1,-1 0,0 0,0 0,0 0,0 0,0 0,-1 -1,0 -1,0 -1,0 0,-1 0,0 0,-1 -1,0 -1,0 -1,0 0,0 0,0 0,0 0,-1 0,-1 0,-1 -1,0 -1,-1 -1,-1 0,0 0,0 0,0 -1,-1 -1,-1 -1,-1 0,-1 0,-1 -1,-2 0,0 0,0 0,0 0,0 0,0 -1,-1l0 -1c-1,0 -1,0 -1,0 0,0 0,0 0,-1 0,0 0,0 0,0 -1,0 0,0 -1,0 0,0 0,0 0,-1 0,0 0,0 0,0 0,0 0,0 -1,0 0,-1 0,-1 -1,-1 0,-1 0,-1 -1,-1 0,0 0,-1 -1,-1 -1,0 0,0 -1,0 -1,0 -1,-1 -1,-1 -1,0 -1,0 -1,0 -1,0 -1,-1 -2,-1l-1 0c0,0 0,-1 0,-1 0,0 0,0 0,0l-1 0c0,0 0,0 -1,-1 0,0 0,0 0,-1 0,0 0,0 0,-1 -1,0 -1,-3 -1,-3 0,-1 0,-1 0,-2 0,0 0,0 0,-1l0 -1c0,-1 1,-1 0,-1 0,-1 0,-1 0,-2 -1,0 -1,0 -1,0l0 -1c-1,0 -1,0 -1,0 0,-1 0,-1 -1,-1l-1 -2c0,0 0,0 0,-1 0,-1 0,-2 0,-3 0,-1 0,-1 -1,-3 0,0 0,0 0,0 0,-1 0,-1 0,-1 1,-1 1,-1 1,-1 1,-1 1,-1 1,-1l1 0c0,0 0,0 0,0 1,0 0,0 1,0 0,0 0,-1 1,-1 0,0 1,0 1,0 1,0 1,-1 2,0 0,0 0,-1 0,-1 0,0 0,0 0,-1l1 0c0,-1 0,-1 0,-2 1,-1 0,0 0,-1 1,-1 1,-3 1,-4l-1 -3c0,-1 0,0 0,-1l0 0c0,-1 0,-1 -1,-1 0,0 0,0 0,0 0,0 0,0 0,0 -1,-1 -1,-1 -1,-1 0,0 0,0 0,0l-1 -1c-1,0 -1,0 -1,-1 0,0 -1,0 -1,0 0,-1 0,0 0,-1 -1,0 -1,0 -1,0l-1 -1c0,0 0,0 -1,0 0,-1 0,0 0,-1 0,0 0,0 -1,0l-1 -1c0,0 0,0 0,0 0,0 0,0 0,-1 -1,0 0,0 -1,0 0,0 0,0 0,0 0,0 0,0 0,-1 -1,0 -1,0 -1,0 0,0 0,0 0,0 -1,-1 0,0 0,-1 -1,0 -1,0 -1,0 0,-1 0,-1 -1,-1 0,0 0,0 0,0 0,0 0,0 0,-1 -1,0 0,-1 0,-1 0,0 0,0 0,0 0,-1 0,-1 0,-1 -1,0 -1,0 -1,1 0,0 0,0 -1,0 0,0 0,1 0,2 0,0 0,1 0,1 0,0 0,0 0,1 0,1 -1,2 -1,3l-1 2c0,0 0,0 0,1 0,0 0,0 0,0 0,1 0,1 0,1 0,1 0,3 0,4 -1,1 -1,4 0,5 0,1 0,0 0,1 0,0 0,1 0,1 1,0 1,0 1,0 0,1 0,1 0,1 0,1 2,1 2,0 1,0 1,1 1,0 0,-2 0,-1 1,-3 0,0 0,0 0,-1l0 -1c0,-1 0,0 0,-1 1,0 1,-2 1,-3 -1,0 0,-1 -1,-1 0,0 0,0 0,-1l0 -1c0,0 0,0 0,0 0,-1 0,-1 -1,-1 0,-1 0,0 0,-1 0,-1 0,-1 0,-2 0,0 0,0 0,-1 -1,0 -1,0 -1,0 0,-1 1,-1 1,-2 0,0 -1,-1 -1,-1 0,0 1,0 1,0 0,0 1,2 1,2 0,0 0,0 1,0 0,1 0,0 0,1 0,0 0,0 1,0 0,0 0,1 0,1l2 2c1,0 1,0 1,0 0,0 0,0 0,0l0 1c0,0 1,0 1,0 0,0 0,1 1,1 0,0 0,0 0,0 0,1 0,0 0,1 1,0 1,0 1,0 0,0 0,1 1,1l1 1c0,0 0,0 0,1 0,0 0,0 0,0 0,0 0,0 0,0 1,1 1,1 1,2 0,0 0,0 0,0 1,1 1,4 0,5 0,0 0,0 0,0 0,1 0,1 0,1 0,0 0,0 0,0 0,1 0,1 -1,2 0,1 0,1 0,1 0,0 -1,0 -1,0 0,0 0,0 0,1 -1,0 -1,0 -2,0l0 0c-1,1 -1,0 -1,1l-1 0c-1,0 0,0 -1,1l0 0c-1,0 -1,0 -1,1 0,-1 0,-1 0,-1 -1,0 0,0 -1,0 0,-1 0,-1 0,-1 0,0 -1,0 -1,0 0,0 0,0 0,0 0,-1 -1,-1 -1,-1l-1 -1c0,0 0,0 0,0 -1,0 -1,0 -1,-1l-1 -1c0,0 -1,0 -1,0 0,0 0,0 0,0 0,0 0,0 -1,-1 0,0 0,0 0,0l0 0c-1,0 -1,0 -1,-1 0,0 0,0 0,0l-1 -1c0,0 0,0 0,0 0,-1 0,-1 0,-2 -1,0 -1,0 -1,0 0,-1 0,-1 0,-1 0,0 0,0 0,0 -1,0 0,-1 -1,-1 0,0 0,0 0,0l-1 -1c0,0 0,0 0,0 0,0 0,0 0,-1 0,0 0,0 0,0 0,0 0,0 -1,-1 0,0 -1,-1 -1,-1 0,-1 0,-1 0,-1 -1,0 0,0 -1,0l-1 -2c0,0 0,0 0,0 0,0 0,0 0,-1 -1,0 -1,0 -1,0l0 -1c0,0 0,0 -1,-1 0,0 0,0 0,-1 0,0 0,0 0,0 0,-1 0,0 0,0 -1,-1 -1,-2 -1,-2 0,-1 0,-2 -1,-2 0,-1 0,-1 0,-1l0 -1c0,-1 0,-1 0,-1 0,0 0,0 0,0 0,-1 0,0 1,0 0,0 0,0 1,0l0 0c1,0 2,0 3,0 0,1 1,1 1,1 2,0 2,0 3,0l2 -1c1,0 1,0 2,0 1,-1 0,-1 1,-1 0,0 0,0 0,0l1 0c1,0 1,0 1,0 1,0 1,-1 1,-1 1,0 2,0 2,0 1,0 0,0 1,-1 1,0 1,0 2,0 0,0 0,0 0,0l0 0c0,0 0,0 0,0 0,0 0,0 0,0 1,-1 1,-1 1,-1 1,0 1,-1 1,-2 0,-1 0,-1 0,-2 0,0 0,0 0,-1 0,0 0,0 0,-1 0,0 0,0 0,0l0 0c0,0 0,0 0,0 0,0 0,-1 -1,-1l-2 0 -3 0c-1,0 -2,1 -2,1 0,0 0,0 -1,0 0,1 -1,1 -1,1 0,0 -1,1 -1,1 0,0 -1,0 -1,0 -1,0 -1,0 -1,1 0,0 -1,0 -2,0l0 1c-1,0 -1,0 -2,0 0,0 0,0 0,1 0,0 -1,0 -1,0 0,0 0,0 0,0 -1,0 -1,0 -1,0 -1,1 -1,1 -2,1 0,0 0,0 0,0 -1,0 -2,0 -2,0 0,0 0,0 -1,0 0,0 0,0 0,0 0,0 -1,0 -1,0 0,-1 0,-2 0,-3 0,0 0,0 0,0 0,-1 0,-1 0,-1l-1 0c0,0 1,0 0,0 0,0 0,0 0,0 0,0 0,0 0,0 1,1 0,1 0,2 0,0 0,1 0,2 -1,0 -1,0 -2,0 -1,0 -1,0 -2,0 0,0 0,0 0,-1l-1 -1c0,-1 0,-2 0,-2 0,-1 0,0 -1,-1 0,0 1,0 0,0l0 -1c0,-1 0,-2 0,-3 0,0 0,-1 0,-1 0,-1 0,-1 0,-1 0,-1 0,-2 0,-3 0,0 0,0 0,0 0,0 0,0 -1,0l0 -1c-1,0 0,0 -1,0 0,0 0,0 0,0l0 0c-1,0 -1,0 -1,0 0,0 0,0 0,-1 0,0 0,0 0,0 -1,0 0,0 -1,0 0,1 0,1 0,1 -1,0 -1,0 -1,0 -1,1 -1,1 -1,1 -1,0 -1,0 -1,-1 1,0 0,0 1,0 0,0 1,0 1,0l1 -1c0,0 1,0 1,-1 0,0 0,0 0,0 1,0 1,-1 1,-1 1,0 1,0 1,0l1 0c1,0 1,-1 1,-1l1 0c0,0 1,-1 2,-1 1,0 0,0 1,0 0,0 0,0 1,0 0,0 0,0 1,-1 0,0 0,0 0,0 1,1 1,1 1,1l1 1c0,0 0,0 0,0 0,0 0,0 0,0l0 1c0,0 0,0 0,0 0,0 0,0 0,0l0 0 0 0c0,0 0,0 0,0l0 -1c0,-1 0,-1 -1,-1 0,-1 1,0 2,-1 0,0 0,0 1,0 0,0 0,0 0,0 1,0 2,-1 4,-1 0,0 0,0 1,0 0,0 0,0 1,0 1,0 2,0 2,0 1,0 2,0 2,-1 1,0 1,0 2,0 0,0 0,0 0,0 1,0 1,0 1,0l3 -1c1,0 1,0 1,0 1,0 1,0 2,0 0,0 1,0 1,0 1,0 3,0 4,0 1,0 3,-1 4,0 0,0 0,0 0,0 0,0 1,0 1,0 0,0 0,1 1,1 0,0 0,0 0,0 0,0 0,0 0,1 0,0 1,0 1,1 0,0 0,1 0,1 0,1 0,1 0,1 0,1 0,1 1,2 0,0 0,1 0,1 0,0 0,0 0,1 0,0 1,3 0,3 0,0 0,0 0,0 -1,0 -1,1 -1,1 1,0 0,0 1,0 1,1 2,-1 2,-5l-1 -2c0,0 0,0 0,-1 0,0 0,0 0,-1l0 -1c-1,0 -1,0 -1,0 0,0 0,-1 0,-1 0,-1 0,-1 -1,-2l0 0c-1,-1 -1,-2 -2,-2 -1,0 -1,0 -1,0 -2,0 -3,0 -5,0 0,0 -1,0 -1,0 -1,1 -2,0 -3,1 0,0 -1,0 -1,0 0,0 -1,0 -1,0 0,0 0,0 -1,0l-3 1c0,0 0,0 -1,0 0,0 -1,0 -2,0l-2 0c0,0 0,1 -1,1l-1 0c-1,0 0,0 -2,0 0,0 0,0 -1,1 0,0 0,0 0,0 -1,0 -1,0 -1,0l-2 0c0,0 -1,0 -2,1 -1,0 -2,0 -2,0 0,0 0,0 0,0 -1,0 -1,0 -1,1 -1,0 -1,0 -2,0l0 0c-1,0 -1,0 -1,0 0,0 0,0 0,0 -1,0 -1,1 -2,1 -1,0 0,0 -1,0l-2 1c0,0 0,0 0,0l-2 1c0,0 0,1 0,1 0,-1 0,-1 0,-1 0,0 0,0 0,0 0,0 0,0 0,0 0,-1 1,-2 1,-2 0,0 -1,-1 -1,-1 -1,0 -1,0 -2,0 0,0 0,0 0,0 0,1 0,1 -1,2 0,0 0,0 0,0l-1 0c0,1 0,1 -1,1 0,0 0,1 0,1 0,-1 0,-1 0,-1 0,-1 0,-1 0,-1 0,0 0,0 0,0 1,-1 1,-1 1,-1 0,0 0,0 0,0 1,0 0,0 1,-1 0,0 0,0 0,0l1 -1c0,0 0,-2 0,-2 0,-1 0,-1 0,-1 0,0 0,0 0,-1 -1,0 -1,1 -1,1l0 0c0,0 0,0 -1,1 0,0 0,0 0,0 -1,0 -2,0 -3,0 0,0 0,0 1,0l0 -1c0,0 0,0 0,0 1,0 1,-1 2,-1 0,0 1,0 1,-1 0,0 0,-1 0,-1l-1 0c0,1 0,1 0,1 -1,0 0,0 0,-1 -1,0 -2,-2 -2,-1 0,0 0,0 -1,1l0 0c0,1 0,1 0,1 0,-1 0,-1 0,-1 0,-1 0,-1 0,-1 0,0 0,0 0,0 1,-1 1,0 1,-1 0,0 0,0 -1,0l-1 1c-1,0 -1,0 -2,0 0,0 0,0 0,0 -1,0 -1,0 -2,0 0,1 -1,1 -1,1l-1 0c0,0 0,0 -1,0 0,0 0,0 -1,1 -1,0 -1,0 -2,0l-1 1c0,0 -1,0 -1,0 0,1 0,1 0,1 0,0 -1,0 -1,0 0,0 0,0 0,0 0,1 0,0 -1,1l-1 1c0,0 0,0 0,1 -1,0 -1,3 0,4 0,0 0,0 1,0 0,1 0,2 0,2 0,1 0,1 0,1 0,1 0,1 0,2 0,0 0,0 0,0l1 1c0,1 0,1 0,1 0,0 0,1 0,1l1 0c0,0 0,0 0,0l0 0c0,0 0,0 0,0 0,1 0,1 0,2 0,1 0,1 -1,2 0,0 0,0 0,0 0,1 1,1 1,1 0,0 0,0 -1,0 0,1 -1,1 -1,2 0,0 0,0 0,1 0,0 0,1 0,1 0,0 -1,0 -1,1 0,0 0,0 0,1 0,0 0,1 0,1 0,0 0,0 0,0 0,1 0,0 0,0 -1,1 -1,1 -1,1 0,0 0,0 0,1 -1,0 -1,0 -1,0 0,0 0,0 0,0 0,1 0,1 -1,1 0,0 0,0 0,1 0,0 0,0 -1,0 0,1 0,0 0,1 0,0 0,0 -1,0 0,0 0,0 0,0 0,1 0,1 -1,1 0,0 0,0 0,0 0,1 0,1 -1,1 0,0 0,0 0,1l-2 1c0,0 -1,0 -1,1l-1 0c0,1 0,1 0,1 0,0 0,0 0,0l-1 2c-1,0 -1,0 -1,1 0,0 0,0 0,0 -1,1 -1,1 -1,1 0,0 0,1 -1,1 0,1 0,1 -1,2 0,0 0,0 0,0 0,1 0,0 -1,1 0,0 0,0 0,0 0,0 0,0 0,1 0,0 -1,0 -1,1 -1,1 0,0 -1,2 0,0 0,0 0,0 0,1 0,1 0,2 0,1 0,1 0,2 0,0 -1,1 0,1 0,1 -1,1 -1,2 0,0 0,0 0,0 0,1 0,1 0,1l0 0c0,0 0,1 0,1 0,1 0,1 0,1 0,1 0,1 0,1l-1 1c0,0 0,0 0,1 0,2 0,1 1,2 0,1 0,1 0,1 0,0 0,1 1,1 1,0 1,-1 1,0 0,0 0,0 0,0 0,1 0,1 0,1 0,1 0,1 0,2l0 2c-1,1 -1,0 -1,1 0,1 0,1 -1,1 0,0 0,1 0,1 0,0 0,0 0,0 0,1 0,1 0,1 -1,1 -1,1 -1,1l0 1c0,0 1,1 1,1 0,0 1,0 1,0l0 -1c0,1 0,1 0,1 0,0 0,0 0,0 0,1 0,2 0,3 0,0 1,0 1,0l0 0c0,0 0,0 0,0l0 0c1,0 0,0 1,0 0,-1 0,-1 0,-1l0 0c0,0 0,0 0,1 0,0 0,0 -1,0 0,0 0,0 0,0 0,1 0,1 0,1 0,0 0,0 0,0 0,1 0,0 0,1 0,1 0,1 0,1 1,1 1,0 1,0 0,0 0,1 0,1 0,0 0,0 0,1 1,0 1,0 1,-1l1 -1c0,0 0,0 1,-1 0,0 0,0 0,0l1 0 0 0c0,0 0,0 0,0l1 -1c0,0 0,0 0,-1l1 -3c0,0 0,0 0,0 0,0 1,-1 1,-1 0,0 0,-1 0,-2l0 -3c0,0 -1,-1 -1,-1 0,-1 0,-1 0,-2 0,-3 0,-2 1,-3 1,0 1,0 1,-1 0,0 0,-1 0,-1 0,-1 0,-1 0,-1 0,0 0,0 0,-1 0,-1 0,-3 0,-4 0,-1 0,-2 0,-4 0,-1 0,-1 0,-2 1,0 1,0 1,0l0 -1c1,0 0,0 1,-1 0,0 0,0 0,0 0,0 0,0 0,0 1,-1 1,0 1,-1 0,0 0,0 0,0 0,0 0,0 0,0 1,-1 1,-1 1,-1 0,0 0,0 1,-1 0,0 0,0 0,0 0,0 0,0 0,0 0,0 0,0 0,0 1,-1 1,0 1,-1 0,0 0,0 0,0 1,0 0,0 1,-1 0,0 0,0 0,0 0,0 0,0 0,0 1,-1 1,0 1,-1 0,0 0,0 1,0 0,-1 0,-1 0,-1 0,0 0,0 0,0 0,0 1,-1 1,-1 1,0 1,0 1,-1 0,0 0,0 0,0 0,0 0,0 0,0l1 -1c0,0 0,0 1,0l3 -4c0,0 0,0 1,0l0 0c0,0 1,0 1,0l0 1c0,0 1,0 1,0l1 1c0,0 0,0 0,0 1,0 1,1 1,1 0,0 0,0 0,0 1,0 1,0 2,1 0,0 0,0 0,0 0,0 0,0 0,0 0,0 0,0 1,0 0,0 0,0 0,0 0,0 0,1 0,1l0 0c0,0 0,0 0,0 1,0 1,0 1,0 0,0 0,0 0,0 0,0 0,0 1,0 0,0 0,0 1,0 0,1 -1,3 0,4 0,1 1,0 2,1 0,0 0,0 0,0 -1,1 0,0 -1,1l-1 1c-1,1 0,1 -1,1l0 0c0,1 0,1 -1,1 0,0 0,1 -1,1 0,1 -1,2 -1,2 -1,0 0,0 0,0 -1,1 -1,0 -1,1 0,0 0,0 0,0 0,0 0,0 0,0 -1,0 -1,1 -1,1 0,0 0,0 0,0 -1,0 -1,0 -1,1 0,0 0,0 0,0 -1,0 -1,0 -1,0 0,1 0,1 0,1 -1,0 -1,0 -1,0 0,0 0,0 0,1 -1,0 -1,0 -1,0 0,0 0,0 0,1 -1,0 -1,0 -1,0 0,0 0,0 0,0 0,0 -1,1 -2,1l0 1c-1,0 -1,0 -1,0 0,1 0,1 0,1 -1,0 0,0 -1,0 0,0 0,0 0,1 0,0 0,0 -1,0l1 1c0,0 0,0 0,1 -1,0 -1,0 -1,1 0,0 -1,1 -1,2 0,0 0,0 0,0l0 1c0,1 0,1 0,2 0,0 1,1 1,1 0,0 0,0 0,1 0,0 0,0 0,1l0 1c0,0 0,0 1,0 0,0 0,1 0,1l0 2c0,0 0,0 1,1 0,0 0,0 0,0l0 1c0,1 0,1 0,2 0,0 0,0 0,0 0,1 0,1 0,1l1 2c0,1 0,2 1,2 0,1 0,1 0,1 0,0 0,0 0,1 0,0 0,0 0,0l0 1c0,1 0,1 0,1l1 0c0,1 0,1 0,2 0,0 0,1 0,1 0,1 0,1 0,1 0,0 0,1 0,1 1,0 1,0 1,1 0,0 0,0 0,0 0,1 0,1 0,2 0,0 0,0 0,0 0,1 0,1 0,1 0,1 0,0 0,2 0,0 1,3 1,4l1 1c0,1 0,1 0,1 0,1 0,1 0,1 0,0 0,0 0,0 0,0 0,0 -1,0 0,1 0,1 -1,1l-1 0c0,0 0,1 0,1 0,0 -1,0 -1,0 0,0 -1,0 -1,0 0,0 0,0 -1,0 0,0 -2,0 -2,0 -1,0 -1,0 -2,0 0,0 0,0 0,1 0,0 0,0 0,0 -1,1 -1,0 -2,1 0,0 0,0 0,0l-1 1c0,0 1,0 1,0 0,1 0,1 1,1 0,0 0,0 0,0 1,0 0,0 1,0 0,0 1,0 1,0l1 1c0,0 1,0 1,0 0,0 0,0 0,0 1,0 0,0 1,0 1,0 0,0 1,0 0,0 1,0 1,0 1,0 1,0 1,0 0,0 0,0 1,0 0,0 -1,0 0,0 0,0 0,0 0,0 0,0 0,0 1,0 0,0 0,0 0,0 0,0 0,0 0,0l1 0c0,0 0,0 -1,0 0,0 1,0 2,-1 0,0 0,0 1,0 0,0 0,0 0,0 0,0 0,0 0,0 0,0 1,0 1,0 1,-1 1,0 1,0l1 0c0,0 0,0 0,0l0 0c1,0 1,0 1,0 0,1 0,1 0,1 -1,0 -2,0 -2,0 -1,0 -3,0 -3,0 0,0 0,0 0,0l3 0c0,0 0,0 0,0 0,0 0,0 -1,0 0,0 0,0 -1,0 0,0 0,0 0,0 0,0 0,0 -1,0 0,0 0,0 0,0l0 0 0 1c0,0 0,0 0,0 -1,0 -1,0 -1,0 0,0 0,0 0,0 0,0 0,0 1,-1l-1 0c0,0 0,0 0,1 0,0 0,0 0,0 0,0 0,0 0,0 0,0 0,0 0,1 0,0 0,0 0,0 0,0 0,0 0,0 0,0 0,0 0,0 0,0 0,1 0,1l0 2c0,1 0,0 0,1 0,0 0,1 0,1 0,0 0,0 0,0 0,0 0,0 0,-1l0 -2c0,0 0,0 0,-1 0,-1 0,0 0,-1 1,-1 0,-1 1,-1l0 3c0,0 0,0 0,1 0,0 0,0 0,1l0 0c0,0 0,0 0,1 0,0 0,0 0,0 0,0 0,0 0,1 0,1 0,1 -1,1 0,0 0,-1 0,-1 0,0 0,0 0,-1 0,0 0,0 0,0l0 0c0,1 0,1 0,2 0,0 0,0 0,0 1,0 1,0 2,0 0,0 0,0 0,0 1,0 1,0 1,0l1 1c-1,0 -1,0 -1,0 0,-1 -1,0 -1,0l-1 0c0,0 0,0 -1,0 0,-1 -1,0 -1,-1 0,0 -1,0 -1,0 0,0 0,0 -1,0l0 0c1,0 2,1 3,1l2 0c1,0 3,0 5,0 0,0 2,0 3,0l3 0c1,0 1,0 1,0 1,1 3,0 3,1 1,0 2,0 3,0l8 0c1,0 5,0 7,0 2,1 11,1 14,0l11 0c0,0 1,0 1,0 1,0 1,0 2,0 0,0 1,0 1,0 2,-1 3,0 5,-1 2,0 4,0 6,0 1,0 2,0 2,0l4 0c1,0 2,0 3,0 1,0 1,0 1,0l3 -1c2,0 1,0 3,0l1 0c2,0 4,0 5,0 0,0 0,0 0,1l1 0c1,0 1,1 1,1 1,0 2,1 3,2 0,0 0,0 0,0l1 0c0,1 0,1 1,1 0,0 0,0 0,1 0,0 1,0 1,0 1,1 0,0 1,0 0,1 0,1 0,1l1 1c1,0 0,0 1,0 0,0 0,0 0,0l1 1c0,0 0,0 1,0l1 1c0,0 0,0 0,0 0,0 1,0 1,0 0,0 0,0 0,1 0,0 0,0 1,0l2 1c1,0 1,0 1,1l1 0c0,0 1,0 1,1 0,0 0,0 0,0l2 1c0,0 1,0 1,0l0 0c1,0 1,0 1,0 0,0 0,0 1,0 1,1 1,1 1,1l2 0c0,1 0,1 1,1 0,0 1,0 1,0 1,0 1,0 1,0 4,0 6,-1 9,-2zm0 -3c0,-1 0,0 0,0 0,0 0,0 0,0 0,0 0,0 0,0zm12 -3l0 0c0,0 0,0 0,0zm-37 -1l0 0c0,0 0,0 0,0zm-3 -2l0 0c0,0 0,0 0,0zm38 0c0,0 0,0 0,0 0,0 0,1 0,0zm-42 -2c0,0 0,0 0,0 0,0 1,0 0,0zm16 -2l0 0c0,0 0,0 1,0l0 0c0,0 0,0 -1,0zm10 0c0,0 -1,0 -1,0 0,0 0,0 0,0l1 0 0 0zm0 0l0 0 0 0 0 0 0 0zm-10 0l0 0zm29 0c0,0 0,0 0,0 0,0 0,0 0,0zm-30 0c0,0 0,0 0,0l0 0c0,0 0,0 0,0zm29 0c0,-1 0,0 0,0 0,0 0,0 0,0 0,0 0,0 0,0 1,0 0,0 0,0zm-26 -1c0,0 0,0 0,0l0 0c0,0 0,0 0,0zm13 0c0,0 0,0 0,0 0,0 0,0 0,0l0 0zm2 0l0 0c0,0 0,0 0,0zm-67 0l0 0c0,0 0,0 0,0zm43 0l0 0 0 0 0 0 0 0zm25 0c0,0 0,0 0,0 0,0 0,0 0,0zm0 0c1,0 1,0 1,0 0,0 0,0 0,0 -1,0 -1,0 -1,0zm10 0l0 0c0,0 0,0 0,0zm-119 0c0,0 0,0 0,-1 0,1 0,1 0,1zm6 0l0 0 0 0 0 0 0 0zm-32 0l-1 0 1 0c0,0 0,0 0,0zm1 0c0,0 0,0 0,0 0,0 0,0 0,0zm14 0l0 0c0,0 0,0 0,0zm98 0c0,0 0,0 0,0 0,0 0,0 0,0 0,0 0,0 0,0 0,0 0,0 0,0zm25 0l-1 0 0 0 1 0 0 0zm-139 0l0 0zm20 0c0,-1 0,-1 -1,-1 0,0 0,0 0,0 -1,0 -1,0 -1,1 1,0 1,0 1,0 1,0 1,0 1,0zm37 -1c0,0 0,1 0,0 -1,-1 -1,0 -1,-2l0 0c0,-1 0,-1 0,-1 0,0 0,-1 0,-1 -1,0 -1,0 -1,0l0 2c0,1 0,2 0,3 0,0 1,0 1,0 0,0 1,0 1,-1zm-57 1c0,-1 0,-1 0,0 0,0 0,0 0,0 0,0 0,0 0,0zm35 -1l0 1c0,0 0,-1 0,-1zm-19 0c0,0 0,0 0,0l0 0c-1,0 -1,0 -1,0 -1,0 0,0 -1,0 0,0 0,0 -1,0 0,0 0,0 0,0 1,0 1,0 2,0 0,1 1,0 1,0zm39 0l0 0c0,0 0,0 0,0zm86 0c0,0 -1,0 -1,0 0,0 0,0 0,0 0,0 1,1 1,0zm-65 0l0 0 0 0 0 0 0 0zm2 0l-2 0 0 0 2 0 0 0zm1 0l-1 0 0 0 1 0 0 0zm19 0l0 0c0,0 0,0 0,0zm13 0l-1 0 0 0 1 0 0 0zm31 0l1 0c-1,0 -1,0 -1,0 0,0 0,0 0,0l0 0zm-74 0c0,0 0,0 0,0 0,0 0,0 0,0 0,0 0,0 0,0zm-60 0c1,0 2,0 2,0 0,-1 0,0 0,-1 -1,0 -1,0 -2,0 0,1 0,0 0,1 0,0 0,0 0,0zm14 1c1,0 0,0 1,-1 -1,0 -1,0 -1,0 -1,-1 -1,-1 -2,0 0,0 1,0 1,0 0,0 0,1 1,1 0,0 0,0 0,0zm28 0c0,-1 0,0 0,-1 0,0 0,0 0,-1 -1,-1 -1,0 -1,-1 0,0 0,0 0,0 0,-1 0,-1 0,-1 0,0 0,0 -1,-1 0,0 1,0 0,0 0,-1 0,-1 0,-1l0 0c0,0 0,0 0,0 0,1 0,0 0,1l-1 1c0,0 0,3 0,4 1,0 1,0 2,0 1,0 1,0 1,0zm13 -1c0,0 -1,-1 -1,0 0,0 0,0 1,0zm-67 0c0,0 0,0 0,0 0,0 0,0 0,0zm67 0l0 0c0,0 0,0 0,0zm-64 -1c0,0 0,1 0,0 0,0 0,1 0,0zm4 1l3 0c0,0 0,0 0,-1 -1,0 -1,0 -1,0l0 0c0,0 0,0 0,0 -1,-1 -1,-1 -2,0 0,0 0,0 0,0 0,1 -1,0 0,1 0,0 0,0 0,0zm18 -1l0 0c0,0 0,0 0,0zm94 0c0,0 -1,0 -1,0l1 0zm11 0c0,0 -1,0 0,0 0,0 0,0 0,0zm0 0l3 0c0,0 0,0 0,0l-1 0c-1,0 -1,0 -2,0zm-94 0l0 0c0,0 0,0 0,0zm-14 1l0 -1c0,0 0,0 0,0 0,0 0,0 -1,0 0,0 -1,0 -1,0 0,1 0,1 1,1 0,0 1,0 1,0zm27 -1l0 0 0 0 0 0 0 0zm57 0l0 0c0,0 0,0 0,0zm9 0l1 0c0,0 0,0 0,0l0 0c0,0 -1,0 -1,0zm0 0l-1 0c1,0 1,0 1,0zm23 0c-1,0 -1,0 -2,0 1,0 2,0 2,0zm-136 0l0 0c0,0 0,0 0,0zm1 0c0,-1 0,-1 0,-1 0,1 0,1 0,1 0,0 0,0 0,0zm13 -1c0,0 0,0 -1,0 0,0 0,0 0,1 0,0 0,0 -1,0 0,0 1,0 1,0 0,0 0,0 0,1 1,-1 1,-1 1,-1 1,0 1,0 1,0 0,-1 0,-1 0,-1 -1,0 0,0 -1,0zm84 1c0,0 0,0 0,0 0,0 0,0 0,0l0 0zm14 0l0 0zm26 0l0 0c1,0 1,0 1,0 0,0 1,0 1,0 0,0 0,0 -1,0 0,0 -1,0 -1,0zm12 0c0,0 0,0 0,0 0,0 1,0 0,0zm-128 0c0,0 0,0 0,-1 -1,0 -1,0 -1,0 0,1 0,1 0,1 0,0 0,0 1,0 0,0 0,0 0,0zm90 0l0 0c-1,0 -2,-1 -3,-1l1 1c0,0 0,0 0,0l2 0zm-3 -1l-1 0 0 0 1 0 0 0zm33 0c0,0 -1,0 -1,1l1 -1zm6 0c-1,0 -1,0 -2,0 -1,0 -1,0 -2,0 0,0 0,1 -1,1 -1,0 -2,0 -4,0 0,0 -1,0 -2,0 -1,0 -2,0 -3,0 0,0 0,0 -1,0 -2,1 -2,1 -4,1 -1,0 -2,0 -2,0 -2,0 -5,0 -7,0 -1,0 -1,0 -1,0 -1,0 -2,0 -3,0l-7 -1c0,0 0,0 0,0l-2 0c0,0 -1,0 -1,0l0 0c2,0 1,0 3,0 1,0 0,0 1,1l3 0c1,0 1,0 1,0 0,0 0,0 1,0 1,1 2,0 3,1 1,0 1,0 1,0 1,0 2,0 3,0 1,0 2,0 3,0 2,0 8,0 10,0 1,0 1,0 2,0 1,0 2,0 3,-1 2,0 1,0 2,0 0,0 1,0 1,0 0,0 0,0 1,0l2 0c0,-1 0,-1 1,-1 0,0 0,0 0,0 1,0 3,0 3,0 0,0 1,0 1,-1 0,0 -1,0 -1,0 -1,0 -1,0 -2,0zm-146 0l0 0c0,0 0,0 0,0zm56 0c0,0 0,0 0,0 0,0 0,0 0,0zm49 0l-1 0 0 0 1 0 0 0zm38 0c0,0 -1,0 0,0l0 0c0,0 0,0 0,0zm0 0c0,0 0,0 0,0 0,0 0,0 0,0zm-135 0c0,0 0,0 -1,0l0 -1c-1,0 -1,0 -1,1 0,0 0,0 -1,0 0,1 1,0 1,1 0,0 0,0 1,0 0,0 0,0 0,0 1,0 1,0 1,-1zm14 1l1 -1c0,0 -1,0 -1,0l-1 0c0,0 0,1 1,1zm62 -1c0,0 0,0 0,0 0,0 0,0 0,0zm-80 0l-1 -1c-1,0 0,0 -1,0l-1 1c0,0 0,0 0,0 0,0 0,0 1,1 0,0 0,0 0,0 1,-1 1,0 2,-1zm92 0c0,0 0,0 0,0 0,0 0,0 0,0zm49 0c0,0 0,0 0,0l0 0 0 0 0 0zm1 0l0 0 0 0c0,0 0,0 0,0zm-132 0c1,0 1,0 1,0 0,0 0,0 0,0 1,0 1,0 1,0 0,0 -1,-1 -1,-1 0,0 0,0 -1,0 0,0 0,0 0,0 0,1 0,1 0,1 0,0 0,0 0,0 0,0 0,0 0,0zm18 0c0,-1 0,0 0,0 0,0 0,0 0,0zm52 0c0,-1 0,-1 0,0 0,0 0,0 0,0zm-86 0c0,0 0,-1 0,-1 0,0 0,0 0,0l0 1zm102 -1l-1 0 0 1 1 0 0 -1zm-91 1c1,0 2,-1 2,-1l0 0 -2 -1c0,0 0,0 0,0l-1 1c0,0 0,0 0,0 -1,0 0,0 0,0 0,0 0,0 0,1 1,0 1,0 1,0zm71 -1l0 0zm-4 0c-1,0 0,0 -1,0 1,0 1,0 1,0zm-74 -1c0,0 0,0 -1,0 0,1 0,0 0,1l-1 0c0,1 0,1 1,1 0,-1 0,0 0,-1 1,0 1,0 1,0 0,-1 0,0 0,-1zm88 1l0 0 0 0 0 0 0 0zm-72 0l0 0c0,0 0,0 -1,0 0,0 0,0 0,-1 0,0 0,0 0,1 0,0 -1,0 -1,0l0 0c1,1 2,0 2,0zm14 0c0,0 0,0 0,0 0,0 0,0 0,0zm-28 0c1,0 1,0 2,0 0,0 0,0 0,0l-1 -1c0,0 0,0 0,0l0 0c-1,0 -1,0 -1,1 0,0 0,0 0,0 0,0 0,0 0,0zm52 -1l0 0 0 1 0 0 0 -1zm18 0l0 0c0,0 0,0 0,0zm-76 0c0,0 0,0 0,0 0,0 0,1 0,0zm92 0l0 0c0,0 0,0 0,0zm-53 1l0 -2c0,0 0,0 -1,0 0,0 0,1 0,1 0,0 0,1 1,1zm-18 0c1,0 1,0 1,0 0,-1 0,-1 0,-1 0,0 0,0 0,0 -1,0 -1,0 -2,0 0,0 0,0 1,1 0,0 0,0 0,0zm97 2c1,0 8,0 10,0 0,0 0,0 0,0l3 0c1,0 1,0 2,0 1,0 2,0 3,0 0,0 1,0 3,0 0,0 0,0 0,0 1,0 1,0 1,-1 1,0 1,0 2,0 1,0 1,0 2,0 2,0 2,0 3,-1l3 0c0,0 0,0 0,-1 -1,0 -1,0 -2,0 0,0 0,0 0,0 0,-1 0,-1 -1,-1 0,0 0,0 0,0 -1,0 -1,0 -1,0l-4 0c-1,0 -1,0 -2,0 0,0 0,0 -1,0 0,0 0,0 0,0l-10 0c-1,0 -1,0 -2,0l-3 -1c-1,0 -1,0 -2,0 0,0 0,0 -1,0 0,0 0,0 0,0 -1,0 -2,0 -2,0 -1,0 -1,0 -2,0 0,0 -1,0 -1,0 -2,0 -3,0 -4,0l-5 0c0,0 -1,0 -1,0 -2,-1 -3,0 -4,0l-2 -1c0,0 -1,1 -1,1 0,1 -1,0 -2,0 -1,1 -1,1 -1,2 0,1 0,0 2,1 0,0 1,0 1,0 0,0 0,0 0,0 1,0 1,0 2,0 1,0 2,0 2,0 1,0 1,1 2,1 0,0 0,0 1,0 0,0 1,0 1,0 1,0 1,0 2,0 0,0 0,0 0,0 1,0 2,1 3,1 1,0 1,0 2,0 0,0 0,0 1,0 1,0 2,0 3,0zm-115 -4c-1,0 -1,0 -1,0 0,-1 0,0 0,-1 -1,0 -1,0 -1,0 0,1 0,1 0,2 0,0 0,1 0,1l0 0c0,0 0,0 0,0 0,0 0,0 0,0 1,-1 1,0 1,-1 1,0 1,0 1,-1zm11 2c1,0 0,0 1,0 0,-1 0,-1 1,-1 -1,0 0,0 -1,0l0 0c-1,-1 -1,-1 -2,-1 0,1 0,0 0,1 0,0 0,0 0,0l1 1zm70 -1l0 0c0,0 0,0 0,0zm-9 0c0,0 0,0 0,0l0 0zm-71 0c0,0 0,0 1,0 0,0 1,0 1,0 0,-1 0,0 0,-1 0,0 0,0 -1,0 0,0 0,0 0,0 0,0 -1,0 -1,1zm-5 0c1,0 1,0 1,0 0,0 0,0 0,0 0,-1 0,-1 0,-1 0,0 -1,0 -1,0l0 1zm12 0c-1,-1 -1,-1 -1,-1 0,0 -1,0 -1,0l-1 0c0,0 0,0 -1,1 1,0 1,0 1,0l0 0c0,0 0,0 0,0 1,1 1,0 1,0 0,0 1,0 2,0zm13 0c0,0 0,0 0,0 -1,-1 0,-1 -1,-1 0,1 0,1 0,1 1,0 0,0 1,0zm31 -1c0,0 -1,0 -1,0 0,0 1,1 1,0zm17 1c0,0 0,-1 0,-1 0,0 0,0 0,0 0,0 0,1 0,1zm-18 -1l0 0c0,0 0,0 0,0zm20 0l0 0c0,0 0,0 0,0zm-19 0l-1 0 0 0 1 0 0 0zm-37 1c0,-1 -1,-1 -1,-1 0,-1 0,-1 -1,-1 0,0 0,1 0,1 0,0 0,0 -1,0 0,0 0,0 1,0l0 1c0,0 0,0 1,0 0,0 0,0 0,0l0 0c1,0 1,0 1,0zm54 -1l0 0c0,0 0,0 0,0l0 0c0,0 0,0 0,0zm-72 0l-1 0 1 0c0,0 0,0 0,0 0,0 0,0 0,0zm142 0l0 0c0,0 0,0 0,0zm1 0c0,0 -1,0 0,0 0,0 0,0 0,0zm0 0l0 0 1 0c0,0 0,0 0,0 -1,0 -1,0 -1,0zm1 0l0 0c0,0 0,0 0,0zm1 0c0,0 -1,0 0,0l0 0c0,0 0,0 0,0zm-105 -1l0 0 0 1 0 0 0 -1zm-4 1l0 0c0,0 0,0 0,0zm37 0l0 0c0,0 0,0 0,0zm62 0c-1,-1 0,-1 -1,-1 0,0 0,1 0,1l1 0c0,0 0,0 0,0zm2 0c0,-1 0,-1 0,0 0,0 0,0 0,0zm-129 -1c-1,0 0,0 -1,0l0 0c0,0 0,0 0,0 0,0 0,0 0,0l0 0c-1,0 -1,0 -1,1 1,0 1,0 1,0l0 0c1,0 1,0 1,0 1,-1 1,-1 1,-1 0,0 -1,0 -1,0zm79 0l0 0 0 0 0 0 0 0zm50 0l-1 0 0 0c0,0 0,1 0,0 1,0 1,0 1,0zm-136 0l0 0c0,0 0,0 0,0zm11 1c0,0 0,0 1,0 0,0 0,0 0,-1 -1,0 -1,0 -1,0 -1,0 0,0 -1,0 0,1 0,0 0,1 1,0 1,0 1,0zm7 0c0,0 0,0 0,0 1,0 0,0 1,0 0,0 0,0 0,0 0,-1 0,-1 0,-1 -1,0 -1,0 -2,0 0,0 0,0 0,0 0,0 0,0 0,0l1 1zm8 0c0,0 0,0 0,0 0,1 0,0 0,1l0 5c0,0 0,0 1,0 0,0 0,0 1,0 0,-1 0,-1 -1,-2 0,0 0,0 0,0 0,-1 0,-1 0,-1l0 -1c0,-1 0,-1 0,-1 0,0 0,-3 0,-3 0,0 0,0 0,0 0,0 0,0 0,0 -1,1 -1,1 -1,2zm101 -1l0 0c0,0 0,0 -1,0l1 0c0,0 0,0 0,0zm3 0c0,0 -1,0 -1,0l-1 0c0,0 0,0 0,0 0,0 1,0 1,0 0,0 1,0 1,0l0 0zm1 0l0 0zm1 0c0,0 0,0 0,0 0,0 0,0 0,0zm1 0c-1,0 -1,0 -1,0 0,0 1,0 1,0zm2 0l-1 0 0 1c0,0 0,0 0,0 1,0 1,0 1,-1zm-96 -1l0 0 0 1 0 0 0 -1zm85 1c0,0 0,0 -1,0 0,0 0,0 0,0 1,0 1,0 1,0zm2 0l-2 0c0,0 0,0 1,0 0,0 1,0 1,0zm0 0l0 0 0 0c0,0 0,0 0,0zm-3 0c0,0 0,0 0,0 0,0 0,0 0,0l0 0zm-121 -1c0,1 0,0 -1,1 1,0 1,0 1,1 0,0 0,0 0,0 1,0 0,0 1,0 1,0 0,0 1,0 0,0 0,0 0,0l0 -1c0,0 -1,0 -1,0l0 0c0,-1 0,0 0,-1l-1 0zm120 1c0,0 0,0 0,0 -1,0 0,0 -1,0l-1 0c-1,0 -1,0 -1,0l2 0c1,0 1,0 1,0zm-121 0c0,0 0,0 0,0 0,0 0,0 0,0zm46 0c0,0 0,0 0,0 0,0 0,0 0,0zm5 0c0,0 0,0 0,0l0 0c0,0 0,0 0,0zm20 0l0 0c0,0 0,0 0,0zm24 0l0 0 0 0c0,0 0,0 0,0zm2 0c-1,0 0,0 -1,0l0 0c1,0 0,0 1,0zm19 0l0 0 0 0c0,0 0,0 0,0zm2 0c0,0 0,0 -1,0 0,0 0,0 0,0 0,0 0,0 0,0 1,0 1,0 1,0zm-97 0c0,-1 0,0 0,0 0,0 0,0 0,0zm8 0c0,-1 0,0 0,0 0,0 0,0 0,0zm-9 0c0,0 0,0 0,0 0,0 -1,-1 -1,-1 0,0 0,0 0,1 0,0 0,0 0,0 0,0 0,0 1,0zm0 0c0,-1 0,0 0,0 0,0 0,0 0,0zm26 0c0,-1 0,0 0,0 0,0 0,0 0,0zm7 0c0,-1 0,-1 0,0 0,0 0,0 0,0zm58 0l-1 0c0,0 0,0 0,0 0,0 1,0 2,0l1 0c0,0 1,0 1,0l0 0c-1,-1 -1,0 -2,0 0,0 0,0 -1,0zm-24 -1c0,0 0,0 0,0 0,0 0,0 0,1 0,0 0,0 0,1 0,0 0,0 0,0 -1,1 -1,3 -1,4 0,0 1,0 1,0 1,0 1,0 0,-1 0,0 0,-1 0,-2 0,-1 0,-1 0,-2 0,0 0,0 0,-1zm23 1l0 0c0,0 0,0 0,0zm-112 -1l0 0c0,0 0,0 0,0zm107 0c0,0 0,0 0,0 0,0 0,0 0,0 0,0 0,1 0,0zm1 0c0,0 -1,0 0,0 0,0 0,0 0,0zm-97 0c-1,0 -1,0 -1,0 -1,0 -1,0 -1,0 1,1 1,1 1,1 1,0 0,0 1,-1 0,0 0,1 0,0 0,0 0,0 0,0zm5 1l0 0c-1,-1 -1,-2 -2,-1 -1,0 -1,0 -1,0 0,0 0,1 1,1 0,0 0,0 0,0 1,0 1,0 2,0zm56 -1c0,0 0,0 0,0 0,0 0,0 0,0 0,0 0,0 0,0zm30 0c-1,0 -1,0 -1,0l1 0zm1 0l0 0 0 0 0 0 0 0zm1 0l0 0 0 0 0 0 0 0zm-104 0c0,0 -1,0 0,0 0,0 0,0 0,0zm92 0c-1,0 -1,0 -1,0 0,1 0,1 0,1 0,0 0,0 0,0 0,2 0,2 0,4 0,0 0,0 0,0l0 0c1,-1 0,-1 1,-3 0,0 0,0 0,-1 0,0 0,-1 0,-1zm-89 0l0 0c0,0 0,0 0,-1 -1,0 -1,0 -1,0 -1,0 -1,0 -1,0 0,1 0,1 0,1 0,0 0,0 1,0 0,0 0,1 0,0 1,0 0,0 1,0zm21 1c0,-1 -1,-1 -1,-1l-1 0c0,0 0,0 0,0 1,0 1,0 1,1 0,0 0,0 1,0zm60 -1c0,0 0,0 0,0 0,0 0,0 0,0l0 0zm-1 1l0 -1c0,0 0,0 -1,0l0 -1c0,0 0,0 0,0 0,0 0,0 0,0 0,0 0,-1 0,-1l-2 -1c0,-1 0,-1 -1,-1l0 0c0,0 0,0 0,0 -1,-1 -2,-1 -2,-1l-2 1c0,0 0,0 0,0 -1,0 0,0 -1,0 0,1 0,2 0,3 -1,1 -1,0 0,2 0,0 0,0 0,0 0,1 1,1 1,1 0,1 0,0 1,1 0,0 1,1 1,1 1,0 1,0 1,0 0,0 0,0 1,0 0,0 0,0 0,0 1,0 2,0 3,-1 0,0 1,0 1,-1 0,0 0,0 0,-1zm-83 -1c0,0 0,0 0,0 0,0 0,0 0,0zm6 1c0,0 0,0 0,0 0,0 1,0 1,0 0,0 0,0 0,-1 0,0 0,1 0,0 0,0 0,0 0,0 -1,-1 -2,-1 -3,-1 0,1 0,1 1,1l0 1c0,0 0,0 1,0 0,0 0,0 0,0zm18 -2c0,0 0,0 0,1 0,0 0,0 1,0 0,-1 0,-1 -1,-1zm-7 1l1 0c0,0 0,0 0,0 -1,-1 -1,-1 -2,-1 0,1 0,0 0,1 0,0 0,0 0,0 0,0 0,0 0,0 1,0 0,0 1,0zm-13 -1c0,0 0,0 0,0l0 0 0 0c0,0 0,0 0,0zm64 0c0,0 0,0 0,0 0,0 0,1 0,0zm4 2c0,0 0,1 0,1 1,0 1,0 1,0 0,1 0,1 0,2 0,0 0,0 0,1l1 2c2,0 4,0 6,0l3 0c0,0 1,0 2,0l1 0c0,-1 0,-1 0,-2 0,0 0,0 0,0 0,-1 0,-1 0,-2 0,0 0,-1 0,-1 1,-1 0,-1 0,-1 1,-1 1,-1 0,-1 0,0 -1,0 -1,0 -1,0 -1,0 -1,0 0,0 1,2 0,3 -1,1 -1,1 -1,1 -1,0 -1,0 -2,1 0,0 -2,0 -3,0 -1,-1 -1,-1 -1,-1l-2 -1c-1,0 0,0 -1,-1l-1 0c0,-1 0,-1 0,-1 0,0 0,0 0,0 -1,0 -1,0 -1,0 0,0 -1,-1 -1,-1 0,-1 0,-1 0,-1 0,0 0,0 0,1l0 1c1,1 1,0 1,0zm-63 -2l-1 0c0,0 0,0 0,0 1,1 1,1 2,0 0,0 0,0 0,0 -1,0 -1,0 -1,0zm5 0c-1,0 -1,0 -1,0 0,0 -1,0 -1,0 0,0 0,1 0,1 1,0 2,0 2,-1zm14 0c0,0 0,0 -1,-1 0,0 0,1 0,1 0,1 0,1 1,1 0,-1 0,-1 0,-1zm4 1c0,0 0,0 0,0l0 -1c0,0 0,0 0,1zm2 3l0 4c0,0 0,1 0,1 1,0 1,0 1,0 0,0 0,0 0,0 0,-1 0,-1 1,-1l-1 -6c0,-2 0,-3 0,-3 -1,0 -1,1 -1,1 0,1 0,1 0,2l0 2zm-36 -4l0 0zm22 1c0,-1 -1,-1 -1,-1 -1,0 0,0 -1,0 1,0 1,0 1,0 0,0 0,1 1,1zm4 -1c0,0 0,0 0,0 0,0 1,0 0,0zm76 0l0 0c0,0 0,0 0,0zm-101 0c0,0 0,0 0,0 0,0 0,0 0,0zm40 9c0,0 -1,-1 -1,-1 0,0 0,-1 0,-1 0,-2 0,-2 0,-4 0,-1 0,-1 0,-1 0,0 0,-1 0,-1 0,-1 0,-1 0,-2 0,0 -1,0 -1,0 0,1 0,1 0,1 0,1 0,4 0,5 0,1 0,2 0,3 0,0 0,1 0,1 1,0 2,0 2,0zm-38 -9l0 0c0,0 0,0 0,0zm20 0l0 0c1,0 0,0 0,0l0 0c0,0 0,0 0,0zm11 0l0 0 0 0c0,0 0,0 0,0zm-1 -1c0,0 0,0 0,0l0 5c0,0 0,1 0,1 0,1 0,1 0,2 0,1 0,1 0,1 0,1 0,2 1,1 0,0 0,0 0,0 0,-1 0,-1 0,-1l0 -2c0,-1 0,-2 0,-3l0 -4c0,0 0,0 -1,0zm25 1c0,0 0,-1 0,0l0 0zm13 0c-1,-1 -2,0 -3,0 0,0 0,0 1,1l0 1c0,0 0,1 1,1 0,0 0,-1 0,-2 0,0 0,-1 1,-1l0 0zm-34 -1c0,0 0,0 0,1 0,0 0,0 0,-1zm27 0l-2 0c0,1 0,0 0,1 1,1 1,1 1,1 0,0 0,0 0,0 0,0 0,0 0,0 1,-1 1,-1 1,-2zm39 0c0,0 -1,0 0,0 0,0 0,1 0,0zm-33 0l-1 0 0 0 1 0 0 0zm-19 0c-1,0 -8,0 -9,0 0,0 0,2 0,3 0,1 1,2 1,3 0,1 0,3 0,3 0,0 0,1 0,1 2,0 2,0 4,0 2,0 1,0 1,-1 1,-1 1,-1 1,-2 0,-1 0,0 0,-1l0 -2c0,0 0,0 1,0 0,-1 0,-1 0,-1 0,0 0,0 0,0 0,0 0,0 0,-1 0,0 0,0 0,0 0,-1 1,-1 1,-1 0,-1 0,-1 0,-1zm7 0c0,0 0,0 0,0 -1,0 -1,0 -1,0l-3 0c0,1 0,0 0,1 0,0 0,0 0,0 1,1 1,1 1,2 0,0 0,0 0,0l1 1c0,0 0,1 0,1 0,0 0,0 0,-1 0,-1 0,-1 1,-2 0,-1 0,-1 0,-1l1 0c0,-1 0,0 0,-1 0,0 1,0 0,0zm-53 0l0 0c0,0 0,0 0,0zm1 0c0,0 0,0 0,0 0,0 0,0 0,0zm56 0l0 0c0,0 0,0 0,0zm-16 0l-2 0c-1,0 -1,0 -1,0l3 0c0,0 0,0 0,0zm57 0c0,0 0,0 0,0 0,0 0,0 0,0zm-63 0l0 0 -1 0c0,0 0,0 1,0zm18 0l0 0zm46 -1c0,0 0,0 0,0 0,0 0,0 0,0zm48 0l0 0c0,0 0,0 0,0l0 -1c-1,0 0,0 -1,-1 0,0 0,0 0,0l-1 -2c-1,0 -1,0 -1,0 0,0 0,0 0,0 0,0 -1,0 -1,-1 0,0 -1,0 -1,-1 -1,0 -1,0 -1,0 0,0 0,-1 -1,-1 -1,0 0,0 -1,0l-2 -2c0,0 0,0 -1,0 0,0 0,0 -1,0l-1 -1c-1,0 -1,-1 -1,-1 -1,0 -1,0 -2,0l-1 -1c-1,0 -1,0 -3,0 -1,0 -1,0 -2,0 0,0 -1,0 -1,0 0,0 -1,0 -1,0 0,0 -1,0 -1,0 -1,0 -1,0 -2,0 -1,0 -1,0 -1,0 -1,0 -1,0 -2,0 0,1 -1,1 -2,1 0,0 -1,0 -1,1 -1,0 -1,0 -2,0 0,1 0,1 0,1 -1,0 -1,0 -1,0l-1 1c0,0 0,0 0,0 -1,0 0,0 -1,0 0,1 0,0 -1,1l-3 2c0,0 0,0 0,0l-3 2c0,0 0,0 0,1 0,0 0,0 0,0l-1 0c0,0 0,0 0,0l-3 3c0,0 0,0 0,0 0,1 -1,1 -1,1 0,0 0,0 0,1 0,0 1,0 2,0 0,0 2,0 3,0 2,0 4,0 6,0 1,0 3,0 4,0l4 1c1,0 1,0 2,0 1,0 1,0 2,0 1,0 3,0 4,0l4 0c0,0 0,0 0,0 0,0 0,0 1,0 0,0 0,0 1,0l4 0c1,0 1,0 1,0 1,0 2,0 2,0 1,0 1,0 1,0l3 0c2,0 2,1 3,0l0 -1c0,0 0,0 0,0l2 -2c0,0 0,0 1,0 0,0 0,0 0,0 0,-1 0,-1 0,-1zm-47 -1c0,0 -1,0 -1,0 1,1 1,0 1,0zm47 0c0,0 0,1 0,0 0,0 1,1 0,0zm-144 0c0,0 -1,0 0,0 0,0 0,0 0,0zm1 0c-1,0 -1,0 -1,0 -1,-1 0,-1 -1,-1 0,1 0,0 0,1 0,0 1,0 1,0 0,0 0,0 0,0 1,0 1,0 1,0zm-3 -1c0,0 0,0 0,0 0,0 0,1 0,0zm4 -2c-1,0 0,0 -1,0l-2 2c1,0 1,0 1,0 0,0 0,0 1,0 0,0 0,0 1,0 0,1 0,1 0,1 1,0 1,-1 0,-2 0,0 0,-1 0,-1zm-3 2l0 0c0,0 0,0 0,0zm64 0c1,0 2,-1 2,-1 0,0 -1,1 -1,1 0,0 0,0 -1,0zm2 0c2,0 1,0 1,1 1,-1 2,-2 3,-2 0,0 0,0 -1,0 0,0 0,0 0,-1 -1,0 -1,0 -1,0 -1,0 -1,0 -1,0 0,0 0,0 0,0 0,1 0,1 0,1 0,0 0,0 0,0l-1 0c0,1 0,1 0,1zm-61 -1l0 0c0,0 0,0 0,0zm-11 -1c0,0 -1,0 -1,0 0,0 1,0 1,0zm147 -1l0 0 0 0c0,0 0,0 0,0zm-37 -1c0,0 0,0 0,0 0,0 0,0 0,0zm-109 2c-1,-1 -1,-1 -2,-1 0,0 0,0 0,0 1,1 1,1 1,1 -1,0 0,1 -1,1 0,0 0,0 0,0 -1,0 -1,0 -2,0 0,2 0,1 1,1l-1 1c0,0 0,0 0,-1 0,0 0,0 -1,0 0,0 0,0 0,-1 0,0 0,0 0,0 0,0 0,0 -1,-1 0,0 0,0 0,0 -1,0 0,0 -1,0l-3 0c0,0 -1,0 -1,0 0,1 0,1 0,1 -1,1 0,0 -1,1 0,0 -1,0 -1,0 1,1 1,1 1,1 1,0 1,0 1,0 1,0 2,0 4,0l4 0c2,1 2,0 2,0 1,0 1,1 1,1 0,0 0,-1 0,-1l0 0c1,0 1,0 1,0 1,0 1,0 2,0 0,0 0,0 1,0 0,0 0,0 0,0l0 -1c0,0 0,0 -1,0l0 0c2,0 2,0 2,-1l1 0c0,0 0,0 0,0l0 0c0,0 0,0 1,-1 0,0 0,0 0,0 0,-1 0,-1 0,-1 -1,0 -2,0 -3,0l-1 -1c-1,0 -1,0 -1,0 0,0 0,0 0,1 1,0 1,0 1,1 0,0 0,0 0,0l-1 1c-1,0 0,0 -1,0 0,0 0,0 1,0 0,-1 0,-1 0,-1 0,0 0,0 0,0 0,0 0,-1 0,-1 0,0 -1,0 -1,0l0 -1c0,0 0,0 0,0 -1,0 -1,0 -1,0 0,0 0,0 0,0l1 1c0,0 0,1 0,1l-1 0zm145 -2l0 0c0,0 0,0 0,0zm-2 -1l0 0 0 0c0,0 0,0 0,0zm-135 2c0,-1 0,-1 -1,-1 0,-1 0,-1 0,-1 -1,0 0,0 -1,0l-1 -1c-1,0 0,0 -1,0 -1,0 0,0 -2,0 0,0 0,0 0,0 -1,1 1,1 1,1l1 1c1,0 0,0 1,0 0,0 0,0 0,0 1,1 1,0 2,1 1,0 1,0 1,0zm105 -3l0 0c0,0 0,0 0,0zm27 -1c0,0 0,0 0,0l0 0c0,0 0,0 0,0zm-29 0l0 0c0,0 0,0 0,0zm28 -1c0,0 0,1 0,0 0,0 0,1 0,0zm-2 0c1,0 1,0 0,0l0 0c0,0 0,0 0,0zm-3 -2l0 0c0,0 0,1 0,1 0,0 0,0 0,-1zm-13 0c0,0 0,0 0,0 0,0 0,0 0,0 0,0 0,0 0,0zm-124 -2c0,0 0,0 0,0l0 0zm11 -4c0,0 0,0 0,0l0 0zm-1 -2l0 0zm0 0l0 0zm0 0l0 0c0,0 0,0 0,0zm30 -9c0,-1 -1,0 0,0 0,0 0,0 0,0zm-27 13c0,-1 0,0 0,-1 -1,0 -1,-2 -1,-2 0,0 0,0 0,-1 0,0 0,0 0,0 0,-1 0,-1 0,-1 0,0 0,0 0,0 0,-1 0,-1 0,-1 0,0 0,0 -1,-1 0,0 0,1 0,-1 0,-1 0,-1 -1,-1 0,-1 0,-1 0,-1 0,-1 0,-1 -1,-1 0,-1 0,-1 0,-1 0,0 0,0 -1,0 0,0 0,0 0,0l-2 -1c0,-1 0,0 -1,-1l-1 -1c0,0 0,0 -1,0 0,0 0,0 1,0l0 1c0,0 0,0 0,0 0,0 0,0 0,0 0,0 0,0 0,0l0 1c0,0 0,0 0,0l1 1c0,1 0,1 0,1 1,0 1,0 1,0 0,0 0,0 0,0 0,0 0,0 0,0 0,1 0,1 0,1 1,0 0,0 1,0 0,1 0,1 0,1 0,0 0,0 0,1 1,0 1,0 1,0l1 3c0,0 0,0 0,0 1,0 1,0 1,0 0,1 0,0 0,1l0 0c1,1 0,0 1,1l0 1c1,0 1,0 1,0l0 0c0,1 0,1 0,1 0,0 0,1 1,1zm-38 -15l0 0c0,0 0,0 0,0zm32 0c0,0 -1,0 -1,0 0,0 1,0 1,0zm-34 0l0 0 0 0c0,0 0,0 0,0zm3 -1l0 0 0 0c0,0 0,0 0,0zm-2 0l0 0c0,0 0,0 0,0zm1 0l0 0 0 0c0,0 0,0 0,0zm31 0l0 0c0,0 0,0 0,0zm-30 -1l-1 1 1 0c0,0 0,0 0,0 0,-1 0,-1 0,-1zm0 1l0 0c0,0 0,0 0,0 0,0 0,0 0,0l0 0zm0 -2l0 0c0,1 0,1 0,1 0,0 0,0 0,-1zm0 0l-1 0 0 1c1,-1 1,0 1,-1zm0 0l0 0 0 0c0,0 0,0 0,0zm-1 -1l0 1c0,-1 0,-1 0,-1zm1 0c0,0 0,0 0,0 1,0 1,0 1,0 0,0 0,0 -1,0zm-2 0c0,0 0,0 0,0 0,0 0,0 0,0zm0 0c0,0 0,0 0,0 0,0 0,0 0,0zm-1 -1l0 0 0 1c0,0 0,0 0,0 0,-1 0,0 0,-1zm4 0c0,0 0,0 0,0 0,1 0,1 0,1l0 -1zm-5 1c0,-1 0,-1 0,-1 0,0 0,0 0,0 0,0 0,0 0,1l0 0zm2 -1c0,0 0,0 0,0l0 0 0 0zm2 0c0,0 0,0 0,0 0,0 0,0 0,0zm-3 -1c0,0 0,0 0,0 -1,0 -1,1 -1,1l1 0c0,-1 0,-1 0,-1zm2 0c0,0 0,0 0,0 0,0 0,1 0,0zm-1 0c0,0 0,0 0,0 0,0 0,0 0,0 0,0 0,0 0,0zm4 0l0 0 -1 0c0,0 0,0 1,0zm1 0c-1,0 -1,0 -1,0 0,0 1,0 1,0zm-3 0c-1,0 -1,0 -1,0l0 2c-1,0 0,0 -1,0l0 1c0,0 0,0 0,0 0,1 0,0 0,1 0,0 0,0 0,0 0,0 0,0 -1,1 0,0 0,0 0,0l1 0c0,0 0,-1 0,-1l0 0c0,0 0,0 0,-1 1,0 1,0 1,0 0,0 0,0 0,0 0,-1 0,-1 0,-1l0 -1c1,0 1,0 1,-1 0,0 0,0 0,0zm-3 0l0 0 0 0 0 0 0 0zm1 -1c0,0 0,0 0,0 0,0 0,1 0,0zm2 1c0,-1 0,-1 0,-1 0,1 0,1 0,1zm3 -1c0,0 0,0 0,0 0,0 0,1 0,0zm-3 0l0 0 0 0c0,0 0,0 0,0 0,0 0,0 0,0zm0 0c0,0 -1,0 0,0 0,0 0,0 0,0zm-2 0c0,-1 0,-1 0,-1 0,0 0,1 -1,1l0 2c0,1 -1,1 0,1 0,-1 0,0 0,-1 0,0 0,0 0,0l1 -1c0,-1 0,0 0,-1 0,0 0,0 0,0zm1 0l0 0c0,0 0,0 0,0zm0 -1l0 0c0,0 0,0 -1,0 1,0 1,0 1,0zm4 0l-1 0c0,0 0,0 1,0l0 0c0,0 0,0 0,0zm-2 0c0,0 0,0 0,0l1 0c-1,0 0,0 -1,0 0,0 0,0 0,0zm-3 0c0,0 0,0 0,0 0,0 0,0 0,0zm0 0l0 0c0,0 0,0 0,0zm3 0c-1,-1 0,0 -1,-1 0,1 0,1 1,1zm-1 -1l0 0c0,0 0,0 0,0zm-2 0l0 0c0,0 0,0 0,0zm1 0c0,0 0,0 0,0 0,0 0,0 0,0zm-2 -1c0,1 0,1 0,1 0,0 0,0 0,-1zm-1 0c0,0 0,0 0,0 0,0 0,1 0,0zm37 12c0,-1 -1,-2 -1,-2 0,-1 0,-1 0,-1l0 -1c-1,0 -1,0 -1,0 0,0 0,0 0,-1 0,0 0,0 0,0 -1,0 0,0 -1,-2 0,0 0,0 0,0 0,0 0,0 0,0 0,-1 0,-2 0,-2 0,0 0,0 0,0 0,-1 0,-1 -1,-1 0,0 0,0 0,0 0,-1 0,-1 0,-2 0,0 0,0 0,0 -1,1 0,0 0,1 0,1 0,0 0,1 0,0 0,0 0,0 0,1 0,1 0,1 0,1 1,1 1,2 0,0 0,0 0,1 0,0 0,0 0,1 0,1 0,1 0,2 1,0 1,1 1,1l0 1c0,0 0,0 1,0 0,1 1,1 1,1zm-35 -12c0,1 1,2 1,2l1 1c1,0 1,0 1,0 0,1 1,1 1,1 0,0 0,0 0,0 1,-1 1,-1 1,-1 0,0 0,0 0,-1 -2,0 -1,0 -2,0 0,0 -1,0 -1,0 -1,-1 0,-1 -1,-1l-1 -1c0,0 0,0 0,0 0,0 0,0 0,0l0 0c0,0 0,0 0,0l0 0c-1,0 -1,0 -1,0 0,-1 0,-1 0,-1 0,0 0,1 -1,1 1,0 1,0 1,0 1,1 0,0 1,0zm35 0c0,1 0,2 0,3 0,1 0,2 0,3 -1,1 0,2 0,3 0,0 0,0 0,0 0,0 0,1 0,1 0,1 0,2 1,2 0,1 0,0 0,1 1,0 1,0 1,1 -1,0 0,0 -1,0 0,0 1,1 1,1 0,0 0,0 0,0 0,1 0,1 0,1 1,0 1,0 1,1 0,0 0,0 0,1 0,0 0,0 0,1 0,0 1,0 1,1 0,1 0,2 0,4 0,0 0,0 0,1 0,1 1,3 1,4l0 3c0,0 0,1 0,1 0,0 0,0 0,2 0,1 0,1 0,1 -1,1 -1,0 -1,1 0,0 0,0 0,0l0 2c0,0 0,0 0,0 0,1 0,1 0,1l0 0c0,1 0,2 1,2 0,0 0,-1 1,-1 0,0 1,0 1,0l4 0c1,0 2,0 4,0l1 0c1,0 3,0 4,0l8 0c1,0 1,0 1,0 1,0 1,0 2,0 0,0 1,0 2,0 1,0 7,0 9,0 0,0 0,0 0,0 1,0 1,0 2,0 1,0 3,0 5,0 0,0 2,0 3,0 0,0 1,0 1,0 1,0 1,0 2,1 1,0 1,-1 3,0 0,0 1,0 1,0 1,0 1,0 2,0 0,0 1,0 2,0 0,0 0,0 1,0 -1,-1 -1,-1 -1,-1l-1 -1c0,0 0,0 0,0 0,0 0,0 0,0l-3 -3c0,0 0,0 0,0 -1,0 -1,0 -1,0l-2 -2c0,0 0,-1 -1,-1 0,0 0,0 0,0 0,0 0,0 -1,-1 0,0 0,0 0,0l-1 0c0,0 0,0 0,-1l-1 -1c0,0 0,0 -1,0 0,0 0,0 0,0 0,-1 0,-1 0,-1 -1,0 -1,0 -1,0 0,0 0,0 0,0 0,-1 0,-1 -1,-1 0,0 0,0 0,-1 -1,0 -1,0 -1,0 0,0 0,0 0,0 0,-1 0,-1 -1,-1 0,0 0,0 0,0l-1 -2c0,0 0,0 0,0 0,0 -1,0 -1,-1 0,0 0,0 0,0 -1,-1 -1,0 -1,-1 -1,0 -1,0 -1,0 -1,0 -1,0 -1,-1 -1,0 -1,0 -2,0 0,0 0,-1 -1,-1 -1,0 0,1 -1,0 0,0 0,0 0,0l0 0c-1,0 -1,-1 -2,-1l-1 -2c0,0 0,0 0,0 0,0 0,0 0,0 0,-1 -1,-1 -1,-1l-1 -1c0,-1 0,-1 0,-1 -1,0 -1,-1 -1,-1l0 0c0,-1 0,-1 -1,-1 0,0 0,0 0,0 0,-1 0,-1 -1,-1 0,0 0,-1 0,-1 0,0 0,0 0,0l-1 -2c-1,0 0,0 -1,-1l0 0c0,0 0,0 0,0l-1 -2c0,0 0,0 0,0 -1,-1 -1,-1 -1,-1 0,0 0,-1 -1,-1 0,-1 0,-1 0,-1 0,0 0,0 0,-1l-1 -1c0,0 0,0 0,-1 -1,0 -1,0 -1,-1 0,0 0,0 0,0 0,-1 0,-1 -1,-1 0,0 0,0 0,-1 0,0 0,0 0,0 0,0 0,0 0,0 0,-1 -1,-1 -1,-1 0,-1 0,-1 0,-1 0,0 0,0 0,0 -1,-1 -1,-1 -1,-1l-1 -2c0,0 0,0 0,0 -1,0 -1,0 -1,0 0,-1 0,-1 0,-1 -1,0 0,0 -1,-1 0,0 -1,0 -1,0 0,0 -1,0 -1,1l-2 0c0,1 0,1 0,1l-1 0c0,0 0,0 0,0 0,0 0,0 0,0 -1,0 -1,0 -1,0l0 1c0,0 -1,0 -1,0 0,0 -1,1 -1,1 -1,0 -1,0 -1,0 0,0 0,0 -1,0l0 1c0,0 0,0 0,0 -1,0 0,0 -1,0l-1 0c-1,1 -1,1 -1,1l-1 0c-1,0 -1,0 -1,1 -1,0 -1,0 -1,0l-1 1c0,0 0,0 0,1 0,0 0,0 0,1zm-36 -2c0,1 0,0 0,1l0 0c0,-1 0,0 0,-1zm6 -1l0 0c0,-1 0,-1 0,-1l0 2c0,0 0,0 0,-1zm0 -1c0,0 0,0 0,-1 0,0 0,0 0,1zm1 -1l0 0 0 0 0 0 0 0zm24 1c0,1 0,0 0,1 0,0 0,0 0,0 0,0 0,0 0,1 1,0 1,-1 2,-1 0,0 0,0 1,0l0 -1c0,0 1,0 1,0 1,0 0,0 1,0 0,0 0,0 0,0l-2 0c-1,0 -1,-1 -1,-1l-1 0c-1,0 -1,0 -1,0 0,1 0,0 0,1zm-24 -1l0 0c0,0 0,0 0,0zm-2 -1l1 1c0,-1 0,-1 -1,-1zm-4 0l0 0 0 0 0 0c0,0 0,0 0,0 0,0 0,0 0,0zm29 0c0,0 0,0 0,0 -1,0 0,0 0,0zm-1 0l0 0zm0 0l0 -1 0 1zm0 -1l0 0c0,0 0,0 0,0zm-24 0l0 0c0,0 0,0 0,0 0,0 0,0 0,0l0 0zm2 0c0,0 0,0 0,0 0,0 0,0 0,0zm-6 0c0,-1 0,0 0,0 0,0 0,0 0,0zm4 -1c0,1 0,1 0,1 0,0 0,-1 0,-1 0,0 0,0 0,0zm22 0l0 0zm0 0l0 0zm0 0c0,0 0,0 0,0 -1,0 0,0 0,0zm-22 0c0,-1 0,0 0,0 0,0 0,0 0,0zm1 5l0 0c1,-1 0,-4 0,-5 0,0 0,0 0,0 0,-1 0,-1 -1,-1 0,0 0,0 0,1 0,0 0,0 0,0 0,1 1,2 1,2 0,2 0,2 0,2l0 1zm62 -8l0 0c0,0 0,0 0,0zm-19 0c0,0 0,0 0,0 0,0 0,0 0,0zm-18 -6l0 0c0,0 0,0 0,0zm-22 -4l0 0c0,0 0,0 0,0zm61 -2c0,0 0,0 0,0 0,0 0,0 0,0zm-27 -1c0,0 0,0 0,0 0,0 1,0 0,0zm0 0l0 0c0,0 0,0 0,0zm-5 -3c-1,1 -1,1 -1,1l-1 1c0,1 0,1 0,1 0,0 0,0 0,0 -1,0 0,0 -1,0 0,1 0,0 0,1 0,0 0,0 0,0 -1,0 0,0 -1,0 0,0 0,1 0,1l-2 2c0,0 0,0 0,0 0,0 0,0 0,0l-2 2c0,0 -1,0 -1,0 0,1 0,1 0,1 -1,0 -1,0 -1,0l-2 2c0,0 0,0 0,0 0,0 0,0 0,0 0,0 0,0 0,0l-1 1c-1,1 -1,0 -1,1 0,0 0,0 0,0l-1 1c-1,0 -1,0 -1,1 0,1 0,0 0,1 0,0 0,0 0,0 0,0 0,0 0,1 0,0 0,0 -1,1 0,0 0,0 0,1 0,0 0,0 0,0 0,1 0,0 -1,1l0 0c0,0 0,0 0,1 0,1 0,0 0,2 0,0 0,0 0,0 0,1 1,2 1,2 0,1 0,1 0,2 0,0 0,0 0,0 0,1 1,1 1,1 0,1 0,1 0,2l0 2c0,0 1,0 1,0 0,1 0,1 0,2l0 2c0,0 0,0 0,1l1 1c0,0 0,0 0,1l0 1c1,0 1,1 1,1 0,0 0,0 0,1 0,0 0,0 0,0 0,0 0,0 0,1l0 1c0,0 0,0 0,0 1,0 1,0 1,0 0,1 0,1 0,1 0,1 0,1 0,1 0,0 0,0 0,1 0,0 0,0 0,0 0,0 0,0 0,1l1 1c0,0 0,1 0,1 0,1 0,1 0,1 0,1 0,1 0,2 0,0 0,0 0,1 1,0 1,0 1,1 0,1 0,2 0,2 0,1 0,1 0,1 0,0 0,0 1,0 0,0 0,0 1,0 1,0 1,-1 2,0 0,0 0,0 0,0l1 0c1,0 0,0 1,0 -1,0 -2,0 -2,0 0,1 0,1 1,1 1,0 1,0 2,0 0,0 0,0 0,0 0,0 0,0 0,0l1 0c0,0 0,0 0,0 0,1 0,1 0,1l1 0c1,0 1,0 1,1 1,0 1,0 1,-1 0,0 -1,0 -1,0l-2 -1c0,0 -1,0 -1,0 0,0 -1,0 -1,-1l0 0c0,0 1,0 2,0 0,0 0,0 0,1 0,0 0,0 0,0 1,0 1,0 2,0 0,0 0,0 1,0 0,0 0,0 0,0 0,-1 1,-2 1,-2 0,-1 0,-3 0,-4 0,0 0,0 -1,0 0,0 0,-1 0,-1l0 -1c0,0 0,-1 -1,-1 0,0 0,-1 0,-1l-2 -2c0,-1 0,-1 0,-1l-1 -1c0,0 0,0 0,0l0 -1c-1,-1 -1,-1 -1,-1l0 -1c-1,0 -1,0 -1,0l-1 -1c0,0 0,0 0,-1 0,0 0,0 0,0l-2 -3c0,0 0,0 0,0l0 -1c-1,0 -1,0 -1,0l-1 -1c0,-1 1,-1 1,0l2 0c0,0 0,0 0,1 0,0 0,0 0,0 0,0 0,0 0,0 0,0 0,0 0,0 1,0 1,0 1,0l1 0c0,0 0,0 0,0 0,1 0,1 0,1 0,0 0,0 1,0 0,-1 -1,-1 -1,-2 0,0 0,0 0,0l0 -1c-1,-1 -1,-2 -1,-3l0 0c0,-1 0,-2 -1,-2 0,-1 0,-1 0,-2 0,0 0,-1 0,-2 -1,0 -1,0 -1,-1 0,0 0,0 0,0 0,0 0,0 0,-1 0,-1 0,0 0,-2 0,-1 0,-1 -1,-1l-1 -1c0,0 0,0 0,0 -1,0 -1,0 -1,0 0,-1 0,-1 -1,-1 0,0 0,0 0,0 0,-1 0,0 1,0 0,0 0,0 0,0 0,0 0,0 0,0 1,0 1,0 1,1 0,0 1,0 1,0 0,1 1,1 1,1 1,0 1,0 2,0 0,0 0,0 1,0 1,0 2,-1 3,0 0,0 0,0 0,0 1,0 0,0 1,0 0,0 0,1 0,1 0,1 0,1 1,0l2 0c0,0 0,-1 1,-1l1 0c0,0 0,0 0,0 1,0 1,0 1,0l0 0c0,0 1,-1 1,-1 0,0 0,0 1,0 0,0 0,0 0,0 0,0 0,0 0,0l0 0c1,-1 1,-1 1,-1 0,0 0,0 0,0l1 0c0,0 1,-1 1,-1 1,0 1,0 1,-1 1,0 2,0 2,0 0,0 0,-1 -1,-1 0,0 -1,0 -2,0l-3 0c-1,0 -3,0 -4,-1 -1,0 -1,0 -2,0 0,0 0,0 -1,0 0,0 0,0 -1,0 -1,-1 -2,-1 -2,-1l-1 0c0,0 0,0 0,0l0 -1c-1,0 -2,-2 -2,-2 -1,0 -1,0 -1,0 0,0 -1,0 -1,-1 0,0 1,0 1,0 1,0 3,0 4,0 0,0 0,0 0,0 0,0 0,0 0,0 0,0 1,0 1,0 0,1 0,1 1,1 0,0 0,0 0,0 0,0 0,0 0,0 0,0 0,0 0,0 0,1 0,0 0,1l1 0c0,0 0,1 0,1 1,0 1,0 1,0l1 1c1,0 2,0 2,1 0,0 0,0 0,0l3 0c1,0 1,0 2,0 0,0 0,0 0,0 1,0 1,0 2,0 1,1 2,0 2,1 1,0 1,0 1,0l2 0c0,0 0,1 1,1 0,0 0,0 1,0l2 2c0,0 0,0 0,0l1 0c0,0 0,0 0,0l1 1c0,0 1,0 1,0l0 0c0,0 0,1 0,1 0,0 1,0 1,0 0,0 0,0 1,1 0,0 0,0 0,0 0,0 0,0 0,0l1 0c0,0 0,0 0,0 1,1 1,1 2,2l0 0c0,0 1,1 1,1 -2,0 -1,0 -2,0 0,-1 0,-1 0,-1 0,0 0,0 0,0 -1,0 -1,0 -1,0l0 -1c-1,0 -1,0 -1,0l-3 -2c0,0 0,0 -1,0 0,0 0,-1 -1,-1 0,0 0,0 0,0 0,0 -1,0 -1,0l-1 -1c0,0 0,0 0,0l-1 0c0,-1 0,-1 0,-1l0 1c0,0 0,0 1,0 0,1 1,1 1,2 0,1 0,0 0,1 1,0 1,0 1,0l0 1c0,0 0,0 0,0 1,0 1,1 1,1 0,0 0,0 0,0 0,1 0,1 0,1l1 0c0,0 0,0 0,0 0,1 0,1 1,2l0 0c0,1 0,1 1,2l0 0c0,1 0,1 0,1 1,0 1,1 1,1l0 0c0,0 0,1 1,1l0 1c0,0 1,1 1,1 0,0 0,0 0,0l1 2c0,0 0,0 0,0 0,1 1,1 1,1 0,1 0,0 0,1 0,0 0,0 0,0l1 0c0,0 0,0 0,0 0,1 0,1 0,1 0,0 0,0 0,0l0 1c0,0 1,0 1,0l0 1c0,0 0,0 1,0 0,1 0,1 0,1 0,1 0,1 1,1 0,0 0,1 0,1 1,0 0,0 1,0 0,0 0,0 0,1 0,0 0,0 0,0 0,0 1,0 1,0l0 1c0,0 0,0 0,0l1 0c0,0 0,0 0,0 0,0 0,0 0,0l0 1c0,0 0,0 0,0l1 0c0,0 0,0 0,0 0,1 1,1 1,1 0,0 0,0 0,0 0,0 0,0 0,0 0,0 0,0 0,0l1 0c1,0 0,0 1,1 0,0 1,0 1,0 1,1 1,1 2,1 0,0 0,0 0,0l1 1c0,0 0,0 1,0 0,1 0,1 0,1 0,0 0,0 0,0 1,0 1,1 1,1 0,0 0,0 1,0 0,1 0,1 0,1 0,0 0,0 0,0l2 2c0,0 0,0 0,0l0 0c0,0 0,0 0,0 1,0 1,1 1,1l1 1c1,1 1,0 1,1 0,0 0,0 1,0 0,0 0,0 0,1 0,0 0,0 0,0 1,0 0,0 1,0l0 1c0,0 0,0 0,0l2 1c0,1 0,0 1,1 0,0 0,0 0,0 0,0 0,0 0,0 1,1 1,1 1,1l1 1c0,0 1,0 1,0 0,-1 0,-1 1,-1l1 -1c0,0 0,0 1,0 0,0 0,0 0,0l3 -1c1,0 0,0 1,0 0,-1 1,-1 1,-1 0,0 0,0 -1,-1 0,0 0,0 -1,-1 0,0 0,0 0,0 0,0 0,0 0,0l-1 -1c0,0 0,0 0,-1 0,0 0,0 -1,0l0 0c0,-1 0,-1 -1,-1 0,0 0,0 0,0 0,-1 0,-1 0,-1l-1 0c0,-1 -1,-1 -1,-2 0,0 0,0 -1,0 0,0 0,-1 0,-1l0 0c0,0 0,0 -1,-1 0,0 0,0 0,0 0,0 0,0 -1,-1l0 0c0,-1 0,-1 0,-1l0 0c0,0 -1,0 -1,0 0,0 0,0 0,-1l0 0c-1,0 -1,0 -1,0 0,-1 0,-1 0,-1 -1,0 -1,0 -1,-1l0 0c0,0 0,-1 -1,-1 0,0 0,0 0,-1l0 0c-1,0 -1,-1 -1,-1 0,0 0,0 0,0 0,-1 0,-1 0,-2 -1,0 -1,0 -1,0 -1,-1 0,0 -1,-1 0,0 0,0 -1,0 0,0 -1,-1 -1,-1 -1,0 0,0 -1,0 -1,0 -1,0 -2,-1 0,0 0,0 0,0 0,0 0,0 0,0 -1,-1 0,0 -1,0l0 -1c0,0 0,0 -1,0 0,0 0,0 -1,-1l-2 -2c0,0 0,0 0,-1l0 -1c0,0 -1,-4 -1,-5 0,0 0,0 0,-1 0,0 0,-1 0,-1 0,-1 0,-1 -1,-1 0,-1 0,-1 0,-1 0,-1 0,-1 -1,-1 0,0 0,0 0,0l-2 -2c0,0 0,0 0,0l0 0c0,0 0,0 0,0l-1 0c0,0 0,0 0,0 0,0 -1,-1 -1,-1 -1,0 -1,0 -1,0l-1 -1c0,0 0,0 0,0 0,0 0,0 0,0 -1,0 -1,0 -1,-1l-1 -1c0,0 0,0 0,0 0,0 0,0 0,0 1,0 1,0 1,0 0,1 1,1 1,1 0,0 0,0 0,0 1,0 1,0 1,1l1 0c0,0 0,0 0,0l1 1c1,0 0,0 1,0 0,0 0,0 1,1l1 1c0,-1 0,-1 -1,-1 0,-1 0,0 0,-1 -1,-2 -1,-1 -1,-3 0,-1 0,-1 0,-2 0,-1 0,-1 0,-2 -1,0 -1,0 -1,0 0,0 0,-1 0,-1l0 0c-1,0 0,0 -1,0l0 -1c0,0 0,0 -1,0 0,-1 0,-1 0,-1 0,0 0,0 0,0l-2 -1c0,-1 0,-1 -1,-1 0,0 0,0 0,-1 0,0 0,0 -1,0l-1 -1c-1,0 -1,-1 -3,0 0,0 0,0 -1,0 0,0 0,0 -1,0l0 0c-1,0 -1,0 -1,0 -1,0 -1,0 -1,0 0,1 0,1 0,2l0 0c0,0 0,0 0,1l1 1c0,0 0,0 0,0 0,1 0,1 1,2l0 1c0,0 0,0 0,1 0,0 1,1 1,1 0,0 0,0 0,0l0 1c1,1 1,1 0,1 0,1 -1,1 -2,1 0,0 0,-1 0,-1 -1,0 -1,0 -1,0 -1,0 -1,0 -2,0 0,0 0,0 -1,0 0,-1 0,-1 0,-1 -1,0 0,0 -1,0 0,0 -1,0 -1,0 0,0 0,0 -1,0l0 -1c-1,0 -1,0 -2,0 -1,0 -1,0 -2,0 -1,0 -1,-1 -1,-1 -1,0 -1,0 -1,0l0 0c0,0 -1,-1 -1,-1 0,0 0,0 -1,0 0,0 0,-1 -1,-1 0,0 0,0 0,0 -1,-1 -1,0 -1,-1 0,0 0,0 -1,0 0,0 0,0 -1,0 0,-1 0,0 0,-1 0,0 -1,0 -1,0 0,-1 0,0 -1,-1 0,0 0,0 -1,-1 0,0 0,0 0,0 0,0 0,-1 0,-2 0,-1 0,-2 0,-3 0,-1 0,-1 0,-2zm5 0l0 0c0,0 0,0 0,0zm-1 0c0,0 0,0 0,0 0,0 0,0 0,0l0 0zm-1 0l0 0 0 0c0,-1 0,0 0,0zm27 -5l0 3c0,1 0,1 0,2 1,-1 1,-1 1,-2 0,0 1,-1 1,-2 0,-2 0,-1 -1,-3 0,0 0,0 0,-1 0,0 0,0 0,0 0,-1 0,-2 0,-2 -1,0 -1,2 -1,3 0,1 0,1 0,2 0,0 0,0 0,0 0,1 0,0 0,0zm-53 -3c0,0 0,0 0,0l0 0zm1 0l-1 0c0,0 1,0 1,0zm0 0l0 0c0,0 0,0 0,0zm0 0c0,0 0,0 0,0l0 0zm1 -1l0 0c0,0 0,0 0,0zm0 0l0 0c0,0 0,0 0,0zm1 -1c0,0 0,0 0,0l0 0zm18 2c1,0 0,0 0,-1l1 -2c0,-1 0,-1 0,-1 0,0 0,0 -1,0 0,1 0,1 0,1 0,1 0,0 0,2 0,0 0,1 0,1zm18 -6l0 0 0 1 0 0 0 -1zm0 -1l0 0 0 1 0 0 0 -1zm-19 9c1,0 0,-2 0,-2l0 -1c-1,0 -1,0 -1,0 0,0 0,0 0,0 0,0 -1,0 -1,0 0,0 0,0 0,0l0 -1c0,0 0,0 0,0l0 0c-1,0 -1,0 -1,0l0 0c0,0 0,0 0,0 0,0 0,0 0,0l-1 -1c0,0 0,0 0,0 -1,0 -1,0 -1,-1 0,0 0,0 0,0 0,0 0,0 0,0l0 0c-1,0 -1,0 -1,0 0,0 0,0 0,-1 0,0 0,0 0,0 0,0 0,0 0,0 0,0 0,0 0,0l-3 -2c0,0 0,0 0,0 0,0 0,0 -1,0 0,0 0,0 0,0 0,0 1,0 1,1 0,0 0,0 0,1 0,0 0,0 0,0 0,1 0,1 1,1 0,0 0,0 1,1 0,0 0,0 0,0 1,0 0,0 1,1l0 0c0,0 0,0 0,0l1 0c0,0 0,0 0,0 0,1 0,0 0,1 1,0 1,0 1,0 0,1 0,0 1,1 0,0 0,0 0,0 0,0 0,0 1,0 0,0 0,0 0,1l1 0c0,0 0,0 0,0 0,0 0,0 1,0 0,1 0,1 0,1zm-9 -9c0,0 0,0 0,0l0 0zm13 0c0,0 0,0 0,0 0,0 0,0 0,0 0,0 0,0 0,0 0,0 0,0 0,0zm15 0c0,0 0,0 0,0 0,0 0,0 0,0zm-42 10c0,0 0,0 0,0 0,0 0,0 0,0 1,-1 0,-1 1,-1l0 0c0,0 0,0 0,0 0,0 0,0 0,0 0,0 0,0 1,0l2 -2c0,0 0,0 0,0 0,0 0,-1 0,-1l5 -4c0,0 0,0 0,0 0,0 0,0 0,0l1 -3 1 -2c0,0 0,0 0,-1 1,0 1,0 1,0 -1,-1 -1,-1 -1,-1 0,-1 0,-1 -1,-1l0 -1c0,0 0,0 0,-1l0 0c-1,0 -1,0 -1,-1l0 0c0,0 0,0 0,0l0 0c0,0 0,0 0,0l0 -1c0,0 0,0 0,0l-1 0c0,0 0,1 0,1 0,0 0,0 0,1 0,0 0,1 0,1l-1 2c0,0 0,0 0,0 -1,0 -1,1 -1,1 0,0 0,0 0,0l-1 1c0,0 0,0 0,0l0 1c-1,0 -1,0 -1,1 0,0 0,0 0,0l-1 1c-1,0 0,0 -1,0 0,0 0,0 0,1 0,0 0,0 -1,0l0 0c0,0 0,0 0,0l-1 1c0,0 -1,0 -1,1l0 0c0,0 0,0 0,0l-2 1c0,0 0,1 0,1l-1 1c0,0 0,0 -1,0 0,0 0,1 0,1l-1 2c0,0 0,0 0,0l-1 0c0,1 0,1 0,1 0,0 0,0 0,1l-1 0c0,1 -1,2 -1,2 0,0 -1,0 -1,1 0,0 0,0 -1,0 0,0 0,0 0,0 0,1 0,1 0,1l0 0c0,1 -1,1 -1,1 0,1 0,0 0,1 0,0 0,1 0,1 0,1 0,1 0,2 0,0 0,1 -1,1l0 2c0,1 0,1 0,1 -1,1 0,1 0,1 0,1 0,1 0,1 -1,0 -1,0 -1,1 1,-1 1,-1 1,-1 0,1 0,1 0,1 0,1 -1,1 0,2 0,0 -1,4 0,4 1,0 1,0 1,0 0,0 0,0 0,0 1,0 1,-1 1,-1 1,0 1,1 1,1 0,1 0,1 0,1 -1,0 -1,0 -1,1l0 1c0,0 0,0 0,1 0,0 0,1 0,2 0,0 0,1 -1,1 0,0 0,1 0,1 1,0 0,0 0,0l1 0c0,0 0,0 0,0 0,1 1,1 1,2l0 0c1,0 0,0 1,0l1 0c1,1 2,1 2,1 0,-1 0,-2 0,-2 0,-1 0,-2 0,-3l-1 -2c0,-1 0,-1 0,-1 0,-1 0,0 0,-1 0,0 0,0 0,-1 -1,0 0,-1 -1,-1 0,0 0,0 0,0 -1,0 -1,0 -1,0l0 -1c-1,0 -1,0 -1,0 1,0 2,0 3,0l1 0c0,1 0,1 0,1 0,0 0,0 1,0 0,-1 -1,-1 0,-2 0,-1 0,-1 0,-1 0,-1 0,-3 0,-3l0 -1c0,-1 0,-1 0,-2 0,0 0,0 0,-1 1,0 1,-1 1,-2 0,0 0,0 0,-1 0,0 1,-1 1,-1 0,0 0,0 0,0l0 -1c0,0 0,0 1,0l1 -2c0,0 0,0 0,0 0,-1 0,-1 0,-1 0,0 0,0 0,0 1,0 1,0 1,-1 0,0 0,0 1,0l0 -1c1,0 0,0 1,-1 0,0 0,0 0,0 1,0 1,0 1,-1 0,0 1,0 1,0l1 -1c0,0 0,0 0,0 0,0 0,0 0,0l2 -2c1,0 1,0 1,0 0,0 0,0 0,0 0,-1 0,-1 1,-1 0,0 0,0 0,0 0,-1 0,-1 0,-1 1,0 1,0 1,0 0,0 0,0 0,0 0,-1 0,0 0,-1l2 -2c0,0 0,0 0,-1 0,0 0,0 0,0 0,0 0,0 0,-1 0,0 1,0 0,-1 0,0 0,-1 0,-1 0,-1 0,-1 0,-1l0 -1c0,0 0,0 0,0 -1,0 -1,1 -1,1l0 1c0,0 -1,1 -1,1l0 1c0,0 0,0 0,0l-2 2c0,0 0,0 0,1l-1 0c0,0 0,0 0,0 0,1 0,1 0,1l-1 0c0,0 0,0 0,0l-2 2c0,0 0,0 0,0l-1 1c0,0 0,0 0,0 0,0 0,0 0,0 0,0 0,0 0,0l-2 2c-1,0 -1,0 -1,0zm48 -14c-1,0 -1,0 -1,0 0,0 1,0 1,0zm0 -1l-1 0 0 0 1 0 0 0zm-4 11c0,-1 0,-1 -1,-1l0 -1c0,-1 0,0 0,-1 -1,-1 -1,-1 -1,-2 0,0 0,0 0,0l0 -1c-1,0 -1,0 -1,-1 0,-1 0,-1 0,-1 0,-1 -1,-1 -1,-2l0 -1c0,0 0,0 0,-1 0,0 0,0 0,0 -1,0 -1,0 -2,0 0,0 0,0 0,0 -1,0 0,0 -1,0 0,1 0,0 1,1 0,0 -1,0 0,0l0 1c1,0 0,0 1,0 0,1 0,1 0,2l0 0c1,0 1,1 1,1 0,0 0,0 0,0l1 1c0,0 0,0 0,1 0,0 0,0 0,1 1,0 1,1 1,1 0,1 0,0 1,1 0,1 0,1 0,1 0,0 0,1 1,1zm-4 -12c0,0 0,0 0,0 0,0 0,0 0,0zm13 0l0 0c0,0 0,0 0,0 0,0 0,0 0,0zm-10 19c0,1 0,1 0,1 0,1 0,1 0,1 1,1 1,2 1,3 0,1 0,1 0,1 1,0 2,0 3,0 0,0 0,0 1,0 0,0 1,-1 2,-1 0,0 0,0 1,0 0,0 0,0 0,0l0 -1c0,0 0,0 0,0l0 0c0,-1 0,-1 -1,-1 0,-1 0,-1 0,-2 0,0 0,0 -1,0 0,0 0,-1 0,-1l0 0c0,-1 0,-1 -1,-1l0 -1c-1,0 -1,-1 -1,-1 0,0 0,0 0,0l-4 -4c0,0 0,0 0,0 0,0 0,0 0,0 -1,-1 -1,-1 -1,-1 0,0 0,0 0,0l0 -1c0,0 0,0 0,0 -1,0 -1,-1 -1,-1 0,-1 0,-1 -1,-1 0,0 0,0 0,-1 0,0 0,0 0,0l0 0c0,-1 0,0 0,-1 0,0 -1,0 -1,-1l-1 -1c0,-1 0,-1 0,-1l-1 -1c0,0 0,0 0,0 0,-1 0,-1 0,-1 0,0 0,0 0,0 -2,-2 -2,-1 -3,-1l-1 -1c-1,0 -1,1 -3,1 -1,0 -1,-1 -2,-1 0,0 0,0 0,0l1 1c0,0 1,0 1,1 0,0 0,0 0,0 1,0 1,0 1,0 0,0 0,0 1,1 0,0 0,0 0,0 0,0 0,0 1,1 0,0 0,0 0,0l3 4c0,0 1,0 1,0 0,0 0,0 0,0 0,0 0,0 0,0 0,1 0,1 1,1 0,0 0,0 0,0l1 2c0,0 0,0 0,0 0,0 0,0 0,0l1 1c0,0 0,0 0,1 0,0 0,0 1,1 0,0 0,0 0,0l0 1c0,0 0,0 0,0 0,1 0,0 0,1 1,0 1,0 1,0 0,0 0,0 0,1 0,1 0,1 1,3zm-7 -20l0 0 0 0 0 0 0 0zm19 0c0,0 -1,0 0,0 0,0 0,1 0,0zm-40 0l-1 0c0,0 0,0 0,0l1 0zm0 -1l0 0 0 1c0,0 0,0 0,-1zm15 1c0,-1 -1,-1 -1,-1 0,-1 0,-1 0,-1 0,0 0,0 0,0 0,0 0,0 0,0l-1 0c0,1 0,1 0,1 -1,0 -1,0 -1,1 3,0 1,0 3,0zm30 -1c0,0 0,0 0,0l0 0zm-44 0l0 0 0 0c0,0 0,0 0,0zm43 0c0,0 0,0 0,0 0,0 0,0 0,0zm-42 0l0 0c0,0 0,0 0,0zm-2 1c-1,0 -3,0 -3,0 0,0 0,1 0,1 0,0 0,0 0,0l0 1c0,0 0,0 0,0 1,0 1,1 1,2 0,0 0,0 0,0 0,1 0,1 0,1 0,0 0,2 1,2 0,0 0,0 0,0 1,0 1,1 2,1 0,0 0,0 0,0l0 1c1,0 1,0 1,0 0,0 0,0 0,0 0,0 0,0 0,0 0,0 0,1 0,1 0,0 0,0 0,0l1 0c0,0 0,0 1,0 0,1 0,1 0,1 0,0 1,0 1,1l1 0c0,0 1,0 1,1 1,0 1,0 1,0 0,0 0,0 0,0 0,-1 0,-1 0,-1 0,-1 1,-1 1,-2 0,0 0,0 0,0 0,-1 0,-1 0,-1 0,0 0,0 1,-1 0,0 0,0 0,0 0,0 0,0 0,-1l1 0 1 0c1,0 0,0 1,1l0 1c0,0 0,1 0,1 0,0 0,1 0,2 0,1 0,2 0,2 0,1 1,1 1,1l0 4c0,1 -1,1 -1,1 0,0 0,1 0,1 1,0 1,0 2,1 0,0 0,0 0,0l1 0c0,0 1,0 1,1 0,0 0,0 1,0 0,0 0,0 0,0 0,0 -1,0 -1,0 0,0 0,0 -1,0 0,0 0,0 0,-1l-2 0c0,0 0,-1 -1,-1 0,1 -1,2 0,2 1,1 0,0 1,1 0,0 0,0 0,0 1,0 1,0 1,0l1 1c0,0 0,0 0,0l1 0c0,0 0,0 1,0 0,1 -1,0 0,1 0,0 0,0 0,0 1,0 1,0 1,0 0,0 0,0 0,0 1,0 1,0 1,0 0,0 1,0 1,1 0,0 -1,0 -1,0l-1 0c0,0 0,0 0,-1l-1 0c0,0 0,0 0,0 -1,-1 -1,0 -1,0 0,-1 0,-1 -1,-1 0,0 0,0 0,0l-1 0c0,0 0,0 -1,-1 0,0 0,0 0,0 0,0 0,0 0,0l-1 0c0,0 -1,0 -1,0 0,1 0,2 1,3 0,0 0,0 0,1l0 0c0,0 0,0 0,0 1,1 0,0 1,1l0 1c1,0 1,0 1,0 0,1 0,1 0,1l1 0c0,1 0,1 1,1 0,0 0,0 1,0 0,1 0,0 0,1 0,0 1,0 1,0l1 0c0,1 0,1 0,1 1,0 1,0 1,0l0 0c1,0 1,0 1,0 1,0 1,0 2,0 0,1 1,1 2,1 1,0 1,0 1,0 1,0 1,0 2,1l1 0c0,0 0,0 0,0 0,-1 -1,-2 -1,-2 0,0 0,-1 -1,-1 0,0 0,-1 0,-1l-1 -1c0,0 0,-1 0,-1 0,0 0,0 0,0 0,0 0,0 0,-1 0,0 0,0 0,0l-1 -1c0,0 0,0 0,0 0,-1 0,-1 0,-2 0,0 -1,-1 -1,-1 0,-1 0,-1 0,-2l-1 -2c0,0 0,0 0,0l0 -1c0,0 0,0 0,-1 0,0 0,0 0,0 0,0 0,0 0,-1 -1,0 -1,0 -1,-1 0,0 0,0 0,0 0,0 0,0 0,0 0,0 0,-1 0,-1 0,0 0,0 0,-1 0,-1 -1,-1 -1,-2 0,-1 -1,-1 -1,-1 0,-1 0,-1 0,-2 0,0 0,0 -1,0 0,0 0,0 0,-1l0 0c-1,-1 -1,-1 -1,-1 0,0 0,0 0,-1 -1,0 -1,0 -1,0 0,0 0,0 -1,-1l-2 -1c0,0 0,0 0,-1 0,0 0,0 -1,0 0,0 0,0 -1,-1 0,0 0,0 0,0 0,0 0,0 -1,0 0,0 0,-1 0,-1 -1,0 -1,0 -1,0 0,0 0,0 -1,0 0,0 -1,0 -1,-1l0 0c0,0 0,0 0,0 -1,0 0,0 -1,0 -1,0 -1,0 -1,0 0,0 0,0 0,0l0 0c-1,0 0,0 -1,0 0,-1 0,-1 0,-1 0,0 0,0 -1,0 0,0 0,0 0,0 0,0 0,0 0,0 -1,0 -1,0 -1,0l-1 1c-1,1 -1,1 -1,1 1,0 1,0 1,0 1,0 1,0 2,-1 0,0 1,0 1,0l1 0c0,1 0,0 0,1 0,0 2,0 2,0 0,1 -1,1 -2,1 0,1 -1,1 -1,1l0 0c0,0 -1,0 -1,0l-1 0c0,1 0,1 0,1 -1,0 0,0 -1,0l0 0c0,0 0,0 0,0 -1,0 -1,0 -1,0 -1,0 0,0 -1,0 0,0 0,0 0,0 0,0 -1,0 -1,0 0,0 0,0 0,0 -1,-1 -1,-1 -1,-1 0,0 0,0 -1,0l0 0c1,0 1,0 1,-1l0 0c1,0 1,0 2,0 0,0 0,0 0,-1 0,0 0,0 -1,0 0,0 0,0 -1,0 0,-1 0,0 0,-1 0,0 0,0 0,0 1,0 1,0 2,-1 0,0 0,0 0,0 2,0 1,0 2,0 0,0 0,0 0,-1 0,0 0,0 1,0 0,0 0,-1 0,-1 -1,1 -1,1 -1,1 -1,0 -1,1 -2,1 0,0 0,0 0,0 -1,0 -1,0 -1,0zm3 -2l0 0c0,0 0,0 0,0zm28 0l-1 0 0 0 1 0 0 0zm0 0c0,0 0,0 0,0 0,0 0,0 0,0zm18 0c0,0 0,0 0,0 0,0 0,0 0,0zm-43 0c0,0 0,0 0,0 0,0 0,0 0,0 0,0 0,0 0,0 0,1 0,1 1,1 0,0 0,-1 -1,-1 0,0 0,0 0,0zm4 -1c0,0 0,0 -1,0 0,0 -1,0 -1,0 -1,0 -1,0 -1,0 0,0 -1,0 0,1l0 1c0,0 1,1 1,1 0,-1 1,-1 1,-1 0,0 0,-1 0,-1 0,0 0,0 0,0 1,0 1,0 1,0 0,-1 0,0 0,-1zm-5 1c0,-1 0,0 0,0 0,0 1,0 0,0zm6 0c0,-1 0,0 0,0 0,0 0,0 0,0zm-1 -1c0,0 0,0 1,0 -1,0 -1,0 -1,0l0 0zm2 0l0 0 0 0 0 0 0 0zm-7 -1l0 0 0 1c0,-1 0,0 0,-1zm0 0c0,0 0,0 0,0 0,0 0,0 0,0zm-6 0c0,-1 0,0 0,0 0,0 0,0 0,0zm49 0l0 -1c0,0 0,0 0,0 0,1 0,1 0,1zm-50 -1c0,0 0,0 0,0 0,0 1,0 0,0zm8 0c0,-1 0,-1 0,-1 0,0 0,0 0,0 0,1 0,1 0,1zm-10 -1c0,0 0,0 0,0 0,0 0,0 0,0zm16 0c0,0 0,-1 0,0 0,0 0,0 0,0l0 0zm-16 0l0 0zm16 -1c0,0 0,0 0,0 0,0 0,1 0,0zm5 -1l0 0 0 1 0 0 0 -1zm-21 1c0,0 0,0 0,0 0,1 0,0 0,0zm47 0l0 0c0,0 0,0 0,0zm-36 -1c0,0 0,0 0,0l0 0 0 0zm-1 -1l0 3c0,0 1,0 0,-1 0,0 0,0 0,-2zm7 1l-1 0 0 0c1,0 1,0 1,0zm4 0l0 0 0 0 0 0 0 0zm31 0c0,0 -2,0 -2,0 -1,1 -1,1 -2,1 -1,0 0,0 -1,0 -1,1 -1,1 -1,1 -1,0 0,0 -2,1 0,0 0,0 0,0 0,0 -1,0 -1,0 -1,1 -1,1 -2,1 -1,1 0,0 -1,1l0 0c-1,0 -1,0 -2,0 0,0 0,1 0,1 -2,0 -1,0 -2,0 -1,0 -1,0 -2,0 -1,1 -1,1 -2,1 0,0 -1,0 -1,0 -1,0 -1,0 -1,0 0,0 -1,0 -1,0 -1,0 -3,0 -4,0 -1,0 -2,0 -3,0 -1,0 -1,0 -2,0 1,1 1,1 2,1l2 0c1,0 2,0 3,0 1,1 2,1 3,1 1,0 1,0 1,0l2 1c0,0 1,0 1,0 0,0 0,0 1,0 1,0 1,0 2,0 1,0 0,0 1,0 0,0 0,0 1,0 0,0 0,0 0,-1 1,0 1,0 1,0 1,0 1,0 1,0 1,0 1,0 2,0l1 -1c0,0 1,0 1,0l0 0c1,0 1,0 2,-1 0,0 0,0 0,0 1,0 1,0 1,0l2 -1c0,0 0,0 0,0 0,0 1,0 1,0 1,-1 0,-1 1,-2 0,-1 0,-1 0,-2 0,-1 0,-1 0,-2l0 0c0,0 0,0 0,0zm-54 0c0,0 0,0 0,0 0,0 0,0 0,0zm15 0l0 0c0,0 0,0 0,0zm38 0c0,0 0,0 0,0l0 0 0 0zm-53 -1c0,0 0,0 0,0 0,0 0,0 0,0l0 0zm15 0l0 0c0,0 0,0 0,0zm4 0c0,0 0,0 0,0 0,0 0,0 0,0zm-19 0c0,-1 0,0 0,0 0,0 0,0 0,0zm20 -1l0 0 0 0 0 0 0 0zm-20 -1c0,0 0,0 0,1 0,0 0,0 0,0 0,0 0,0 0,-1zm13 0l-1 0 0 0 1 0 0 0zm8 0c-1,0 -1,0 -1,0 1,0 1,0 1,0zm-10 -1c0,0 0,0 -1,0l0 1c1,0 1,0 1,0 0,-1 0,-1 0,-1zm0 0c0,0 0,0 0,0 0,0 0,0 0,0zm1 0l0 0 0 0 0 0 0 0zm-2 0c0,0 0,0 0,0 0,0 0,0 0,0zm11 0c0,0 0,0 0,0l0 0c0,0 0,0 0,0zm-7 0c0,0 0,0 0,0 -1,0 0,0 -1,0 1,0 1,0 1,0zm-1 0l0 0c0,0 0,0 0,0zm-13 -1l0 0c0,0 0,0 0,0zm14 0c0,0 0,0 0,0 1,0 0,0 0,0zm-11 0l0 0 0 0c0,0 0,0 0,0zm18 0l0 0c0,0 0,0 0,0zm0 0l0 0c0,0 0,0 0,0zm46 0l0 0c0,0 0,0 0,0 0,0 0,0 0,0zm-64 0c0,0 0,0 0,0 0,0 0,0 0,0zm18 0c0,0 0,0 0,0 0,0 0,0 0,0zm-10 -1c0,0 0,0 0,0 0,0 0,0 0,0zm-9 0l0 0c0,0 0,0 0,0zm0 0l0 0 0 0c0,0 0,0 0,0zm8 0c0,0 -1,0 -1,0 0,0 1,0 1,0zm-12 0l0 0c0,0 0,0 0,0 0,0 0,0 0,0zm17 -1c-1,0 -1,0 -1,1l1 -1zm-4 -1l-1 0 0 1 1 0 0 -1zm7 1l0 0zm0 0l0 0zm-9 0c0,0 0,0 0,0l0 0zm-11 -2l0 0 0 2 0 0 0 -2zm16 2l0 -1c0,0 0,0 0,1 0,0 0,0 0,0zm4 -1c0,0 -1,0 0,0 0,0 0,0 0,0zm-9 0l0 0 0 0 0 0zm2 0c0,0 0,0 0,0l0 0 0 0zm3 0c0,-1 0,0 0,0 0,0 0,0 0,0zm-2 0c0,0 0,-1 0,0 0,0 0,0 0,0zm3 2c0,0 0,0 0,1 0,0 0,0 0,0 -1,1 -1,1 -1,1 0,0 0,0 -1,0 0,1 0,1 0,1 1,1 1,0 1,1 0,0 0,0 0,0l3 3 0 1 -1 -1c0,0 -1,-2 -2,-2l0 0c0,0 0,0 0,0l0 -1c0,0 0,0 0,0 -1,0 0,0 0,0l-1 0c0,1 0,2 0,3 0,0 0,0 0,1 -1,1 -1,1 -1,2 0,0 0,0 0,0 -1,1 -1,1 -1,1 0,0 0,0 0,0 2,0 1,0 2,-1 0,0 2,0 2,0l3 1c0,0 0,0 0,0 -1,-2 -1,-1 -1,-2 0,-1 1,-2 1,-2 0,-1 0,-1 0,-1 1,-1 1,-1 1,-1 0,0 0,0 0,-1 0,0 0,0 0,0 1,0 1,0 1,-1 0,0 0,0 0,0l0 0c0,-1 0,-1 0,-1 1,0 1,-1 1,-1l0 -1c0,0 0,0 0,0l-1 0c0,0 0,0 0,0l-1 -1c-1,0 0,0 -1,0 0,0 0,0 0,0 -1,-1 -1,-1 -1,-1 -1,0 -1,0 -1,0l-1 0c-1,-1 0,-1 -1,-1 0,1 0,1 0,1 1,0 1,0 1,1 0,0 0,0 0,0 0,0 0,0 0,1zm2 -2c0,0 0,0 0,0l0 0c0,0 0,0 0,0zm-4 -1l-1 0c0,0 1,0 1,0zm2 0l0 0 0 0c0,0 0,0 0,0zm2 0l0 0zm-6 0c0,1 0,0 1,0 0,0 0,0 0,0 -1,0 -1,0 -1,0zm11 0c-1,0 -1,0 -1,0 -1,0 -1,0 -1,1l-1 0c-1,0 0,0 -1,0 0,0 0,0 1,1 0,0 0,0 0,0l0 0c0,0 0,0 0,0 1,0 0,0 1,0 0,1 0,1 0,1 1,0 0,0 1,0 0,0 0,-1 0,-1 0,-1 -1,-1 -1,-1 1,0 1,0 2,1 0,0 0,1 0,2 0,0 0,1 -1,1 0,0 1,0 0,0l0 0c0,0 0,0 0,1 0,0 0,0 0,0 0,0 0,0 0,0 0,0 0,0 -1,1 0,1 0,0 0,1l0 0c0,1 -1,1 -1,1 0,0 0,1 0,1 -1,1 -1,2 -1,3 0,0 0,1 0,1 1,0 1,0 1,-1 0,0 0,0 0,0 0,0 0,0 0,0 0,0 0,-1 0,-1l1 0c0,0 0,-1 0,-1 0,0 0,0 0,0 1,0 1,0 1,0 0,0 1,-1 1,0 0,0 0,0 -1,0 0,0 0,0 0,0l-1 1c0,0 0,0 0,0l1 0c0,1 0,1 0,1 0,0 0,0 0,0 0,1 0,1 0,1l0 0c1,1 1,1 1,1 0,1 0,0 0,0 0,0 0,1 0,1 0,0 1,-1 2,-1 0,0 1,0 1,0 0,0 0,-1 -1,-2 0,0 0,0 0,0 0,0 0,0 0,-1l0 -2c0,0 0,0 -1,0 0,-1 0,0 0,0 0,1 0,1 0,1 0,0 0,0 0,-1 0,0 0,-1 0,-2 0,0 0,0 0,-1 0,0 0,0 0,0 0,-1 0,-1 0,-2 0,-1 0,-2 0,-3 0,0 0,0 -1,-1l0 0c0,0 0,0 0,0 0,-1 -1,0 0,-1zm-13 0l0 0c0,0 0,0 0,0 0,0 0,0 0,0zm2 0c-1,0 0,0 0,0 0,0 0,0 0,0 0,0 0,0 0,0zm-5 -1l0 0c0,0 0,0 0,0zm3 0c-1,0 -1,0 -1,0 0,0 0,0 1,0l0 0zm-11 -1l0 0 0 1 0 0 0 -1zm7 0l0 0c0,0 0,0 0,0zm-6 6c0,0 0,0 0,0l1 0c0,0 1,-1 1,-1 1,0 1,0 1,0 0,0 0,0 1,0 0,0 0,0 0,1 1,1 0,0 -1,0 0,0 -1,0 -1,1l-1 0c0,0 -1,0 0,0 0,0 0,0 0,1 0,0 0,-1 0,0l1 1c0,0 0,1 0,2 0,0 0,0 -1,0l0 1c0,0 1,1 1,0 1,0 1,0 1,0 1,0 1,1 1,1 -1,0 -1,0 -1,0 0,1 0,1 0,1 1,1 1,0 3,0 0,0 0,0 0,0 0,1 0,1 0,1 0,0 -1,0 -1,0 0,1 0,1 0,1 0,1 0,1 0,2 0,0 0,0 1,0 0,0 1,0 1,0 1,0 1,0 1,0 1,0 0,0 1,0 0,0 0,0 0,0 0,-1 1,-1 1,-1 0,0 0,0 0,0 0,0 0,0 0,-1 1,0 1,0 1,0 0,0 0,0 0,-1 1,0 1,0 1,0l0 -1c0,0 0,0 0,0 1,-1 1,-1 1,-3 0,0 0,-1 0,-2 0,0 0,-1 0,-1 0,-1 0,-1 0,-1 0,0 1,0 1,-1 0,0 1,-1 1,-1 0,0 0,0 0,-1 0,0 0,0 0,0 0,-1 0,-1 -1,-2 0,0 0,0 0,0 -1,1 0,1 -1,1 0,0 0,0 -1,0 0,-1 0,-1 0,-1 0,1 0,1 0,1 0,1 0,1 0,2 0,0 1,3 0,3 -1,0 -1,-1 -1,-1 0,0 0,0 0,0 -1,0 -1,-1 -1,-2 0,0 0,0 0,0l0 -2c0,0 -1,0 -1,0 0,-1 1,-1 1,-1 0,0 0,0 -1,0 1,-1 1,0 1,-1 -1,0 0,1 -3,1 0,0 -1,-1 -1,-2l-1 0c0,0 0,0 0,-1 0,0 0,0 0,0l-1 -1 -2 1c0,0 0,0 0,0 -1,0 -1,0 -1,0l0 0c-1,0 -1,1 -1,1 -1,0 -1,0 -1,1l0 2c0,1 0,3 1,3zm-1 -6l0 0c0,0 0,0 0,0zm2 -1c-1,0 -1,0 -1,0l1 0zm0 0l0 0c0,0 0,0 0,0zm4 0c0,-1 0,0 0,0 0,0 0,0 0,0zm-1 -1c0,0 0,0 0,0 0,0 0,0 0,0zm30 0l0 0c0,0 0,0 0,0zm-1 -1c0,0 0,0 0,0 0,0 0,1 0,0zm-23 0c0,-1 0,0 -1,0 0,0 0,0 0,0l0 0c1,0 0,0 1,0l0 0c0,0 0,0 0,0zm1 -2c-1,0 -1,0 -2,0 -1,0 -2,0 -3,1 0,0 0,0 0,0l-1 0c-1,0 0,0 -1,0l-1 1c0,0 0,0 0,0 1,0 1,0 2,0 1,0 2,0 2,0 1,0 1,0 1,0 0,0 0,0 0,0 0,0 1,0 1,-1 0,0 0,0 0,0 0,0 0,0 0,0 0,0 0,0 0,0 0,0 0,0 0,0l1 0c0,0 1,-1 1,-1zm6 -1c-1,0 -1,1 -1,1l-1 0c-1,0 -1,0 -1,1l1 0c0,0 -1,0 -1,0 0,1 0,1 0,1l0 0c-1,0 0,0 -1,0 0,0 0,0 0,1l-1 0c0,0 0,0 0,0 0,0 0,0 -1,0 0,0 -1,1 -1,1l-1 0c0,0 0,0 1,0 0,0 0,0 0,0 0,0 0,0 1,0 0,-1 0,0 1,-1 0,0 0,0 0,0 0,0 0,0 0,0 0,0 0,0 1,0 0,0 0,0 1,0 0,-1 1,-1 1,-1 0,0 0,0 0,0 1,0 0,-1 1,-1 0,0 0,0 0,0 0,0 0,0 0,-1 1,0 1,0 1,-1zm25 0c-1,0 -1,0 -1,0 0,0 1,0 1,0zm16 -1c-1,0 -1,0 -1,0 1,0 1,0 1,0zm-43 -4l0 0z"></path> <path class="fil0" d="M177 55c0,0 0,0 0,1 0,0 0,0 0,0 0,0 0,0 0,0 0,0 0,0 0,0 -1,0 -1,0 -1,0 1,0 1,0 1,0 0,-1 0,0 0,-1zm1 -14l-1 0c0,0 0,0 0,0 0,0 -1,0 -1,0 0,0 -1,0 -1,1 1,0 1,0 1,0 0,0 0,0 0,0 1,1 1,0 1,0 0,-1 0,-1 1,-1 0,0 0,0 0,0zm-2 -1c-1,-1 -1,-1 -2,-1 0,0 0,0 0,1 -1,0 0,0 -1,0 0,0 0,1 0,1 0,0 1,0 1,0 0,0 0,0 1,0 0,0 0,0 0,0l0 -1c0,0 0,0 0,0 1,0 1,0 1,0zm15 -3c0,0 0,0 0,0 0,0 0,0 0,0zm0 -3l0 -1c-1,0 -1,0 -1,0l-2 -1c0,0 0,0 0,0 -1,0 -1,-1 -1,-1l-2 -1c0,0 0,0 0,0 -1,0 0,0 -1,0 0,0 0,0 0,0l0 0c-1,-1 -1,-1 -2,-1 0,0 0,0 0,0 -1,-1 -2,-1 -2,-1 0,0 0,0 0,0 0,1 0,1 0,1 0,2 0,1 0,2l-1 2c0,1 0,1 0,1 0,0 0,1 0,1 0,0 0,1 0,1 -1,0 0,1 -1,1 0,1 0,1 0,1 0,1 0,1 0,2 1,0 2,1 1,2l0 0c-1,1 -2,1 -2,1 -1,0 -1,0 -1,0 -1,0 0,0 -1,-1 0,1 0,1 0,1 0,1 0,0 -1,1 0,0 0,0 0,0 0,0 -1,0 -1,0 0,1 0,1 0,1 -1,0 -1,0 -1,0 -1,1 0,1 -1,1l-1 1c0,0 0,0 -1,0 0,0 0,0 0,0 0,0 0,0 0,1 0,0 -1,0 -1,0 0,0 0,0 -1,1l-1 0c0,1 1,1 1,1 0,0 1,0 1,1 0,0 0,0 0,0l1 1c1,0 1,0 1,0l1 2c1,0 1,0 1,0 0,0 0,0 1,0 0,0 0,1 0,1 0,0 0,0 0,0 0,0 0,0 -1,0l0 0c0,0 0,0 0,0 0,0 0,0 0,0 0,0 0,0 0,0 0,0 0,0 0,0l-1 -1c-1,-1 0,0 -1,-1 0,0 0,0 0,0 -1,0 -1,-1 -2,-1 0,-1 0,-1 -1,-1 0,0 0,0 0,0 0,0 0,0 0,0 -1,-1 -1,-1 -1,-1 0,0 -1,0 -1,0 1,0 1,1 1,1l2 1c0,0 0,0 0,0l0 1c0,0 0,0 1,0 0,0 0,0 0,0l1 1c0,0 0,0 1,1 0,0 0,0 0,0l1 1c0,0 0,0 1,0 0,0 0,0 0,0 0,0 0,0 0,0 0,0 0,1 1,1l0 0c0,0 1,-1 1,-1 1,0 0,0 1,0 0,-1 0,0 0,-1l3 -3c0,0 0,0 0,-1l1 -1c0,0 0,0 0,0 1,-1 1,-1 1,-1 0,0 1,-1 1,-2 0,0 0,0 0,0 0,0 0,0 1,0 0,-1 0,-1 1,-2l0 0c0,-1 0,-1 0,-1 1,0 1,0 1,0l1 -2c0,0 0,0 0,0 0,-1 1,-1 1,-1 0,-1 0,-1 1,-1 0,0 0,0 0,-1 0,0 0,0 1,-1 0,0 0,0 0,0l2 -4zm-34 -1c0,0 -1,0 0,0 0,0 0,0 0,0zm-1 0l0 0 0 0c0,0 0,0 0,0zm1 0l0 0zm0 0l0 0 0 0zm-1 -1c0,0 0,0 0,0 0,0 0,0 0,0zm0 0c0,0 0,0 0,0 0,0 0,0 0,0zm-4 1c1,0 1,0 1,-1 0,0 0,0 0,0 -1,0 0,0 -1,0 0,0 0,0 0,0 0,1 0,0 0,1 0,0 0,0 0,0zm2 -1l0 0c0,0 0,0 0,0zm1 0c0,0 0,0 0,0 0,0 0,0 0,0zm-2 0c0,0 0,0 0,0l0 0c0,0 0,0 0,0zm3 0c0,0 0,0 0,0 0,0 0,0 0,0zm0 0c0,0 -1,0 -1,0l0 0c0,0 0,0 1,0zm0 0c0,0 0,0 0,0 0,0 -1,0 0,0zm3 0l-1 0 0 0c0,0 0,0 1,0l0 0zm-6 0c0,0 0,0 -1,0 0,0 0,0 0,0 0,0 0,0 1,0zm-1 -1c0,0 0,0 0,0 0,0 0,0 0,0zm3 0c0,0 0,0 0,0 0,0 0,1 0,0zm24 0c0,-1 0,-1 0,-1 0,1 0,1 0,1 0,0 0,1 0,1 -1,0 0,1 -1,1l0 2c0,0 0,0 0,1 0,0 0,0 0,0 0,0 0,0 -1,1 0,0 0,0 0,1 0,0 1,0 1,0 0,0 0,-1 0,-1 0,-1 0,0 0,-2 0,0 0,0 1,-1 0,-1 0,-1 0,-1 0,0 0,-1 0,-1l0 -1c0,0 0,0 0,0zm-24 0l0 0zm0 0l0 0zm-4 0l0 0 0 0c0,0 0,0 0,0zm4 0l0 0 -1 0c1,0 0,0 1,0zm4 0l0 0c0,0 0,0 0,0 0,0 0,0 0,0zm-5 -1c0,0 0,0 0,0l0 0c0,0 0,0 0,0zm6 0l0 0c0,0 0,0 0,0zm-1 1c0,-1 0,-1 -1,-1 0,0 0,0 0,0 0,0 0,0 0,0 0,1 0,0 0,0l1 1zm1 -1c0,0 0,0 0,0 0,0 0,0 0,0zm19 0c0,0 0,0 0,-1 0,0 0,0 0,0 0,0 0,0 0,0 0,0 0,0 0,1 0,0 0,0 0,0 0,0 0,0 0,0 0,0 0,0 0,0zm-19 -1c0,0 0,0 0,0 0,0 0,0 0,0zm-2 1c0,0 0,0 -1,0 0,-1 0,-1 0,-1 0,1 0,0 0,0 0,1 0,1 1,1zm-1 -1c0,0 -1,0 0,0l0 0c0,0 0,0 0,0zm3 0c-1,-1 -1,0 -1,0 0,0 0,0 0,0 0,0 1,0 1,0zm5 -1l0 0c0,0 0,0 0,0zm-6 0c0,0 0,0 0,0 0,0 0,0 0,0zm0 0l0 0c0,0 0,0 0,0zm32 5l0 0c-1,-1 0,-1 -1,-1 0,0 0,0 0,0l0 0c-1,-1 0,0 -1,-1 0,0 0,0 0,0l-1 0c0,0 0,0 0,0 0,0 0,0 0,-1 -1,0 0,0 -1,0 0,0 0,0 -1,0 0,-1 -1,-1 -1,-1 0,0 0,0 0,0l-1 0c0,0 0,0 -1,-1l-1 0c0,-1 0,-1 0,-1 -1,0 0,1 -1,0 0,0 -1,0 0,1 0,0 0,0 0,0 0,0 0,0 1,0 0,0 0,0 1,1 0,0 0,0 0,0l0 0c1,0 0,0 1,0 0,0 0,0 0,0l1 1c1,0 1,0 2,1 0,0 0,0 0,0 0,0 1,0 1,0 0,1 0,1 1,1 0,0 0,0 0,0l1 0c0,0 0,0 0,1l1 0c0,0 0,0 0,0zm-40 -9l0 0 0 2 0 0c0,0 0,-1 0,-1 0,0 0,0 0,-1zm1 -1c0,0 0,0 0,0l0 0 0 0zm1 0c0,0 -1,0 0,0 0,0 0,0 0,0zm0 0c0,0 0,0 1,0 -1,0 0,0 -1,0 0,0 0,0 0,0zm10 5c0,0 0,0 0,1 -1,0 -1,0 -1,0 0,1 0,1 0,1 0,0 0,0 0,0l-2 2c0,0 0,1 0,1l-1 2c-1,0 -1,1 -1,1 0,0 0,0 0,0 0,0 0,0 0,0 -1,1 -1,1 -1,2 0,0 0,0 0,0l-1 1c0,0 0,0 0,1 0,0 -1,0 -1,1 0,0 0,0 0,0 0,0 0,0 0,1l-1 0c0,0 0,0 0,0 0,1 0,0 1,1 0,0 0,0 1,1 0,0 0,0 0,0 0,0 0,0 1,1 0,0 0,0 0,0 0,0 1,0 1,1 0,0 0,0 1,0 0,0 0,0 0,0 0,1 0,1 0,1 1,0 1,0 1,0 0,0 0,0 0,0 1,0 1,1 1,1l1 1c1,0 1,1 2,0 1,0 0,0 0,0 1,-1 1,0 1,-1 0,0 0,0 1,0l0 -1c0,0 1,0 1,-1l1 0c0,0 0,0 0,0 1,-1 0,-1 1,-1l1 -1c0,0 1,0 1,0 0,0 0,0 0,0 0,-1 0,-1 0,-1 1,0 1,0 1,0 0,0 0,0 1,-1 0,0 0,0 0,0 0,-1 -2,0 -2,-1 0,-1 1,-1 1,-2 0,0 0,0 0,0 1,0 1,-1 1,-1 0,0 1,0 1,0 2,-1 1,0 2,0 0,0 0,0 0,-1 1,0 1,-1 1,-1l0 -1c0,-1 0,-1 0,-1l1 -2c0,0 0,0 0,-1l0 -1c0,0 0,0 0,0 0,-1 0,-1 1,-2l0 -1c0,0 0,0 0,-1 -1,0 0,0 -1,-1 0,0 0,0 0,0l-1 -1c0,0 0,0 0,0l-1 0c0,0 0,0 0,0 -1,0 -1,0 -1,0 0,-1 0,0 0,-1 -1,0 -1,0 -2,0 0,0 0,0 0,0l-2 2c0,1 -1,1 -1,1l0 1c-1,0 -1,1 -1,1l-1 2c-1,0 0,0 -1,0 0,0 0,0 0,0 1,0 1,0 1,-1l1 -2c0,0 0,0 0,0 0,0 0,0 0,0 0,0 0,0 0,0 1,0 1,-1 1,-1 0,0 0,0 0,-1 1,0 1,0 1,0 0,0 0,0 0,-1l1 -1c0,0 1,0 1,0 -1,-1 -1,-1 -2,-1 0,0 0,0 -1,0 0,0 0,0 0,0 -1,1 -1,1 -1,1 0,1 -1,1 -1,2 0,0 0,0 0,0 -1,1 -1,0 -1,1 0,0 0,0 0,0l-1 1c0,1 0,1 0,1 -1,0 -1,1 -2,1 0,0 0,1 0,1 0,-1 0,-1 0,-1l1 -1c0,0 0,0 0,-1 0,0 0,0 0,0 1,0 1,0 1,-1 0,0 0,0 0,0 1,-1 1,-1 1,-1l1 -1c0,-1 0,-1 0,-1 0,0 1,0 1,0 0,-1 0,-1 0,-1l0 0c0,0 0,0 0,-1 0,1 0,1 0,1 0,0 -1,0 -1,0 0,0 0,0 0,0l-2 3c0,0 0,0 0,0 -1,0 -1,0 -1,1 0,0 0,0 0,0 -1,0 0,0 -1,0 0,1 0,1 0,1l-1 1 0 0zm-40 -9c0,0 -1,0 -1,0 0,0 1,0 1,0zm24 4c0,2 0,0 0,1 0,0 0,0 0,0 0,0 -1,0 1,0 0,0 0,0 1,0 0,-1 0,0 -1,-1 0,0 0,0 0,0 0,0 0,0 0,-1 0,0 0,0 -1,0 0,-1 0,-1 0,-1 0,0 0,0 -1,0l0 -1c0,0 0,0 0,0 0,0 0,0 0,0l-1 -1c0,0 0,0 -1,0 0,0 1,0 1,1 0,1 0,1 0,1 1,0 1,1 1,1 1,1 0,0 1,1zm-25 -5c0,0 0,0 0,0 0,0 0,0 0,0l0 0zm23 -2c0,0 -1,0 0,0 0,0 0,0 0,0zm18 12c0,-1 0,-1 0,-1 0,0 0,0 1,-1 0,0 0,0 0,0 0,0 0,0 1,-1 0,0 0,0 0,0 0,0 0,0 1,-1 0,0 0,0 0,0 0,0 0,0 0,0l0 0c1,-1 1,-1 1,-1 0,0 0,0 0,0 1,0 0,0 1,0 0,-1 0,-1 0,-1 0,0 0,0 1,-1 0,0 0,0 0,-1 1,0 1,0 1,0 0,0 1,0 1,0l1 1c0,0 0,0 1,0 0,0 0,0 0,0l2 1c0,0 1,0 1,0 0,0 0,0 0,0 1,0 1,1 2,1l0 0c1,0 1,0 1,1 1,0 1,0 1,0 1,1 1,1 1,1 0,0 0,1 0,1 0,0 0,0 1,0 0,0 0,0 1,1 0,0 1,0 1,0 1,0 1,0 1,1 0,0 1,0 1,0 0,0 0,0 1,1 0,0 0,0 1,0 0,0 0,0 1,0 0,0 0,1 0,1 1,0 1,0 2,1 0,0 0,0 0,0 1,0 1,0 2,0 0,1 0,1 0,1 0,0 0,0 0,1 0,0 0,0 0,1 0,0 0,0 0,0 1,1 0,1 0,2 0,0 0,0 0,0 -1,0 -1,0 -1,1l0 0c0,0 0,0 0,0l-1 1c-1,0 -1,0 -1,1 -1,0 0,0 -1,1l0 0c0,1 -1,1 -1,1l0 1c0,0 0,0 0,0 -1,0 -1,1 -1,1 -1,1 -1,1 -1,1l0 1c0,0 0,0 -1,0 0,0 0,0 0,0l0 1c0,0 -1,0 -1,0 0,0 0,1 0,1l-2 2c0,0 0,0 0,1l-1 1c0,0 0,0 -1,0 0,1 0,1 0,1 0,1 -1,1 -1,2 -1,0 0,0 -1,1l0 1c-1,0 -1,0 -1,0 0,1 0,1 0,1 0,0 -1,0 -1,0 -1,0 -1,1 -1,1 -1,0 -1,0 -2,0 0,0 0,0 0,0 0,0 -1,0 -1,-1l-1 0c0,0 0,-1 -1,-1l0 0c-1,0 -1,0 -1,0l0 -1c0,0 -2,-1 -2,-1 0,0 0,0 0,0 0,0 0,0 0,0 -1,-1 -1,-1 -1,-1l-1 -1c0,0 -1,0 -1,-1 0,0 0,0 -1,0 0,0 0,0 0,0 -1,0 0,0 -1,0 -1,0 0,0 -1,-1l-1 0c0,0 0,-1 0,-1 -1,0 -1,0 -1,0l-1 -1c0,0 0,0 -1,0 0,0 0,0 0,-1l-2 -1c0,0 0,0 0,0 -1,-1 -2,-1 -2,-2l0 0c-1,-1 -1,-1 0,-2 0,0 0,0 0,-1l1 -1c0,0 0,-1 0,-1 1,0 1,0 1,-1 0,0 0,0 0,-1l1 0c-1,-1 -1,-1 -2,-2l-1 0c0,-1 0,-1 0,-1 0,0 0,0 -1,0 0,0 -1,-1 -1,-1l-1 -2c0,0 0,-1 0,-1 0,0 0,-1 0,-1 0,-1 0,-3 0,-4 -1,0 0,0 0,0 -1,1 -2,0 -3,1l-1 0c0,0 0,0 -1,0 0,1 0,1 -1,1 0,0 0,0 -1,0 0,0 0,1 0,1 -1,0 -1,0 -1,0 0,0 0,0 -1,1l0 0c-1,0 -1,0 -1,0 0,1 0,1 -1,1 0,0 0,0 -1,0 0,1 0,1 -1,1 0,0 0,0 -1,0 -1,1 0,1 -2,1 0,-1 0,-1 0,-1l-1 0c-1,-1 -1,-1 -1,-1 0,0 0,0 0,0 -1,-1 -1,-1 -1,-1 0,0 0,0 -1,0l-3 -4c-1,0 -1,-1 -2,-2 0,0 0,0 0,0 0,0 0,0 -1,0 0,-1 0,-1 0,-1 0,0 0,0 0,0l-1 -2c0,0 -1,-1 -1,-1l0 0c0,-1 0,-1 0,-2 0,0 0,0 0,0 0,0 0,0 0,1 0,0 0,0 0,0 0,1 0,0 1,1 0,0 0,0 0,1 0,0 0,0 1,1 0,0 0,0 0,0l0 0c0,1 0,0 0,1 1,0 0,0 1,0 0,0 0,0 0,0 0,0 0,0 0,1 1,0 1,0 1,0 0,0 0,0 0,0l0 1c0,0 0,0 1,0 0,0 0,0 0,0 0,1 0,1 1,1 0,0 0,0 0,0l0 0c0,0 0,0 0,1 1,0 2,0 2,1l0 0c1,0 1,0 1,0 0,1 0,1 0,1 0,0 0,0 1,0 0,0 0,0 0,0l1 1c0,0 0,0 0,0 1,1 1,1 2,1 0,0 0,0 0,0 1,0 1,0 2,0l1 0c0,-1 0,-1 0,-1 1,0 1,0 1,0 1,-1 1,-1 1,-1 0,0 1,0 1,0 0,-1 0,-1 0,-1 1,0 1,0 1,0 0,0 1,0 1,0l1 -1c0,0 0,0 0,0l1 -1c1,0 1,0 1,0 0,-1 0,-1 0,-1 0,0 0,0 -1,-1l0 -1c-1,0 -1,0 -1,-1 0,0 0,0 0,0 0,-1 0,-1 0,-2 0,0 0,-1 0,-1 0,0 0,-1 0,-1l0 -1c0,0 1,0 1,0l0 0c0,0 0,0 1,0 0,0 0,0 0,0 0,1 0,1 1,1 0,0 0,0 0,0 0,0 0,0 0,0 0,1 0,1 1,1 0,-1 0,-1 0,-1 0,-1 0,-1 -1,-1 0,-1 0,-1 0,-1 0,-1 0,-1 0,-1 1,0 1,1 1,1 0,0 0,1 0,1 0,0 0,0 1,1 0,0 0,0 0,0 0,1 0,0 0,1 0,1 0,2 1,2 0,1 0,2 0,2l1 1c1,0 0,0 1,0 0,0 0,0 1,-1 0,0 0,0 0,0 0,0 0,0 0,0 1,0 1,0 2,0 0,0 0,0 0,1 0,0 -1,0 -1,0l-2 1c0,0 0,0 -1,0 0,0 0,0 0,0 0,1 0,1 0,1 0,1 0,1 0,2 0,1 0,1 0,1 0,1 0,2 0,2 1,1 1,0 1,1 0,0 0,0 0,0l1 1c1,0 1,0 1,0 1,-1 0,-1 1,-1 0,0 0,0 -1,0l0 -1c0,0 0,0 1,0 0,1 1,1 2,1 0,0 0,1 1,1 0,-1 0,-1 0,-1 0,0 0,0 0,0 0,0 0,0 0,-1l-1 0c0,0 0,0 0,0l-1 -1c0,0 0,0 0,-1 1,0 1,1 1,1 1,0 1,0 1,1 0,0 0,0 0,0l1 0c0,0 0,0 0,0 0,0 0,0 0,0l1 0c0,0 -1,-1 -1,-1 0,0 0,0 0,0 0,-1 0,-1 -1,-1 0,0 0,0 0,0 0,0 0,0 0,0 0,0 0,-1 0,-1 0,0 0,0 0,0 0,-1 0,0 1,0 0,0 0,0 0,0 0,1 0,1 0,1l1 0c0,2 1,1 1,2 0,0 -1,0 -1,1 0,0 -1,0 -1,0 0,0 0,0 0,1 0,0 -1,0 -2,0 0,0 0,0 -1,0 0,0 1,0 1,1l0 0c0,0 0,0 0,0 1,0 1,0 1,0 -1,0 -1,0 -1,1 0,0 1,0 1,0 0,0 0,0 0,0 0,-1 1,-1 1,-2 0,0 0,0 0,0 0,0 0,0 1,0 0,-1 0,-1 0,-1l0 0c0,0 1,0 1,-1l2 -2c0,0 0,0 0,0z"></path> <path class="fil0" d="M125 9l0 0c0,0 0,0 0,0zm0 -2c0,0 -1,0 -1,0 0,0 1,0 1,0zm4 -2l0 0zm7 -5c0,1 0,1 -1,1l0 0c0,1 0,1 0,1 -1,0 0,-1 -1,-1 0,0 0,0 0,1 0,0 0,0 -1,0 0,0 0,0 0,0l-2 2c0,0 0,0 0,0l-1 0c0,1 -1,1 -1,1l-2 1c0,1 0,0 0,1 -1,0 -1,0 -1,0l-1 0c-1,1 -1,1 -2,1 0,1 1,1 2,1 2,0 3,0 4,0 1,0 1,-1 1,-1 0,0 1,0 1,0 0,0 0,0 1,0 0,0 1,0 1,0 0,0 0,0 0,0 1,0 0,-1 1,-1 1,0 1,0 1,0 0,0 2,0 3,-1 0,0 0,0 0,0 0,0 0,0 0,0 1,0 1,0 1,0 0,0 0,0 0,0 0,0 0,-1 1,-1 0,0 1,0 1,0 1,0 1,0 1,-1 1,0 0,0 1,0 0,0 0,0 0,0 1,0 1,0 2,-1 0,0 0,0 0,0l1 0c0,0 1,0 1,0l1 -1c0,0 0,0 0,0 0,0 0,0 0,0 1,0 2,0 2,0 1,0 3,0 4,0 0,0 0,0 1,0 0,0 1,0 1,0 0,0 0,0 0,0 1,0 1,0 1,1 1,0 1,0 1,0 1,0 1,0 1,0l1 0c0,1 1,1 1,1 0,0 0,0 1,0 0,0 0,0 0,0 0,0 0,0 1,0 0,1 0,1 0,1 0,0 0,0 1,0 0,0 1,0 1,1 0,0 2,1 2,1 0,0 1,0 1,1 1,0 1,0 1,0 0,1 0,0 0,1 0,0 0,0 1,0 0,0 1,1 1,1l1 1c1,1 1,1 2,2 0,0 0,0 0,0l1 1c0,0 0,0 1,0 0,1 0,0 0,1 0,0 0,0 1,1 1,0 1,0 1,0 0,0 0,0 0,0l2 1c0,0 0,0 1,1l2 1c0,0 0,0 0,0 0,0 0,0 0,0l0 0c0,0 0,0 1,0 0,0 1,1 1,1 0,0 1,0 1,0 0,1 1,1 1,1 0,0 0,0 1,0 0,0 1,1 2,1l0 0c0,0 0,0 0,1l1 0c1,0 1,0 2,1 0,0 0,0 0,0l2 1c0,0 0,0 0,0l2 1c0,0 0,0 0,0l0 0c0,0 0,0 1,0 0,0 0,0 0,0 0,0 0,0 0,0 0,0 0,0 1,1 0,0 0,0 0,0l2 1c0,0 0,0 1,0l0 0c1,1 1,1 1,1 0,0 0,0 0,0l1 0c0,0 0,0 0,0 0,0 1,1 1,1 0,0 0,0 0,0 0,1 0,1 0,1 0,0 -1,0 -1,0 -1,1 -1,0 -2,0l-1 -1c0,0 0,0 0,0l-2 -1c0,0 0,0 -1,0l0 0c0,-1 0,-1 -1,-1l-2 -1c0,0 0,0 -1,0l0 -1c0,0 0,0 -1,0 0,0 0,0 0,0 0,0 0,0 0,0 -1,0 -1,0 -1,0l-1 -1c0,0 -1,0 -1,0 -1,0 -1,-1 -1,-1l-1 0c0,0 0,0 0,0l-1 -1c0,0 0,0 0,0 0,0 -1,0 -1,0 0,0 0,0 0,0 0,0 0,0 -1,0l-1 -1c0,0 0,0 0,0 0,0 0,0 0,0 0,0 -1,0 -1,-1 0,0 -1,0 -1,0l-1 -1c0,0 0,0 0,0 0,0 0,0 -1,0l0 0c-1,0 -1,0 -1,-1l-1 0c0,0 0,0 -1,0 0,-1 0,-1 0,-1 0,0 -1,0 -1,0l-1 -1c0,0 0,0 0,0l0 0c-1,0 -1,0 -1,0 0,0 0,0 -1,-1 0,0 0,0 -1,0 0,0 0,0 0,0 0,-1 -1,-1 -1,-1l-3 -3c0,0 0,0 0,0 0,-1 0,-1 0,-1 -1,0 -1,0 -1,0 0,0 0,0 0,0 0,0 0,0 0,0 -1,-1 -1,-1 -1,-1 0,0 0,0 0,0l-1 0c0,-1 0,-1 0,-1 -1,0 -1,0 -1,0 0,0 0,0 0,0l-2 -2c0,0 0,0 0,0 -1,0 -1,0 -1,-1 -1,0 -1,0 -2,0 0,-1 0,0 0,0 -1,-1 -1,-1 -2,-1l-1 -1c0,0 0,0 -1,0 0,0 0,0 -1,0l-2 0c0,-1 0,-1 -1,-1 -1,0 -2,0 -3,0 -1,1 -2,1 -3,1 0,0 0,0 0,0l-1 0c-1,0 -1,1 -1,1 -1,0 -1,0 -2,0 0,1 0,0 0,1l-2 0c0,0 0,0 0,0l-1 1c-1,0 0,0 -1,0 0,0 0,0 0,0 -1,0 -2,1 -2,1 -1,0 -1,0 -1,0 -1,0 -2,1 -2,1 -1,0 -1,0 -1,0 0,0 -1,0 -1,0 -1,0 -2,0 -4,0 0,0 0,1 -1,1l-3 -1 0 0c0,0 0,-1 0,-1 0,0 0,0 0,0 1,0 1,0 1,-1l1 0c1,0 0,0 1,0 0,0 0,0 1,-1l2 -1c1,0 0,0 1,0 0,0 0,0 0,0l2 -2c0,0 0,0 0,0l0 0c0,0 0,0 1,0l1 -1c0,-1 1,-1 1,-1l0 0c0,0 0,0 0,0l0 0c0,0 1,0 1,0l0 -1c1,0 1,0 1,0l0 0z"></path> <path class="fil0" d="M257 117c0,0 0,0 0,0l0 1c0,0 0,0 0,0l-1 1c0,0 0,0 -1,0 0,1 0,1 0,1 0,0 -1,0 -1,0 0,0 0,0 -1,-1 0,0 0,0 0,0l-1 -1c0,0 -2,-2 -3,-2 0,-1 0,0 0,-1 -1,0 -1,0 -1,0l-1 -1c0,0 0,0 0,0l-2 -1c0,0 0,0 0,0l-1 -1c-1,0 0,0 -1,0 0,0 0,0 0,0 0,0 0,0 0,0 -1,-1 -2,-1 -2,-1 0,0 -1,0 -1,0l0 0c0,-1 -1,-1 -1,-1 0,0 -1,0 -2,0 0,0 0,0 -1,0 -1,-1 -1,-1 -2,-1 -1,0 -1,0 -1,0 -2,0 -1,-1 -4,0 -1,0 -1,0 -2,0 0,0 0,0 -1,0 0,0 -2,0 -3,0 -1,1 -1,1 -1,1 -1,0 -1,0 -2,0l-1 0c0,0 0,0 -1,0 0,0 0,0 0,1 0,0 -1,0 -1,0 0,0 0,0 -1,0 0,0 -1,0 -1,1 -1,0 -1,0 -2,0 0,0 0,0 0,0l-1 1c0,0 0,0 0,0 0,0 0,0 -1,0l-1 1c0,0 0,0 0,0 0,0 0,0 0,0l-3 1c0,0 0,0 0,0 0,0 -1,0 -1,1 -1,0 0,0 -1,1 0,0 -1,0 -1,0 0,0 0,0 -1,1l0 0c0,0 0,0 -1,0 0,1 0,1 0,1 -1,0 -3,1 -3,2l0 0c0,0 0,0 0,-1 0,0 0,0 0,0 0,0 0,0 0,0 1,0 1,-1 1,-1 0,0 0,0 0,0 1,0 1,0 1,-1 0,0 0,0 0,0l1 0c0,-1 1,-1 1,-1 0,0 1,-1 1,-1 0,0 0,0 0,0l1 -1c1,0 1,0 1,0l0 -1c1,0 1,0 1,0l1 0c0,-1 0,-1 0,-1l3 -1c0,0 0,0 0,0 0,0 0,-1 1,-1 0,0 0,0 0,0l1 -1c1,0 1,0 2,0 0,-1 0,0 1,-1 0,0 0,0 0,0 0,0 0,0 0,0 1,0 1,0 1,0 0,0 0,0 0,0 1,0 1,-1 1,-1 1,0 1,0 2,0 0,0 0,0 0,0 0,0 0,0 1,0 0,0 0,0 0,0 1,-1 1,-1 1,-1 0,0 0,0 1,0 0,0 0,0 0,0 1,0 2,0 3,-1l2 0c1,0 2,0 3,0 1,0 1,-1 2,0 1,0 1,0 1,0 3,0 2,0 3,0l1 0c1,0 1,0 2,1 1,0 2,0 3,0l0 1c1,0 1,0 2,0l2 1c0,0 1,1 1,1 0,0 0,0 0,0 1,0 1,0 1,0l1 1c0,0 0,0 1,0 0,0 0,1 0,1 1,0 1,1 2,1 0,0 0,0 0,0 1,0 0,0 1,0 0,1 0,1 0,1 0,0 0,0 0,0l2 2c0,0 1,0 1,1l0 0z"></path> <path class="fil0" d="M86 74l0 0c0,0 0,0 0,0zm11 -11c0,0 -1,0 -1,1l-4 3c0,1 0,0 0,1 -1,0 -1,0 -1,1l0 0c0,0 0,0 0,0 -1,1 -1,1 -1,1 0,1 0,0 0,1 0,0 -1,0 -1,1 0,0 0,0 0,1 0,0 0,0 -1,0 0,1 0,0 0,1 0,0 0,1 0,1 -1,1 -1,0 -1,2l0 1c0,1 0,2 0,2 -1,1 -1,1 -1,1 0,1 0,2 0,2 0,1 0,1 -1,2 0,0 0,0 0,0 0,0 0,0 -1,0 -1,0 1,0 -1,0 -1,0 0,-1 0,-1 0,0 0,-1 0,-1l0 -2c0,0 0,-1 0,-1 1,-1 1,0 1,-1 0,0 0,0 0,0 0,-1 0,-1 0,-2 0,0 0,0 0,0 0,0 0,0 0,0 1,-1 1,-1 1,-1 0,0 0,0 0,0l0 -1c1,-1 1,-1 1,-1 0,-1 0,-1 0,-1 1,0 0,0 1,-1 0,0 1,-1 1,-2 1,0 1,0 1,0 0,-1 0,-1 0,-1 1,0 1,0 1,-1l2 -2c0,0 0,0 0,0 1,-1 3,-3 3,-3l1 0c0,0 0,0 1,0z"></path> <path class="fil0" d="M161 94c0,-1 0,0 0,0 0,0 0,0 0,0zm17 4c0,0 0,0 0,1 0,0 -1,0 -1,0 0,0 0,0 0,0 0,0 -1,0 -1,-1l-1 -1c0,0 0,0 -1,0 0,0 0,0 -1,0 0,0 -1,-1 -1,-1 -1,0 -1,0 -2,0 0,-1 -1,-1 -1,-1 0,0 0,0 -1,0 0,0 -1,0 -2,0l-3 -1c-1,0 -1,0 -2,0 0,0 0,0 0,0 -1,0 -1,0 -1,0 0,0 -1,0 -1,-1l-1 0c0,0 0,0 -1,0 0,-1 0,-1 0,-1 -1,0 0,0 0,0 -1,0 -1,0 -1,0 0,-1 0,-1 0,-2 -1,0 -1,0 -1,-1 0,0 0,0 0,0 0,-1 0,-1 0,-1 0,0 0,0 0,-1 0,0 0,0 -1,0 0,-1 0,-1 0,-1 0,-1 0,-1 0,-2 0,0 0,0 0,-1l0 -1c-1,0 -1,-1 -1,-1 0,-1 0,-2 0,-3 0,-1 -1,-1 0,-1 0,0 0,0 0,0 0,0 0,0 1,0 0,1 0,0 0,1 0,1 0,1 0,2 0,1 0,1 0,1 0,0 0,1 0,1 1,0 1,0 1,0 0,1 0,1 0,2 0,0 0,0 0,0 0,1 0,1 0,1 0,1 0,1 0,2 0,0 1,0 1,0 0,0 0,0 0,0 0,0 0,0 0,1l0 1c0,0 0,0 0,0 1,1 1,1 1,1 0,0 0,0 0,0l0 1 1 1c0,0 0,0 0,0 1,0 1,0 1,0l1 1c1,0 1,0 1,0 0,0 0,0 1,0 0,0 0,0 0,1 1,0 1,0 2,0 0,0 1,0 2,0 0,0 1,0 1,0 1,0 1,0 2,1 1,0 0,0 1,0 0,0 1,0 1,0 1,0 1,0 1,0 0,0 1,1 2,1l1 0c0,1 1,1 1,1 0,0 0,0 0,0 0,0 0,0 0,0l1 0c0,1 0,1 1,1z"></path> <path class="fil0" d="M149 102l0 0c0,0 0,0 0,0zm-4 -6c0,0 0,0 0,0 0,0 0,0 0,0zm0 0c0,0 0,0 0,0 0,-1 0,0 0,0zm0 0l0 0zm-1 -1c0,0 0,0 0,0 0,0 0,0 0,0zm0 0l0 0c0,0 0,0 0,0zm-6 -16c0,0 0,0 0,0 0,0 0,0 0,0zm0 0c0,-1 0,-1 0,0 0,0 0,0 0,0zm-1 -2l0 0c0,0 0,0 0,0zm0 -1l0 0c0,0 0,0 0,0 0,0 0,0 0,0zm-1 0c0,0 0,0 0,-1 0,0 0,0 0,0 0,0 0,0 0,0 0,0 0,1 0,1zm6 12c0,0 0,0 0,0 0,0 0,1 0,1 1,1 1,1 1,2 0,0 0,1 1,2 0,0 0,0 0,0 0,1 0,1 0,1l1 1c0,0 0,0 0,1l0 1c0,0 0,0 0,0 0,0 0,0 1,0 0,1 0,0 0,1 0,0 0,0 0,0 0,0 0,0 0,0 0,0 0,0 0,1 1,0 0,0 1,1l0 0c0,0 0,0 0,0 0,1 0,1 1,1 0,0 0,0 0,0l0 1c0,0 1,0 1,0l0 0c0,0 1,0 1,1 0,0 0,0 -1,0l-1 -1c0,0 0,0 0,0 0,0 0,-1 0,-1 0,0 0,0 -1,0l-1 -2c0,0 0,0 0,0 0,-1 0,-1 -1,-1l-1 -2c0,0 0,0 0,0 0,0 0,0 0,0l0 -1c0,0 0,0 0,-1 0,0 0,0 0,0l-1 -1c0,0 0,0 0,0 0,-1 0,-1 0,-1 -1,-1 -1,-1 -1,-1 0,-1 0,0 0,-1 0,0 0,0 0,0 0,-1 0,-1 0,-1 0,0 0,0 0,0 -1,0 -1,0 -1,0l0 -2c0,0 0,0 0,0l-1 -1c0,0 0,0 0,0 0,-1 0,-1 0,-1l-1 -1c0,0 0,-1 0,-1l0 0c0,-1 0,-1 -1,-2 0,0 0,0 0,0 0,-1 0,-1 0,-2 -1,0 -1,-1 -1,-1l-1 -2c0,-1 0,-1 0,-1 0,0 1,0 1,1l0 1c0,0 0,0 0,0 1,1 1,1 1,2l0 1c0,0 0,0 0,0l0 0c0,0 1,0 1,0 0,0 0,0 0,0 0,0 0,0 0,0 0,0 0,1 0,1 0,1 0,1 0,1 1,1 1,1 1,2 0,0 0,0 0,0 0,1 0,0 1,1l0 1c0,0 0,0 0,1l1 1z"></path> <path class="fil0" d="M123 30c0,0 0,0 0,0l0 0 0 0zm-6 -8c0,0 0,0 0,0 0,0 0,0 0,0zm0 -1c0,0 -1,0 0,0 0,0 0,0 0,0zm6 9c0,0 0,0 0,0l-2 0c1,0 1,0 1,0 0,-1 0,-2 0,-2l-1 -2c-1,0 0,0 -1,-1 0,0 0,0 0,0l-3 -3c0,0 0,0 0,0 -1,-1 0,0 -1,-1 0,0 0,0 0,0 -1,0 -1,0 -1,0 0,0 0,0 0,-1l0 0c0,0 0,0 0,0 1,0 0,0 1,1l1 0c0,0 0,0 0,0 0,1 0,0 1,1 0,0 1,1 1,1l2 1c0,1 0,1 1,2l0 1c1,0 0,0 1,0 0,0 0,0 0,1 0,0 0,0 0,1 0,0 0,0 0,1z"></path> <path class="fil0" d="M171 121l0 0c0,0 0,0 0,0zm-1 -1l0 0zm0 0l0 0 0 0zm0 -1c0,0 -1,0 0,0 0,0 0,0 0,0zm-1 0l0 0zm0 0l0 0zm0 0c0,0 0,0 0,0 0,0 0,0 0,0zm0 -1c0,0 0,0 0,0 0,0 0,1 0,0zm-1 0l0 0c0,0 0,0 0,0zm-2 -3l0 0c0,0 0,0 0,0zm-1 0c0,0 0,0 0,0 0,0 0,0 0,0zm0 -1c0,0 -1,0 0,0 0,0 0,0 0,0zm-1 0l0 0c0,0 0,0 0,0zm0 0l0 0zm0 0l0 0zm0 -1c0,0 0,0 0,0l0 0zm-1 0l0 0c0,0 0,0 0,0zm-2 -2c0,0 0,0 0,0l0 0c0,0 0,0 0,0zm-2 -2c1,0 1,1 1,1l1 1c0,0 0,0 0,0 0,0 1,0 1,0l0 1c0,0 0,0 1,0 0,0 0,0 0,0l2 2c0,1 1,2 2,3 0,0 0,0 0,0l2 1c0,1 0,0 0,1l1 0c0,0 0,0 0,0 0,1 0,1 0,1 1,0 1,0 1,0l0 1c0,0 1,0 0,0 0,0 0,0 0,0l-2 -2c0,0 0,0 0,0 0,-1 0,0 -1,-1 0,0 0,0 0,0 0,0 0,0 0,0 -1,0 0,0 -1,-1l-1 -1c0,0 0,0 0,0 -1,-1 -1,-1 -1,-1 0,0 0,0 0,0l-1 -1c0,0 0,0 0,0 0,0 0,0 0,0l-1 -1c0,0 0,0 0,0 0,0 0,0 0,0l-1 -1c0,0 0,0 0,0l0 -1c-1,0 -1,0 -1,0 -1,-1 -1,-1 -1,-1l0 0c0,0 -1,0 -1,-1l-1 0c0,0 0,0 0,0 0,0 0,0 0,0 0,-1 0,-1 -1,-1l0 0c0,0 0,0 0,0l0 -1c-1,0 -1,0 -1,0 -1,0 -1,0 -1,-1 0,0 0,0 0,0 0,0 0,0 0,0l-2 -1c0,0 0,0 0,0l-1 -1c0,0 0,0 0,0 0,0 0,0 0,0l-1 0c0,0 0,0 0,0l-1 -1c0,0 0,0 0,0 0,0 0,0 1,0 0,0 0,0 0,0 0,1 0,1 0,1 1,0 0,0 1,0l2 2c0,0 0,0 1,0l1 1c0,0 0,0 0,0 0,0 0,0 1,0l2 2c0,0 0,0 0,0z"></path> <path class="fil0" d="M144 61l0 0c0,0 0,0 0,0zm1 0l-1 0c0,0 1,0 1,0zm-2 0l1 0c1,-1 0,-1 1,-1 0,-1 0,0 0,-1l0 -1c0,-1 0,0 0,-1 0,0 1,0 1,0 0,-1 0,-1 0,-2l0 -2c0,-1 0,-1 0,-1l0 0c1,0 1,2 1,3 0,0 -1,0 -1,0 0,1 0,1 0,1 0,1 0,1 0,1 0,0 0,1 0,2 0,0 0,0 -1,0 0,1 0,0 0,1 0,0 0,0 0,1 -1,0 -1,1 -2,0z"></path> <path class="fil0" d="M75 68c0,0 0,-1 0,0 0,0 0,0 0,0l0 0zm1 -2c0,0 -1,0 0,0 0,0 0,0 0,0zm2 -5c0,0 0,0 -1,0l0 0c0,0 0,0 0,1 0,1 0,1 0,1 0,0 0,1 -1,1 0,1 0,1 0,1 0,1 0,1 0,2l-1 1c0,0 0,0 0,0 0,1 0,0 0,1 0,0 0,0 -1,0 0,-1 1,0 1,-1 0,-1 0,-1 0,-1 0,-1 1,-2 1,-3 0,0 0,0 0,-1 0,0 0,0 0,0 0,-1 0,0 0,-1 0,-1 0,-1 0,-2l1 0c0,0 0,0 1,0l0 1z"></path> <path class="fil0" d="M222 102l-1 1c0,0 0,0 0,0 0,1 0,0 -2,1 0,0 -1,0 -1,0 0,0 0,0 -1,0l1 -1c1,-1 0,0 1,-1l1 0c1,0 0,0 1,0 0,0 1,0 1,0l0 0z"></path> <path class="fil0" d="M163 43c0,0 1,0 1,-1 0,0 0,0 0,0 0,-1 1,-1 1,-1 0,-1 0,0 0,-1l1 -2c1,0 0,0 1,0 0,0 0,0 0,0 0,0 0,0 0,0 0,-1 0,0 0,-1 0,0 0,0 0,0l1 -2c0,0 0,0 0,0l1 -2c0,0 0,0 0,0l1 -1c0,-1 0,-1 1,-1 0,0 0,1 0,1 -1,0 -1,0 -1,1 -1,1 0,0 -1,1l0 0c0,1 0,0 0,1l-1 0c0,1 0,1 0,1 0,0 0,0 0,0 0,1 0,1 0,1 -1,0 0,0 -1,0l0 0c0,0 0,0 0,1 0,0 0,0 0,0 0,0 0,0 0,1l-2 2c0,1 0,0 0,1l-1 1c0,0 -1,0 -1,0z"></path> <path class="fil0" d="M162 32l0 0c0,0 0,0 0,0zm-4 8l0 0c0,-1 0,0 0,-1 0,0 0,0 0,-1 1,0 0,1 1,0 0,0 0,-1 0,-1 0,-1 0,0 0,-1l1 0c0,-1 0,-1 0,-1l1 -1c0,0 0,0 0,-1l1 0c0,-1 0,0 0,-1 0,0 0,0 0,0 0,-1 0,-1 1,-1 0,0 0,0 0,0 0,0 1,-1 1,-1 0,1 -1,1 -1,1 0,1 0,1 -1,1l0 1c0,0 0,0 0,0 0,0 0,0 -1,1 0,0 0,0 0,0l0 1c0,0 0,0 -1,0l0 2c-1,0 -1,0 -1,1l-1 1c0,1 0,0 0,1z"></path> <path class="fil0" d="M118 77l-1 0 0 0 1 0 0 0zm-12 -1l0 0zm-1 0c0,0 0,0 0,0 0,0 0,0 0,0zm6 1l0 0 3 0c0,0 0,0 1,0 0,0 1,0 2,0 0,0 0,0 1,0 0,0 0,0 1,0 0,0 0,0 0,0 0,0 1,0 0,0 -1,1 -2,0 -2,0 -1,1 -4,0 -5,0 0,0 -1,0 -1,0 -1,0 0,0 -1,0 0,0 0,0 -1,0 0,0 0,0 0,0 -1,0 -1,0 -1,0 -1,-1 -1,0 -1,-1 -1,0 -1,0 -1,0 -1,0 -1,0 -1,0l-1 0c0,0 0,0 0,0 0,-1 0,0 0,-1 0,0 0,0 1,0 0,1 0,0 1,1l0 0c1,0 1,0 1,0 1,0 1,0 1,0l3 1z"></path> <path class="fil0" d="M94 27c0,1 0,0 1,0 0,1 0,1 0,0 0,0 0,0 0,0 0,0 0,0 0,0 0,0 0,0 0,0 -1,0 -1,0 -1,0zm0 0c0,0 0,0 0,0 0,0 0,0 0,0zm-1 -1c0,0 0,0 0,0 0,0 0,0 0,0zm2 0l0 0c0,0 0,0 0,0 -1,0 -1,0 -1,0l0 0c0,0 0,0 0,0l1 0zm1 1c0,0 0,0 0,0 -1,0 -2,-1 -2,0 0,0 2,1 0,1 0,0 -1,-1 -1,-1l0 0c0,0 0,-1 -1,-1 1,0 1,0 2,0 0,0 2,0 2,0 0,0 0,0 0,0 0,0 0,0 0,1z"></path> <path class="fil0" d="M105 25c0,-1 0,-1 0,-1 -1,1 -1,0 -1,1 1,0 1,0 1,0zm-1 -1l0 0 0 0 0 0 0 0zm1 0c0,0 0,0 0,0 0,0 0,0 0,0zm0 0l-1 0 0 0c1,0 0,0 1,0zm0 -1c0,0 0,0 0,0l0 0c0,0 0,0 0,0zm0 0l0 0zm0 0c0,0 0,0 0,0 0,0 0,0 0,0zm0 0l0 0c0,0 0,0 0,0zm1 1c-1,0 -1,1 -2,1 0,0 0,-1 0,-1 0,-1 0,0 0,-1 0,0 0,0 0,1 0,-1 1,-2 1,-1 0,0 0,0 1,1z"></path> <path class="fil0" d="M160 27c0,0 0,0 0,0 0,0 0,0 0,0 0,0 0,0 0,0zm-1 -1c0,0 0,0 0,1 0,0 0,0 0,-1zm3 0c-1,0 -1,1 -1,1 -1,0 -1,1 -1,1 0,-1 0,0 0,-1 -1,0 -1,0 -1,-1 1,0 1,1 2,0 0,0 0,0 0,0 0,0 0,0 0,0 1,0 1,0 1,0z"></path> <path class="fil0" d="M162 28c-1,0 -1,0 -1,0 0,0 0,0 0,0 0,0 0,0 0,0 0,0 0,0 0,0 0,-1 1,-2 1,-1 1,0 1,0 0,1 0,0 0,0 0,0z"></path> <path class="fil0" d="M154 28l0 0c0,0 0,0 0,0zm1 -1c0,0 0,0 0,0 0,0 0,1 0,0zm0 0l0 0c0,0 0,0 0,0zm1 -1c0,0 0,0 0,0 0,0 0,0 0,0zm-2 2c0,0 0,0 1,-1 0,0 0,0 0,0 0,0 0,0 1,-1 0,0 0,-1 0,-1 1,0 0,1 0,1l0 1c0,0 0,0 0,0 -1,1 -1,0 -1,1 -1,0 -1,0 -1,0z"></path> <path class="fil0" d="M171 38c0,0 0,0 0,1 0,0 0,0 0,0 -1,-1 -1,-7 0,-7 0,0 0,0 0,1 0,1 0,3 0,4 0,0 0,0 0,0 0,1 0,1 0,1z"></path> <path class="fil0" d="M166 33c0,0 0,0 0,1l0 0c0,0 0,0 -1,1 0,0 1,0 0,1 0,0 0,1 0,1 0,-1 0,-1 0,-2 0,-1 0,0 0,-1 0,0 0,0 1,0 0,-1 -1,0 0,-1l0 0c0,0 0,0 0,0 0,0 0,0 0,0z"></path> <path class="fil0" d="M81 57c0,0 0,0 0,0 0,0 0,0 0,0zm0 0c0,0 0,0 0,0 0,0 0,0 0,0zm2 -2c-1,1 -1,0 -1,1 0,0 0,0 0,0 0,0 0,0 0,0l-1 1c0,0 0,1 -1,1 0,-1 0,-1 1,-1 0,-1 0,-1 0,-1l1 0c0,-1 0,-1 1,-1z"></path> <path class="fil0" d="M117 61l0 0 0 0 0 0 0 0zm1 0c0,1 -1,0 -2,0l0 0c1,0 1,0 1,-1 0,0 1,1 1,1z"></path> <path class="fil0" d="M158 23c0,0 0,0 0,1l0 0c0,0 0,0 0,0 0,0 -1,-1 -1,-1 0,0 0,0 0,0 0,0 1,0 1,0 0,0 0,0 0,0z"></path> <path class="fil0" d="M121 30l0 0c-2,0 -3,1 -3,0 0,0 1,0 1,0 1,0 0,0 1,0 0,0 0,0 1,0z"></path> <path class="fil0" d="M96 138c0,1 0,1 -1,0 0,0 -2,0 -2,0l0 0c1,0 2,0 3,0z"></path> <path class="fil0" d="M101 125l0 1c-1,0 0,0 -2,0 0,0 0,0 0,0 0,0 0,0 0,0 1,0 1,-1 2,-1z"></path> <path class="fil0" d="M118 30c-1,1 -1,1 -1,1 0,0 0,0 0,0 0,-1 0,0 0,-1 1,0 0,0 1,0l0 0z"></path> <path class="fil0" d="M157 22c-1,1 -1,1 -1,1 0,0 0,0 0,0 0,-1 0,0 0,-1l0 0c0,0 0,0 1,0z"></path> <path class="fil0" d="M164 38c0,1 0,1 0,1 0,0 0,0 0,-1 0,0 0,0 0,0 0,0 0,0 0,0z"></path> <path class="fil0" d="M164 38c0,-1 0,-1 1,-1 0,0 0,0 0,0 0,1 0,1 -1,1z"></path> <path class="fil0" d="M164 40l0 1c0,0 0,0 0,-1 0,-1 0,0 0,0 0,0 0,0 0,0z"></path> <path class="fil0" d="M74 78c0,0 0,0 0,0 -1,0 -1,0 -1,0 1,0 1,0 1,0z"></path> <path class="fil0" d="M102 125c0,0 0,0 -1,0 0,0 0,0 0,0 0,0 1,0 1,0z"></path> <path class="fil0" d="M157 42c0,0 0,0 0,0 0,0 0,0 0,-1 0,0 0,0 0,0 0,0 0,0 0,1z"></path> <path class="fil0" d="M73 78c0,0 0,-1 0,-1 0,0 0,0 0,1z"></path> <path class="fil0" d="M158 41c0,0 0,0 0,0 -1,0 0,0 -1,0 0,0 0,0 0,-1 1,0 0,0 1,1z"></path> <path class="fil0" d="M157 43c0,0 0,0 0,0l0 0c0,0 0,0 0,-1l0 0c0,0 0,0 0,1z"></path> <path class="fil0" d="M99 126l-1 0c0,0 0,0 0,0 0,0 0,0 1,0z"></path> <path class="fil0" d="M157 43c0,0 0,0 -1,1 0,-1 0,-1 0,-1 1,0 1,0 1,0z"></path> <path class="fil0" d="M122 32c-1,0 -1,0 -1,0l0 0c0,0 1,0 1,0z"></path> <path class="fil0" d="M121 31c-1,0 -1,0 -1,0 0,0 1,0 1,0z"></path> <path class="fil0" d="M98 130c0,0 0,0 0,0 0,0 0,0 0,0z"></path> <path class="fil0" d="M91 129l0 0c0,0 0,0 0,0 0,0 0,0 0,0 1,0 0,0 1,0l-1 0z"></path> <path class="fil0" d="M104 126l0 1 -1 0c0,-1 0,-1 1,-1z"></path> <path class="fil0" d="M97 131l0 0 1 0c0,0 0,0 -1,0z"></path> <path class="fil0" d="M125 56c0,0 0,0 0,0l0 0 0 0z"></path> <path class="fil0" d="M91 138c0,0 0,0 -1,0 1,0 1,0 1,0z"></path> <path class="fil0" d="M166 32c1,0 0,0 1,0 0,0 0,0 -1,0z"></path> <polygon class="fil0" points="84,134 83,134 83,134 84,134 "></polygon> <path class="fil0" d="M97 131c0,-1 0,-1 0,-1 0,1 1,0 0,1z"></path> <path class="fil0" d="M88 135l0 -1 0 0c0,1 0,0 0,1z"></path> <polygon class="fil0" points="87,133 87,133 87,133 87,133 "></polygon> <path class="fil0" d="M97 131l0 0 0 0c0,0 0,0 0,0z"></path> <polygon class="fil0" points="92,138 92,138 92,138 92,138 "></polygon> <polygon class="fil0" points="98,138 98,138 98,138 98,138 "></polygon> <polygon class="fil0" points="87,133 86,133 86,133 87,133 "></polygon> <path class="fil0" d="M115 20l-1 0c0,0 0,0 1,0z"></path> <path class="fil0" d="M98 134c0,0 0,0 0,0l0 0 0 0z"></path> <polygon class="fil0" points="88,135 87,135 87,135 88,135 "></polygon> <path class="fil0" d="M98 138c0,0 1,0 0,0 0,0 0,0 0,0 0,0 0,0 0,0z"></path> <polygon class="fil0" points="89,136 88,136 88,136 89,136 "></polygon> <path class="fil0" d="M159 24c0,0 0,0 0,0l0 0z"></path> <path class="fil0" d="M88 136c0,0 0,0 0,0 0,0 0,0 0,0z"></path> <path class="fil0" d="M87 136c0,0 0,0 0,0 0,0 0,0 0,0z"></path> <path class="fil0" d="M90 129c0,0 0,0 0,0 0,0 0,0 0,0z"></path> <path class="fil0" d="M86 133c0,0 0,0 0,0 0,0 0,0 0,0z"></path> <path class="fil0" d="M90 130c0,0 0,0 0,0l0 0z"></path> <polygon class="fil0" points="89,137 89,137 89,137 "></polygon> <polygon class="fil0" points="88,133 88,133 88,133 "></polygon> <polygon class="fil0" points="89,131 89,131 89,131 "></polygon> <polygon class="fil0" points="88,132 88,133 88,132 "></polygon> <polygon class="fil0" points="89,136 89,136 89,136 "></polygon> <polygon class="fil0" points="88,134 88,134 88,134 "></polygon> <polygon class="fil0" points="88,134 87,134 87,133 "></polygon> <polygon class="fil0" points="88,132 88,132 88,132 "></polygon> <polygon class="fil0" points="91,138 91,138 91,138 "></polygon> <polygon class="fil0" points="88,132 88,132 88,132 "></polygon> <polygon class="fil0" points="88,133 88,133 88,133 "></polygon> <polygon class="fil0" points="90,129 90,129 90,129 "></polygon> <polygon class="fil0" points="89,136 89,136 89,136 "></polygon> <polygon class="fil0" points="88,132 88,132 88,132 "></polygon> <path class="fil0" d="M89 131c0,0 0,0 0,0l0 0c0,0 0,0 0,0z"></path> <path class="fil0" d="M97 130c0,0 0,0 0,0l0 0c0,0 0,0 0,0z"></path> <path class="fil0" d="M89 137c0,0 0,0 0,0l0 0c0,0 0,0 0,0z"></path> <path class="fil0" d="M89 131c0,0 0,0 0,0l0 0c0,0 0,0 0,0z"></path> <path class="fil0" d="M202 125c0,0 0,0 0,0l0 0c0,0 0,0 0,0z"></path> <path class="fil0" d="M90 137c0,1 0,0 0,0l0 0c0,0 0,0 0,0z"></path> <path class="fil0" d="M89 132c-1,0 -1,0 -1,0l0 0c0,0 1,0 1,0z"></path> <path class="fil0" d="M85 134c0,0 0,-1 0,-1l0 0c0,0 0,1 0,1z"></path> <path class="fil0" d="M99 137c0,0 0,0 0,0 0,0 0,0 0,0 0,0 0,0 0,0l0 0z"></path> <path class="fil0" d="M86 135l0 0c0,0 0,0 0,0z"></path> <path class="fil0" d="M90 138l0 0c0,0 0,0 0,0z"></path> <path class="fil0" d="M98 130l0 0c0,0 0,0 0,0z"></path> <path class="fil0" d="M89 132l0 0c0,0 0,0 0,0z"></path> <path class="fil0" d="M89 131l0 0c0,0 0,0 0,0z"></path> <path class="fil0" d="M88 133l0 0c0,0 0,0 0,0z"></path> <path class="fil0" d="M88 133l0 0c0,0 0,0 0,0z"></path> <path class="fil0" d="M89 131l0 0c0,0 0,0 0,0z"></path> <path class="fil0" d="M91 138c0,0 0,0 0,0l0 0z"></path> <polygon class="fil0" points="89,130 89,130 "></polygon> <polygon class="fil0" points="91,129 90,129 "></polygon> <polygon class="fil0" points="89,130 90,130 "></polygon> <polygon class="fil0" points="90,129 90,130 "></polygon> <polygon class="fil0" points="89,137 89,137 "></polygon> <polygon class="fil0" points="89,137 90,137 "></polygon> <polygon class="fil0" points="89,130 89,130 "></polygon> <polygon class="fil0" points="89,131 89,131 "></polygon> </g> <path class="fil1" d="M17 156l0 0c0,0 1,0 0,0zm35 41l0 0 0 1c0,0 0,0 0,1 0,0 0,1 -1,2 0,0 0,1 0,2 0,0 0,0 0,0 0,1 0,1 0,1 0,1 0,1 -1,1 0,1 0,1 0,1 0,0 0,0 0,1l-1 5 -4 10c0,0 0,0 0,0l-1 1c0,1 0,0 0,1l-2 3c0,0 0,0 0,1l-1 1c0,1 0,2 -1,2 0,0 0,1 0,1l-1 1c-1,0 0,0 -1,0 0,1 -1,1 -1,2 0,0 0,0 0,0 0,0 0,0 0,0 0,0 -1,1 -1,1 -1,0 -1,1 -1,1l-1 0c0,0 0,0 0,0l-1 0c-1,1 -4,1 -5,0 0,0 0,0 0,0l-2 -1c0,0 -1,0 -1,-1l-1 0c0,0 -1,-1 -1,-1l-2 -2c0,0 0,0 0,0 0,-1 0,-1 0,-1 0,1 0,1 0,1 0,1 0,1 1,2 0,0 0,0 0,0l0 0c1,1 0,0 1,1l0 0c0,0 0,0 0,1l1 0c0,0 0,0 0,0 0,1 1,1 2,2l1 0c1,1 2,1 2,1 1,1 3,1 3,1 1,0 2,0 2,0 1,-1 1,-1 1,-1l2 0 3 -4c0,0 1,-1 2,-2l2 -3c0,-1 0,-1 0,-1l2 -3c0,0 0,0 0,0 0,0 0,0 0,0l1 -3c0,0 0,0 0,0l1 -3c0,0 0,0 0,0l1 -2c1,-1 1,-1 1,-2 0,0 0,-1 0,-1 0,-1 0,-1 1,-2 0,0 0,-1 0,-2l1 -3c0,-2 0,-2 1,-3l0 -4c0,0 0,0 0,-1 1,0 1,-1 1,-1 0,-2 0,-3 0,-4 1,-5 1,-9 2,-13 1,-1 1,-1 1,-1 0,0 0,-1 0,-1 0,-1 0,-3 0,-4 0,-1 0,-1 1,-2 0,0 0,-1 0,-2l0 -4c0,0 0,-1 0,-2 0,-1 1,-1 1,-2 0,-2 0,-1 0,-4 0,-1 0,-3 0,-4l0 -2c0,0 0,-1 0,-2 0,0 0,0 0,0 -1,-1 0,-1 -1,-1 0,1 0,0 0,2 0,2 0,4 -1,6l0 4c0,2 0,3 0,3 0,2 -1,2 -1,2 0,1 0,1 0,1 0,1 0,1 0,2l0 4c-1,3 -3,17 -4,22zm199 -69c0,0 -1,2 -2,2 0,0 0,0 0,0l-1 2c-1,1 -2,0 -4,0 -1,0 -1,0 -2,0 -1,0 -1,0 -2,0l-8 0c-1,0 0,0 -1,0 0,0 0,0 -1,0 0,0 -1,0 -2,0 0,0 -1,0 -1,0l-4 0c-2,0 -3,0 -5,0 -1,0 -2,-1 -4,-1l-6 0c-2,0 -2,0 -4,0 -1,0 -2,0 -3,0 0,-1 0,-1 0,-1 1,-1 2,-2 3,-3 0,0 0,0 0,0l1 0c0,0 0,0 0,0 0,0 0,-1 0,-1l2 -1c1,-1 3,-2 4,-4 1,0 0,0 1,0l1 0c0,-1 0,-1 0,-1 1,0 1,0 1,0l1 -1c1,-1 2,-1 3,-1l1 -1c1,0 3,-1 4,-1 0,0 0,0 1,0 1,-1 5,0 6,0l7 1c0,1 1,1 1,1 0,0 0,0 1,0 0,0 0,0 1,1 0,0 0,0 0,0l3 2c1,0 0,0 1,0l1 1c1,1 2,1 2,1l1 1c0,0 0,0 0,0l3 3c0,0 0,0 0,1zm0 14c0,0 -1,0 -2,1l-1 0c0,0 -1,2 -2,2l-1 1c-1,0 -1,0 -1,0l-8 4c0,0 0,0 0,0 0,0 0,0 -1,0 -1,1 -4,3 -6,3 0,0 -1,0 -1,0 0,1 0,1 -1,1 0,0 0,-1 -1,-1 0,0 -1,0 -1,0 -6,-2 -10,-4 -14,-7 -1,-1 -1,-1 -2,-2l-2 -1c0,0 0,0 0,0l-2 -2c0,0 0,0 0,0l-1 0c0,-1 0,0 0,-1l-2 -1c0,0 0,0 0,0 0,-1 -1,-1 -2,-2 0,0 0,0 -1,0l-2 -1c0,0 0,0 0,0 0,0 2,0 2,0 1,0 1,0 1,0 0,0 1,0 1,0 0,0 0,0 1,1l5 1c1,0 1,0 1,0l6 1c1,0 2,1 2,1l3 0c0,0 1,0 2,0 0,1 1,0 1,1 2,0 6,0 8,0 0,-1 2,0 2,-1l3 0c0,0 1,0 2,0 1,-1 3,-1 4,-1 1,0 2,0 3,-1 1,0 3,0 4,0 0,0 0,0 0,0 0,0 0,0 0,0l3 3c0,0 0,0 0,1zm0 -7c0,1 -1,0 -3,1l-6 0c-1,0 -1,1 -3,1 -1,0 -2,0 -3,0l-3 0c-1,0 -1,0 -2,0l-5 0c-3,0 -7,0 -10,0l-3 0c-1,0 -2,-1 -4,-1 0,0 -1,0 -1,0l-4 -1c-1,0 -3,0 -4,0 -1,0 -2,0 -3,-1 0,0 0,0 0,-1 0,-1 0,-1 1,-1 1,0 1,0 2,0 0,0 0,-1 1,-1 0,0 1,0 1,0 1,1 3,0 4,0l5 1c2,0 1,0 3,0l9 0c1,0 2,0 3,0 3,0 5,1 8,1 1,0 1,0 2,0 1,0 2,0 3,0 2,0 5,0 7,0 1,0 1,0 2,0 0,0 1,0 1,0 1,1 2,1 2,2 0,0 0,0 0,0zm-203 -86c0,0 0,0 0,1 -1,-1 -1,-2 -1,-3 0,0 -1,-2 -1,-3l-2 -3c0,-1 -1,-2 -2,-3l-2 -2c0,0 0,0 0,0 0,-1 -1,-1 -1,-2 -1,0 -2,-1 -2,-1l-2 -1c-1,0 -1,0 -1,0 0,-1 0,-1 0,-1l-3 0c-1,0 -1,0 -2,0 0,0 0,0 -1,0l-1 1c-1,1 -2,1 -3,2 0,0 0,0 0,0 -1,1 -2,2 -3,3l0 0c0,0 0,0 0,0l-1 1c0,0 0,0 0,0 0,0 0,0 0,0 0,0 0,0 0,0 0,0 0,0 0,0l-1 3c0,0 0,0 0,0 -1,0 0,0 -1,0 0,0 0,0 0,1 0,0 0,0 0,0 0,1 -1,1 -1,1l-1 3c0,0 0,0 0,0 0,1 0,1 -1,1l-2 6c0,1 -1,3 -2,4l-1 5c0,1 0,1 -1,2 0,1 0,1 0,2 0,1 0,1 0,1 -1,1 -1,2 -1,2l0 2c0,0 0,0 0,1l-1 4c-1,1 -1,3 -1,4 0,1 0,1 0,2 0,1 0,2 0,4 0,0 -1,0 -1,0 0,1 0,1 0,1 0,1 0,2 0,2 0,1 0,1 0,2l-1 6c0,1 0,1 0,1 0,1 0,1 0,2 0,1 0,3 0,4l-1 1c0,1 0,1 0,2l0 4c0,1 0,2 0,4 0,0 0,1 0,1 -1,3 0,5 -1,6 0,2 0,6 0,7 0,1 0,3 0,4 0,0 0,1 0,1 0,0 0,0 0,0l0 2c0,0 0,0 0,0 0,1 0,1 0,1 0,1 0,1 0,1 0,0 0,0 0,0l0 2c0,-1 0,-1 0,-1 0,1 0,1 0,1l0 0c0,0 0,0 0,0l0 2c0,0 0,0 0,0 1,1 0,0 0,1l0 2c0,1 0,2 0,3 0,0 0,0 0,1 0,0 0,0 0,1 0,1 0,1 0,2 1,1 1,2 1,2 0,1 0,2 0,3 0,0 0,1 0,2 0,1 0,6 0,7 1,0 1,0 1,1 0,2 0,3 0,5l1 4c0,1 0,2 0,2 0,1 0,1 0,1 0,1 0,1 0,1 1,1 0,0 1,1l0 2c0,0 0,3 0,4 0,1 1,3 1,4l0 3c0,0 0,1 1,1 0,1 -1,1 0,2l0 5c1,1 1,1 1,1 0,2 0,1 0,2 0,1 0,1 0,1 0,1 0,2 0,3 0,0 0,0 0,0 -1,-1 -1,-1 -1,-1l0 -2c-1,-1 0,0 -1,-1 0,-1 0,-1 0,-2l0 -3c0,0 0,-1 0,-1 -1,-1 -1,-1 -1,-2l-1 -5c0,-1 0,-1 0,-1 0,-1 0,-1 0,-1 0,-1 0,-2 0,-3 0,0 0,0 0,-1 -1,-1 -1,0 -1,-1 0,-2 0,-2 0,-4l-1 -5c0,-1 0,-2 0,-3l-1 -2c0,-1 0,-1 0,-2 0,-1 0,-1 0,-1 0,-1 0,-1 0,-2 0,-1 0,0 0,-2 0,-2 -1,-4 -1,-7 0,-1 0,-2 0,-3 0,0 0,-1 0,-2 0,0 0,-1 0,-1 0,-1 -1,-1 -1,-1 0,-1 0,-3 0,-5l0 0 0 -3c0,-1 0,-2 0,-3 0,0 0,0 0,-1l0 -2c0,1 0,0 0,-1l0 -1c0,0 0,0 0,0l0 -2c0,0 0,0 0,0 0,-3 0,-6 0,-8 0,-1 0,-1 0,-1l0 -9c0,-1 0,-1 0,-2 0,-3 1,-3 1,-5 0,-2 0,-3 0,-4 0,-3 1,-5 1,-7 0,-1 0,-2 0,-2 0,-1 0,-1 0,-2 0,-1 0,-1 0,-2 0,-1 1,-1 1,-2l0 -3c0,0 0,-1 0,-2l1 -3c0,-2 0,-1 0,-3 0,0 0,0 0,-1 0,-1 0,-1 0,-2 0,-1 1,-2 1,-3 0,-1 0,-1 0,-2 0,0 0,0 0,0 0,-1 0,-1 0,-1l2 -7c0,0 0,0 0,0l4 -12c0,-1 1,-2 1,-3l1 -2c0,0 0,0 0,0l1 -2c0,-1 0,-1 0,-1 1,0 1,0 1,-1l0 0c0,-1 0,-1 0,-1 1,-1 2,-3 3,-5 1,0 1,-1 1,-1l2 -2c0,0 0,0 0,0 1,-1 3,-3 4,-3 0,0 0,0 1,-1l1 0c1,0 0,0 1,0l2 0c0,0 0,0 0,0 1,0 2,0 2,0 1,1 2,1 3,2 0,0 0,0 0,0l1 1c1,0 1,0 1,0 0,0 0,0 0,0l5 5c0,1 0,1 0,1l1 2c1,0 1,1 1,2l2 4c0,0 1,0 1,1 0,0 0,1 0,1 0,1 0,1 1,1 0,1 0,2 0,2zm81 -9c-1,0 -1,0 -2,0 0,0 -1,-1 -2,-1 0,0 -1,0 -1,0 -1,0 -1,0 -1,0 0,0 -1,0 -1,0 -1,0 0,0 -2,-1 0,0 -1,0 -2,0l-3 0c0,0 0,0 0,0 0,0 0,0 0,0 0,0 -1,0 -1,-1 1,0 1,0 1,0 1,0 1,0 2,0 1,0 5,0 6,0 1,0 1,0 2,0 1,0 1,0 2,0 1,0 1,-1 2,-1 0,0 0,1 1,0 1,0 1,0 2,-1 1,0 1,0 2,0l0 0c0,0 0,0 0,0l7 -4c1,0 1,0 2,-1 1,0 1,0 2,0 0,0 1,0 1,0 1,0 0,0 0,1l0 1c0,1 0,3 -1,4 0,0 -1,0 -1,0 -1,0 -1,1 -1,1 -1,0 0,0 -1,0l-6 2c-1,0 -1,0 -1,0 -2,1 -2,0 -3,1 -1,0 -1,0 -1,0 -1,0 -1,0 -2,0zm13 99c0,0 0,0 0,-2l-1 -8 8 0c1,0 2,-1 1,1 0,0 0,-1 0,0l-1 2c0,1 0,1 -1,1 0,0 0,1 0,1 0,0 0,1 0,1 0,1 0,1 0,2 0,1 -1,1 -1,1 0,2 0,1 -4,1 0,0 0,0 -1,0zm110 -3l0 1c-1,0 -1,0 -1,0 -2,0 -3,0 -4,0l-2 1c0,0 0,0 -1,0 -1,0 -6,1 -7,1 -3,1 -10,0 -14,0l-3 0c0,0 -1,0 -1,0 0,0 -3,-1 -4,-1 0,0 -1,0 -1,0 -1,0 -1,0 -2,0l-2 -1c-1,0 -1,0 -2,0 0,0 0,0 0,0 -1,0 -1,0 -1,0 1,-1 4,0 5,0 1,0 2,0 4,0l8 1c0,0 0,0 0,0 1,0 1,0 1,0l3 0c3,-1 5,0 8,-1 1,0 2,0 3,0l6 -1c0,0 0,0 1,0l2 0c1,0 2,0 4,0zm-194 16c0,-1 0,-1 0,0 0,0 0,0 0,0zm-7 -92c1,1 1,1 1,2 0,1 0,0 1,1 0,1 0,2 0,2l1 4c0,0 0,1 0,1 1,1 1,3 1,4 0,1 0,1 0,2 0,0 0,0 0,1l0 0c1,1 1,0 1,1 0,0 0,1 0,1 0,2 0,3 0,4 0,1 1,1 1,2 0,1 0,1 0,2 0,1 0,1 0,2 0,1 0,3 0,4 1,1 1,4 1,6 0,1 0,1 0,2 0,1 0,1 0,2l1 11c0,1 0,1 0,1 -1,0 -1,-1 -1,-1 -1,-3 0,-2 0,-5l-1 -5c0,0 0,0 0,-1 0,-2 0,-4 0,-6 0,-1 0,-2 0,-4l-2 -12c0,0 0,-1 0,-1 0,-1 0,-2 0,-2 0,-2 -1,-2 -1,-3 0,-1 0,-2 0,-3 0,-1 0,-1 0,-1 0,0 0,0 -1,-1l0 -1c0,-1 0,-1 0,-2l-1 -3c0,0 0,0 0,-1l-1 -1c0,-1 0,0 0,-1l-1 -3c0,-1 0,-1 0,-1 0,-1 -1,-2 0,-1 1,0 1,1 1,2 0,0 0,0 0,0 0,1 0,0 0,1 0,0 0,0 0,0l0 1c0,0 0,0 0,0zm134 71l0 0c1,0 2,0 3,0 0,0 0,0 0,1 0,0 0,0 -1,0 0,1 0,1 0,1l0 2c0,0 0,0 0,1 0,0 0,1 0,2l-3 0c-1,0 -2,0 -2,0l-5 0c-3,0 -2,0 -2,-1 -1,-1 -1,-1 -1,-2 0,-1 0,-1 0,-2 0,0 0,0 -1,0 0,-1 0,0 -1,0 0,-1 0,-1 0,-2 0,0 0,-1 0,-1 0,0 0,1 1,1 0,0 0,0 0,1l2 1c0,1 0,1 0,1 1,0 3,1 4,1 0,0 1,1 2,1 1,0 3,-1 4,-2 0,0 0,0 0,0 0,-2 0,-3 0,-3zm-126 -1c0,0 0,0 0,0 0,0 0,0 0,0 0,0 0,0 0,0zm94 9c0,0 0,0 0,0l-2 0c-1,0 0,0 -1,0 0,0 0,-4 0,-4 0,0 0,0 0,-1 1,0 1,-1 1,-1 0,0 0,0 1,1l1 4c0,0 0,1 0,1zm-13 0c-1,0 -1,0 -1,0 0,0 0,0 0,0 -1,0 -1,0 -1,0 0,-1 0,-2 0,-4 0,-1 0,-2 0,-3 0,-1 0,-2 0,-3 1,0 1,0 1,2 0,1 0,1 0,2 0,1 0,1 0,2l0 1c0,0 0,0 0,0 0,1 0,1 0,2 0,0 1,1 1,1zm-4 0c-1,0 -1,0 -1,-1 0,-2 0,-5 0,-7 0,-1 0,-2 1,-2 0,0 0,1 0,3l1 3c0,2 0,2 0,3 0,1 0,0 -1,1 -1,0 0,0 0,0 0,0 0,0 0,0zm-6 0c0,0 -1,0 -2,0 0,-1 0,-2 0,-3 0,-2 0,-2 0,-3 0,0 0,1 0,-1 0,0 1,-1 1,-1l0 2c0,2 0,1 0,2 0,0 0,1 0,2 0,1 1,1 1,2zm25 -5c0,0 0,-1 0,-1l-1 -1c0,0 0,0 0,0l-1 -2c0,-1 0,0 0,-1l4 0c0,1 0,0 -1,1 0,0 0,0 0,0l-1 2c0,1 1,1 0,2zm-22 5c-1,0 -1,0 -1,0 0,0 0,-3 0,-5l0 -3c0,-1 0,-2 1,-2 0,0 0,2 0,3 0,1 0,2 0,2l0 4c0,1 0,1 0,1zm-29 -8l0 0 1 0c0,1 0,0 0,0 0,1 0,0 0,1 0,0 0,0 1,0l0 1 -1 0c0,0 0,0 0,0 0,0 0,0 0,0l0 0 -1 -1c0,0 -1,0 -1,0 0,-1 1,0 1,-1 -1,0 0,1 -1,1 -1,0 0,0 0,-1 -1,0 -1,1 -1,-1 0,0 0,0 1,0 0,0 0,0 1,0 0,1 0,0 0,1zm56 8c-1,0 -1,0 -1,0 -1,0 -1,0 -1,-1 0,-1 0,-1 0,-2 0,-1 0,-2 0,-2l1 0c0,1 0,1 0,1l0 1c0,1 0,1 1,2 0,0 0,0 0,1zm-52 -8c0,1 1,0 -1,1 0,0 0,0 0,0 0,0 -1,0 -1,-1 -1,0 -1,0 -1,0 -1,-1 0,0 0,-1 0,0 0,0 0,0 1,0 2,0 3,0 0,1 0,1 0,1zm82 2l0 3c0,1 1,1 1,1 -1,0 -2,1 -2,0 0,-2 0,-3 1,-4 0,0 0,0 0,-1 0,0 0,0 0,0 0,-1 0,-1 0,-1 1,0 0,1 0,2zm-76 2l0 0c-1,0 -1,1 -2,1l-1 0c0,-1 0,-1 0,-1 0,0 0,0 0,0l1 -1c1,1 1,1 2,1zm56 -5c-1,0 -1,0 -1,1 0,2 0,2 -1,2l0 -2c0,0 0,0 -1,-1 0,0 0,0 0,0 1,-1 2,-1 3,0zm-66 4c0,0 0,0 -1,0 0,0 0,0 0,1l-1 0 0 0 0 0c0,-1 0,-2 0,-3l1 0c0,1 0,0 0,1 1,1 1,0 1,1zm5 4c-1,0 -2,0 -3,0 0,0 0,0 0,0 -1,-1 -1,0 -1,-1 1,0 1,0 2,-1 0,0 0,0 1,1 0,0 0,0 0,0 0,0 1,0 1,1zm2 -2l-1 1c0,0 -1,0 -1,0 0,0 -1,-1 0,-1 0,-1 0,0 0,-1 0,0 1,0 1,1 1,0 1,0 1,0zm1 -2l-2 0c0,0 0,0 0,0 -1,0 0,1 -1,0 -1,-1 0,0 0,0 0,0 -1,-1 0,-1 1,0 1,-1 2,0 0,0 0,0 1,1zm81 -3l0 0c0,1 0,2 0,2 0,1 0,1 0,2 0,0 -1,1 -1,0 0,-1 0,-2 0,-3 0,0 0,-1 1,-1zm-31 0c0,0 0,1 -1,-1 0,0 0,0 0,0 0,0 0,0 0,0 0,-1 0,0 0,-1 0,0 1,0 1,0 1,0 2,0 1,1l0 0c0,0 0,0 0,0 -1,1 -1,1 -1,1zm-55 5c0,0 -1,0 -1,0 -1,1 -1,0 -1,1 0,0 -1,0 -1,-1 0,0 1,-1 1,-1 1,0 1,0 1,0 0,1 0,1 1,1zm10 -2c-1,1 0,0 -1,0 0,1 -1,1 -2,0l0 0c0,0 0,0 0,-1 0,0 1,0 1,0 1,0 1,1 2,1zm-3 4c0,-1 0,0 -1,-1 1,0 1,0 1,-1 1,0 1,0 1,0 0,0 0,0 0,0 0,0 1,0 1,1 0,0 0,0 -1,0 0,0 0,1 -1,1zm0 -5l-1 0c0,0 0,0 0,0 -1,0 0,0 -1,0 0,-1 -1,-1 0,-1 1,-1 1,-1 2,0 0,0 0,0 0,0 0,0 0,0 0,1zm-5 2l0 0c-1,0 -2,1 -3,0 1,-1 1,-1 2,-1 0,0 0,0 0,0 1,1 0,1 1,1zm4 3l0 0c0,0 -1,0 -2,0 0,0 0,0 0,0 0,-1 0,0 0,-1 1,0 1,0 2,0 0,1 0,0 0,1zm6 -5c0,1 -1,1 -1,1 0,0 -2,-1 -2,-1 1,0 1,-1 2,-1 0,1 1,1 1,1zm-9 -1c-1,1 -1,1 -2,1l0 0c0,-1 -1,0 -1,-1 1,0 1,0 1,0 0,0 0,0 0,0 0,0 2,-1 2,0zm11 1c0,0 0,0 -1,0 0,0 0,0 -1,-1 0,0 0,0 0,0 0,0 1,0 1,0 0,0 1,0 1,1zm-4 -2c-1,1 -1,1 -2,1 0,0 -1,0 -1,-1 0,0 0,0 1,0 1,-1 1,0 2,0zm2 7c0,1 -2,0 -2,1 -1,0 -1,0 -1,-1 0,0 1,0 1,0 1,0 0,0 1,0 0,0 0,0 0,0 1,0 1,0 1,0zm0 -7c-1,1 -1,0 -2,0 0,0 0,0 0,0 0,0 0,0 0,0 0,-1 0,-1 0,-1 1,0 2,0 2,1zm-14 4c-1,0 -1,1 -1,1 -1,0 -1,0 -1,0l0 -1c0,0 0,0 1,0l0 -1c1,0 1,0 1,1zm-57 -84l1 1c1,0 0,1 1,2 0,0 0,0 0,0 -1,1 -1,-1 -1,-1 0,0 0,0 0,-1 -1,0 -1,0 -1,-1zm73 87c0,0 0,0 -1,0 -1,-1 -1,0 -1,-1 1,-1 2,0 2,0 0,0 0,0 0,1zm-2 -2l-1 0c0,0 0,0 -1,0 0,0 1,0 0,0 0,0 0,0 0,-1 1,0 0,0 1,0 1,1 1,1 1,1zm7 2l0 1 -1 0 -1 -1c0,0 -1,0 -1,0l1 0c1,0 0,0 1,0 0,0 0,0 1,0zm-19 -4c0,0 -1,1 -2,0 0,0 0,0 0,-1 1,0 2,-1 2,1zm-6 -3c0,0 0,0 0,0 0,0 0,0 0,1 0,0 0,0 0,0 0,0 0,1 0,1 0,0 0,0 0,0 0,0 0,0 0,0l0 1c0,0 0,0 0,0 0,0 0,0 0,0 -1,0 -1,0 -1,0l0 -4c1,1 1,1 1,1zm11 0l0 0c-1,0 0,0 -1,1 0,0 0,0 -1,-1 0,0 0,0 1,0 1,0 1,0 1,0zm14 5c-1,0 -1,1 -1,1 0,0 -1,-1 -1,-1 0,0 0,0 0,0 1,-1 0,-1 1,-1 0,0 0,0 0,1 0,0 1,0 1,0zm-3 -2c-1,1 -1,0 -2,0 0,0 0,0 1,0 0,0 0,0 0,0 1,0 1,0 1,0zm6 -4c0,0 0,1 -1,1 0,0 0,-1 0,-1 0,-1 1,-1 1,0zm-7 6c1,0 0,0 1,0 0,1 0,1 0,1 0,1 -1,0 -1,-1zm-1 -1c-1,0 -1,1 -2,0l0 0c1,0 0,0 1,-1 0,0 0,0 0,1 1,0 1,0 1,0zm-6 -5c0,1 -2,1 -2,1l0 -1c1,0 1,0 2,0zm8 2c-1,0 -2,0 -2,0 0,-1 1,-1 1,-1l0 0c0,1 1,0 1,1zm-12 -2c-1,1 -1,1 -2,0 0,0 0,0 1,0 0,0 1,0 1,0zm14 2c-1,0 -1,0 -1,0 0,0 0,0 0,0l0 -1c0,0 0,0 0,0 -1,0 -1,0 -1,0 1,0 1,0 1,0 1,0 1,0 1,1zm-2 7c0,0 0,0 -1,0 0,0 0,0 -1,0 0,-1 1,-1 1,-1 1,0 1,0 1,0l0 1c0,0 0,0 0,0zm-2 -9l-1 1c0,0 0,0 0,-1 -1,0 0,0 -1,0 1,-1 2,0 2,0zm-18 9c-1,0 -1,0 -2,-1 0,0 0,0 0,0 1,0 1,0 1,0l1 0c0,0 -1,0 0,0 0,1 0,0 0,1zm22 -5c0,0 -1,0 -1,0 0,0 0,0 0,-1 1,0 1,1 1,1zm-23 3c0,0 0,0 0,0 0,0 0,0 0,0 0,0 0,0 0,0 0,-1 -1,-1 0,-1l0 1zm21 -7c0,0 -1,0 -1,0l0 0 0 0c1,0 1,0 1,0zm50 3c0,1 0,1 0,1 0,0 0,0 0,-1 0,0 0,0 0,0 0,0 0,0 0,0zm-7 5c0,0 0,0 0,1 -1,-1 -1,-2 0,-1zm-40 -7l0 0c-1,0 -1,-1 0,-1 0,0 0,0 0,1zm45 7l0 0 0 0 0 0 0 0zm-70 -8l0 0c0,-1 0,0 0,0l0 0zm1 0l0 0 0 0c0,0 0,0 0,0zm0 -1l-1 0 0 0 1 0 0 0zm0 7c0,0 0,-1 1,-1 -1,1 -1,1 -1,1zm0 -5l-1 0 0 0 1 0 0 0zm2 5l-1 0 0 0 1 0 0 0zm-2 -1c-1,-1 0,0 -1,-1l1 0 0 1zm1 -3c0,0 0,0 0,0 0,0 0,0 0,0 0,0 0,0 0,0zm-1 6l0 0 0 -1 0 0 0 1zm1 -1l0 0 0 -1 0 0 0 1zm0 -1c0,0 -1,0 0,0 0,0 0,0 0,0zm-1 -1c0,0 -1,0 0,0 0,0 0,0 0,0zm0 -3c0,0 -1,-1 0,0 0,0 0,-1 0,0zm0 6c0,0 -1,0 0,0 0,0 0,-1 0,0zm-1 -6c0,0 0,0 0,0 0,0 0,0 0,0zm1 0c0,0 0,0 0,0l0 0c0,0 0,0 0,0zm10 -108c0,0 0,0 0,0l0 0c0,0 0,0 0,0zm-10 110l0 0c0,0 0,0 0,0zm-1 -3l0 0c0,0 0,0 0,0zm1 3l0 0c0,0 0,0 0,0zm-2 1l0 0c0,0 0,0 0,0zm2 -3l0 0zm1 3c0,0 -1,0 -1,0 0,0 0,0 1,0zm-26 -6c0,0 -2,0 -3,0 0,0 -1,0 -1,1 -1,0 -2,-1 -5,0 -1,0 -1,0 -2,0 -1,0 -2,0 -2,0 -1,0 -2,0 -3,0 -1,0 -1,0 -2,0 0,-2 1,-1 3,-2l5 0c2,0 4,0 6,0 1,0 1,0 2,0 0,0 0,0 0,0 1,0 1,0 1,0 1,1 1,0 1,1zm23 8c1,0 0,-1 0,-2 1,0 0,0 1,0 0,2 0,1 0,2 0,0 0,0 0,0l0 0c0,1 0,0 0,0 0,1 -1,1 0,1 -1,0 -1,0 -2,0 1,0 1,0 1,0 0,0 0,0 1,0 0,-1 0,-1 -1,-1zm-1 1c0,0 0,0 0,0 0,0 0,0 0,0 -1,0 0,0 0,0l-2 0c0,0 0,1 -1,0 0,0 -3,0 -4,0 -1,0 -3,-1 -3,-2 -1,0 -2,0 -3,0l-34 0c-1,0 -1,0 -1,0 -1,0 -1,0 -1,0 -1,0 -1,0 -2,0 0,0 0,0 -1,0 -2,0 -1,-1 -1,3l0 5c0,1 0,2 -1,3 0,1 1,2 0,4 0,0 0,0 0,1 0,1 0,1 0,2 0,1 0,2 0,2 -1,1 -1,2 -1,3l0 1c0,1 0,1 0,1l-1 2c0,0 0,0 0,0 0,1 0,2 0,3 0,0 0,0 0,0l-1 2c0,1 0,2 0,3 -1,2 -2,5 -3,7 -1,1 -2,2 -2,3l-2 2c0,0 -1,0 -1,0 -1,0 -2,-1 -2,-1l-1 -1c0,0 0,0 0,0l-2 -3c0,0 0,-1 0,-1l-1 -2c0,0 0,0 0,-1l-1 -4c0,-1 -1,-3 -1,-4 0,-1 0,-1 0,-1 -1,-1 0,-2 -1,-3l0 -1c0,0 0,0 0,-1l0 -3c-1,-1 -1,-1 -1,-1 0,-2 0,-4 0,-5 0,-1 0,-3 -1,-4 0,-1 0,-1 0,-2 0,-1 0,-3 0,-4 -1,-3 -1,-10 -1,-12 0,-3 0,-5 0,-8 0,-1 1,-2 1,-3 0,-1 0,-1 0,-2 0,-1 0,-3 0,-5 0,-1 0,-2 0,-3 0,-1 0,0 0,-1 0,0 0,-1 0,-1 0,0 1,-1 1,-1 0,-1 0,-2 0,-2l0 -4c0,0 1,0 1,-1 0,-1 0,-2 0,-3 0,0 0,0 0,0 1,-1 1,-2 1,-3l0 -1c1,0 1,-1 1,-1l1 -3c1,0 2,-2 3,-2 1,0 2,0 2,0 1,0 1,0 1,1 0,0 0,0 1,0 1,1 1,1 2,2 0,1 1,2 1,3 0,0 0,0 1,0 0,1 0,2 1,3 0,0 0,0 0,0l1 2c0,0 0,0 0,0 0,1 0,1 0,1l0 2c0,0 0,0 1,1 0,1 0,2 0,3 0,0 0,0 0,1 0,0 1,0 1,0 0,1 0,2 0,3l1 3c0,0 0,2 0,4l1 3c0,1 0,2 0,3l0 3c0,2 0,4 1,6l0 5c0,0 6,0 7,-1 2,0 4,1 7,0 2,0 4,0 7,0 2,0 4,0 7,0l9 0c0,0 1,0 1,0 1,0 3,0 4,0 0,-1 1,-1 1,-2l0 -1c1,-1 2,-1 3,-1 0,0 0,0 0,0 0,0 0,0 0,0 0,0 0,0 0,0 0,0 0,0 1,0 1,0 1,0 3,0 0,0 0,0 1,0 0,0 0,0 0,0 1,0 1,0 1,0 1,0 1,0 1,0 0,0 0,0 0,0 0,0 0,0 0,0l1 0 1 0c0,1 0,1 0,1 -1,0 -1,0 -1,1 0,0 0,2 0,3l0 0c0,1 0,1 0,1 0,0 0,0 0,0 0,1 0,2 0,2 0,1 1,1 0,1 -1,0 0,0 -1,0 0,0 1,0 0,0zm-9 -1c0,0 0,0 0,0l0 0zm9 1l0 -2c0,1 0,1 0,2zm-46 -2l4 0c0,0 0,0 -1,0 0,0 -1,0 -1,0l-2 0zm35 -1c0,-1 0,-1 0,-2l-11 1c0,0 0,0 -1,0 -1,0 -3,0 -5,0 -1,0 -3,0 -5,0l0 0c2,0 4,0 5,0 5,0 10,0 14,0 1,0 2,1 3,1zm-35 -1c0,0 -1,0 0,0 0,0 0,0 0,0zm7 -1l-2 0 0 1 2 0 0 -1zm38 -2l-1 0c0,0 1,0 1,0zm-1 -1l0 0c0,0 0,0 0,0zm-8 0l0 0c0,0 0,0 0,0zm11 0l-1 0c0,1 0,1 0,1 0,0 0,0 0,0l0 2c0,-1 0,-1 0,-2 0,0 0,0 0,0l0 -1c1,0 1,1 1,0zm-10 0l0 0c0,0 0,0 0,0zm2 -1l0 0 0 0 0 0 0 0zm8 0l0 0c0,0 0,0 0,0zm0 0l0 0c0,0 0,0 0,0zm-63 5c1,0 1,0 2,0l2 0 0 -7c0,-2 -1,-3 -1,-5 0,-2 0,-3 0,-4 0,-1 0,-1 0,-1 0,-1 0,-2 0,-2 -1,0 -1,-1 -1,-1l0 -2c0,0 0,-1 0,-1l-1 -1c0,0 0,-1 0,-2l-1 -1c0,-1 0,-1 0,-1 0,-1 -1,-1 -1,-1l0 0c-1,-2 -2,-2 -3,-1 -1,1 -2,2 -2,3 0,0 -1,0 -1,0 0,0 0,1 0,1 0,0 0,0 0,0 0,1 0,2 -1,2 0,1 0,2 0,4l-1 1c0,1 0,3 0,4 0,1 0,2 0,3 0,1 0,2 0,2 -1,2 -1,12 -1,15l1 4c0,1 0,2 0,3 0,1 0,1 0,2 0,1 0,3 0,4l1 2c0,1 0,1 0,1 0,1 0,3 0,3 0,1 1,2 1,3 0,0 0,0 0,1 0,0 0,0 1,1 0,1 0,0 0,1 1,0 1,1 2,0 0,0 1,-1 1,-1l2 -2c0,0 0,0 0,-1 0,0 0,0 0,0l1 -2c0,0 0,0 0,0 0,-1 0,-1 0,-1l1 -2c0,-1 0,-1 0,-1 0,-1 1,-1 1,-2 0,0 0,-1 0,-1l1 -2c0,0 0,-1 0,-1l0 -3c0,-2 0,-3 0,-5 0,-2 1,-3 1,-5l-2 0c-1,0 -1,0 -2,0 0,2 0,4 0,5 0,1 0,1 0,2 0,1 -1,2 -1,2 0,0 0,0 0,0l-1 3c0,0 0,0 0,0 -1,1 -1,1 -2,0 0,0 0,0 0,0 -1,-1 -1,-1 -1,-2l-1 -3c0,-1 -1,-2 -1,-3 0,0 0,-1 0,-1l0 -2c0,-1 -1,-1 -1,-2 0,-2 0,-4 1,-6l0 -2c0,0 0,-1 0,-1l1 -2c0,-1 0,0 0,0l1 -3c0,0 0,0 0,0 1,-1 0,-1 1,-1l0 0c0,0 0,0 0,0 1,0 1,0 1,0 1,1 1,1 1,1l0 1c0,0 1,1 1,2 0,1 0,1 0,2 1,3 1,4 1,7 0,0 0,1 0,1 0,1 0,0 0,1zm-22 20c0,-1 0,0 0,0 0,0 0,0 0,0zm40 -27c0,1 0,3 -1,4 0,0 0,0 0,1 0,0 0,0 -1,0 0,0 -2,-1 -2,-1 0,0 0,0 0,0 -2,-2 -1,-2 -1,-4l0 -8c0,0 0,-1 0,-1l0 0c0,-3 0,-1 0,-4 0,-1 0,-1 0,-3 0,-1 -1,-1 -1,-2 0,-1 0,-1 0,-2 0,0 0,-1 0,-1 0,0 0,0 0,-1 0,0 0,-1 0,-2l-1 -3c0,-1 0,-2 0,-2l0 -2c-1,-1 -1,-1 -1,-2 0,0 0,0 0,-1l-2 -7c0,-1 0,-1 0,-1l-1 -3c0,-1 0,-1 0,-1 0,-1 0,-1 -1,-2l-2 -5 -2 -3c0,0 0,1 0,0l-3 -2 -1 -1c0,0 -1,0 -1,0 -1,0 -2,0 -3,0l-2 1 -2 2c0,0 0,0 0,1 0,0 0,0 -1,0 0,0 0,0 0,0 0,0 0,0 0,1 -1,0 -1,1 -1,2 -1,0 -1,0 -1,1 0,0 0,0 0,0 -1,1 -1,3 -1,4 -1,1 -1,3 -1,4 0,1 0,0 -1,1l0 3c-1,2 -1,5 -2,7 0,1 0,2 0,3 -1,1 0,3 -1,4 0,1 0,2 0,2 0,1 0,2 0,3 0,1 0,3 -1,4 0,0 1,1 0,1l0 4c0,3 0,6 0,9 0,2 0,3 0,4 0,4 0,7 0,11l0 11c0,0 0,0 0,0 0,1 0,1 0,1 0,1 0,3 1,3 0,0 0,0 0,0 0,1 0,3 0,3 0,2 0,2 0,3 0,1 0,1 0,1 0,1 0,1 0,2 0,1 0,1 1,2 0,1 0,1 0,2 0,0 0,0 0,1 0,0 0,0 0,1 0,0 0,1 1,2 0,0 0,2 0,3 0,0 0,1 1,2 0,1 0,1 0,1l0 2c0,0 1,0 1,0 0,2 0,3 0,4l1 1c0,1 0,2 0,3 1,1 1,1 1,2l0 1c0,1 0,1 0,1l1 3c0,0 0,0 0,0l2 2c0,1 0,1 0,1 0,0 1,0 1,1 1,2 2,2 3,3l0 0c2,1 4,-1 5,-2l1 -1c0,-1 1,-1 2,-2l2 -4c0,-1 1,-3 1,-4 0,0 1,0 1,0l0 -1c0,-1 0,-1 0,-1 0,0 0,0 1,0 4,-14 2,-8 5,-20 0,0 0,-1 0,-2 0,0 0,-3 0,-4 1,-1 1,-2 1,-4 0,-1 0,-1 0,-2 0,0 0,0 0,-1 0,-1 0,-1 0,-1 1,-1 1,-1 1,-2 0,-1 0,-1 0,-2 0,-2 0,-3 0,-5l0 -5c-1,-1 -1,-1 -1,-1 1,0 1,0 1,0 1,0 1,0 1,0 0,0 0,0 0,0 1,0 1,1 1,1 0,0 0,0 0,0 0,0 1,0 1,0l0 1c1,0 1,1 1,1l1 3c0,2 0,5 0,7 0,1 0,2 0,3l0 6c0,1 0,1 -1,1 0,0 0,1 0,1l0 4c0,1 0,1 -1,1 0,1 0,2 0,2 0,1 0,1 0,2l0 2c-1,0 -1,1 -1,2 -3,10 -1,5 -4,14 0,1 0,1 0,1 0,0 0,0 0,0 0,0 0,0 0,0 0,1 0,1 -1,2 0,0 0,0 0,0l0 2c0,0 -1,1 -1,2l-1 4c-1,0 -1,0 -1,1l0 1c0,0 0,0 0,0l-3 6c0,1 0,1 -1,2l0 0c0,0 0,0 0,0l-2 3c0,1 -2,3 -2,3 -1,1 -2,2 -3,2 -1,1 -3,1 -3,0 -2,-1 -2,0 -4,-1l0 -1c-1,0 -1,0 -2,-1l0 0c-1,-1 -2,-2 -3,-3l-3 -6 -1 -2c0,0 0,0 0,0 0,0 0,0 0,0 0,0 0,0 0,0 0,-1 -1,-2 -1,-2 0,0 0,-1 0,-1l-1 -2c0,0 0,-1 0,-2 0,0 0,0 0,0 -1,-2 -1,-1 -1,-3 0,0 0,0 0,0l-1 -5c0,0 0,-1 0,-1 0,-1 0,-1 0,-1 -1,-1 -1,-2 -1,-3 0,0 0,0 0,-1 0,-1 0,-2 0,-4 0,0 0,-1 -1,-1 0,0 0,-1 0,-1l0 -1c0,-1 0,-1 0,-2 0,-1 0,-2 0,-2 0,-1 0,-4 -1,-6 0,-1 0,-4 0,-5 0,-3 0,-7 0,-10 0,0 0,0 0,-1l0 -1c1,-2 0,-5 0,-7l1 -3c0,-3 0,-9 0,-11l1 -8c0,-1 0,-2 0,-3l0 -3c0,0 0,-1 0,-1 0,-1 0,-1 0,-2 0,0 0,-1 0,-2l1 -1c0,-1 0,-1 0,-2 0,-1 0,-2 0,-4 0,-1 0,-2 1,-3l0 -4c1,-3 2,-7 3,-12 0,-1 0,-2 0,-2 0,0 0,0 0,-1 0,0 0,0 0,-1 0,0 0,-1 1,-1 0,-1 0,-3 0,-3l1 -3c0,0 0,-1 0,-2 0,0 0,0 0,-1 1,0 1,0 1,0 0,-1 0,-1 0,-2l1 -2c0,0 0,-1 0,-1l1 -4c0,0 0,-1 0,-1 1,0 0,0 1,-1 0,0 0,-1 0,-1l1 -1c0,-1 0,-1 0,-1l1 -3c0,-1 1,-1 1,-1 0,-2 2,-4 4,-4l3 0c0,0 0,1 0,1 1,0 1,0 1,0l1 1c0,0 0,0 0,0 0,0 0,0 0,0 1,1 1,1 1,1l4 6c1,1 2,2 2,3 0,1 0,1 1,1 0,1 0,1 0,1 0,0 0,0 0,0 0,0 0,0 0,0l1 4c0,0 0,0 0,0 1,1 1,1 1,2l3 9c0,1 0,1 0,1l0 1c0,0 0,0 0,1 0,0 1,1 1,2l0 2c0,0 0,0 1,1 0,0 0,1 0,2 0,1 0,1 0,1 0,1 1,2 1,3 0,0 0,1 0,1l0 2c0,1 1,1 1,2 0,1 0,3 0,4 0,1 0,1 0,2 0,0 0,0 0,1 0,0 0,1 1,1 0,1 0,2 0,3 0,1 0,2 0,3 0,1 0,2 0,2l0 3c0,1 1,2 1,3 0,4 0,4 0,10z"></path> </g> </g> </svg> 