<?xml version="1.0" encoding="UTF-8"?> <!-- Creator: CorelDRAW X7 --> <svg xmlns="http://www.w3.org/2000/svg" xmlns:xlink="http://www.w3.org/1999/xlink" xml:space="preserve" width="0.918051in" height="0.823311in" version="1.1" style="shape-rendering:geometricPrecision; text-rendering:geometricPrecision; image-rendering:optimizeQuality; fill-rule:evenodd; clip-rule:evenodd" viewBox="0 0 2091 1875"> <defs> <style type="text/css"> <![CDATA[ .str0 {stroke:#474646;stroke-width:3.15673} .fil1 {fill:#4D4D4D} .fil2 {fill:#E52D33} .fil0 {fill:white} ]]> </style> </defs> <g id="Layer_x0020_1"> <metadata id="CorelCorpID_0Corel-Layer"></metadata> <g id="_2770838770928"> <g> <path class="fil0" d="M776 738c-5,4 0,6 -18,7 -25,1 -14,2 -17,-6 -19,13 -16,8 -39,8 -17,0 -24,1 -43,1 -22,-1 -59,1 -75,-9l-216 -10c-13,-22 -6,-339 -6,-363 102,-3 207,11 311,11l295 -11 5 362c-18,5 -174,13 -197,10zm-564 -511l-66 62c-11,10 -16,14 -23,25 32,47 36,247 39,312 5,114 16,225 21,338 6,115 17,220 17,342 -1,121 -3,242 -3,364l116 5c6,-41 16,-95 27,-136 6,-24 12,-38 17,-65 2,-11 3,-21 4,-35 2,-16 2,-18 17,-22 30,38 -33,188 2,258 41,81 229,95 330,116 170,35 113,-73 355,-93 20,-58 -29,-141 12,-152 11,10 29,81 33,98 14,52 9,59 84,51 -2,-52 -16,-106 -20,-159 -13,-152 -8,-386 -5,-539 5,-316 11,-572 -1,-889 -2,-64 33,-57 -110,-63 -74,-3 -547,-27 -616,-15 -40,7 -30,47 -128,143l-44 46c-36,33 -44,14 -58,8z"></path> <path class="fil0" d="M1393 1193c77,2 161,10 236,10 76,0 158,-8 236,-10l-1 279c-82,2 -154,13 -235,12 -82,-1 -153,-10 -234,-12l-2 -279zm-55 -647c53,5 110,-7 162,-5 29,1 42,10 67,13 24,2 55,-1 74,11l3 19c-73,15 -93,-7 -79,97 6,38 17,144 2,175 -24,24 -282,-88 -283,441 0,131 10,401 78,470l367 21c279,-8 236,-144 260,-359 14,-125 27,-386 -48,-478 -26,-32 -57,-48 -100,-66 -81,-35 -88,-30 -126,-45 -4,-29 1,-52 -4,-83 -9,-57 -3,-183 5,-238 36,-8 89,16 84,-30 -3,-29 -58,-29 -86,-29 -107,0 -319,23 -376,86z"></path> <path class="fil1" d="M1313 1760c-55,0 -111,1 -169,0 -27,-1 -54,-2 -81,-2 -55,1 -145,38 -185,36l-10 -3c62,-40 96,-56 172,-66 12,-1 27,0 37,-1 15,-3 14,-9 26,-15 7,7 99,17 113,15 9,-70 -15,-133 -19,-199 -3,-68 -6,-142 -7,-209 -3,-185 31,-1243 1,-1279 -37,-26 -482,-33 -566,-34 -289,-6 -170,-16 -296,118l-14 14c-25,26 -49,59 -81,76 1,-1 2,-3 2,-4l5 -7c0,-1 1,-3 2,-4 5,-6 2,-3 7,-8 20,-22 108,-89 86,-114 -20,-14 -37,-4 -58,1 -30,-19 -50,-73 -81,-48l-28 29c-17,18 -27,27 -34,48 0,30 70,71 75,76 -3,37 -85,86 -104,112 -21,28 6,46 12,83 11,74 18,218 22,294l26 403c19,202 -10,523 8,623 10,2 147,7 157,5 7,-16 8,-25 11,-48 35,51 23,84 142,119 54,17 111,22 166,35 24,5 40,0 46,14 -24,8 -97,5 -128,5 -112,-2 -127,-39 -210,-56 -27,-6 -149,-6 -280,-5l0 26c115,-5 249,-8 305,15 138,60 247,59 393,24 42,-10 94,-5 141,-17 12,-2 23,-7 30,-9 91,-25 150,-16 244,-15 41,0 80,-3 122,-4l0 -24zm-1149 -1655c18,-33 33,-39 47,-57 43,28 37,66 93,49l-68 66c-38,-14 -52,-31 -72,-58zm48 122c14,6 22,25 58,-8l44 -46c98,-96 88,-136 128,-143 69,-12 542,12 616,15 143,6 108,-1 110,63 12,317 6,573 1,889 -3,153 -8,387 5,539 4,53 18,107 20,159 -75,8 -70,1 -84,-51 -4,-17 -22,-88 -33,-98 -41,11 8,94 -12,152 -242,20 -185,128 -355,93 -101,-21 -289,-35 -330,-116 -35,-70 28,-220 -2,-258 -15,4 -15,6 -17,22 -1,14 -2,24 -4,35 -5,27 -11,41 -17,65 -11,41 -21,95 -27,136l-116 -5c0,-122 2,-243 3,-364 0,-122 -11,-227 -17,-342 -5,-113 -16,-224 -21,-338 -3,-65 -7,-265 -39,-312 7,-11 12,-15 23,-25l66 -62z"></path> <path class="fil1" d="M2091 1766c-21,2 -40,4 -57,7 -148,26 -280,73 -434,73 -55,0 -164,-2 -206,-51 160,4 511,81 586,-104 23,-55 24,-141 31,-205 13,-128 26,-334 -6,-451 -32,-119 -75,-137 -175,-183 -29,-13 -63,-18 -89,-31 -2,-43 -18,-247 -1,-273 16,-14 40,2 62,-5 12,-13 32,-44 22,-69 -25,-63 -187,-37 -242,-31 -82,8 -164,22 -235,63 -21,12 -44,25 -47,49 12,14 31,19 53,19 80,2 98,-14 202,2 -26,62 -20,47 -13,117 4,44 3,95 4,140 -215,-4 -263,163 -284,354 -12,113 1,332 22,449 5,28 8,43 15,66l22 54c0,0 1,4 2,5 -51,-2 -99,-1 -148,-1l0 24c10,0 20,-1 31,0 184,3 109,-4 186,44 163,100 428,12 593,-19 34,-6 70,-11 106,-15l0 -28zm-753 -1220c57,-63 269,-86 376,-86 28,0 83,0 86,29 5,46 -48,22 -84,30 -8,55 -14,181 -5,238 5,31 0,54 4,83 38,15 45,10 126,45 43,18 74,34 100,66 75,92 62,353 48,478 -24,215 19,351 -260,359l-367 -22c-68,-68 -78,-338 -78,-469 1,-529 259,-417 283,-441 15,-31 4,-137 -2,-175 -14,-104 6,-82 79,-97l-3 -19c-19,-12 -50,-9 -74,-11 -25,-3 -38,-12 -67,-13 -52,-2 -109,10 -162,5z"></path> <path class="fil2" d="M973 728l-5 -362 -295 11c-104,0 -209,-14 -311,-11 0,24 -7,341 6,363 152,7 484,33 605,-1z"></path> <path class="fil2" d="M1395 1472c81,2 152,11 234,12 81,1 153,-10 235,-12l1 -279c-78,2 -160,10 -236,10 -75,0 -159,-8 -236,-10l2 279z"></path> <path class="fil0" d="M164 105c20,27 34,44 72,58l68 -66c-56,17 -50,-21 -93,-49 -14,18 -29,24 -47,57z"></path> </g> <g> <polygon class="fil2 str0" points="2,951 99,1711 384,1710 482,950 "></polygon> <path class="fil2 str0" d="M379 1848c9,-23 7,-76 -6,-91 -19,-21 -56,-15 -87,-15 -35,0 -69,0 -104,0 -36,0 -61,-3 -75,22 -10,18 -8,78 2,93 17,22 58,16 89,16 35,0 69,0 104,0 40,0 65,6 77,-25z"></path> </g> <g> <rect class="fil2 str0" x="496" y="1585" width="585" height="289" rx="92" ry="71"></rect> <rect class="fil2 str0" x="581" y="1466" width="416.844" height="71.3824" rx="98" ry="26"></rect> </g> </g> </g> </svg> 