<?xml version="1.0" encoding="UTF-8"?> <!-- Generator: Adobe Illustrator 23.0.6, SVG Export Plug-In . SVG Version: 6.00 Build 0) --> <svg xmlns="http://www.w3.org/2000/svg" xmlns:xlink="http://www.w3.org/1999/xlink" version="1.1" id="Layer_1" x="0px" y="0px" viewBox="0 0 40 40" style="enable-background:new 0 0 40 40;" xml:space="preserve"> <style type="text/css"> .st0{fill:#E52D33;} </style> <title>Artboard</title> <desc>Created with Sketch.</desc> <g id="Artboard"> <g id="ecommerce" transform="translate(0.000000, 3.000000)"> <path id="Combined-Shape" class="st0" d="M8.4,4.5l1.8,4.7h29.5l-5.5,16.4H14.6c-0.6,0-1.2,0.5-1.2,1.2s0.5,1.2,1.2,1.2l0,0H31 c1.9,0,3.5,1.6,3.5,3.5S32.9,35,31,35s-3.5-1.6-3.5-3.5c0-0.4,0.1-0.8,0.2-1.2l0,0h-7.4c0.1,0.4,0.2,0.8,0.2,1.2 c0,1.9-1.6,3.5-3.5,3.5s-3.5-1.6-3.5-3.5c0-0.5,0.1-0.9,0.2-1.3c-1.5-0.4-2.6-1.8-2.6-3.4c0-1.4,0.8-2.6,2-3.2l0,0L6.7,6.9H0V4.5 H8.4z M28,20.9h-2.9v2.3h2.5L28,20.9z M22.8,20.9h-2.9l0.4,2.3h2.5V20.9z M17.5,20.9h-3l0.9,2.3h2.5L17.5,20.9z M33.3,20.9h-2.9 L30,23.3h2.5L33.3,20.9z M28.8,16.3h-3.7v2.3h3.3L28.8,16.3z M34.8,16.3h-3.6l-0.4,2.3H34L34.8,16.3z M22.8,16.3h-3.7l0.4,2.3h3.3 V16.3z M16.7,16.3h-4l0.9,2.3h3.5L16.7,16.3z M29.6,11.6h-4.5v2.3h4.1L29.6,11.6z M22.8,11.6h-4.5l0.4,2.3h4.1V11.6z M36.4,11.6 H32l-0.4,2.3h4L36.4,11.6z M15.9,11.6H11l0.9,2.3h4.4L15.9,11.6z M23.8,0v4.2h3.3V0h5v7.9H15.8V0H23.8z"></path> </g> </g> </svg> 