<?xml version="1.0" encoding="UTF-8"?> <!-- Generator: Adobe Illustrator 23.0.6, SVG Export Plug-In . SVG Version: 6.00 Build 0) --> <svg xmlns="http://www.w3.org/2000/svg" xmlns:xlink="http://www.w3.org/1999/xlink" version="1.1" id="Layer_1" x="0px" y="0px" viewBox="0 0 40 40" style="enable-background:new 0 0 40 40;" xml:space="preserve"> <style type="text/css"> .st0{fill:#E52D33;} </style> <title>quality</title> <desc>Created with Sketch.</desc> <g id="quality"> <g id="Shape"> <path class="st0" d="M38.9,22.7C39.4,22,40,21.1,40,20s-0.6-2-1.1-2.7c-0.3-0.5-0.7-1-0.8-1.5c-0.1-0.5,0-1.1,0-1.7 c0.1-1,0.2-2-0.2-2.9c-0.4-0.9-1.3-1.5-2.1-2c-0.5-0.3-1-0.7-1.3-1c-0.3-0.4-0.5-1-0.7-1.6c-0.3-0.9-0.6-1.9-1.4-2.5 c-0.8-0.6-1.8-0.7-2.7-0.8c-0.6-0.1-1.2-0.1-1.7-0.3c-0.4-0.2-0.8-0.6-1.3-1.1c-0.6-0.7-1.4-1.4-2.4-1.7c-1-0.2-1.9,0.1-2.8,0.4 c-0.6,0.2-1.2,0.4-1.7,0.4s-1.1-0.2-1.7-0.4c-0.9-0.3-1.8-0.7-2.8-0.4c-1,0.2-1.7,1-2.4,1.7c-0.4,0.5-0.9,0.9-1.3,1.1 c-0.4,0.2-1,0.3-1.7,0.3C9.3,3.3,8.3,3.4,7.5,4C6.7,4.7,6.4,5.7,6.1,6.6C5.9,7.2,5.7,7.7,5.4,8.1c-0.3,0.4-0.8,0.7-1.3,1 c-0.8,0.5-1.7,1-2.1,2C1.5,12,1.7,13,1.8,14c0.1,0.6,0.1,1.3,0,1.7c-0.1,0.5-0.4,1-0.8,1.5C0.6,18,0,18.9,0,20 c0,1.1,0.6,2,1.1,2.7c0.3,0.5,0.7,1,0.8,1.5c0.1,0.5,0,1.1,0,1.7c-0.1,1-0.2,2,0.2,2.9c0.4,0.9,1.3,1.5,2.1,2c0.5,0.3,1,0.7,1.3,1 c0.3,0.4,0.5,1,0.7,1.6c0.3,0.9,0.6,1.9,1.4,2.5c0.8,0.6,1.8,0.7,2.7,0.8c0.6,0.1,1.2,0.1,1.7,0.3c0.4,0.2,0.8,0.6,1.3,1.1 c0.6,0.7,1.4,1.4,2.4,1.7c1,0.2,1.9-0.1,2.8-0.4c0.6-0.2,1.2-0.4,1.7-0.4s1.1,0.2,1.7,0.4c0.7,0.3,1.4,0.5,2.1,0.5 c0.2,0,0.4,0,0.6-0.1c1-0.2,1.7-1,2.4-1.7c0.4-0.5,0.9-0.9,1.3-1.1c0.4-0.2,1-0.3,1.7-0.3c0.9-0.1,1.9-0.2,2.7-0.8 c0.8-0.6,1.1-1.6,1.4-2.5c0.2-0.6,0.4-1.2,0.7-1.6c0.3-0.4,0.8-0.7,1.3-1c0.8-0.5,1.7-1,2.1-2c0.4-0.9,0.3-1.9,0.2-2.9 c-0.1-0.6-0.1-1.3,0-1.7C38.3,23.8,38.6,23.3,38.9,22.7L38.9,22.7z M23.6,4C24,4.1,24.5,4.6,25,5.1c0.4,0.5,0.9,0.9,1.5,1.2 c0.6,0.3,1.3,0.4,1.9,0.4C29,6.8,29.6,6.9,30,7.2c0.4,0.3,0.6,0.9,0.8,1.6c0.2,0.6,0.4,1.3,0.8,1.8c0.4,0.5,1,0.9,1.5,1.2 c0.6,0.4,1.1,0.7,1.3,1.1c0.2,0.4,0.1,1.1,0,1.7c-0.1,0.7-0.2,1.3,0,2c0.1,0.6,0.5,1.2,0.8,1.7c0.4,0.6,0.7,1.1,0.7,1.6 c0,0.5-0.3,1.1-0.7,1.6c-0.3,0.5-0.7,1.1-0.8,1.7c-0.1,0.7-0.1,1.3,0,2c0.1,0.7,0.2,1.3,0,1.7c-0.2,0.4-0.7,0.8-1.3,1.1 c-0.5,0.3-1.1,0.7-1.5,1.2c-0.4,0.5-0.6,1.2-0.8,1.8c-0.2,0.6-0.4,1.3-0.8,1.6c-0.4,0.3-1,0.4-1.7,0.4c-0.6,0.1-1.3,0.1-1.9,0.4 c-0.6,0.3-1,0.8-1.5,1.2c-0.5,0.5-0.9,1-1.4,1.1c-0.4,0.1-1-0.1-1.6-0.3c-0.6-0.2-1.2-0.5-1.9-0.5s-1.3,0.2-1.9,0.5 c-0.6,0.2-1.2,0.4-1.6,0.3c-0.5-0.1-0.9-0.6-1.4-1.1c-0.4-0.5-0.9-0.9-1.5-1.2c-0.6-0.3-1.3-0.4-1.9-0.4c-0.7-0.1-1.3-0.1-1.7-0.4 c-0.4-0.3-0.6-0.9-0.8-1.6C9,30.6,8.8,30,8.4,29.5c-0.4-0.5-1-0.9-1.5-1.2c-0.6-0.4-1.1-0.7-1.3-1.1c-0.2-0.4-0.1-1.1,0-1.7 c0.1-0.7,0.2-1.3,0-2c-0.1-0.6-0.5-1.2-0.8-1.7C4.3,21.1,4,20.5,4,20c0-0.5,0.3-1.1,0.7-1.6c0.3-0.5,0.7-1.1,0.8-1.7 c0.1-0.7,0.1-1.3,0-2c-0.1-0.7-0.2-1.3,0-1.7c0.2-0.4,0.7-0.8,1.3-1.1c0.5-0.3,1.1-0.7,1.5-1.2C8.8,10,9,9.4,9.2,8.8 C9.5,8.1,9.7,7.5,10,7.2c0.4-0.3,1-0.4,1.7-0.4c0.6-0.1,1.3-0.1,1.9-0.4c0.6-0.3,1-0.8,1.5-1.2c0.5-0.5,0.9-1,1.4-1.1 c0.4-0.1,1,0.1,1.6,0.3c0.6,0.2,1.2,0.5,1.9,0.5s1.3-0.2,1.9-0.5C22.5,4.1,23.1,3.9,23.6,4z M26.5,15l-0.2,0 c-0.5,0-0.9,0.2-1.3,0.6l0,0l-5.6,5.8c-0.1,0.1-0.4,0.2-0.6,0.2c-0.2,0-0.4-0.1-0.6-0.2l0,0l-3.1-2.8c-0.4-0.3-0.8-0.5-1.3-0.5 c-0.5,0-0.9,0.1-1.3,0.4c-0.4,0.3-0.6,0.7-0.6,1.1c0,0.4,0.2,0.8,0.5,1.1l0,0l5.1,4.6C18,25.8,18.5,26,19,26c0.5,0,1-0.2,1.3-0.6 l0,0l7.5-7.8c0.3-0.3,0.5-0.7,0.4-1.2c0-0.4-0.3-0.8-0.6-1.1c-0.4-0.3-0.9-0.4-1.3-0.4L26.5,15z"></path> </g> </g> </svg> 