<?xml version="1.0" encoding="UTF-8"?> <!-- Creator: CorelDRAW X7 --> <svg xmlns="http://www.w3.org/2000/svg" xmlns:xlink="http://www.w3.org/1999/xlink" xml:space="preserve" width="0.590213in" height="0.935551in" version="1.1" style="shape-rendering:geometricPrecision; text-rendering:geometricPrecision; image-rendering:optimizeQuality; fill-rule:evenodd; clip-rule:evenodd" viewBox="0 0 334 530"> <defs> <style type="text/css"> <![CDATA[ .fil0 {fill:#FEFEFE} .fil6 {fill:#030303} .fil1 {fill:#252525} .fil3 {fill:#474646} .fil4 {fill:#838383} .fil7 {fill:#E52D33} .fil2 {fill:white} .fil5 {fill:white} ]]> </style> </defs> <g id="Layer_x0020_1"> <metadata id="CorelCorpID_0Corel-Layer"></metadata> <g id="_2770838775408"> <g> <g> <path class="fil0" d="M224 402c1,11 3,37 -5,44 2,-8 2,-28 3,-38 0,-1 0,-3 0,-3 2,-6 0,-1 2,-3zm21 70c-11,-12 -8,-78 -6,-98l3 44c0,16 1,32 3,47 10,-2 25,-10 35,-14 9,-4 26,-12 34,-13 -11,7 -57,33 -69,34zm-180 -36l19 4c34,9 95,23 130,27 1,0 4,0 5,0l5 -1c4,-4 8,-93 8,-95 2,25 4,69 -1,93 -2,8 -1,9 -9,10 -31,1 -97,-18 -128,-28l-29 -10zm18 -21c21,1 90,23 105,23 -21,2 -76,-12 -99,-21l-6 -2zm-32 1c7,0 29,6 38,8 31,8 93,26 120,26 -48,5 -156,-34 -158,-34zm-8 -8c-3,-9 -5,-43 -1,-51 2,4 2,45 1,51zm206 -25c9,-6 57,-21 71,-22 -9,6 -57,21 -71,22zm-104 -20c-2,-5 -8,-8 -14,-11 -5,-3 -13,-3 -18,-6 16,-1 35,6 37,18 -8,9 -31,15 -47,0 0,0 0,0 -1,0 -3,-3 -9,-7 -7,-9 2,2 3,3 5,5 20,16 33,6 45,3zm76 1c-28,0 -42,-6 -64,-10 10,-1 51,5 61,8 3,2 2,1 3,2zm-135 1c8,8 24,13 39,14 34,3 39,-8 47,-7 7,1 40,8 44,10 -9,0 -43,-7 -48,-6 -2,1 -6,4 -10,5 -3,1 -7,2 -11,2 -21,3 -50,-1 -64,-16 -10,-12 -1,-9 -15,-13l-21 -5c8,0 14,2 24,3 14,3 6,5 15,13zm171 2c8,-6 51,-20 63,-20 -14,7 -44,18 -63,20zm-12 1c-1,-11 -2,-58 2,-66 3,9 -1,55 -2,66zm-202 -36c7,-1 37,5 44,10 -18,0 -32,-5 -47,-10l3 0zm204 -49c12,-8 50,-21 67,-25 3,-1 -2,0 2,-1 3,-1 2,-1 5,-1 -2,1 -3,1 -4,2l-2 1c-15,8 -53,22 -68,24zm8 11c4,-3 8,-4 14,-7 11,-4 35,-14 45,-14 -8,6 -44,20 -59,21zm-6 -44c13,-8 50,-22 67,-25 -1,1 -1,1 -2,2l-6 3c-13,6 -48,19 -59,20zm-25 -25c1,0 -2,-1 3,-1 5,0 1,0 3,1 0,0 0,4 -6,0zm-15 -2c1,0 1,0 3,-1l8 2c-2,1 -1,1 -3,1 0,0 -3,0 -3,0 0,0 -2,0 -2,0 -3,-1 -2,-1 -3,-2zm-4 -1c-2,2 -1,2 -6,1 -7,0 -4,-1 -5,-3l11 2zm-26 -2c3,-3 6,-2 10,0 -1,1 3,3 -6,1 -2,0 -2,0 -4,-1zm89 7c8,-4 26,-10 34,-9 -9,3 -20,11 -39,12l5 -3zm-104 -9c1,-1 0,-1 3,-1 2,-1 5,0 7,2 -2,1 -3,1 -8,0 -1,-1 -1,-1 -2,-1zm-15 -3c3,-1 8,0 10,1 -1,1 0,1 -3,2 0,0 -3,-1 -3,-1 -4,0 -3,0 -4,-2zm-15 0c0,0 -1,-6 10,-1 -3,3 -4,2 -10,1zm-15 -3c3,-2 7,-2 10,1 -3,2 -7,1 -10,-1zm-15 -2c3,-2 7,-1 10,1 -3,2 -8,1 -10,-1zm-5 -2c0,0 0,5 -8,1 -3,-1 -1,-1 -3,-2l11 1zm-26 -2c1,0 -1,-2 7,-1 3,1 2,1 4,2 -3,2 -8,1 -11,-1zm-15 -2c1,-1 1,-1 3,-1l7 2c-2,2 -7,1 -10,-1zm-5 -1c-2,2 0,2 -5,1 -8,0 -3,-1 -5,-3l10 2zm145 -4c-19,1 -111,-8 -124,-14 19,0 45,3 64,6 20,2 40,5 60,8zm55 12c-1,-14 3,-53 8,-65 0,14 -3,35 -5,50 0,3 0,5 -1,8 -1,5 0,4 -2,7zm-116 -131c26,-10 54,21 43,56 -9,28 -50,38 -66,12 4,4 7,7 14,10 39,12 63,-30 43,-63 -6,-11 -16,-15 -34,-15zm0 3c19,-5 34,13 37,30 2,20 -10,38 -26,42 -44,11 -48,-63 -11,-72zm87 96c0,-10 8,-67 13,-81 1,17 -8,63 -13,81zm40 -70c-1,-7 1,-23 3,-30 1,-5 1,-6 3,-7 4,1 3,0 5,4 8,15 32,85 34,94 -9,-11 -33,-85 -38,-91 -2,4 -5,17 -6,23 0,3 0,5 -1,7zm8 -9c4,1 4,2 6,5 4,9 16,46 15,51 -3,-8 -7,-15 -11,-25 -3,-9 -5,-19 -9,-28l-3 4c0,-5 0,-4 2,-7zm-43 111c2,-6 6,-51 8,-62 1,-10 3,-20 5,-30 1,-5 6,-24 6,-26 1,13 -5,47 -7,61 -2,12 -6,55 -10,60 -25,5 -140,-17 -145,-16 19,-1 52,4 71,6 17,2 57,8 72,7zm-173 -45c2,-15 10,-41 14,-56 6,-17 12,-36 17,-52 0,13 -25,99 -31,108zm189 -118c-4,1 -8,0 -10,-1 1,-3 8,-2 10,1zm-15 -2c-1,1 1,1 -3,1 0,0 -2,0 -3,0 -8,-1 -1,1 -4,-3 2,0 5,0 6,0 5,1 3,1 4,2zm-24 -2c2,-1 4,-1 7,-1 4,1 2,1 3,3 -12,1 -9,-1 -10,-2zm38 13c-13,-4 -97,-5 -125,-13 14,0 114,8 127,10 1,5 0,11 -1,16l-1 4c0,0 -1,1 -1,1l1 -18zm-52 -14c2,-1 2,-1 5,-1 1,0 2,0 3,1 2,0 0,0 1,1 -2,1 -2,1 -5,1 -5,0 -4,-2 -4,-2zm-5 -1c-2,2 0,1 -4,2 -6,1 -6,-3 -6,-3 4,0 9,1 10,1zm-15 0c-4,1 -8,1 -9,-2 4,-1 8,-1 9,2zm-14 -1c-4,1 -8,1 -10,-2 4,-1 9,-1 10,2zm-24 -3c2,-1 8,-2 10,1 -3,2 -2,1 -6,1 -5,0 -4,-1 -4,-2zm-15 -1c4,-2 8,-1 10,1 -3,2 -7,2 -10,-1zm-14 -1l6 -1c7,1 1,0 4,3 -9,0 -7,0 -10,-2zm-15 -1c0,0 1,-2 7,-1 2,0 2,1 3,2 -1,0 -2,2 -7,0 -7,-2 0,1 -3,-1zm159 6c-13,2 -51,-3 -66,-5l-60 -7c32,-3 102,12 125,9l1 3zm-156 -20c0,-6 0,-7 2,-11 17,-4 100,5 127,7 7,1 14,1 20,2 21,1 12,1 19,-3l-2 -1c-5,-3 -133,-12 -146,-12 -3,0 -7,0 -11,0 -6,0 -7,0 -9,2 -3,3 -6,31 -7,37 -7,30 -22,68 -31,100 -6,18 -16,53 -16,72 -2,52 -2,91 -3,140 0,24 -3,71 12,82 29,19 124,36 160,41 31,4 30,7 55,-7 14,-8 28,-14 44,-21 17,-8 24,-8 23,-45l-1 -98c0,-72 4,-91 -24,-165 -12,-34 -27,-66 -37,-101 -3,5 -9,62 -11,73 -8,53 -13,97 -16,151 -1,25 1,57 -2,80 -3,-7 -3,-111 -1,-130l16 -114c2,-12 8,-66 14,-72 6,6 25,68 31,84 2,3 -1,3 10,5 -5,-17 -23,-57 -31,-77 -2,-7 -5,-20 -10,-24 -6,3 -7,5 -8,12 -2,12 -6,43 -9,51 0,-7 2,-19 3,-27 0,-5 1,-10 1,-15 1,-3 2,-10 0,-12 -3,-3 -110,-10 -128,-11 -38,-3 -28,-4 -34,7z"></path> <path class="fil1" d="M93 21c6,-11 -4,-10 34,-7 18,1 125,8 128,11 2,2 1,9 0,12 0,5 -1,10 -1,15 -1,8 -3,20 -3,27 3,-8 7,-39 9,-51 1,-7 2,-9 8,-12 5,4 8,17 10,24 8,20 26,60 31,77 -11,-2 -8,-2 -10,-5 -6,-16 -25,-78 -31,-84 -6,6 -12,60 -14,72l-16 114c-2,19 -2,123 1,130 3,-23 1,-55 2,-80 3,-54 8,-98 16,-151 2,-11 8,-68 11,-73 10,35 25,67 37,101 28,74 24,93 24,165l1 98c1,37 -6,37 -23,45 -16,7 -30,13 -44,21 -25,14 -24,11 -55,7 -36,-5 -131,-22 -160,-41 -15,-11 -12,-58 -12,-82 1,-49 1,-88 3,-140 0,-19 10,-54 16,-72 9,-32 24,-70 31,-100 1,-6 4,-34 7,-37 2,-2 3,-2 9,-2 4,0 8,0 11,0 13,0 141,9 146,12l2 1c-7,4 2,4 -19,3 -6,-1 -13,-1 -20,-2 -27,-2 -110,-11 -127,-7 -2,4 -2,5 -2,11zm220 98c0,-7 -19,-51 -23,-62 -19,-47 -15,-45 -40,-47 -33,-2 -135,-14 -161,-8 -3,12 -3,27 -7,40 -17,53 -46,132 -48,185 -2,35 -6,163 2,195 2,10 6,17 13,21 26,14 131,38 169,43 29,4 35,-3 54,-14 15,-8 33,-16 47,-24 19,-12 14,-31 14,-56 -1,-47 7,-159 -7,-206 -7,-23 -16,-43 -23,-66l8 1 2 -2z"></path> <path class="fil2" d="M153 138l-4 2 0 0 -2 1 -6 1 5 -9 -1 0c-2,4 -2,3 -6,6 -10,-3 -6,-6 -10,-3l5 5c-15,-2 -19,-15 -16,-30 10,1 11,4 16,9 3,-17 7,-19 22,-25 4,6 9,15 9,23 -1,12 -9,17 -12,20zm-16 -52c-38,14 -22,75 10,66 36,-11 24,-78 -10,-66z"></path> <path class="fil1" d="M94 446c31,10 97,29 128,28 8,-1 7,-2 9,-10 5,-24 3,-68 1,-93 0,2 -4,91 -8,95l-5 1c-1,0 -4,0 -5,0 -35,-4 -96,-18 -130,-27l-19 -4 29 10z"></path> <path class="fil1" d="M229 211c-15,1 -55,-5 -72,-7 -19,-2 -52,-7 -71,-6 5,-1 120,21 145,16 4,-5 8,-48 10,-60 2,-14 8,-48 7,-61 0,2 -5,21 -6,26 -2,10 -4,20 -5,30 -2,11 -6,56 -8,62z"></path> <path class="fil1" d="M137 86c34,-12 46,55 10,66 -32,9 -48,-52 -10,-66zm0 -3c-37,9 -33,83 11,72 16,-4 28,-22 26,-42 -3,-17 -18,-35 -37,-30z"></path> <path class="fil1" d="M44 274c17,0 33,-2 52,-1 55,3 86,16 130,39 -36,-34 -133,-55 -182,-38z"></path> <path class="fil1" d="M245 472c12,-1 58,-27 69,-34 -8,1 -25,9 -34,13 -10,4 -25,12 -35,14 -2,-15 -3,-31 -3,-47l-3 -44c-2,20 -5,86 6,98z"></path> <path class="fil3" d="M220 259c-22,-7 -57,-11 -82,-15 -24,-4 -62,-11 -87,-11 18,7 147,26 169,26z"></path> <path class="fil2" d="M150 133c-2,2 -2,2 -3,5l8 -7c7,-10 6,-23 0,-33 -16,6 -17,23 -18,35 -3,-4 -7,-15 -17,-18 -1,12 1,14 6,21 2,-2 -1,-2 -2,-6 -1,-4 -1,-4 -1,-8 5,6 6,14 17,16 4,-7 9,-16 13,-24 0,10 -2,11 -3,19zm-4 6c-2,1 -2,0 0,1l0 -1c2,-1 2,0 0,-2l0 2z"></path> <path class="fil1" d="M145 133c2,-3 2,-2 3,-4 0,5 0,1 2,4 1,-8 3,-9 3,-19 -4,8 -9,17 -13,24 -11,-2 -12,-10 -17,-16 0,4 0,4 1,8 1,4 4,4 2,6 -5,-7 -7,-9 -6,-21 10,3 14,14 17,18 1,-12 2,-29 18,-35 6,10 7,23 0,33 -1,2 -2,3 -3,4 -1,1 0,-1 0,1 -1,2 -1,0 1,2 3,-3 11,-8 12,-20 0,-8 -5,-17 -9,-23 -15,6 -19,8 -22,25 -5,-5 -6,-8 -16,-9 -3,15 1,28 16,30l-5 -5c4,-3 0,0 10,3 4,-3 4,-2 6,-6zm4 7l0 0 2 -2c-7,3 -3,1 -2,2zm-3 -1l0 -2c2,-3 2,-1 2,-5 0,0 0,0 0,0 -1,5 1,-1 -2,1l-5 9 6 -1 -1 -1c-2,-1 -2,0 0,-1z"></path> <path class="fil1" d="M216 382c-4,-2 -37,-9 -44,-10 -8,-1 -13,10 -47,7 -15,-1 -31,-6 -39,-14 -9,-8 -1,-10 -15,-13 -10,-1 -16,-3 -24,-3l21 5c14,4 5,1 15,13 14,15 43,19 64,16 4,0 8,-1 11,-2 4,-1 8,-4 10,-5 5,-1 39,6 48,6z"></path> <path class="fil1" d="M137 80c18,0 28,4 34,15 20,33 -4,75 -43,63 -7,-3 -10,-6 -14,-10 16,26 57,16 66,-12 11,-35 -17,-66 -43,-56z"></path> <path class="fil1" d="M264 109c1,-2 1,-4 1,-7 1,-6 4,-19 6,-23 5,6 29,80 38,91 -2,-9 -26,-79 -34,-94 -2,-4 -1,-3 -5,-4 -2,1 -2,2 -3,7 -2,7 -4,23 -3,30z"></path> <path class="fil1" d="M51 416c2,0 110,39 158,34 -27,0 -89,-18 -120,-26 -9,-2 -31,-8 -38,-8z"></path> <path class="fil1" d="M198 199c-20,-3 -40,-6 -60,-8 -19,-3 -45,-6 -64,-6 13,6 105,15 124,14z"></path> <path class="fil1" d="M244 57l-1 18c0,0 1,-1 1,-1l1 -4c1,-5 2,-11 1,-16 -13,-2 -113,-10 -127,-10 28,8 112,9 125,13z"></path> <path class="fil1" d="M249 41l-1 -3c-23,3 -93,-12 -125,-9l60 7c15,2 53,7 66,5z"></path> <path class="fil1" d="M89 417c23,9 78,23 99,21 -15,0 -84,-22 -105,-23l6 2z"></path> <path class="fil1" d="M145 363c-12,3 -25,13 -45,-3 -2,-2 -3,-3 -5,-5 -2,2 4,6 7,9 1,0 1,0 1,0 16,15 39,9 47,0 -2,-12 -21,-19 -37,-18 5,3 13,3 18,6 6,3 12,6 14,11z"></path> <path class="fil1" d="M56 166c6,-9 31,-95 31,-108 -5,16 -11,35 -17,52 -4,15 -12,41 -14,56z"></path> <path class="fil1" d="M247 283c15,-2 53,-16 68,-24l2 -1c1,-1 2,-1 4,-2 -3,0 -2,0 -5,1 -4,1 1,0 -2,1 -17,4 -55,17 -67,25z"></path> <path class="fil1" d="M249 383c14,-1 62,-16 71,-22 -14,1 -62,16 -71,22z"></path> <path class="fil1" d="M249 250c11,-1 46,-14 59,-20l6 -3c1,-1 1,-1 2,-2 -17,3 -54,17 -67,25z"></path> <path class="fil1" d="M257 367c19,-2 49,-13 63,-20 -12,0 -55,14 -63,20z"></path> <path class="fil1" d="M224 179c5,-18 14,-64 13,-81 -5,14 -13,71 -13,81z"></path> <path class="fil1" d="M270 107l3 -4c4,9 6,19 9,28 4,10 8,17 11,25 1,-5 -11,-42 -15,-51 -2,-3 -2,-4 -6,-5 -2,3 -2,2 -2,7z"></path> <path class="fil1" d="M255 294c15,-1 51,-15 59,-21 -10,0 -34,10 -45,14 -6,3 -10,4 -14,7z"></path> <path class="fil1" d="M221 364c-1,-1 0,0 -3,-2 -10,-3 -51,-9 -61,-8 22,4 36,10 64,10z"></path> <path class="fil1" d="M253 211c2,-3 1,-2 2,-7 1,-3 1,-5 1,-8 2,-15 5,-36 5,-50 -5,12 -9,51 -8,65z"></path> <path class="fil1" d="M245 368c1,-11 5,-57 2,-66 -4,8 -3,55 -2,66z"></path> <path class="fil1" d="M40 332c15,5 29,10 47,10 -7,-5 -37,-11 -44,-10l-3 0z"></path> <path class="fil1" d="M43 408c1,-6 1,-47 -1,-51 -4,8 -2,42 1,51z"></path> <path class="fil1" d="M263 230c19,-1 30,-9 39,-12 -8,-1 -26,5 -34,9l-5 3z"></path> <path class="fil1" d="M224 402c-2,2 0,-3 -2,3 0,0 0,2 0,3 -1,10 -1,30 -3,38 8,-7 6,-33 5,-44z"></path> <path class="fil4" d="M150 133c-2,-3 -2,1 -2,-4 -1,2 -1,1 -3,4l1 0c3,-2 1,4 2,-1 0,0 0,0 0,0 0,4 0,2 -2,5 2,2 2,1 0,2l0 1 1 1 2 -1c-1,-1 -5,1 2,-2l-2 2 4 -2c-2,-2 -2,0 -1,-2 0,-2 -1,0 0,-1 1,-1 2,-2 3,-4l-8 7c1,-3 1,-3 3,-5z"></path> <path class="fil1" d="M134 215c6,1 7,2 10,-1 -11,-5 -10,1 -10,1z"></path> <path class="fil1" d="M205 222l-11 -2c1,2 -2,3 5,3 5,1 4,1 6,-1z"></path> <path class="fil1" d="M179 220c2,1 2,1 4,1 9,2 5,0 6,-1 -4,-2 -7,-3 -10,0z"></path> <path class="fil1" d="M230 46c-1,-1 1,-1 -4,-2 -1,0 -4,0 -6,0 3,4 -4,2 4,3 1,0 3,0 3,0 4,0 2,0 3,-1z"></path> <path class="fil1" d="M99 208l-11 -1c2,1 0,1 3,2 8,4 8,-1 8,-1z"></path> <path class="fil1" d="M206 44c1,1 -2,3 10,2 -1,-2 1,-2 -3,-3 -3,0 -5,0 -7,1z"></path> <path class="fil1" d="M53 203l-10 -2c2,2 -3,3 5,3 5,1 3,1 5,-1z"></path> <path class="fil1" d="M164 218c1,0 1,0 2,1 5,1 6,1 8,0 -2,-2 -5,-3 -7,-2 -3,0 -2,0 -3,1z"></path> <path class="fil1" d="M73 206c3,2 8,3 11,1 -2,-1 -1,-1 -4,-2 -8,-1 -6,1 -7,1z"></path> <path class="fil1" d="M90 35c3,2 -4,-1 3,1 5,2 6,0 7,0 -1,-1 -1,-2 -3,-2 -6,-1 -7,1 -7,1z"></path> <path class="fil1" d="M192 43c0,0 -1,2 4,2 3,0 3,0 5,-1 -1,-1 1,-1 -1,-1 -1,-1 -2,-1 -3,-1 -3,0 -3,0 -5,1z"></path> <path class="fil1" d="M104 210c2,2 7,3 10,1 -3,-2 -7,-3 -10,-1z"></path> <path class="fil1" d="M134 38c0,1 -1,2 4,2 4,0 3,1 6,-1 -2,-3 -8,-2 -10,-1z"></path> <path class="fil1" d="M105 36c3,2 1,2 10,2 -3,-3 3,-2 -4,-3l-6 1z"></path> <path class="fil1" d="M119 212c3,2 7,3 10,1 -3,-3 -7,-3 -10,-1z"></path> <path class="fil1" d="M149 215c1,2 0,2 4,2 0,0 3,1 3,1 3,-1 2,-1 3,-2 -2,-1 -7,-2 -10,-1z"></path> <path class="fil1" d="M158 41c-1,-3 -6,-3 -10,-2 2,3 6,3 10,2z"></path> <path class="fil1" d="M172 42c-1,-3 -5,-3 -9,-2 1,3 5,3 9,2z"></path> <path class="fil1" d="M119 37c3,3 7,3 10,1 -2,-2 -6,-3 -10,-1z"></path> <path class="fil1" d="M235 47c2,1 6,2 10,1 -2,-3 -9,-4 -10,-1z"></path> <path class="fil1" d="M187 42c-1,0 -6,-1 -10,-1 0,0 0,4 6,3 4,-1 2,0 4,-2z"></path> <path class="fil1" d="M209 223c1,1 0,1 3,2 0,0 2,0 2,0 0,0 3,0 3,0 2,0 1,0 3,-1l-8 -2c-2,1 -2,1 -3,1z"></path> <path class="fil1" d="M58 204c3,2 8,3 10,1l-7 -2c-2,0 -2,0 -3,1z"></path> <path class="fil1" d="M224 225c6,4 6,0 6,0 -2,-1 2,-1 -3,-1 -5,0 -2,1 -3,1z"></path> <path class="fil1" d="M44 296c17,1 33,-1 52,-1 55,3 86,17 130,39 -36,-33 -133,-55 -182,-38z"></path> </g> <g> <path class="fil5" d="M256 294c13,32 31,88 31,121 0,9 -2,11 -1,14 7,14 0,13 1,19 1,5 5,10 -1,19 4,5 4,15 0,19 5,9 4,9 4,23 0,26 -32,21 -58,21 -20,0 -58,5 -60,-19 -1,-7 -2,-18 2,-23 -1,-4 -3,-4 -3,-10 0,-7 2,-7 2,-10 1,-3 0,-1 -1,-4 -3,-7 1,-15 1,-16 0,-2 -1,-2 -1,-5 -1,-1 -1,-3 -1,-6 0,-7 2,-5 3,-9 0,0 -1,-20 0,-24 0,-21 13,-60 19,-81 4,-13 9,-24 14,-37 11,-28 -3,-6 0,-41 1,-9 5,-12 14,-12 28,-2 35,-1 32,29l-1 5c-2,2 -1,1 -3,3 1,11 4,15 7,24z"></path> <g> <path class="fil3" d="M178 496c0,-6 4,-6 9,-5 18,0 89,-2 96,1l0 4c1,20 0,27 -20,27l-65 0c-23,0 -20,-14 -20,-27zm-1 -17c-1,-6 2,-8 7,-9 28,0 59,1 89,0 4,0 9,0 10,5 1,5 -1,8 -6,8l-89 0c-5,0 -10,1 -11,-4zm11 -15c-6,0 -10,1 -11,-5 -1,-6 2,-8 7,-8l91 0c5,0 7,1 8,6 0,5 -2,6 -6,7l-89 0zm-11 -26c0,-7 4,-6 10,-6 15,0 86,-1 94,0l2 5c1,8 -5,8 -10,8l-86 0c-6,0 -10,0 -10,-7zm3 -27c0,-3 0,-9 1,-13 1,-13 8,-37 12,-51 2,-7 3,-13 5,-20 4,-13 10,-25 14,-37 11,-26 -4,-19 30,-21 1,7 1,12 4,18 3,5 5,11 7,16 4,10 8,22 11,33 6,21 16,50 16,74 0,12 2,15 -6,15l-83 0c-12,0 -11,1 -11,-14zm66 -148c-8,0 -17,0 -25,0 -7,0 -7,2 -8,-5 -3,-23 6,-18 18,-18 14,0 18,-5 15,23zm-72 225c-4,5 -3,16 -2,23 2,24 40,19 60,19 26,0 58,5 58,-21 0,-14 1,-14 -4,-23 4,-4 4,-14 0,-19 5,-9 2,-14 1,-18 -1,-7 6,-6 -1,-20 -1,-3 1,-5 1,-14 0,-33 -18,-89 -31,-121 -3,-9 -6,-13 -7,-24 2,-2 1,-1 3,-3 1,-2 1,-4 1,-5 3,-30 -4,-31 -32,-29 -9,0 -13,3 -14,12 -3,35 11,13 0,41 -5,13 -10,24 -14,37 -6,21 -19,60 -19,81 -1,4 0,24 0,24 -1,4 -3,2 -3,9 0,3 0,5 0,6 1,3 2,3 2,5 0,1 -4,9 -1,16 1,3 2,1 1,4 0,3 -2,3 -2,10 0,6 2,6 3,10z"></path> <path class="fil6" d="M187 498c-5,4 1,16 13,19 3,1 8,2 10,0 2,-2 2,-3 0,-4 -3,-3 -15,1 -18,-11 0,-2 -2,-7 -5,-4z"></path> </g> </g> <g> <path class="fil5" d="M28 221l-2 17 -3 15 -7 30 -11 43 -1 34 0 66 0 28 4 16 10 4 11 0 7 3 8 0c0,0 4,-3 5,-3 0,0 11,0 11,0l8 -3 3 -9 0 -14 1 -35 0 -79 -5 -24 -13 -53 -6 -17 0 -18 4 -6 3 -6 -2 -5 -3 -6c0,0 -5,-2 -6,-2 -1,0 -8,0 -8,0l-10 1c0,0 -3,2 -3,3 0,1 -1,4 -1,5 0,1 0,5 0,7 0,1 0,6 1,6 0,1 0,2 0,3 0,0 5,-1 5,-1z"></path> <path class="fil3" d="M26 202c5,-2 9,-1 15,-1 8,0 9,0 9,7l0 10 -24 0c-1,-8 -1,-8 0,-16zm-24 263c4,17 19,11 23,12 2,0 5,2 9,3 12,4 11,-4 20,-3 4,1 7,1 11,-1 9,-3 10,-17 10,-27 1,-16 0,-33 0,-49 0,-33 2,-65 -6,-93 -2,-12 -20,-72 -17,-81 0,-2 7,-3 4,-22 -1,-11 -8,-9 -19,-9 -10,0 -16,-1 -18,10 0,4 0,7 0,12 0,6 1,6 5,8l-3 26c-2,9 -4,16 -6,24 -15,58 -15,44 -15,108 0,15 -1,65 2,82zm4 -86c0,-10 1,-20 1,-29 0,-46 23,-86 23,-125l15 0c0,8 3,27 5,35l13 48c3,12 5,24 5,36 0,7 1,12 1,19l0 33c0,7 0,14 0,22l-1 43c-2,10 -5,10 -15,10 0,-9 -3,-8 -5,-6 -3,3 0,6 -6,9 -11,4 -14,-8 -17,-10 -4,1 -4,2 -3,6l-10 1c-8,-9 -5,-71 -6,-92z"></path> </g> </g> <rect class="fil7" x="13" y="335" width="49.5278" height="105.29" rx="4" ry="2"></rect> <path class="fil7" d="M220 303l22 0c3,0 5,3 6,6l24 101c1,3 -3,6 -7,6l-71 0c-4,0 -8,-3 -7,-6l27 -101c1,-3 3,-6 6,-6z"></path> <polygon class="fil7" points="105,53 66,170 208,188 232,63 "></polygon> </g> </g> </svg> 