<?xml version="1.0" encoding="UTF-8"?> <!-- Creator: CorelDRAW X7 --> <svg xmlns="http://www.w3.org/2000/svg" xmlns:xlink="http://www.w3.org/1999/xlink" xml:space="preserve" width="1.2008in" height="0.994673in" version="1.1" style="shape-rendering:geometricPrecision; text-rendering:geometricPrecision; image-rendering:optimizeQuality; fill-rule:evenodd; clip-rule:evenodd" viewBox="0 0 1803 1494"> <defs> <style type="text/css"> <![CDATA[ .fil2 {fill:#4D4D4D} .fil0 {fill:#E52D33} .fil1 {fill:white;fill-rule:nonzero} ]]> </style> </defs> <g id="Layer_x0020_1"> <metadata id="CorelCorpID_0Corel-Layer"></metadata> <g id="_2822800387504"> <g> <polygon class="fil0" points="625,446 1134,450 1134,791 617,794 "></polygon> <g> <path class="fil1" d="M784 516l-2 -2c10,-11 28,-13 38,-24l2 2c-10,11 -27,14 -38,24z"></path> <path class="fil1" d="M760 543l-3 -1c24,-42 70,-65 116,-59l0 3c-45,-5 -90,16 -113,57z"></path> <path class="fil1" d="M955 503c-40,-26 -97,-26 -141,-9l-1 -3c45,-16 105,-19 144,9l-2 3z"></path> <path class="fil1" d="M874 760c-57,2 -111,-35 -129,-89l3 -1c41,120 220,115 258,-4l3 1c-24,52 -71,100 -132,93 0,0 -1,0 -3,0z"></path> <path class="fil1" d="M965 734l-1 -2c82,-50 58,-199 -27,-234l1 -3c88,36 111,188 27,239z"></path> <path class="fil1" d="M756 554l0 -3c36,-1 74,-1 110,-1l0 3c-36,0 -74,0 -110,1z"></path> <path class="fil1" d="M995 555c-73,-10 -150,-4 -222,-4l0 -3c73,-1 149,-5 222,4l0 3z"></path> <path class="fil1" d="M745 619l0 -4c85,-5 171,-6 256,-3l0 3c-86,-4 -172,-3 -256,4z"></path> <path class="fil1" d="M1014 621c-28,-1 -56,-2 -84,-3l0 -4c28,0 57,1 85,4l-1 3z"></path> <path class="fil1" d="M889 691c-43,0 -85,-1 -128,-3l0 -3c76,3 153,4 227,1l0 3c-32,1 -65,2 -99,2z"></path> <polygon class="fil1" points="759,683 759,680 891,685 891,688 "></polygon> <path class="fil1" d="M876 634c-1,-46 -3,-92 -5,-139l3 0c2,46 4,92 6,139l-4 0z"></path> <path class="fil1" d="M878 755l-3 -9 1 0c10,-89 2,-180 -5,-258l3 0c8,80 16,174 4,267z"></path> <path class="fil1" d="M829 733c-45,-71 -36,-184 20,-246l2 2c-55,59 -64,176 -20,244l-2 0z"></path> <path class="fil1" d="M843 756c-37,-37 -49,-90 -41,-152l3 1c-9,62 5,111 40,148l-2 3z"></path> <path class="fil1" d="M932 728l-3 -1c12,-26 18,-56 17,-84 2,-52 -4,-112 -41,-154l3 -2c50,65 54,166 24,241z"></path> <path class="fil1" d="M915 752l-2 -1c20,-34 31,-73 29,-114l3 0c2,41 -8,80 -30,115z"></path> <path class="fil1" d="M774 711c-37,-31 -43,-77 -38,-125l3 0c-4,48 0,92 36,122l-1 3z"></path> <path class="fil1" d="M735 632c1,-32 6,-65 24,-92l2 1c-18,26 -21,60 -23,91l-3 0z"></path> </g> <path class="fil2" d="M169 1436c-5,16 9,42 2,57 -7,0 -6,2 -8,-6 -1,-4 -2,-9 -2,-13 -1,-8 -2,-16 -3,-24 -2,-20 -11,-28 -13,-41 5,-4 0,0 5,-2 -16,-53 -36,-106 -51,-161 -3,-9 -12,-52 -14,-56l-20 34c3,8 11,14 12,23 -9,0 -9,-16 -17,-16 -5,7 14,50 17,61 8,21 15,41 22,62 7,20 45,118 35,131 -11,9 -24,-40 -26,-47l-22 -55c5,0 4,1 7,6 10,20 19,44 28,65 0,-9 -65,-204 -69,-210l-16 25c4,3 15,8 9,14l-5 -3c-1,14 21,67 27,82 7,17 30,67 27,83 -8,1 -9,-6 -13,-13 -3,-5 -6,-11 -10,-17 -10,-17 -51,-87 -64,-90 3,16 24,68 17,80 -8,5 -14,-9 -15,-15 4,-4 1,0 5,-4 -3,-15 -17,-55 -12,-67 10,-2 19,13 25,20l19 29c10,15 26,47 37,58 -7,-24 -19,-50 -28,-73 -5,-12 -9,-24 -14,-37 -2,-6 -4,-13 -6,-19 -1,-3 -2,-6 -2,-10l-3 -9c-4,5 -22,35 -29,28 -4,-4 7,-18 10,-22l34 -53c5,-7 2,-7 4,-15 6,-5 4,3 10,-7 6,-10 36,-57 37,-61 2,-11 -7,-25 1,-35 9,-1 2,0 8,4 9,-11 2,-7 7,-15 9,2 9,10 12,24 3,15 21,58 27,76 7,21 31,85 33,103 1,-17 -40,-147 -49,-180 -5,-19 -10,-42 -16,-59 -4,8 -5,23 -8,32 -3,6 -3,6 -8,8 -5,-9 2,-11 3,-32 8,-79 12,-120 38,-196 6,-17 14,-23 14,-25 6,-21 30,-52 48,-66 8,-7 6,-1 12,1 3,1 14,-2 18,-2 14,0 20,5 30,-5 14,-13 2,-8 24,-16 12,-4 40,-3 54,0 15,3 10,12 33,-11 9,-10 14,-10 26,-10 12,-1 20,3 31,5 13,2 17,7 26,10 7,-8 25,-54 38,-69 8,-10 37,-60 37,-71 -1,-18 3,-22 0,-45 -1,-9 0,-11 10,-10 3,10 -1,21 -2,29 -1,4 -1,2 0,5 2,6 1,2 3,4 2,-4 1,-5 3,-10 3,-9 12,-16 16,-23 -2,-4 -15,-18 -19,-22 -3,10 4,8 -9,10 -5,-8 -3,-24 -2,-33 0,-23 -4,-11 -8,-27 1,0 1,-1 2,-1l2 -1c1,-1 1,0 4,-1 1,-12 -1,-24 2,-37 4,-12 12,-16 17,-24 -3,-8 -9,-5 -6,-12 5,-2 7,3 12,7 6,-3 16,-9 22,-1 -4,5 -10,2 -15,8 8,12 27,31 39,43 3,4 8,11 13,15l0 -49c11,-11 32,-5 46,-6 -4,-7 -8,-5 -17,-6 -11,0 -49,0 -58,-3 -4,-1 -6,-3 -6,-6 1,-1 161,-2 178,-2 60,0 119,4 179,0 -12,-7 -22,-30 -10,-40 5,-4 53,-10 51,6 -10,3 -14,-2 -27,0 4,5 16,14 22,17 -3,-2 -7,-10 -5,-13 6,-1 10,5 13,-2 3,-9 0,-5 7,-9 7,-4 4,-8 16,-9 17,-1 81,-11 90,-21 5,-5 5,-10 15,-8 10,3 26,9 43,13 33,7 76,7 98,12 10,2 9,9 14,12 14,7 3,-16 42,35 10,13 30,33 37,44 4,5 7,12 11,17 8,10 14,12 27,30 12,18 28,20 51,57 9,13 7,25 11,39 8,28 35,85 47,119 4,14 25,72 30,81 34,62 44,78 89,132 9,10 17,20 22,32 18,42 161,197 168,219 -9,1 -38,-35 -45,-43 -7,-8 -35,-41 -41,-46 11,19 36,45 46,63 -2,1 3,2 -4,1 -5,0 -7,-6 -10,-10 -10,-14 -25,-29 -35,-42 -29,-40 -60,-77 -88,-117 -15,-20 -31,-39 -45,-60 -6,-9 -13,-21 -20,-30 -8,-11 -1,-5 -14,-11 -4,-2 -11,-9 -15,-11 -21,-15 -42,-28 -64,-41 -21,-12 -46,-25 -68,-35 -14,-6 -62,-27 -71,-33 5,-4 5,-2 11,1 3,1 6,3 9,4l100 48c11,6 29,18 39,21 -11,-11 -77,-56 -94,-68 -21,-14 -79,-55 -98,-64l-7 36c6,4 14,6 21,9l16 7c5,3 3,2 4,4 -11,2 -30,-13 -43,-14 2,3 4,4 8,6l25 14c11,6 22,12 33,19 44,25 87,51 129,78l47 31c6,4 13,7 13,14 -8,1 -23,-11 -30,-16 -11,-6 -20,-12 -31,-17 -41,-23 -84,-44 -127,-63 -16,-7 -52,-25 -68,-28 12,8 25,15 37,22 37,23 76,45 111,70 41,29 85,55 124,86 7,5 14,8 12,16 -6,-1 -50,-31 -59,-36 -41,-25 -82,-48 -126,-68l-66 -32c4,-2 5,0 5,0 1,0 4,1 6,2 4,1 7,3 11,5l22 10c15,7 29,14 44,21 14,7 29,15 43,22l15 8c1,1 2,1 3,2l23 12c-19,-11 -37,-24 -55,-36 -19,-12 -38,-24 -57,-36 -18,-11 -104,-67 -117,-71 -5,4 -8,8 -14,12 -7,4 -9,4 -12,12 8,4 17,6 26,10 7,3 17,5 23,10l2 2c1,1 1,1 1,1 -21,-1 -46,-22 -68,-22l10 8 33 20 68 40 -106 -55c-15,-9 -21,-19 -38,-9l-193 1 -11 55 70 11 16 5 248 61 -59 -46c19,2 66,39 93,40 4,8 15,8 23,8 -15,-7 -34,-20 -49,-29 -11,-6 -44,-22 -48,-32 6,-3 24,11 29,14l59 32c7,4 24,14 31,16 3,-4 9,-13 9,-18 -7,1 -10,5 -13,11l-4 -3 10 -11 -9 -6c-7,-8 -11,-8 -41,-27 29,1 101,53 119,64 14,9 28,17 42,26 40,26 80,53 119,81 7,5 35,23 33,32 -5,1 -9,-5 -13,-9 -4,-3 -10,-7 -15,-10 -45,-35 -132,-89 -182,-120 -11,-6 -27,-21 -32,-11l5 -6 -13 -7c-5,4 -7,6 -8,11 3,4 5,4 10,8l5 -4c-10,5 14,7 20,12 10,7 49,26 64,34 7,3 10,2 9,10 -12,2 -43,-21 -57,-25 6,7 103,67 119,76 20,13 41,23 60,37 10,6 20,12 30,19 7,5 27,13 22,24 -7,2 -21,-7 -27,-11 -13,-8 -42,-23 -50,-33 -4,-5 -8,-2 -26,-14 -17,-11 -32,-22 -49,-32 -9,-6 -46,-27 -53,-27 3,0 108,71 119,79l30 21c19,14 42,27 59,42 11,9 26,13 21,30 -10,4 -15,-2 -22,-7 -32,-23 -106,-67 -141,-85l-1 0c0,1 39,27 41,29 22,17 89,62 103,76 6,6 18,12 13,20 -6,8 -34,-15 -40,-19 -13,-9 -27,-16 -40,-25 -26,-16 -55,-30 -83,-46 1,3 14,13 17,17 11,14 43,35 60,47l59 45c6,5 15,11 11,21 -14,5 -93,-41 -97,-51 5,-3 29,14 40,20 7,4 31,19 40,20 3,1 0,1 2,0 -12,-8 -22,-17 -33,-25 -19,-14 -93,-70 -106,-77 3,9 34,52 44,68 16,28 5,12 27,29 16,14 69,49 64,68 -8,0 -13,-12 -19,-19 -9,-9 -56,-46 -66,-51 5,8 19,22 20,31 -8,0 -8,-4 -13,-11 -10,-13 -19,-27 -30,-39 -1,2 5,17 6,21 5,15 25,31 34,46 13,19 -18,-10 33,46 5,6 10,11 15,17 3,3 14,15 14,17 -6,3 -9,-2 -13,-7 -10,-11 -68,-71 -71,-77 -6,4 0,4 -8,2 -3,-6 -2,-5 -4,-11 -2,-8 -14,-20 -20,-26 -7,-7 -23,-28 -23,-38 5,2 4,9 10,6l-12 -15c-5,4 -2,2 -7,6l43 141c5,14 5,7 14,17 5,5 12,12 13,19 -8,-1 -10,-10 -18,-14 0,5 2,3 -1,7 -13,-1 -30,-66 -35,-79 -18,-54 -53,-168 -75,-214 -1,-4 -4,-7 -5,-9 -2,-5 -2,-6 -4,-12 -3,-4 -8,-15 -10,-17l60 152c4,14 2,11 -1,14 -7,-5 -14,-31 -18,-41 -18,-41 -38,-82 -53,-124 -5,-13 -10,-31 -16,-43 -7,-11 -18,-23 -25,-33 -9,-12 -72,-18 -95,-24 -85,-24 -167,-41 -253,-67 -18,-6 -61,-1 -67,-22 -1,-8 -1,-22 0,-30 1,-12 7,-11 10,-19 -9,-1 -27,1 -38,1l-193 -3c-19,-1 -63,-4 -79,0 0,5 2,3 0,7 -7,-4 -2,-6 -9,-8 -5,-1 -14,0 -18,1 -19,1 -64,1 -81,-8 -3,-2 -6,-4 -10,-6 -3,7 -8,21 -10,28 0,2 -1,7 -1,8 10,3 21,-1 28,15 2,5 -1,10 0,16 0,11 0,6 -4,16 -12,26 -8,39 -15,65 -15,60 11,73 -34,131 -42,53 -36,39 -92,72 -17,10 -36,20 -52,30 -11,6 -17,3 -29,11 -6,5 -5,8 -9,12 -6,5 -10,1 -17,4 3,6 8,4 4,13l-13 32c-5,9 -6,2 -11,3 -1,4 -2,8 -4,13 -22,48 -30,89 -46,139 -4,11 -12,43 -26,41 -2,-7 17,-40 14,-50 -4,2 -2,1 -4,7l-11 27c-5,9 -3,7 -11,13 -8,6 -1,16 -13,12 -3,-3 -1,-18 -1,-23 -1,-7 -4,-13 -6,-19 -1,16 10,40 7,53 -12,4 -13,-16 -24,-38zm9 -2c0,-7 -8,-27 -7,-32 4,-14 4,-3 -4,-31 -7,-21 -13,-43 -21,-64 -7,-21 -15,-40 -23,-61 -5,-13 -20,-47 -28,-58 2,32 44,153 57,191 3,10 6,21 10,31 3,8 6,1 16,24zm245 -367c-1,21 -1,48 3,69 12,-1 28,-17 35,-23 -1,-5 -13,-42 -13,-50 -2,15 7,65 -6,50 -7,-8 -12,-37 -19,-46zm-43 96c5,-1 34,-19 39,-23l-7 -20c-3,-6 -3,-3 -1,-9l5 8 0 -51c0,-4 0,-8 2,-11 2,-5 0,-1 2,-3 10,3 15,32 19,38 3,-7 1,-38 0,-47 -6,1 -4,3 -9,-1 2,-9 6,-1 6,-13 1,-11 4,-5 8,-14l23 -64c1,-5 5,-12 6,-16 1,-9 -3,-13 1,-19l3 8c10,-18 9,-38 12,-44l5 0c-1,-6 1,-15 3,-21l6 1c10,-20 23,-56 27,-78 2,-13 14,-30 23,-51 6,-12 -8,-9 -1,-17 5,1 2,2 6,4l20 -42c2,-5 1,-8 4,-14 3,-8 5,-8 8,-14 3,-5 3,-9 6,-14 6,-10 3,-7 5,-17 2,-8 4,-6 4,-18 -5,1 -7,5 -11,9 -7,8 -5,4 -6,14 -11,0 -25,-7 -34,-15 -4,5 2,5 -6,16 -6,7 -1,-3 -10,13 -18,29 -19,37 -32,64 -14,27 -7,2 -20,30 -3,7 -3,15 -5,19 -1,2 -3,2 -5,6 -1,2 -2,5 -4,8 -6,11 -11,21 -17,32 -4,6 -29,63 -32,65l-15 3c-9,-9 -5,-8 -5,-17 -5,-3 -14,-10 -9,-17 7,2 1,6 6,7 -6,-8 -29,-47 -33,-57 -6,6 -15,10 -22,18 2,9 9,15 12,23 2,6 1,9 5,12 5,4 8,1 6,11 -6,3 0,1 -15,-5 -3,5 4,3 -4,9 -5,4 -4,-2 -7,9 -2,9 -2,19 -12,19 -2,-6 1,-20 3,-26 2,-8 5,-7 6,-12 2,-5 -1,-6 6,-9l-15 -18c-13,1 -15,13 -24,12 0,-8 7,-8 9,-14 2,-6 -1,-6 2,-11 4,-6 4,2 7,-7 -5,-9 -36,-12 -40,-12 0,13 19,24 16,40 -16,6 -13,-12 -13,-13 -1,-3 -8,-14 -10,-18 -12,2 -21,26 -30,30 -6,-4 -1,0 -4,-6 -4,3 -5,8 -7,14 -3,8 -3,13 -11,12 -1,-9 2,-10 2,-17l-7 1c-5,24 45,224 57,270 8,29 18,59 25,87 13,1 6,1 11,9 7,0 15,-3 20,-5 -8,-26 -14,-48 -20,-74 -6,-23 -11,-53 -19,-75 8,-6 1,2 4,1l-13 -86c-1,-5 -2,-8 0,-12 5,3 6,21 7,30 6,39 9,58 18,97 5,20 11,38 17,58 2,9 6,19 8,29 2,8 5,25 7,31 6,-1 4,-2 10,-3 6,-1 3,2 9,-3 4,-4 10,-7 14,-11 -7,-9 -10,-28 -15,-43 -2,-6 -6,-11 -3,-15 6,4 9,24 13,31 0,-5 -22,-169 1,-144 7,7 26,75 32,91 0,1 2,6 3,7 2,9 2,4 -2,9 -1,-10 -13,-43 -16,-55 -4,-11 -12,-46 -21,-51 -1,29 0,59 4,87 2,13 12,72 9,80zm28 -51c-2,-5 -3,-5 -2,-11l3 1c0,1 1,3 1,3 2,8 2,4 -2,7zm83 -33c8,-6 18,-20 20,-21 -5,-1 -11,0 -16,-3 2,-6 3,-2 10,-4 -3,-6 -7,-6 -7,-14 5,-3 3,-2 9,-1 0,-8 -5,-19 -7,-26 -2,-6 -10,-22 -8,-24 7,5 14,43 20,50l-13 -93c-9,3 -5,3 -11,10 -2,3 -7,8 -9,12 -3,7 10,105 12,114zm-246 164c6,-9 5,-6 14,-6 8,-9 2,-15 -5,-44 -3,-16 -7,-33 -11,-49 -9,-39 -56,-276 -81,-280 -5,22 27,165 34,196l49 183zm283 -379c-11,3 -25,20 -27,30 -3,12 5,35 5,50 1,21 6,56 9,79 3,26 5,9 10,20 -5,4 -3,1 -7,4 1,4 2,5 3,6 6,-4 3,-5 12,-9l1 -24 -12 18c-2,-2 -6,-10 -6,-13 -2,-8 9,-20 11,-43 1,-12 0,-20 4,-32 2,-9 8,-22 8,-30 -7,-6 -6,-3 -12,-3 0,-5 -1,-8 0,-11 0,-5 1,-9 1,-14 1,-20 4,-2 0,-28zm-317 8c-4,0 -1,2 -9,-14 -2,-6 -4,-14 -9,-16 -3,8 31,165 36,187 4,21 41,172 47,181l9 -5c3,-2 5,-5 7,-8 -13,-48 -24,-99 -35,-148 -6,-25 -10,-52 -17,-76 -3,-11 -21,-65 -21,-70 7,1 14,28 14,28 -1,-15 -6,-36 -9,-52 -2,-11 -6,-49 -9,-55 -5,3 -3,4 -8,8 -4,3 -6,4 -10,7 1,2 14,33 14,33zm976 -245c0,6 0,15 -1,20 -2,3 -2,4 -5,5 -15,1 -11,-32 -11,-39 0,-20 -1,-15 -11,-30 -4,-5 -13,-21 -16,-22l-3 95c0,18 0,12 10,23 9,10 19,23 30,34 30,32 14,9 24,20 4,3 4,7 3,12 -8,-1 -12,-10 -18,-16l-49 -54c-1,17 0,35 0,52 0,10 -2,14 5,21 3,4 10,10 11,15 -5,0 1,4 -6,-3l-9 -10c-2,7 0,12 0,19 0,9 -3,7 2,15 3,4 14,20 15,24 6,0 26,-3 30,-6 -9,-11 -14,-12 -14,-18 5,2 8,9 13,12 -3,-5 -15,-21 -17,-26 6,0 5,0 9,6l15 24c21,-14 13,-14 16,-38 2,-17 0,-36 1,-52 2,-14 5,-39 -3,-50 -4,-7 -17,-30 -21,-33zm-13 157c-5,0 -7,-4 -11,-9 -10,-11 -8,-4 -7,-12 3,1 2,-1 5,4 4,5 12,13 13,17zm-230 8c168,3 148,5 185,-1l0 0 5 0 0 -341 -509 -4 -8 348c-7,-5 2,-23 -2,-33l-36 -40c-10,16 -9,18 -3,24 12,14 44,51 51,61l24 -1c-6,-10 -5,-7 -18,-8 0,-2 1,-3 1,-3l310 -2zm-528 4c6,-3 8,-9 12,-14 5,-6 10,-5 4,-14 -4,-6 -9,-6 -17,-8 -7,-2 -13,1 -19,3 7,11 14,21 20,33zm152 -51c-3,3 -5,6 -6,11 9,9 17,22 25,32 15,19 18,21 35,19l-54 -62zm46 6c3,-5 3,-13 3,-19 -1,-6 -5,-8 -9,-12 -7,-8 -12,-14 -19,-22l-7 16c5,7 26,32 32,37zm866 38c-5,2 -6,7 -11,-2 -3,-7 -2,-5 -9,-10 -9,-5 -12,-12 -20,-17 -21,-13 -129,-94 -132,-95 -8,10 -7,17 -9,29 7,5 15,4 20,10 -9,1 -14,-5 -20,-4 -5,7 13,13 26,23l99 66c21,15 42,31 63,46 11,7 56,43 61,46 -4,-5 -21,-32 -32,-47 -5,-6 -14,-16 -20,-21 -14,-11 -9,-7 -16,-24zm-864 -71c2,-7 2,-26 1,-34 0,-7 -9,-16 -14,-20 -5,5 -11,20 -11,28l24 26zm-29 -116c3,-9 11,-21 -3,-25 -10,-4 -18,0 -19,9 3,3 3,2 7,5 6,6 3,7 9,9 3,1 2,0 6,2zm542 -244c-3,5 -4,13 -13,12 -6,-1 -7,-9 -9,-13 -10,3 -18,7 -27,9 -5,2 -23,5 -27,7 -1,11 4,-4 1,19 0,6 3,-2 -1,5 -12,1 -7,-3 -23,1 -10,2 -14,2 -23,3 8,9 73,21 86,-5 9,-19 8,-9 36,5 44,23 47,13 67,20 14,5 20,10 36,6 0,-5 -4,-3 -5,-10 7,0 10,8 15,13 24,24 47,44 72,66 8,8 26,18 29,28 -9,-2 -33,-25 -44,-34 -14,-11 -26,-24 -39,-35 -9,-8 -17,-18 -25,-25 1,9 23,57 29,66 15,25 13,25 31,39 8,6 11,7 11,12 -6,-1 -12,-10 -17,-12 12,13 3,7 15,14l0 14c-4,17 5,26 10,36 4,8 5,13 12,19l70 54c8,6 13,10 15,16 -7,-2 -16,-11 -22,-17 -9,-8 -51,-37 -59,-47 -4,3 0,8 -9,4 -6,-2 -1,-4 -8,-5l-1 7c7,3 15,2 9,13 -3,7 -7,8 -10,16 13,11 156,115 157,115 4,-14 -2,-23 -6,-37l-15 -74c-5,-28 -6,-17 -7,-25 0,-2 0,-4 0,-7 -2,-11 -16,-59 -22,-67 -13,-20 -19,-22 -34,-33 -9,-6 -4,-7 -1,-12 -15,-20 -34,-43 -51,-60 -6,-6 -9,-5 -17,-12 -6,-5 -29,-33 -41,-39 -5,5 -2,7 -12,7 -5,-6 -1,-12 -2,-20 -5,0 -9,7 -20,5 -2,-6 1,-12 7,-15 7,3 1,3 5,5 4,-4 5,-4 6,-9 -3,-3 -10,-4 -15,-5 -5,-1 -10,-1 -15,-2 -12,-2 -22,-4 -34,-5 -26,-3 -41,-1 -65,-11zm276 274c-4,-2 -6,-4 -9,-7 0,0 0,-1 0,-1l-90 -77c4,-1 1,-1 3,0l86 73c9,8 10,8 10,12zm-789 40c3,-9 0,-24 2,-35 2,-15 0,-50 1,-69 0,-37 3,-16 -40,-67 -5,-6 -11,-12 -16,-19 -3,-3 -12,-16 -16,-17 -7,47 -2,32 7,44 -4,4 -2,3 -8,0l41 46c16,20 29,4 29,60 0,5 0,12 -1,16 -1,11 -8,6 -7,18 0,6 -1,3 4,8 -5,5 -1,-2 -7,2l11 13zm2 -134c2,-8 3,-30 -2,-37 -9,-12 -51,-54 -54,-60 -5,3 -10,10 -13,16 3,6 62,75 69,81zm591 -43c-8,-5 -17,-20 -23,-27l-20 -24c-5,-6 -6,-9 -13,-10 -29,-4 -43,-17 -48,-11 7,1 12,0 13,6 -3,2 -49,2 -58,3 1,6 5,7 11,7l54 1c13,0 20,1 19,17 -1,5 -2,11 -1,16 2,7 5,5 5,12 -4,-2 -2,-1 -5,-4 -6,58 10,40 14,57 -6,-2 -9,-10 -14,-13 -1,6 -1,18 0,24 1,6 25,39 28,41 2,-3 3,-9 7,-10 17,-4 7,27 10,37 1,4 23,38 25,40 0,-31 4,-164 -1,-188 -5,-21 -11,-29 -33,-31 -3,4 0,3 -5,5 -4,-3 -5,-4 -9,-6 6,10 39,41 44,58zm-44 51c-4,-1 -7,-5 -8,-8 4,1 1,-1 5,3 2,3 2,3 3,5zm-17 -61c6,1 12,13 16,18 12,17 36,45 42,59 -9,-5 -22,-28 -31,-38 -6,-6 -9,-12 -14,-19 -5,-5 -12,-14 -13,-20z"></path> </g> <g> <g> <path class="fil0" d="M916 345c-1,-41 3,-83 11,-123l-4 -1c-7,41 -11,82 -11,123l4 1z"></path> <path class="fil0" d="M917 349c6,-42 9,-85 13,-126l-4 -2c-4,42 -9,84 -13,126l4 2z"></path> </g> <g> <g> <path class="fil0" d="M1633 512l-1 -5c11,-1 15,-16 23,-21l3 3c-6,7 -16,22 -25,23z"></path> <path class="fil0" d="M1630 514l-3 -3c11,-10 23,-22 31,-36l4 4c-7,13 -19,25 -32,35z"></path> <path class="fil0" d="M1697 512c-15,-6 -29,-16 -39,-32l4 -3c10,14 22,24 37,30l-2 5z"></path> <path class="fil0" d="M1699 517l-5 -1c11,-17 31,-29 47,-44l3 3c-12,14 -27,24 -39,37 -3,0 -5,2 -6,5z"></path> <path class="fil0" d="M1663 486c-3,0 -6,1 -8,-2 0,0 0,-2 -2,-2 -1,-2 -3,-5 -1,-7 0,-3 1,-6 6,-6 2,0 5,0 7,0 2,0 2,1 3,1 0,2 2,2 0,4 0,1 0,8 -5,12 4,0 2,0 0,0zm-5 -7l0 0c0,0 2,0 0,0 2,0 2,-2 2,-2l-2 0c0,0 0,0 0,2zm4 -7l0 0c0,0 -2,0 0,0z"></path> <g> <path class="fil0" d="M1628 524c-3,0 -6,-2 -8,-3 -7,-4 3,-24 10,-15 0,0 2,1 2,3l1 0 2 5c-2,0 -3,2 -3,2 0,1 1,5 -4,8 2,0 2,0 0,0zm-1 -7l0 0 0 0z"></path> </g> <path class="fil0" d="M1700 527c-1,0 -5,-1 -5,-1 -6,0 -8,-10 -5,-15 10,-9 32,13 14,18 0,-2 -2,-2 -4,-2zm2 -6l0 0c2,0 2,0 0,0z"></path> <g> <path class="fil0" d="M1742 480c0,0 -1,0 0,0 -3,0 -5,-1 -7,-3 -3,-2 -5,-7 -1,-10 0,-2 0,-2 0,-3l3 1c5,0 9,-1 12,2 0,5 0,10 -5,12 0,0 0,0 -2,1 0,-1 0,0 0,0zm-3 -10l0 0 0 0z"></path> </g> </g> <g> <path class="fil0" d="M159 498l-4 -3c16,-19 31,-37 41,-59l5 2c-12,22 -25,42 -42,60z"></path> <path class="fil0" d="M160 495l-3 -4 42 -53 3 3c-5,7 -10,15 -13,24l-3 -2 -26 32z"></path> <path class="fil0" d="M140 552c-13,-2 -28,-10 -35,-22 9,-22 29,-62 54,-57l-2 5c-15,-7 -50,40 -45,54 28,38 74,-16 67,-49l5 -2c5,29 -19,61 -44,71z"></path> <path class="fil0" d="M140 557c-13,-5 -40,-25 -30,-42 12,-12 25,-45 47,-42l-2 5c-18,-7 -31,32 -43,42 -2,3 0,8 3,10 9,7 14,18 24,20 18,-15 42,-40 35,-65l5 -2c7,27 -17,49 -34,67 0,3 -1,5 -5,7z"></path> </g> <g> <path class="fil0" d="M938 163c-13,0 -16,-22 -3,-22 2,-1 8,-1 10,2 7,2 3,14 0,17 0,0 0,2 -2,2 -1,1 -3,1 -5,1 2,0 0,0 0,0zm0 -18l0 0c-1,0 -3,2 -5,2 -6,5 0,15 9,11 1,-3 1,-5 3,-8l-2 -2c0,-3 -1,-3 -5,-3z"></path> <path class="fil0" d="M940 162c-2,0 -10,1 -10,-2 -7,-5 -2,-19 7,-20l1 5c-11,8 -6,12 5,10 0,0 2,-2 2,-3 2,-4 3,-9 -2,-11l0 -5c7,0 9,12 5,16 -1,3 -6,11 -8,10z"></path> <path class="fil0" d="M918 125l-3 -4c15,-11 38,-13 54,-1l-4 3c-12,-10 -33,-7 -47,2z"></path> <path class="fil0" d="M912 130l-2 0 -2 -2c0,-2 0,-3 0,-5l4 2c10,-19 62,-22 62,6 -16,-6 -36,-10 -51,-3 -5,0 -8,2 -11,2zm0 -4l0 0 -2 -1 2 1zm-2 -3l0 0c2,2 0,2 2,2 15,-9 35,-10 51,-4 -15,-11 -35,-6 -50,4 0,0 0,0 0,-2l-3 0z"></path> <path class="fil0" d="M984 101c-19,-30 -69,-27 -89,-1l-4 -4c26,-27 79,-28 101,4l-8 1z"></path> <g> <path class="fil0" d="M890 106c-2,0 -2,0 -4,0 -1,-1 -1,-3 0,-3 -1,-5 5,-2 7,-2 0,0 0,2 -2,2 16,-3 24,-15 41,-18l1 5c-15,1 -28,18 -43,16zm0 -5l0 0 0 0z"></path> </g> <g> <path class="fil0" d="M985 106c0,0 -1,0 0,0 -25,-25 -58,-28 -87,-10l-2 -5c29,-17 64,-17 88,9 0,-2 0,-2 -2,-2l3 -3c5,1 7,11 0,11zm-1 -3l0 0 0 0z"></path> </g> <path class="fil0" d="M1014 83c-39,-42 -111,-47 -149,-2l-4 -3c42,-47 109,-44 154,0l-1 5z"></path> <path class="fil0" d="M1010 88c-41,-30 -105,-49 -144,-2l-3 -3c28,-37 87,-40 122,-12 4,0 24,19 24,12l3 -3c2,1 2,3 2,5 1,1 0,3 -4,3z"></path> <path class="fil0" d="M866 90c-1,0 -3,0 -5,0 -1,-2 -1,-5 -1,-7l3 3c44,-35 102,-50 147,-8l-3 3c-45,-40 -99,-28 -142,5 3,2 3,4 1,4z"></path> <path class="fil0" d="M977 98c-19,-15 -52,-13 -72,-5l-3 -3c21,-9 60,-10 80,6l-5 2z"></path> </g> <g> <path class="fil0" d="M1452 248c-8,0 -17,-8 -14,-15 -1,-9 11,-18 19,-12l-1 1c9,2 12,17 6,24 -6,2 -9,2 -10,2zm-5 -26l0 0c-1,0 -3,0 -3,2 -10,7 -1,27 11,19 2,-4 2,-21 -8,-16l0 -5z"></path> <path class="fil0" d="M1450 248c-4,0 -10,0 -13,-5 -5,-7 1,-24 12,-22l0 -3c20,-3 25,19 8,30 -1,0 -4,0 -7,0zm-3 -5l0 0c9,2 19,-12 15,-19 -3,-2 -5,-2 -7,-3l-2 3c-12,-6 -19,18 -6,19z"></path> <path class="fil0" d="M1452 249c-11,-1 -14,-15 -11,-24l5 2c-8,42 37,3 11,-3l0 -5c3,0 6,2 9,3 9,12 -3,27 -14,27z"></path> <path class="fil0" d="M1432 255c-22,-4 -18,-33 -6,-45l3 3c-3,3 -4,8 -6,11l-1 0c-5,10 -3,25 9,30l-2 0 3 1 2 -1 0 3c0,-2 0,-2 -2,-2z"></path> <path class="fil0" d="M1444 260c-6,0 -12,-5 -18,-8 -7,-9 -9,-19 -9,-31l5 0c-2,15 7,33 22,36l0 3z"></path> <path class="fil0" d="M1447 261c-9,0 -19,-7 -24,-15l5 -1c13,25 52,12 53,-14 2,-27 -46,-37 -53,-10l-5 -2c8,-25 54,-22 63,0 9,23 -17,48 -39,42z"></path> <path class="fil0" d="M1462 283c0,0 -2,0 0,0 -6,0 -3,-3 -6,-4 0,0 0,0 -1,0 -3,-2 -8,0 -11,1 -4,8 -13,2 -18,-4 -3,-3 0,-9 -4,-12 -2,-3 -5,-4 -6,-6 -3,0 -5,0 -8,0 -7,-3 -7,-12 -1,-18 0,-4 -2,-10 -5,-13 -1,0 -1,-2 -3,-3 -1,-12 5,-23 17,-24l0 -2c4,-1 7,-6 7,-10 -1,-9 20,-14 17,0 0,0 1,1 3,0l14 0c-1,-15 26,-9 23,4 -5,5 1,9 4,12 3,5 12,2 15,5 3,4 2,15 -4,15 -6,0 -2,10 -3,15 13,-2 7,13 4,19 -4,3 -10,-7 -12,0 -1,3 -6,6 -6,11 2,3 3,5 2,8 -3,2 -15,3 -18,6zm-6 -9l0 0c3,0 4,3 4,6 2,0 12,-1 12,-1 0,-2 -1,-5 -1,-6 1,-7 10,-22 19,-13l2 0c0,-5 6,-9 1,-12 -10,1 -9,-18 -4,-23 1,0 1,0 3,-1 3,1 3,-6 3,-8 -11,2 -21,-7 -21,-18 0,-1 1,-3 1,-3 0,-1 0,-3 -1,-3 -2,-1 -3,-3 -5,-3 -9,-7 -4,9 -12,8 -5,-2 -22,3 -20,-8 -2,0 -8,2 -9,2l0 1c0,6 -3,12 -9,15 -9,3 -20,8 -17,20 5,4 11,13 6,19 -7,6 -4,12 5,11 9,3 12,10 13,17 2,2 9,11 11,8l1 -2c8,-6 14,-7 18,-6z"></path> <path class="fil0" d="M1523 301c-6,0 -10,-1 -15,-4 -22,-15 6,-48 26,-30 13,9 4,33 -11,34zm-18 -13l0 0c5,7 21,10 27,3 3,-6 5,-18 -1,-21 -5,-4 -12,-4 -18,-3l0 2c-8,0 -12,7 -11,14 3,3 5,3 3,5z"></path> <path class="fil0" d="M1498 267c-2,0 -2,0 0,0l-2 -4c11,1 8,-9 11,-15l1 -2c3,0 11,-1 9,5 0,3 5,6 8,6l1 4c-7,2 -12,-3 -12,-10 0,0 0,0 0,-2 -1,0 -1,0 -1,0 0,6 0,12 -5,15 -6,2 -9,3 -10,3z"></path> <path class="fil0" d="M1544 273c-6,-3 -3,-9 -1,-13 0,-2 0,-2 0,-3 -8,6 -21,7 -29,-2l3 -3c6,6 18,8 24,0 2,0 2,0 2,2 4,4 -3,13 1,16l0 3 0 0zm-1 -16l0 0 -2 -2 2 2z"></path> <path class="fil0" d="M1517 318c-1,0 -1,0 0,0 -4,-2 -6,-6 -4,-9 0,0 0,0 0,-2 -2,-1 -3,-1 -3,-3 -6,-3 -9,-12 -18,-10l0 -2c-2,-1 -2,-6 1,-7 0,0 0,0 0,-2 5,-7 -7,-19 8,-20l0 4c-2,0 -3,0 -5,2 0,4 3,13 -1,17 0,0 0,2 -2,2 9,3 14,12 23,16 0,3 0,5 0,6 6,-7 15,-16 24,-10 1,0 1,0 3,0 0,-9 0,-21 10,-21 0,0 2,-2 2,-3 -5,-3 -11,-6 -11,-10l3 1c3,3 8,5 11,8 0,2 0,5 -3,8 0,0 -2,0 -2,2 -9,3 -7,12 -6,19 -3,5 -9,2 -13,0 -6,0 -9,5 -14,9 0,2 -1,5 -3,5z"></path> <path class="fil0" d="M1522 310c-2,2 -5,-4 -5,-4l0 -2c-6,0 -12,-6 -16,-10 -6,1 -3,-8 -2,-11 0,-1 0,-3 2,-4 0,-3 0,-6 -2,-7l3 -3c2,-2 3,-2 3,-3 6,-3 5,-9 8,-14 6,-1 3,5 6,8 4,-2 13,6 15,3 1,-3 4,-5 7,-5 0,0 0,0 0,2 0,1 0,3 0,4 0,2 2,3 2,5 3,1 0,3 3,4 1,2 1,3 1,6 3,0 3,0 5,0 1,3 -3,6 -6,6 0,0 -2,0 -2,1l-1 0c0,2 0,3 0,5 1,1 1,6 1,9 -3,6 -12,0 -15,4 -1,0 -3,2 -3,2 -1,1 -1,4 -4,4zm-2 -4l0 0c2,0 2,0 0,0 2,0 2,0 0,0zm-19 -18l0 0c1,0 3,0 3,1 4,6 9,8 15,11 0,0 0,0 1,1 2,-1 3,-1 5,-3 1,0 3,0 3,2 3,0 6,-3 9,-2 0,-1 0,-1 0,-1 0,0 0,0 -2,-2 0,-1 0,-6 2,-7 0,-2 0,-3 1,-5l-4 -6 6 2c0,-2 0,-3 -2,-5 0,-2 -4,-4 -6,-7 0,0 -6,2 -4,-1 -3,0 -5,-2 -6,-3 -8,-2 -12,6 -20,7 0,3 2,6 -1,9 0,4 0,7 0,9 -2,0 -2,0 0,0 -2,0 0,0 0,0zm43 -6l0 0 -1 -6 0 1c1,0 1,-1 0,-1 1,0 1,0 0,0l1 6zm-6 -15l0 0c0,0 0,2 0,0 0,2 0,0 0,0 2,0 2,0 0,0 2,0 2,0 0,0 2,0 0,0 0,0zm-25 -7l0 0c0,1 -2,3 -2,3 2,0 2,-2 3,-2 0,0 0,0 -1,-1 1,0 0,0 0,0z"></path> </g> <g> <path class="fil0" d="M1171 160c-7,-8 -15,-15 -25,-18l1 -2c0,-1 2,-1 2,-3l12 -8 0 -2c3,-3 6,-2 10,0l-2 2 3 0c0,11 2,21 -1,31zm-17 -20l0 0c5,2 8,5 12,9 0,-5 0,-12 0,-17l-12 8z"></path> <path class="fil0" d="M1151 140l-4 -3c4,-5 9,-8 14,-12l3 4c-7,5 -10,8 -13,11z"></path> <path class="fil0" d="M1174 142l0 -5c32,-2 65,-5 97,-3l0 5c-33,-4 -63,3 -97,3z"></path> <path class="fil0" d="M1176 142l0 -5c33,-2 67,-2 100,-2l0 5c-33,0 -67,2 -100,2z"></path> <path class="fil0" d="M1281 147c-1,0 -3,0 -5,-2 -5,-1 -5,-11 0,-15l0 2c2,-3 7,0 10,2 2,3 5,6 2,11 -3,0 -5,2 -7,2zm-3 -7l0 0c2,0 3,0 5,0l0 -1 0 -2c-3,0 -5,0 -5,3 0,-1 0,0 0,0z"></path> <path class="fil0" d="M1239 134l-18 -17c0,-3 -19,-2 -20,-2l0 -5 17 0c5,-2 20,17 25,20l-4 4z"></path> <path class="fil0" d="M1199 122c-8,0 -10,-10 -7,-15 2,-2 4,-2 5,-2l0 2c5,-2 12,1 9,7 0,3 -2,5 -5,5 0,0 0,0 -2,0 2,3 0,3 0,3z"></path> <path class="fil0" d="M1216 165c0,0 -2,0 0,0l-12 0 0 -5c2,0 14,0 14,0 6,-8 15,-18 25,-25l1 5c-11,4 -15,24 -28,25z"></path> <g> <path class="fil0" d="M1201 175c-4,0 -17,-3 -19,-5 0,-1 2,-3 4,-5 -5,-5 0,-6 5,-10l0 2 -5 0 0 -3c5,-4 11,-2 16,-2l2 2c0,3 0,6 0,10 0,3 2,13 -3,11zm-2 -3l0 0 -10 0 10 0zm-2 -2l0 0 2 -1 -2 1c0,-1 0,-1 0,0zm-6 -1l0 0 -4 0 4 0zm6 -4l0 0 4 0 0 -1c-2,0 -2,0 -4,1 0,-1 0,-1 0,0zm-6 -3l0 0c0,2 0,2 0,0 0,2 0,2 0,0 0,2 0,0 0,0zm8 0l0 0 0 -5 0 5zm2 -5l0 0 0 0z"></path> </g> <path class="fil0" d="M1162 147c-1,-2 -1,-3 -1,-3 -2,0 -5,0 -7,0 -5,-5 2,-10 7,-10 0,-2 1,-2 1,-2l2 0 2 0 0 10c0,2 0,2 0,2l0 1 -4 2zm2 -5l0 0 -8 -3 8 3z"></path> </g> <g> <path class="fil0" d="M601 146c-31,7 -33,-36 -8,-48 24,-5 39,12 27,33 0,2 0,2 0,4 2,0 2,-2 3,-4l4 4c-7,8 -17,10 -26,11zm-3 -43l0 0c-18,0 -25,37 -5,38 -2,-1 -5,-3 -7,-5 -3,-10 -3,-23 7,-30 0,0 0,0 2,-1 0,-2 1,-2 3,-2zm2 32l0 0c20,5 23,-14 15,-27 -3,-2 -7,-3 -10,-2l-2 4c-2,-2 -5,-2 -7,0 -3,6 -5,15 -1,21 0,2 1,4 5,4z"></path> <path class="fil0" d="M606 148c-6,0 -16,-2 -21,-7 -5,-10 -5,-23 3,-33l3 3c-5,5 -6,12 -5,19 0,6 4,11 10,11 24,7 39,-13 31,-35l5 -1c6,18 -4,45 -26,43z"></path> <path class="fil0" d="M632 120l-2 -5c15,-9 32,-15 49,-19l1 5c-18,4 -33,10 -48,19z"></path> <path class="fil0" d="M628 120l-1 -5c16,-5 33,-10 50,-19l2 5c-17,7 -34,14 -51,19z"></path> <path class="fil0" d="M674 156c-17,-8 -32,-16 -47,-26l3 -4c15,10 30,19 47,27l-3 3z"></path> <path class="fil0" d="M665 155c-10,-7 -20,-14 -30,-17l2 -5c11,5 21,12 30,18l-2 4z"></path> <path class="fil0" d="M707 205c-52,2 -45,-79 5,-69 12,2 23,10 25,22 4,9 4,19 -2,27 -3,8 -10,17 -20,18 -1,2 -5,2 -8,2zm-28 -49l0 0c-16,27 18,57 43,41 -25,6 -62,-12 -43,-41zm18 -16l0 0 0 1c-39,20 -7,64 28,47 21,-18 0,-57 -28,-48z"></path> <path class="fil0" d="M702 111c-3,0 -7,2 -10,-1 -17,-4 -17,-37 3,-34 5,0 12,-2 17,3 7,2 7,12 3,17 0,4 -1,10 -3,12 -3,2 -7,3 -10,3zm-2 -6l0 0c4,0 7,-2 9,-4 1,-10 0,-18 -10,-20 -4,0 -7,-2 -9,3 0,2 -1,2 -3,4 0,5 -2,8 -2,13 4,5 12,4 15,4z"></path> </g> <g> <path class="fil0" d="M385 228l-5 0 -2 -50 5 0 2 0c0,17 0,34 0,50z"></path> <path class="fil0" d="M405 230l0 -50c-8,0 -15,0 -23,0l0 -5c8,0 18,0 26,0l0 55 -3 0z"></path> <path class="fil0" d="M402 240c-2,-15 -2,-30 -2,-45l5 0c0,15 0,30 2,45l-5 0z"></path> <path class="fil0" d="M405 292l-18 -17c-9,-13 -21,-20 -27,-35l18 0 0 -13 5 0c0,16 5,20 -15,18 14,15 25,32 37,47z"></path> <path class="fil0" d="M397 285l-32 -31 3 -4 27 29c8,-10 17,-22 25,-34 -5,0 -10,0 -15,0l0 -5c8,0 15,2 23,2 -8,15 -21,28 -31,43z"></path> <path class="fil0" d="M420 299c-2,0 -67,0 -69,0l0 -5c14,0 74,-2 86,0l0 5c-5,0 -10,0 -17,0 2,0 0,0 0,0z"></path> <polygon class="fil0" points="357,299 357,294 442,295 442,300 "></polygon> <polygon class="fil0" points="351,312 430,312 430,317 351,317 "></polygon> <path class="fil0" d="M353 322l0 -5c25,-2 52,-2 77,-2l0 6c-27,0 -52,0 -77,1z"></path> </g> <path class="fil0" d="M938 0c28,0 54,12 73,30 18,19 30,45 30,74 0,28 -12,54 -30,73 -19,19 -45,30 -73,30 -29,0 -55,-11 -74,-30 -18,-19 -30,-45 -30,-73 0,-29 12,-55 30,-74 19,-18 45,-30 74,-30zm70 33c-18,-18 -43,-29 -70,-29 -28,0 -53,11 -71,29 -18,18 -29,43 -29,71 0,27 11,52 29,70 18,18 43,29 71,29 27,0 52,-11 70,-29 18,-18 29,-43 29,-70 0,-28 -11,-53 -29,-71z"></path> <path class="fil0" d="M1244 40l0 0c28,8 50,26 63,49 13,23 18,51 11,78l-1 0c-7,28 -25,50 -48,63 -23,13 -51,18 -78,10 -28,-7 -50,-25 -63,-48 -13,-23 -18,-51 -11,-78 8,-28 26,-50 49,-63 23,-14 51,-18 78,-11zm60 51c-13,-22 -34,-40 -61,-47l0 0c-26,-7 -53,-3 -75,10 -22,13 -40,34 -47,61 -7,26 -3,53 10,75 13,22 34,40 61,47 26,7 53,3 75,-10 22,-13 40,-34 47,-61l0 0c7,-26 3,-53 -10,-75z"></path> <path class="fil0" d="M1530 159c25,14 41,37 48,63 7,25 4,54 -10,78 -14,25 -37,42 -63,49 -25,6 -54,3 -79,-11 -24,-14 -41,-37 -48,-63 -7,-25 -4,-54 11,-78 14,-25 37,-42 62,-49 26,-6 54,-4 79,11zm45 64c-7,-25 -23,-47 -47,-61 -24,-14 -51,-16 -76,-10 -24,7 -46,23 -60,47 -14,23 -17,51 -10,75 7,25 23,47 46,61 24,14 51,16 76,10 25,-7 47,-23 61,-47 13,-23 16,-51 10,-75z"></path> <path class="fil0" d="M1756 423l1 0c20,20 30,47 30,73 0,27 -10,53 -30,74l-1 0c-20,20 -46,30 -73,30 -26,0 -53,-10 -73,-30 -20,-21 -30,-47 -30,-74 0,-26 10,-53 30,-73l0 0c20,-20 47,-30 73,-30 27,0 53,10 73,30l0 0zm-2 3l0 0 0 0c-20,-20 -45,-29 -71,-29 -25,0 -51,9 -70,29l0 0c-20,19 -29,45 -29,70 0,26 9,51 29,71 19,19 45,29 70,29 26,0 51,-10 71,-29l0 0c19,-20 29,-45 29,-71 0,-25 -10,-51 -29,-70z"></path> <g> <path class="fil0" d="M631 40c27,-7 55,-3 78,11 23,13 41,35 49,63 7,27 3,55 -11,78 -13,23 -35,41 -63,48 -27,8 -55,3 -78,-10 -23,-13 -41,-35 -48,-63l0 0c-8,-27 -3,-55 10,-78 13,-23 35,-41 63,-49l0 0zm76 14c-22,-13 -49,-17 -75,-10l0 0c-27,7 -48,25 -61,47 -12,22 -17,49 -10,75l0 0c7,27 25,48 47,61 22,13 49,17 75,10 27,-7 48,-25 61,-47 13,-22 17,-49 10,-75 -7,-27 -24,-48 -47,-61zm-75 -10l0 0 0 0z"></path> </g> <path class="fil0" d="M345 159c25,-15 53,-17 79,-11 25,7 48,24 62,49 15,24 18,53 11,78 -7,26 -24,49 -48,63 -25,14 -53,17 -79,11 -26,-7 -49,-24 -63,-49 -14,-24 -17,-53 -10,-78 7,-26 23,-49 48,-63zm78 -7c-25,-6 -52,-4 -76,10 -24,14 -40,36 -47,61 -6,24 -3,52 10,75 14,24 36,40 61,47 25,6 52,4 76,-10 23,-14 40,-36 46,-61 7,-24 4,-52 -10,-75 -14,-24 -36,-40 -60,-47z"></path> <path class="fil0" d="M81 423l0 0c20,-20 46,-30 73,-30 26,0 53,10 73,30l0 0c20,20 30,47 30,73 0,27 -10,53 -30,74 -20,20 -47,30 -73,30 -27,0 -53,-10 -73,-30l0 0c-21,-21 -31,-47 -31,-74 0,-26 10,-53 31,-73l0 0zm2 3l0 0 0 0c-19,19 -29,45 -29,70 0,26 10,51 29,71l0 0c20,19 45,29 71,29 25,0 51,-10 70,-29 20,-20 29,-45 29,-71 0,-25 -9,-51 -29,-70l0 0c-19,-20 -45,-29 -70,-29 -26,0 -51,9 -71,29z"></path> <g> <path class="fil0" d="M413 565c-44,-21 -92,-35 -140,-45l1 -5c48,11 96,26 140,45l-1 5z"></path> <path class="fil0" d="M417 568c-48,-13 -97,-30 -145,-44l1 -6c47,15 96,30 145,44l-1 6z"></path> </g> <g> <path class="fil0" d="M554 405c-25,-22 -49,-46 -72,-69l2 -3c23,23 47,46 72,69l-2 3z"></path> <path class="fil0" d="M547 381c-21,-15 -42,-31 -62,-46l1 -3c20,16 41,31 62,46l-1 3z"></path> </g> <g> <path class="fil0" d="M717 373c-4,-41 -13,-82 -26,-120l4 -2c12,40 21,80 26,120l-4 2z"></path> <path class="fil0" d="M717 377c-11,-41 -20,-83 -29,-123l4 -2c9,40 19,82 29,123l-4 2z"></path> </g> <g> <path class="fil0" d="M1159 331c11,-25 20,-52 30,-78l-3 -1c-9,25 -19,52 -29,78l2 1z"></path> <path class="fil0" d="M1156 310c10,-18 20,-38 30,-57l-2 -1c-9,19 -20,38 -30,57l2 1z"></path> </g> <g> <path class="fil0" d="M1346 405c20,-19 39,-40 58,-59l-1 -3c-19,20 -39,40 -59,60l2 2z"></path> <path class="fil0" d="M1351 384c17,-12 35,-26 51,-39l-1 -2c-17,13 -34,26 -51,39l1 2z"></path> </g> <g> <path class="fil0" d="M1569 538c-35,5 -70,6 -105,3l-1 4c36,2 71,1 106,-3l0 -4z"></path> <path class="fil0" d="M1569 533c-36,6 -72,14 -106,22l0 4c34,-8 70,-15 106,-23l0 -3z"></path> </g> </g> </g> </g> </g> </svg> 