<?xml version="1.0" encoding="UTF-8"?> <!-- Creator: CorelDRAW X7 --> <svg xmlns="http://www.w3.org/2000/svg" xmlns:xlink="http://www.w3.org/1999/xlink" xml:space="preserve" width="1.74163in" height="0.919925in" version="1.1" style="shape-rendering:geometricPrecision; text-rendering:geometricPrecision; image-rendering:optimizeQuality; fill-rule:evenodd; clip-rule:evenodd" viewBox="0 0 798 422"> <defs> <style type="text/css"> <![CDATA[ .fil1 {fill:#4D4D4D} .fil0 {fill:#E52D33} ]]> </style> </defs> <g id="Layer_x0020_1"> <metadata id="CorelCorpID_0Corel-Layer"></metadata> <g id="_2823561775856"> <path class="fil0" d="M659 9l120 -9 -4 22 -4 1 -14 162 -16 149 -72 -36 -28 -21 -9 -9 6 -57 1 0 25 -31c0,0 15,-16 16,-17 0,0 1,-2 1,-2 0,0 2,-1 3,-3 1,-1 3,-7 3,-7l0 -3c0,0 0,-1 0,-2 1,-1 1,-1 1,-2 0,-1 1,-2 1,-3 0,0 0,-1 0,-2 -1,-1 -1,0 -1,0l-1 0 -1 0c0,0 0,-1 0,-2 0,0 0,-1 0,-2 -1,0 -1,-1 -1,-1 0,0 0,-1 0,-1 0,0 -1,1 -1,1 0,0 -1,1 -1,1l-3 2c0,0 -1,0 -1,0 0,0 -1,-1 -1,-1 0,-1 0,-1 0,-1l-1 -1 -3 2 -6 11 -8 8 -1 0 0 1c0,0 -1,-1 -1,-1 0,0 0,-2 0,-2 0,-1 1,-2 1,-3 0,-1 0,-4 0,-5 1,0 1,-2 1,-3 0,0 -1,-2 -1,-2l-1 0 -3 3 -4 8 -1 3 -1 10 0 5c0,0 -7,8 -7,8 0,0 0,0 0,1l6 -59c1,0 3,-1 3,-1 1,0 6,-3 6,-3l4 -4c0,0 9,-4 10,-4 0,-1 2,-2 2,-2 0,0 1,0 2,-1 0,0 0,-1 0,-1l-1 0 -1 0 -17 7 -8 3 11 -104z"></path> <g> <path class="fil1" d="M127 333c12,1 15,2 28,2 24,0 43,-1 66,-2 -2,6 0,7 -7,9 -14,3 -53,4 -68,2 -14,-1 -10,3 -18,-9 -1,-1 0,0 -1,-2zm176 -23c6,-1 12,-4 16,-6 1,8 2,17 3,26 1,19 4,47 2,67 0,4 0,9 -4,10 -8,1 -8,-15 -9,-20 0,-14 -2,-38 -4,-52 -2,-8 -4,-15 -4,-25zm79 -16c-5,0 -13,11 -14,17 -3,9 -2,19 -3,29 0,10 0,55 -3,60 -2,-8 0,-27 0,-36 1,-14 2,-46 -5,-59 -2,-3 -3,-3 -5,-5 -10,-7 -24,-9 -25,-9 -3,-1 -1,-1 -2,-2 7,-3 15,0 15,-10 13,1 32,2 46,1 9,-1 8,-2 12,-3 5,9 8,66 5,80 -1,5 -5,9 -8,13 -4,3 -3,4 -2,4 0,3 7,1 10,4 -1,4 -4,7 -6,16 0,3 -1,6 0,10 0,1 0,2 1,3l3 2c1,1 0,0 1,1 -6,1 -12,2 -19,1 -7,-1 -7,-5 -8,-12 -2,-17 -8,-57 -2,-72 2,-5 5,-10 7,-13l6 -9c1,-1 2,-2 1,-4 -1,0 -3,2 -4,3 -1,1 -2,3 -3,4l-9 7c3,-5 1,-2 6,-10 2,-4 5,-8 5,-11zm163 67c2,1 2,-2 2,-4 0,-3 -1,-6 -1,-9 -1,-8 -3,-23 -2,-30 2,-16 17,-18 17,-27 -4,0 -10,8 -12,12 -2,2 -6,5 -9,9l-3 3c0,-17 0,-19 -13,-25 -2,-1 -7,-2 -8,-4l6 -1c1,-3 -6,-6 -9,-10 14,1 41,0 54,-4 6,-2 8,-4 13,-6 1,2 2,7 2,10 1,10 3,27 -1,35 -6,13 -22,21 -21,29 6,4 16,0 25,2 0,0 2,0 2,0 1,0 1,0 1,0l1 -1c0,-1 1,-1 -2,-1l-11 -1c-4,0 -10,1 -14,-1 3,-7 19,-17 22,-29 3,-11 1,-30 -1,-42 -1,-3 -1,-3 1,-4 1,2 6,60 6,68 1,3 0,5 1,8 0,3 1,2 1,4l1 23c0,12 0,24 0,37 -4,0 -8,-1 -8,-5 -1,-3 -1,-8 0,-12 0,-4 0,-9 -1,-12 -2,-3 -4,-3 -7,-6 -1,-1 0,1 -1,-1 0,0 0,-1 0,-1 -2,1 -1,2 0,4 2,3 5,2 6,6 2,5 -1,19 1,25 2,3 6,3 9,4 -1,4 1,3 -7,3 -12,1 -20,2 -30,-1l-3 -21 -1 0 -1 1c0,5 2,11 2,16 1,5 -1,7 11,8 6,0 12,0 18,0 8,-1 11,0 13,-4l1 -1c26,0 25,5 26,-5 0,-3 0,-6 1,-10 2,-19 3,-40 5,-60l6 -61c1,-5 5,-57 7,-60l20 -23c10,-10 19,-19 26,-30 1,-1 2,-2 2,-4 1,-1 1,-1 0,-3 -2,-4 0,2 -1,-1 1,-2 5,-9 3,-12 -2,0 0,0 -1,0 -2,1 0,1 -2,1 0,-4 0,-4 -2,-5 -2,0 -3,2 -4,4 -1,0 -1,0 -1,0l0 -1c0,-2 0,-1 -1,-3 -4,0 -7,6 -10,11 -2,3 -7,10 -10,12 0,-6 3,-11 1,-16 -4,-1 -4,1 -7,5 -5,8 -4,12 -5,22 0,3 -3,7 -5,8l5 -54c2,-1 6,-3 8,-3 1,-2 1,-1 3,-2 0,-1 1,-1 2,-1 0,-1 0,-1 1,-2 -2,0 1,-1 -3,0l-4 2c-2,2 -4,3 -7,3 0,-3 2,-3 5,-5 4,-1 17,-7 19,-8 -3,3 -3,1 -4,4 1,1 0,1 1,1l9 -5c2,-6 -7,-2 -13,1 -3,1 -5,2 -8,3 -2,1 -5,3 -8,4l10 -103 117 -7c0,3 0,7 -1,10 0,3 0,8 -2,10 -1,-2 0,-8 0,-11 -1,0 0,0 -1,-1l-5 -1c-22,-3 -81,3 -102,9 -2,1 -4,2 -4,4 2,7 80,3 95,3 5,0 10,-1 14,-1l-11 125c0,7 -4,37 -2,42 2,-1 1,-5 1,-10 1,-10 3,-19 3,-31 1,-14 3,-28 4,-42l5 -63c1,-5 1,-16 2,-21 1,-1 3,0 4,-3l3 -21 -122 7 -10 106c-3,2 -17,9 -22,11 -7,-9 -18,14 -23,16 -2,-3 1,-4 -10,-10 -6,-4 -26,-14 -28,-16 -3,-5 -1,-13 -7,-8 -2,-3 -3,-4 -6,-7 1,-1 4,-11 4,-11 1,-1 17,-7 5,-17 -2,-2 -4,-2 -6,-1 -2,1 -2,3 -4,4l-2 -2c-1,-2 -1,-1 -3,-2l0 1c2,2 4,3 3,6 0,2 -2,4 0,6 3,-2 2,-9 8,-12 3,0 6,4 6,7 0,4 -3,5 -5,6 -1,1 -3,1 -3,1 -3,2 -2,12 -6,14 -4,2 -4,4 -6,6 -7,6 -22,8 -27,2 -5,-7 -9,-28 -8,-39 0,-6 -1,-7 3,-9 8,-5 17,-8 27,-8l0 4c1,1 1,-1 1,2 0,0 0,1 0,1 1,1 1,1 1,1 1,2 1,2 1,1l1 -2c-2,0 -1,1 -1,-1 -1,-6 -2,-6 0,-7 0,-2 1,-1 0,-3 -4,0 -1,1 -4,2 -2,1 -12,0 -21,4 -2,1 -6,4 -7,4 2,-6 2,-6 8,-8 8,-4 24,-6 30,-3 5,3 6,6 9,9 2,1 0,0 1,1 0,0 0,1 1,1 1,1 1,0 1,0 -1,-3 -6,-8 -9,-11l-4 -2c2,-3 5,-1 6,-4 -1,-1 -3,0 -5,1 -2,-6 -7,-6 -14,-5 -14,2 -31,11 -29,24 0,3 0,2 2,2 0,13 1,31 6,42 3,5 4,7 9,8 1,1 1,2 1,3 -1,1 -4,3 -6,4 -3,1 -5,2 -8,3 -6,2 -9,5 -13,8 -5,4 -16,14 -17,21 0,4 1,4 2,4 4,2 7,-8 11,-14 13,-18 18,5 24,16 3,4 11,13 8,18 -2,3 -8,-2 -14,10 -4,7 -5,12 -7,19 -3,-1 -5,-5 -7,-8 -1,-4 -2,-8 -3,-12l-6 -17c-2,-4 -1,-3 -3,-4 -4,6 8,26 10,35 1,5 1,9 2,13l5 42c0,2 -1,10 2,12 0,0 0,0 0,0 3,0 -1,-4 0,-7 0,-12 -7,-57 -6,-58 1,3 3,6 6,6l1 0c2,-3 3,-16 10,-24 3,-3 4,-3 9,-4 -1,4 -4,6 -3,9 0,0 0,0 0,0 0,0 0,0 1,0 1,0 1,0 2,-1l6 -8 5 1c-3,5 -4,2 -9,13 -2,5 -5,11 -6,16 -4,-2 -6,-6 -10,-6 -1,5 5,13 10,9 9,3 6,6 26,-5 8,-5 16,-10 24,-14 2,-2 4,-3 7,-5 3,-2 6,-4 8,-5l3 -1c5,-3 18,-12 22,-12 2,3 3,8 4,12 1,4 3,7 4,12 -9,-2 -14,-1 -18,5 -4,4 -5,12 -5,20l-1 -2c-2,-2 -3,-6 -3,-8 0,-1 0,0 -1,-1l-2 -17c0,-3 1,-5 -2,-6 -2,4 1,11 0,15 -1,6 0,12 0,18 0,9 4,26 0,34 -4,-2 -5,-15 -6,-20 0,-6 -3,-18 -3,-24 -1,-1 -1,-9 -2,-12 -2,1 -2,1 -3,6 0,2 0,5 0,7 -1,-1 -2,-7 -3,-10 0,0 0,-1 -2,0 -1,1 -1,3 0,9 0,11 3,34 3,42 0,4 -4,12 -7,12 -6,2 -8,1 -12,-5 -2,-4 -1,-12 0,-17 0,-5 0,-11 1,-17 0,-3 2,-14 0,-16 -2,2 -2,7 -2,11 -1,9 -3,27 -5,35 -5,13 -7,8 -22,-1 -3,-2 -6,-4 -9,-5 -1,4 1,2 3,3 2,2 0,2 3,5 3,2 6,5 8,8l-2 0c-3,1 -14,-1 -18,1 0,4 6,4 12,5 12,2 11,0 12,-3l24 -1c1,1 3,3 4,4 6,-2 2,-5 9,-5 5,-1 10,-1 14,-2 -1,2 -1,2 -4,3 -3,3 -8,5 -12,6 -12,3 -33,4 -45,3 -8,0 -8,1 -13,-5 -1,-1 -1,-2 -3,-2 -2,-1 0,2 0,2l4 5c-10,-1 -7,-4 -11,-4 -2,3 -2,28 -3,34 -1,24 -5,44 -7,68 -1,12 -3,23 -3,35 -5,1 -13,1 -19,1 -6,1 -12,1 -19,1 -14,1 -26,1 -39,0 2,-16 2,-19 3,-36 1,-12 1,-25 1,-37 0,-16 1,-39 -3,-55 -1,-2 -2,-5 -2,-7 -1,-4 2,-3 0,-8 9,-2 0,-1 9,-11 3,-3 13,-12 6,-11 -1,0 -1,1 -9,1 -8,-1 -25,-5 -31,-9 3,-3 5,-5 7,-11 3,-6 3,-8 -1,-14 -1,-2 -5,-8 -9,-10 -7,-2 -2,13 -2,13 -6,-3 -12,-10 -16,-12l-2 -1c0,0 -1,0 -1,0l9 -11c2,-2 3,-3 4,-4 2,-2 5,-6 9,-5 2,1 7,4 9,5 1,1 2,2 4,3 1,0 1,1 3,1l0 -1c0,-2 -2,-2 -4,-4 -1,0 0,0 -1,-1 -1,0 -7,-3 -9,-4 -6,-2 -7,0 -10,2 -5,4 -9,9 -14,15l-13 17c-2,2 -3,1 -9,2 -3,1 -9,2 -12,2l1 -4c0,1 5,7 2,-4l-10 -33c3,-2 5,-3 4,-6 -2,-2 -3,-1 -5,-2 1,-3 1,-6 3,-8 7,5 4,9 7,21 1,3 2,6 5,6 3,-12 -9,-22 -3,-29 0,8 1,10 7,16 3,3 7,7 10,9 2,0 4,2 5,0 3,-3 -11,-18 -3,-33 0,5 -2,10 -1,15 1,11 13,-2 17,2 4,3 1,13 6,14 5,-2 2,-16 7,-21 7,0 15,11 18,9 4,-4 -5,-17 -7,-20 2,0 8,3 12,4 4,1 7,1 10,4 0,3 -2,6 -2,10 -1,4 0,9 -1,13 1,1 0,0 1,1l0 14c1,5 2,9 2,14l3 9 -14 0c2,-4 6,-12 6,-16l0 -2c0,0 0,0 0,-1 -4,1 -1,5 -4,7 1,4 -4,8 -3,14 3,1 11,0 15,0 2,1 2,3 4,4 3,3 5,1 7,0 0,4 -2,13 -2,16 4,1 4,-1 6,-2 5,-5 7,-3 6,-18 0,-8 -2,-18 -4,-27 -2,-9 -6,-29 -9,-37 -3,-5 -5,-5 -9,-1 -6,-2 -5,-3 -6,-5 0,-1 0,-1 -1,-2 -4,-5 -6,-7 -9,-13 -10,-22 -4,-35 -14,-45 -4,-4 -12,-10 -20,-10 -11,0 -9,6 -16,6 -11,1 -12,13 -13,24 -1,22 2,21 -3,41 -1,3 -1,3 -2,5 -3,3 -2,2 -3,5 -3,-1 -5,-9 -10,6l-13 -11c-3,-2 -4,-3 -5,-6 -2,-2 -4,-7 -6,-6 -3,5 10,9 6,17l-10 -17c-2,-4 -2,-5 -4,-5 -3,3 1,17 0,22 -1,0 -1,0 -1,0 0,0 -2,1 -4,-1 -5,-4 -24,-15 -28,-14 -1,3 2,4 4,5 3,2 5,3 7,5 5,2 14,6 15,7 -1,2 -3,4 -5,6l-2 3c-6,-9 -25,-19 -25,-25 1,-3 1,-4 1,-7 3,0 8,4 11,2 1,-1 1,-5 1,-7 0,-4 0,-5 1,-7 8,-1 29,22 35,-3 2,-8 3,-38 -1,-44 -1,-2 -3,-2 -4,-4 10,-7 -38,-18 -46,-3 -7,0 -9,2 -12,10 -2,6 -2,14 -1,21 1,5 3,12 6,17 2,6 7,11 7,15 -3,1 -4,3 -2,8 2,4 3,3 0,8 -2,6 -5,9 -8,14 -2,0 -11,-1 -9,4 1,6 8,-2 9,-2 5,0 8,3 11,5 2,1 0,0 1,0 0,0 2,0 2,0 -1,0 0,0 -1,-1 -1,-1 -3,-2 -5,-3 -3,-2 -4,-2 -6,-3 2,-3 6,-6 9,-16 2,1 2,2 3,3 4,4 10,8 17,15 10,9 6,4 16,-6 6,2 6,-2 6,-7 0,-4 -1,-9 -1,-13 2,2 10,16 10,19 -4,3 -6,0 -7,3 1,2 7,2 9,1 0,0 0,0 0,0l4 -8c1,-1 1,-1 1,-1 3,4 9,7 12,12l-26 8c-9,3 -3,-8 -22,8l-11 11 -1 -2c0,0 -1,-1 -1,-2l-2 -12 -2 0 1 2c1,17 5,13 -3,21 -2,0 -3,2 -4,3 -2,1 -3,2 -4,3 -3,2 -6,4 -9,6l-29 20c-3,1 -4,0 -5,0l0 -1c1,-1 5,-5 7,-7 3,-3 4,-4 5,-10 -3,0 -1,0 -2,1 0,0 0,1 -1,2 0,1 1,0 0,1 0,2 -2,3 -4,6 -6,6 -10,10 -19,11 0,-1 0,-1 0,-2 2,-1 5,-1 6,-2 0,-3 -3,-8 -4,-11 -7,-14 -20,-40 -27,-52 -2,-3 -4,-7 -6,-10 -1,-1 -3,-3 -4,-4 -1,-1 -1,-1 -2,-2 -1,0 -1,0 -2,0l-1 -1c5,-3 2,-2 9,-3 8,10 7,6 12,12 8,7 7,13 11,13 2,-2 2,-4 3,-7 1,-2 3,-3 4,-6 6,-11 -13,-19 -21,-27 -2,-2 -3,-4 -4,-5 -5,-1 -3,1 -5,1 -3,1 -2,-1 -4,2 -4,-4 -9,-12 -11,-18 -6,-11 -9,-28 -4,-40 2,-4 6,-6 12,-7 7,-1 3,-2 13,-6 4,-2 11,-4 16,-4 3,-1 6,-1 9,0l8 2c-4,1 -36,2 -49,19 0,1 0,1 -1,2 -3,5 -3,11 -2,16 2,12 19,39 24,23 2,-8 2,-6 -4,-16 -2,-2 -4,-5 -2,-8 2,-2 7,6 10,6l1 0c1,-2 -1,-10 -1,-14 4,-2 6,-2 11,-2 22,-4 -4,-13 -6,-15 9,-2 20,1 30,-1 3,12 6,25 6,39 0,9 -3,33 -11,33 -1,-3 0,-3 -2,-6 -1,-1 -3,-3 -5,-4 -13,-8 -17,-2 -6,7 3,3 5,5 10,6 1,2 1,6 0,8 -5,2 -6,-1 -10,-1 0,3 6,9 8,11 3,3 7,7 10,7 1,-5 -1,-9 -1,-15 3,1 5,5 7,7 2,3 4,5 6,8 6,9 5,11 8,19 0,0 1,1 1,1 1,0 1,0 1,0 0,-1 0,-2 0,-4 -2,-6 -18,-33 -23,-33 -5,1 -1,11 -1,14 -2,-1 0,0 -2,-1 0,0 -1,-1 -1,-2l-7 -7c-1,-1 0,-1 -1,-1 3,0 7,0 8,-3 1,-3 -1,-5 0,-8 1,-1 9,-1 12,-22 1,-11 2,-23 0,-33 -4,-18 -3,-27 -20,-33 -9,-3 -22,-1 -30,2l-9 5c-5,3 -4,1 -10,3 -7,2 -10,8 -11,15 -2,16 3,30 10,43l7 10c-1,2 -2,4 -3,7 -2,6 0,4 1,8 -5,5 -6,3 -11,6 -11,6 -17,18 -20,31 -3,16 1,45 4,62 3,19 7,38 10,57 3,12 3,14 15,18 6,3 13,5 20,6 5,1 5,1 7,2 -7,0 -14,0 -21,0 -4,0 -7,0 -10,-1 -4,0 -6,-2 -9,-2 -1,4 4,9 6,12l-3 0c-1,11 3,55 5,64 -36,4 -90,3 -129,4 -3,0 -2,0 -3,2 2,1 14,0 17,0 25,0 91,0 113,-3 1,0 2,0 2,-1l2 -1c0,-4 -2,-5 -2,-14l-3 -48c7,0 6,8 8,13 4,15 17,39 31,47 1,1 2,2 4,2 5,3 12,2 17,-1 4,-3 6,-8 8,-14 1,-3 1,-6 1,-9 1,-2 1,-5 1,-8 -1,-1 0,-1 -1,-1 -1,0 -1,0 -1,0l0 1c0,0 0,0 0,0 -1,4 -1,10 -2,15 -1,6 -3,10 -7,13 -6,5 -12,4 -19,1 0,0 0,-1 -1,-1l-2 -1c-1,-1 -3,-3 -5,-5 -9,-8 -21,-32 -23,-44 -1,-3 -2,-5 -3,-7 6,0 13,1 19,1 7,0 15,0 22,0l30 -2c3,0 6,-1 9,-1 1,-1 3,-1 5,-2l1 2c0,2 -1,4 0,7 1,-3 1,-10 2,-12 0,-2 2,-3 2,-6 2,-1 2,0 3,-2 -1,-1 0,0 -2,-1 -3,-3 0,-7 -1,-13 -1,-5 -2,-11 -3,-16 0,-7 5,-30 1,-34 -2,1 -2,1 -2,3 -1,1 -1,2 -1,3 -2,17 2,18 -1,41 -1,5 -1,11 -4,14 -4,1 -10,-5 -13,-10 -1,-4 0,-6 -2,-8 -3,-3 -11,-1 -14,0 -6,1 -12,2 -17,3 2,-4 13,-10 17,-13 8,-5 3,-10 -3,-19 9,1 9,4 20,-3 10,-6 25,-21 33,-31 1,-1 2,-2 3,-3 1,-1 1,-1 2,-1l2 -3 -1 4c-3,5 -6,15 0,19 -4,6 -2,2 -4,10 -3,8 -11,14 17,19 11,2 24,0 35,-4 4,-2 7,-4 10,-5l0 19c-6,1 -8,3 -15,2 -18,0 -25,-4 -39,-7 -4,-1 -6,-1 -6,3 -1,0 -2,0 -4,0 -1,5 7,7 8,9l1 2c0,3 -1,8 0,11l1 -1c1,-2 0,-6 1,-8 1,0 2,2 4,3l1 1 0 -2c-1,-1 -3,-4 -5,-5 2,0 4,1 6,1 2,0 4,0 6,0 4,1 10,1 14,1 7,0 15,0 22,-1l5 0c1,0 3,18 4,24 3,10 4,39 5,50 1,11 0,18 6,22l-2 1c-5,2 -16,3 -20,0 -1,-8 0,-16 1,-24 0,-15 2,-31 3,-46 0,-6 4,-16 1,-21 -5,0 -6,10 -8,17 -3,7 -5,13 -7,19 -3,7 -13,34 -11,40 3,1 6,-2 8,-5 1,2 3,9 2,12 0,5 -3,6 -8,6 -8,1 -15,9 -20,9 -2,-3 -2,-13 -3,-19 -1,-6 -1,-12 -3,-18 -3,-16 -2,-12 -2,-28l0 -8c0,-3 0,-1 -1,-3 -2,3 -1,9 -1,13 -1,-2 -2,-5 -1,-8 -1,-2 -1,-1 -1,-2l-1 -1c0,0 0,0 0,0 -1,1 0,0 -1,1 0,1 0,1 0,2 0,1 1,2 1,4 1,16 3,5 2,30 0,5 0,11 0,16 0,5 0,12 -1,16 -5,4 -20,0 -27,0 1,-2 2,-3 2,-6 1,-2 1,-3 1,-6 0,-5 1,-10 1,-15 1,-9 2,-19 3,-28l-2 -1c-1,12 -1,9 -2,18 0,6 -2,30 -4,34 -2,5 -1,2 -6,4 -3,1 -2,6 2,3 6,-2 0,-2 16,0 23,3 18,2 19,-38 2,3 4,17 4,21 4,18 -3,27 16,16 11,-6 20,-2 19,-15 0,-3 -1,-4 -1,-7 -1,-3 -1,-5 -3,-6 -2,2 -3,5 -6,7 -1,-7 8,-29 11,-36 4,-12 7,-23 11,-35 1,1 1,-1 1,1l0 7c-4,16 -5,43 -6,59 -1,23 -4,27 19,24 2,0 5,-1 7,-1 4,-1 8,2 18,1 -1,-20 -2,-41 -4,-61 0,-9 -1,-20 -3,-29 -2,-9 -3,-17 -3,-28 3,-1 12,2 15,3 18,6 18,16 20,36 1,17 0,38 -1,56 0,4 -1,15 3,16 3,-1 3,-7 3,-11 1,-10 2,-33 2,-43 1,-20 -2,-39 10,-50 -1,2 -2,3 -2,4 -1,1 -2,3 -3,4 -1,3 -3,6 -3,10 4,1 9,-5 9,-6 0,2 -6,10 -8,20 -4,16 1,51 3,68 1,4 2,10 4,11 5,3 21,4 26,1 5,-3 3,-2 12,-1 20,0 38,-1 58,-2 4,0 11,0 13,-1 0,-2 -1,-1 -1,-8l3 -26c1,-11 2,-22 4,-33 1,-11 3,-22 3,-33 1,-10 0,-27 2,-36 15,5 8,-1 18,7 1,2 2,3 4,4 -2,1 -6,1 -7,3 0,4 9,3 20,11 8,6 0,42 -1,53 -1,6 -5,22 -5,26 0,2 0,2 0,5 2,-2 2,-9 4,-15 0,5 -1,9 -2,14 1,1 1,1 2,0 1,-5 2,-12 2,-17 1,-8 4,-40 6,-45 2,-4 2,-3 5,-6l-1 3c-1,10 1,23 2,34 0,4 1,8 1,12zm-301 -28c1,4 -1,3 2,5l0 -14c2,-1 4,-1 6,-1 0,0 1,0 1,0l2 -1c-2,-1 -3,-1 -5,0 -9,0 -3,7 -6,11zm-2 -34c5,0 10,2 15,3 3,0 4,1 7,1 3,1 4,0 7,2 4,1 17,2 23,1 3,-1 4,-2 7,-2l0 5c-11,0 -22,2 -34,1l-16 -2c-1,0 -2,0 -3,0 -4,-1 -6,-5 -6,-9zm77 -8l4 1c1,12 1,18 3,29 3,19 6,69 6,89 -3,0 -7,-1 -10,-2 3,-2 4,-2 4,-9 2,-19 -1,-70 -4,-89 0,-3 0,-8 -2,-10 -2,1 -4,5 -15,8 -2,0 -3,-1 -2,-4 0,-2 6,-4 9,-5 4,-2 6,-2 7,-8zm7 -4l0 -9c2,0 5,0 8,1 2,0 4,0 3,3 -1,3 -8,4 -11,5zm77 -14c10,18 4,94 3,118l-1 13c-1,2 0,2 -2,3 -1,1 -4,0 -4,-5 -1,-11 8,-23 6,-26 -4,-2 -7,-1 -10,-2 0,-2 0,-1 3,-4 3,-4 7,-9 7,-15 3,-14 1,-61 -4,-77 -1,-3 -1,-4 2,-5zm-69 0c11,0 34,-2 46,-3 4,-1 10,-2 14,-2 2,1 3,4 4,6 -9,6 -35,5 -46,4 -9,0 -15,0 -18,-5zm-162 -7c1,2 5,9 6,10 -2,0 -7,-3 -8,-4 0,-2 0,-4 2,-6zm144 -10c2,5 1,27 1,35 -1,3 -1,3 -3,5 -4,2 -8,4 -11,5 -1,-3 -1,-17 0,-19 1,-3 2,-2 1,-5 -5,-1 1,1 -8,6 -9,5 -24,8 -35,8 -6,-1 -18,-4 -22,-6 -4,-2 -2,-5 0,-9 1,-4 1,-8 3,-10 5,0 9,4 12,6 4,3 8,6 12,8 2,0 20,7 10,-3 -2,-2 -6,-6 -7,-8 -4,-6 20,-15 22,-8 1,3 2,5 6,4 4,0 10,-4 13,-6 2,-1 4,-3 6,-3zm87 10c0,5 -1,4 -3,7 -2,-2 -2,-4 -3,-5 0,-1 0,-1 1,-1 0,0 2,0 2,0 1,-1 2,-1 3,-1zm-76 5c1,3 1,2 3,3 2,1 3,1 4,3l-10 -1c0,2 0,6 -1,8 0,4 0,4 -4,4 0,-8 0,-16 0,-24l1 -5c0,0 0,1 0,1 3,6 4,9 11,5 3,-2 5,-4 8,-6l7 -6c0,2 1,5 2,7 7,10 12,-2 17,-2 3,3 1,4 13,4 5,0 11,0 14,3l-3 1c-2,1 -3,1 -5,1 -15,2 -25,3 -41,4 -2,0 -5,0 -8,1 -3,0 -7,-2 -8,-1zm183 -7c1,0 16,0 17,1 -2,3 -15,0 -17,-1zm46 0l4 -1 -2 3 -2 -2zm-11 -16c0,13 3,8 5,14l-13 0c1,-1 3,-1 5,-6 1,-3 2,-6 3,-8zm-25 6l14 8 -6 0c0,0 0,0 0,0l-8 -8zm-226 9c-1,-3 -1,-8 -10,-6 -5,0 -10,2 -13,4 -9,6 -3,11 3,17 1,1 1,0 2,2 -6,-1 -10,-3 -15,-6 -4,-2 -9,-7 -12,-8 1,-1 1,-1 5,-1 1,-1 2,-1 4,-1 8,-2 19,-7 27,-10 6,-2 12,-4 17,-6 8,-3 13,-6 14,5 -5,3 -15,11 -22,10zm-126 8c-21,-16 -7,-23 9,-30 1,0 2,0 3,2 -15,16 -6,15 -12,28zm85 -37c5,5 0,10 23,3l26 -9c-1,17 6,13 14,13l1 7c-4,-6 -4,-6 -11,-3 -5,1 -9,3 -13,4 -9,3 -18,7 -26,10 -6,2 -25,9 -26,-2 -1,-8 6,-21 12,-23zm67 16c-1,-3 -2,-7 -2,-10l11 -4c1,6 1,6 -7,12 -2,2 0,1 -2,2zm-147 9c0,-5 4,-9 6,-12 3,-3 2,-2 6,-3 2,-1 5,-3 7,-3 -5,4 -9,9 -14,13l-4 4c-1,1 0,1 -1,1zm7 -19c1,-1 2,-1 4,-1l-2 2c-1,1 -1,0 -2,-1zm-13 33c-2,10 -7,5 -14,-2 -5,-5 -6,-7 -7,-14 2,1 4,5 6,-3 1,-4 2,-7 4,-10 2,-4 14,-8 20,-7 0,2 0,0 0,2 -5,3 -16,7 -19,13 -5,8 5,18 10,21zm17 -31c2,-2 4,-4 6,-5 1,0 2,0 3,0 -1,2 -7,4 -9,5zm147 -7c1,-1 5,-3 7,-3 0,0 12,10 20,16 6,3 8,5 13,0 3,-4 5,-7 8,-11 10,5 25,10 40,9 -2,3 -10,9 -11,13 -1,1 0,1 -1,2 0,0 0,0 0,0 0,3 -8,4 -10,4 -3,0 -3,-1 -4,-2 -5,-4 -12,-3 -18,-3 -8,0 -5,-2 -9,-4 -7,-3 -11,13 -17,1 -2,-3 -1,-5 -1,-6 0,-1 0,-2 -1,-2 -1,1 -3,3 -4,4 -5,4 -12,11 -18,12 -2,-4 -4,-8 -5,-12 3,-3 5,-5 8,-7 1,-1 3,-2 3,-4 1,-2 1,-5 0,-7zm-27 -8c4,-2 6,-2 9,-7l2 19c-10,2 -12,0 -11,-12zm-56 -26c1,6 2,12 2,17 2,11 4,7 -2,14 -11,12 -38,43 -52,48 -4,1 -13,0 -15,-3 -1,-1 -7,-11 -7,-12 -2,-6 11,-13 18,-21 3,-4 3,-5 4,-6l18 -12c9,-6 20,-14 28,-20 3,-2 4,-4 6,-5zm10 37c0,-1 -1,-1 -1,-2 -1,-1 -1,-2 -1,-2 13,-3 34,-4 46,-9 -1,2 -6,3 -10,4 -8,4 -25,9 -34,9zm57 -23c1,1 6,7 7,9 1,1 6,9 5,10 0,1 -8,4 -10,4 0,-5 -3,-18 -2,-23zm98 5c2,0 3,0 5,0 2,1 1,1 1,1 -1,5 -4,1 -6,-1zm-75 9l-2 -3c1,-2 4,-6 5,-8 3,-3 8,-3 11,-1 1,4 -12,11 -14,12zm-2 1c-2,1 -4,2 -6,3 -3,-5 -6,-9 -9,-14 3,0 18,-2 18,-2 1,0 -3,5 -4,6 -2,3 -1,3 1,7zm282 174c-4,0 -20,-1 -23,-2 0,-6 0,-13 0,-19 0,-6 0,-13 0,-19 -1,-3 -1,-6 -1,-9 0,-4 -1,-6 -1,-9 0,-3 0,-7 0,-9 -1,-4 -1,-5 -1,-10 0,0 -5,-65 -6,-68 -1,-3 0,-1 -1,-2 -2,1 -1,3 -4,3 -1,-1 1,-2 -4,0 -4,0 -9,1 -12,1 1,-3 4,-7 4,-10 0,-3 -3,-32 -3,-42 0,0 0,0 1,1 0,1 0,1 0,2 1,2 0,1 2,2 3,-1 2,-6 2,-10 2,6 3,19 4,25 1,7 2,20 6,23 4,2 5,-5 5,-7 1,-5 1,-9 0,-13 -1,-9 -2,-17 -1,-26 1,3 1,8 5,12 1,2 2,2 3,3 2,3 2,5 5,7 2,1 6,3 9,2 2,-1 0,-1 2,-1 1,0 2,0 3,0 13,2 20,-14 25,-15 -1,3 -9,89 -9,95 -1,3 -1,8 -1,11 -1,3 -3,30 -4,36 -1,7 -2,17 -2,24 -1,8 -3,17 -3,24zm-265 -201c1,1 0,0 1,1 0,0 0,1 0,1 2,7 11,17 16,22 3,2 5,4 8,5l-3 6c-1,3 -6,9 -8,10 -2,2 -4,0 -6,-1 -4,-3 -19,-13 -21,-16 0,0 0,-1 0,-1l3 -1c9,-6 20,-16 2,-15 0,-3 6,-8 8,-11zm-37 9c1,-2 1,-4 3,-4 3,3 2,3 1,9 -1,-1 -3,-3 -4,-5zm193 -7c0,0 1,0 1,0 0,1 4,2 5,6 -2,-1 -4,-2 -5,-4l-1 -1c0,0 0,-1 0,-1zm-133 10c3,-3 -2,-6 0,-12 0,-2 3,1 4,2 8,10 9,14 3,23 -1,3 -2,3 -5,2 -3,-1 -7,-6 -9,-8 -1,-1 -17,-19 -12,-19 2,-1 12,8 14,10 1,1 3,4 5,2zm-64 -17c2,1 4,5 5,7l-1 2c-2,3 0,2 -2,2 -1,-3 -1,-7 -2,-11zm295 28c-4,0 -11,-3 -12,-6 -3,-7 1,-33 21,-25 -1,2 -2,3 -4,6 -4,7 -4,17 -5,25zm-299 -32c2,1 2,0 2,3 1,2 1,4 0,6l-2 -4c0,-2 -1,-4 0,-5zm332 -13c0,6 -1,12 -2,18 0,8 1,9 -4,14 -4,4 -11,12 -16,14 0,0 -9,2 -9,-1l2 -16c2,-11 9,-15 17,-21l12 -8zm-328 -4c2,1 1,0 2,1l8 25 -2 1c-1,0 -8,-10 -8,-10 -1,-3 -1,-14 0,-17zm-2 1c0,3 0,12 -1,13l-1 1c-3,1 -3,4 -2,7 2,4 14,19 -2,25l-1 -2c-4,1 -6,2 -14,4l-30 5c-11,1 -1,-7 2,-9 1,-1 1,-1 3,-2 3,0 5,0 8,-1 25,-5 13,-10 17,-18 1,0 8,-8 6,-12 -1,-2 -3,-2 -5,-3 2,-2 6,-3 9,-4 4,-1 7,-3 11,-4zm100 -19c2,4 3,4 5,11 5,13 5,35 6,49 -10,-2 -9,0 -11,-8 -1,-5 -2,-13 -2,-18 -1,-8 -4,-29 2,-34zm-100 17c-3,1 -8,3 -12,4 -3,1 -10,2 -11,6 2,3 5,3 6,4 1,4 -5,8 -6,12 -3,9 6,13 -21,16 -4,1 -5,0 -7,3 -2,1 -2,1 -3,2 0,0 -1,1 -1,1 -1,1 0,1 -1,1 -1,-2 -4,-23 -4,-26l14 -13c2,-2 8,-7 11,-8 2,0 2,0 3,1 5,2 -2,2 17,-4l15 -3c0,0 1,0 1,0l-1 4zm4 -2c0,-2 0,-1 0,-3l4 0c-1,1 -2,2 -4,3zm-93 -3c1,-1 0,-3 5,-2 -2,2 -2,2 -5,2zm297 38c1,-4 9,-20 11,-24 2,-2 6,-4 7,-6 -2,-2 -3,-2 -6,-3 0,0 0,0 0,0 0,0 0,0 0,0 3,-3 12,-5 18,-7 11,-4 27,-9 37,-14 3,-1 6,-2 9,-4 1,-1 6,-5 7,-5l6 21c-5,2 -8,3 -12,5l-32 19c-11,7 -21,13 -33,19 -6,3 -6,2 -12,-1zm-171 -41c-1,-5 -1,-13 0,-18 1,1 3,3 3,4 4,5 6,6 9,10 0,0 -11,4 -12,4zm-165 65c-7,1 -5,2 -8,-5 -5,-10 -10,-22 -15,-32 -5,-8 -11,-21 -18,-29 -2,-3 -4,-5 -10,-5 1,-1 2,-3 3,-4 6,-5 12,5 14,9 5,9 32,59 34,66zm-54 -69c6,2 5,-5 17,12 4,6 7,12 11,18 3,7 6,13 9,20 2,3 3,7 5,10 1,3 4,8 4,10 -6,2 -12,2 -18,6 -2,2 -3,5 -4,8 -1,3 -1,6 -3,8 -10,-15 -7,-12 -14,-26 -3,-5 -12,-24 -17,-25 -2,3 1,6 3,10 6,13 19,30 23,40 1,6 0,8 3,13 3,3 13,14 19,12 2,-1 1,-3 3,-6 7,6 9,3 13,8 10,18 9,12 -12,26 -2,2 -5,3 -3,6 6,2 22,-4 32,-3 2,3 -1,4 3,11 2,2 5,6 8,7 12,5 9,-13 12,-19 0,6 2,14 -1,20 -28,1 -43,5 -71,-3 -6,-1 -15,-4 -21,-8 -2,-2 -3,-2 -3,-6 -7,-33 -14,-66 -17,-101 -1,-21 3,-45 23,-54 -2,2 -5,3 -4,6zm239 14c-2,-5 0,-6 0,-7 1,-2 1,-6 4,-11 2,-2 9,-10 12,-12 1,4 8,14 8,19 -4,-1 -12,-11 -17,-9 -6,2 -5,15 -7,20zm43 -22c1,-1 1,-1 2,-2 4,1 4,4 5,7 1,4 2,7 3,10 2,7 4,14 5,21 2,10 4,24 4,34 0,6 -1,6 -4,9 -6,5 -2,3 -2,-14 0,-14 -1,-35 -5,-48 0,-3 -1,-6 -3,-9 -1,-3 -3,-5 -5,-8zm-31 -17c-2,0 -6,3 -8,4 -10,5 -17,2 -22,-7 -8,-13 -3,-23 -1,-37 7,2 13,3 18,8 16,13 7,34 23,40 2,0 3,1 5,2 1,0 1,0 2,1l2 0c0,0 0,1 0,1 -3,0 -8,-3 -12,-4 -6,-3 -4,-5 -7,-8zm-47 -12c0,-12 -1,-34 8,-38 4,-2 5,1 8,-2 8,-7 16,-6 25,0 14,10 9,14 13,32 2,8 4,16 9,23 1,2 2,3 2,4 1,1 1,0 2,1 0,1 0,1 0,1 1,0 1,0 1,1l-1 0c-5,-3 -13,-4 -16,-9 -1,-3 -4,-15 -6,-20 -7,-19 -15,-18 -28,-23 0,-3 -1,-5 -4,-4 -1,4 1,2 1,5l-3 16c-2,14 4,31 16,33 9,2 15,-4 19,-5l3 4 -9 9c-2,2 -3,3 -4,6 -1,1 -1,4 -2,6 -10,-6 -17,-19 -19,-21l-1 -1c1,-1 2,-4 2,-6 -3,0 -3,1 -5,3l-9 7c-2,1 -3,2 -5,3 1,-11 3,-3 3,-25zm-188 20c-1,1 -5,4 -5,-1 0,-2 2,-5 3,-7l2 8zm203 35c-6,-2 -16,-12 -19,-18 -3,-8 2,-10 5,-12 2,-1 10,-6 11,-7 -8,25 2,28 3,37zm-201 -44c1,-2 2,-5 5,-5 4,5 3,5 9,9 1,1 3,3 5,4 18,13 10,13 4,27 -3,-4 -4,-8 -9,-12 -2,-2 -3,-3 -6,-5 -1,-1 -4,-3 -4,-5 4,-2 8,-2 8,-6 -3,-1 -8,1 -12,1 -2,-5 -2,-5 0,-8zm333 15c0,-4 2,-7 4,-9l6 -6c0,-1 0,1 1,-1 0,0 0,0 0,0l-1 2c-2,3 -7,13 -10,14zm206 -19c0,8 -3,11 -4,16 2,0 1,1 4,-4 1,-2 2,-3 2,-5 1,3 -5,13 -7,15 1,3 4,1 -8,15 -4,4 -7,8 -11,12 -4,3 -7,7 -11,11 -2,2 -3,4 -5,6l-5 6c0,-2 2,-27 3,-28 0,-1 4,-4 5,-6 6,-7 -3,-14 8,-28 1,-3 2,-3 3,-3 -1,6 -3,11 -2,15 5,1 7,-3 12,-9 2,-3 6,-10 9,-12 1,3 -3,10 -3,11 0,2 2,1 2,0 2,-1 5,-9 8,-12zm-510 -3c7,1 14,5 15,13 -6,-1 -15,-8 -15,-13zm347 -15c2,1 2,2 3,3l7 6c12,9 14,12 20,-1 2,-3 3,-10 5,-12 1,0 2,1 3,2 1,1 2,1 3,2 4,4 3,21 1,24 -2,1 -6,-4 -7,-5 -1,-1 -2,-1 -2,-3 -1,-2 -1,-3 -3,-2 -2,3 1,0 -1,8 -2,10 7,12 7,22 -3,2 -6,4 -12,3 -3,-4 -1,-10 -2,-16 -3,-3 -2,0 -4,-5 -1,-2 -1,-3 -1,-4 -4,-9 -10,3 -15,4 0,0 -1,1 -2,0 -3,-2 -2,-9 -2,-13 0,-5 1,-9 2,-13zm124 5c0,7 -2,16 -2,23 -1,8 -2,16 -3,23 0,3 0,9 -2,11 -2,2 -17,14 -21,16 -2,-2 -8,-23 -8,-26 28,-8 17,-12 22,-15 6,-4 2,-7 1,-8 5,-2 5,-6 0,-8 0,0 0,0 0,0l1 -1c3,-5 -1,-5 -5,-6l17 -9zm-151 11c1,-1 0,0 1,-1 7,-6 9,-6 16,-9 3,-1 5,-2 7,-3 -1,9 -3,20 2,26 4,0 6,-2 8,-3 2,-2 3,-4 6,-5 1,1 0,0 1,1l3 9 3 1 0 5c0,14 3,13 8,12 -5,4 -17,6 -20,8 -2,1 -2,3 -6,3 1,-8 -1,-10 -4,-14 -12,-15 -10,-33 -25,-30zm65 24c-3,-9 -8,-8 -6,-20 2,0 0,0 2,1 3,3 9,9 11,1 2,-10 1,-12 -1,-20 3,1 25,13 29,16 3,2 5,4 5,9 -5,6 -11,9 -19,12 -4,1 -20,7 -23,8 2,-3 3,-3 2,-7zm57 -27c1,1 1,1 2,0 0,0 21,-11 27,-13 0,4 -1,3 -4,5 -4,2 -17,8 -18,10 2,2 7,0 8,2 1,1 -1,3 -3,3 -2,1 -4,1 -6,1 1,6 4,-1 12,4 -3,3 -4,3 -9,3 -8,1 -10,6 -3,5 5,-1 8,-4 10,-2 1,2 -1,3 -2,4 -2,2 -2,1 -4,1 -4,1 -7,2 -7,6 3,0 6,-2 8,-3 0,6 -14,11 -19,11 -2,-3 -3,-10 -4,-14 -1,-2 -1,-4 -2,-6 -1,-3 0,-4 2,-6 3,-3 12,-17 18,-16 -4,4 -7,3 -6,5zm-93 -14c25,2 21,-6 27,-14 1,1 4,5 4,7 1,2 -4,14 -5,17 -2,3 -3,3 -4,6 -3,-1 -5,-2 -7,-4 -3,-2 -13,-9 -15,-12zm36 -7c0,1 1,1 1,2 1,4 0,2 -1,3 -1,-3 -3,-4 -1,-6 1,0 0,0 1,1zm-32 5c1,-1 0,0 1,-1 4,0 5,0 10,-3 4,-2 6,-5 8,-7 -1,10 -11,12 -20,11l1 0zm-280 -11c-4,0 -6,6 -5,10 2,8 6,9 1,10 -10,1 -10,-16 -10,-23 0,-11 6,-16 14,-19 7,-2 20,-5 28,-3l-1 1c0,0 0,0 0,0 -14,5 -4,8 -11,14 -2,2 -5,4 -8,6 -4,2 -3,3 -6,7 0,-1 -1,-2 -2,-3zm-7 -27c5,-11 40,-7 43,0 -2,2 -3,1 -6,0 -13,-3 -39,1 -44,15 -3,7 -2,18 0,24 2,7 6,13 15,9 0,-4 -2,-7 -3,-10 -2,-4 -2,-7 2,-9 0,2 1,4 1,6 0,2 0,3 2,4 4,-4 -3,-10 9,-16 13,-8 7,-11 10,-15 1,-2 11,-5 13,-4 1,0 3,1 3,2 5,5 7,51 -5,53 -11,2 -19,-9 -26,-8 -4,2 -3,9 -3,14 -2,1 -9,-3 -10,-3 0,-1 -2,-4 -2,-5 -1,-2 -2,-3 -3,-4 -6,-11 -13,-30 -8,-43 6,-16 11,-5 13,-6 2,-2 0,-2 -1,-4zm-87 49c-7,-2 -16,-17 -18,-26 -3,-14 7,-22 17,-27 5,-2 34,-12 40,-6 6,7 -5,5 -8,5 -2,0 -18,-2 -20,1 -2,4 14,7 15,11 -4,4 -10,2 -16,4 -6,2 -4,8 -3,14 -3,-1 -6,-6 -10,-5 -6,4 1,12 3,15 1,1 4,4 3,7 0,2 -2,5 -3,7zm351 -65c-2,-3 3,-9 4,-11 7,-8 24,-13 35,-9l0 4c-10,-1 -16,-1 -25,2 -15,5 -11,9 -14,14zm158 -38c13,-4 37,-8 52,-9 10,-1 19,-1 28,-2 13,0 16,0 28,2l-1 10c-28,1 -53,3 -82,2 -4,0 -8,0 -13,-1 -3,0 -10,0 -12,-2z"></path> <path class="fil1" d="M742 387c0,-12 1,-28 2,-41l1 2c0,1 0,2 0,3 0,5 0,33 -3,36zm-101 -112c-4,-2 -3,-7 -2,-10 0,-4 -1,-9 0,-13 4,-1 11,4 14,6 11,6 25,15 35,21 12,7 30,19 41,27l4 4c0,0 0,1 0,1 0,0 0,0 1,0l-2 -1c-10,-3 -44,-22 -56,-29l-17 -8c-3,-2 -15,-10 -16,-9 -2,1 -1,8 -2,11zm106 87c0,-7 0,-12 -1,-19 -6,-2 -4,9 -5,16 0,7 0,14 -1,21 0,16 2,25 -6,36 -3,-5 -1,-33 0,-41 0,-7 1,-35 2,-40l6 2c2,-4 3,-12 3,-17 1,-6 2,-12 2,-18 2,-23 5,-48 7,-72l3 -35c-1,-2 0,-1 -1,-1 -2,3 -11,128 -15,140 -2,0 -3,-1 -5,-2 0,-7 3,-6 -9,-15 -5,-3 -10,-7 -15,-10l-31 -20c6,1 48,28 56,26 0,-4 -9,-9 -12,-12 -4,-3 -10,-6 -14,-10 -20,-13 -41,-26 -62,-38 -6,-3 -13,-8 -13,4 1,13 -2,16 5,20 -1,10 -3,23 -4,33 -2,20 -10,88 -4,95 3,-1 3,-7 4,-13 3,-17 9,-93 9,-109l21 13c13,9 41,25 55,32 2,1 11,5 12,6l-3 64c0,6 -1,18 2,21 4,-1 5,-6 7,-8 3,5 -1,9 7,10 8,0 49,2 51,0 -1,-3 -6,-2 -12,-2 -13,0 -30,0 -42,0 -4,-10 -1,-18 0,-28 1,-9 3,-20 3,-29zm-114 38c-2,-6 3,-52 3,-61 1,-2 5,-56 7,-59 0,0 0,0 0,0 3,2 1,8 1,14 -2,18 -8,102 -11,106zm14 -128c7,-1 20,9 25,12l44 28c4,4 12,8 16,12 3,2 2,2 2,7 -2,0 -9,-4 -11,-5 -14,-7 -53,-30 -66,-38l-10 -8 0 -8zm-3 6c-2,-2 0,-8 0,-12 2,1 4,2 6,4 -1,0 -2,0 -2,0 -3,0 2,-1 -1,0 -3,1 -1,6 -3,8z"></path> <path class="fil1" d="M215 370l1 -2 0 -2 -2 0c1,1 1,0 0,0 0,2 0,1 0,1 0,3 -2,10 -3,13 -1,4 -1,8 -3,12 0,0 0,0 0,0l0 -18c0,-3 -1,-2 -1,-5 -1,-5 0,-17 -4,-19 -3,-1 -5,4 -4,7 1,0 0,1 1,-1l2 -4c6,5 2,47 5,50 2,0 1,0 2,-2 2,-6 6,-27 6,-30z"></path> <path class="fil1" d="M199 200c1,2 1,3 2,5l1 -1c0,-4 -6,-20 -3,-23 1,-1 13,14 13,18l2 1 0 -4 -7 -10c-2,-2 -4,-5 -6,-6 -1,-1 -1,-1 -2,-1 -7,-1 0,16 0,21zm19 9c2,2 2,4 4,5 1,-2 0,-3 0,-7 -2,1 -2,1 -2,1 -1,-1 -1,-2 -2,-3 0,-1 0,0 0,-1 -1,-1 -1,-1 -1,-2 -2,-1 -2,-1 -3,-2 0,1 0,1 1,3 2,2 2,3 3,6z"></path> <path class="fil1" d="M526 376l0 1c-1,1 -1,2 -1,4l-2 10c0,3 0,4 0,7 1,-1 2,-2 4,-2l-1 2c2,-1 1,0 2,-4 0,-2 1,-1 1,-4 0,-4 0,-6 1,-10 -1,1 -1,1 -2,0 1,-5 2,-9 2,-14 -2,6 -2,13 -4,15 0,-3 0,-3 0,-5z"></path> <path class="fil1" d="M215 344l4 -1c-1,5 -2,7 -3,11 0,4 -2,4 -2,12 -1,-1 0,-1 0,0 -1,0 -1,-1 0,1 0,0 0,1 0,-1 1,0 1,1 0,0l2 0 0 2 -1 2c1,-1 1,0 1,-2 0,0 0,-1 0,0l4 -20c0,3 0,3 0,6l2 1c0,-3 0,-4 1,-8 0,-3 0,-5 0,-8 -1,2 -1,9 -2,12 -1,-3 0,-5 0,-7l-1 -2c-2,1 -4,1 -5,2z"></path> <path class="fil1" d="M545 361c1,5 2,9 3,13 0,8 0,4 1,10l1 2 1 -1 1 0c-1,-3 -1,-5 -2,-7 0,-3 0,-5 0,-7l-3 -14c0,2 0,5 -2,4z"></path> <path class="fil1" d="M217 190l2 16c0,0 0,0 0,0l-1 -1c1,1 1,2 2,3 0,0 0,0 2,-1 0,4 1,5 0,7 0,0 1,0 1,-3 0,-5 -2,-9 -2,-11 0,-1 1,0 0,-3 0,-1 0,-2 -1,-3l0 -4c0,0 0,0 0,-1 -1,0 -1,0 -1,0l0 -2c0,2 0,3 0,4 0,0 0,0 -1,0 0,0 -1,-1 -1,-1z"></path> <path class="fil1" d="M225 189c-6,3 0,9 4,8 4,-2 0,-10 -4,-8z"></path> <path class="fil1" d="M541 58c-1,-4 -2,-6 -1,-8 -2,1 -1,1 0,7 0,2 -1,1 1,1zm-3 -1c0,-3 0,-1 -1,-2 0,2 0,2 1,2 0,2 2,6 3,8 0,2 1,2 1,3 2,2 1,2 3,3l0 -1c2,1 2,0 3,2 0,-2 -4,-4 -6,-9 0,-1 0,-1 0,-2 -1,-2 -1,-1 -2,-1 0,1 0,1 -1,-1 0,0 0,0 -1,-1 0,0 0,-1 0,-1z"></path> <path class="fil1" d="M561 57c1,1 1,0 1,3 0,1 0,2 0,3 -2,-1 0,-1 -3,-2 0,2 0,2 1,3 0,5 1,4 2,4 2,-2 2,-7 2,-10 -1,-3 0,-2 -2,-3 0,0 0,0 -1,1 0,0 0,1 0,1z"></path> <path class="fil1" d="M562 52c1,-1 2,1 0,-5 0,-1 -1,-3 -1,-4 -2,-3 -5,-4 -9,-4 1,1 -1,2 4,3 6,1 2,3 6,10z"></path> <path class="fil1" d="M576 369c-1,-2 -2,-3 0,-4 0,0 0,1 0,1 1,2 0,0 1,1 0,-1 0,0 0,-2 -1,-4 1,-5 2,-6 1,-1 1,-1 1,-2l-1 -1c-1,0 -2,0 -2,2 -1,0 -1,1 -1,1l-1 1c0,0 0,1 0,1 -1,1 -2,6 1,8z"></path> <path class="fil1" d="M251 316c1,2 1,1 2,2 2,1 2,1 3,3 -3,0 -5,0 -6,1 2,-1 3,-1 5,0l-2 1c0,0 -1,0 -1,0 2,0 3,0 5,-1 2,0 3,1 4,-1 -4,1 -2,0 -4,-2l1 1 2 0c-1,-1 0,-1 -2,0l-1 -2c0,0 -1,-1 -2,-1 -2,-1 -1,-1 -3,-2l0 2 -1 -1z"></path> <path class="fil1" d="M581 354c3,-1 1,1 5,-5 2,-2 4,-3 4,-6 -3,1 -4,4 -7,7 -1,2 -1,1 -2,4z"></path> <path class="fil1" d="M240 174c1,2 0,0 2,2 0,1 1,1 1,2 1,2 1,4 3,4l-1 -2 2 0c0,-2 -1,-4 -3,-6l-2 -1c1,1 0,1 1,1 0,0 -2,0 -2,0 -1,0 1,1 -1,0z"></path> <path class="fil1" d="M560 64c-1,-1 -1,-1 -1,-3 3,1 1,1 3,2 0,-1 0,-2 0,-3 0,-3 0,-2 -1,-3l0 5 -1 -2c-1,-2 -1,-2 -2,-3 0,0 0,1 -1,0 -1,0 -1,-1 -1,-1 -1,-1 1,0 -1,-1 1,1 1,1 1,2 1,1 1,2 1,2 2,3 0,3 3,5z"></path> <path class="fil1" d="M239 329l0 7 2 1c0,0 0,0 0,0l0 -8c-3,0 -1,-1 -2,0z"></path> <path class="fil1" d="M402 197c-1,-3 -3,-6 -5,-7 0,3 0,3 1,4 2,3 0,2 4,3z"></path> <path class="fil1" d="M413 220c2,2 5,6 6,1 0,0 1,0 -1,-1 -2,0 -3,0 -5,0z"></path> <path class="fil1" d="M198 370c1,-1 1,1 1,-3 0,-4 0,-3 -1,-4 -1,2 -2,5 0,7z"></path> <path class="fil1" d="M510 205c0,0 -1,0 -1,0 0,0 0,1 0,1l1 1c1,2 3,3 5,4 -1,-4 -5,-5 -5,-6z"></path> <path class="fil1" d="M523 398l1 2 2 0 0 -2 1 -2c-2,0 -3,1 -4,2z"></path> <path class="fil1" d="M221 171c3,0 3,0 5,-2 -5,-1 -4,1 -5,2z"></path> <path class="fil1" d="M261 321l1 -1 -2 0 -2 0 -1 -1c2,2 0,3 4,2z"></path> </g> </g> </g> </svg> 