<?xml version="1.0" encoding="UTF-8"?> <!-- Generator: Adobe Illustrator 23.0.6, SVG Export Plug-In . SVG Version: 6.00 Build 0) --> <svg xmlns="http://www.w3.org/2000/svg" xmlns:xlink="http://www.w3.org/1999/xlink" version="1.1" id="Layer_1" x="0px" y="0px" viewBox="0 0 40 40" style="enable-background:new 0 0 40 40;" xml:space="preserve"> <style type="text/css"> .st0{fill:#E52D33;} </style> <title>call</title> <desc>Created with Sketch.</desc> <g id="call"> <g id="Combined-Shape"> <path class="st0" d="M7.6,5c1.3,0,2.4,1,2.5,2.3c0.2,2.7,0.9,5.3,2,7.8c0.6,1.2,0.1,2.7-1.1,3.3l0,0l-4.9,2.5 c2.9,5.5,7.5,10.1,13,13l0,0l2.5-4.9c0.6-1.2,2-1.7,3.3-1.1c2.5,1.1,5.1,1.8,7.8,2C34,30,35,31.1,35,32.4l0,0v6.4 c0,0.7-0.6,1.3-1.3,1.3c-5.1,0-10-1.1-14.6-3.3c-6.9-3.3-12.5-9-15.9-15.9C1.1,16.2,0,11.3,0,6.3C0,5.6,0.6,5,1.3,5l0,0H7.6z M23.9,30.1L21.4,35c3.5,1.5,7.3,2.4,11.1,2.5l0,0v-5.1C29.5,32.1,26.6,31.4,23.9,30.1L23.9,30.1z M27.5,0C34.4,0,40,4.5,40,10 s-5.6,10-12.5,10c-1.1,0-2.2-0.1-3.3-0.4l0,0l-4.9,2.7c-0.2,0.1-0.4,0.2-0.6,0.2c-0.3,0-0.5-0.1-0.7-0.2c-0.4-0.3-0.6-0.8-0.5-1.3 l0,0l0.9-4.2C16.2,15,15,12.6,15,10C15,4.5,20.6,0,27.5,0z M27.5,2.5c-5.5,0-10,3.4-10,7.5c0,2,1.1,3.9,3,5.3 c0.2,0.2,0.4,0.4,0.5,0.6c0,0.1,0,0.2,0.1,0.3l0,0v0c0,0.1,0,0.2,0,0.3l0,0l-0.5,2.3l2.9-1.6c0.2-0.1,0.4-0.2,0.6-0.2 c0.1,0,0.2,0,0.3,0c1,0.3,2.1,0.4,3.1,0.4c5.5,0,10-3.4,10-7.5S33,2.5,27.5,2.5z M2.5,7.5c0.1,3.8,1,7.6,2.5,11.1l0,0l4.9-2.4 c-1.2-2.8-2-5.7-2.3-8.6l0,0L2.5,7.5z"></path> </g> </g> </svg> 