<?xml version="1.0" encoding="UTF-8"?> <!-- Generator: Adobe Illustrator 23.0.6, SVG Export Plug-In . SVG Version: 6.00 Build 0) --> <svg xmlns="http://www.w3.org/2000/svg" xmlns:xlink="http://www.w3.org/1999/xlink" version="1.1" id="Layer_1" x="0px" y="0px" viewBox="0 0 40 40" style="enable-background:new 0 0 40 40;" xml:space="preserve"> <style type="text/css"> .st0{fill:#E52D33;} </style> <title>users</title> <desc>Created with Sketch.</desc> <g id="users"> <g id="Combined-Shape" transform="translate(1.000000, 4.000000)"> <path class="st0" d="M21.3,17c3.8,0,6.9,3,7,6.8l0,0.2v5.7h0l-0.5,0.2c-0.6,0.3-3.5,1.5-8.2,1.5c-2.5,0-5.5-0.3-9-1.4l-0.9-0.3 l0-0.1V24c0-3.8,3-6.9,6.8-7l0.2,0H21.3z M21.3,19.8h-4.6c-2.2,0-4,1.8-4.2,4l0,0.2v3.6l0.1,0c2.3,0.6,4.4,0.9,6.4,0.9l0.5,0 c2,0,3.8-0.2,5.3-0.6l0.3-0.1l0.3-0.1l0-3.8c0-2.2-1.8-4-4-4.2L21.3,19.8z M30.3,11.3c3.8,0,6.9,3,7,6.8l0,0.2V24h0l-0.5,0.2 c-0.6,0.3-3,1.3-6.9,1.5l-0.3,0V24c0-3.8-2.5-6.9-5.9-8c1.2-1.1,1.9-2.7,2.1-4.4l0-0.3H30.3z M11.6,11.3c0.2,0,0.3,0,0.5,0 c0.1,1.8,0.8,3.5,2.1,4.7c-3.4,1-5.8,4.1-5.9,7.7l0,0.3v1.7c-2.1-0.1-4.6-0.5-7.3-1.3l-0.6-0.2L0,24.1L0,24v-5.7 c0-3.8,3-6.9,6.8-7l0.2,0H11.6z M30.3,14.2l-2.2,0c-0.1,0.2-0.1,0.4-0.2,0.6l-0.1,0.2l0.1,0.1c2.3,1.7,3.9,4.3,4.4,7.2l0,0.3 l0.2,0c0.4-0.1,0.8-0.2,1.2-0.3l0.4-0.1l0.3-0.1l0.1,0l0-3.8c0-2.2-1.8-4-4-4.2L30.3,14.2z M9.8,14.2l-2.8,0c-2.2,0-4,1.8-4.2,4 l0,0.2v3.6L3,22c0.8,0.2,1.5,0.4,2.2,0.5l0.3,0.1l0-0.2C6,19.3,7.6,16.7,10,15l0.1-0.1L10,14.8l-0.1-0.3L9.8,14.2z M18.9,5.6 c3,0,5.5,2.4,5.5,5.5s-2.4,5.5-5.5,5.5c-3,0-5.5-2.4-5.5-5.5S15.9,5.6,18.9,5.6z M18.9,8.5c-1.4,0-2.6,1.2-2.6,2.6 c0,1.4,1.2,2.6,2.6,2.6c1.4,0,2.6-1.2,2.6-2.6C21.6,9.7,20.4,8.5,18.9,8.5z M9.3,0c3,0,5.5,2.4,5.5,5.5c0,0.1,0,0.2,0,0.3 c-1.3,1-2.3,2.6-2.5,4.3c-0.8,0.5-1.8,0.8-2.9,0.8c-3,0-5.5-2.5-5.5-5.5C3.9,2.5,6.3,0,9.3,0z M28,0c3,0,5.5,2.4,5.5,5.5 c0,3-2.4,5.5-5.5,5.5c-0.8,0-1.6-0.2-2.3-0.5c-0.2-2.1-1.4-4-3.2-5C22.6,2.4,25,0,28,0z M9.3,2.9C7.9,2.9,6.7,4,6.7,5.5 c0,1.4,1.2,2.6,2.6,2.6c0.1,0,0.3,0,0.4,0l0.1,0l0.1-0.2c0.4-1.1,1-2.1,1.8-3l0.2-0.2l0-0.1c-0.4-0.9-1.2-1.6-2.3-1.7L9.3,2.9z M28,2.8c-1,0-1.9,0.6-2.3,1.4l0,0l0,0c1,1,1.8,2.1,2.2,3.4l0.1,0.4l0.1,0C29.5,8,30.5,7,30.6,5.6l0-0.2c0-1.4-1.1-2.5-2.5-2.6 L28,2.8z"></path> </g> </g> </svg> 