<?xml version="1.0" encoding="UTF-8"?> <!-- Generator: Adobe Illustrator 23.0.6, SVG Export Plug-In . SVG Version: 6.00 Build 0) --> <svg xmlns="http://www.w3.org/2000/svg" xmlns:xlink="http://www.w3.org/1999/xlink" version="1.1" id="Layer_1" x="0px" y="0px" viewBox="0 0 40 40" style="enable-background:new 0 0 40 40;" xml:space="preserve"> <style type="text/css"> .st0{fill-rule:evenodd;clip-rule:evenodd;fill:#E52D33;} </style> <title>suitcase</title> <desc>Created with Sketch.</desc> <g id="suitcase"> <g id="Combined-Shape" transform="translate(2.000000, 5.000000)"> <path class="st0" d="M35.7,14.3v12.4c0,2.2-1.7,4-3.9,4.1l-0.2,0H4.1c-2.2,0-4-1.7-4.1-3.9l0-0.2V14.3l16.7,5.6 c0.4,0.1,0.7,0.2,1.1,0.2c0.3,0,0.7-0.1,0.9-0.1L35.7,14.3z M3,18.5l0,8.2c0,0.6,0.4,1,1,1.1l0.1,0h27.5c0.6,0,1-0.4,1.1-1l0-0.1 l0-8.2l-12.9,4.3l-0.1,0.1c-0.5,0.2-1,0.2-1.5,0.3l-0.3,0c-0.6,0-1.3-0.1-1.9-0.3L3,18.5z M20.8,0c1.6,0,3,1.3,3,3v2.2 c0,0.1,0,0.2,0,0.3l7.8,0c2.3,0,4.1,1.8,4.1,4.1V13l-17.5,5.8c-0.1,0-0.2,0.1-0.4,0.1c-0.1,0-0.2,0-0.4-0.1L0,13V9.6 c0-2.3,1.8-4.1,4.1-4.1l7.8,0c0-0.1,0-0.2,0-0.3V3c0-1.6,1.3-3,3-3H20.8z M31.6,8.5H4.1c-0.6,0-1,0.4-1.1,1l0,0.1l0,1.2l14.9,5 l14.9-5l0-1.2c0-0.6-0.4-1-1-1.1L31.6,8.5z M20.8,3h-6v2.2c0,0.1,0,0.2,0,0.3h6c0-0.1,0-0.2,0-0.3V3z"></path> </g> </g> </svg> 