<?xml version="1.0" encoding="UTF-8"?>
<svg width="99px" height="49px" viewBox="0 0 99 49" version="1.1" xmlns="http://www.w3.org/2000/svg" xmlns:xlink="http://www.w3.org/1999/xlink">
    <!-- Generator: Sketch 63.1 (92452) - https://sketch.com -->
    <title>Har-Hith Logo Black</title>
    <desc>Created with Sketch.</desc>
    <g id="Page-1" stroke="none" stroke-width="1" fill="none" fill-rule="evenodd">
        <g id="Har-Hith-Logo-Black" fill="#000000">
            <g id="Group-573" transform="translate(53.730983, 4.878049)">
                <path d="M0.843999034,3.4004878 C1.13281816,3.22591463 1.34436127,2.95402439 2.40811398,3.13689024 C2.81387346,3.20652439 3.30656846,3.46219512 4.04878049,3.55707317 C5.08258875,3.68914634 6.34725912,3.64780488 7.36875151,3.50365854 C8.21347501,3.38457317 9.00289785,2.99689024 9.5659261,2.3627439 C9.80379135,4.94896341 8.73714079,6.64859756 6.82763825,7.07859756 C6.26171215,7.20615854 5.51177252,7.14170732 4.97222893,6.94445122 C3.76195363,6.5020122 2.90612171,5.56103659 2.42749336,4.26731707 C2.42423328,4.2579878 1.93582468,3.27103659 0.843999034,3.4004878" id="Fill-568"></path>
                <g id="Group-572">
                    <path d="M0.964984303,3.42292683 C2.104383,1.89292683 0.556628834,1.37164634 0.86844965,0.0227439024 C0.0770949046,1.4127439 -0.0642356919,2.45902439 0.964984303,3.42292683" id="Fill-569"></path>
                    <path d="M0.964984303,3.42292683 C1.75543347,1.99646341 0.490219754,1.34896341 0.860239073,0.0371341463 C0.251509297,1.3220122 0.0843395315,2.4820122 0.964984303,3.42292683" id="Fill-570"></path>
                    <path d="M0.954539966,3.32652439 C1.6140425,2.00286585 0.495230621,1.31908537 0.834218788,0.11695122 C0.276322144,1.29420732 0.156000966,2.40262195 0.954539966,3.32652439" id="Fill-571"></path>
                </g>
            </g>
            <g id="Group-590">
                <g id="Group-577" transform="translate(0.000000, 8.536585)">
                    <path d="M10.5200435,3.37134146 C7.03151413,3.37134146 4.74052161,2.97689024 1.64265878,1.18902439 C1.53845689,1.13628049 0.601364405,0.557926829 0.549323835,0.557926829 L0.549323835,0.584207317 C1.40841584,1.2152439 2.4237503,1.68853659 3.30886259,2.21432927 C6.95345327,4.37054878 9.08814296,5.08042683 13.3575827,5.08042683 C17.5749819,5.08042683 21.8184014,5.05414634 26.0358005,5.05414634 C25.7753562,4.89634146 23.1200193,3.34506098 23.0680391,3.34506098 C18.8765999,3.34506098 14.685221,3.37134146 10.5200435,3.37134146" id="Fill-574"></path>
                    <path d="M3.14555663,30.532561 C4.81170007,36.0278049 9.83621106,39.3409146 15.1989858,39.4987195 C24.1023304,39.6037805 26.3411012,28.3502439 31.3395315,28.3502439 C31.8601183,28.3502439 32.4069065,28.4816463 32.979715,28.7445122 C32.1204419,28.2187195 31.2093093,27.5614024 30.2982371,27.1669512 C29.6994084,26.8513415 29.1526201,26.72 28.6060734,26.72 C24.1543709,26.72 21.707136,36.4485366 13.7931055,37.6581098 C13.4285801,37.7106098 13.090256,37.7368902 12.7517508,37.7368902 C9.39362473,37.7368902 7.12871287,34.95 6.34762135,32.9515244 C3.58814296,26.010122 7.77952185,18.8056098 13.4285801,14.8352439 C15.225006,13.5468293 16.6308259,13.0735976 17.6460396,13.0735976 C19.8069307,13.0735976 20.2494567,15.2033537 18.895617,16.6232927 C18.895617,16.6232927 21.8374185,18.3586585 21.8374185,18.332378 C24.5449167,15.8081707 20.0150326,11.2593902 15.3292079,11.2593902 C14.4699348,11.2593902 13.5588626,11.4170732 12.7257909,11.7851829 C12.1791838,10.4968293 12.9340135,9.47134146 14.157631,9.02439024 C14.6261773,8.84030488 15.225006,8.76146341 15.8237745,8.76146341 C16.8391089,8.76146341 17.9325042,8.99810976 18.6613137,9.36628049 L18.6613137,5.08042683 L29.6994084,5.08042683 C29.6733881,5.05414634 29.6214079,5.02786585 29.5691862,5.00158537 L26.7576672,3.37134146 L8.44590679,3.37134146 L11.3877083,5.08042683 L15.7195726,5.08042683 L15.7195726,7.47310976 C14.8344603,7.23646341 13.8453272,6.94731707 12.8820333,6.94731707 C12.3874668,6.94731707 11.9188602,7.02609756 11.4761531,7.21018293 C8.2480681,8.55109756 9.67996861,11.1541463 11.6844361,12.3637195 C5.51454963,16.0710366 0.776563632,23.0914634 3.14555663,30.532561" id="Fill-575"></path>
                    <path d="M43.7821178,5.08042683 C43.7560976,5.05414634 43.704057,5.02786585 43.6518957,5.00140244 L40.8404975,3.37134146 L19.6563028,3.37134146 L22.5981043,5.08042683 C30.5601908,5.08042683 35.791717,5.08042683 43.7821178,5.08042683" id="Fill-576"></path>
                </g>
                <path d="M36.0421396,13.2294512 C36.5794494,13.8664024 37.1712751,15.0339634 37.3639218,15.945061 L41.5460638,15.945061 C41.5986477,15.9554268 41.6247887,15.9768293 41.6247887,16.0081098 C40.6860058,17.430122 40.2112412,18.1358537 40.1907148,18.1358537 L37.468184,18.1358537 C37.4111929,18.8685366 37.0612171,19.747622 36.4305723,20.7753659 C35.5961121,21.8177439 34.7979957,22.4918293 34.031816,22.7978049 C32.6084883,23.487439 31.2416687,23.83 29.9382999,23.83 L29.9382999,23.8612805 C29.9382999,32.4212195 38.5865129,38.3560366 47.0848225,34.0107317 C35.4998189,41.0229878 26.2717943,30.1927439 26.2717943,22.2287805 L26.3029461,22.1498171 C29.1225549,22.5607927 32.9437334,22.1722561 34.0941198,19.095122 C34.2142598,18.7841463 34.2770466,18.4678659 34.2770466,18.1358537 L27.834581,18.1358537 C27.7935281,18.1358537 27.7716131,18.115122 27.7716131,18.0782927 C28.7416083,16.6560976 29.2372012,15.945061 29.2579087,15.945061 L33.8961,15.945061 L33.8961,15.9134146 C33.2656363,14.622622 32.0021734,13.2294512 30.6997102,13.2294512 C16.4008694,13.2294512 51.4380584,13.2294512 36.0421396,13.2294512" id="Fill-578"></path>
                <path d="M70.6474282,11.8816463 C71.5325404,12.4337195 72.4437938,13.1175 73.4069065,13.4854878 C73.4591282,13.5118902 73.563149,13.5907317 73.6151896,13.5907317 C73.8755132,13.6170122 74.1099372,13.6170122 74.3702608,13.6170122 C74.8908476,13.6170122 75.4115552,13.5907317 75.9061821,13.5907317 C79.1082468,13.5907317 82.2842912,13.5907317 85.486356,13.5907317 C85.8769017,13.5907317 86.2413668,13.5907317 86.6317315,13.5907317 C88.8706834,13.5907317 91.0313934,13.6695122 93.1401232,14.747561 C93.3743661,14.8790854 93.9992152,15.2998171 94.1554576,15.352378 L94.1554576,15.3260976 L94.1294373,15.2998171 C93.2181236,14.6162195 92.1247887,14.1165244 91.1355953,13.5644512 C88.5843395,12.1182927 87.0743178,11.9342073 84.184738,11.8816463 C82.7528375,11.8553659 81.2949771,11.8553659 79.8630766,11.8553659 C76.791234,11.8553659 73.7194518,11.8816463 70.6474282,11.8816463 Z" id="Fill-579"></path>
                <path d="M87.6417532,10.3392073 L87.6417532,8.72237805 L87.0713596,8.72237805 L87.0713596,8.39347561 L88.5994325,8.39347561 L88.5994325,8.72237805 L88.0317556,8.72237805 L88.0317556,10.3392073 L87.6417532,10.3392073 Z M88.8465347,10.3392073 L88.8465347,8.39347561 L89.4308138,8.39347561 L89.776141,9.72036585 L90.1175441,8.39347561 L90.7029703,8.39347561 L90.7029703,10.3392073 L90.3427312,10.3392073 L90.3412219,8.80743902 L89.9613016,10.3392073 L89.5863318,10.3392073 L89.2083434,8.80743902 L89.207136,10.3392073 L88.8465347,10.3392073 Z" id="Fill-580"></path>
                <g id="Group-589" transform="translate(39.845448, 0.000000)">
                    <path d="M10.83929,11.9082317 L4.74734364,7.51682927 C5.42435402,7.7270122 5.99728326,7.80615854 6.49184979,7.80615854 C8.18419464,7.80615854 8.99106496,6.75439024 10.7090679,5.30817073 C12.1406061,4.12493902 13.5206472,2.78396341 15.2909925,2.12664634 C15.9940232,1.86378049 16.6188119,1.75847561 17.2172784,1.75847561 C22.3983337,1.75847561 22.4761531,11.1717683 17.7120261,11.1717683 C18.0773968,11.495 18.517689,11.7062195 18.9713837,11.9082317 L23.0207076,11.9082317 C24.5352572,10.3130488 24.2861024,7.18634146 23.2310432,5.22939024 C21.4088384,1.86378049 18.5972591,0.417743902 15.6032963,0.417743902 C12.9480198,0.417743902 10.1621589,1.57439024 7.84532722,3.52030488 C6.25754649,4.86121951 4.72150447,5.91280488 2.87291717,5.91280488 C2.24843033,5.91280488 1.02330355,5.20140244 0.320453997,4.93829268 C3.13197295,7.19945122 6.67429365,9.93573171 9.66771311,11.9082317 L10.83929,11.9082317 Z" id="Fill-581"></path>
                    <polygon id="Fill-582" points="8.31423569 13.6170122 8.31423569 28.4204268 11.2818764 30.1293293 11.2818764 13.6170122"></polygon>
                    <path d="M28.593999,32.3116463 C28.2035136,31.9434756 26.9278556,30.8918902 26.1988046,30.55 C25.6262376,31.6280488 24.4286404,32.2853659 23.2310432,32.2853659 C20.2632818,32.2853659 19.0398454,28.5517683 19.3521492,26.0012805 C19.5864525,24.0555488 20.8620502,22.9510976 22.4239918,22.4778659 C22.6844361,22.3990244 22.9447597,22.3727439 23.2050229,22.3727439 C24.4286404,22.3727439 25.4177735,23.1879268 25.4177735,24.2921951 C25.4177735,25.0283537 25.13149,25.7382317 24.5326612,26.1590854 C24.480681,26.2116463 26.8236537,27.9470122 26.9018353,27.8681707 C30.4942647,25.3965244 24.5067013,20.6636585 20.9922724,20.6636585 C20.9662521,20.6636585 20.9140908,20.6636585 20.8880705,20.6636585 C19.7687153,18.5864634 21.7471625,17.3243293 23.6997706,17.3243293 C24.3765999,17.3243293 25.0794494,17.4821341 25.6262376,17.8240244 C25.6262376,16.5356707 25.5740159,15.2735366 25.5740159,13.6432927 L32.1083675,13.6432927 C31.3273364,13.0910366 30.4682444,12.5126829 29.7393745,11.9079268 L14.3798599,11.9079268 L16.7748732,13.6432927 L23.2050229,13.6432927 L23.2050229,16.0621951 C22.5281937,15.8256098 21.8513644,15.7204878 21.2265757,15.7204878 C18.4930572,15.7204878 16.8789544,17.8765854 19.9769379,20.7952439 C12.4794736,22.2675 19.1438662,34.0732927 25.339773,34.0732927 C26.7455929,34.0732927 27.7867665,33.5212195 28.593999,32.3116463" id="Fill-583"></path>
                    <path d="M41.5592248,18.0352439 C42.3383844,21.5706098 34.8845086,20.560122 32.6332408,21.7206098 C32.1273847,22.0253659 31.7599614,22.4196341 31.5184738,22.9545732 C29.4609394,27.0936585 31.765093,32.5723171 34.3461121,35.2391463 C32.4023787,32.7079878 32.3033084,28.9321951 33.8979111,25.4613415 C34.9449408,23.135 38.8808259,23.4366463 41.5403888,22.9763415 C46.2088867,22.1682927 43.363318,19.7882317 41.5592248,18.0352439" id="Fill-584"></path>
                    <path d="M28.359575,13.6170122 C31.822084,13.6170122 36.6121106,13.6170122 40.0744385,13.6170122 C42.677916,13.6170122 45.3071722,13.6170122 47.9364888,13.6170122 L44.9688481,11.9079268 C41.506339,11.9079268 38.0439507,11.9079268 34.5554214,11.9079268 C31.9521251,11.9079268 28.0212509,11.9079268 25.3917532,11.9079268 C25.4699952,11.9079268 27.9430089,13.4329268 28.359575,13.6170122" id="Fill-585"></path>
                    <path d="M30.6000362,13.6170122 C30.5740159,13.5907317 30.5219754,13.5644512 30.4696329,13.5379878 L27.6582347,11.9079268 L4.17640667,11.9079268 L7.11802705,13.6170122 C15.080355,13.6170122 22.6095146,13.6170122 30.6000362,13.6170122" id="Fill-586"></path>
                    <path d="M52.5953876,30.402439 C58.2960034,30.1492073 57.3868027,31.0753049 55.6805723,34.9292073 L58.6548539,29.5942073 L52.5953876,30.402439 Z" id="Fill-587"></path>
                    <path d="M41.4000845,29.15 C41.4000845,27.4510976 41.6103598,25.7755488 41.6103598,24.0764634 L41.6103598,11.9079268 L44.2504226,11.9079268 L44.2504226,22.4718293 C44.2504226,24.2417073 44.0635716,26.035 44.0635716,27.804939 C43.6809346,38.8531098 52.829872,33.7268902 56.7149239,31.0571341 L56.7149239,31.0927439 C49.5097199,36.4085976 41.4000845,40.2834146 41.4000845,29.15" id="Fill-588"></path>
                </g>
            </g>
        </g>
    </g>
</svg>