<svg xmlns="http://www.w3.org/2000/svg" xmlns:xlink="http://www.w3.org/1999/xlink" width="398" height="300" viewBox="0 0 398 300">
    <defs>
        <path id="i36ov9uria" d="M0.054 0L396.666 0 396.666 300 0.054 300z"/>
    </defs>
    <g fill="none" fill-rule="evenodd">
        <g>
            <g>
                <g transform="translate(-602 -389) translate(466 211) translate(136.5 178)">
                    <mask id="660e33uj9b" fill="#fff">
                        <use xlink:href="#i36ov9uria"/>
                    </mask>
                    <path fill="#99E3B8" d="M121.026 111.109c1.55 1.028.624.18 1.987 1.319l1.908 2.077c-5.729-.848-8.175-.184-8.069-5.913 1.598.675 2.56 1.452 4.174 2.517zm-20.622 102.36c4.343 1.885 8.807 4.025 13.684 5.988l12.98 6.188c-4.456 1.74-21.47 1.504-27.222 1.598l.558-13.774zm-.962-6.228c5.501 2.062 11.524 5.69 15.985 8.144-3.318-.605-6.173-1.614-9.334-2.886-4.044-1.626-5.842-.993-6.651-5.258zm-2.921 20.183c-7.716.07-11.466.157-19.036-1.331 2.843-13.484 1.728-14.316.502-27.91 3.84.864 5.297 2.8 7.492 4.995 9.699 9.71 13.63 2.096 11.042 24.246zm31.797-36.442c2.32 1.225.49-.801 2.866 2.257l4.735 6.624-8.084-1.444.483-7.437zm-32.63 9.647c-3-.848-9.506-2.882-11.528-4.904 3.636-5.513 10.032 3.09 11.528 4.904zm45.862-41.405c5.155 1.469 4.727 3.558 3.286 9.651l-3.286-9.65zM94.31 276.937c.377-7.865-.518-15.25.15-23.068.647-7.543 2.292-13.931 3.396-20.991l11.96.44c2.474 11.382 2.477 16.981.361 27.878-.597 3.074.212 25.942.809 29.15 3.243-9.055-.393-20.41 1.472-30.364.994-5.3 2.718-5.85 2.698-12.725-.016-5.062-1.21-9.294-1.363-13.896l15.184-.079c2.274 15.628-.153 41.173 2.768 58.729 2.965-8.576 1.104-20.87 1.241-30.646.075-5.274.715-9.48.436-14.89-.24-4.598-1.504-9.317-1.21-13.837l14.434-2.788c-.557 14.261 2.176 16.056 4.292 28.412 2.191 12.793.723 19.11.412 31.232 11.281-25.204-6.172-37.498-.883-61.097l6.97-1.72 7.723-.117c3.534 8.214.495 16.888-.424 25.043-.424 3.77.605 22.668 1.048 26.991 2.933-6.997.833-16.66 1.045-24.717.224-8.407 2.964-11.63 3.302-21.494 3.742 3.011 4.236 3.388 5.175 9.789.781 5.316 1.967 7.17 3.227 11.634 2.647 9.36.468 18.207-1.162 27.254-3.408 18.965-7.955 14.709-26.747 18.01-4.374.767-7.433 2.259-11.481 3.193-11.886 8.187-34.809 1.57-45.544 9.066 16.507 1.002 35.72.146 52.521.146h131.314c4.433 0 8.866 0 13.3-.004 2.135-.004 4.656.137 6.714.078 3.922-.11 3.812-.408 4.814-1.386-3.664.106-14.305-3.958-19.546-5.073-21.007-4.46-25.42 4.582-43.899-1.763l-18.176-5.921c-6.486-3.404-4.338-11.929-5.552-19.373-.644-3.97-2.407-5.25-2.772-9.534-.326-3.832.047-7.174-.522-11.218-.864-6.165-6.231-23.599-1.893-32.7 1.398-2.925 3.911-3.699 5.203-5.43 4.296-1.17 4.362-1.63 9.22-.829-.232 4.865-1.194 8.862-.904 13.975.283 5.077 2.403 6.675 2.937 11.928.864 8.505-2.465 20.41 1.257 27.415.361-5.434 1.7-21.965 1.025-26.382-1.85-12.062-1.975-13.33-.735-25.785l16.437 5.06c.49 8.223-3.93 21.781-5.164 30.231-1.456 9.997-.569 21.254 3.161 29.77.15-22.035-2.835-33.159 5.175-58.975l15.25-.216c-1.264 11.08-2.905 50 .244 58.591.562-10.044 1.7-20.948 1.712-30.862.012-10.66-.69-11.725.361-23.241.456-4.995-.208-4.508 3.73-5.124l-1.193-.743c-.82-.753-1.838-.027-.84-4.802.585-2.795 1.111-5.112 1.566-7.947l11.591 1.708c.134 5.697-1.444 12.314-1.39 18.545.071 7.708 2.435 10.735 3.028 17.47.62 7.063-.13 13.004-.338 19.926-.169 5.666 1.751 14.517 1.48 17.87.633-6.675 1.877-30.976 1.092-36.76-2.026-14.94-2.309-20.316-.051-35.547 2.859-.334 5.572 1.315 8.16 2.568 4.342 2.108 3.87 2.56 4.778 7.704 4.916 27.882 1.59 25.428 2.85 47.283.436 7.53 2.207 16.173.864 23.661.452-.632.507-.546 1.005-1.724 2.439-5.764.373-26.767 1.159-36.693 1-12.64-1.877-24.254-3.644-36.077 5.528 2.45 14.56 9.2 18.36 12.809.06 4.805-.565 9.18-.318 14.131.236 4.688 1.202 8.261 1.532 12.2l.73-24.565c2.878 1.418 10.08 7.614 15.478 10.724-1.877-2.965-11.603-11.964-14.767-13.9l-1.273-13.876c5.262 1.507 14.725 7.39 19.064 7.287l-11.768-6.655c4.5-.46 35.723 6.094 44.935 7.637l-52.093-13.566 4.115-2.91c3.286-1.822 9.176-5.293 11.426-8.199-6.805 1.96-8.591 6.287-15.545 7.512l1.516-6.573c-2.305-1.288-.534 4.39-2.042-.605-.067-.216-.37-.125-.64-.235l1.492-13.437c2.674 2.097 4.637 4.13 8.673 4.928-4.892-4.94-7.491-4.775-7.982-9.102 5.878-.196 22.302-.526 26.221-3.632-4.696-1.617-18.223-.243-24.081-.279l1.578-1.244c4.7-3.322 3.837-1.072 4.657-4.398-6.785 2.843-8.803 6.09-18.31 4.512 1.481-2.297 3.08-1.893 5.282-5.258 1.417-2.163 3.251-4.17 4.19-6.184-10.74 2.316-10.531 11.952-20.202 11.803-3.522-.055-10.076-1.264-15.07-1.41-5.124-.145-10.276.138-15.337-.043-1.692-12.47 10.543-6.173 20.402-12.879l-10.268 1.708c1.264-1.335.522-.703 2.419-1.924.561-.361 1.543-.875 2.14-1.194 6.714-3.569 28.746-14.63 31.039-18.258-4.378.326-36.297 18.11-43.466 21.195 1.515-3.855 4.385-10.84 4.22-15.136l-5.17 12.816c-2.977-2.442-1.053-3.385-4.006-4.83.99 5.745 4.492 9.243-3.059 11.16-24.116 6.125-22.789 11.375-37.152 17.622.534-2.96 12.95-20.842 15.462-24.333 2.6-3.605 6.668-8.187 9.24-10.68 5.257-5.1 10.4.15 15.874-3.232l-9.525-.887 13.966-13.774c6.946-7.755 5.965-1.532 11.273-4.264-2.136-1.68-2.073-.613-4.554-1.728l6.58-12.51c-2.481 1.17-2.034 1.198-3.64 4.052-4.864 8.646-3.844 8.603-10.417 9.377-7.33.86-17.606 4.236-24.006-.098l5.261-9.165c8.792.185 11.222.35 16.818 4.398-1.131-1.724-1.453-1.72-2.58-3.566 3.227-.153 7.48-.027 9.584-1.174-4.59.762-17.763.044-22.396-1.393 2.94-6.17 23.036-17.528 29.625-25.562 1.834-2.238.809-2.478 3.389-3.66 1.59-4.456 4.653-10.778 6.745-16.18 2.674-6.907 6.632-13.155 4.751-16.496-1.535 6.157-10.55 26.013-13.864 30.666-4.315 6.05-18.777 15.769-24.674 19.24 1.264-19.099 13.907-29.55 15.066-36.627-2.894.48-2.242 1.15-5.82 6.966-1.57 2.552-3.521 5.835-5.508 7.637-9.231-22.593-5.717-11.709-3.856-30.104-.177.184-.38.443-.495.585-.106.133-.345.4-.467.553l-1.453 2.136-1.233-10.028c-1.229 1.995 1.496 27.78-3.149 35.449l-3.015 3.168-.024-14.115c-.047-17.085-.165-6.868-1.555-13.814-1.256-6.294-.05-20.284-.13-27.203-1.39 1.724-1.295 1.893-1.586 5.238l-.757 15.003c.055 6.483 1.892 14.929 1.26 20.803-.475 4.445-4.704 10.056-6.68 15.11-1.99 5.088-4.514 11.763-6.12 16.44-1.34.726-1.182 1.931-2.953 3.816-3.122-7.276-1.532-8.336-.236-14.948-1.013 1.06-.69.852-1.657 1.979-.13.15-.306.361-.424.495-.118.137-.338.38-.436.49-.098.11-.38.625-.451.483-.07-.137-.29.338-.456.487-.333-4.767.087-17.194-.718-18.545-4.433 12.569 2.1 21.502 2.073 30.914-.004 2.717-4.61 9.046-6.318 11.37-3.27 4.454-4.401 5.604-8.088 8.957-2.282-3.2-4.477-7.146-6.876-9.003.617 5.371 4.704 7.103 4.755 10.935.032 2.753-2.929 8.705-5.493 10.024-8.638-4.53-5.61-23.888-5.375-34.144.298-12.828 4.178-20.32 6.247-32.398 4.032-23.543 3.451-47.197 6.647-63.225 1.752-8.764.629-6.353-.365-7.276l-2.862 14.057c-1.897-2.58-.204-2.042-2.768-4 .07 6.941 1.869 7.962.828 17.103-1.21 10.653-5.112 42.037-9 49.136-1.696.216-6.745.79-7.81-.565-1.118-3.891 1.615-5.061 2.522-9.133-2.333 1.559-1.873 2.391-3.856 4.834-2.977-3.845-.845-4.088-2.187-12.047-.845-4.999-.118-7.296 1.759-10.924 2.705-5.23 7.5-12.726 9.129-18.156l-2.588 2.309c-.29.377-1.197 2.105-1.484 2.65l-8.634 15.467-1.465-2.16c-.09-.18-.177-.4-.26-.589-1.958-4.488-3.906-15.612-5.665-18.894-1.272 1.221-1.66-1.975-.891 3.624l7.071 27.725c-2.3-1.645-5.151-8.155-6.847-11.12-2.812-4.908-5.23-5.732-8.364-9.565.723-4.967 5.399-9.313 5.277-14.555-3.074 2.336-4.166 9.384-7.291 12.2-5.533-5.918-8.493-17.882-9.981-20.065-1.076-1.579-.197-1.154-2.349-1.575l6.566 17.823c2.08 2.128 4.869 7.629 6.997 9.934 3.007 3.263 4.762 5.132 7.19 9.435 3.576 6.353 8.233 16.672 10.094 24.22-3.926-3.401-5.128-6.664-8.143-9.644-1.143-1.127-.248-.377-1.602-1.37 2.36 5.21 6.53 8.57 9 13.49-8.6 15.346-12.829-4.224-17.603-6.42l7.939 13.194c5.042 2.607 5.434 11.45 5.71 17.854-15.856-7.076-11.549-9.016-12.342-15.325-.416-3.318-4.005-11.191-5.678-15.004l-2.795-4.578c1.245 10.507 7.052 13.841 5.705 26.763l-7.708-1.602c2.266 7.433 19.181 4.237 21.25 20.143 1.159 8.902 2.722 8.41 1.473 18.726-.672 5.564-.911 12.286-3.385 16.09-6.592-1.77-9.412-16.063-11.245-21.552-4.724-14.112-16.06-28.503-24.545-40.298-4.955-6.887-3.926-14.96-6.577-24.336-.341 3.926-.569 13.448-.106 16.923-5.815-2.356-6.561-7.527-10.095-15.094l2.246 9.393c-6.78-4.594-12.085-12.553-18.58-16.892 1.66 2.819 6.29 8.666 8.681 11.226 1.799 1.92 8.596 8.453 8.976 10.597l-8.489-.153c5.454 4.28 8.921-2.297 15.683 4.963 5.878 6.31 20.594 28.036 22.385 35.202-3.6-1.343-14.407-9.581-19.374-12.444-3.176-1.83-6.761-3.683-10.743-5.057-14.897-5.16-11.049-1.845-8.704-13.099-2.945 1.15-1.544 2.348-3.872 4.335-2.933-4.06-2.297-8.556-5.4-11.925l3.947 14.371c-7.201-3.137-14.638-8.218-21.63-12.038-5.263-2.87-16.35-10.088-20.749-11.364 1.218 3.031 5.124 4.445 8.27 6.396 3.03 1.885 5.622 3.538 8.67 5.466 3.53 2.238 15.772 9.043 17.57 11.477l-10.24-2.238c2.607 2.21 8.207 3.334 12.117 4.555 7.79 2.438 7.995 1.045 8.124 9.172l-26.217-.424c.903.636.636.546 2.297 1.108 3.88 1.315 32.087.852 45.803 9.176 3.25 1.975 5.69 3.797 9.117 5.843 9.714 5.807 12.883.985 16.35 11.913 1.174 3.698 2.533 7.523 3.42 10.943-14.06-4.732-11.599-9.09-15.824-13.74l2.43 8.337c-5.752-1.531-10.813-8.556-16.22-11.552l3.746 5.1-1.433 5.537c-3.9-4.005-4.716-10.943-6.997-16.205-.836 6.204 3.2 16.786 4.402 22.876-3.578-1.618-8.199-5.76-12.88-6.412 3.542 3.424 8.136 5.277 10.83 8.47-1.932 1.17-1.406.424-2.678.926l-2.713 1.516c6.922.334 9.914-2.894 10.118 5.556.59 23.975 4.567 21.73 8.756 40.011-3.58-1.052-15.262-15.769-19.2-19.66-16.056-15.863-8.619-20.665-8.391-27.423-2.82 3.624-.593 5.097-3.997 7.983-1.822-4.174-12.278-21.706-15.09-22.896l11.454 22.008-8.297-4.28c2.117 2.305 4.382 3.853 6.722 5.659 2.62 2.018 3.919 4.115 4.85 8.03-3.515-1.442-11.85-3.782-15.836-4.37 4.66 4.385 15.07 5.665 18.886 10.036l6.668 8.324c2.356 3.341.734 6.447.204 11.555-1.889 1.524 2.32.75-3.157 1.218l2.925 1.08-.016 13.518c-14.626-5.713-22.412-10.448-32.362-21.564l-25.05-30.262c2.858 8.38 14.621 22.652 19.286 29.359l-2.588 2.407c-7.66 5.305-9.992-5.454-23.63-12.647l3.727 4.492c1.81 1.558 2.894 2.293 4.233 4.15-7.669-1.673-43.188-22.303-47.016-20.01l52.07 27.274c-1.654 1.747-12.11 3-17.643 6.742 6.334-.18 9.734-3.122 16.786-3.495-1.178 4.217-2.057 2.717-2.972 7.146 2.607-1.566 3.322-3.231 5.41-5.454 1.175 10.029 1.724 15.098.884 25.425-11.21-1.665-7.142-9.726-15.678-14.144 1.755 4.622 4.84 4.995 6.188 11.046-10.594-2.132-22.299-4.716-33.713-4.76l29.928 7.83c-5.073 1.488-7.477 2.175-11.438 4.41 11.422-.252 8.497-4.335 22.428-.597l-1.575 1.197c-5.681 3.35-1.264-.467-6.851 4.88-1.579 1.509-6.68 4.061-8.701 5.706 7.036-1.26 11.614-4.818 17.845-7.04l1.332 29.983c3.42-8.615-1.45-24.867 1.715-31.542 3.95-1.818 13.052-.71 17.85-.067-.412 9.923-4.735 19.59-3.797 31.868.797 10.433-1.33 27.478 1.626 35.77l1.598-23.539zm60.645-58.595c-11.917 4.232-14.442 5.183-20.913 1.072-6.553-4.166-7.676-5.042-6.372-18.895 1.814-.27 12.25.848 15.391 7.095l-8.975 2.663c12.902 1.107 9.31-3.07 19.396 5.096l3.581 1.83c-1.64 1.237 2.12.613-2.108 1.139zm3.628-8.584l-3.408-1.449c-1.54-5.371-1.123-10.33-2.156-15.333-.84-4.06-2.686-8.528-3.789-12.824-1.233-4.794-1.025-9.918-1.508-15.125-.8-8.603-.828-6.604-7.668-8.928l-.766-16.782c2.784 1.492 4.724 4.448 8.23 6.816 2.93 1.983 5.874 3.086 9.494 4.637 15.628 6.691 10.987 6.773 13.512 15.522 3.34 11.567 5.406 8.316 5.89 23.63.282 8.858 2.257 17.559 2.618 26.645l-6.742-.428c-3.537-18.545-2.037-19.012-11.68-32.688 2.06 6.176 6.548 12.792 7.338 19.424-3.122-1.484-4.01-2.517-7.127-3.97 3.77 6.707 6.577 1.445 8.5 17.713-2.78-.699-9.572-5.1-10.738-6.86zm158.87 20.104c-1.841-.844-3.278-2.32-4.92-3.589-2.171-1.669-3.043-2.513-5.108-3.793 1.441-3.408 10.244-15.439 10.028 7.382zm-88.162-14.19c1.03-2.65.876-1.646 6.07-4.653 2.746-1.59 4.355-2.764 7.45-3.974l1.433 11.69c-4.912.49-10.904-1.202-14.953-3.063zm68.259-1.03l10.896.979-2.686 3.184c-2.678.027-2.536.212-4.814-.891-2.603-1.26-2.58-1.202-3.396-3.271zm-51.74-9.835c7.869-.279 12.793 4.79 19.79 5.509l-2.474 13.012-15.776-.451c.604-6.251 1.177-1.897 7.723-7.857l-7.767 2.587-1.496-12.8zm12.487-6.589c2.006-1.61 5.991-2.972 8.983-3.266l.204 5.076c-3.231-.314-6.993-.494-9.187-1.81zm34.926 6.271l-22.613-4.178-.114-6.247c3.589-2.152 19.719-6.71 24.545-7.602l-1.818 18.027zm20.92 7.64c-5.921-.078-11.336-4.562-17.59-6.305l1.452-19.998c5.564-1.822 12.667-1.983 17.791-.86.075 4.343-.938 8.478-1.276 12.84-.365 4.676.409 9.89-.377 14.324zm-95.94-3.564c3.927-16.527 8.984-10.256 20.755-17.222 6.907-4.088 17.045-10.17 27.156-9.227l.322 5.607c-9.965 3.828-16.676 4.782-25.84 10.209-1.685.997-3.62 2.54-5.128 3.33-6.46 3.384-.958-2.27-4.366 1.268-3.895 4.04-6.829 4.401-12.899 6.035zm51.52-21.663l-.633-5.52 24.86-.103c-5.019 1.967 2.375-.648-1.34.507l-22.887 5.116zm-12.114-7.036c2.136-1.861 5.772-4.74 8.564-5.364-.365 5.438-3.793 4.979-8.564 5.364zm-9.184-29.084c.927-5.69.271-8.886.915-14.579l9.447-.522c-1.873 6.475-4.88 12.788-10.362 15.101zm23.096-18.188c-5.6 5.984-4.331 3.734-7.421 6.6l-7.457 6.048 2.863-10.001 12.015-2.647zm-42.332 9.079c3.954-6.208 7.288-11.21 13.72-14.478-2.6 4.308-3.22 4.98-6.672 8.219-3.133 2.94-2.72 4.24-7.048 6.259zm17.642-26.489c-.652-4.735-1.315-14.975 1.276-18.58 1.233-1.712 9.766-5.933 12.494-6.486-1.747 5.34-3.192 8.508-4.708 15.042-1.35 5.815-3.196 9.412-9.062 10.024zm.935-20.96c1.943-4.134 3.816-3.635 5.744-7.2 1.87-3.456 1.182-6.51 3.338-9.432 1.315 3.137 3.734 7.19 4.107 11.01-3.903 1.174-9.734 5.16-13.19 5.623zm-9.279 3.381c.982-6.345 3.373-14.002 7.158-17.48-.102 3.977-.369 7.519-1.013 11.45-.923 5.602-.718 5.178-6.145 6.03zm-4.468 7.869l2.163-2.552c2.565-3.224 2.969-3.746 7.104-4.421-.354 5.1-1.025 9.62-1.316 14.96-.55 10.067-8.886 12.69-14.438 19.055-1.072 1.233-6.64 7.456-8.332 8.764-1.429-5.544-1.955-4.775-2.685-5.529.066-4.994.149-3.612 3.616-7.315 2.273-2.43 3.412-4.405 5.179-7.272 2.038-3.31 8.458-12.741 8.709-15.69zm-18.113 32.908c.95 5.862 1.979 10.362-5.399 10.17.271-4.975.938-9.51 4.1-13.786l1.3 3.616zm1.967 17.116l14.681-10.472c5.533-5.548 9.137-11.697 15.157-9.44 1.166 4.123-3.452 18.84-5.611 21.486-7.264 8.902-18.867 22.798-24.144 33.207-3.412 6.726-5.352 14.355-8.51 20.453-.05-.05-1.939-1.779-2.037-1.885 1.406-5.336 3.122-9.647 1.017-14.74-3.216-7.782.71-20.46 3.561-28.09 1.995-5.344 4.708-6.946 5.886-10.52zm-30.356-68.42c1.862 3.279 5.046 6.522 4.602 11.375-.357 3.9-2.222 9.456-5.693 9.518-1.351-1.625-4.178-12.745-4.327-15.227l5.418-5.666zm11.957-4.244l-2.776 7.103c-1.972-1.826-3.032-3.471-4.037-6.177l6.813-.926z" mask="url(#660e33uj9b)"/>
                    <path fill="#99E3B8" d="M250.286 45.858c7.602.267 11.505-3.055 13.806-9.377-9.314-.282-15.423 1.233-13.805 9.377M379.331 245.894c-.766-8.014-4.751-15.808-11.827-11.108 1.555 6.47 4.716 9.816 11.827 11.108M141.138 21.16l-.998-.283c.746 5.992 6.078 9.177 13.46 8.713.526-1.669 2.266-2.94-1.362-6.212-2.627-2.371-6.754-2.595-11.1-2.218M131.16 27.544l2.227-2.198c-1.799-6.177-5.62-8.78-13.834-7.889 1.343 6.106 5.062 8.556 11.607 10.087M327.839 115.573c5.218 1.688 12.45 1.743 15.062-4.205-3.059-.758-11.348-4.956-15.321.675-.915 1.296-.452.196-.06 1.967l.119.471.2 1.092zM100.408 61.175c1.21-2.784 1.731-4.382-.644-6.926-2.525-2.706-7.649-2.95-12.117-2.745 1.86 5.811 5.599 9.039 12.76 9.671M364.461 244.873c.393-4.696.26-11.571-4.594-13.586l-3.589-.078c-.125-.24-.502.09-.753.094.13 5.45 2.183 13.248 8.936 13.57M174.477 123.112c1.347-2.105 1.182-1.798 2.12-2.187-.89-6.946-5.072-9.616-12.254-10.288 1.21 7.143 4.088 10.1 10.134 12.475M316.5 107.111c7.141 1.363 12.21-.907 14.759-5.167-6.275-3.451-16.876-1.5-15.357 3.46l.597 1.707zM395.088 195.964c-1.826-5.764-7.146-7.248-14.395-6.235 2.757 1.775 3.087 1.159 3.122 1.166l-4.543 1.48c3.279 5.812 9.663 4.579 15.816 3.59M265.828 44.154c-3.864 4.405-5.05 4.849-4.744 10.099 1.555-3.055 1.842-4.897 5.014-6.785-1.739 3.204-2.846 4.236-3.848 8.269 5.034-1.606 8.105-4.335 9.53-8.784 1.65-5.148.134-3.369-.99-4.146l-4.962 1.347zM380.8 174.793c5.48 3.655 10.954 3.2 15.866-.676-.675-1.056-.05-1.22-3.357-2.878-4.134-2.073-9.152-2.45-11.842 1.23l8.532-.7c-3.977 2.446-5.607.197-9.2 3.024M324.022 141.751l8.607-1.095c-.577.738-.624.91-2.018 1.264-3.455.88-4.445-.365-7.225 2.089 5.116 3.561 12.53 3.243 16.005-.644-3.2-4.033-11.29-6.828-15.369-1.614M358.297 88.943c.027-.031 1.362-1.13 2.254-2.002 2.654-2.607 1.044-.283 2.194-3.353-3.494-.585-8.603-2.188-12.58.294-2.984 1.861-1.355.444-2.43 3.444 3.317-1.5 4.53-2.835 8.818-2.816-3.875 1.956-6.388 2.191-8.995 5.372 4.975 1.343 6.314.49 10.739-.939M315.364 75.177c.495 2.776.428 1.076 1.096 1.83 1.574-2.843 3.216-4.885 7.016-5.937l-2.022 1.625c-2.399 1.925-3.903 3.212-4.786 6.357 6.867-1.036 10.645-3.608 12.55-10.122-8.396-1.441-9.86 2.014-13.854 6.247M329.963 78.538c4.154 2.788 4.24.047 6.718 4.413l-8.414-3.518c1.857 6.597 5.47 8.694 13.672 9.373-1.229-5.906-5.607-12.675-11.976-10.268M61.096 159.888c-1.006-3.42-3.927-6.306-6.852-7.889 4.347.31 5.513 3.287 7.845 6.283-.927-6.9-5.736-9.656-13.083-9.169 1.233 6.287 5.05 10.421 12.09 10.775M325.99 168.043c1.99-2.595 2.646-4.233 5.799-5.945-1.06 2.285.02.487-1.154 2.003-.22.282-1.316 1.315-1.677 1.755-1.5 1.798-1.39 1.704-1.653 3.872 9.066-1.638 9.569-7.135 12.023-11.042-7.488-1.186-12.687 2.635-13.338 9.357M66.883 91.837c3.165 5.804 11.215 4.264 15.746 3.671-.44-.647-.193-1.704-3.872-2.846l-4.716-1.453c-.184-.079-.463-.232-.683-.365 5.116-.083 4.889.432 8.984 1.912-1.24-2.085-2.584-3.754-6.844-3.91-3.451-.13-6.53 1.283-8.615 2.991M155.226 13.715l-1.367-3.86c-4.81-2.289-2.713-3.282-10.955-4.264.554 6.448 4.971 10.924 11.16 11.878-1.124-4.103-2.926-5.913-6.031-8.575 7.864 2.025 4.507 10.62 7.193 4.821M280.324 101.269c5.611 1.248 5.49-.385 9.279 3.596-3.436-1.503-5.96-2.297-10.41-2.21 5.01 9.097 23.14 8.351 10.508-.7-2.042-1.46-7.7-2.987-9.377-.686M335.818 172.405c2.673-1.142 4.723-2.524 8.477-2.776l-2.552 1.465c-3.153 1.358-3.923.361-5.54 3.75 5.3.844 12.293.77 15.144-4.885-6.082-4.166-12.746-2.324-15.53 2.446M383.76 155.53l3.915-1.925c.785-1.606-.436-.781 1.61-2.474-5.615-4.232-12.361-3.149-15.557 2.066 2.898-1.233 5.151-2.76 9.278-2.313-3.612 1.689-5.595 1.115-9.074 4.115.452.35.298.53 1.527.939 2.863.95 5.76.204 8.301-.409M296.368 98.285c4.072-.542 5.666-.739 9.588.196l-9.926.919c.876 2.477 3.93 3.616 6.455 3.946 3.416.444 6.884.008 9.243-2.368-3.196-3.636-10.44-8.14-15.36-2.693M16.824 140.357c3.196 5.262 6.243 7.775 14.623 7.194-1.61-2.82-4.83-4.806-8.957-6.193 4.645-.404 7.174 2.686 9.479 4.284-2.949-7.802-11.014-7.42-15.145-5.285M242.704 34.997c-1.931-5.697-3.294-3.432-7.052-7.272 4.084.891 4.033 1.696 7.77 4.979-1.723-6.326-5.881-7.995-13.95-7.048 1.284 5.78 5.847 8.768 13.232 9.341M213.428 40.989c4.01-3.42 3.664-3.891 7.814-4.999-.169.161-.424.173-.51.483-.444 1.524-4.763 1.312-6.644 6.71 5.784-.337 12.95-3.046 13.334-9.207-8.06-.652-12.152.448-13.994 7.013M380.07 121.192l-2.259-.75c-2.995-1.01-4.338-1.724-7.24-.389 4.205 1.115 6.483 1.166 8.285 4.194-3.707-1.834-5.113-2.329-9.77-2.898 2.651 5.371 6.707 8.045 14.749 7.233-1.217-3.526-2.446-4.799-3.766-7.39M38.102 144.931c8.344.362 11.78-1.978 14.571-7.68-4.621.64-6.769 1.575-10.103 3.522 2.478-3.981 4.877-2.567 8.462-4.888-6.46-2.54-11.732 4.087-12.93 9.047M379.928 141.472l-.318.228c-.927-3.573-6.043-3.075-9.353-1.912-3.055 1.072-4.9 2.8-5.387 5.701 2.104-2.097 4.74-4.366 9.506-4.162-2.062.405-7.645 2.972-9.212 6.35 8.18.05 8.74-.994 13.134-4.913.998-.887.519-.518 1.63-1.292M222.942 114.128c-1.649-6.16-2.725-4.43-4.688-8.462 3.404 1.87 3.781 3.444 5.776 6.672.283-6.939-5.175-10.402-11.952-10.366 1.017 6.788 4.354 10.322 10.864 12.156M25.883 97.087l-.267-.251c4.66 2.132 9.938 5.681 15.714 1.649-2.639-2.313-5.336-2.548-9.098-3.24 4.19-1.943 5.858.896 9.443 1.174-1.928-1.307-4.146-5.74-12.49-2.701-2.902 1.056-2.992.966-3.302 3.369M216.907 14.379c3.016-4.24 1.382-5.544 5.992-7.21-2.065 2.577-4.056 4.728-4.665 8.87 5.706-1.507 9.848-5.83 9.836-12.827-6.899 1.13-11.5 3.655-11.163 11.167M52.5 217.01c-1.672-4.876-3.474-5.983-6.12-8.716 4.817 1.653 4.193 2.815 7.102 6.942.413-7.138-5.387-9.392-12.494-10.174 1.488 7.543 4.311 10.052 11.513 11.949M257.284 28.978c.922-2.831 5.983-7.618 3.09-11.262-4.657 3.29-10.402 2.47-10.276 11.878 3.322-5.32 1.115-4.74 6.875-7.814-1.775.829-4.66 5.482-5.705 9.463l6.016-2.265zM286.316 75.954l-4.111-7.805c2.427 1.794 3.451 3.914 5.167 6.152-.16-6.934-5.324-10.346-12.015-10.295.895 6.27 4.767 11.179 10.96 11.948M259.793 70.689c3.989-4.311 1.119-5.116 6.27-6.985-2.27 2.756-3.942 4.63-4.81 8.976 6.581-1.877 8.945-5.05 10.162-12.891-7.405 1.343-11.053 3.196-11.623 10.9M233.893 89.034c1.889-6.318-.298-6.428 1.206-10.048l.919 8.893c.286-.648.373-.306.954-1.57 1.091-2.372.828-4.79-.024-7.186-1.044-2.925-3.369-4.814-5.19-6.157-3.291 6.361-2.129 11.41 2.135 16.068M104.688 92.811c-1.528-5.293-3.126-6.008-5.85-9.023 3.631 1.527 5.438 3.577 6.91 7.582.612-7.453-4.955-10.115-11.772-10.94.468 6.994 4.43 10.932 10.712 12.381M88.024 83.3c-.723-5.033-2.56-4.29-4.504-8.382 3.29 1.975 3.88 3.6 5.83 6.832.075-7.009-5.01-10.562-12.006-10.613 1.244 6.792 4.413 10.582 10.68 12.164M303.652 147.845c-1.25-4.559-3.872-6.812-6.055-9.015 6.29 2.744 3.137 2.74 7.28 7.228-.633-7.436-4.771-9.588-12.165-10.48 1.316 7.689 3.876 10.469 10.94 12.267M111.304 151.854c1.932-3.875 1.233-6.82 4.68-9.09-1.712 3.055-2.948 5.945-2.776 10.229 4.995-1.881 7.143-6.923 6.797-14.493-5.43.318-9.887 5.509-8.701 13.354M33.12 237.605c7.766.361 12.164-2.85 14.103-8.16-4.978.72-6.105 1.862-9.71 3.711 2.623-4.103 3.919-2.685 7.912-5.018-6.722-2.63-10.896 4.45-12.306 9.467M288.943 172.57c3.479-1.723 4.197-2.58 8.878-2.756-.208.137-.475.306-.64.393l-1.94.922c-3.526 1.39-4.02.585-6.286 3.856 9.686 1.669 11.41-.785 15.549-4.83-5.721-3.486-13.044-3.345-15.561 2.415M216.381 123.033c-1.378-4.794-3.502-5.936-5.493-8.834 5.018 2.25 3.24 3.243 6.679 6.977-.605-7.472-4.838-9.416-12.212-10.515 1.516 7.837 3.845 10.405 11.026 12.372M275.338 147.873c2.002 4.79 6.97 8.43 14.245 7.652-1.496-2.913-4.712-4.244-7.943-6.349 4.774.306 5.45 2.501 8.434 4.186-2.6-8.293-12.585-6.742-14.736-5.49M345.818 135.885c4.312 2.584 5.242.609 8.486 5.234-1.48-1.598-6.35-3.495-10.186-3.644 2.042 5.297 7.142 8.238 14.473 7.315-1.567-4.52-6.286-11.493-12.773-8.905M113.577 60.072c-.8-3.844-3.592-6.84-5.493-8.807 5.753 1.625 3.35 3.773 6.919 7.099-.911-7.63-4.528-9.777-12.263-10.637 1.265 7.044 4.26 10.959 10.837 12.345M304.15 56.023c4.457-1.103 3.785-1.853 9.38-1.464l-4.64 1.417c-1.924.425-3.523 1.049-4.893 1.63.632.608.361.62 1.484 1.217.727.385.915.46 1.806.71 4.147 1.155 9.397.115 12.546-3.435-4.488-4.63-11.525-4.94-15.683-.075M149.823 50.71c4.386 1.756 9.129 5.84 15.863 1.835-2.713-2.458-6.188-2.67-10.15-3.483 4.83-1.139 6.734.157 10.291 1.727-3.082-5.434-12.808-5.78-16.004-.078M314.52 92.607c3.059-.836 5.556-2.042 9.51-1.433-4.547 1.731-6.235.274-9.922 3.887 4.484 1.65 8.253 2.152 12.659-.412l3.043-2.812c-4.555-3.53-11.834-4.798-15.29.77M64.983 53.043c5.74 1.661 9.812 4.147 15.788-.27-2.823-2.392-5.838-1.976-10.11-2.011 4.181-1.87 6.05-.687 10.346-.016-2.234-1.826-3.82-3.33-7.96-2.854-3.662.42-6.56 2.053-8.064 5.151M267.897 93.863c1.127-3.341 2.682-5.336 5.615-7.31-2.022 3.686-3.212 3.254-4.508 8.685 6.46-1.626 9.282-5.804 10.5-12.927-6.648 1.178-12.24 4.096-11.607 11.552M10.876 182.202c7.366 3.11 11.874 1.449 16.067-2.768-4.9-1.068-6.412-.283-10.837.145 4.723-1.869 3.981-2.148 10.213-1.657-5.82-4.9-13.233.173-15.443 4.28M33.81 166.85l-3.537-7.987c3.86 1.877.914-.216 4.94 6.675-.064-8.19-4.183-10.343-11.521-11.764.974 7.421 3.816 11.363 10.118 13.075M94.173 109.408c-1.3-4.15-3.409-7.409-5.933-8.972 4.806 1.233 4.5 3.923 7.11 7.264-.42-7.72-4.715-9.624-12.109-10.727 1.441 7.3 4.04 10.755 10.932 12.435M298.559 66.523c13.84-2.1 2.91-.668 10.704-.15-3.99.229-7.826-.243-10.747 2.094 3.302 2.289 7.743 3.156 11.995 1.637.334-.118 1.465-.605 1.744-.762l2.12-1.61c-4.37-4.916-10.248-5.83-15.816-1.209M302.481 46.973c2.855-2.49 2.54-3.777 7.602-5.175l-.974.946c-3.506 3.05-3.942 2.132-5.842 6.137 3.973.094 6.102-.585 8.536-2.454 2.58-1.975 4.15-3.534 4.767-6.871-7.798-.53-12.435.922-14.089 7.417M311.509 79.24c.121-2.01.039-.211 0-2.355-5.364-2.258-10.276-5.764-15.22-.098 4.34-.829 4.661-1.5 9.577-.573-2.658 1.248-6.2.647-9.942 2.415 4.543 4.546 10.566 2.273 15.585.612M172.385 184.59c-.68-3.9-3.77-7.308-5.95-9.142 6.37 2.721 3.158 2.643 7.179 7.096-.48-7.418-4.763-9.27-12.023-10.37 1.378 7.535 4.201 10.833 10.794 12.415M69.031 71.918c-.734-5.12-2.375-5.972-4.433-9.223 5.376 3.447 2.737 3.172 5.847 7.562.282-7.547-4.421-10.28-10.888-11.618.172 7.177 3.895 11.693 9.474 13.279M342.265 228.33c2.733 1.92 4.52 2.557 6.14 5.851-4.361-2.171-2.245-3.25-7.825-4.747 1.155 6.428 5.23 10.37 11.811 11.548-.852-7.264-2.823-12.027-10.126-12.651M7.46 150.86c2.803 4.59 7.955 6.581 15.494 4.685-1.916-3.059-5.768-2.964-9.141-4.727 4.68-.31 4.975.624 8.807 2.069-.997-1.975.165-1.528-2.69-3.122-1.229-.687-2.839-.997-4.413-1.048-3.145-.098-5.815 1.087-8.057 2.144M85.063 159.157c4.288 5.38 9.267 5.207 15.368 3.962-1.72-3.224-6.196-3.483-9.832-4.457 4.367-.836 6.817.715 9.958 2.007-5.823-7.845-13.436-3.173-14.987-1.983-.126.094-.342.31-.507.471M339.147 102.42c4.46-.837 6.09-1.948 10.378-.142-3.809.008-7.735.016-10.3 2.026 4.398 3.612 10.987 3.145 15.671-.832-.569-.668-.451-.7-1.264-1.387-.848-.714-1.162-.903-2.022-1.358-1.315-.695-2.764-1.217-4.449-1.363-4.335-.38-5.85 1.002-8.014 3.055M309.906 232.764c1.328 3.078 1.5 6.62.672 9.502-1.068-3.624-.051-6.938-3.26-10.048-2.277 6.373-2.61 10.543 1.701 15.836.946-.538 1.04.172 2.674-3.13 2.018-4.08 2.434-9.435-1.786-12.16M1.354 187.33c2.285 5.587 6.852 7.567 14.555 7.468-1.602-3.384-4.62-4.786-8.634-5.929 4.331-1.182 6.4 2.25 9.153 3.617-4.284-9.38-14.988-5.215-15.074-5.156M164.752 34.133c.961-4.307.58-6.153 3.91-8.842-1.401 3.86-2.442 5.163-2.418 9.804 1.998-.86 4.166-3.066 5.3-5.089 1.65-2.929 1.76-6.266 1.485-9.8-5.73 1.951-10.685 5.791-8.277 13.927M25.098 111.784c4.17 3.88 10.845 4.256 15.67.828l-4.256-1.798c-2.395-.424-2.254.118-4.52-1.311 5.03-.342 5.223.675 9.004 1.052-2.497-1.744-3.4-3.361-7.873-2.98-3.435.29-6.47 1.987-8.025 4.209M308.167 196.671c-2.458-2.14-4.394-4.507-8.473-5.92 1.21 6.965 4.731 10.436 11.61 11.398-.231-7.421-2.575-11.395-9.313-12.479.671.672.64.73 1.59 1.453.6.456 1.72 1.107 2.053 1.374 1.881 1.512 1.677 1.598 2.533 4.174M129.916 66.283c-1.555-4.755-3.181-6.738-5.969-9.086 5.682 1.936 3.656 2.965 7.091 7.308-.455-7.574-4.409-9.616-12.05-10.641 1.406 7.649 4.103 10.48 10.928 12.42M1.468 210.131c7.947.334 12.42-2.371 14.434-7.853-5.29.833-5.74 1.614-9.836 3.393 3.604-4.378 3.66-2.49 8.638-4.763-7.606-1.417-11.571 3.275-13.236 9.223M272.91 27.191l6.711-5.862c.126-.126.354-.342.542-.499l.53-3.46c-7.272-.16-11.983 1.253-13.5 7.603.21-.15.504-.648.602-.483.094.16.443-.362.57-.483 2.005-1.932 2.795-3.77 7.067-4.162-3.342 1.68-5.917 4.582-7.563 7.774l5.042-.428zM349.305 157.975c1.685-.369 2.215-.761 3.738-1.284 5.458-1.872 5.23.095 5.41.193-4.719.514-6.957.852-8.963 3.526 6.494 1.783 11.909 1.555 15.658-2.918-1.61-2.01-4.73-3.207-7.939-3.314-4.85-.157-5.658 1.654-7.904 3.797M241.538 52.003c-1.488-5.497-3.2-4.802-5.226-8.486 4.625 2.514 3.283 2.969 6.165 6.593.098-7.17-5.109-9.478-11.98-10.39 1.43 7.025 4.343 10.842 11.041 12.283M152.065 173.305c.919-2.093.895-4.85 2.246-6.782 1.861-2.654.157-.534 1.845-1.723-1.06 3.031-2.324 5.917-2.603 9.737 5.38-2.128 7.343-7.161 7.076-14.889-6.079 1.955-10.35 5.446-8.564 13.657M35.597 212.393c-1.178-3.534-4.292-6.255-7.303-7.983 6.357 1.312 4.782 2.984 8.183 5.84-1.324-7.014-5.466-8.215-13.284-8.431.515 5.835 5.957 9.907 12.404 10.574M64.551 138.378c5.305 4.85 8.485 4.484 15.847 2.423-1.401-1.308-1.708-1.61-4.22-2.317l-4.587-1.311c-.145-.063-.4-.208-.593-.322 4.347-.255 5.73 1.005 9.133 1.52-3.899-4.402-8.862-4.493-13.644-1.524-.153.098-.37.236-.514.338l-.963.777c-.102.079-.306.279-.459.416M162.403 69.048c.798-3.884 1.135-5.293 3.648-7.147-1.61 3.9-2.36 5.156-2.666 9.993 5.352-2.23 7.731-7.582 6.754-14.877-4.724 1.362-9.086 6.09-8.886 9.282.302 4.904-.165.825 1.15 2.749M300.6 158.345c5.23.011 6.099.487 9.695 2.155l-10.774-1.095c2.984 6.09 10.684 6.003 15.914 3.793-4.233-6.982-11.893-8.061-14.834-4.853M51.904 82.692l3.102 2.262c4.158 1.673 9.678 1.115 12.808-2.081-4.064-1.575-6.023-1.504-10.468-1.378 2.917-1.382 4.61-1.304 8.572-.735-.008-.011-.024-3.961-7.638-1.994-2.996.773-4.711 2.352-6.376 3.926M352.544 174.907c3.024-.703 5.458-1.724 9.137-1.469-4.115 2.234-6.117.546-9.674 4.233 8.803 1.853 9.376 1.775 16.031-2.454-3.235-4.092-11.277-6.016-15.494-.31M144.37 87.011c-.3-3.922-.178-6.942 1.248-9.894l-.051 10.601c4.22-2.316 4.974-7.888 4.154-11.964-.79-3.934-1.905-3.848-1.94-3.883-3.856 3.526-8.332 8.732-3.412 15.14M241.593 69.872c-1.535-4.527-3.475-6.325-5.61-8.709 3.725 1.166 3.023 1.32 5.194 4.567 1.21 1.818.298.655 1.535 1.983-.416-6.978-4.931-9.345-11.96-9.981 1.115 7.476 3.93 10.515 10.841 12.14M.054 165.695c3.507 2.591 6.216 4.28 11.422 3.565 3.88-.534 4.304-1.79 4.308-1.794-3.444-2.615-5.666-1.999-10.044-2.996 6.62-1.54 5.642.444 10.342 1.01-2.281-1.713-3.153-3.735-7.845-3.5-3.557.181-6.388 1.928-8.183 3.715M54.008 112.612c4.469 4.516 9.471 4.767 15.683 2.639-1.645-1.963-1.46-1.7-4.398-2.458-2.466-.632-2.996-.479-5.053-1.606 3.553-.267 6.11.797 9.03 1.465-3.608-4.787-9.768-4.056-13.561-1.575l-1.7 1.535zM210.735 181.864c.153-.184.377-.702.444-.565l2.214-3.923c1.202-2.026 1.237-2.395 3.64-2.839-1.87.77-4.143 5.682-4.751 9.428 6.023-1.877 8.477-5.49 9.188-13.468-6.8 1.524-10.669 3.876-10.735 11.367M379.358 163.704c-4.264-.463-3.989-2.014-8.017-2.128-3.4-.094-5.117 1.665-7.072 3.027 1.924-.172 3.616-1.017 5.505-1.134 2.32-.146 4.205.887 5.155.934-4.39.377-7.252-.196-10.495 2.234 5.662 4.406 9.887 1.74 15.47 0-.322-1.951-.133-1.645-.546-2.933M103.871 193.962c6.27-.365 10.782-5.43 11.61-11.39-5.116 1.711-5.037 3.58-8.402 5.924 2.313-5.289 2.882-3.443 6.502-6.962-7.08.703-9.094 5.195-9.71 12.428M76.63 61.917c4.177 4.826 5.865 6.373 14.822 5.62-.652-1.5-.216-.955-1.343-1.988-1.818-1.669-5.564-2.595-7.787-3.396 4.32-.522 6.122 1.005 9.279 2.603-3.322-7.115-12.231-5.19-14.972-2.839M126.13 137.785c-.977-3.584-4.13-7.982-6.082-8.948 1.606.326 2.51 1.1 3.546 2.1l1.853 2.333c.13.169.248.38.377.546.809 1.032.738.942 1.453 1.613-.974-7.016-4.857-9.042-12.035-9.985.919 6.715 4.527 11.038 10.888 12.341M42.92 76.375c7.755 1.621 12.227.47 15.84-4.414-4.328-.577-6.055-.016-10.033.884 3.051-2.76 3.067-1.72 6.027-2.352 3.903-.837-2.12.773 1.379-.358l1.24-.604c-6.698-1.347-11.846.746-14.453 6.844M156.87 72.723c-1.251-4.763-3.4-6.18-5.775-8.972 2.136.942 2.533.93 3.9 2.584.007.011 1.118 1.759 1.295 2.006.145.208.612.844.754 1.02l.907.967c-.495-6.923-4.995-9.169-11.827-9.97.734 6.99 4.39 10.83 10.747 12.365M123.967 50.28c-.805-3.264-4.437-7.964-6.483-8.69 3.946.377 5.694 4.11 7.582 6.981-.294-7.433-5.293-9.314-12.553-10.272 1.257 6.648 4.952 10.767 11.454 11.98M284.954 125.248c3.518-1.465 4.923-3.094 9.733-2.332-2.646.77-6.412 1.456-8.58 3.349-.859.746-.64.663-1.295 1.468 9.243 1.763 10.531-.455 15.537-4.562-1.924-2.062-6.313-2.706-8.787-2.435-3.695.405-5.58 2.29-6.608 4.512M203.718 29.869c-.506-5.309-1.52-5.992-2.729-10.032 4.178 3.824 1.956 4.346 4.139 8.497 3.231-6.923-3.938-11.285-7.99-13.366-2.31 7.268 2.296 12.498 6.58 14.901M215.164 28.844c2.446-3.44 2.82-5.61 6.541-7.52-2.367 3.272-3.785 3.994-5.375 9.267 6.2-1.841 9.533-5.823 10.272-12.792-7.119.746-11.246 3.836-11.438 11.045M304.335 114.796c5.67.266 4.837-1.002 10.048 1.645l-10.174-.432c1.331 6.223 11.309 4.66 15.6 3.337-1.555-3.785-9.844-9.502-15.474-4.55M393.808 233.961l.251.263-2.693-2.045c-3.786-3.047-5.14-3.09-9.856-2.05 5.866 2.281 4.736-.059 9.443 4.425-3.145-1.264-6.254-2.556-10.31-2.83 1.762 4.911 7.5 7.499 15.007 6.502l-1.842-4.265zM172.04 140.275c2.198-9.656 2.626-5.831 4.381-8.811-1.94 3.557-2.646 5.603-3.22 10.625 5.702-3.33 7.496-6.444 7.064-14.937-4.005 1.39-8.061 4.414-8.874 8.25-.518 2.442-.294 3.16.648 4.873M379.696 207.414c3.522-1.028 5.847-2.839 9.69-1.476-2.014.373-3.843.55-5.76 1.213-2.897 1.001-3.231 1.728-4.197 2.906 8.085 1.653 11.281.463 15.84-3.577-4.575-4.331-12.24-4.28-15.573.934M197.373 69.06c1.606-4.877.114-6.471-.165-10.798 2.273 4.617 2.085 3.18 2.1 9.733 0 0 1.528-.42 1.646-4.429.055-1.947-.161-3-1.049-4.676-1.578-2.992-3.416-4.107-5.28-5.749-3.95 6.723-.59 11.811 2.748 15.919M325.55 123.265c3.836.302 6.997.322 9.254 3.18-2.98-.926-7.016-2.638-9.941-1.366 2.658 3.919 7.73 6.99 14.76 4.987-.759-4.732-8.015-10.555-14.073-6.8M9.717 215.672c4.52 5.151 12.813 4.896 15.793 1.79l-9.412-2.968c4.85-.644 5.022.074 9.007 1.158-3.742-5.937-12.392-3.173-15.388.02M125.11 35.083c-1.775-2.901-4.87-4.052-8.168-6.416 5.796.593 4.897 2.132 8.564 4.245-2.293-6.565-6.475-6.86-14.673-5.925 1.877 5.415 6.651 8.693 14.276 8.096M98.75 27.01l.02.004c-2.175 4.453-3.56 5.631-2.45 12 2.498-3.766-.18-5.042 3.224-8.536-.561 3.97-1.425 5.901-.412 10.256 3.31-3.695 7.303-9.137 3.13-15.867L98.75 27.01zM175.557 15.679l1.426-6.884c1.46-2.556.62-.918 1.712-1.86l-2.207 9.611c5.124-2.984 7.61-7.142 6.412-14.712-2.662-.483-10.814 4.217-7.343 13.845M68.96 177.789c-1.13-3.467-4.236-5.556-7.366-7.618 4.74.554 5.164 3.236 8.054 5.466-1.057-6.502-6.346-7.97-13.464-7.979.903 6.499 6.694 9.55 12.776 10.13M314.642 150.943c4.814-.04 6.369-.283 9.333 2.199-4.193-.809-5.98-1.48-10.515-.42 3.518 3.757 8.89 6.47 15.624 3.11-2.058-3.723-5.584-6.652-10.06-6.55-4.323.098-4.382 1.657-4.382 1.661M25.584 191.724c8.199.267 12.055-2.124 14.43-7.794-5.06.785-6.164 1.574-9.965 3.494 2.619-3.42 2.697-2.72 5.748-3.906l1.948-.884c.157-.082.42-.24.624-.377-7.539-.502-11.1 3.345-12.785 9.467M82.205 147.311c3.475 5.218 8.167 6.11 15.749 4.413-1.296-1.44-1.555-1.798-4.013-2.74-1.685-.64-3.502-1.025-5.281-1.394 3.706-1.575 5.725.546 9.117 1.735-4.087-6.078-8.913-4.715-15.572-2.014M104.707 137.57c1.343-3.605-1.048-5.812 2.066-9.943-.593 3.943-1.013 7.166.365 10.492 3.098-2.627 4.229-7.244 3.577-11.402-.624-3.962-1.889-4.28-1.995-4.406-4.64 2.823-6.698 8.407-4.013 15.258M207.57 11.972c-1.06-3.46-3.565-6.809-6.302-8.717 1.732.357 2.697 1.15 3.797 2.18l3.58 4.244C207.626 2.694 203.38.793 196.136 0c1.564 7.37 4.725 10.311 11.435 11.972M355.752 110.645c3.986-.82 6.37-1.912 10.421-.243-3.785.42-7.629-.354-10.287 2.21 4.716 3.53 12.027 2.792 15.631-.828-3.176-3.77-10.476-6.714-15.765-1.139M375.059 219.877c3.99-1.202 4.272-1.853 9.007-1.445-3.6 1.928-7.005.895-9.207 3.887 5.815 3.087 11.846 1.214 15.439-2.493-2.07-2.906-10.578-6.13-15.24.051M357.547 215.64c4.005-1.354 4.445-3.467 10.067-2.073-3.899.357-7.79 1.386-9.953 4.692 4.986.53 8.983.676 13.173-2.214 2.847-1.968 1.233-.18 2.407-3.244-7.774-1.959-11.399-3.188-15.694 2.84M296.659 54.472c-1.03-5.222-3.11-5.897-5.038-9.148 3.966 2.061 4.064 3.985 6.369 7.562-.13-7.52-4.618-10.056-11.6-11.355 1.104 7.323 3.994 11.127 10.269 12.941M91.236 224.69c-.432-4.051-2.148-7.825-3.81-10.232 3.798 2.914 3.122 4.524 5.486 8.906.672-7.025-3.502-12.408-9.632-12.597.17 7.37 2.58 11.89 7.956 13.924M145.665 36.371c.797.318-.028-.385 1.649 1.076 1.217 1.056.11.44 1.731 1.626 1.186.867 2.423 1.095 3.727 1.998l6.129.495c-.883-1.944.173-1.626-4.033-4.22-1.723-1.065-3.113-2.011-4.967-2.428 4.87-.373 7.174 2.51 9.455 4.335-1.515-5.39-7.852-7.888-14.19-5.858l.499 2.976zM162.36 9.714c-.29.762.2.377-.644 1.406-.848 1.029-.506.675-1.354.934-.998 3.29-1.587 5.05-.585 8.878 1.927-6.066.2-5.155 4.42-9.321-1.374 3.424-2.74 5.658-2.89 10.283 4.917-2.874 7.343-6.585 6.88-14.536-2.525.032-.428-.416-2.697.703-.224.11-.864.542-1.1.664-1.555.828.318.031-2.03.99M41.79 103.472l3.297 2.238c3.801 1.653 9.07 1.48 12.33-1.406-4.06-2.643-6.471-1.496-10.1-2.278 4.924-1.668 5.883.012 10.245.272-3.24-2.042-7.464-5.176-13.845-.688-1.783 1.257-.872.546-1.928 1.862M284.655 139.584c-3.651-1.92-5.465-2.262-10.33-2.67 3.486 5.8 6.714 6.875 14.904 6.325-1.24-5.599-6.247-9.906-14.037-7.833 3.97 1.358 7.111.49 9.463 4.178M94.098 72.48c1.775 1.264 4.186 2.67 7.138 2.878 6.224.432 7.618-1.787 8.63-2.639-3.144-2.002-5.39-1.669-9.73-1.68 4.092-2.506 5.698-.535 9.88-.322-7.327-4.426-10.048-3.5-15.918 1.763M56.678 129.87c6.734 2.548 13.005-.963 15.275-5.317-4.92.02-6.193.758-10.264 2.006 3-3.172 4.236-2.638 9.431-3.431-7.185-3.503-12.223 2.371-14.442 6.741M120.869 102.23c2.862-4.161.231-4.821 4.625-7.77-1.735 3.946-2.36 5.065-2.701 9.915 4.994-1.834 7.763-7.971 6.8-14.96-5.614 1.798-9.262 5.312-8.724 12.816M220.359 88.26c-.66-4.52-1.885-7.555-4.076-10.122 2.199 1.264 1.732.451 3.11 2.729.706 1.17.447 1.048.981 2.316l1.551 3.02c.66-7.952-3.64-10.303-9.93-12.176.4 7.46 2.474 11.826 8.364 14.233M310.425 141.296l1.233-1.893c1.103-2.238.946-4.1 4.413-5.858-1.861 2.21-3.424 5.646-3.836 9.722 5.98-2.545 8.053-6.4 8.293-14.077-6.432 1.378-10.111 5.089-10.103 12.106M354.783 128.935c4.912-.49 6.372-.993 9.82 1.669l-10.3-.813c.554 1.323.417 3.451 6.248 4.625 3.392.684 6.537-.27 9.45-.867-1.805-4.037-10.652-10.237-15.218-4.614M134.003 64.253c1.936-4.24.68-6.553 4.52-8.928l-3.22 9.64c5.289-.696 8.36-7.312 7.154-14.407-5.894 1.68-9.777 5.619-8.454 13.695M332.496 153.413c3.353-1.214 4.994-3.051 9.683-2.356-4.665 1.688-6.373 1.06-9.707 4.574 6.966 2.042 13.495-.212 15.612-4.963-6.793-1.998-12.227-3.172-15.588 2.745M95.9 137.33c-3.157-5.325-3.569-3.888-7.998-7.095 6.702.651 4.048 2.253 8.477 4.464-2.258-6.208-6.074-7.256-14.245-6.24 1.63 5.683 6.396 8.352 13.766 8.87M355.038 96.569c1.61-.409 2.32-.927 3.805-1.386 3.651-1.14 3.993-.346 3.997-.346l1.24.518c-1.464.26-3.047.487-4.802 1.01l-3.895 2.12c5.478 3.624 12.043 1.174 15.478-2.493l-3.808-2.47c-6.365-2.435-9.047.278-12.015 3.047M74.328 122.048c7.943 1.457 11.395 1.72 15.997-3.589-4.693-.868-6.318-.346-10.574.526 3.33-2.784 4.55-2.006 9.588-2.297-6.506-4.3-12.412.86-15.01 5.36M134.015 174.502c-1.586-4.92-3.503-5.674-5.395-8.744 3.793 1.684 4.346 3.196 6.376 7.162.503-7.182-5.092-9.868-11.917-10.782 1.159 6.694 3.939 10.648 10.936 12.364M324.898 228.417c3.11 1.39 5.846.722 8.575 3.73l-9.6-2.069c1.017 2.615 1.9 4.268 6.35 5.992 2.858 1.107 5.677 1.115 8.512.389-2.1-5.238-6.125-9.64-13.837-8.042M97.915 187.92c4.696-4.096 4.876-8.431 3.553-15.73-1.19.985-.695.066-1.865 2.006-1.264 2.085-1.696 6.302-2.258 8.14-.974-4.81.338-6.067 1.555-9.856-4.59 3.255-5.744 10.405-.985 15.44M341.212 211.851c3.872-1.669.986-.805 3.73-2.6 2.074-1.35 1.74-.942 4.304-1.244-3.577 3.184-4.185 1.567-7.621 6.11 7.295 1.04 12.58-2.505 14.367-7.578-8.332-1.182-11.591-.962-14.78 5.312M275.483 31.224l-.487 3.27c-.165 4.155.122 9.864 3.781 11.32l.672-9.875c1.857 3.903 1.394 3.515 1.024 8.67.817-.793.695-.153 1.363-1.535 2.627-5.454-2.14-10.295-4.402-12.965l-1.951 1.115zM26.727 133.132c5.41 2.521 13.256 2.077 15.777-3.011l-10.657.27c5.43-2.277 3.467-1.845 10.217-1.492-5.729-4.515-13.601-.227-15.337 4.233M90.839 173.846c-1.948-3.883-4.618-5.238-8.47-6.741 3.719-.236 5.851 1.806 8.49 3.392-2.737-5.905-6.232-6.039-13.57-5.163.428 5.513 6.478 8.34 13.55 8.512M350.884 71.36l-3.64-1.92-6.487.695c6.125 1.89-4.33-.938 1.449.413.828.192 1.665.141 2.756.46 2.026.596 2.517 1.31 3.515 2.174-3.715-1.323-6.173-1.61-10.61-1.382 1.35 2.647-.169.978 2.497 2.867 4.386 3.105 8.199 2.874 12.958 1.637-.118-1.87-1.43-2.949-2.438-4.944M212.533 54.394c2.372-1.999 3.617-4.527 8.356-4.892-1.163.89-2.647 1.821-3.907 2.646-2.78 1.818-2.493 1.449-3.652 4.464 7.504-.459 11.438-3.53 13.566-9.168-7.574-.687-12.698.573-14.363 6.95M41.279 197.531c5.36 1.386 13.248 2.234 15.859-3.282l-10.52.2c3.052-1.555 4.442-1.744 9.016-1.732-.695-.62-.9-1.437-3.557-1.7-3.758-.373-9.196 1.963-10.798 6.514M34.176 84.357c1.582 1.967 2.677 3.722 5.552 4.975l6.675 1.182c4.916-1.064.703.35 2.8-1.63l-9.338-4.382c5.144-.22 5.925 1.657 9.337 3-2.214-4.704-10.09-7.299-15.026-3.145M212.427 65.18c4.08-.77 4.873-1.425 9.577-.656-3.448 1.697-5.52.06-9.95 2.56 4.606 4.178 11.69 2.27 16.08-.322-3.692-4.232-11.058-6.98-15.707-1.582M149.823 99.914c1.72-4.496.286-6.027 4.437-8.98-1.343 3.507-2.423 5.395-2.898 9.875 4.916-1.291 7.66-7.228 6.938-14.516-5.862 1.217-9.961 6.165-8.477 13.621M349.894 186.882c2.383 4.327 7.924 7.241 14.783 5.517-.663-5.556-7.594-9.82-14.037-6.942 5.953.715 5.827.118 9.589 3.35-4.265-1.143-5.07-2.01-10.335-1.924M251.158 159.558c3.762.42 5.713.337 7.951 3.36-4.166-1.483-4.998-1.982-10.271-2.32 3.525 5.29 7.036 7.327 15.317 6.07-1.512-3.474-5.803-8.873-9.997-8.386-3.844.447-1.814.416-3 1.276M359.137 201.175c3.428-1.63 6.997-1.453 10.284-.365l-10.602 1.614c3.176 3.651 11.387 4.601 15.996-.051-3.286-3.358-11.422-7.418-15.678-1.198M46.073 172.998l-1.001-10.334c2.505 3.89 2.041 3.981 2.43 9.675 4.088-6.907-1.449-12.883-6.078-14.87-1.06 6.066-.82 13.444 4.649 15.53M12.796 128.766c8.159.141 11.85-2.042 14.744-7.42-6.047.702-6.393 1.998-10.484 3.278 1.17-.495 1.437-1.89 3.432-2.93 1.712-.89 4.15-1.083 5.733-1.766-6.923-2.6-11.784 3.655-13.425 8.838M327.796 62.585c3.286 2.69 9.647 5.36 14.166 1.943-.73-1.378-.698-1.264-1.633-2.901-1.382-.42.314.561-1.846-.93-1.5-1.038-.011-.138-1.385-1.136-1.379-1.001-1.763-1.091-3.153-1.724l-6.864.727c4.248 1.818 5.686-.703 9.51 3.2l-10.04-1.55c.503 1.758.165 1.216 1.245 2.37M342.807 118.624c4.484-.083 6.443.157 9.313 2.026l-10.672-.836c2.482 5.61 9.624 5.32 15.836 3.58-1.846-3.624-5.776-6.54-10.025-6.51-3.985.032-4.056 1.277-4.452 1.74M226.452 167.93c1.728-1.234.986-.217 2.03-2.062l1.98-8.18c1.064 4.991.011 5.789-1.269 9.888 5.493-3.538 4.127-10.276.644-15.643-4.9 3.918-4.52 8.924-3.385 15.996M205.642 93.416c4.433-.93 4.582-1.484 9.573-.55-2.301 1.033-7.41 1.35-10.017 2.238 4.335 5.262 12.023 2.372 16.154-.4-3.16-3.28-12.698-6.683-15.71-1.288M332.916 191.66c2.85 4.709 7.865 6.429 14.881 5.294.26-6.224-7.433-8.737-14.206-6.714 6.118.95 6.012-.224 9.966 3.333-3.609-1.535-5.973-1.877-10.641-1.912M39.359 123.528c6.938 1.382 11.964 1.932 15.894-3.157-5.403-1.068-6.49.11-10.845.11l8.528-2.65c.228-.087.515-.248.758-.4-7.201-1.092-12.18.836-14.335 6.097M190.784 38.884l-2.371-9.42c.671.688.624.401 1.319 1.3 1.755 2.266 1.488 4.594 2.71 7.158 1.216-7.621-2.694-12.4-8.694-13.5-.189 4.607-.098 8.431 3.043 11.745l3.993 2.717zM65.427 101.685c2.23 5.148 8.226 6.165 15.611 5.532-1.276-1.928-.337-1.04-2.05-2.297l-8.056-2.58c4.59-1.146 7.39 1.045 10.267 2.486-4.31-6.675-8.214-5.257-15.772-3.141M67.39 155.86c4.904 1.97 13.181 1.954 15.855-3.492l-10.7.526c3.9-2.308 4.433-1.912 9.589-1.975-6-4.912-12.899 1.512-14.744 4.94M291.578 66.268c-.75-2.168-1.406-3.467-2.62-5.062l-3.541-3.863c4.032.777 5.16 4.511 7.26 6.514-.891-6.675-5.038-9.035-12.054-9.883.922 6.765 4.57 11.049 10.955 12.294M265.298 114.014c3.313-1.488 4.935-3.373 8.218-2.265-3.617.993-7.233 2.493-8.474 5.563 8.175.413 10.684-1.425 14.465-6.36l-1.174-.805c-4.668-2.042-9.898-1.367-13.035 3.867M189.414 22.15l2.348-10.54c1.013 4.768.553 5-.75 10.005 6.172-5.143 1.955-10.782.27-15.611-5.103 2.89-5.967 12.596-1.868 16.145M93.45 49.113c-1.563-2.776-5.387-6.962-8.336-7.43 2.113-.042 2.73.009 4.445 1.112.868.558 1.127.978 1.763 1.559.188.169.722.707.923.875 1.15.962.369.4 1.774 1.277-1.802-6.126-6.828-7.288-13.884-7.017 1.45 6.102 6.24 8.905 13.315 9.624M23.95 224.919l.366-.33c-2.21 3.797-2.933 2.662-4.397 6.007 6.25 1.602 13.37.81 15.384-4.637l-9.954 1.06c3.286-2.61 4.496-2.08 9.333-2.458-3.604-2.014-7.064-.934-10.731.358M244.935 24.611l-.346-10.303c2.27 2.63 1.783 4.363 1.908 8.8 3.915-5.117-.141-11.98-5.096-14.348-2.246 5.839-1.123 13.66 3.534 15.851M289.222 93.184l-.448.876c8.281.887 11.49-1.968 14.363-6.38-1.22-1.034.365-.735-4.095-1.56-5.93.036-7.963.998-10.366 5.274 3.011-1.312.342-.012 2.08-1.104 1.69-1.064-.415-.18 2.082-1.41 1.775-.871 2.843-.804 5.002-.679-3.227.676-6.302 2.922-8.618 4.983M366.503 182.61c3.781 4.865 9.023 4.453 15.918 3.224-1.001-2.992-2.925-4.614-6.09-5.91-2.116-.867-4.641-1.154-6.918-.215-1.331.55-.982.651-1.665 1.225 4.091-.122 5.91-.758 8.583 1.402l-9.828.274zM130.92 38.005l1.077 6.235c1.821-5.54-.84 3.852.4-1.315.24-1.002.102-1.528.424-2.678.51-1.81 1.496-2.717 2.23-3.797l-1.782 10.586c3.706-1.418 3.224-2.553 5.375-5.902.613-4.547.785-5.085-.396-9.585-1.335.491-2.549 1.233-3.601 2.239l-3.726 4.217zM301.574 33.662c-.353-1.123-.561-1.904-1.146-3.004-.228-.432-.79-1.217-.966-1.539-1.147-2.065-.507-.6-.872-2.022l-3.702-1.37c-.106-.008-.37.027-.554.066-1.088 3.993-1.362 8.317 1.217 12.133l3.008 2.721-.73-10.727c1.272 3.467 1.099-.891 2.147 7.052l.428 2.148c.04.157.142.424.232.624l.938-6.082z" mask="url(#660e33uj9b)"/>
                </g>
            </g>
        </g>
    </g>
</svg>
