<?xml version="1.0" encoding="UTF-8"?> <svg xmlns="http://www.w3.org/2000/svg" width="30" height="30" viewBox="0 0 30 30"><g fill="none" fill-rule="evenodd"><g fill-rule="nonzero"><g><g><g><g transform="translate(-1198 -8304) translate(0 8036) translate(261 52) translate(895 216) translate(42)"><circle cx="15" cy="15" r="15" fill="#FFF"></circle><path fill="#03A9F4" d="M25 10.11c-.682.3-1.408.5-2.166.597.78-.469 1.374-1.205 1.654-2.092-.727.436-1.529.744-2.384.916-.69-.74-1.672-1.198-2.745-1.198-2.08 0-3.756 1.701-3.756 3.786 0 .3.025.589.087.863-3.125-.153-5.89-1.661-7.747-3.959-.324.567-.514 1.215-.514 1.913 0 1.311.67 2.473 1.67 3.146-.605-.012-1.197-.188-1.699-.466v.041c0 1.84 1.303 3.367 3.011 3.719-.306.084-.64.125-.985.125-.24 0-.484-.014-.712-.065.487 1.499 1.87 2.6 3.512 2.637-1.279 1.007-2.902 1.614-4.66 1.614-.308 0-.604-.014-.9-.052 1.666 1.081 3.639 1.698 5.766 1.698 6.917 0 10.698-5.769 10.698-10.77 0-.167-.006-.329-.014-.489.746-.533 1.373-1.199 1.884-1.965z"></path></g></g></g></g></g></g></svg> 